<?xml version="1.0" encoding="UTF-8"?>
<svg width="247px" height="63px" viewBox="0 0 247 63" version="1.1" xmlns="http://www.w3.org/2000/svg" xmlns:xlink="http://www.w3.org/1999/xlink">
    <!-- Generator: Sketch 61 (89581) - https://sketch.com -->
    <title>reactathon-nav-logo</title>
    <desc>Created with Sketch.</desc>
    <g id="Home" stroke="none" stroke-width="1" fill="none" fill-rule="evenodd">
        <g id="landing-2020-v3.0" transform="translate(-24.000000, -45.000000)">
            <g id="reactathon-nav-logo" transform="translate(24.000000, 45.000000)">
                <path d="M71,31.5072099 C71,26.8207828 65.1098655,22.3794919 56.0792907,19.6253147 C58.1632695,10.4543374 57.2370567,3.15793088 53.1559315,0.821927214 C52.2152466,0.273975738 51.1153689,0.0144197757 49.9141867,0.0144197757 L49.9141867,3.23002976 C50.5799022,3.23002976 51.1153689,3.35980774 51.5640033,3.60494392 C53.5322055,4.72968643 54.3860579,9.01235981 53.7203424,14.5207141 C53.5611496,15.876173 53.3006523,17.3037308 52.9822666,18.7601282 C50.1457399,18.0679789 47.0487159,17.5344472 43.792499,17.1883726 C41.8387689,14.5207141 39.8126784,12.0981918 37.7721158,9.97848478 C42.4900122,5.60929274 46.9184672,3.21560998 49.9286588,3.21560998 L49.9286588,0 C49.9286588,0 49.9286588,0 49.9286588,0 C45.9488382,0 40.7388912,2.82627604 35.4710558,7.72899977 C30.2032205,2.85511559 24.9932735,0.0576791028 21.0134529,0.0576791028 L21.0134529,3.27328908 C24.0091724,3.27328908 28.4520995,5.65255207 33.1699959,9.99290455 C31.1439054,12.1126116 29.1178149,14.5207141 27.1930289,17.1883726 C23.92234,17.5344472 20.8253159,18.0679789 17.9887892,18.774548 C17.6559315,17.3325704 17.4099062,15.9338521 17.2362413,14.592813 C16.5560538,9.08445869 17.3954342,4.80178531 19.3491643,3.66262303 C19.7833265,3.40306706 20.3477375,3.28770886 21.0134529,3.28770886 L21.0134529,0.0720988785 C21.0134529,0.0720988785 21.0134529,0.0720988785 21.0134529,0.0720988785 C19.7977986,0.0720988785 18.6979209,0.331654841 17.742764,0.879606317 C13.6761109,3.21560998 12.7643702,10.4975967 14.862821,19.6397345 C5.86119038,22.4083314 0,26.8352026 0,31.5072099 C0,36.193637 5.89013453,40.6349279 14.9207093,43.3891051 C12.8367305,52.5600824 13.7629433,59.8564889 17.8440685,62.1924926 C18.7847534,62.740444 19.8846311,63 21.1002854,63 C25.080106,63 30.290053,60.173724 35.5578883,55.2710002 C40.8257236,60.1448844 46.0356706,62.9423209 50.0154912,62.9423209 C51.2311455,62.9423209 52.3310232,62.6827649 53.2861802,62.1348135 C57.3528333,59.7988098 58.264574,52.5168231 56.1661231,43.3746853 C65.1388096,40.6205081 71,36.1792172 71,31.5072099 Z M52.1213873,22.0227273 C51.6028761,23.91542 50.9582405,25.8668009 50.2295221,27.8181818 C49.6549556,26.6444189 49.0523615,25.4706559 48.3937121,24.296893 C47.7490766,23.12313 47.0623995,21.9787112 46.3757225,20.8636364 C48.3656845,21.1717491 50.2855773,21.5532221 52.1213873,22.0227273 Z M45.4543642,37.1914325 C44.3339595,39.1268062 43.1848266,40.9618273 41.9926012,42.6678234 C39.852341,42.8541927 37.6833526,42.9545455 35.5,42.9545455 C33.3310116,42.9545455 31.1620231,42.8541927 29.0361272,42.6821595 C27.8439017,40.9761634 26.6804046,39.1554784 25.56,37.2344408 C24.4683237,35.3564114 23.4771965,33.4497099 22.5722543,31.5286722 C23.4628324,29.6076345 24.4683237,27.6865969 25.5456358,25.8085675 C26.6660405,23.8731938 27.8151734,22.0381727 29.0073988,20.3321766 C31.147659,20.1458073 33.3166474,20.0454545 35.5,20.0454545 C37.6689884,20.0454545 39.8379769,20.1458073 41.9638728,20.3178405 C43.1560983,22.0238366 44.3195954,23.8445216 45.44,25.7655592 C46.5316763,27.6435886 47.5228035,29.5502901 48.4277457,31.4713278 C47.5228035,33.3923655 46.5316763,35.3134031 45.4543642,37.1914325 Z M50.4698075,35.1818182 C51.276671,37.1314188 51.9639991,39.0810194 52.5317919,40.972423 C50.5744009,41.4379992 48.5124165,41.8308292 46.3757225,42.1363636 C47.1078764,41.0160707 47.8400303,39.8666793 48.5273584,38.6881894 C49.2146866,37.5242488 49.857189,36.3457588 50.4698075,35.1818182 Z M35.7274666,50.7272727 C34.3470821,49.3772727 32.9666977,47.8725852 31.6011561,46.2272727 C32.937012,46.2835227 34.3025536,46.3257102 35.682938,46.3257102 C37.0781653,46.3257102 38.4585498,46.2975852 39.8092486,46.2272727 C38.4733926,47.8725852 37.0930082,49.3772727 35.7274666,50.7272727 Z M24.6242775,42.5454545 C22.6343155,42.2373418 20.7144227,41.8558688 18.8786127,41.3863636 C19.3971239,39.4936709 20.0417595,37.54229 20.7704779,35.5909091 C21.3450444,36.764672 21.9476385,37.938435 22.6062879,39.1121979 C23.2649373,40.2859609 23.9376005,41.4303797 24.6242775,42.5454545 Z M35.682938,12.2727273 C37.0633225,13.6227273 38.4437069,15.1274148 39.8092486,16.7727273 C38.4733926,16.7164773 37.107851,16.6742898 35.7274666,16.6742898 C34.3322393,16.6742898 32.9518548,16.7024148 31.6011561,16.7727273 C32.937012,15.1274148 34.3173964,13.6227273 35.682938,12.2727273 Z M25.0346821,20.8636364 C24.3025282,21.9862779 23.5703743,23.1380789 22.8830462,24.3190395 C22.1957181,25.4854202 21.5532157,26.651801 20.9405971,27.8181818 C20.1337337,25.864494 19.4464055,23.9108062 18.8786127,22.0154374 C20.8360037,21.5634648 22.8979881,21.1698113 25.0346821,20.8636364 Z M11.6630564,39.0232323 C6.57479556,36.837037 3.28323699,33.9703704 3.28323699,31.6973064 C3.28323699,29.4242424 6.57479556,26.5430976 11.6630564,24.3713805 C12.8991876,23.8356902 14.2503077,23.3579125 15.6445486,22.9090909 C16.4638449,25.7468013 17.5418662,28.7003367 18.8786127,31.7262626 C17.5562398,34.7377104 16.4925921,37.6767677 15.6876695,40.5 C14.2646813,40.0511785 12.9135612,39.5589226 11.6630564,39.0232323 Z M19.592153,59.3379153 C17.6441104,58.2131051 16.7990037,53.9301737 17.4579005,48.4214876 C17.6154627,47.065947 17.8732919,45.6383033 18.1884164,44.1818182 C20.9958895,44.8740091 24.0611917,45.4075729 27.2840562,45.7536684 C29.2177749,48.4214876 31.2231128,50.8441558 33.2427746,52.9639906 C28.573202,57.3334458 24.1901063,59.7272727 21.2107471,59.7272727 C20.5661742,59.7128521 20.0218682,59.5830663 19.592153,59.3379153 Z M53.5322205,48.3899366 C54.2056309,53.9139958 53.3746139,58.2088795 51.4403502,59.3512896 C51.0105138,59.6115856 50.4517265,59.7272727 49.792644,59.7272727 C46.826773,59.7272727 42.4281141,57.3412262 37.7572254,52.9884989 C39.7631285,50.8627484 41.7690316,48.4477801 43.6746396,45.7725159 C46.9127403,45.4254545 49.9789065,44.8904017 52.7871708,44.1818182 C53.116712,45.6423679 53.3746139,47.045074 53.5322205,48.3899366 Z M55.3093923,22.9090909 C56.7310702,23.3579125 58.0809461,23.8501684 59.3446598,24.3858586 C64.4282353,26.5720539 67.716763,29.4387205 67.716763,31.7117845 C67.7024026,33.9848485 64.413875,36.8659933 59.3302994,39.0377104 C58.0953065,39.5734007 56.7454305,40.0511785 55.3524734,40.5 C54.5339316,37.6622896 53.4569029,34.7087542 52.1213873,31.6828283 C53.4425425,28.6713805 54.5052108,25.7323232 55.3093923,22.9090909 Z M35.2947977,24.9545455 C38.9213611,24.9545455 41.8612717,27.8850453 41.8612717,31.5 C41.8612717,35.1149547 38.9213611,38.0454545 35.2947977,38.0454545 C31.6682342,38.0454545 28.7283237,35.1149547 28.7283237,31.5 C28.7283237,27.8850453 31.6682342,24.9545455 35.2947977,24.9545455 Z" id="Shape" fill="#FF632D" fill-rule="nonzero"></path>
                <path d="M100.419295,36.8964581 C100.51866,37.0294817 100.568341,37.1791309 100.568341,37.3454103 C100.568341,38.1102957 99.7734376,38.6922649 98.1836062,39.0913356 C96.4281673,37.7278443 94.2421819,35.6327549 91.6255843,32.8060047 C88.7108933,29.6466955 86.5414684,27.45184 85.1172444,26.2213723 C85.0178799,27.0860253 84.8357144,29.3473916 84.5707425,33.005539 C84.4051351,35.7657775 84.1070462,37.960633 83.6764668,39.5901714 C83.6102238,39.5901714 83.4032177,39.6733098 83.055442,39.8395893 C82.7076664,40.0058687 82.4178577,40.0557518 82.1860073,39.98924 C80.7286618,39.6566811 80,38.6423918 80,36.9463417 C80,36.4475034 80.066242,35.7823957 80.1987279,34.9509985 C80.3312139,33.9865779 80.4140164,33.3879809 80.4471379,33.1551897 C80.5796238,31.2263484 80.6624263,28.9317267 80.6955478,26.2712558 L80.6955478,20.8339458 C80.6955478,16.3111453 80.9439552,12.5034036 81.4407775,9.41060623 C81.7719924,7.34874134 83.7095704,6.40096282 87.2535697,6.56724224 C89.0421301,6.63375402 90.5988167,7.53164945 91.9236762,9.2609555 C93.1491713,10.857238 93.7619096,12.5865181 93.7619096,14.4488477 C93.7619096,16.0118743 93.1822923,17.5748775 92.0230402,19.1379041 C91.0293955,20.5346513 89.8039188,21.632079 88.3465733,22.4302203 C87.7503865,22.7627791 87.4522976,23.1285884 87.4522976,23.527659 C87.4522976,23.9599855 87.800068,24.475444 88.4956193,25.07405 L90.0854428,26.371023 C90.1185643,26.4042789 91.9402188,28.0670482 95.550461,31.3593809 C97.8358437,33.4212458 99.4587723,35.2669197 100.419295,36.8964581 Z M89.9363968,14.4987313 C90.0357613,13.9001253 90.0688823,13.3680391 90.0357608,12.9024567 C89.9363963,12.2040831 89.6465877,11.5722308 89.1663261,11.0068808 C88.6860645,10.4415307 87.9160014,10.1588599 86.8561138,10.1588599 C86.0611981,10.1588599 85.5643832,10.4082753 85.3656543,10.9071136 C85.2000468,11.7385107 85.1172444,12.6862892 85.1172444,13.7504776 C85.1172444,14.1828041 85.1669259,15.2968595 85.2662903,17.0926774 C85.3325333,18.4561687 85.3325333,19.5702241 85.2662903,20.4348771 C88.0153739,18.3730122 89.5720605,16.3943167 89.9363968,14.4987313 Z M115.224333,17.6761706 C114.181575,18.0963421 112.645643,18.5865348 110.616492,19.1467634 C108.587341,19.706992 107.051409,20.1971847 106.008651,20.6173562 C105.755007,21.3456534 105.571822,22.9702921 105.459092,25.4913209 C105.910014,25.6593895 106.431386,25.7434225 107.023221,25.7434225 C107.445961,25.7434225 108.108244,25.673395 109.010089,25.5333378 C109.911934,25.3932807 110.574216,25.3232531 110.996956,25.3232531 C111.78607,25.3232531 112.462444,25.4913192 113.026097,25.8274564 C113.420654,26.387685 113.61793,26.7518281 113.61793,26.9198967 C113.61793,27.1159767 113.519292,27.2700373 113.322013,27.382083 C113.265648,27.4100945 113.068372,27.6061715 112.730181,27.9703201 C112.504719,28.222423 112.222897,28.3344671 111.884705,28.3064556 C111.292869,28.4465128 110.207853,28.5305458 108.629625,28.5585573 C107.30504,28.5865687 106.248206,28.7546348 105.459092,29.0627605 C104.923621,31.1356064 104.65589,32.7742506 104.65589,33.9787421 C104.65589,34.7910736 104.768619,35.4353269 104.99408,35.9115212 C106.318665,36.8358984 108.615517,37.2280526 111.884705,37.0879954 C112.110166,37.0879954 112.349715,36.9829541 112.603359,36.7728684 C112.857003,36.5627827 113.06837,36.4577414 113.237466,36.4577414 C114.02658,36.2896728 114.547952,36.877904 114.801595,38.2224527 C114.886143,38.6706356 114.808642,39.083798 114.56909,39.4619524 C114.329537,39.8401067 113.984305,40.0431865 113.533382,40.0711979 C110.123281,40.1832437 107.164146,39.9171391 104.65589,39.2728761 C103.866776,39.0767961 103.148129,38.6426255 102.499928,37.9703511 C101.851727,37.2980768 101.485358,36.5417795 101.40081,35.7014365 C101.147166,33.264442 101.147166,31.0795831 101.40081,29.1467944 C100.611695,28.6145772 100.259417,28.0963735 100.343965,27.5921677 C100.372148,27.3400648 100.59056,27.108974 100.999209,26.8988883 C101.407857,26.6888025 101.640361,26.4717172 101.696726,26.2476257 C101.753091,26.0235343 101.86582,24.6930113 102.034916,22.2560167 C100.456687,21.947891 99.681676,21.3596598 99.7098587,20.4913054 C99.7380413,19.6789739 100.23123,19.0347206 101.189441,18.5585263 L103.894962,17.4660859 C104.965903,16.9338688 106.290468,16.4576816 107.868697,16.0375101 C109.221464,15.6733615 110.588303,15.3232238 111.969253,14.9870867 C112.110166,14.9590752 112.279259,14.9450697 112.476538,14.9450697 C113.23747,14.9450697 114.12521,15.2391854 115.139786,15.8274254 C115.167968,15.9394711 115.238424,16.1495537 115.351155,16.4576795 C115.463885,16.7658052 115.52025,16.9898933 115.52025,17.1299504 C115.52025,17.3540419 115.421612,17.5361135 115.224333,17.6761706 Z M131.779393,28.1836369 C131.948489,28.6318198 132.033036,29.023974 132.033036,29.3601111 C132.033036,29.9203398 131.793487,30.4105325 131.314381,30.8307039 C130.835276,31.2508754 130.511181,31.4469525 130.342085,31.418941 C128.961135,31.1668382 128.087485,30.0604032 127.721111,28.099603 C127.326554,25.9707343 126.861547,24.192035 126.326076,22.7634521 L123.45146,23.0155537 C122.352336,23.1556108 121.492778,23.491743 120.87276,24.0239602 C120.56275,24.8923145 120.154108,26.4329201 119.64682,28.6458232 C119.167715,30.6906577 118.702708,32.2452688 118.251786,33.3097032 C118.026324,33.813909 117.547226,33.953964 116.814477,33.7298726 C115.88445,33.4217468 115.391261,33.0015816 115.334895,32.4693645 C115.250347,31.4049301 115.560352,29.9763685 116.264918,28.1836369 C117.110398,26.1388024 117.575405,24.6822298 117.659953,23.8138755 C117.688136,23.5617726 117.504951,23.2816625 117.110394,22.9735367 C116.715837,22.665411 116.518561,22.4273174 116.518561,22.2592488 C116.518561,22.1191917 116.581971,21.9721338 116.708793,21.818071 C116.835615,21.6640081 117.131528,21.5379586 117.596542,21.4399185 C118.061556,21.3418785 118.322242,21.1948207 118.378607,20.9987407 C118.885895,19.5981691 119.689088,16.9931451 120.788212,13.1835905 C121.71824,9.87824157 122.549616,7.34324507 123.282365,5.5785249 C123.451461,5.18636486 123.803738,4.99028779 124.339209,4.99028779 C124.733766,4.99028779 125.086044,5.11633734 125.396053,5.36844022 C126.185168,6.04071457 126.692448,7.04911097 126.917909,8.39365967 C127.087005,9.54212835 127.242007,10.6905798 127.382921,11.8390485 C128.792053,18.4497463 130.257529,23.8978879 131.779393,28.1836369 Z M125.607422,20.158402 C125.522874,19.121979 125.33969,17.9595221 125.057863,16.6709962 C124.776037,15.550539 124.508305,14.4300985 124.254661,13.3096413 C123.409182,15.6345901 122.676444,17.959504 122.056425,20.2844528 C122.507348,20.2004185 123.691002,20.158402 125.607422,20.158402 Z M167.669826,9.03037786 C168.064383,9.03037786 168.416661,9.15642741 168.72667,9.40853029 C169.515785,10.0808046 170.023065,11.089201 170.248526,12.4337497 C170.417622,13.5822184 170.572624,14.7306699 170.713537,15.8791386 C172.12267,22.4898363 173.588146,27.937978 175.11001,32.223727 C175.279106,32.6719099 175.363652,33.064064 175.363652,33.4002012 C175.363652,33.9604298 175.124103,34.4506225 174.644998,34.870794 C174.165893,35.2909655 173.841797,35.4870425 173.672702,35.4590311 C172.291751,35.2069282 171.418102,34.1004933 171.051728,32.1396931 C170.65717,30.0108243 170.192164,28.2321251 169.656693,26.8035421 L166.782077,27.0556438 C165.682953,27.1957009 164.823395,27.531833 164.203376,28.0640502 C163.893367,28.9324046 163.484725,30.4730102 162.977437,32.6859133 C162.498332,34.7307478 162.033325,36.2853589 161.582403,37.3497933 C161.356941,37.853999 160.877843,37.9940541 160.145094,37.7699626 C159.215067,37.4618369 158.721878,37.0416717 158.665512,36.5094545 C158.580964,35.4450201 158.890969,34.0164586 159.595535,32.223727 C160.441015,30.1788925 160.906022,28.7223199 160.99057,27.8539656 C161.018752,27.6018627 160.835568,27.3217526 160.441011,27.0136268 C160.046454,26.7055011 159.849178,26.4674075 159.849178,26.2993389 C159.849178,26.1592817 159.912588,26.0122239 160.03941,25.8581611 C160.166232,25.7040982 160.462145,25.5780486 160.927159,25.4800086 C161.392173,25.3819686 161.652859,25.2349108 161.709224,25.0388308 C162.032427,24.1465003 162.475743,22.7652581 163.039181,20.8950838 C161.144563,21.3196596 158.18389,21.8555371 154.158478,22.5016542 C153.594825,29.4765006 153.313002,35.2887854 153.313002,39.938683 C153.313002,41.7034032 153.341185,43.4400858 153.39755,45.1487832 C153.425733,45.6810003 153.39755,46.08716 153.313002,46.3672743 C153.172089,46.8154572 152.890267,47.0255398 152.467527,46.9975284 C151.65023,46.9695169 150.973856,46.6263821 150.438386,45.9681134 C149.902915,45.3098448 149.607002,44.5745557 149.550637,43.7622242 C149.494271,42.7258013 149.466089,41.6333718 149.466089,40.4849032 C149.466089,38.6361487 149.592909,35.708998 149.846553,31.7033634 C150.100197,27.8657973 150.212926,24.9386466 150.184743,22.9218236 C149.423811,22.8658007 148.366978,22.9358282 147.01421,23.1319083 C145.464164,23.3559997 144.393239,23.4680438 143.801403,23.4680438 C142.420453,23.4680438 141.293164,23.1039006 140.419502,22.3756034 C140.08131,21.6473062 139.912216,21.2691575 139.912216,21.2411461 C139.912216,21.0450661 140.010854,20.8349835 140.208133,20.6108921 C141.109978,20.3027663 142.955914,20.0226562 145.745997,19.7705533 C148.197888,19.5184504 150.029733,19.0702743 151.241587,18.4260113 C152.22798,18.7341371 153.35527,18.8881977 154.623489,18.8881977 C155.891709,18.8881977 157.103545,18.7341371 158.259034,18.4260113 C158.597226,18.3979999 159.456784,18.2019228 160.837734,17.8377742 C161.852309,17.5856713 162.697776,17.5016383 163.37416,17.5856726 C163.664887,17.5856726 163.85842,17.6546728 163.954761,17.7926742 C164.007925,17.6076098 164.062995,17.4171993 164.118829,17.2236805 C165.048857,13.9183317 165.880232,11.3833351 166.612982,9.61861498 C166.782077,9.22645494 167.134355,9.03037786 167.669826,9.03037786 Z M142.025905,9.68972056 C142.815019,9.68972056 143.533666,9.92781416 144.181867,10.4040085 C144.379146,10.5440656 144.477784,10.8521868 144.477784,11.3283811 C144.477784,12.0846897 143.970504,12.5608769 142.955928,12.756957 C141.631343,13.0090598 140.814058,13.3031754 140.504049,13.6393126 C137.347592,16.9446615 135.769387,21.2163407 135.769387,26.4544783 C135.769387,28.9194843 136.163938,31.2443982 136.953052,33.4292899 C137.601253,35.2220215 138.06626,36.3984839 138.348087,36.9587125 C139.052653,38.3312727 139.912211,39.3116581 140.926787,39.8998981 C141.349527,40.0959781 141.77226,40.2780497 142.195,40.4461183 C142.645923,40.6982212 142.87138,41.0483588 142.87138,41.4965417 C142.87138,41.9447246 142.723424,42.3508843 142.427506,42.7150329 C142.131588,43.0791815 141.814538,43.2192366 141.476346,43.1352023 C141.109971,43.0791794 140.546327,42.8971078 139.785395,42.5889821 C138.432628,41.804662 136.967151,40.1380068 135.388923,37.5889666 C134.994366,36.9447037 134.592769,36.2794422 134.18412,35.5931621 C133.775472,34.906882 133.472513,34.255626 133.275234,33.6393745 C133.134321,33.1911916 132.894772,31.3844814 132.55658,28.2191897 C132.443849,27.2387896 132.387485,26.2864152 132.387485,25.362038 C132.387485,20.4040147 133.83887,16.1883575 136.741683,12.71494 C138.432643,10.698117 140.194032,9.68972056 142.025905,9.68972056 Z M168.938039,24.198492 C168.853491,23.1620691 168.670307,21.9996121 168.38848,20.7110863 C168.106653,19.590629 167.838922,18.4701886 167.585278,17.3497313 C166.739799,19.6746801 166.007061,21.9995941 165.387042,24.3245429 C165.837965,24.2405086 167.021618,24.198492 168.938039,24.198492 Z M196.718411,8.87200633 C196.464767,9.88041786 195.985669,10.4686491 195.281103,10.6367177 C193.44923,11.0849006 190.264638,11.6731318 185.72723,12.401429 C185.163577,19.3762754 184.881755,25.1885602 184.881755,29.8384578 C184.881755,31.603178 184.909937,33.3398607 184.966302,35.048558 C184.994485,35.5807752 184.966303,35.9869348 184.881755,36.2670491 C184.740842,36.715232 184.459019,36.9253146 184.036279,36.8973032 C183.218982,36.8692917 182.542609,36.5261569 182.007138,35.8678882 C181.471668,35.2096196 181.175754,34.4743306 181.119389,33.661999 C181.063024,32.6255761 181.034842,31.5331467 181.034842,30.384678 C181.034842,28.5359235 181.161662,25.6087729 181.415306,21.6031382 C181.668949,17.7655721 181.781678,14.8384214 181.753496,12.8215984 C180.992564,12.7655755 179.93573,12.8356031 178.582963,13.0316831 C177.032917,13.2557745 175.961992,13.3678186 175.370156,13.3678186 C173.989206,13.3678186 172.861917,13.0036754 171.988254,12.2753782 C171.650062,11.547081 171.480969,11.1689324 171.480969,11.1409209 C171.480969,10.9448409 171.579607,10.7347583 171.776885,10.5106669 C172.67873,10.2025411 174.524667,9.92243101 177.31475,9.67032813 C179.766641,9.41822525 181.598486,8.97004907 182.81034,8.32578615 C183.796733,8.6339119 184.924022,8.78797246 186.192242,8.78797246 C187.460461,8.78797246 188.672297,8.6339119 189.827786,8.32578615 C190.165978,8.29777472 191.025536,8.10169764 192.406486,7.73754904 C193.421062,7.48544616 194.266529,7.40141312 194.942913,7.48544742 C195.450201,7.48544742 195.661567,7.69553 195.577019,8.11570147 C196.337951,8.11570147 196.718411,8.36780057 196.718411,8.87200633 Z M206.324313,15.6011804 C206.267948,18.0941977 205.859305,22.0437503 205.098374,27.4499565 C204.393807,32.5760485 204.041529,36.5115955 204.041529,39.2567158 C204.041529,40.1250702 204.069712,40.951395 204.126077,41.7357151 C204.126077,41.9317951 204.04153,42.1208694 203.872434,42.3029437 C203.703338,42.485018 203.506063,42.5760538 203.280602,42.5760538 C202.491487,42.5760538 201.970116,42.5060263 201.716472,42.3659691 C200.645531,41.7497176 200.110069,40.5872607 200.110069,38.8785634 C200.110069,38.5424262 200.131205,38.0172197 200.173479,37.3029282 C200.215753,36.5886367 200.23689,36.0634303 200.23689,35.7272931 C200.23689,35.1670645 200.307345,34.3127286 200.448259,33.1642599 C200.589172,32.0157913 200.659628,31.1334444 200.659628,30.5171929 C200.26507,30.5452044 199.722562,30.4891823 199.032087,30.3491252 C198.341612,30.209068 197.841378,30.1390405 197.531368,30.1390405 C197.164994,30.1390405 196.812716,30.1950625 196.474524,30.3071082 C195.79814,32.5200113 195.403589,35.7832941 195.290858,40.0970545 C194.332648,40.4892146 193.402634,40.447198 192.50079,39.9710037 C191.852588,39.6348665 191.528493,38.9626023 191.528493,37.9541907 C191.528493,37.7300993 191.549629,37.4289809 191.591903,37.0508266 C191.634177,36.6726723 191.655314,36.4415814 191.655314,36.3575471 C191.739862,34.8449299 192.063958,31.8477517 192.627611,27.3659227 C193.106716,23.6123909 193.332174,20.6292182 193.303991,18.4163151 C193.303991,18.1081894 193.522403,17.9121123 193.959235,17.828078 C194.396066,17.7440437 194.64266,17.6600107 194.699026,17.5759764 C194.868122,17.7720564 195.276764,17.9401225 195.924965,18.0801796 C196.460436,18.1922254 196.784531,18.4443245 196.897262,18.8364845 C197.122723,19.5367703 197.235452,20.3210786 197.235452,21.189433 C197.235452,21.8056844 197.14386,22.7790671 196.960673,24.1096101 C196.777485,25.4401531 196.685893,26.4555522 196.685893,27.155838 C197.024085,27.4079409 197.446818,27.5620014 197.954106,27.6180243 C198.292298,27.6740472 198.771396,27.6880527 199.391414,27.6600412 C200.208711,27.6040184 200.701901,27.5760074 200.870996,27.5760074 C201.575563,24.6348071 202.195572,20.8253096 202.731042,16.1474005 C202.843773,15.1670004 203.196051,14.6768078 203.787887,14.6768078 C205.281568,14.5367506 206.127035,14.8448717 206.324313,15.6011804 Z M223.809396,25.1648816 C222.146619,28.890402 219.793403,31.1032718 216.749676,31.8035576 C216.383301,31.8875919 216.016932,31.9296084 215.650558,31.9296084 C214.044146,31.9296084 212.423668,31.0612671 210.789074,29.3245583 C209.68995,28.1480782 209.140397,26.6214781 209.140397,24.7447122 C209.140397,22.6718663 209.760406,20.4449909 211.000443,18.0640193 C211.535913,17.0556078 212.184105,16.1872664 212.945036,15.4589692 C213.818699,14.5906148 214.650075,14.1564442 215.439189,14.1564442 C215.890111,14.1564442 216.312845,14.3245102 216.707402,14.6606474 C217.101959,14.9967846 218.158793,15.4449607 219.877935,16.0051894 C221.230702,16.4533723 222.188898,17.2096696 222.752552,18.274104 C223.738944,20.1508699 224.232134,21.761503 224.232134,23.1060517 C224.232134,23.8623603 224.091222,24.5486301 223.809396,25.1648816 Z M220.427494,22.5598315 C220.230215,20.514997 219.680662,19.296518 218.778817,18.904358 C218.637904,18.8483351 218.511084,18.8203241 218.398353,18.8203241 C218.060161,18.8203241 217.637428,19.1004342 217.13014,19.6606629 C216.566487,20.3049258 216.129662,20.6830744 215.819653,20.7951202 C215.622374,20.8791545 215.340552,20.7951214 214.974177,20.5430185 C214.607803,20.2909157 214.368254,20.1648661 214.255523,20.1648661 C214.170975,20.1648661 214.10052,20.1928771 214.044154,20.2489 C213.057761,21.0892429 212.564572,22.3917549 212.564572,24.1564751 C212.564572,25.3609667 212.846395,26.3833686 213.410048,27.2237115 C214.199162,28.3721802 214.861445,28.9464059 215.396915,28.9464059 C216.636952,28.9464059 217.834697,28.1761031 218.990186,26.6354744 C220.089309,25.17888 220.568407,23.8203459 220.427494,22.5598315 Z M244,3.93016815 C243.605443,7.68369994 243.224983,11.4511809 242.858608,15.2327241 C242.379503,19.7145532 242.139954,23.4540231 242.139954,26.4512463 C242.139954,27.4316464 242.168136,28.3980263 242.224502,29.3504149 C242.252684,29.7985978 242.090636,30.190752 241.738353,30.5268891 C241.38607,30.8630263 240.984473,31.0310924 240.533551,31.0310924 C239.659888,31.0310924 238.92715,30.4428612 238.335314,29.266381 C236.531624,25.7649521 234.291137,20.274794 231.613785,12.7957418 C231.557419,12.6276732 231.486964,12.5436402 231.402416,12.5436402 C231.205137,12.5436402 231.078317,12.7397173 231.021952,13.1318773 C230.542847,17.137512 230.303298,21.3531691 230.303298,25.7789753 C230.303298,27.9078441 230.359662,30.0786974 230.472393,32.2916005 C230.500575,33.103932 230.261026,33.6641522 229.753739,33.972278 C229.55646,34.168358 229.345093,34.2663965 229.119632,34.2663965 C228.922353,34.2663965 228.668713,34.1823635 228.358704,34.0142949 C227.935964,33.8182149 227.668233,33.6921653 227.555502,33.6361425 C227.189128,33.5240967 226.96367,33.1879646 226.879122,32.627736 C226.850939,32.1795531 226.822757,31.7173714 226.794575,31.2411771 C226.710027,29.6725369 226.667753,28.0338928 226.667753,26.3251955 C226.667753,23.3559838 226.836847,19.6445248 227.175039,15.1907072 C227.710509,8.41194085 228.006422,4.65846536 228.062788,3.93016815 C228.09097,3.31391666 228.612342,3.00579554 229.626917,3.00579554 C230.106022,2.94977268 230.810578,3.29991032 231.740606,4.05621896 C232.642451,5.76491627 233.755649,8.53800636 235.080234,12.3755724 C236.348454,16.0450699 237.503925,18.8321655 238.546683,20.7369429 C238.969423,17.0114225 239.631706,11.3812093 240.533551,3.84613428 C240.618099,3.28590565 241.026741,3.00579554 241.75949,3.00579554 C242.013134,3.00579554 242.309047,3.04781206 242.647239,3.13184635 C243.098162,3.24389208 243.365893,3.3139196 243.450441,3.34193103 C243.732268,3.45397676 243.915452,3.65005384 244,3.93016815 Z" id="Reactathon" fill="#36A7EE"></path>
                <text id="CONFERENCE" font-family="InterUI-Black, Inter UI" font-size="10.89172" font-weight="700" line-spacing="16.3057325" letter-spacing="10.197174" fill="#FF632D">
                    <tspan x="80" y="56">CONFERENC</tspan>
                    <tspan x="240.219125" y="56" letter-spacing="-1.602189">E</tspan>
                </text>
            </g>
        </g>
    </g>
</svg>