<?xml version="1.0" encoding="UTF-8"?>
<svg width="249px" height="64px" viewBox="0 0 249 64" version="1.1" xmlns="http://www.w3.org/2000/svg" xmlns:xlink="http://www.w3.org/1999/xlink">
    <!-- Generator: Sketch 61.2 (89653) - https://sketch.com -->
    <title>reactathon-nav-logo</title>
    <desc>Created with Sketch.</desc>
    <g id="Symbols" stroke="none" stroke-width="1" fill="none" fill-rule="evenodd">
        <g id="sidenav" transform="translate(-24.000000, -40.000000)">
            <g id="logo">
                <g transform="translate(24.000000, 40.000000)">
                    <g id="reactathon-nav-logo">
                        <path d="M72.0549451,31.9303836 C72.0549451,27.1810131 66.0772927,22.6800711 56.9125381,19.8889026 C59.0274815,10.5947497 58.0875067,3.20034509 53.9457426,0.83296653 C52.9910807,0.27765551 51.8748606,0.0146134479 50.6558307,0.0146134479 L50.6558307,3.27341233 C51.3314376,3.27341233 51.8748606,3.40493336 52.3301609,3.65336197 C54.3276074,4.79321091 55.1941467,9.13340493 54.5185398,14.715742 C54.3569816,16.0894061 54.0926137,17.5361375 53.7694973,19.0120957 C50.8908244,18.3106502 47.7477836,17.7699526 44.4431846,17.4192299 C42.4604252,14.715742 40.4042303,12.2606828 38.3333483,10.1125059 C43.121345,5.68463123 47.6155996,3.25879888 50.6705178,3.25879888 L50.6705178,3.55271368e-15 C50.6705178,3.55271368e-15 50.6705178,3.55271368e-15 50.6705178,3.55271368e-15 C46.6315635,3.55271368e-15 41.3442051,2.86423579 35.9980983,7.83280807 C30.6519915,2.89346268 25.3646331,0.0584537916 21.3256788,0.0584537916 L21.3256788,3.31725267 C24.3659099,3.31725267 28.8748516,5.72847157 33.6628484,10.1271194 C31.6066534,12.2752962 29.5504585,14.715742 27.5970733,17.4192299 C24.2777872,17.7699526 21.1347464,18.3106502 18.2560735,19.0267092 C17.9182701,17.5653644 17.6685893,16.1478599 17.492344,14.7888093 C16.80205,9.20647217 17.6539022,4.86627815 19.6366615,3.71181576 C20.0772747,3.4487737 20.6500719,3.33186612 21.3256788,3.33186612 L21.3256788,0.0730672395 C21.3256788,0.0730672395 21.3256788,0.0730672395 21.3256788,0.0730672395 C20.0919618,0.0730672395 18.9757417,0.336109302 18.0063927,0.891420321 C13.8793158,3.25879888 12.954028,10.6385901 15.0836585,19.903516 C5.94827818,22.709298 4.26325641e-14,27.1956265 4.26325641e-14,31.9303836 C4.26325641e-14,36.6797542 5.97765239,41.1806962 15.1424069,43.9718647 C13.0274636,53.2660176 13.9674384,60.6604222 18.1092025,63.0278008 C19.0638644,63.5831118 20.1800845,63.8461538 21.4138014,63.8461538 C25.4527558,63.8461538 30.7401141,60.9819181 36.086221,56.0133458 C41.4323278,60.9526912 46.7196861,63.7877001 50.7586405,63.7877001 C51.9923574,63.7877001 53.1085775,63.524658 54.0779266,62.969347 C58.2050035,60.6019684 59.1302912,53.2221772 57.0006608,43.9572513 C66.1066669,41.1660827 72.0549451,36.6651408 72.0549451,31.9303836 Z M52.8958267,22.3185148 C52.3696113,24.2366284 51.7153975,26.2142183 50.9758514,28.1918082 C50.3927478,27.0022804 49.7812002,25.8127526 49.1127643,24.6232249 C48.4585505,23.4336971 47.7616706,22.2739075 47.0647907,21.1438561 C49.0843202,21.4561072 51.0327396,21.8427037 52.8958267,22.3185148 Z M46.1297424,37.6909511 C44.9926904,39.6523189 43.8264832,41.5119861 42.6165432,43.2408955 C40.4444823,43.429768 38.2432662,43.5314685 36.0274725,43.5314685 C33.8262564,43.5314685 31.6250403,43.429768 29.467557,43.2554242 C28.257617,41.5265148 27.0768322,39.6813762 25.9397802,37.7345371 C24.8318834,35.8312839 23.8260297,33.8989734 22.9076415,31.9521342 C23.8114521,30.0052951 24.8318834,28.0584559 25.9252026,26.1552027 C27.0622547,24.193835 28.2284619,22.3341677 29.4384018,20.6052583 C31.6104627,20.4163859 33.8116788,20.3146853 36.0274725,20.3146853 C38.2286886,20.3146853 40.4299047,20.4163859 42.587388,20.5907297 C43.797328,22.3196391 44.9781128,24.1647777 46.1151648,26.1116168 C47.2230617,28.01487 48.2289154,29.9471805 49.1473036,31.8940196 C48.2289154,33.8408588 47.2230617,35.7876979 46.1297424,37.6909511 Z M51.2197071,35.6543457 C52.0385593,37.6301314 52.7361,39.6059171 53.3123293,41.5227241 C51.3258546,41.9945536 49.2332325,42.3926596 47.0647907,42.7022977 C47.8078232,41.5669581 48.5508557,40.4021293 49.2483964,39.207811 C49.9459371,38.0282375 50.5979861,36.8339192 51.2197071,35.6543457 Z M36.2583189,51.4085914 C34.8574242,50.0404595 33.4565294,48.5155626 32.0706981,46.8481518 C33.4264027,46.9051573 34.812234,46.9479115 36.2131287,46.9479115 C37.6290869,46.9479115 39.0299816,46.9194087 40.4007495,46.8481518 C39.045045,48.5155626 37.6441502,50.0404595 36.2583189,51.4085914 Z M24.9901544,43.1168831 C22.9706248,42.8046321 21.0222055,42.4180356 19.1591183,41.9422244 C19.6853338,40.0241109 20.3395476,38.046521 21.0790936,36.0689311 C21.6621972,37.2584588 22.2737449,38.4479866 22.9421807,39.6375144 C23.6106166,40.8270422 24.2932744,41.9868317 24.9901544,43.1168831 Z M36.2131287,12.4375624 C37.6140235,13.8056943 39.0149182,15.3305913 40.4007495,16.998002 C39.045045,16.9409965 37.6592136,16.8982424 36.2583189,16.8982424 C34.8423608,16.8982424 33.441466,16.9267451 32.0706981,16.998002 C33.4264027,15.3305913 34.8272974,13.8056943 36.2131287,12.4375624 Z M25.4066569,21.1438561 C24.6636244,22.2815759 23.9205919,23.4488468 23.2230512,24.6456688 C22.5255105,25.8277153 21.8734616,27.0097617 21.2517405,28.1918082 C20.4328883,26.2118804 19.7353476,24.2319525 19.1591183,22.311127 C21.145593,21.853084 23.2382151,21.4541433 25.4066569,21.1438561 Z M11.8363505,39.5473539 C6.67248637,37.3317958 3.33202058,34.4266269 3.33202058,32.1230333 C3.33202058,29.8194398 6.67248637,26.8995983 11.8363505,24.6987128 C13.0908486,24.1558277 14.4620442,23.6716329 15.8770013,23.2167832 C16.7084709,26.092607 17.80251,29.0858113 19.1591183,32.1523785 C17.8170971,35.2042731 16.7376453,38.1828048 15.9207629,41.043956 C14.4766314,40.5891064 13.1054358,40.090239 11.8363505,39.5473539 Z M19.8832606,60.1348837 C17.9062733,58.9949661 17.0486097,54.6545106 17.7172966,49.0718373 C17.8772,47.6980904 18.1388601,46.2512719 18.4586668,44.7752248 C21.3078544,45.4767125 24.4187021,46.0174427 27.6894531,46.3681865 C29.6519037,49.0718373 31.6870377,51.5270444 33.7367084,53.6753506 C28.9977535,58.1034921 24.5495321,60.5294705 21.5259045,60.5294705 C20.8717543,60.5148562 20.3193608,60.3833272 19.8832606,60.1348837 Z M54.3276227,49.0398625 C55.0110388,54.6381154 54.1676742,58.9906837 52.2046705,60.1484376 C51.7684474,60.4122296 51.2013575,60.5294705 50.5324821,60.5294705 C47.5225431,60.5294705 43.0585272,58.111377 38.3182367,53.7001882 C40.3539442,51.5458867 42.3896518,49.0984829 44.323574,46.3872871 C47.6097877,46.0355644 50.7215121,45.4933253 53.5715027,44.7752248 C53.9059404,46.2553911 54.1676742,47.676937 54.3276227,49.0398625 Z M56.1312003,23.2167832 C57.574002,23.6716329 58.943935,24.1705003 60.2264254,24.7133854 C65.3855346,26.9289435 68.7229245,29.8341124 68.7229245,32.1377059 C68.7083507,34.4412994 65.3709609,37.3611409 60.2118516,39.5620265 C58.9585087,40.1049115 57.5885758,40.5891064 56.1749216,41.043956 C55.3442175,38.1681323 54.2511859,35.174928 52.8958267,32.1083608 C54.2366122,29.0564662 55.31507,26.0779344 56.1312003,23.2167832 Z M35.8192212,25.2897103 C39.4996695,25.2897103 42.4832624,28.2595697 42.4832624,31.9230769 C42.4832624,35.5865842 39.4996695,38.5564436 35.8192212,38.5564436 C32.1387729,38.5564436 29.1551801,35.5865842 29.1551801,31.9230769 C29.1551801,28.2595697 32.1387729,25.2897103 35.8192212,25.2897103 Z" id="Shape" fill="#FF632D" fill-rule="nonzero"></path>
                        <path d="M101.844135,37.1660577 C101.944712,37.3011743 101.994999,37.4531782 101.994999,37.6220739 C101.994999,38.3989941 101.190401,38.9901203 99.5811817,39.39547 C97.804335,38.0105251 95.5916912,35.8824711 92.9431839,33.011244 C89.9929479,29.8022255 87.7970665,27.5728355 86.355474,26.3230072 C86.2548977,27.2012649 86.0705108,29.4982122 85.8023075,33.2139178 C85.6346804,36.0175866 85.3329563,38.2469766 84.897126,39.9021546 C84.8300751,39.9021546 84.6205445,39.9866012 84.2685277,40.1554969 C83.9165109,40.3243926 83.623168,40.3750605 83.3884901,40.3075023 C81.9133721,39.9697108 81.1758242,38.9394624 81.1758242,37.2167262 C81.1758242,36.710039 81.242874,36.0344663 81.3769756,35.1899878 C81.5110773,34.2103926 81.5948895,33.6023772 81.6284149,33.3659232 C81.7625166,31.406733 81.8463288,29.0760071 81.8798542,26.3736757 L81.8798542,20.8508135 C81.8798542,16.2568502 82.131291,12.3891964 82.6341722,9.24773615 C82.9694263,7.15342932 84.9306333,6.19073821 88.517852,6.35963392 C90.3282241,6.4271922 91.9038947,7.33921537 93.2449111,9.09573077 C94.4853512,10.7171296 95.1055619,12.4736187 95.1055619,14.3652506 C95.1055619,15.9528703 94.5188761,17.5404662 93.3454868,19.1280859 C92.3397245,20.5468099 91.099303,21.6615048 89.624185,22.4722043 C89.0207276,22.8099957 88.7190035,23.1815607 88.7190035,23.5869104 C88.7190035,24.0260392 89.071015,24.5496081 89.7750486,25.1576327 L91.3842602,26.4750126 C91.4177856,26.5087918 93.2616554,28.1977235 96.915925,31.5418586 C99.2291782,33.6361655 100.871899,35.5108797 101.844135,37.1660577 Z M91.2333966,14.4159191 C91.3339728,13.8078945 91.3674977,13.2674364 91.3339723,12.7945284 C91.2333961,12.0851664 90.9400531,11.4433723 90.4539347,10.8691269 C89.9678163,10.2948815 89.1883622,10.0077631 88.1155491,10.0077631 C87.3109393,10.0077631 86.8080657,10.2611028 86.6069133,10.76779 C86.4392862,11.6122685 86.355474,12.5749596 86.355474,13.6558922 C86.355474,14.095021 86.4057613,15.2266053 86.5063375,17.050679 C86.5733884,18.4356239 86.5733884,19.5672082 86.5063375,20.4454659 C89.2889465,18.351159 90.8646171,16.3413302 91.2333966,14.4159191 Z M116.829722,17.6433531 C115.774248,18.0701357 114.219585,18.5680412 112.165688,19.1370846 C110.111791,19.706128 108.557128,20.2040335 107.501654,20.6308161 C107.244917,21.3705725 107.059498,23.0207737 106.945393,25.581469 C107.401814,25.7521821 107.929544,25.8375373 108.528597,25.8375373 C108.956492,25.8375373 109.626851,25.7664079 110.539694,25.6241471 C111.452537,25.4818862 112.122897,25.4107569 112.550792,25.4107569 C113.349529,25.4107569 114.034152,25.5814673 114.604678,25.9228934 C115.004047,26.4919368 115.203729,26.8618094 115.203729,27.0325225 C115.203729,27.2316877 115.103888,27.3881723 114.904204,27.5019809 C114.847151,27.5304331 114.64747,27.7295953 114.305153,28.0994735 C114.076943,28.3555431 113.791683,28.46935 113.449367,28.4408979 C112.850314,28.5831587 111.752066,28.668514 110.154591,28.6969661 C108.813852,28.7254183 107.74413,28.8961288 106.945393,29.2091026 C106.403392,31.3145633 106.132396,32.9789903 106.132396,34.2024336 C106.132396,35.0275466 106.246499,35.6819367 106.47471,36.1656236 C107.815449,37.1045452 110.140311,37.5028696 113.449367,37.3606087 C113.677578,37.3606087 113.920048,37.2539147 114.176785,37.0405234 C114.433523,36.8271321 114.647467,36.7204381 114.818625,36.7204381 C115.617363,36.5497251 116.145092,37.1472117 116.401829,38.5129159 C116.487408,38.9681506 116.408962,39.3878138 116.166488,39.7719181 C115.924014,40.1560224 115.574572,40.3622976 115.11815,40.3907498 C111.666462,40.5045584 108.671241,40.2342669 106.132396,39.579867 C105.333658,39.3807018 104.606247,38.9396997 103.950141,38.2568476 C103.294035,37.5739955 102.923198,36.8057985 102.837619,35.9522333 C102.580882,33.4768945 102.580882,31.2576585 102.837619,29.2944587 C102.038882,28.7538675 101.682308,28.2275102 101.767887,27.7153712 C101.796413,27.4593016 102.017489,27.2245747 102.431121,27.0111835 C102.844753,26.7977922 103.080092,26.5772912 103.137144,26.3496738 C103.194197,26.1220564 103.308301,24.7705986 103.479459,22.2952598 C101.881983,21.9822859 101.097521,21.3847993 101.126047,20.502782 C101.154573,19.677669 101.653777,19.0232789 102.623673,18.539592 L105.362188,17.4299629 C106.446189,16.8893717 107.786908,16.405692 109.384383,15.9789095 C110.753648,15.6090313 112.137155,15.2533845 113.534946,14.9119584 C113.677578,14.8835062 113.848733,14.8692804 114.048418,14.8692804 C114.818629,14.8692804 115.717195,15.1680237 116.744144,15.7655193 C116.77267,15.8793279 116.843985,16.092716 116.95809,16.4056899 C117.072196,16.7186638 117.129248,16.9462777 117.129248,17.0885386 C117.129248,17.3161559 117.029407,17.5010923 116.829722,17.6433531 Z M133.586673,28.3161467 C133.757831,28.7713814 133.843409,29.1697058 133.843409,29.5111319 C133.843409,30.0801753 133.600939,30.5780808 133.115991,31.0048633 C132.631043,31.4316459 132.302995,31.6308081 132.131837,31.6023559 C130.734046,31.3462864 129.849742,30.2224425 129.4789,28.2307906 C129.079531,26.0684256 128.608853,24.2617399 128.066853,22.8106792 L125.15718,23.0667475 C124.044652,23.2090083 123.174612,23.5504292 122.547032,24.0910205 C122.233242,24.9730378 121.819616,26.5378837 121.306142,28.7856051 C120.821194,30.8626136 120.350517,32.4416854 119.894095,33.5228679 C119.665884,34.0350069 119.180944,34.1772656 118.439259,33.9496483 C117.497889,33.6366744 116.998686,33.2098982 116.941633,32.669307 C116.856054,31.5881245 117.169839,30.1370856 117.882998,28.3161467 C118.738788,26.2391382 119.209466,24.7596475 119.295045,23.8776303 C119.323571,23.6215607 119.138153,23.3370433 118.738784,23.0240694 C118.339415,22.7110955 118.139733,22.4692557 118.139733,22.2985427 C118.139733,22.1562818 118.203917,22.0069102 118.332285,21.8504232 C118.460654,21.6939363 118.760176,21.5659035 119.230861,21.4663209 C119.701546,21.3667383 119.96541,21.2173666 120.022463,21.0182014 C120.535937,19.5955929 121.348926,16.9495807 122.461453,13.0800855 C123.402823,9.72272939 124.244337,7.14784658 124.986023,5.35535983 C125.157181,4.95702945 125.513755,4.75786724 126.055755,4.75786724 C126.455124,4.75786724 126.811698,4.88590009 127.125488,5.14196962 C127.924226,5.82482171 128.437692,6.84908449 128.665903,8.21478868 C128.837061,9.38132767 128.993954,10.5478492 129.136585,11.7143882 C130.562903,18.4291004 132.04625,23.9629646 133.586673,28.3161467 Z M127.339434,20.1646406 C127.253855,19.1119103 127.068437,17.9311629 126.783173,16.622363 C126.49791,15.4842762 126.226914,14.3462065 125.970177,13.2081196 C125.114386,15.5696498 124.372712,17.9311445 123.745133,20.2926747 C124.201554,20.2073182 125.399643,20.1646406 127.339434,20.1646406 Z M169.914794,8.86152517 C170.314163,8.86152517 170.670737,8.98955801 170.984527,9.24562755 C171.783265,9.92847964 172.296731,10.9527424 172.524942,12.3184466 C172.6961,13.4849856 172.852993,14.6515071 172.995624,15.8180461 C174.421942,22.5327583 175.905289,28.0666225 177.445712,32.4198046 C177.61687,32.8750393 177.702448,33.2733637 177.702448,33.6147898 C177.702448,34.1838332 177.459978,34.6817387 176.97503,35.1085213 C176.490082,35.5353038 176.162034,35.734466 175.990876,35.7060139 C174.593085,35.4499443 173.708781,34.3261005 173.337939,32.3344485 C172.93857,30.1720836 172.467892,28.3653978 171.925892,26.9143371 L169.016219,27.1704054 C167.903691,27.3126662 167.033651,27.6540872 166.406071,28.1946784 C166.092281,29.0766957 165.678655,30.6415416 165.165181,32.8892631 C164.680233,34.9662715 164.209556,36.5453433 163.753134,37.6265258 C163.524923,38.1386648 163.039983,38.2809236 162.298298,38.0533062 C161.356928,37.7403323 160.857725,37.3135562 160.800672,36.7729649 C160.715093,35.6917824 161.028878,34.2407435 161.742037,32.4198046 C162.597827,30.3427961 163.068505,28.8633055 163.154084,27.9812882 C163.18261,27.7252187 162.997192,27.4407012 162.597823,27.1277273 C162.198454,26.8147535 161.998773,26.5729136 161.998773,26.4022006 C161.998773,26.2599398 162.062956,26.1105681 162.191324,25.9540812 C162.319693,25.7975942 162.619215,25.6695614 163.0899,25.5699788 C163.560585,25.4703962 163.824449,25.3210245 163.881502,25.1218593 C164.208656,24.2154609 164.657397,22.8124274 165.22773,20.9127385 C163.309584,21.344237 160.312925,21.8885194 156.238674,22.5447622 C155.668147,29.6293526 155.382887,35.5330895 155.382887,40.2561498 C155.382887,42.0486365 155.411413,43.8126446 155.468466,45.548227 C155.496992,46.0888183 155.468467,46.5013686 155.382887,46.7858903 C155.240256,47.241125 154.954997,47.4545131 154.527101,47.4260609 C153.699837,47.3976087 153.015215,47.0490749 152.473215,46.3804489 C151.931214,45.7118229 151.631692,44.9649646 151.574639,44.1398516 C151.517587,43.0871213 151.489061,41.9775033 151.489061,40.8109643 C151.489061,38.9331211 151.617427,35.9599138 151.874164,31.8912535 C152.130901,27.9933061 152.245005,25.0200989 152.216479,22.9715426 C151.446267,22.9146382 150.376545,22.9857676 149.007281,23.1849328 C147.438332,23.4125502 146.354347,23.5263571 145.755294,23.5263571 C144.357503,23.5263571 143.216466,23.1564845 142.332149,22.416728 C141.989833,21.6769716 141.818677,21.2928731 141.818677,21.2644209 C141.818677,21.0652557 141.918518,20.8518676 142.118203,20.6242503 C143.031046,20.3112764 144.899493,20.0267589 147.723602,19.7706894 C150.205394,19.5146199 152.059579,19.059392 153.286211,18.404992 C154.284634,18.7179659 155.42567,18.8744505 156.709356,18.8744505 C157.993042,18.8744505 159.219656,18.7179659 160.389236,18.404992 C160.731553,18.3765399 161.601593,18.1773777 162.999384,17.8074995 C164.026333,17.5514299 164.88211,17.4660747 165.566742,17.5514312 C165.861105,17.5514312 166.057028,17.6215602 166.154514,17.7618193 C166.208222,17.5737649 166.263971,17.3803332 166.320493,17.1837434 C167.261862,13.8263873 168.103377,11.2515045 168.845062,9.45901776 C169.01622,9.06068737 169.372794,8.86152517 169.914794,8.86152517 Z M143.958143,9.53124214 C144.75688,9.53124214 145.484291,9.77308196 146.140397,10.2567689 C146.340082,10.3990297 146.439922,10.7119989 146.439922,11.1956858 C146.439922,11.9638944 145.926456,12.447574 144.899507,12.6467392 C143.558769,12.9028088 142.731517,13.2015521 142.417728,13.5429781 C139.222777,16.9003343 137.625325,21.2392252 137.625325,26.5597811 C137.625325,29.0635721 138.024688,31.4250668 138.823426,33.6443361 C139.479532,35.465275 139.95021,36.6602483 140.235473,37.2292917 C140.948632,38.623448 141.818672,39.6192591 142.845621,40.2167547 C143.273516,40.4159199 143.701405,40.6008562 144.1293,40.7715692 C144.585721,41.0276388 144.813929,41.3832855 144.813929,41.8385203 C144.813929,42.293755 144.664168,42.7063053 144.364641,43.0761835 C144.065114,43.4460617 143.744198,43.5883204 143.401882,43.5029639 C143.031039,43.4460596 142.460521,43.2611233 141.690309,42.9481494 C140.321045,42.1514886 138.837697,40.4586098 137.240222,37.8694623 C136.840853,37.2150624 136.434358,36.5393335 136.020726,35.8422553 C135.607094,35.1451771 135.300441,34.4836741 135.100756,33.8577263 C134.958125,33.4024916 134.715654,31.5673541 134.373338,28.3522589 C134.259233,27.3564329 134.202181,26.3890736 134.202181,25.450152 C134.202181,20.4141178 135.671266,16.1321303 138.609479,12.6040612 C140.32106,10.5555049 142.10393,9.53124214 143.958143,9.53124214 Z M171.198473,24.2682985 C171.112894,23.2155682 170.927476,22.0348208 170.642212,20.726021 C170.356949,19.5879341 170.085953,18.4498644 169.829216,17.3117776 C168.973425,19.6733077 168.231751,22.0348025 167.604172,24.3963326 C168.060593,24.3109761 169.258682,24.2682985 171.198473,24.2682985 Z M199.317631,8.70066178 C199.060894,9.72493992 198.575953,10.3224265 197.862794,10.4931396 C196.008582,10.9483743 192.785153,11.5458609 188.192411,12.2856173 C187.621884,19.3702078 187.336625,25.2739446 187.336625,29.997005 C187.336625,31.7894917 187.365151,33.5534998 187.422204,35.2890822 C187.45073,35.8296735 187.422204,36.2422237 187.336625,36.5267455 C187.193993,36.9819802 186.908734,37.1953683 186.480839,37.1669161 C185.653575,37.1384639 184.968953,36.7899301 184.426952,36.1213041 C183.884951,35.452678 183.585429,34.7058198 183.528377,33.8807068 C183.471324,32.8279765 183.442798,31.7183585 183.442798,30.5518195 C183.442798,28.6739763 183.571165,25.700769 183.827902,21.6321086 C184.084639,17.7341613 184.198743,14.760954 184.170216,12.7123978 C183.400005,12.6554934 182.330283,12.7266228 180.961018,12.925788 C179.392069,13.1534053 178.308084,13.2672123 177.709031,13.2672123 C176.31124,13.2672123 175.170203,12.8973396 174.285886,12.1575832 C173.94357,11.4178268 173.772415,11.0337282 173.772415,11.0052761 C173.772415,10.8061109 173.872256,10.5927228 174.07194,10.3651054 C174.984783,10.0521316 176.853231,9.76761412 179.677339,9.51154458 C182.159131,9.25547505 184.013316,8.80024715 185.239949,8.14584722 C186.238371,8.4588211 187.379408,8.61530569 188.663093,8.61530569 C189.946779,8.61530569 191.173394,8.4588211 192.342974,8.14584722 C192.68529,8.11739505 193.55533,7.91823285 194.953121,7.54835463 C195.98007,7.2922851 196.835848,7.20692986 197.52048,7.29228638 C198.033954,7.29228638 198.247898,7.50567445 198.162319,7.93245701 C198.932531,7.93245701 199.317631,8.18852271 199.317631,8.70066178 Z M209.040678,15.5357144 C208.983625,18.0679576 208.569999,22.0796535 207.799788,27.5709224 C207.086629,32.7776696 206.730055,36.7751396 206.730055,39.5634548 C206.730055,40.4454696 206.758581,41.284796 206.815634,42.0814568 C206.815634,42.280622 206.730056,42.4726713 206.558898,42.6576104 C206.38774,42.8425495 206.188058,42.9350177 205.959848,42.9350177 C205.16111,42.9350177 204.63338,42.8638883 204.376643,42.7216275 C203.292642,42.0956797 202.75065,40.9149323 202.75065,39.1793499 C202.75065,38.8379239 202.772044,38.3044537 202.814834,37.5789233 C202.857623,36.853393 202.879018,36.3199228 202.879018,35.9784968 C202.879018,35.4094533 202.950332,34.5416752 203.092964,33.3751362 C203.235596,32.2085972 203.306911,31.3123672 203.306911,30.6864195 C202.907542,30.7148717 202.358418,30.6579682 201.659522,30.5157073 C200.960627,30.3734465 200.454292,30.3023171 200.140502,30.3023171 C199.769659,30.3023171 199.413085,30.3592206 199.070769,30.4730293 C198.386137,32.7207508 197.986774,36.0353789 197.872669,40.4170132 C196.902773,40.8153436 195.961418,40.7726659 195.048575,40.288979 C194.392469,39.947553 194.06442,39.2647111 194.06442,38.240433 C194.06442,38.0128156 194.085815,37.7069594 194.128604,37.3228551 C194.171394,36.9387508 194.192788,36.7040239 194.192788,36.6186674 C194.278367,35.0822502 194.606416,32.0379136 195.176942,27.4855663 C195.66189,23.6729755 195.890098,20.6428647 195.861571,18.3951433 C195.861571,18.0821694 196.082647,17.8830072 196.524806,17.7976507 C196.966964,17.7122942 197.216566,17.6269389 197.273618,17.5415824 C197.444777,17.7407476 197.858402,17.9114581 198.514508,18.0537189 C199.056509,18.1675276 199.384557,18.4235933 199.498662,18.8219237 C199.726873,19.533228 199.840977,20.3298768 199.840977,21.2118941 C199.840977,21.8378418 199.748268,22.8265399 199.562846,24.178018 C199.377425,25.5294961 199.284716,26.5608718 199.284716,27.2721761 C199.627032,27.5282456 200.054921,27.6847302 200.568395,27.7416346 C200.910711,27.7985389 201.395652,27.8127648 202.023231,27.7843126 C202.850496,27.7274083 203.349699,27.6989565 203.520857,27.6989565 C204.234016,24.7114786 204.861586,20.8420415 205.403587,16.090529 C205.517692,15.094703 205.874266,14.5967975 206.473319,14.5967975 C207.985216,14.4545366 208.840993,14.7675058 209.040678,15.5357144 Z M226.738993,25.2498935 C225.055939,29.0340322 222.674024,31.2817199 219.593179,31.9930242 C219.222336,32.0783807 218.8515,32.1210583 218.480657,32.1210583 C216.854655,32.1210583 215.214415,31.2390542 213.559887,29.4750197 C212.447359,28.2800285 211.891104,26.7294085 211.891104,24.823113 C211.891104,22.7176524 212.518674,20.4557388 213.773833,18.0373043 C214.315834,17.0130262 214.97193,16.1310221 215.742141,15.3912657 C216.626458,14.5092484 217.467973,14.0682463 218.26671,14.0682463 C218.723132,14.0682463 219.151021,14.2389568 219.55039,14.5803829 C219.949759,14.9218089 221.01948,15.3770368 222.759588,15.9460802 C224.128852,16.4013149 225.098734,17.169512 225.66926,18.2506945 C226.667683,20.1569899 227.166886,21.7929652 227.166886,23.1586694 C227.166886,23.926878 227.024257,24.6239457 226.738993,25.2498935 Z M223.315849,22.6038548 C223.116164,20.5268464 222.559909,19.2891955 221.647066,18.8908651 C221.504434,18.8339608 221.376067,18.8055091 221.261962,18.8055091 C220.919646,18.8055091 220.491757,19.0900265 219.978283,19.6590699 C219.407756,20.3134698 218.965604,20.6975684 218.651814,20.8113771 C218.45213,20.8967336 218.166871,20.8113783 217.796028,20.5553088 C217.425186,20.2992393 217.182715,20.1712064 217.06861,20.1712064 C216.983031,20.1712064 216.911716,20.1996582 216.854663,20.2565625 C215.856241,21.1101276 215.357038,22.4331337 215.357038,24.2256204 C215.357038,25.4490638 215.642297,26.4875524 216.212824,27.3411175 C217.011561,28.5076565 217.681921,29.0909173 218.223921,29.0909173 C219.47908,29.0909173 220.691432,28.3084943 221.861012,26.743625 C222.97354,25.2641121 223.45848,23.8842025 223.315849,22.6038548 Z M247.175824,3.6810674 C246.776455,7.49365825 246.391355,11.3204178 246.020513,15.1614608 C245.535565,19.7138081 245.293095,23.5121159 245.293095,26.5564982 C245.293095,27.5523241 245.321621,28.5339093 245.378673,29.5012831 C245.4072,29.9565178 245.243176,30.3548422 244.886596,30.6962683 C244.530017,31.0376943 244.123523,31.2084048 243.667101,31.2084048 C242.782784,31.2084048 242.04111,30.6109182 241.442057,29.415927 C239.616371,25.8594057 237.34856,20.2828639 234.638557,12.6861344 C234.581505,12.5154213 234.51019,12.4300661 234.424611,12.4300661 C234.224926,12.4300661 234.09656,12.6292283 234.039507,13.0275587 C233.554559,17.0962191 233.312089,21.3782065 233.312089,25.8736495 C233.312089,28.0360144 233.369141,30.2410246 233.483246,32.4887461 C233.511772,33.313859 233.269302,33.8828939 232.755828,34.1958678 C232.556143,34.3950329 232.342199,34.494614 232.113988,34.494614 C231.914304,34.494614 231.657571,34.4092588 231.343781,34.2385458 C230.915886,34.0393806 230.644889,33.9113478 230.530784,33.8544434 C230.159941,33.7406347 229.931734,33.3992138 229.846155,32.8301704 C229.817629,32.3749357 229.789103,31.9054819 229.760576,31.421795 C229.674997,29.8284734 229.632209,28.1640464 229.632209,26.428464 C229.632209,23.4125339 229.803364,19.6426779 230.14568,15.1187828 C230.687681,8.2333575 230.987203,4.42082383 231.044256,3.6810674 C231.072782,3.05511965 231.600512,2.74215046 232.62746,2.74215046 C233.112408,2.68524612 233.825556,3.04089292 234.766925,3.80910153 C235.679768,5.54468393 236.806542,8.36140656 238.147281,12.2593539 C239.430966,15.9865883 240.600529,18.8175368 241.656004,20.7522844 C242.083899,16.9681457 242.754258,11.2493452 243.667101,3.59571131 C243.75268,3.0266679 244.166306,2.74215046 244.907991,2.74215046 C245.164728,2.74215046 245.46425,2.78482808 245.806566,2.87018459 C246.262988,2.98399327 246.533984,3.05512263 246.619563,3.0835748 C246.904827,3.19738349 247.090245,3.39654569 247.175824,3.6810674 Z" id="Reactathon" fill="#36A7EE"></path>
                        <path d="M85.040158,59.2857143 C85.6268484,59.2857143 86.1418322,59.1959794 86.5851093,59.0165096 C87.0283865,58.8370399 87.4006089,58.5996976 87.7017766,58.3044828 C88.0029444,58.0092681 88.2356649,57.6867427 88.3999382,57.3369067 C88.5642115,56.9870707 88.6593857,56.643087 88.6854608,56.3049555 L88.6854608,56.3049555 L86.4795051,56.2893494 C86.4247473,56.6300819 86.2787266,56.8999368 86.0414429,57.0989142 C85.8041593,57.2978915 85.4860427,57.3973802 85.0870933,57.3973802 C84.5577682,57.3973802 84.146433,57.2114079 83.8530879,56.8394633 C83.5597427,56.4675187 83.4130701,55.9148038 83.4130701,55.1813187 C83.4130701,54.4868487 83.557787,53.9438876 83.847221,53.5524354 C84.1366549,53.1609833 84.5551607,52.9652572 85.1027383,52.9652572 C85.5225479,52.9652572 85.8491389,53.0771007 86.0825112,53.3007876 C86.3158836,53.5244746 86.4482149,53.8183888 86.4795051,54.1825304 L86.4795051,54.1825304 L88.6854608,54.1825304 C88.6280955,53.5218736 88.438399,52.9600552 88.1163712,52.4970752 C87.7943433,52.0340952 87.3693188,51.6816582 86.8412974,51.4397641 C86.3132761,51.1978701 85.7128963,51.0769231 85.040158,51.0769231 C84.3204845,51.0769231 83.6686063,51.233634 83.0845235,51.5470558 C82.5004406,51.8604777 82.0363034,52.3221572 81.6921117,52.9320943 C81.34792,53.5420314 81.1758242,54.2917729 81.1758242,55.1813187 C81.1758242,56.0656625 81.3446606,56.8134532 81.6823335,57.4246908 C82.0200064,58.0359284 82.4802324,58.4989084 83.0630115,58.8136308 C83.6457906,59.1283531 84.3048394,59.2857143 85.040158,59.2857143 Z M103.847216,59.2857143 C104.572105,59.2857143 105.229198,59.1290034 105.818496,58.8155815 C106.407794,58.5021597 106.875842,58.0404802 107.222641,57.4305431 C107.569441,56.820606 107.74284,56.0708645 107.74284,55.1813187 C107.74284,54.2917729 107.569441,53.5420314 107.222641,52.9320943 C106.875842,52.3221572 106.407794,51.8604777 105.818496,51.5470558 C105.229198,51.233634 104.572105,51.0769231 103.847216,51.0769231 C103.117113,51.0769231 102.458064,51.233634 101.87007,51.5470558 C101.282075,51.8604777 100.815331,52.3221572 100.469835,52.9320943 C100.12434,53.5420314 99.9515921,54.2917729 99.9515921,55.1813187 C99.9515921,56.0656625 100.12434,56.8128029 100.469835,57.42274 C100.815331,58.0326772 101.282075,58.4956571 101.87007,58.81168 C102.458064,59.1277029 103.117113,59.2857143 103.847216,59.2857143 Z M103.847216,57.3973802 C103.307461,57.3973802 102.896126,57.2075064 102.613211,56.8277587 C102.330296,56.4480111 102.188838,55.8991978 102.188838,55.1813187 C102.188838,54.4634396 102.330296,53.9146262 102.613211,53.5348786 C102.896126,53.155131 103.307461,52.9652572 103.847216,52.9652572 C104.386971,52.9652572 104.798306,53.155131 105.081222,53.5348786 C105.364137,53.9146262 105.505594,54.4634396 105.505594,55.1813187 C105.505594,55.8991978 105.364137,56.4480111 105.081222,56.8277587 C104.798306,57.2075064 104.386971,57.3973802 103.847216,57.3973802 Z M121.230572,59.1764718 L121.230572,54.9784398 L121.277508,54.9784398 L124.171847,59.1764718 L125.986675,59.1764718 L125.986675,51.1861655 L123.81201,51.1861655 L123.81201,55.3685915 L123.74943,55.3685915 L120.902026,51.1861655 L119.055907,51.1861655 L119.055907,59.1764718 L121.230572,59.1764718 Z M139.505698,59.1764718 L139.505698,56.0552584 L142.619068,56.0552584 L142.619068,54.3073789 L139.505698,54.3073789 L139.505698,52.934045 L142.96326,52.934045 L142.96326,51.1861655 L137.331032,51.1861655 L137.331032,59.1764718 L139.505698,59.1764718 Z M159.830328,59.1764718 L159.830328,57.4285923 L156.247606,57.4285923 L156.247606,56.0552584 L159.548717,56.0552584 L159.548717,54.3073789 L156.247606,54.3073789 L156.247606,52.934045 L159.845973,52.934045 L159.845973,51.1861655 L154.07294,51.1861655 L154.07294,59.1764718 L159.830328,59.1764718 Z M173.411931,59.1764718 L173.411931,56.3517737 L174.256765,56.3517737 L175.680467,59.1764718 L178.042873,59.1764718 L176.415786,56.0240463 C176.814735,55.8133644 177.138718,55.5220511 177.387736,55.1501065 C177.636753,54.778162 177.761262,54.330788 177.761262,53.8079848 C177.761262,52.9808632 177.488777,52.337113 176.943807,51.876734 C176.398837,51.416355 175.633532,51.1861655 174.647892,51.1861655 L174.647892,51.1861655 L171.237265,51.1861655 L171.237265,59.1764718 L173.411931,59.1764718 Z M174.460151,54.8223791 L173.411931,54.8223791 L173.411931,52.918439 L174.460151,52.918439 C174.780875,52.918439 175.030544,53.0023216 175.209159,53.1700868 C175.387774,53.337852 175.477081,53.5660908 175.477081,53.854803 C175.477081,54.1513183 175.387774,54.3867098 175.209159,54.5609775 C175.030544,54.7352453 174.780875,54.8223791 174.460151,54.8223791 L174.460151,54.8223791 Z M194.769136,59.1764718 L194.769136,57.4285923 L191.186414,57.4285923 L191.186414,56.0552584 L194.487525,56.0552584 L194.487525,54.3073789 L191.186414,54.3073789 L191.186414,52.934045 L194.784781,52.934045 L194.784781,51.1861655 L189.011748,51.1861655 L189.011748,59.1764718 L194.769136,59.1764718 Z M208.350739,59.1764718 L208.350739,54.9784398 L208.397674,54.9784398 L211.292013,59.1764718 L213.106842,59.1764718 L213.106842,51.1861655 L210.932177,51.1861655 L210.932177,55.3685915 L210.869596,55.3685915 L208.022192,51.1861655 L206.176073,51.1861655 L206.176073,59.1764718 L208.350739,59.1764718 Z M228.284243,59.2857143 C228.870933,59.2857143 229.385917,59.1959794 229.829194,59.0165096 C230.272471,58.8370399 230.644693,58.5996976 230.945861,58.3044828 C231.247029,58.0092681 231.479749,57.6867427 231.644023,57.3369067 C231.808296,56.9870707 231.90347,56.643087 231.929545,56.3049555 L231.929545,56.3049555 L229.72359,56.2893494 C229.668832,56.6300819 229.522811,56.8999368 229.285527,57.0989142 C229.048244,57.2978915 228.730127,57.3973802 228.331178,57.3973802 C227.801853,57.3973802 227.390518,57.2114079 227.097172,56.8394633 C226.803827,56.4675187 226.657155,55.9148038 226.657155,55.1813187 C226.657155,54.4868487 226.801872,53.9438876 227.091306,53.5524354 C227.380739,53.1609833 227.799245,52.9652572 228.346823,52.9652572 C228.766632,52.9652572 229.093223,53.0771007 229.326596,53.3007876 C229.559968,53.5244746 229.692299,53.8183888 229.72359,54.1825304 L229.72359,54.1825304 L231.929545,54.1825304 C231.87218,53.5218736 231.682484,52.9600552 231.360456,52.4970752 C231.038428,52.0340952 230.613403,51.6816582 230.085382,51.4397641 C229.557361,51.1978701 228.956981,51.0769231 228.284243,51.0769231 C227.564569,51.0769231 226.912691,51.233634 226.328608,51.5470558 C225.744525,51.8604777 225.280388,52.3221572 224.936196,52.9320943 C224.592005,53.5420314 224.419909,54.2917729 224.419909,55.1813187 C224.419909,56.0656625 224.588745,56.8134532 224.926418,57.4246908 C225.264091,58.0359284 225.724317,58.4989084 226.307096,58.8136308 C226.889875,59.1283531 227.548924,59.2857143 228.284243,59.2857143 Z M248.984355,59.1764718 L248.984355,57.4285923 L245.401632,57.4285923 L245.401632,56.0552584 L248.702744,56.0552584 L248.702744,54.3073789 L245.401632,54.3073789 L245.401632,52.934045 L249,52.934045 L249,51.1861655 L243.226967,51.1861655 L243.226967,59.1764718 L248.984355,59.1764718 Z" id="CONFERENCE" fill="#FF632D" fill-rule="nonzero"></path>
                    </g>
                </g>
            </g>
        </g>
    </g>
</svg>