<svg width="2024" height="413" viewBox="0 0 2024 413" fill="none" xmlns="http://www.w3.org/2000/svg">
<path d="M62.8797 276.722V185.366H99.6227L143.942 276.722H209.473L163.639 180.817C187.882 176.268 200.003 159.336 200.003 130.021V63.684C200.003 45.7413 195.71 32.537 187.124 24.0711C178.538 15.6051 165.407 11.3722 147.729 11.3722H0V276.722H62.8797ZM129.926 133.054H62.8797V64.8212H129.926C132.704 64.8212 134.598 65.3267 135.608 66.3375C136.618 67.3484 137.123 69.2437 137.123 72.0236V125.852C137.123 128.632 136.618 130.527 135.608 131.538C134.598 132.549 132.704 133.054 129.926 133.054ZM362.884 276.722C379.551 276.722 391.862 272.742 399.817 264.781C407.771 256.821 411.749 244.501 411.749 227.822V209.247H352.278V222.515C352.278 225.295 351.71 227.316 350.573 228.58C349.437 229.844 347.354 230.475 344.323 230.475H305.686C300.383 230.475 297.732 227.822 297.732 222.515V189.915H411.749V120.924C411.749 104.245 407.771 91.9248 399.817 83.9643C391.862 76.0038 379.551 72.0236 362.884 72.0236H287.126C270.459 72.0236 258.148 76.0038 250.193 83.9643C242.238 91.9248 238.261 104.245 238.261 120.924V227.822C238.261 244.501 242.238 256.821 250.193 264.781C258.148 272.742 270.459 276.722 287.126 276.722H362.884ZM352.278 153.524H297.732V126.231C297.732 123.198 298.363 121.113 299.626 119.976C300.888 118.839 302.909 118.27 305.686 118.27H344.323C347.354 118.27 349.437 118.839 350.573 119.976C351.71 121.113 352.278 123.198 352.278 126.231V153.524ZM503.038 278.238C511.876 278.238 519.578 277.354 526.144 275.585C532.71 273.816 538.455 271.478 543.379 268.572C548.304 265.666 552.597 262.381 556.258 258.716C559.92 255.052 563.14 251.324 565.918 247.534V276.722H623.494V120.924C623.494 104.245 619.517 91.9248 611.562 83.9643C603.607 76.0038 591.297 72.0236 574.63 72.0236H503.038C486.371 72.0236 474.06 76.0038 466.105 83.9643C458.151 91.9248 454.173 104.245 454.173 120.924V137.982H513.265V126.231C513.265 120.924 515.917 118.27 521.22 118.27H556.069C561.372 118.27 564.024 120.924 564.024 126.231V150.87C552.66 151.376 541.612 152.134 530.879 153.145C520.147 154.156 510.361 155.293 501.523 156.557C492.684 157.82 484.919 159.589 478.227 161.864C471.535 164.138 465.916 167.486 461.371 171.909C456.825 176.331 453.353 182.207 450.954 189.536C448.555 196.864 447.355 206.089 447.355 217.208C447.355 228.327 448.428 237.804 450.575 245.638C452.721 253.472 456.004 259.79 460.424 264.592C464.843 269.393 470.588 272.868 477.659 275.016C484.729 277.164 493.189 278.238 503.038 278.238ZM518.947 231.613C514.149 231.613 510.929 230.286 509.288 227.632C507.646 224.979 506.826 219.861 506.826 212.28C506.826 205.204 507.71 200.466 509.477 198.065C511.245 195.664 514.275 193.958 518.568 192.947L564.024 184.229V216.829C556.7 221.125 549.693 224.663 543.001 227.443C536.309 230.223 528.291 231.613 518.947 231.613ZM788.648 276.722C805.315 276.722 817.626 272.742 825.581 264.781C833.535 256.821 837.513 244.501 837.513 227.822V199.771H777.663V219.482C777.663 224.789 775.012 227.443 769.708 227.443H735.238C729.935 227.443 727.284 224.789 727.284 219.482V129.263C727.284 126.231 727.915 124.146 729.178 123.009C730.44 121.871 732.461 121.303 735.238 121.303H769.708C772.486 121.303 774.507 121.871 775.769 123.009C777.032 124.146 777.663 126.231 777.663 129.263V148.975H837.513V120.924C837.513 104.245 833.535 91.9248 825.581 83.9643C817.626 76.0038 805.315 72.0236 788.648 72.0236H716.299C699.632 72.0236 687.321 76.0038 679.366 83.9643C671.412 91.9248 667.434 104.245 667.434 120.924V227.822C667.434 244.501 671.412 256.821 679.366 264.781C687.321 272.742 699.632 276.722 716.299 276.722H788.648ZM994.712 276.722V228.201H959.863C954.56 228.201 951.908 225.548 951.908 220.241V119.408H994.712V72.0236H951.151V22.7443H892.816V72.0236H860.998V119.408H892.059V227.822C892.059 244.501 896.036 256.821 903.991 264.781C911.945 272.742 924.256 276.722 940.923 276.722H994.712ZM1078.05 278.238C1086.89 278.238 1094.59 277.354 1101.15 275.585C1107.72 273.816 1113.46 271.478 1118.39 268.572C1123.31 265.666 1127.61 262.381 1131.27 258.716C1134.93 255.052 1138.15 251.324 1140.93 247.534V276.722H1198.5V120.924C1198.5 104.245 1194.53 91.9248 1186.57 83.9643C1178.62 76.0038 1166.31 72.0236 1149.64 72.0236H1078.05C1061.38 72.0236 1049.07 76.0038 1041.11 83.9643C1033.16 91.9248 1029.18 104.245 1029.18 120.924V137.982H1088.27V126.231C1088.27 120.924 1090.93 118.27 1096.23 118.27H1131.08C1136.38 118.27 1139.03 120.924 1139.03 126.231V150.87C1127.67 151.376 1116.62 152.134 1105.89 153.145C1095.16 154.156 1085.37 155.293 1076.53 156.557C1067.69 157.82 1059.93 159.589 1053.24 161.864C1046.54 164.138 1040.92 167.486 1036.38 171.909C1031.83 176.331 1028.36 182.207 1025.96 189.536C1023.56 196.864 1022.36 206.089 1022.36 217.208C1022.36 228.327 1023.44 237.804 1025.58 245.638C1027.73 253.472 1031.01 259.79 1035.43 264.592C1039.85 269.393 1045.6 272.868 1052.67 275.016C1059.74 277.164 1068.2 278.238 1078.05 278.238ZM1093.96 231.613C1089.16 231.613 1085.94 230.286 1084.3 227.632C1082.66 224.979 1081.83 219.861 1081.83 212.28C1081.83 205.204 1082.72 200.466 1084.49 198.065C1086.25 195.664 1089.28 193.958 1093.58 192.947L1139.03 184.229V216.829C1131.71 221.125 1124.7 224.663 1118.01 227.443C1111.32 230.223 1103.3 231.613 1093.96 231.613ZM1361.76 276.722V228.201H1326.91C1321.61 228.201 1318.96 225.548 1318.96 220.241V119.408H1361.76V72.0236H1318.2V22.7443H1259.87V72.0236H1228.05V119.408H1259.11V227.822C1259.11 244.501 1263.09 256.821 1271.04 264.781C1279 272.742 1291.31 276.722 1307.97 276.722H1361.76ZM1461.39 276.722V133.054C1468.71 129.263 1475.72 126.42 1482.41 124.525C1489.1 122.63 1497.37 121.682 1507.22 121.682C1512.02 121.682 1515.17 122.314 1516.69 123.577C1518.2 124.841 1518.96 127.115 1518.96 130.401V276.722H1578.81V119.408C1578.81 102.223 1574.58 89.6504 1566.12 81.6899C1557.66 73.7294 1543.33 69.7492 1523.13 69.7492C1514.29 69.7492 1506.65 70.5705 1500.21 72.2131C1493.77 73.8558 1488.22 76.0039 1483.54 78.6573C1478.87 81.3109 1474.77 84.4066 1471.23 87.9446C1467.7 91.4826 1464.42 95.1469 1461.39 98.9377V0H1401.54V276.722H1461.39ZM1750.03 276.722C1766.69 276.722 1779 272.742 1786.96 264.781C1794.91 256.821 1798.89 244.501 1798.89 227.822V120.924C1798.89 104.245 1794.91 91.9248 1786.96 83.9643C1779 76.0038 1766.69 72.0236 1750.03 72.0236H1671.62C1654.95 72.0236 1642.64 76.0038 1634.68 83.9643C1626.73 91.9248 1622.75 104.245 1622.75 120.924V227.822C1622.75 244.501 1626.73 256.821 1634.68 264.781C1642.64 272.742 1654.95 276.722 1671.62 276.722H1750.03ZM1731.84 227.443H1689.8C1684.49 227.443 1681.84 224.789 1681.84 219.482V129.263C1681.84 126.231 1682.47 124.146 1683.74 123.009C1685 121.871 1687.02 121.303 1689.8 121.303H1731.84C1734.62 121.303 1736.64 121.871 1737.9 123.009C1739.17 124.146 1739.8 126.231 1739.8 129.263V219.482C1739.8 224.789 1737.15 227.443 1731.84 227.443ZM1904.57 276.722V133.054C1911.9 129.263 1918.91 126.42 1925.6 124.525C1932.29 122.63 1940.56 121.682 1950.41 121.682C1955.21 121.682 1958.36 122.314 1959.88 123.577C1961.39 124.841 1962.15 127.115 1962.15 130.401V276.722H2022V119.408C2022 102.223 2017.77 89.6504 2009.31 81.6899C2000.85 73.7294 1986.52 69.7492 1966.32 69.7492C1957.48 69.7492 1949.84 70.5705 1943.4 72.2131C1936.96 73.8558 1931.41 76.0039 1926.73 78.6573C1922.06 81.3109 1917.96 84.4066 1914.42 87.9446C1910.89 91.4826 1907.6 95.1469 1904.57 98.9377V72.0236H1844.72V276.722H1904.57Z" fill="#2F2747"/>
<path d="M1636.89 341H1562.16V410.616H1636.89V341Z" fill="#DA8288"/>
<path d="M1735.38 341H1671.25V410.616H1735.38V341Z" fill="#DA8288"/>
<path d="M1823.26 341H1769.74V410.616H1823.26V341Z" fill="#886C8C"/>
<path d="M1900.54 341H1857.62V410.616H1900.54V341Z" fill="#886C8C"/>
<path d="M1967.23 341H1934.91V410.616H1967.23V341Z" fill="#95ABC1"/>
<path d="M2023.31 341H2001.58V410.616H2023.31V341Z" fill="#95ABC1"/>
<path d="M461.132 341H386.409V410.616H461.132V341Z" fill="#DA8288"/>
<path d="M352.042 341H287.919V410.616H352.042V341Z" fill="#DA8288"/>
<path d="M253.566 341H200.043V410.616H253.566V341Z" fill="#886C8C"/>
<path d="M165.676 341H122.753V410.616H165.676V341Z" fill="#886C8C"/>
<path d="M88.4005 341H56.0767V410.616H88.4005V341Z" fill="#95ABC1"/>
<path d="M21.724 341H0V410.616H21.724V341Z" fill="#95ABC1"/>
<path d="M553.105 369.486C566.202 370.551 575.414 372.776 580.741 376.16C586.13 379.481 588.825 384.119 588.825 390.072C588.825 393.268 588.041 396.245 586.475 399.002C584.971 401.697 582.683 404.015 579.613 405.958C576.605 407.901 572.845 409.405 568.333 410.47C563.883 411.535 558.839 412.068 553.199 412.068C547.057 412.068 541.323 411.41 535.997 410.094C530.67 408.841 526.095 407.149 522.273 405.018C518.45 402.887 515.348 400.819 512.967 398.814L521.615 388.568C529.511 395.837 540.164 399.472 553.575 399.472C566.985 399.472 573.691 396.809 573.691 391.482C573.691 389.163 572.281 387.409 569.461 386.218C566.703 384.965 560.813 383.962 551.789 383.21C545.271 382.646 539.757 381.831 535.245 380.766C530.795 379.701 527.035 378.322 523.965 376.63C520.957 374.938 518.795 372.933 517.479 370.614C516.163 368.295 515.505 365.883 515.505 363.376C515.505 360.055 516.351 357.078 518.043 354.446C519.797 351.751 522.241 349.495 525.375 347.678C528.508 345.861 532.205 344.482 536.467 343.542C540.791 342.602 545.459 342.132 550.473 342.132C557.554 342.132 564.134 343.009 570.213 344.764C576.354 346.519 581.493 348.994 585.629 352.19L577.357 362.624C570.589 357.485 561.627 354.853 550.473 354.728C544.331 354.665 539.475 355.323 535.903 356.702C532.393 358.018 530.639 359.867 530.639 362.248C530.639 363.564 531.171 364.661 532.237 365.538C533.302 366.415 534.994 367.136 537.313 367.7C539.631 368.264 544.895 368.859 553.105 369.486Z" fill="#2F2747"/>
<path d="M660.226 410L653.176 396.088H613.414L606.364 410H590.29L625.164 344.2H641.614L676.488 410H660.226ZM619.618 383.868H646.878L633.248 357.078L619.618 383.868Z" fill="#2F2747"/>
<path d="M745.758 344.2H760.328V410H747.168L699.98 362.436V410H685.41V344.2H701.39L745.758 389.32V344.2Z" fill="#2F2747"/>
<path d="M870.656 357.172H819.144V372.4H862.572V385.372H819.144V410H804.104V344.2H870.656V357.172Z" fill="#2F2747"/>
<path d="M957.523 410H939.569L920.675 387.628H896.893V410H881.947V344.2H927.349C931.36 344.2 935.089 344.67 938.535 345.61C941.982 346.55 944.959 347.929 947.465 349.746C950.035 351.563 952.009 353.851 953.387 356.608C954.829 359.365 955.549 362.467 955.549 365.914C955.549 371.303 953.889 375.784 950.567 379.356C947.309 382.865 942.859 385.278 937.219 386.594L957.523 410ZM896.799 375.22H926.503C931.454 375.22 934.963 374.437 937.031 372.87C939.162 371.303 940.227 369.016 940.227 366.008C940.227 363 939.162 360.713 937.031 359.146C934.963 357.579 931.454 356.796 926.503 356.796H896.799V375.22Z" fill="#2F2747"/>
<path d="M1029.98 410L1022.93 396.088H983.171L976.121 410H960.047L994.921 344.2H1011.37L1046.25 410H1029.98ZM989.375 383.868H1016.64L1003.01 357.078L989.375 383.868Z" fill="#2F2747"/>
<path d="M1115.52 344.2H1130.09V410H1116.93L1069.74 362.436V410H1055.17V344.2H1071.15L1115.52 389.32V344.2Z" fill="#2F2747"/>
<path d="M1184.83 399.096C1194.79 399.096 1202.09 395.524 1206.73 388.38L1220.45 395.242C1218.07 398.814 1215 401.853 1211.24 404.36C1207.48 406.867 1203.35 408.778 1198.83 410.094C1194.32 411.41 1189.5 412.068 1184.36 412.068C1178.28 412.068 1172.7 411.285 1167.63 409.718C1162.61 408.089 1158.29 405.77 1154.65 402.762C1151.08 399.754 1148.32 396.057 1146.38 391.67C1144.5 387.283 1143.56 382.427 1143.56 377.1C1143.56 371.773 1144.53 366.917 1146.48 362.53C1148.42 358.143 1151.18 354.446 1154.75 351.438C1158.38 348.43 1162.77 346.143 1167.91 344.576C1173.11 342.947 1178.81 342.132 1185.02 342.132C1189.97 342.132 1194.63 342.79 1199.02 344.106C1203.41 345.422 1207.45 347.333 1211.15 349.84C1214.91 352.347 1217.95 355.355 1220.27 358.864L1206.45 365.726C1204.13 362.154 1201.15 359.491 1197.52 357.736C1193.95 355.981 1189.72 355.104 1184.83 355.104C1180.94 355.104 1177.4 355.574 1174.21 356.514C1171.01 357.454 1168.25 358.864 1165.93 360.744C1163.68 362.561 1161.92 364.88 1160.67 367.7C1159.48 370.457 1158.88 373.591 1158.88 377.1C1158.88 380.609 1159.48 383.774 1160.67 386.594C1161.92 389.351 1163.68 391.67 1165.93 393.55C1168.25 395.367 1171.01 396.746 1174.21 397.686C1177.4 398.626 1180.94 399.096 1184.83 399.096Z" fill="#2F2747"/>
<path d="M1246.73 410H1231.69V344.2H1246.73V410Z" fill="#2F2747"/>
<path d="M1298.5 369.486C1311.59 370.551 1320.8 372.776 1326.13 376.16C1331.52 379.481 1334.22 384.119 1334.22 390.072C1334.22 393.268 1333.43 396.245 1331.87 399.002C1330.36 401.697 1328.07 404.015 1325 405.958C1322 407.901 1318.24 409.405 1313.72 410.47C1309.27 411.535 1304.23 412.068 1298.59 412.068C1292.45 412.068 1286.71 411.41 1281.39 410.094C1276.06 408.841 1271.49 407.149 1267.66 405.018C1263.84 402.887 1260.74 400.819 1258.36 398.814L1267.01 388.568C1274.9 395.837 1285.55 399.472 1298.97 399.472C1312.38 399.472 1319.08 396.809 1319.08 391.482C1319.08 389.163 1317.67 387.409 1314.85 386.218C1312.09 384.965 1306.2 383.962 1297.18 383.21C1290.66 382.646 1285.15 381.831 1280.64 380.766C1276.19 379.701 1272.43 378.322 1269.36 376.63C1266.35 374.938 1264.19 372.933 1262.87 370.614C1261.55 368.295 1260.9 365.883 1260.9 363.376C1260.9 360.055 1261.74 357.078 1263.43 354.446C1265.19 351.751 1267.63 349.495 1270.77 347.678C1273.9 345.861 1277.6 344.482 1281.86 343.542C1286.18 342.602 1290.85 342.132 1295.86 342.132C1302.94 342.132 1309.52 343.009 1315.6 344.764C1321.74 346.519 1326.88 348.994 1331.02 352.19L1322.75 362.624C1315.98 357.485 1307.02 354.853 1295.86 354.728C1289.72 354.665 1284.87 355.323 1281.29 356.702C1277.78 358.018 1276.03 359.867 1276.03 362.248C1276.03 363.564 1276.56 364.661 1277.63 365.538C1278.69 366.415 1280.38 367.136 1282.7 367.7C1285.02 368.264 1290.29 368.859 1298.5 369.486Z" fill="#2F2747"/>
<path d="M1383.48 399.096C1393.44 399.096 1400.74 395.524 1405.38 388.38L1419.1 395.242C1416.72 398.814 1413.65 401.853 1409.89 404.36C1406.13 406.867 1401.99 408.778 1397.48 410.094C1392.97 411.41 1388.14 412.068 1383.01 412.068C1376.93 412.068 1371.35 411.285 1366.27 409.718C1361.26 408.089 1356.94 405.77 1353.3 402.762C1349.73 399.754 1346.97 396.057 1345.03 391.67C1343.15 387.283 1342.21 382.427 1342.21 377.1C1342.21 371.773 1343.18 366.917 1345.12 362.53C1347.07 358.143 1349.82 354.446 1353.4 351.438C1357.03 348.43 1361.42 346.143 1366.56 344.576C1371.76 342.947 1377.46 342.132 1383.66 342.132C1388.61 342.132 1393.28 342.79 1397.67 344.106C1402.06 345.422 1406.1 347.333 1409.8 349.84C1413.56 352.347 1416.59 355.355 1418.91 358.864L1405.1 365.726C1402.78 362.154 1399.8 359.491 1396.17 357.736C1392.59 355.981 1388.36 355.104 1383.48 355.104C1379.59 355.104 1376.05 355.574 1372.85 356.514C1369.66 357.454 1366.9 358.864 1364.58 360.744C1362.33 362.561 1360.57 364.88 1359.32 367.7C1358.13 370.457 1357.53 373.591 1357.53 377.1C1357.53 380.609 1358.13 383.774 1359.32 386.594C1360.57 389.351 1362.33 391.67 1364.58 393.55C1366.9 395.367 1369.66 396.746 1372.85 397.686C1376.05 398.626 1379.59 399.096 1383.48 399.096Z" fill="#2F2747"/>
<path d="M1467.3 412.068C1464.29 412.068 1460.94 411.817 1457.24 411.316C1453.54 410.815 1449.88 409.843 1446.24 408.402C1442.67 406.898 1439.51 405.018 1436.75 402.762C1434.05 400.506 1431.8 397.874 1429.98 394.866C1428.23 391.858 1427.04 388.787 1426.41 385.654C1425.78 382.521 1425.47 379.669 1425.47 377.1C1425.47 374.531 1425.78 371.679 1426.41 368.546C1427.04 365.413 1428.23 362.342 1429.98 359.334C1431.8 356.326 1434.05 353.694 1436.75 351.438C1439.51 349.182 1442.67 347.333 1446.24 345.892C1449.88 344.388 1453.54 343.385 1457.24 342.884C1460.94 342.383 1464.29 342.132 1467.3 342.132C1470.31 342.132 1473.66 342.383 1477.36 342.884C1481.05 343.385 1484.69 344.388 1488.26 345.892C1491.9 347.333 1495.06 349.182 1497.76 351.438C1500.51 353.694 1502.77 356.326 1504.52 359.334C1506.34 362.342 1507.56 365.413 1508.19 368.546C1508.82 371.679 1509.13 374.531 1509.13 377.1C1509.13 379.669 1508.82 382.521 1508.19 385.654C1507.56 388.787 1506.34 391.858 1504.52 394.866C1502.77 397.874 1500.51 400.506 1497.76 402.762C1495.06 405.018 1491.9 406.898 1488.26 408.402C1484.69 409.843 1481.05 410.815 1477.36 411.316C1473.66 411.817 1470.31 412.068 1467.3 412.068ZM1467.3 399.096C1471.31 399.096 1474.94 398.626 1478.2 397.686C1481.52 396.683 1484.34 395.242 1486.66 393.362C1488.98 391.482 1490.74 389.163 1491.93 386.406C1493.18 383.649 1493.81 380.547 1493.81 377.1C1493.81 373.653 1493.18 370.551 1491.93 367.794C1490.74 365.037 1488.98 362.718 1486.66 360.838C1484.34 358.958 1481.52 357.548 1478.2 356.608C1474.94 355.605 1471.31 355.104 1467.3 355.104C1463.29 355.104 1459.62 355.605 1456.3 356.608C1453.04 357.548 1450.25 358.958 1447.94 360.838C1445.62 362.718 1443.83 365.037 1442.58 367.794C1441.39 370.551 1440.79 373.653 1440.79 377.1C1440.79 384.056 1443.14 389.477 1447.84 393.362C1452.6 397.185 1459.09 399.096 1467.3 399.096Z" fill="#2F2747"/>
</svg>
