<?xml version="1.0" encoding="UTF-8"?>
<svg width="19px" height="18px" viewBox="0 0 19 18" version="1.1" xmlns="http://www.w3.org/2000/svg" xmlns:xlink="http://www.w3.org/1999/xlink">
    <!-- Generator: Sketch 61.2 (89653) - https://sketch.com -->
    <title>cc</title>
    <desc>Created with Sketch.</desc>
    <g id="About" stroke="none" stroke-width="1" fill="none" fill-rule="evenodd" opacity="0.800000012">
        <g id="about-topic-tables-2020-v3-copy" transform="translate(-361.000000, -606.000000)" fill="#0DA2F7" fill-rule="nonzero">
            <g id="at-a-glance" transform="translate(297.000000, 388.000000)">
                <g id="time/date" transform="translate(64.000000, 213.000000)">
                    <path d="M13.8935952,9.25209546 C14.1584874,9.25209546 14.3836458,9.15496833 14.5690703,8.96071406 C14.7544948,8.76645979 14.8472071,8.54130143 14.8472071,8.28523898 L14.8472071,8.28523898 L14.8472071,5.96743234 C14.8472071,5.70254015 14.7544948,5.47296692 14.5690703,5.27871265 C14.3836458,5.08445838 14.1584874,4.99174611 13.8935952,5.00057585 C13.6287031,4.99174611 13.3991298,5.08445838 13.2048756,5.27871265 C13.019451,5.47296692 12.9267388,5.70254015 12.9267388,5.96743234 L12.9267388,5.96743234 L12.9267388,8.28523898 C12.9267388,8.54130143 13.019451,8.76645979 13.2048756,8.96071406 C13.3991298,9.15496833 13.6287031,9.25209546 13.8935952,9.25209546 Z M4.50316719,9.25209546 C4.75922964,9.25209546 4.984388,9.15496833 5.17864227,8.96071406 C5.37289654,8.76645979 5.47002367,8.54130143 5.47002367,8.28523898 L5.47002367,8.28523898 L5.47002367,5.96743234 C5.47002367,5.70254015 5.37289654,5.47296692 5.17864227,5.27871265 C4.984388,5.08445838 4.75922964,4.99174611 4.50316719,5.00057585 C4.238275,4.99174611 4.01311664,5.08445838 3.82769211,5.27871265 C3.64226758,5.47296692 3.54955531,5.70254015 3.54955531,5.96743234 L3.54955531,5.96743234 L3.54955531,8.28523898 C3.54955531,8.54130143 3.64226758,8.76645979 3.82769211,8.96071406 C4.01311664,9.15496833 4.238275,9.25209546 4.50316719,9.25209546 Z M17.0325677,23 C17.3857572,23 17.6859684,22.8763836 17.9332011,22.6291509 C18.1804338,22.3819182 18.3040502,22.0817071 18.3040502,21.7285175 L18.3040502,21.7285175 L18.3040502,7.67598695 C18.3040502,7.31396762 18.1804338,7.00934161 17.9332011,6.7621089 C17.6859684,6.51487619 17.3857572,6.39125984 17.0325677,6.39125984 L17.0325677,6.39125984 L16.2114019,6.39125984 C16.070126,6.39125984 15.9465097,6.44423828 15.8405528,6.55019515 C15.7345959,6.65615203 15.6816175,6.77976838 15.6816175,6.92104421 L15.6816175,6.92104421 L15.6816175,8.16603749 C15.6904472,8.62518395 15.5535863,9.03135197 15.2710346,9.38454156 C14.9884829,9.73773114 14.5999744,9.95847463 14.105509,10.046772 C13.6110436,10.1174099 13.1518971,9.97613411 12.7280696,9.62294453 C12.3042421,9.26975494 12.0923284,8.81502335 12.0923284,8.25874976 L12.0923284,8.25874976 L12.0923284,6.92104421 C12.0923284,6.77976838 12.0393499,6.65615203 11.9333931,6.55019515 C11.8274362,6.44423828 11.7038198,6.39125984 11.562544,6.39125984 L11.562544,6.39125984 L6.83421844,6.39125984 C6.68411287,6.39125984 6.55608164,6.44423828 6.45012477,6.55019515 C6.34416789,6.65615203 6.29560433,6.77976838 6.30443406,6.92104421 L6.30443406,6.92104421 L6.30443406,8.16603749 C6.30443406,8.62518395 6.16315823,9.03135197 5.88060656,9.38454156 C5.5980549,9.73773114 5.20954636,9.95847463 4.71508094,10.046772 C4.22944526,10.1174099 3.77471367,9.97613411 3.35088617,9.62294453 C2.92705867,9.26975494 2.71514492,8.81502335 2.71514492,8.25874976 L2.71514492,8.25874976 L2.71514492,6.92104421 C2.71514492,6.77976838 2.66216649,6.65615203 2.55620961,6.55019515 C2.45025274,6.44423828 2.32663638,6.39125984 2.18536055,6.39125984 L2.18536055,6.39125984 L1.2714825,6.39125984 C0.918292917,6.39125984 0.618081771,6.51487619 0.370849063,6.7621089 C0.123616354,7.00934161 1.50990331e-13,7.31396762 1.50990331e-13,7.67598695 L1.50990331e-13,7.67598695 L1.50990331e-13,21.7285175 C0.00882973959,21.9580907 0.0662230469,22.1700045 0.172179922,22.3642587 C0.41941263,22.7880862 0.785846823,23 1.2714825,23 L1.2714825,23 L17.0325677,23 Z M16.0657112,21.30469 L2.21184977,21.30469 C2.07057393,21.30469 1.94695758,21.2517116 1.8410007,21.1457547 C1.73504383,21.0397978 1.68206539,20.9161815 1.68206539,20.7749056 L1.68206539,20.7749056 L1.68206539,11.437456 C1.68206539,11.2873504 1.73504383,11.1593192 1.8410007,11.0533623 C1.94695758,10.9474055 2.07057393,10.894427 2.21184977,10.894427 L2.21184977,10.894427 L16.0657112,10.894427 C16.206987,10.894427 16.3306034,10.9474055 16.4365602,11.0533623 C16.5425171,11.1593192 16.5954956,11.2873504 16.5954956,11.437456 L16.5954956,11.437456 L16.5954956,20.7749056 C16.5954956,20.9161815 16.5425171,21.0397978 16.4365602,21.1457547 C16.3306034,21.2517116 16.206987,21.30469 16.0657112,21.30469 L16.0657112,21.30469 Z M14.6220488,15.7022202 C14.8427922,15.6933905 15.0238019,15.6183377 15.1650777,15.4770619 C15.3063536,15.335786 15.3769915,15.1591912 15.3769915,14.9472775 L15.3769915,14.9472775 L15.3769915,13.8214857 C15.3769915,13.6007422 15.3063536,13.4197325 15.1650777,13.2784567 C15.0238019,13.1371809 14.8427922,13.066543 14.6220488,13.066543 L14.6220488,13.066543 L13.496257,13.066543 C13.2843432,13.066543 13.1077484,13.1371809 12.9664726,13.2784567 C12.8251967,13.4197325 12.7545588,13.6007422 12.7545588,13.8214857 L12.7545588,13.8214857 L12.7545588,14.9472775 C12.7545588,15.1591912 12.8251967,15.335786 12.9664726,15.4770619 C13.1077484,15.6183377 13.2843432,15.6933905 13.496257,15.7022202 L13.496257,15.7022202 L14.6220488,15.7022202 Z M11.3506302,15.7022202 C11.562544,15.6933905 11.7391388,15.6183377 11.8804146,15.4770619 C12.0216904,15.335786 12.0923284,15.1591912 12.0923284,14.9472775 L12.0923284,14.9472775 L12.0923284,13.8214857 C12.0923284,13.6007422 12.0216904,13.4197325 11.8804146,13.2784567 C11.7391388,13.1371809 11.562544,13.066543 11.3506302,13.066543 L11.3506302,13.066543 L10.2115938,13.066543 C9.99968008,13.066543 9.82308529,13.1371809 9.68180946,13.2784567 C9.54053362,13.4197325 9.46989571,13.6007422 9.46989571,13.8214857 L9.46989571,13.8214857 L9.46989571,14.9472775 C9.46989571,15.0532344 9.48755519,15.1503615 9.52287414,15.2386589 C9.6464905,15.53887 9.87606373,15.6933905 10.2115938,15.7022202 L10.2115938,15.7022202 L11.3506302,15.7022202 Z M8.06596711,15.7022202 C8.27788086,15.6933905 8.45447565,15.6183377 8.59575149,15.4770619 C8.73702732,15.335786 8.80766524,15.1591912 8.80766524,14.9472775 L8.80766524,14.9472775 L8.80766524,13.8214857 C8.80766524,13.6007422 8.73702732,13.4197325 8.59575149,13.2784567 C8.45447565,13.1371809 8.27788086,13.066543 8.06596711,13.066543 L8.06596711,13.066543 L6.92693071,13.066543 C6.71501696,13.066543 6.53842216,13.1371809 6.39714633,13.2784567 C6.2558705,13.4197325 6.18523258,13.6007422 6.18523258,13.8214857 L6.18523258,13.8214857 L6.18523258,14.9472775 C6.18523258,15.0532344 6.20289206,15.1503615 6.23821102,15.2386589 C6.36182737,15.53887 6.5914006,15.6933905 6.92693071,15.7022202 L6.92693071,15.7022202 L8.06596711,15.7022202 Z M14.6220488,18.9868834 C14.8427922,18.9780536 15.0238019,18.9030008 15.1650777,18.761725 C15.3063536,18.6204492 15.3769915,18.4438544 15.3769915,18.2319406 L15.3769915,18.2319406 L15.3769915,17.1061488 C15.3769915,16.9560433 15.3240131,16.7926931 15.2180562,16.6160983 C15.1120993,16.4395035 14.9134302,16.3512061 14.6220488,16.3512061 L14.6220488,16.3512061 L13.496257,16.3512061 C13.2843432,16.3512061 13.1077484,16.421844 12.9664726,16.5631198 C12.8251967,16.7043957 12.7545588,16.8854053 12.7545588,17.1061488 L12.7545588,17.1061488 L12.7545588,18.2319406 C12.7545588,18.3643867 12.8075373,18.523322 12.9134941,18.7087466 C13.0106213,18.8941711 13.2048756,18.9868834 13.496257,18.9868834 L13.496257,18.9868834 L14.6220488,18.9868834 Z M11.3506302,18.9868834 C11.562544,18.9780536 11.7391388,18.9030008 11.8804146,18.761725 C12.0216904,18.6204492 12.0923284,18.4438544 12.0923284,18.2319406 L12.0923284,18.2319406 L12.0923284,17.1061488 C12.0923284,16.9560433 12.0393499,16.7926931 11.9333931,16.6160983 C11.8274362,16.4395035 11.6331819,16.3512061 11.3506302,16.3512061 L11.3506302,16.3512061 L10.2115938,16.3512061 C9.99968008,16.3512061 9.82308529,16.421844 9.68180946,16.5631198 C9.54053362,16.7043957 9.46989571,16.8854053 9.46989571,17.1061488 L9.46989571,17.1061488 L9.46989571,18.2319406 C9.46989571,18.4438544 9.54053362,18.6204492 9.68180946,18.761725 C9.82308529,18.9030008 9.99968008,18.9780536 10.2115938,18.9868834 L10.2115938,18.9868834 L11.3506302,18.9868834 Z M8.06596711,18.9868834 C8.27788086,18.9780536 8.45447565,18.9030008 8.59575149,18.761725 C8.73702732,18.6204492 8.80766524,18.4438544 8.80766524,18.2319406 L8.80766524,18.2319406 L8.80766524,17.1061488 C8.80766524,16.8854053 8.73702732,16.7043957 8.59575149,16.5631198 C8.45447565,16.421844 8.27788086,16.3512061 8.06596711,16.3512061 L8.06596711,16.3512061 L6.92693071,16.3512061 C6.71501696,16.3512061 6.53842216,16.421844 6.39714633,16.5631198 C6.2558705,16.7043957 6.18523258,16.8854053 6.18523258,17.1061488 L6.18523258,17.1061488 L6.18523258,18.2319406 C6.18523258,18.4438544 6.2558705,18.6204492 6.39714633,18.761725 C6.53842216,18.9030008 6.71501696,18.9780536 6.92693071,18.9868834 L6.92693071,18.9868834 L8.06596711,18.9868834 Z M4.78130399,18.9868834 C4.99321774,18.9780536 5.16981253,18.9030008 5.31108836,18.761725 C5.45236419,18.6204492 5.52300211,18.4438544 5.52300211,18.2319406 L5.52300211,18.2319406 L5.52300211,17.1061488 C5.52300211,16.8854053 5.45236419,16.7043957 5.31108836,16.5631198 C5.16981253,16.421844 4.99321774,16.3512061 4.78130399,16.3512061 L4.78130399,16.3512061 L3.64226758,16.3512061 C3.43035383,16.3512061 3.25375904,16.421844 3.1124832,16.5631198 C2.97120737,16.7043957 2.90056945,16.8854053 2.90056945,17.1061488 L2.90056945,17.1061488 L2.90056945,18.2319406 C2.90056945,18.4438544 2.97120737,18.6204492 3.1124832,18.761725 C3.25375904,18.9030008 3.43035383,18.9780536 3.64226758,18.9868834 L3.64226758,18.9868834 L4.78130399,18.9868834 Z" id="cc"></path>
                </g>
            </g>
        </g>
    </g>
</svg>