<?xml version="1.0" encoding="UTF-8"?>
<svg width="18px" height="18px" viewBox="0 0 18 18" version="1.1" xmlns="http://www.w3.org/2000/svg" xmlns:xlink="http://www.w3.org/1999/xlink">
    <!-- Generator: Sketch 61.2 (89653) - https://sketch.com -->
    <title>cc copy</title>
    <desc>Created with Sketch.</desc>
    <g id="About" stroke="none" stroke-width="1" fill="none" fill-rule="evenodd" opacity="0.800000012">
        <g id="about-topic-tables-2020-v3-copy" transform="translate(-491.000000, -606.000000)" fill="#0DA2F7" fill-rule="nonzero">
            <g id="at-a-glance" transform="translate(297.000000, 388.000000)">
                <g id="time/date" transform="translate(64.000000, 213.000000)">
                    <path d="M138.992919,23 C140.216067,23 141.383618,22.7590769 142.495571,22.2772306 C143.607524,21.7953843 144.56195,21.1560114 145.35885,20.3591118 C146.165015,19.5622123 146.804388,18.607786 147.276968,17.4958331 C147.749548,16.3838802 147.985838,15.2163296 147.985838,13.9931814 C147.985838,12.7700332 147.749548,11.6071158 147.276968,10.5044292 C146.804388,9.38320998 146.165015,8.42415059 145.35885,7.62725101 C144.56195,6.83035142 143.607524,6.1909785 142.495571,5.70913223 C141.383618,5.22728597 140.216067,4.99099598 138.992919,5.00026225 C137.769771,4.99099598 136.60222,5.22728597 135.490267,5.70913223 C134.378315,6.1909785 133.423888,6.83035142 132.626989,7.62725101 C131.820823,8.42415059 131.18145,9.38320998 130.70887,10.5044292 C130.23629,11.6071158 130,12.7700332 130,13.9931814 C130,15.2163296 130.23629,16.3838802 130.70887,17.4958331 C131.18145,18.607786 131.820823,19.5622123 132.626989,20.3591118 C133.423888,21.1560114 134.378315,21.7953843 135.490267,22.2772306 C136.60222,22.7590769 137.769771,23 138.992919,23 Z M138.992919,20.6648989 C138.084824,20.6648989 137.223061,20.4888397 136.407629,20.1367213 C135.573664,19.7846028 134.860161,19.3120228 134.267119,18.7189813 C133.674078,18.1259397 133.201498,17.4170698 132.849379,16.5923714 C132.497261,15.7676729 132.321202,14.9012763 132.321202,13.9931814 C132.321202,13.0850865 132.497261,12.223323 132.849379,11.4078909 C133.201498,10.5831925 133.674078,9.87432251 134.267119,9.28128096 C134.878693,8.68823941 135.592197,8.21565942 136.407629,7.863541 C137.223061,7.51142258 138.084824,7.33536337 138.992919,7.33536337 C139.901014,7.33536337 140.762778,7.51142258 141.57821,7.863541 C142.412174,8.21565942 143.125677,8.68823941 143.718719,9.28128096 C144.311761,9.87432251 144.784341,10.5831925 145.136459,11.4078909 C145.488577,12.223323 145.660003,13.0850865 145.650737,13.9931814 C145.660003,14.9012763 145.488577,15.7676729 145.136459,16.5923714 C144.784341,17.4170698 144.311761,18.1259397 143.718719,18.7189813 C143.125677,19.3120228 142.412174,19.7846028 141.57821,20.1367213 C140.762778,20.4888397 139.901014,20.6648989 138.992919,20.6648989 Z M143.70482,14.7437496 C143.899411,14.7252171 144.061571,14.6464538 144.191299,14.5074596 C144.321027,14.3591993 144.385891,14.1646075 144.385891,13.9236844 C144.385891,13.775424 144.316394,13.6271636 144.1774,13.4789032 C144.038406,13.3306428 143.871613,13.2518795 143.677021,13.2426132 L143.677021,13.2426132 L140.118771,13.2426132 C139.887115,13.2240807 139.76202,13.0943528 139.743487,12.8534297 L139.743487,12.8534297 L139.743487,10.4071333 C139.743487,10.194009 139.669357,10.0133166 139.521097,9.86505624 C139.372836,9.71679585 139.196777,9.64266566 138.992919,9.64266566 C138.789061,9.63339938 138.613002,9.70289644 138.464742,9.85115683 C138.316481,9.99941722 138.237718,10.1754764 138.228452,10.3793345 L138.228452,10.3793345 L138.228452,14.3406667 C138.246984,14.5908561 138.376712,14.7252171 138.617635,14.7437496 L138.617635,14.7437496 L143.70482,14.7437496 Z" id="cc-copy"></path>
                </g>
            </g>
        </g>
    </g>
</svg>