<?xml version="1.0" encoding="UTF-8"?>
<svg width="14px" height="18px" viewBox="0 0 14 18" version="1.1" xmlns="http://www.w3.org/2000/svg" xmlns:xlink="http://www.w3.org/1999/xlink">
    <!-- Generator: Sketch 61.2 (89653) - https://sketch.com -->
    <title>l</title>
    <desc>Created with Sketch.</desc>
    <g id="About" stroke="none" stroke-width="1" fill="none" fill-rule="evenodd">
        <g id="about-venue-hotel-2020-v2-copy" transform="translate(-769.000000, -1025.000000)" fill="#00B5FF" fill-rule="nonzero">
            <g id="at-a-glance" transform="translate(297.000000, 388.000000)">
                <g id="location" transform="translate(64.000000, 52.000000)">
                    <g id="hotel" transform="translate(408.000000, 497.000000)">
                        <g id="info">
                            <path d="M7.01039501,106 C7.45114345,106 8.23284823,105.446985 9.35550936,104.340956 C10.4781705,103.226611 11.4968815,101.841996 12.4116424,100.18711 C12.8440748,99.4054054 13.2016632,98.5488565 13.4844075,97.6174636 C13.7671518,96.6860707 13.9043659,95.7713098 13.8960499,94.8731809 C13.8960499,93.975052 13.7130977,93.1018711 13.3471933,92.2536383 C12.972973,91.3887734 12.4781705,90.6486486 11.8627859,90.033264 C11.2474012,89.4178794 10.5072765,88.9272349 9.64241164,88.5613306 C8.77754678,88.1954262 7.87941788,88.008316 6.94802495,88 C6.01663202,88.008316 5.11850312,88.1954262 4.25363825,88.5613306 C3.38877339,88.9272349 2.64864865,89.4178794 2.03326403,90.033264 C1.41787942,90.6486486 0.923076923,91.3887734 0.548856549,92.2536383 C0.182952183,93.1101871 0,94.012474 0,94.960499 C0,96.4158004 0.440748441,98.037422 1.32224532,99.8253638 C2.2037422,101.613306 3.43035343,103.247401 5.002079,104.727651 C5.9002079,105.575884 6.56964657,106 7.01039501,106 Z M6.94802495,98.1787942 C6.06652807,98.1787942 5.31392931,97.8669439 4.69022869,97.2432432 C4.06652807,96.6195426 3.75467775,95.8669439 3.75467775,94.985447 C3.75467775,94.1039501 4.06652807,93.3513514 4.69022869,92.7276507 C5.31392931,92.1039501 6.06652807,91.7920998 6.94802495,91.7920998 C7.82952183,91.7920998 8.58212058,92.1039501 9.20582121,92.7276507 C9.82952183,93.3513514 10.1413721,94.1039501 10.1413721,94.985447 C10.1413721,95.8669439 9.82952183,96.6195426 9.20582121,97.2432432 C8.58212058,97.8669439 7.82952183,98.1787942 6.94802495,98.1787942 Z" id="l"></path>
                        </g>
                    </g>
                </g>
            </g>
        </g>
    </g>
</svg>