<?xml version="1.0" encoding="UTF-8"?>
<svg width="13px" height="9px" viewBox="0 0 13 9" version="1.1" xmlns="http://www.w3.org/2000/svg" xmlns:xlink="http://www.w3.org/1999/xlink">
    <!-- Generator: Sketch 61.2 (89653) - https://sketch.com -->
    <title>Combined Shape</title>
    <desc>Created with Sketch.</desc>
    <g id="About" stroke="none" stroke-width="1" fill="none" fill-rule="evenodd">
        <g id="about-topic-tables-2020-v3-copy" transform="translate(-821.000000, -1559.000000)" fill="#36A7EE" fill-rule="nonzero">
            <g id="at-a-glance" transform="translate(295.000000, 384.000000)">
                <g id="table-info" transform="translate(64.000000, 656.000000)">
                    <g id="manager" transform="translate(182.584022, 278.000000)">
                        <path d="M291.545192,241.695976 C291.873374,241.930391 292.053092,242.270293 292.084348,242.715683 C292.115603,243.161072 291.978861,243.540043 291.674121,243.852597 L286.364613,249.162104 C286.208336,249.318381 286.016897,249.39652 285.790296,249.39652 L285.751978,249.392553 L285.714391,249.39652 C285.53311,249.39652 285.374332,249.346511 285.238059,249.246494 L285.140073,249.162104 L279.830566,243.852597 C279.525826,243.540043 279.389084,243.161072 279.420339,242.715683 C279.451595,242.270293 279.631313,241.930391 279.959494,241.695976 C280.287676,241.453747 280.635392,241.356074 281.002643,241.402957 C281.36208,241.44984 281.670726,241.606117 281.928583,241.871787 L281.928583,241.871787 L285.151794,245.083277 C285.172708,245.104191 285.194065,245.123772 285.215867,245.14202 L285.215978,245.083277 C285.365856,245.240649 285.544483,245.322557 285.751857,245.329001 C285.960204,245.322557 286.13883,245.240649 286.288709,245.083277 L286.288709,245.083277 L286.289188,245.141711 C286.310862,245.123551 286.332097,245.104073 286.352892,245.083277 L289.576103,241.871787 C289.83396,241.606117 290.142607,241.44984 290.502044,241.402957 C290.869295,241.356074 291.217011,241.453747 291.545192,241.695976 Z" id="Combined-Shape"></path>
                    </g>
                </g>
            </g>
        </g>
    </g>
</svg>