<?xml version="1.0" encoding="UTF-8"?>
<svg width="18px" height="14px" viewBox="0 0 18 14" version="1.1" xmlns="http://www.w3.org/2000/svg" xmlns:xlink="http://www.w3.org/1999/xlink">
    <!-- Generator: Sketch 61.2 (89653) - https://sketch.com -->
    <title>c</title>
    <desc>Created with Sketch.</desc>
    <g id="About" stroke="none" stroke-width="1" fill="none" fill-rule="evenodd" opacity="0.5">
        <g id="about-topic-tables-2020-v3-copy" transform="translate(-377.000000, -708.000000)" fill="#2B3642" fill-rule="nonzero">
            <g id="at-a-glance" transform="translate(297.000000, 388.000000)">
                <g id="benefits" transform="translate(80.000000, 313.000000)">
                    <path d="M6.29841286,20.3965194 C6.52501435,20.3965194 6.71645354,20.318381 6.87273043,20.1621041 L6.87273043,20.1621041 L17.5737903,9.4610442 C17.8863441,9.14849043 18.0269933,8.76951897 17.9957379,8.32412985 C17.9566687,7.87874072 17.7730433,7.53883848 17.4448619,7.30442315 C17.1166804,7.06219398 16.7728713,6.96452092 16.4134344,7.01140399 C16.0539976,7.05828706 15.7453507,7.21065702 15.4874939,7.46851389 L15.4874939,7.46851389 L6.87273043,16.0832773 C6.71645354,16.247368 6.52892127,16.3294134 6.31013363,16.3294134 C6.09134599,16.3294134 5.8999068,16.247368 5.73581607,16.0832773 L5.73581607,16.0832773 L2.51260526,12.8717873 C2.2547484,12.6061166 1.94610154,12.4498397 1.5866647,12.4029566 C1.21941402,12.3560735 0.871697942,12.4537466 0.543516478,12.6959758 C0.215335014,12.9303911 0.035616593,13.2702933 0.00436121547,13.7156825 C-0.0268941621,14.1610716 0.109848115,14.5400431 0.414588045,14.8525968 L0.414588045,14.8525968 L5.7240953,20.1621041 C5.88037219,20.318381 6.07181138,20.3965194 6.29841286,20.3965194 Z" id="c"></path>
                </g>
            </g>
        </g>
    </g>
</svg>