<?xml version="1.0" encoding="UTF-8"?>
<svg width="26px" height="26px" viewBox="0 0 26 26" version="1.1" xmlns="http://www.w3.org/2000/svg" xmlns:xlink="http://www.w3.org/1999/xlink">
    <!-- Generator: Sketch 61.2 (89653) - https://sketch.com -->
    <title>Combined Shape</title>
    <desc>Created with Sketch.</desc>
    <g id="Speaker-profile-+-photos" stroke="none" stroke-width="1" fill="none" fill-rule="evenodd">
        <g id="speaker-profile-2020-v5-ANNOTATED" transform="translate(-828.000000, -1568.000000)" fill="#E9EAEC">
            <g id="up-next" transform="translate(296.000000, 1527.000000)">
                <path d="M540,59 L540,67 L532,67 L532,59 L540,59 Z M549,59 L549,67 L541,67 L541,59 L549,59 Z M558,59 L558,67 L550,67 L550,59 L558,59 Z M540,50 L540,58 L532,58 L532,50 L540,50 Z M549,50 L549,58 L541,58 L541,50 L549,50 Z M558,50 L558,58 L550,58 L550,50 L558,50 Z M540,41 L540,49 L532,49 L532,41 L540,41 Z M549,41 L549,49 L541,49 L541,41 L549,41 Z M558,41 L558,49 L550,49 L550,41 L558,41 Z" id="Combined-Shape"></path>
            </g>
        </g>
    </g>
</svg>