<?xml version="1.0" encoding="UTF-8"?>
<svg width="48px" height="48px" viewBox="0 0 48 48" version="1.1" xmlns="http://www.w3.org/2000/svg" xmlns:xlink="http://www.w3.org/1999/xlink">
    <!-- Generator: Sketch 48.2 (47327) - http://www.bohemiancoding.com/sketch -->
    <title>rwr-rounded-logo</title>
    <desc>Created with Sketch.</desc>
    <defs>
        <rect id="path-1" x="0" y="0" width="48" height="48" rx="7.61394995"></rect>
    </defs>
    <g id="temporary-landing-page" stroke="none" stroke-width="1" fill="none" fill-rule="evenodd" transform="translate(-527.000000, -2270.000000)">
        <g id="Footer" transform="translate(0.000000, 2000.000000)">
            <g id="rwr-rounded-logo" transform="translate(527.000000, 270.000000)">
                <mask id="mask-2" fill="white">
                    <use xlink:href="#path-1"></use>
                </mask>
                <use id="Rectangle-38" fill="#D8D8D8" xlink:href="#path-1"></use>
                <g id="rwr-logo-vector" mask="url(#mask-2)">
                    <g transform="translate(-1.573770, -0.786885)">
                        <rect id="Rectangle-18" fill="#222222" x="0" y="0" width="50.2504923" height="49.6445903"></rect>
                        <path d="M12.3532224,16.6195234 C12.392801,16.6722518 12.41259,16.7315705 12.41259,16.797481 C12.41259,17.1006696 12.0959656,17.3313532 11.4627073,17.4895385 C10.7634845,16.9490719 9.89276732,16.1186112 8.85052962,14.9981316 C7.68955598,13.7458308 6.82543516,12.8758244 6.25814122,12.3880862 C6.21856257,12.7308212 6.14600281,13.6271914 6.04045975,15.0772239 C5.97449534,16.1713393 5.85576118,17.0413457 5.68425371,17.6872692 C5.65786794,17.6872692 5.57541367,17.720224 5.4368884,17.7861346 C5.29836314,17.8520451 5.18292715,17.871818 5.09057697,17.8454538 C4.51009015,17.7136327 4.2198511,17.3115842 4.2198511,16.6392965 C4.2198511,16.4415648 4.24623647,16.1779265 4.299008,15.8483736 C4.35177953,15.4660923 4.38476124,15.2288179 4.39795412,15.1365431 C4.45072565,14.3719805 4.48370736,13.4624284 4.49690024,12.4078593 L4.49690024,10.2525946 C4.49690024,8.4598272 4.59584537,6.95049788 4.79373861,5.72456136 C4.92566743,4.90727035 5.69743947,4.53158576 7.10907787,4.59749633 C7.82149351,4.62386055 8.44154968,4.97977227 8.96926497,5.66524215 C9.45740162,6.29798358 9.70146628,6.98344318 9.70146628,7.72164152 C9.70146628,8.34120083 9.4705943,8.96075086 9.00884342,9.58031018 C8.61305695,10.1339589 8.12492763,10.5689621 7.54444081,10.8853329 C7.30696893,11.017154 7.18823477,11.1621551 7.18823477,11.3203404 C7.18823477,11.4917079 7.32675795,11.6960276 7.60380848,11.9333056 C7.8148946,12.1046731 8.02597755,12.276038 8.23706367,12.4474054 C8.25025655,12.4605876 8.97585419,13.1196833 10.4138784,14.4247125 C11.3241872,15.2420035 11.9706288,15.9735998 12.3532224,16.6195234 L12.3532224,16.6195234 Z M8.17769599,7.74141459 C8.21727464,7.50413655 8.23046732,7.29322591 8.21727444,7.10867632 C8.17769579,6.83185195 8.06225981,6.58139555 7.87096301,6.35729963 C7.67966622,6.13320371 7.37293631,6.02115743 6.95076407,6.02115743 C6.6341349,6.02115743 6.43624463,6.12002179 6.35708734,6.31775349 C6.29112293,6.64730632 6.25814122,7.02299091 6.25814122,7.44481853 C6.25814122,7.616186 6.27793025,8.05778016 6.31750889,8.76961427 C6.34389466,9.31008091 6.34389466,9.75167508 6.31750889,10.09441 C7.41251812,9.277119 8.03257429,8.49279504 8.17769599,7.74141459 L8.17769599,7.74141459 Z M18.3543047,6.59457648 C17.866168,6.79230818 17.1471667,7.0229917 16.1972792,7.28663396 C15.2473917,7.55027622 14.5283904,7.78095974 14.0402537,7.97869144 C13.9215178,8.32142638 13.8357654,9.08597747 13.7829938,10.2723677 C13.9940799,10.3514603 14.2381446,10.3910061 14.5151951,10.3910061 C14.7130884,10.3910061 15.0231164,10.3580513 15.4452887,10.2921407 C15.8674609,10.2262302 16.177489,10.1932754 16.3753822,10.1932754 C16.7447829,10.1932754 17.0614074,10.2723669 17.325265,10.4305522 C17.5099654,10.6941945 17.6023141,10.8655594 17.6023141,10.9446521 C17.6023141,11.0369269 17.5561398,11.1094274 17.4637896,11.1621558 C17.4374038,11.175338 17.345055,11.2676114 17.1867404,11.4389788 C17.0811974,11.5576179 16.9492705,11.6103455 16.7909559,11.5971634 C16.5139054,11.663074 16.0059871,11.7026197 15.2671857,11.7158018 C14.6471202,11.7289839 14.1523945,11.8080754 13.7829938,11.9530787 C13.5323291,12.928555 13.4069986,13.6996971 13.4069986,14.266528 C13.4069986,14.6488092 13.4597693,14.9519933 13.5653124,15.1760892 C14.1853778,15.611099 15.2605816,15.7956458 16.7909559,15.7297352 C16.896499,15.7297352 17.0086368,15.680303 17.1273728,15.5814372 C17.2461087,15.4825713 17.3450538,15.4331391 17.4242111,15.4331391 C17.7936118,15.3540465 18.0376765,15.6308667 18.1564124,16.2636081 C18.1959911,16.4745219 18.1597112,16.6689552 18.0475717,16.8469137 C17.9354322,17.0248722 17.7738218,17.1204411 17.5627357,17.1336232 C15.9663969,17.1863517 14.5811651,17.0611235 13.4069986,16.7579349 C13.0375979,16.6656601 12.7011844,16.4613404 12.3977481,16.1449697 C12.0943118,15.828599 11.9228069,15.4726873 11.8832283,15.0772239 C11.7644923,13.93038 11.7644923,12.9021906 11.8832283,11.9926248 C11.5138276,11.7421647 11.348919,11.4982992 11.3884977,11.2610212 C11.4016905,11.1423822 11.5039338,11.0336314 11.6952306,10.9347655 C11.8865274,10.8358997 11.9953671,10.7337398 12.0217528,10.6282829 C12.0481386,10.522826 12.1009093,9.89668504 12.1800666,8.7498412 C11.4412652,8.60483796 11.0784664,8.32801773 11.0916593,7.91937223 C11.1048522,7.53709095 11.3357242,7.23390689 11.7842822,7.00981097 C12.2064544,6.8384435 12.6286203,6.6670786 13.0507925,6.49571113 C13.552122,6.24525098 14.1721782,6.02115841 14.9109796,5.82342672 C15.544238,5.65205925 16.1840832,5.4872853 16.8305344,5.32909995 C16.8964988,5.31591783 16.9756549,5.30932688 17.0680051,5.30932688 C17.4242129,5.30932688 17.8397825,5.44773699 18.3147262,5.72456136 C18.3279191,5.77728982 18.3609008,5.87615418 18.4136723,6.02115743 C18.4664439,6.16616067 18.4928292,6.27161599 18.4928292,6.33752656 C18.4928292,6.44298346 18.4466549,6.52866591 18.3543047,6.59457648 L18.3543047,6.59457648 Z M26.1364172,15.5320045 C26.2155745,15.7429183 26.2551525,15.9274651 26.2551525,16.0856505 C26.2551525,16.3492927 26.1430147,16.5799763 25.9187357,16.777708 C25.6944567,16.9754397 25.5427409,17.0677131 25.4635836,17.054531 C24.8171323,16.9358919 24.4081591,16.4152063 24.2366516,15.4924584 C24.0519513,14.4906178 23.834272,13.6535661 23.5836072,12.9812784 C23.1350492,13.0208247 22.686498,13.0603704 22.23794,13.0999168 C21.7234176,13.1658273 21.3210407,13.3240103 21.0307973,13.5744705 C20.8856756,13.983116 20.6943817,14.7081213 20.4569098,15.7495083 C20.2326308,16.7118025 20.0149515,17.4433988 19.8038654,17.9443191 C19.6983223,18.1815972 19.4740467,18.2475068 19.1310317,18.1420498 C18.6956666,17.9970466 18.4647946,17.7993179 18.4384089,17.5488577 C18.3988302,17.0479374 18.5439498,16.3756597 18.8737718,15.5320045 C19.2695583,14.5697102 19.4872376,13.8842506 19.5268162,13.4756051 C19.5400091,13.3569661 19.4542567,13.225147 19.2695563,13.0801437 C19.084856,12.9351405 18.9925072,12.8230942 18.9925072,12.7440015 C18.9925072,12.6780909 19.0221907,12.6088859 19.0815587,12.5363843 C19.1409266,12.4638826 19.2794498,12.404564 19.4971324,12.3584266 C19.7148149,12.3122892 19.8368473,12.2430842 19.863233,12.1508094 C20.1007049,11.4917037 20.4766964,10.2657856 20.9912188,8.47301821 C21.426584,6.91752886 21.8157681,5.72456552 22.1587831,4.89409239 C22.2379404,4.7095428 22.4028489,4.6172694 22.6535137,4.6172694 C22.838214,4.6172694 23.0031226,4.67658802 23.1482443,4.79522703 C23.517645,5.11159775 23.7551133,5.5861467 23.8606564,6.21888813 C23.9398137,6.75935477 24.0123734,7.2998133 24.0783379,7.84027994 C24.737982,10.9512586 25.4240016,13.5151412 26.1364172,15.5320045 L26.1364172,15.5320045 Z M23.2471904,11.755348 C23.2076118,11.2676098 23.1218593,10.7205603 22.9899305,10.1141831 C22.8580017,9.58689856 22.7326712,9.05962195 22.6139352,8.53233742 C22.2181488,9.62645281 21.875139,10.7205518 21.5848956,11.8146672 C21.7959817,11.7751208 22.3500744,11.755348 23.2471904,11.755348 L23.2471904,11.755348 Z M32.7905439,14.1874357 C32.7641582,14.2006178 31.9923861,14.7476673 30.4752047,15.8286006 C29.5912816,16.461342 28.8063168,16.9293 28.120287,17.2324886 C28.0411297,17.2720349 27.9619736,17.2918078 27.8828163,17.2918078 C27.6981159,17.2918078 27.526611,17.1731706 27.3682964,16.9358925 C27.1308245,16.6195218 27.005494,16.4547479 26.9923012,16.4415658 C26.9659154,15.2815398 27.0384752,13.6667552 27.2099826,11.5971634 C27.4078759,9.39575051 27.506821,7.8073297 27.506821,6.83185333 C27.506821,6.15956556 27.4804356,5.52683362 27.4276641,4.93363853 C27.5991716,4.76227106 27.8168509,4.67658861 28.0807085,4.67658861 C28.582038,4.67658861 28.8722771,4.86113542 28.9514344,5.23023459 C28.991013,6.31116787 28.9448386,7.92924798 28.8129098,10.0845235 C28.680981,12.239799 28.6282102,13.8578791 28.654596,14.9388124 C29.0239967,14.780627 29.5055297,14.5038068 30.0992094,14.1083434 C30.7456606,13.6601516 31.2140009,13.3635585 31.5042443,13.2185552 C31.5702087,13.2185552 31.6856447,13.2053733 31.8505558,13.1790091 C32.0154668,13.1526448 32.1374991,13.1394629 32.2166564,13.1394629 C32.4805141,13.1394629 32.671808,13.2449182 32.7905439,13.4558321 C32.9488585,13.7458385 32.9488585,13.989704 32.7905439,14.1874357 L32.7905439,14.1874357 Z" id="Real" fill="#FFFFFF" transform="translate(18.564565, 11.390420) rotate(-9.000000) translate(-18.564565, -11.390420) "></path>
                        <path d="M12.9600117,19.1697622 C13.263448,19.3147654 13.4151639,19.525676 13.4151639,19.8025004 C13.4151639,19.98705 13.3360078,20.2375064 13.1776932,20.5538771 C12.9797999,20.9757047 12.8742585,21.2129792 12.8610656,21.2657077 C12.5444364,22.241184 12.2443028,23.7241495 11.9606559,25.7146486 C11.6770089,27.7051477 11.390068,29.1683403 11.0998246,30.1042703 C11.0206673,30.3679126 10.7963917,30.4997317 10.426991,30.4997317 C10.2554835,30.4997317 10.1037676,30.466777 9.9718388,30.4008664 C9.48370216,30.1504062 9.13409602,29.6626754 8.92300991,28.9376591 C8.90981702,28.8717486 8.78448652,28.2126528 8.54701464,26.9603521 C8.4282787,26.3012464 8.31614088,25.5960139 8.21059782,24.8446335 C8.02589747,25.2137327 7.78183281,26.1298758 7.47839652,27.5930903 C7.21453887,28.8585732 6.90451079,29.66267 6.54830297,30.005405 C6.44275991,30.1108619 6.25806233,30.1240438 5.99420468,30.0449511 C5.59841822,29.9922227 5.33456453,29.7549482 5.20263571,29.3331206 C5.12347841,28.9640214 5.04432231,28.5949278 4.96516501,28.2258286 C4.72769313,27.2767165 4.53969738,25.8003419 4.40117211,23.7966607 C4.26264685,21.7929795 4.0746511,20.3297869 3.83717922,19.407039 C3.79760057,19.2488536 3.8173896,19.0972616 3.89654689,18.9522584 C3.97570418,18.8072551 4.087842,18.7281636 4.23296371,18.7149815 C4.33850676,18.6886173 4.44404824,18.6754354 4.5495913,18.6754354 C4.918992,18.6754354 5.20263472,18.8402093 5.40052795,19.1697622 C5.61161407,20.2770597 5.86227507,22.4323028 6.15251848,25.6355563 C6.25806154,25.4114604 6.38009387,24.9929346 6.51861913,24.3799663 C6.6571444,23.7669981 6.79236941,23.3221084 6.92429823,23.045284 C7.04303417,22.5443637 7.15517199,22.043451 7.26071505,21.5425307 C7.41902964,20.9361535 7.74884675,20.6329694 8.25017627,20.6329694 C8.3821051,20.6329694 8.52722462,20.6527423 8.68553921,20.6922886 C8.69873209,20.7713813 8.75809917,20.817518 8.86364223,20.8307001 C8.96918529,20.8438822 9.02855237,20.8636551 9.04174525,20.8900193 C9.33198866,21.5359429 9.54966796,22.3993583 9.69478966,23.4802916 C9.91906866,25.0094167 10.0575918,25.8926051 10.1103634,26.1298831 C10.3214495,24.956675 10.5391288,23.7900755 10.7634078,22.6300496 C11.0404583,21.2722919 11.3966608,20.165011 11.8320259,19.3081737 C11.9243761,19.1368062 12.11567,19.0511237 12.4059134,19.0511237 C12.6169995,19.0511237 12.8016971,19.0906695 12.9600117,19.1697622 L12.9600117,19.1697622 Z M21.2170656,25.0819103 C20.4386856,26.8351314 19.3370964,27.8765027 17.9122651,28.2060555 C17.7407577,28.2456019 17.5692528,28.2653747 17.3977453,28.2653747 C16.645751,28.2653747 15.8871716,27.8567354 15.1219845,27.0394443 C14.6074621,26.4857956 14.3502047,25.7673812 14.3502047,24.8841796 C14.3502047,23.9087033 14.6404438,22.860741 15.2209306,21.7402614 C15.4715954,21.2657053 15.7750271,20.8570659 16.1312349,20.514331 C16.5402143,20.1056855 16.9293985,19.9013658 17.2987992,19.9013658 C17.5098853,19.9013658 17.7077755,19.9804573 17.8924759,20.1386426 C18.0771762,20.296828 18.5719019,20.5077386 19.3766677,20.7713809 C20.0099261,20.9822947 20.4584774,21.3382064 20.722335,21.8391267 C21.1840859,22.7223283 21.4149579,23.4802884 21.4149579,24.1130299 C21.4149579,24.4689469 21.3489944,24.7919038 21.2170656,25.0819103 L21.2170656,25.0819103 Z M30.1622267,30.0999974 C30.0051642,30.202151 29.7823919,30.2892583 29.4939087,30.3613202 C28.794686,29.8208536 27.9239688,28.9903929 26.8817311,27.8699133 C25.7207575,26.6176126 24.8566366,25.7476062 24.2893427,25.259868 C24.2497641,25.6026029 24.1772043,26.4989732 24.0716612,27.9490056 C24.0056968,29.043121 23.8869627,29.9131274 23.7154552,30.559051 C23.6890694,30.559051 23.6066152,30.5920057 23.4680899,30.6579163 C23.3295646,30.7238269 23.2141286,30.7435998 23.1217785,30.7172355 C22.5412916,30.5854144 22.2510526,30.183366 22.2510526,29.5110782 C22.2510526,29.3133465 22.277438,29.0497082 22.3302095,28.7201554 C22.382981,28.3378741 22.4159627,28.1005996 22.4291556,28.0083248 C22.4819271,27.2437623 22.5149088,26.3342101 22.5281017,25.279641 L22.5281017,23.1243763 C22.5281017,21.3316089 22.6270469,19.8222796 22.8249401,18.5963431 C22.9568689,17.7790521 23.728641,17.4033675 25.1402794,17.4692781 C25.852695,17.4956423 26.4727512,17.851554 27.0004665,18.5370239 C27.4886031,19.1697653 27.7326678,19.8552249 27.7326678,20.5934233 C27.7326678,21.2129826 27.5017958,21.8325326 27.0400449,22.4520919 C26.6442584,23.0057407 26.1561291,23.4407439 25.5756423,23.7571146 C25.3381704,23.8889357 25.2194363,24.0339368 25.2194363,24.1921221 C25.2194363,24.3634896 25.3579594,24.5678093 25.63501,24.8050873 C25.8460961,24.9764548 26.057179,25.1478197 26.2682652,25.3191872 C26.281458,25.3323693 27.0070557,25.9914651 28.4450798,27.2964943 C28.8476993,27.657973 29.1987012,28.0026881 29.4980871,28.3306416 C29.5162178,27.2947605 29.5890343,26.0075349 29.7165375,24.4689451 C29.9144308,22.2675322 30.0133759,20.6791114 30.0133759,19.7036351 C30.0133759,19.0313473 29.9869905,18.3986154 29.934219,17.8054203 C30.1057265,17.6340528 30.3234057,17.5483703 30.5872634,17.5483703 C31.0885929,17.5483703 31.378832,17.7329172 31.4579893,18.1020163 C31.4975679,19.1829496 31.4513935,20.8010297 31.3194647,22.9563052 C31.1875359,25.1115807 31.1347651,26.7296608 31.1611509,27.8105941 C31.5305516,27.6524088 32.0120846,27.3755885 32.6057643,26.9801251 C33.2522155,26.5319333 33.7205558,26.2353402 34.0107992,26.0903369 C34.0767636,26.0903369 34.1921996,26.077155 34.3571107,26.0507908 C34.5220217,26.0244266 34.644054,26.0112447 34.7232113,26.0112447 C34.987069,26.0112447 35.1783629,26.1167 35.2970988,26.3276138 C35.4554134,26.6176203 35.4554134,26.8614857 35.2970988,27.0592174 C35.2707131,27.0723995 34.498941,27.619449 32.9817596,28.7003823 C32.0978364,29.3331237 31.3128717,29.8010817 30.6268418,30.1042703 C30.5476845,30.1438167 30.4685284,30.1635895 30.3893711,30.1635895 C30.3112988,30.1635895 30.2355841,30.1423923 30.1622267,30.0999974 Z M19.6339277,23.8559799 C19.6998921,24.449175 19.4756164,25.0884979 18.961094,25.7739678 C18.4201858,26.498984 17.8594968,26.8614867 17.2790099,26.8614867 C17.0283452,26.8614867 16.7183171,26.5912574 16.3489164,26.0507908 C16.0850587,25.6553274 15.9531319,25.1741875 15.9531319,24.6073566 C15.9531319,23.7768835 16.1840039,23.1639244 16.6457548,22.768461 C16.6721405,22.7420968 16.7051222,22.7289149 16.7447009,22.7289149 C16.7974724,22.7289149 16.9096102,22.7882335 17.0811177,22.9068725 C17.2526252,23.0255116 17.384552,23.0650573 17.4769022,23.025511 C17.6220239,22.9727825 17.8265105,22.7948267 18.0903681,22.4916381 C18.32784,22.2279958 18.5257303,22.0961766 18.6840449,22.0961766 C18.7368164,22.0961766 18.7961835,22.1093586 18.8621479,22.1357228 C19.2843201,22.3202724 19.5415775,22.8936857 19.6339277,23.8559799 Z M26.2088975,20.6131963 C26.2484761,20.3759183 26.2616688,20.1650076 26.2484759,19.9804581 C26.2088973,19.7036337 26.0934613,19.4531773 25.9021645,19.2290814 C25.7108677,19.0049854 25.4041378,18.8929392 24.9819656,18.8929392 C24.6653364,18.8929392 24.4674461,18.9918035 24.3882888,19.1895352 C24.3223244,19.5190881 24.2893427,19.8947726 24.2893427,20.3166003 C24.2893427,20.4879677 24.3091317,20.9295619 24.3487104,21.641396 C24.3750961,22.1818626 24.3750961,22.6234568 24.3487104,22.9661918 C25.4437196,22.1489007 26.0637758,21.3645768 26.2088975,20.6131963 L26.2088975,20.6131963 Z M41.812701,24.983045 C41.6807722,25.2862336 41.5554417,25.5894176 41.4367057,25.8926062 C41.2783911,26.2485233 41.1068862,26.5319345 40.9221859,26.7428483 C40.5132065,27.2569507 40.1042333,27.7644544 39.695254,28.2653747 C39.2071173,28.8717519 38.7651624,29.2935732 38.3693759,29.5308513 C38.2374471,29.6890366 38.0923276,29.8538106 37.934013,30.025178 C37.7756984,30.1965455 37.6173862,30.282228 37.4590716,30.282228 C37.3799143,30.282228 37.2875655,30.2624551 37.1820224,30.2229088 C37.0764794,30.1833624 36.9610434,30.1372257 36.835711,30.0844973 C36.7103786,30.0317688 36.621328,29.9460864 36.5685565,29.8274473 C36.5289778,29.2737986 36.5091888,28.6806124 36.5091888,28.047871 C36.5091888,27.4019474 36.5355742,26.4396676 36.5883457,25.1610026 C36.6411172,23.8823376 36.6675026,22.9200578 36.6675026,22.2741343 C36.6675026,21.4172969 36.6345209,20.632973 36.5685565,19.9211388 C36.5553636,19.9079567 36.4102441,19.7563647 36.1331936,19.4663582 C35.9616861,19.2949907 35.8759336,19.1368078 35.8759336,18.9918045 C35.8759336,18.925894 35.8891263,18.8599844 35.9155121,18.7940738 C35.9814765,18.6358885 36.126596,18.543615 36.350875,18.5172508 C36.5223825,18.4908866 36.6938874,18.4711137 36.8653949,18.4579316 C37.973597,18.6952096 39.1345532,19.3147597 40.3482984,20.3166003 C40.6649275,20.5802425 40.9221849,20.8570628 41.1200781,21.1470692 C41.7533365,22.0829993 42.0699609,22.9595966 42.0699609,23.7768877 C42.0699609,24.1987153 41.9842084,24.6007637 41.812701,24.983045 L41.812701,24.983045 Z M40.3878768,22.8673264 C40.2691409,22.0368533 39.5633323,21.305257 38.2704298,20.6725155 C38.1780796,22.8739284 38.1516943,25.2071275 38.1912729,27.6721826 C39.6820686,26.1826038 40.4274553,24.7655479 40.4274553,23.4209724 C40.4274553,23.2364228 40.4142626,23.051876 40.3878768,22.8673264 L40.3878768,22.8673264 Z" id="WORLd" fill="#FFFFFF" transform="translate(22.943675, 24.095217) rotate(-14.000000) translate(-22.943675, -24.095217) "></path>
                        <path d="M20.7404572,41.458697 C20.7800359,41.5114255 20.7998249,41.5707441 20.7998249,41.6366547 C20.7998249,41.9398433 20.4832005,42.1705268 19.8499421,42.3287121 C19.1507194,41.7882455 18.2800022,40.9577848 17.2377645,39.8373052 C16.0767909,38.5850045 15.21267,37.714998 14.6453761,37.2272599 C14.6057974,37.5699948 14.5332377,38.466365 14.4276946,39.9163975 C14.3617302,41.0105129 14.2429961,41.8805193 14.0714886,42.5264428 C14.0451028,42.5264428 13.9626485,42.5593976 13.8241233,42.6253082 C13.685598,42.6912188 13.570162,42.7109916 13.4778118,42.6846274 C12.897325,42.5528063 12.607086,42.1507579 12.607086,41.4784701 C12.607086,41.2807384 12.6334713,41.0171001 12.6862429,40.6875473 C12.7390144,40.305266 12.7719961,40.0679915 12.785189,39.9757167 C12.8379605,39.2111541 12.8709422,38.301602 12.8841351,37.2470329 L12.8841351,35.0917682 C12.8841351,33.2990008 12.9830802,31.7896715 13.1809735,30.563735 C13.3129023,29.746444 14.0846743,29.3707594 15.4963127,29.43667 C16.2087284,29.4630342 16.8287846,29.8189459 17.3564998,30.5044158 C17.8446365,31.1371572 18.0887011,31.8226168 18.0887011,32.5608151 C18.0887011,33.1803745 17.8578292,33.7999245 17.3960783,34.4194838 C17.0002918,34.9731326 16.5121625,35.4081358 15.9316757,35.7245065 C15.6942038,35.8563276 15.5754696,36.0013287 15.5754696,36.159514 C15.5754696,36.3308815 15.7139928,36.5352012 15.9910434,36.7724792 C16.2021295,36.9438467 16.4132124,37.1152116 16.6242985,37.2865791 C16.6374914,37.2997612 17.3630891,37.958857 18.8011132,39.2638862 C19.7114221,40.0811772 20.3578636,40.8127735 20.7404572,41.458697 L20.7404572,41.458697 Z M16.5649309,32.5805882 C16.6045095,32.3433102 16.6177022,32.1323995 16.6045093,31.9478499 C16.5649307,31.6710256 16.4494947,31.4205692 16.2581979,31.1964733 C16.0669011,30.9723773 15.7601712,30.8603311 15.3379989,30.8603311 C15.0213698,30.8603311 14.8234795,30.9591954 14.7443222,31.1569271 C14.6783578,31.4864799 14.6453761,31.8621645 14.6453761,32.2839922 C14.6453761,32.4553596 14.6651651,32.8969538 14.7047438,33.6087879 C14.7311295,34.1492545 14.7311295,34.5908487 14.7047438,34.9335836 C15.799753,34.1162926 16.4198092,33.3319687 16.5649309,32.5805882 L16.5649309,32.5805882 Z M26.7415395,31.4337501 C26.2534029,31.6314818 25.5344016,31.8621653 24.5845141,32.1258076 C23.6346266,32.3894498 22.9156253,32.6201334 22.4274886,32.8178651 C22.3087527,33.1606 22.2230002,33.9251511 22.1702287,35.1115413 C22.3813148,35.190634 22.6253795,35.2301797 22.90243,35.2301797 C23.1003232,35.2301797 23.4103513,35.1972249 23.8325236,35.1313144 C24.2546958,35.0654038 24.5647239,35.032449 24.7626171,35.032449 C25.1320178,35.032449 25.4486422,35.1115405 25.7124999,35.2697258 C25.8972002,35.5333681 25.989549,35.704733 25.989549,35.7838257 C25.989549,35.8761005 25.9433746,35.948601 25.8510244,36.0013295 C25.8246387,36.0145116 25.7322899,36.106785 25.5739753,36.2781525 C25.4684322,36.3967915 25.3365054,36.4495191 25.1781908,36.436337 C24.9011403,36.5022476 24.3932219,36.5417933 23.6544205,36.5549755 C23.0343551,36.5681576 22.5396294,36.6472491 22.1702287,36.7922523 C21.9195639,37.7677287 21.7942334,38.5388707 21.7942334,39.1057016 C21.7942334,39.4879829 21.8470042,39.7911669 21.9525472,40.0152628 C22.5726127,40.4502726 23.6478165,40.6348194 25.1781908,40.5689088 C25.2837339,40.5689088 25.3958717,40.5194766 25.5146076,40.4206108 C25.6333436,40.3217449 25.7322887,40.2723128 25.811446,40.2723128 C26.1808467,40.1932201 26.4249114,40.4700403 26.5436473,41.1027817 C26.5832259,41.3136956 26.5469461,41.5081288 26.4348066,41.6860873 C26.3226671,41.8640459 26.1610567,41.9596147 25.9499706,41.9727969 C24.3536318,42.0255253 22.9684,41.9002971 21.7942334,41.5971085 C21.4248327,41.5048337 21.0884193,41.300514 20.784983,40.9841433 C20.4815467,40.6677726 20.3100418,40.3118609 20.2704631,39.9163975 C20.1517272,38.7695536 20.1517272,37.7413642 20.2704631,36.8317984 C19.9010624,36.5813383 19.7361539,36.3374729 19.7757325,36.1001948 C19.7889254,35.9815558 19.8911687,35.872805 20.0824655,35.7739392 C20.2737623,35.6750733 20.382602,35.5729135 20.4089877,35.4674566 C20.4353735,35.3619996 20.4881442,34.7358587 20.5673015,33.5890148 C19.8285001,33.4440116 19.4657013,33.1671914 19.4788942,32.7585459 C19.492087,32.3762646 19.722959,32.0730805 20.171517,31.8489846 C20.5936893,31.6776171 21.0158552,31.5062522 21.4380274,31.3348848 C21.9393569,31.0844246 22.5594131,30.860332 23.2982145,30.6626003 C23.9314728,30.4912329 24.571318,30.3264589 25.2177693,30.1682736 C25.2837337,30.1550915 25.3628898,30.1485005 25.45524,30.1485005 C25.8114478,30.1485005 26.2270173,30.2869106 26.7019611,30.563735 C26.715154,30.6164634 26.7481357,30.7153278 26.8009072,30.8603311 C26.8536788,31.0053343 26.8800641,31.1107896 26.8800641,31.1767002 C26.8800641,31.2821571 26.8338897,31.3678395 26.7415395,31.4337501 L26.7415395,31.4337501 Z M34.5236521,40.3711781 C34.6028094,40.5820919 34.6423874,40.7666387 34.6423874,40.9248241 C34.6423874,41.1884664 34.5302496,41.4191499 34.3059706,41.6168816 C34.0816916,41.8146133 33.9299757,41.9068867 33.8508184,41.8937046 C33.2043672,41.7750656 32.795394,41.2543799 32.6238865,40.331632 C32.4391862,39.3297914 32.2215069,38.4927398 31.9708421,37.820452 C31.5222841,37.8599983 31.0737328,37.8995441 30.6251748,37.9390904 C30.1106524,38.005001 29.7082756,38.163184 29.4180322,38.4136441 C29.2729105,38.8222896 29.0816165,39.547295 28.8441446,40.5886819 C28.6198656,41.5509762 28.4021864,42.2825725 28.1911002,42.7834928 C28.0855572,43.0207708 27.8612815,43.0866804 27.5182666,42.9812235 C27.0829015,42.8362202 26.8520295,42.6384915 26.8256438,42.3880313 C26.7860651,41.887111 26.9311846,41.2148334 27.2610067,40.3711781 C27.6567932,39.4088839 27.8744725,38.7234243 27.9140511,38.3147788 C27.927244,38.1961397 27.8414915,38.0643206 27.6567912,37.9193173 C27.4720908,37.7743141 27.379742,37.6622678 27.379742,37.5831751 C27.379742,37.5172646 27.4094256,37.4480595 27.4687935,37.3755579 C27.5281615,37.3030563 27.6666847,37.2437376 27.8843673,37.1976003 C28.1020498,37.1514629 28.2240821,37.0822578 28.2504679,36.989983 C28.4879398,36.3308774 28.8639313,35.1049592 29.3784537,33.3121918 C29.8138188,31.7567025 30.203003,30.5637391 30.546018,29.733266 C30.6251752,29.5487164 30.7900838,29.456443 31.0407486,29.456443 C31.2254489,29.456443 31.3903575,29.5157616 31.5354792,29.6344007 C31.9048799,29.9507714 32.1423482,30.4253203 32.2478913,31.0580618 C32.3270486,31.5985284 32.3996083,32.1389869 32.4655727,32.6794536 C33.1252168,35.7904323 33.8112364,38.3543148 34.5236521,40.3711781 L34.5236521,40.3711781 Z M40.8783621,29.4599286 C41.1286846,29.4317275 41.4016458,29.4042015 41.6972459,29.3773507 C42.8450267,29.2587117 43.7025512,29.0478011 44.2698451,28.7446125 C44.731596,28.8896157 45.2593034,28.9621163 45.8529831,28.9621163 C46.4466628,28.9621163 47.0139482,28.8896157 47.5548564,28.7446125 C47.713171,28.7314304 48.1155478,28.639157 48.7619991,28.4677895 C49.2369428,28.3491505 49.6327234,28.3096047 49.9493525,28.3491511 C50.1868244,28.3491511 50.2857696,28.4480154 50.2461909,28.6457471 C50.6023987,28.6457471 50.7805,28.7643844 50.7805,29.0016624 C50.661764,29.4762185 50.4374884,29.7530387 50.1076663,29.8321314 C49.250129,30.0430452 47.7593557,30.3198654 45.6353016,30.6626003 C45.371444,33.9449465 45.2395171,36.680194 45.2395171,38.8684247 C45.2395171,39.6988979 45.2527098,40.5161766 45.2790956,41.3202855 C45.2922885,41.5707457 45.2790958,41.7618834 45.2395171,41.8937046 C45.1735527,42.1046184 45.0416259,42.2034828 44.8437326,42.1903006 C44.461139,42.1771185 44.1445146,42.0156401 43.8938499,41.7058604 C43.6431851,41.3960807 43.5046619,41.0500555 43.4782761,40.6677742 C43.4518904,40.180036 43.4386977,39.6659413 43.4386977,39.1254747 C43.4386977,38.2554552 43.4980648,36.877945 43.6168007,34.9929029 C43.7355367,33.1869534 43.7883074,31.8094432 43.7751145,30.8603311 C43.4189067,30.8339668 42.924181,30.8669216 42.2909227,30.9591964 C41.5653141,31.0646533 41.0639921,31.117381 40.7869416,31.117381 C40.1404904,31.117381 39.612783,30.9460161 39.2038037,30.6032811 C39.170125,30.5303703 39.1400287,30.4649166 39.1135147,30.4069199 C39.0759494,30.4322742 39.045029,30.4581818 39.0207533,30.4846427 C37.5431505,32.0401321 36.8043602,34.0503742 36.8043602,36.5154293 C36.8043602,37.6754553 36.9890578,38.7695542 37.3584585,39.7977591 C37.6618948,40.6414143 37.8795741,41.1950548 38.0115029,41.458697 C38.3413249,42.1046206 38.7437018,42.5659876 39.2186456,42.842812 C39.4165388,42.9350868 39.6144291,43.0207692 39.8123223,43.0998619 C40.0234084,43.2185009 40.1289499,43.3832749 40.1289499,43.5941887 C40.1289499,43.8051025 40.0596883,43.9962403 39.921163,44.1676077 C39.7826378,44.3389752 39.6342201,44.4048848 39.4759055,44.3653384 C39.304398,44.3389742 39.0405443,44.2532918 38.6843365,44.1082885 C38.0510782,43.7391893 37.3650586,42.9548654 36.6262572,41.7552931 C36.4415568,41.4521045 36.2535611,41.139034 36.0622643,40.8160722 C35.8709675,40.4931104 35.7291461,40.1866309 35.6367959,39.8966244 C35.5708315,39.6857106 35.4586937,38.8354771 35.3003791,37.3458983 C35.2476076,36.8845243 35.2212222,36.4363392 35.2212222,36.0013295 C35.2212222,33.6680954 35.9006455,31.6842172 37.2595124,30.0496351 C38.0510853,29.100523 38.8756281,28.625974 39.7331654,28.625974 C40.1025661,28.625974 40.4389796,28.7380203 40.7424159,28.9621163 C40.834766,29.0280268 40.8809404,29.1730279 40.8809404,29.3971238 C40.8809404,29.4185358 40.880081,29.4394707 40.8783621,29.4599286 Z M31.6344253,36.5945216 C30.7373093,36.5945216 30.1832166,36.6142945 29.9721304,36.6538408 C30.2623739,35.5597254 30.6053836,34.4656264 31.0011701,33.371511 C31.1199061,33.8987956 31.2452366,34.4260722 31.3771654,34.9533567 C31.5090942,35.5597339 31.5948467,36.1067834 31.6344253,36.5945216 Z" id="react" fill="#FFFFFF" transform="translate(31.693793, 36.355391) rotate(-20.000000) translate(-31.693793, -36.355391) "></path>
                        <g id="react-logo-official" stroke-width="1" fill="none" transform="translate(38.339002, 3.328062)">
                            <ellipse id="Oval" fill="#00D8FF" cx="4.53837489" cy="4.06069959" rx="1" ry="1"></ellipse>
                            <path d="M4.53837489,2.35562523 C5.66588829,2.35562523 6.71331938,2.51718939 7.5030776,2.7886974 C8.45462418,3.11582093 9.03967367,3.61169667 9.03967367,4.06069959 C9.03967367,4.52860877 8.41962165,5.05537645 7.39780217,5.39346594 C6.62525227,5.64907665 5.60868903,5.78249036 4.53837489,5.78249036 C3.44102627,5.78249036 2.40189803,5.65725098 1.62082767,5.39064087 C0.632420455,5.05327018 0.0370761041,4.51966549 0.0370761041,4.06069959 C0.0370761041,3.61534085 0.595677003,3.12330989 1.53384864,2.79667113 C2.32655303,2.52069983 3.39984682,2.35562523 4.53837489,2.35562523 L4.53837489,2.35562523 Z" id="Shape" stroke="#00D8FF" stroke-width="0.559849261"></path>
                            <path d="M3.05201439,3.21307704 C3.61528565,2.23770764 4.27871,1.41231792 4.90877231,0.864755021 C5.66791378,0.205024976 6.39034528,-0.0533606549 6.7798426,0.170940205 C7.18574475,0.40468584 7.33295291,1.2042487 7.11575642,2.25708196 C6.95154081,3.05308423 6.55943211,3.99913303 6.02473538,4.92503856 C5.47652978,5.87433035 4.84877754,6.71066932 4.22728591,7.25316714 C3.44084213,7.93967688 2.68054563,8.18809953 2.28239393,7.95881718 C1.89606039,7.73632169 1.74829982,7.00730211 1.93364082,6.0325345 C2.09023991,5.20891672 2.48323581,4.19799151 3.05201439,3.21307704 L3.05201439,3.21307704 Z" id="Shape" stroke="#00D8FF" stroke-width="0.559849261"></path>
                            <path d="M3.05343726,4.92751259 C2.48854227,3.95307931 2.10378225,2.96689439 1.94340002,2.14832497 C1.75015792,1.16207318 1.88678665,0.40799569 2.2759157,0.18304289 C2.68141609,-0.0513881179 3.44860931,0.220554526 4.25353363,0.934278592 C4.86211901,1.47388448 5.48704226,2.28558345 6.02329577,3.21060301 C6.57309164,4.15897539 6.9851707,5.11976808 7.1454525,5.92839123 C7.34828639,6.95165316 7.18410426,7.73349662 6.78633757,7.96344763 C6.4003723,8.18657834 5.69409454,7.95034196 4.94097933,7.30316594 C4.3046564,6.75635528 3.62387307,5.91147422 3.05343726,4.92751259 L3.05343726,4.92751259 Z" id="Shape" stroke="#00D8FF" stroke-width="0.559849261"></path>
                        </g>
                    </g>
                </g>
            </g>
        </g>
    </g>
</svg>