<?xml version="1.0" encoding="UTF-8"?>
<svg width="100px" height="22px" viewBox="0 0 100 22" version="1.1" xmlns="http://www.w3.org/2000/svg" xmlns:xlink="http://www.w3.org/1999/xlink">
    <!-- Generator: Sketch 61 (89581) - https://sketch.com -->
    <title>flexport-logo-new</title>
    <desc>Created with Sketch.</desc>
    <g id="Home" stroke="none" stroke-width="1" fill="none" fill-rule="evenodd">
        <g id="landing-2020-v3.0" transform="translate(-559.000000, -507.000000)" fill-rule="nonzero">
            <g id="hero/video" transform="translate(297.000000, 0.000000)">
                <g id="flexport-logo-new" transform="translate(262.000000, 507.000000)">
                    <path d="M11.1512856,13.8807665 L11.1512856,0.040625712 L15.6635739,0.040625712 L15.6635739,13.3110618 C15.6635739,14.2454532 15.8685921,14.4731461 16.8256583,14.4731461 L17.2130197,14.4731461 L17.7449331,18.1341841 C17.4029213,18.1795337 16.0055857,18.2787368 15.1618936,18.2787368 C12.6780565,18.2796808 11.1512856,17.4142587 11.1512856,13.8807665 L11.1512856,13.8807665 Z M45.7199873,5.4268393 L49.2298599,5.15285194 L49.5718717,6.19872782 C50.2785701,5.53737902 51.5086789,4.87697501 54.1531293,4.87697501 C58.7117121,4.87697501 59.7604224,8.09113018 59.7604224,11.6690272 C59.7604224,15.2705438 58.598338,18.4384045 53.8800867,18.4384045 C51.783611,18.4384045 50.8029252,17.9593991 50.2332205,17.4350439 L50.2332205,21.9936267 L45.7199873,21.9936267 L45.7199873,5.4268393 Z M55.1801095,11.8523153 C55.1801095,10.3255443 54.9061222,8.98017192 52.9466401,8.98017192 C50.8501644,8.98017192 50.2341653,10.051557 50.2341653,11.8523153 C50.2341653,13.6530736 50.6895512,14.6328151 52.9466401,14.6328151 C54.8607725,14.6337594 55.1801095,13.3790862 55.1801095,11.8523153 Z M75.8614313,5.4268393 L79.3713038,5.15285194 L79.8276345,6.5190096 C80.3973393,5.74428672 81.9704046,5.08293792 83.8391874,5.01491347 L83.8391874,9.3590303 C80.8300503,9.38170512 80.3746644,10.2801947 80.3746644,12.0582782 L80.3746644,18.2343312 L75.8614313,18.2343312 L75.8614313,5.4268393 L75.8614313,5.4268393 Z M85.0985844,5.02247174 L87.4236979,5.02247174 L88.1530711,2.37140784 L91.6402689,1.61935978 L91.6402689,5.02341653 L94.4897374,5.02341653 L94.4897374,9.36469901 L91.6402689,9.36469901 L91.6402689,13.1296632 C91.6402689,14.018705 91.7772625,14.4740909 93.1897146,14.4740909 L94.4887926,14.4740909 L94.4887926,18.2343312 C93.804769,18.2796808 93.0527209,18.3023556 92.2090288,18.3023556 C88.4024941,18.3023556 87.1487657,17.0939769 87.1487657,13.8127421 L87.1487657,9.36375422 L85.0976397,9.36375422 L85.0976397,5.02247174 L85.0985844,5.02247174 Z" id="Shape" fill="#FFFFFF"></path>
                    <polygon id="Path" fill="#FA5959" points="95.7396866 14.4731461 99.4980374 14.4731461 99.4980374 18.2314968 95.7396866 18.2314968"></polygon>
                    <path d="M0,5.17363718 L2.46116232,5.17363718 L2.46116232,4.92326942 C2.46116232,1.64108981 3.69221587,0 7.93146168,0 C9.04819637,0 9.2532145,0.0236196 9.80024443,0.068969232 L9.80024443,3.73851029 L8.54746085,3.73851029 C7.24838285,3.73851029 6.97534027,4.05784728 6.97534027,4.90059461 L6.97534027,5.17458197 L9.80118922,5.17458197 L9.80118922,9.00379152 L6.97439549,9.00379152 L6.97439549,18.2343312 L2.46116232,18.2343312 L2.46116232,9.00284674 L0,9.00284674 L0,5.17363718 Z M27.5697419,14.3370972 C26.8233625,14.7735874 26.4378907,14.8718449 24.9489111,14.8718449 C23.182165,14.8718449 22.5028653,14.2435636 22.2761172,13.178792 L30.9530134,13.178792 C31.1117371,8.5795835 30.7262652,4.86469282 24.9498559,4.86469282 C19.1507717,4.86469282 17.9272764,8.05900752 17.9272764,11.6151745 C17.9272764,15.2629855 19.1507717,18.4733616 24.9498559,18.4733616 C27.2371779,18.4733616 28.6789183,18.0500983 30.2094684,17.0552408 L27.5697419,14.3370972 L27.5697419,14.3370972 Z M24.813807,8.5795835 C26.6712523,8.5795835 26.8073012,9.46295654 26.8753257,10.5277281 L22.2307675,10.5277281 C22.4131108,9.28155802 23.0017113,8.5795835 24.813807,8.5795835 Z" id="Shape" fill="#FFFFFF"></path>
                    <path d="M39.9010627,18.2399999 L37.6883785,15.0768631 L35.4756944,18.2399999 L30.4305479,18.2399999 L35.1535231,11.5112483 L30.8632589,5.43156322 L35.963203,5.42778408 L37.7101086,7.90878686 L39.457959,5.42872886 L44.6136453,5.43156322 L40.2430745,11.4810152 L44.9802215,18.2399999 L39.9010627,18.2399999 Z M60.6948137,11.669972 C60.6948137,7.3400269 62.6779153,4.87791979 67.7835281,4.87791979 C72.8891408,4.87791979 74.8495676,7.3400269 74.8495676,11.669972 C74.8495676,16.0008618 72.8891408,18.4856437 67.7835281,18.4856437 C62.6779153,18.4856437 60.6948137,16.0008618 60.6948137,11.669972 Z M70.3136596,11.8069656 C70.3136596,10.1658758 69.9036234,8.98017192 67.7835281,8.98017192 C65.6643776,8.98017192 65.2533965,10.1649311 65.2533965,11.8069656 C65.2533965,13.4253806 65.6634328,14.6337594 67.7835281,14.6337594 C69.9036234,14.6337594 70.3136596,13.4253806 70.3136596,11.8069656 L70.3136596,11.8069656 Z" id="Shape" fill="#FFFFFF"></path>
                </g>
            </g>
        </g>
    </g>
</svg>