<svg width="594" height="185" viewBox="0 0 594 185" fill="none" xmlns="http://www.w3.org/2000/svg">
<g clip-path="url(#clip0_2235_46)">
<path d="M271.143 129.023C268.088 132.187 264.419 134.696 260.361 136.397C256.303 138.098 251.941 138.954 247.541 138.914C243.825 139.027 240.125 138.378 236.67 137.007C233.214 135.637 230.076 133.574 227.449 130.945C222.676 125.97 219.929 118.867 219.929 110.4C219.929 93.449 230.973 81.8549 247.541 81.8549C251.984 81.7924 256.387 82.7112 260.434 84.5451C264.48 86.3796 268.072 89.0837 270.952 92.4654L285.287 79.8006C275.945 68.4709 260.788 62.6152 246.395 62.6152C218.226 62.6152 198.251 82.0167 198.251 110.561C198.251 124.678 203.215 136.566 211.587 144.961C219.958 153.355 231.884 158.286 245.646 158.286C263.52 158.286 277.781 151.036 285.786 141.923L271.143 129.023Z" fill="#1F0256"/>
<path d="M298.748 26.4219H320.088V156.786H298.748V26.4219Z" fill="#1F0256"/>
<path d="M422.881 117.805C423.233 114.966 423.429 112.109 423.468 109.248C423.468 82.216 405.755 62.6384 378.364 62.6384C372.323 62.5197 366.321 63.6382 360.729 65.9249C355.137 68.2116 350.072 71.6181 345.847 75.9346C337.843 84.3288 333.041 96.2166 333.041 110.393C333.041 139.289 353.426 158.309 380.45 158.309C398.588 158.309 411.645 150.971 419.474 141.021L405.492 128.649L404.801 128.063C402.027 131.53 398.49 134.312 394.466 136.193C390.441 138.074 386.038 139.002 381.596 138.908C367.878 138.908 357.978 130.91 355.159 117.805H422.881ZM355.511 100.692C356.464 96.5612 358.416 92.7271 361.195 89.5243C363.508 87.0067 366.338 85.0172 369.491 83.6921C372.645 82.3678 376.047 81.7388 379.466 81.8491C391.656 81.8491 399.293 89.4657 401.922 100.692H355.511Z" fill="#1F0256"/>
<path d="M489.433 62.3594V86.1339C486.965 85.9435 484.483 85.7523 482.971 85.7523C466.815 85.7523 457.65 97.3464 457.65 112.565V156.783H436.339V63.6803H457.65V77.7834H457.841C465.082 67.8922 475.465 62.3888 486.775 62.3888L489.433 62.3594Z" fill="#1F0256"/>
<path d="M539.125 117.792L523.718 134.92V156.786H502.393V26.4219H523.718V106.389L561.773 63.977H587.093L553.607 101.444L587.681 156.786H563.697L539.522 117.792H539.125Z" fill="#1F0256"/>
<path d="M147.466 24.3645L125.245 46.5687C124.546 47.2657 123.634 47.7083 122.654 47.8254C121.674 47.9424 120.683 47.7273 119.84 47.2145C111.099 41.9453 101.018 39.3174 90.8141 39.6481C80.6104 39.9789 70.7214 43.2541 62.3402 49.0783C57.1856 52.6635 52.7099 57.1358 49.1219 62.2864C43.3001 70.6662 40.0254 80.5482 39.6918 90.744C39.3584 100.94 41.9801 111.015 47.2419 119.757C47.7514 120.598 47.9646 121.584 47.8475 122.561C47.7304 123.537 47.2897 124.446 46.5957 125.142L24.3742 147.346C23.9268 147.797 23.3872 148.145 22.7926 148.367C22.1979 148.59 21.5623 148.681 20.929 148.635C20.2957 148.589 19.6799 148.407 19.1237 148.101C18.5674 147.795 18.084 147.373 17.7064 146.862C5.68314 130.349 -0.530425 110.322 0.0355019 89.9092C0.601429 69.4959 7.91501 49.844 20.8347 34.021C24.7789 29.1798 29.208 24.7541 34.053 20.813C49.887 7.90675 69.5511 0.60096 89.9771 0.0354839C110.403 -0.529992 130.442 5.67666 146.966 17.687C147.481 18.0631 147.907 18.5461 148.215 19.1026C148.525 19.6592 148.709 20.276 148.757 20.9107C148.805 21.5454 148.714 22.1829 148.491 22.7791C148.268 23.3754 147.918 23.9163 147.466 24.3645Z" fill="url(#paint0_linear_2235_46)"/>
<path d="M147.447 160.556L125.225 138.351C124.527 137.654 123.615 137.212 122.635 137.095C121.655 136.977 120.664 137.193 119.821 137.705C111.579 142.673 102.136 145.299 92.5107 145.299C82.8848 145.299 73.4419 142.673 65.1999 137.705C64.3568 137.193 63.3658 136.977 62.3857 137.095C61.4057 137.212 60.4934 137.654 59.7951 138.351L37.5736 160.556C37.1076 161.003 36.7459 161.548 36.5142 162.151C36.2823 162.753 36.1862 163.4 36.2325 164.045C36.2787 164.689 36.4662 165.315 36.7818 165.878C37.0974 166.443 37.5331 166.93 38.0583 167.306C53.8761 178.806 72.9343 185 92.496 185C112.057 185 131.115 178.806 146.933 167.306C147.46 166.932 147.898 166.446 148.217 165.884C148.535 165.321 148.725 164.696 148.775 164.051C148.823 163.407 148.73 162.76 148.501 162.156C148.271 161.552 147.912 161.005 147.447 160.556Z" fill="#1F0256"/>
<path d="M92.5506 118.88C107.151 118.88 118.987 107.053 118.987 92.4638C118.987 77.8751 107.151 66.0479 92.5506 66.0479C77.9497 66.0479 66.1138 77.8751 66.1138 92.4638C66.1138 107.053 77.9497 118.88 92.5506 118.88Z" fill="#1F0256"/>
</g>
<defs>
<linearGradient id="paint0_linear_2235_46" x1="126.581" y1="-13.5575" x2="-60.6804" y2="173.863" gradientUnits="userSpaceOnUse">
<stop stop-color="#17CCFC"/>
<stop offset="0.5" stop-color="#5D31FF"/>
<stop offset="1" stop-color="#F35AFF"/>
</linearGradient>
<clipPath id="clip0_2235_46">
<rect width="594" height="185" fill="white"/>
</clipPath>
</defs>
</svg>
