<?xml version="1.0" encoding="UTF-8"?>
<svg width="71px" height="19px" viewBox="0 0 71 19" version="1.1" xmlns="http://www.w3.org/2000/svg" xmlns:xlink="http://www.w3.org/1999/xlink">
    <!-- Generator: Sketch 61.2 (89653) - https://sketch.com -->
    <title>reactathon-mobile-nav-logo</title>
    <desc>Created with Sketch.</desc>
    <g id="Mobile" stroke="none" stroke-width="1" fill="none" fill-rule="evenodd">
        <g id="about-topic-tables-mobile-2020-v1" transform="translate(-40.000000, -12.000000)">
            <g id="header" transform="translate(16.000000, 12.000000)">
                <g id="reactathon-mobile-nav-logo" transform="translate(24.000000, 0.000000)">
                    <path d="M20.2424493,9.98286053 C20.2424493,8.64673711 18.5631429,7.38050322 15.9884816,6.59527377 C16.5826342,3.98058301 16.3185664,1.90034163 15.1550176,1.23433549 C14.8868237,1.07811183 14.5732431,1.00411115 14.2307802,1.00411115 L14.2307802,1.92089737 C14.4205789,1.92089737 14.5732431,1.95789771 14.701151,2.02778725 C15.2622951,2.34845687 15.5057326,3.56946811 15.3159339,5.13992703 C15.2705472,5.52637503 15.1962782,5.93337878 15.1055048,6.34860483 C14.2967971,6.15126968 13.4138203,5.99915716 12.4854569,5.90048959 C11.9284388,5.13992703 11.3507904,4.449254 10.769016,3.8449151 C12.1141115,2.59923695 13.3766858,1.91678622 14.2349062,1.91678622 L14.2349062,1 C14.2349062,1 14.2349062,1 14.2349062,1 C13.1002398,1 11.6148583,1.8057852 10.1129725,3.20357585 C8.61108675,1.8140075 7.12570523,1.0164446 5.99103879,1.0164446 L5.99103879,1.93323082 C6.84513317,1.93323082 8.11183352,2.6115704 9.45692901,3.84902625 C8.87928064,4.45336515 8.30163227,5.13992703 7.75286632,5.90048959 C6.82037681,5.99915716 5.93740002,6.15126968 5.1286923,6.35271598 C5.03379293,5.94160108 4.96364991,5.54281963 4.91413719,5.16048277 C4.72021238,3.59002386 4.95952385,2.36901261 5.51654192,2.04423184 C5.64032371,1.97023116 5.80124004,1.93734197 5.99103879,1.93734197 L5.99103879,1.02055574 C5.99103879,1.02055574 5.99103879,1.02055574 5.99103879,1.02055574 C5.64444977,1.02055574 5.33086923,1.09455643 5.05854929,1.25078009 C3.89912649,1.91678622 3.63918472,3.99291646 4.23746339,6.59938491 C1.67105421,7.38872552 0,8.65084826 0,9.98286053 C0,11.3189839 1.67930633,12.5852178 4.25396763,13.3704473 C3.65981502,15.985138 3.92388285,18.0653794 5.0874317,18.7313856 C5.35562559,18.8876092 5.66920613,18.9616099 6.01579515,18.9616099 C7.15046159,18.9616099 8.63584311,18.1558247 10.1377289,16.7580341 C11.6396146,18.1476024 13.1249961,18.9451653 14.2596626,18.9451653 C14.6062516,18.9451653 14.9198321,18.8711646 15.1921521,18.714941 C16.3515749,18.0489348 16.6115167,15.9728046 16.013238,13.3663361 C18.5713951,12.5811067 20.2424493,11.3148728 20.2424493,9.98286053 Z M14.8600639,7.27878788 C14.7122338,7.81840389 14.528445,8.37475219 14.3206838,8.93110048 C14.1568721,8.59645489 13.9850696,8.2618093 13.7972854,7.92716371 C13.6134966,7.59251812 13.4177216,7.26623867 13.2219466,6.94832536 C13.7892946,7.03616983 14.3366655,7.14492964 14.8600639,7.27878788 Z M12.9592628,11.6034603 C12.63983,12.1552449 12.3122065,12.6784185 11.9722972,13.1648063 C11.3620985,13.2179412 10.7437092,13.2465522 10.1212246,13.2465522 C9.50283536,13.2465522 8.88444608,13.2179412 8.27834269,13.1688936 C7.93843335,12.6825057 7.6067146,12.1634195 7.28728173,11.6157222 C6.97603945,11.0802868 6.69346422,10.5366768 6.43546075,9.98897954 C6.68936893,9.44128225 6.97603945,8.89358497 7.28318644,8.35814956 C7.60261931,7.80636498 7.93024277,7.28319145 8.2701521,6.79680356 C8.88035079,6.74366875 9.49874006,6.7150577 10.1212246,6.7150577 C10.7396139,6.7150577 11.3580032,6.74366875 11.9641066,6.79271627 C12.3040159,7.27910416 12.6357347,7.79819039 12.9551675,8.34588768 C13.2664098,8.88132309 13.548985,9.42493308 13.8069885,9.97263037 C13.548985,10.5203277 13.2664098,11.0680249 12.9592628,11.6034603 Z M14.3891904,11.0305094 C14.6192311,11.5863502 14.8151918,12.1421909 14.9770723,12.6814393 C14.4190105,12.8141774 13.8311286,12.9261752 13.2219466,13.0132845 C13.4306873,12.6938835 13.639428,12.3661864 13.8353886,12.0301931 C14.0313492,11.6983479 14.2145298,11.3623546 14.3891904,11.0305094 Z M10.1860765,15.462595 C9.79252207,15.0777033 9.39896768,14.6487095 9.00964505,14.1796229 C9.39050414,14.19566 9.77982677,14.2076879 10.1733812,14.2076879 C10.5711673,14.2076879 10.9647217,14.1996693 11.3498126,14.1796229 C10.9689535,14.6487095 10.5753991,15.0777033 10.1860765,15.462595 Z M7.02050263,13.1299184 C6.4531547,13.0420739 5.9057838,12.9333141 5.38238535,12.7994559 C5.53021545,12.2598398 5.71400422,11.7034916 5.92176543,11.1471433 C6.08557716,11.4817888 6.25737971,11.8164344 6.44516388,12.15108 C6.63294806,12.4857256 6.82472764,12.8120051 7.02050263,13.1299184 Z M10.1733812,4.49901492 C10.5669356,4.88390656 10.96049,5.31290037 11.3498126,5.78198705 C10.9689535,5.7659499 10.5796309,5.75392204 10.1860765,5.75392204 C9.78829031,5.75392204 9.39473591,5.76194061 9.00964505,5.78198705 C9.39050414,5.31290037 9.78405854,4.88390656 10.1733812,4.49901492 Z M7.13751101,6.94832536 C6.92877034,7.26839598 6.72002966,7.59678011 6.52406903,7.93347778 C6.3281084,8.26601868 6.14492781,8.59855958 5.97026725,8.93110048 C5.74022651,8.37409447 5.54426587,7.81708846 5.38238535,7.2767095 C5.94044715,7.1478499 6.52832905,7.03561735 7.13751101,6.94832536 Z M3.32519475,12.1257155 C1.87450656,11.5024205 0.936067018,10.6851197 0.936067018,10.037058 C0.936067018,9.38899626 1.87450656,8.56756771 3.32519475,7.94840046 C3.67762183,7.79567254 4.06283281,7.65945574 4.46033777,7.53149451 C4.69392316,8.34053972 5.00127235,9.18260717 5.38238535,10.0453135 C5.00537034,10.9038921 4.70211914,11.7418318 4.47263174,12.5467492 C4.0669308,12.418788 3.68171981,12.2784434 3.32519475,12.1257155 Z M5.58581918,17.9175316 C5.03042267,17.5968426 4.7894786,16.3757578 4.9773333,14.8052043 C5.02225508,14.418733 5.09576344,14.0117048 5.18560699,13.5964537 C5.98603137,13.7938007 6.85996412,13.9459224 7.77881864,14.0445959 C8.33013135,14.8052043 8.90186306,15.4959189 9.47767856,16.1002942 C8.14636045,17.3460474 6.8967183,18.0285393 6.04728834,18.0285393 C5.86351744,18.0244279 5.70833312,17.9874253 5.58581918,17.9175316 Z M15.2622994,14.796209 C15.454292,16.3711454 15.217365,17.5956379 14.6658969,17.9213446 C14.5433484,17.9955563 14.3840354,18.0285393 14.1961278,18.0285393 C13.3505433,18.0285393 12.096464,17.3482657 10.7647707,16.1072817 C11.3366635,15.5012198 11.9085564,14.8127004 12.4518546,14.0499694 C13.375053,13.9510205 14.2492321,13.7984743 15.0498821,13.5964537 C15.1438359,14.0128636 15.217365,14.412782 15.2622994,14.796209 Z M15.7689798,7.53149451 C16.1743072,7.65945574 16.5591635,7.79980032 16.9194544,7.95252824 C18.3688068,8.57582327 19.3063822,9.39312404 19.3063822,10.0411858 C19.302288,10.6892475 18.3647126,11.510676 16.9153602,12.1298433 C16.5632577,12.2825712 16.1784014,12.418788 15.7812625,12.5467492 C15.5478922,11.737704 15.240826,10.8956366 14.8600639,10.0329302 C15.2367318,9.17435161 15.5397037,8.33641193 15.7689798,7.53149451 Z M10.0627204,8.11466366 C11.0966715,8.11466366 11.9348545,8.95016358 11.9348545,9.98080495 C11.9348545,11.0114463 11.0966715,11.8469462 10.0627204,11.8469462 C9.02876936,11.8469462 8.19058641,11.0114463 8.19058641,9.98080495 C8.19058641,8.95016358 9.02876936,8.11466366 10.0627204,8.11466366 Z" id="Shape" fill="#FF632D" fill-rule="nonzero"></path>
                    <path d="M28.6300351,10.5193617 C28.6583644,10.5572874 28.6725289,10.5999531 28.6725289,10.6473602 C28.6725289,10.8654328 28.4458979,11.0313551 27.9926291,11.1451321 C27.4921448,10.756394 26.8689096,10.1590737 26.1229048,9.3531533 C25.2919121,8.45241873 24.6733983,7.82665463 24.2673451,7.47584222 C24.2390158,7.72235905 24.1870795,8.3670857 24.1115347,9.41004152 C24.0643192,10.1969991 23.9793326,10.8227632 23.8565723,11.2873526 C23.8376861,11.2873526 23.7786676,11.3110558 23.6795151,11.3584629 C23.5803625,11.40587 23.4977367,11.4200919 23.431635,11.401129 C23.0161386,11.3063149 22.8083935,11.017136 22.8083935,10.5335838 C22.8083935,10.3913625 22.8272794,10.201737 22.8650518,9.96470161 C22.9028242,9.68974053 22.9264316,9.5190776 22.9358747,9.45270768 C22.9736471,8.90278552 22.9972545,8.24857759 23.0066976,7.49006427 L23.0066976,5.93986042 C23.0066976,4.65038777 23.0775198,3.56478187 23.2191663,2.68301013 C23.3135973,2.0951623 23.8660103,1.82494599 24.8764219,1.87235307 C25.3863493,1.8913159 25.8301683,2.14731031 26.2078923,2.64034397 C26.5572869,3.09545196 26.7319817,3.58847823 26.7319817,4.11943755 C26.7319817,4.56506413 26.5667299,5.01068402 26.2362214,5.4563106 C25.9529284,5.85453009 25.603539,6.16741214 25.1880426,6.39496614 C25.0180669,6.4897803 24.9330802,6.59407432 24.9330802,6.70785132 C24.9330802,6.83110974 25.0322313,6.97806949 25.2305364,7.14873498 L25.6838029,7.51850838 C25.693246,7.5279898 26.2126086,8.00205351 27.2419065,8.94071375 C27.8934803,9.52856157 28.3561852,10.0547723 28.6300351,10.5193617 Z M25.6413091,4.1336596 C25.6696384,3.96299411 25.6790814,3.81129372 25.6696383,3.67855389 C25.641309,3.47944414 25.5586831,3.29929993 25.4217582,3.13811585 C25.2848332,2.97693177 25.0652845,2.89634093 24.7631053,2.89634093 C24.5364709,2.89634093 24.3948266,2.96745049 24.338168,3.10967174 C24.2909525,3.34670715 24.2673451,3.61692347 24.2673451,3.9203288 C24.2673451,4.04358721 24.2815095,4.3612099 24.3098388,4.8732064 C24.328725,5.26194447 24.328725,5.57956716 24.3098388,5.82608399 C25.093616,5.23823617 25.5374351,4.67410035 25.6413091,4.1336596 Z M32.8510242,5.0395632 C32.5537287,5.15935615 32.115827,5.2991125 31.537306,5.45883644 C30.958785,5.61856037 30.5208833,5.75831672 30.2235878,5.87810967 C30.1512727,6.08575079 30.0990459,6.54894326 30.0669058,7.26770098 C30.195466,7.31561816 30.3441116,7.33957639 30.5128469,7.33957639 C30.6333721,7.33957639 30.8221921,7.3196112 31.0793125,7.27968021 C31.336433,7.23974923 31.5252529,7.21978404 31.6457782,7.21978404 C31.8707585,7.21978404 32.063596,7.2677005 32.2242963,7.36353486 C32.3367865,7.5232588 32.3930307,7.6270778 32.3930307,7.67499498 C32.3930307,7.73089836 32.3649086,7.77482178 32.3086635,7.80676657 C32.2925935,7.81475277 32.2363492,7.8706553 32.139929,7.97447586 C32.0756489,8.04635164 31.9953,8.07829594 31.8988798,8.07030975 C31.7301445,8.11024073 31.4208011,8.13419896 30.9708404,8.14218516 C30.5931947,8.15017136 30.2918862,8.19808782 30.0669058,8.28593598 C29.9142406,8.87691455 29.8379091,9.34410006 29.8379091,9.68750652 C29.8379091,9.91910623 29.8700486,10.102786 29.9343288,10.2385513 C30.3119744,10.5020958 30.9668182,10.6139009 31.8988798,10.5739699 C31.9631599,10.5739699 32.0314565,10.5440222 32.1037717,10.4841257 C32.1760868,10.4242292 32.2363485,10.3942814 32.2845586,10.3942814 C32.5095389,10.3463642 32.6581845,10.5140718 32.7304996,10.8974093 C32.7546046,11.0251884 32.7325087,11.1429831 32.6642111,11.2507967 C32.5959134,11.3586104 32.497486,11.4165095 32.3689258,11.4244957 C31.3966891,11.4564404 30.5530253,11.3805727 29.8379091,11.1968902 C29.6129287,11.1409868 29.4080389,11.0172026 29.2232336,10.8255339 C29.0384283,10.6338652 28.9339747,10.4182411 28.9098696,10.1786552 C28.8375545,9.48385605 28.8375545,8.86094204 28.9098696,8.30989445 C28.6848892,8.15815671 28.5844531,8.01041429 28.6085581,7.86666275 C28.6165931,7.79478697 28.6788635,7.72890184 28.7953712,7.66900536 C28.9118789,7.60910889 28.9781668,7.54721679 28.9942368,7.48332721 C29.0103069,7.41943764 29.0424464,7.04009898 29.0906565,6.34529985 C28.6406957,6.25745169 28.4197362,6.08974407 28.4277712,5.84217197 C28.4358062,5.61057226 28.5764168,5.42689249 28.8496073,5.29112714 L29.6209648,4.97966702 C29.9262953,4.82792928 30.3039353,4.69216597 30.7538961,4.57237302 C31.1395767,4.46855246 31.5292691,4.3687265 31.9229847,4.27289213 C31.9631598,4.26490594 32.0113692,4.2609129 32.0676143,4.2609129 C32.2845596,4.2609129 32.5376588,4.34476671 32.8269193,4.51247684 C32.8349543,4.54442163 32.8550415,4.60431721 32.8871816,4.69216537 C32.9193216,4.78001354 32.9353914,4.84390215 32.9353914,4.88383314 C32.9353914,4.94772271 32.9072693,4.99963221 32.8510242,5.0395632 Z M37.5709532,8.03529352 C37.6191632,8.16307267 37.6432679,8.27487775 37.6432679,8.37071211 C37.6432679,8.53043605 37.5749713,8.6701924 37.4383761,8.78998535 C37.3017809,8.9097783 37.2093796,8.96568084 37.1611695,8.95769464 C36.7674538,8.88581887 36.5183721,8.57036883 36.413917,8.01133505 C36.3014268,7.40438409 36.168851,6.8972682 36.0161858,6.48997216 L35.1966184,6.56184757 C34.8832529,6.60177855 34.6381887,6.69761148 34.4614184,6.84934922 C34.3730332,7.09692132 34.2565272,7.53615556 34.111897,8.16706511 C33.9753018,8.75005748 33.842726,9.19328476 33.7141658,9.49676024 C33.6498857,9.64051178 33.5132925,9.68044216 33.3043821,9.61655259 C33.0392267,9.52870442 32.8986161,9.40891327 32.882546,9.25717553 C32.858441,8.95370005 32.9468248,8.54641012 33.1477002,8.03529352 C33.3887506,7.45230115 33.5213263,7.03702514 33.5454314,6.78945304 C33.5534664,6.71757727 33.5012396,6.6377165 33.3887494,6.54986833 C33.2762592,6.46202017 33.2200149,6.39413851 33.2200149,6.34622133 C33.2200149,6.30629035 33.2380934,6.26436344 33.274251,6.22043936 C33.3104086,6.17651528 33.3947749,6.14057793 33.5273527,6.11262624 C33.6599304,6.08467455 33.7342532,6.04274765 33.7503232,5.98684427 C33.8949534,5.58753443 34.1239479,4.84482926 34.4373134,3.75870649 C34.7024689,2.81633527 34.9394982,2.09359529 35.1484086,1.59046489 C35.1966187,1.47865814 35.2970549,1.4227556 35.4497201,1.4227556 C35.5622103,1.4227556 35.6626465,1.45869294 35.7510316,1.53056871 C35.976012,1.72223744 36.1206401,2.00973621 36.1849202,2.39307366 C36.2331303,2.72050773 36.2773222,3.04793689 36.3174973,3.37537096 C36.719248,5.26011342 37.1370624,6.8134054 37.5709532,8.03529352 Z M35.8112939,5.74725956 C35.7871889,5.45177028 35.7349621,5.12034808 35.6546119,4.75298303 C35.5742618,4.43353515 35.4979303,4.11409207 35.4256152,3.7946442 C35.1845648,4.45749854 34.9756576,5.12034293 34.7988872,5.78319727 C34.9274475,5.75923868 35.264913,5.74725956 35.8112939,5.74725956 Z M47.8034921,2.57460515 C47.9159823,2.57460515 48.0164185,2.6105425 48.1048037,2.68241827 C48.329784,2.87408699 48.4744121,3.16158577 48.5386922,3.54492322 C48.5869023,3.87235729 48.6310942,4.19978645 48.6712693,4.52722052 C49.07302,6.41196297 49.4908344,7.96525496 49.9247252,9.18714308 C49.9729353,9.31492222 49.99704,9.4267273 49.99704,9.52256167 C49.99704,9.6822856 49.9287434,9.82204195 49.7921481,9.9418349 C49.6555529,10.0616279 49.5631516,10.1175304 49.5149415,10.1095442 C49.1212259,10.0376684 48.8721442,9.72221838 48.767689,9.1631846 C48.6551988,8.55623364 48.5226231,8.04911775 48.3699578,7.64182171 L47.5503905,7.71369712 C47.2370249,7.75362811 46.9919607,7.84946103 46.8151904,8.00119877 C46.7268052,8.24877088 46.6102993,8.68800511 46.465669,9.31891466 C46.3290738,9.90190703 46.1964981,10.3451343 46.0679378,10.6486098 C46.0036577,10.7923613 45.8670645,10.8322917 45.6581542,10.7684021 C45.3929987,10.680554 45.2523881,10.5607628 45.2363181,10.4090251 C45.212213,10.1055496 45.3005968,9.69825967 45.5014722,9.18714308 C45.7425226,8.60415071 45.8750983,8.1888747 45.8992034,7.9413026 C45.9072384,7.86942682 45.8550116,7.78956605 45.7425214,7.70171789 C45.6300312,7.61386972 45.5737869,7.54598807 45.5737869,7.49807089 C45.5737869,7.4581399 45.5918655,7.416213 45.628023,7.37228892 C45.6641806,7.32836483 45.748547,7.29242749 45.8811247,7.2644758 C46.0137024,7.23652411 46.0880252,7.1945972 46.1040952,7.13869383 C46.1961695,6.88448576 46.3224352,6.49110532 46.4828941,5.95854678 C45.9439725,6.07818327 45.0995934,6.23102674 43.9513403,6.41533231 C43.7906401,8.40389532 43.7102911,10.0610063 43.7102911,11.386715 C43.7102911,11.8898454 43.718326,12.3849822 43.7343961,12.8721402 C43.7424311,13.0238779 43.7343962,13.139676 43.7102911,13.219538 C43.6701161,13.3473171 43.5897671,13.4072127 43.4692419,13.3992265 C43.2362265,13.3912403 43.0433891,13.2934109 42.8907238,13.1057353 C42.7380586,12.9180596 42.6536922,12.7084251 42.6376221,12.4768254 C42.6215521,12.1813361 42.6135172,11.8698791 42.6135172,11.542445 C42.6135172,11.0153561 42.6496742,10.180811 42.7219894,9.03878485 C42.7943045,7.94467588 42.8264441,7.11013083 42.8184091,6.53512466 C42.6014637,6.51915227 42.3001552,6.53911746 41.9144745,6.59502084 C41.4725488,6.65891041 41.1672228,6.69085472 40.9984875,6.69085472 C40.6047718,6.69085472 40.2833761,6.58703572 40.0342907,6.3793946 C39.9378705,6.17175348 39.8896611,6.06394144 39.8896611,6.05595525 C39.8896611,6.00005187 39.9177833,5.94015629 39.9740284,5.87626671 C40.2311488,5.78841855 40.7574343,5.70855778 41.5529007,5.63668201 C42.2519469,5.56480624 42.774215,5.437029 43.1197206,5.25334648 C43.400946,5.34119464 43.7223418,5.38511806 44.0839174,5.38511806 C44.445493,5.38511806 44.7909934,5.34119464 45.120429,5.25334648 C45.2168492,5.24536028 45.4619134,5.18945774 45.8556291,5.08563718 C46.1448896,5.01376141 46.3859364,4.98980318 46.5787767,5.01376177 C46.6621113,5.01376177 46.7174359,5.03364683 46.7447509,5.07341729 L46.7910855,4.91055605 L46.7910855,4.91055605 C47.0562409,3.96818482 47.2932703,3.24544485 47.5021806,2.74231445 C47.5503907,2.63050769 47.6508269,2.57460515 47.8034921,2.57460515 Z M40.4922842,2.762587 C40.7172646,2.762587 40.9221543,2.83046865 41.1069597,2.966234 C41.1632048,3.00616498 41.1913269,3.09401183 41.1913269,3.22977718 C41.1913269,3.44540449 41.0466988,3.5811678 40.7574383,3.63707118 C40.3797927,3.70894695 40.1467807,3.79280076 40.0583956,3.88863512 C39.158474,4.83100635 38.70852,6.0488831 38.70852,7.54230191 C38.70852,8.24508723 38.8210085,8.90793163 39.0459889,9.53085498 C39.2307942,10.0419716 39.36337,10.3773868 39.4437201,10.5371108 C39.6445955,10.9284344 39.8896597,11.2079471 40.1789202,11.3756572 C40.2994454,11.4315606 40.4199688,11.4834701 40.540494,11.5313873 C40.6690542,11.6032631 40.7333334,11.703089 40.7333334,11.8308682 C40.7333334,11.9586473 40.6911502,12.0744454 40.6067825,12.178266 C40.5224149,12.2820866 40.4320224,12.3220169 40.3356022,12.2980584 C40.231147,12.282086 40.0704491,12.2301765 39.8535038,12.1423283 C39.4678231,11.9187148 39.0500086,11.4435432 38.6000479,10.7167993 C38.4875577,10.5331168 38.3730604,10.3434474 38.2565527,10.1477856 C38.140045,9.95212378 38.0536699,9.76644749 37.9974248,9.59075116 C37.9572498,9.46297201 37.8889532,8.94787004 37.792533,8.0454298 C37.760393,7.76591291 37.7443232,7.49438629 37.7443232,7.23084179 C37.7443232,5.81728495 38.1581202,4.61538035 38.9857266,3.62509194 C39.4678274,3.05008577 39.9700083,2.762587 40.4922842,2.762587 Z M48.165066,6.89910912 C48.1409609,6.60361984 48.0887341,6.27219764 48.008384,5.90483258 C47.9280338,5.58538471 47.8517023,5.26594163 47.7793872,4.94649375 C47.5383368,5.60934809 47.3294296,6.27219249 47.1526593,6.93504683 C47.2812195,6.91108823 47.618685,6.89910912 48.165066,6.89910912 Z M56.0853867,2.52945265 C56.0130716,2.81695573 55.8764784,2.98466335 55.6756031,3.03258053 C55.1533272,3.16035968 54.2453842,3.3280673 52.951747,3.53570842 C52.7910467,5.52427143 52.7106978,7.18138242 52.7106978,8.5070911 C52.7106978,9.0102215 52.7187327,9.50535828 52.7348027,9.99251628 C52.7428377,10.144254 52.7348028,10.2600521 52.7106978,10.3399141 C52.6705227,10.4676933 52.5901738,10.5275888 52.4696486,10.5196026 C52.2366332,10.5116164 52.0437957,10.413787 51.8911305,10.2261114 C51.7384652,10.0384357 51.6540988,9.82880123 51.6380288,9.59720152 C51.6219588,9.30171223 51.6139239,8.99025523 51.6139239,8.66282116 C51.6139239,8.13573217 51.6500809,7.30118711 51.722396,6.15916097 C51.7947112,5.065052 51.8268507,4.23050695 51.8188157,3.65550077 C51.6018703,3.63952838 51.3005618,3.65949357 50.9148812,3.71539695 C50.4729554,3.77928652 50.1676295,3.81123083 49.9988942,3.81123083 C49.6051785,3.81123083 49.2837828,3.70741183 49.0346973,3.49977071 C48.9382772,3.2921296 48.8900678,3.18431755 48.8900678,3.17633136 C48.8900678,3.12042798 48.9181899,3.0605324 48.974435,2.99664283 C49.2315555,2.90879466 49.757841,2.82893389 50.5533074,2.75705812 C51.2523536,2.68518235 51.7746216,2.55740512 52.1201272,2.37372259 C52.4013527,2.46157075 52.7227485,2.50549418 53.0843241,2.50549418 C53.4458997,2.50549418 53.7914001,2.46157075 54.1208357,2.37372259 C54.2172558,2.36573639 54.4623201,2.30983385 54.8560358,2.20601329 C55.1452963,2.13413752 55.3863431,2.11017929 55.5791834,2.13413788 C55.7238137,2.13413788 55.7840754,2.19403346 55.7599703,2.31382641 C55.9769157,2.31382641 56.0853867,2.3857011 56.0853867,2.52945265 Z M58.8240766,4.44797327 C58.8080066,5.15874479 58.6915006,6.28478165 58.4745553,7.82611764 C58.2736799,9.28759166 58.1732437,10.4096355 58.1732437,11.1922828 C58.1732437,11.4398549 58.1812786,11.6754442 58.1973487,11.8990577 C58.1973487,11.954961 58.173244,12.0088671 58.1250339,12.0607773 C58.0768238,12.1126876 58.0205796,12.1386424 57.9562995,12.1386424 C57.7313191,12.1386424 57.5826735,12.1186772 57.5103584,12.0787462 C57.2050279,11.9030499 57.0523649,11.5716277 57.0523649,11.0844697 C57.0523649,10.9886353 57.0583911,10.8388964 57.0704436,10.6352483 C57.0824961,10.4316003 57.0885223,10.2818614 57.0885223,10.186027 C57.0885223,10.0263031 57.1086095,9.78272772 57.1487846,9.45529365 C57.1889597,9.12785958 57.2090469,8.87629815 57.2090469,8.70060182 C57.0965567,8.70858802 56.941885,8.69261587 56.7450272,8.65268488 C56.5481693,8.6127539 56.40555,8.5927887 56.3171648,8.5927887 C56.2127097,8.5927887 56.1122735,8.60876086 56.0158533,8.64070565 C55.823013,9.2716152 55.7105245,10.2019932 55.6783844,11.4318675 C55.405194,11.5436742 55.1400425,11.5316951 54.882922,11.3959298 C54.6981167,11.3000954 54.6057154,11.1084296 54.6057154,10.8209265 C54.6057154,10.7570369 54.6117416,10.6711866 54.6237941,10.5633729 C54.6358466,10.4555593 54.6418728,10.3896741 54.6418728,10.3657155 C54.6659779,9.93446091 54.7583791,9.07995067 54.9190794,7.80215917 C55.0556746,6.73200879 55.1199538,5.88149159 55.1119188,5.25058204 C55.1119188,5.16273387 55.1741892,5.10683133 55.2987319,5.08287274 C55.4232746,5.05891415 55.4935799,5.03495592 55.50965,5.01099733 C55.5578601,5.06690071 55.674366,5.11481717 55.8591713,5.15474815 C56.0118366,5.18669294 56.1042379,5.25856763 56.1363779,5.37037439 C56.200658,5.57002931 56.2327976,5.79363947 56.2327976,6.04121157 C56.2327976,6.2169079 56.2066842,6.49442408 56.1544566,6.87376843 C56.102229,7.25311278 56.0761156,7.54260807 56.0761156,7.74226299 C56.1725358,7.81413877 56.2930592,7.85806219 56.4376894,7.87403458 C56.5341096,7.89000698 56.6707028,7.89400001 56.8474731,7.88601382 C57.0804885,7.87004142 57.2210991,7.86205535 57.2693092,7.86205535 C57.4701846,7.02350468 57.6469522,5.9373982 57.7996175,4.60370333 C57.8317575,4.32418644 57.9321937,4.18443009 58.100929,4.18443009 C58.5267847,4.1444991 58.7678315,4.23234595 58.8240766,4.44797327 Z M63.8091597,7.17463153 C63.3350939,8.23679571 62.6641803,8.8676958 61.7963988,9.06735072 C61.6919436,9.09130931 61.58749,9.10328843 61.4830348,9.10328843 C61.025039,9.10328843 60.5630327,8.85572004 60.0970019,8.36057583 C59.7836363,8.02515557 59.6269559,7.58991437 59.6269559,7.05483918 C59.6269559,6.46386061 59.8037236,5.82896749 60.1572642,5.15014076 C60.3099294,4.86263767 60.494732,4.61506928 60.7116774,4.40742816 C60.9607628,4.15985606 61.1977921,4.03607187 61.4227725,4.03607187 C61.5513327,4.03607187 61.6718561,4.08398833 61.7843463,4.17982269 C61.8968365,4.27565705 62.198145,4.40343429 62.6882809,4.56315822 C63.0739615,4.69093737 63.3471479,4.90656145 63.5078482,5.21003693 C63.7890737,5.74511212 63.9296843,6.20431155 63.9296843,6.587649 C63.9296843,6.80327631 63.8895098,6.9989352 63.8091597,7.17463153 Z M62.8449629,6.43191894 C62.7887178,5.84892657 62.6320374,5.50153222 62.3749169,5.38972546 C62.3347418,5.37375307 62.2985848,5.36576699 62.2664448,5.36576699 C62.1700246,5.36576699 62.0495012,5.44562776 61.9048709,5.6053517 C61.7441707,5.78903423 61.6196298,5.89684627 61.5312447,5.92879105 C61.4749996,5.95274964 61.3946506,5.92879141 61.2901955,5.85691564 C61.1857403,5.78503987 61.1174437,5.74910252 61.0853036,5.74910252 C61.0611986,5.74910252 61.0411114,5.7570886 61.0250413,5.77306099 C60.7438158,6.0126469 60.6032052,6.38399948 60.6032052,6.88712988 C60.6032052,7.23053635 60.6835541,7.52202816 60.8442544,7.76161407 C61.0692348,8.08904814 61.2580548,8.25276272 61.4107201,8.25276272 C61.7642607,8.25276272 62.1057436,8.0331456 62.4351792,7.59390477 C62.7485448,7.17862253 62.8851379,6.7912978 62.8449629,6.43191894 Z M69.5656003,1.12051027 C69.4531101,2.19066065 69.344639,3.26478801 69.2401838,4.34292459 C69.1035886,5.62071608 69.035292,6.68685737 69.035292,7.54138043 C69.035292,7.82089732 69.0433269,8.09641698 69.0593969,8.36794767 C69.0674319,8.49572682 69.0212313,8.6075319 68.9207936,8.70336626 C68.820356,8.79920062 68.7058587,8.84711709 68.5772985,8.84711709 C68.3282131,8.84711709 68.1193059,8.67940947 67.9505706,8.3439892 C67.4363297,7.3457146 66.7975557,5.78044349 66.0342293,3.64812894 C66.0181593,3.60021175 65.9980721,3.57625352 65.973967,3.57625352 C65.9177219,3.57625352 65.8815649,3.63215606 65.8654949,3.74396282 C65.7288997,4.88598897 65.6606031,6.08789356 65.6606031,7.34971267 C65.6606031,7.95666363 65.6766729,8.5755846 65.7088129,9.20649415 C65.7168479,9.43809386 65.6485513,9.5978154 65.5039211,9.68566356 C65.447676,9.74156694 65.3874143,9.76951821 65.3231342,9.76951821 C65.2668891,9.76951821 65.194575,9.74555998 65.1061899,9.6976428 C64.9856647,9.64173942 64.9093332,9.60580207 64.8771931,9.58982968 C64.772738,9.55788489 64.7084588,9.46205197 64.6843538,9.30232803 C64.6763188,9.17454888 64.6682839,9.04277861 64.6602488,8.90701326 C64.6361438,8.45978624 64.6240915,7.99260073 64.6240915,7.50544272 C64.6240915,6.65890586 64.6723008,5.60075065 64.768721,4.33094535 C64.9213863,2.39828572 65.0057526,1.32815139 65.0218227,1.12051027 C65.0298577,0.944813942 65.1785032,0.856967094 65.4677637,0.856967094 C65.6043589,0.840994701 65.8052313,0.940820664 66.0703867,1.15644798 C66.3275072,1.64360599 66.6448855,2.43422761 67.0225311,3.52833658 C67.3841067,4.57452837 67.7135374,5.36914304 68.0108329,5.91220442 C68.1313581,4.85004024 68.3201781,3.24483875 68.5772985,1.0965518 C68.6014036,0.936827865 68.7179095,0.856967094 68.9268199,0.856967094 C68.999135,0.856967094 69.0835014,0.86894621 69.1799215,0.892904801 C69.3084818,0.924849588 69.3848132,0.944814781 69.4089183,0.952800977 C69.4892684,0.984745765 69.5414952,1.0406483 69.5656003,1.12051027 Z" id="Reactathon" fill="#FFFFFF"></path>
                    <text id="CONFERENCE" font-family="InterUI-Black, Inter UI" font-size="3.12542539" font-weight="700" line-spacing="4.6789993" letter-spacing="2.92612264" fill="#FFFFFF">
                        <tspan x="23" y="17">CONFERENC</tspan>
                        <tspan x="68.975561" y="17" letter-spacing="-0.459754895">E</tspan>
                    </text>
                </g>
            </g>
        </g>
    </g>
</svg>