<?xml version="1.0" encoding="UTF-8"?>
<svg width="264px" height="59px" viewBox="0 0 264 59" version="1.1" xmlns="http://www.w3.org/2000/svg" xmlns:xlink="http://www.w3.org/1999/xlink">
    <!-- Generator: Sketch 61.2 (89653) - https://sketch.com -->
    <title>serverless itp logo</title>
    <desc>Created with Sketch.</desc>
    <g id="Home-Page" stroke="none" stroke-width="1" fill="none" fill-rule="evenodd">
        <g id="landing-2020-v5.0-copy-2" transform="translate(-709.000000, -282.000000)" fill-rule="nonzero">
            <g id="Group-12" transform="translate(693.000000, 243.000000)">
                <g id="serverless-itp-logo" transform="translate(16.000000, 39.000000)">
                    <rect id="Rectangle" fill="#F9F8E2" transform="translate(132.001320, 29.436000) rotate(90.000000) translate(-132.001320, -29.436000) " x="102.56532" y="-102.38844" width="58.872" height="263.64888" rx="7.87776"></rect>
                    <path d="M8.052,3.87288 L92.72208,3.87288 L92.72208,14.0712 L4.11312,14.0712 L4.11312,7.81176 C4.11312,5.63637664 5.87661664,3.87288 8.052,3.87288 Z" id="Path" fill="#ECC1AC"></path>
                    <rect id="Rectangle" fill="#DA8288" x="4.11312" y="14.0712" width="88.60896" height="10.19832"></rect>
                    <rect id="Rectangle" fill="#95ABC1" x="4.11312" y="24.27216" width="88.60896" height="10.19832"></rect>
                    <rect id="Rectangle" fill="#886C8C" x="4.11312" y="34.23816" width="88.60632" height="10.19832"></rect>
                    <polygon id="Path" fill="#2F2747" points="105.3888 45.29448 105.3888 37.37448 107.1972 37.37448 107.1972 45.29448"></polygon>
                    <polygon id="Path" fill="#2F2747" points="118.33536 37.37712 118.33536 45.29712 116.75136 45.29712 111.07536 39.5736 111.07536 45.29712 109.3224 45.29712 109.3224 37.37712 111.24696 37.37712 116.5824 42.80496 116.5824 37.37712"></polygon>
                    <polygon id="Path" fill="#2F2747" points="131.0892 38.93736 127.6308 38.93736 127.6308 45.29448 125.81976 45.29448 125.81976 38.93736 122.38776 38.93736 122.38776 37.37712 131.09976 37.37712"></polygon>
                    <polygon id="Path" fill="#2F2747" points="141.3456 37.37712 141.3456 45.29712 139.5372 45.29712 139.5372 42.07104 134.14368 42.07104 134.14368 45.29448 132.33264 45.29448 132.33264 37.37448 134.14368 37.37448 134.14368 40.4844 139.5372 40.4844 139.5372 37.37712"></polygon>
                    <polygon id="Path" fill="#2F2747" points="151.62312 43.77912 151.62312 45.29448 143.4708 45.29448 143.4708 37.37448 151.5096 37.37448 151.5096 38.88984 145.26864 38.88984 145.26864 40.51872 150.48 40.51872 150.48 42.03408 145.26864 42.03408 145.26864 43.77648"></polygon>
                    <path d="M165.12408,40.05672 C165.12408,41.80968 163.76712,42.73896 161.73168,42.73896 L158.136,42.73896 L158.136,45.29448 L156.3276,45.29448 L156.3276,37.37448 L161.74224,37.37448 C163.76712,37.37712 165.12408,38.32752 165.12408,40.05672 Z M163.27608,40.06992 C163.27608,39.1644 162.5976,38.89248 161.57856,38.89248 L158.136,38.89248 L158.136,41.24472 L161.5944,41.24472 C162.60288,41.24472 163.28136,40.9728 163.28136,40.06992 L163.27608,40.06992 Z" id="Shape" fill="#2F2747"></path>
                    <path d="M172.1676,43.62072 L167.376,43.62072 L166.52592,45.29448 L164.604,45.29448 L168.79896,37.37448 L170.77896,37.37448 L174.97392,45.29448 L173.01768,45.29448 L172.1676,43.62072 Z M171.40992,42.15024 L169.77048,38.9268 L168.13104,42.15024 L171.40992,42.15024 Z" id="Shape" fill="#2F2747"></path>
                    <path d="M182.9784,45.29448 L180.70536,42.60168 L177.8436,42.60168 L177.8436,45.29448 L176.0484,45.29448 L176.0484,37.37448 L181.50792,37.37448 C183.44304,37.37448 184.90032,38.26944 184.90032,39.98808 C184.90032,41.33184 184.008,42.16872 182.69592,42.47496 L185.13792,45.29184 L182.9784,45.29448 Z M181.3944,41.11008 C182.34216,41.11008 183.0444,40.88304 183.0444,40.00128 C183.0444,39.11952 182.34216,38.89248 181.3944,38.89248 L177.83304,38.89248 L177.83304,41.11008 L181.3944,41.11008 Z" id="Shape" fill="#2F2747"></path>
                    <polygon id="Path" fill="#2F2747" points="193.512 45.29448 190.45752 41.57208 188.3904 43.32504 188.3904 45.29448 186.57936 45.29448 186.57936 37.37448 188.3904 37.37448 188.3904 41.38992 193.09224 37.37448 195.46824 37.37448 191.77224 40.49496 195.67416 45.29184"></polygon>
                    <rect id="Rectangle" fill="#DA8288" x="199.80576" y="37.27416" width="8.01768" height="8.01768"></rect>
                    <rect id="Rectangle" fill="#DA8288" x="211.51152" y="37.27416" width="6.87984" height="8.01768"></rect>
                    <rect id="Rectangle" fill="#886C8C" x="222.07944" y="37.27416" width="5.742" height="8.01768"></rect>
                    <rect id="Rectangle" fill="#886C8C" x="231.50952" y="37.27416" width="4.6068" height="8.01768"></rect>
                    <rect id="Rectangle" fill="#95ABC1" x="239.80176" y="37.27416" width="3.46896" height="8.01768"></rect>
                    <rect id="Rectangle" fill="#95ABC1" x="246.9588" y="37.27416" width="2.33112" height="8.01768"></rect>
                    <circle id="Oval" fill="#F9F8E2" cx="30.15144" cy="14.0712" r="5.36184"></circle>
                    <path d="M255.948,2.95416 L8.052,2.95416 C5.33440422,2.95561481 3.13131236,5.15752539 3.1284,7.87512 L3.1284,50.99424 C3.1284,53.7128656 5.33337435,55.9163835 8.052,55.91784 L255.948,55.91784 C258.665595,55.9149276 260.86896,53.7118358 260.86896,50.99424 L260.86896,7.87512 C260.86605,5.15855515 258.664565,2.95707009 255.948,2.95416 Z M91.74,53.9484 L8.052,53.9484 C6.42046248,53.9484 5.09784,52.6257775 5.09784,50.99424 L5.09784,7.87512 C5.09784,7.0918706 5.40916488,6.34073958 5.96325337,5.78714626 C6.51734185,5.23355293 7.26875092,4.92289942 8.052,4.92359882 L89.32704,4.92359882 C90.658223,4.92359882 91.73736,6.00273702 91.73736,7.33392 L91.74,53.9484 Z M258.9048,50.99424 C258.9048,52.6257775 257.582178,53.9484 255.95064,53.9484 L96.11712,53.9484 C94.785937,53.9484 93.7068,52.869263 93.7068,51.53808 L93.7068,7.33392 C93.7068,6.00273702 94.785937,4.92359882 96.11712,4.92359882 L255.948,4.92359882 C256.731249,4.92289942 257.482658,5.23355293 258.036747,5.78714626 C258.590835,6.34073958 258.90216,7.0918706 258.90216,7.87512 L258.9048,50.99424 Z" id="Shape" fill="#2F2747"></path>
                    <path d="M4.11312,43.84776 L92.72208,43.84776 L92.72208,54.04608 L8.052,54.04608 C5.87661664,54.04608 4.11312,52.2825834 4.11312,50.1072 L4.11312,43.84776 Z" id="Path" fill="#2F2747"></path>
                    <path d="M30.1752,40.59264 C29.46064,42.33152 28.74608,44.07216 28.03152,45.81456 L4.11312,45.81456 L4.11312,38.92944 C5.23034787,39.2775231 6.38890136,39.4754982 7.55832,39.51816 C10.72632,39.63168 12.57432,38.5176 15.06912,37.9104 C18.30048,37.12368 23.19504,37.04184 30.1752,40.59264 Z" id="Path" fill="#2F2747"></path>
                    <path d="M93.72,39.51816 L93.72,45.81456 L74.14176,45.81456 C73.4272,44.07392 72.71264,42.33328 71.99808,40.59264 C78.97824,37.04184 83.87808,37.12368 87.10416,37.9104 C88.7436,38.30904 90.10056,38.9268 91.73736,39.27 C92.3896613,39.4108343 93.0531106,39.4938759 93.72,39.51816 Z" id="Path" fill="#2F2747"></path>
                    <polygon id="Path" fill="#F9F8E2" points="48.4968 12.90432 42.35088 23.54616 54.64008 23.54616"></polygon>
                    <polygon id="Path" fill="#F9F8E2" points="48.4968 12.90432 42.35088 23.54616 54.64008 23.54616"></polygon>
                    <polygon id="Path" fill="#F9F8E2" points="54.64008 23.54616 48.4968 34.188 60.786 34.188"></polygon>
                    <polygon id="Path" fill="#F9F8E2" points="54.64008 23.54616 48.4968 34.188 60.786 34.188"></polygon>
                    <polygon id="Path" fill="#F9F8E2" points="54.64008 44.83248 60.786 34.188 48.4968 34.188"></polygon>
                    <polygon id="Path" fill="#F9F8E2" points="54.64008 44.83248 60.786 34.188 48.4968 34.188"></polygon>
                    <polygon id="Path" fill="#F9F8E2" points="66.92928 44.83248 73.0752 34.188 60.786 34.188"></polygon>
                    <polygon id="Path" fill="#F9F8E2" points="66.92928 44.83248 73.0752 34.188 60.786 34.188"></polygon>
                    <polygon id="Path" fill="#F9F8E2" points="48.4968 34.188 54.64008 23.54616 42.35088 23.54616"></polygon>
                    <polygon id="Path" fill="#F9F8E2" points="48.4968 34.188 54.64008 23.54616 42.35088 23.54616"></polygon>
                    <polygon id="Path" fill="#F9F8E2" points="42.35088 44.83248 48.4968 34.188 36.2076 34.188"></polygon>
                    <polygon id="Path" fill="#F9F8E2" points="42.35088 44.83248 48.4968 34.188 36.2076 34.188"></polygon>
                    <polygon id="Path" fill="#F9F8E2" points="30.06168 44.83248 36.2076 34.188 23.9184 34.188"></polygon>
                    <polygon id="Path" fill="#F9F8E2" points="30.06168 44.83248 36.2076 34.188 23.9184 34.188"></polygon>
                    <polygon id="Path" fill="#F9F8E2" points="36.2076 34.188 30.06168 44.83248 42.35088 44.83248"></polygon>
                    <polygon id="Path" fill="#F9F8E2" points="36.2076 34.188 30.06168 44.83248 42.35088 44.83248"></polygon>
                    <polygon id="Path" fill="#F9F8E2" points="60.786 34.188 54.64008 44.83248 66.92928 44.83248"></polygon>
                    <polygon id="Path" fill="#F9F8E2" points="60.786 34.188 54.64008 44.83248 66.92928 44.83248"></polygon>
                    <polygon id="Path" fill="#2F2747" points="48.4968 33.22704 42.35088 43.87152 54.64008 43.87152"></polygon>
                    <polygon id="Path" fill="#2F2747" points="48.4968 33.22704 42.35088 43.87152 54.64008 43.87152"></polygon>
                    <polygon id="Path" fill="#F9F8E2" points="42.35088 23.54616 36.2076 34.188 48.4968 34.188"></polygon>
                    <polygon id="Path" fill="#F9F8E2" points="42.35088 23.54616 36.2076 34.188 48.4968 34.188"></polygon>
                    <polygon id="Path" fill="#F9F8E2" points="23.9184 34.188 17.77248 44.83248 30.06168 44.83248"></polygon>
                    <polygon id="Path" fill="#F9F8E2" points="23.9184 34.188 17.77248 44.83248 30.06168 44.83248"></polygon>
                    <polygon id="Path" fill="#F9F8E2" points="30.06168 23.54616 23.9184 34.188 36.2076 34.188"></polygon>
                    <polygon id="Path" fill="#F9F8E2" points="30.06168 23.54616 23.9184 34.188 36.2076 34.188"></polygon>
                    <polygon id="Path" fill="#F9F8E2" points="73.0752 34.188 79.21848 44.83248 66.92928 44.83248"></polygon>
                    <polygon id="Path" fill="#F9F8E2" points="73.0752 34.188 79.21848 44.83248 66.92928 44.83248"></polygon>
                    <polygon id="Path" fill="#F9F8E2" points="66.92928 23.54616 73.0752 34.188 60.786 34.188"></polygon>
                    <polygon id="Path" fill="#F9F8E2" points="66.92928 23.54616 73.0752 34.188 60.786 34.188"></polygon>
                    <path d="M80.0712,44.352 L73.92,33.69696 L67.782,23.05248 C67.6060778,22.7478774 67.2810347,22.5602456 66.92928,22.5602456 C66.5775253,22.5602456 66.2524822,22.7478774 66.07656,23.05248 L61.11336,31.65096 C61.0453092,31.7680483 60.9201074,31.8400936 60.78468,31.8400936 C60.6492526,31.8400936 60.5240508,31.7680483 60.456,31.65096 L55.4928,23.05248 L49.34952,12.408 C49.1735978,12.1033974 48.8485547,11.9157656 48.4968,11.9157656 C48.1450453,11.9157656 47.8200022,12.1033974 47.64408,12.408 L41.49816,23.05248 L36.53496,31.65096 C36.4669092,31.7680483 36.3417074,31.8400936 36.20628,31.8400936 C36.0708526,31.8400936 35.9456508,31.7680483 35.8776,31.65096 L30.9144,23.05248 C30.7384778,22.7478774 30.4134347,22.5602456 30.06168,22.5602456 C29.7099253,22.5602456 29.3848822,22.7478774 29.20896,23.05248 L23.06568,33.69696 L16.91976,44.352 C16.744538,44.6565803 16.7448936,45.0314517 16.9206931,45.3356991 C17.0964926,45.6399465 17.4210944,45.8277608 17.77248,45.8277608 L42.13176,45.8277608 C42.6193623,45.8282823 43.0702074,45.5686437 43.31448,45.14664 L48.1668,36.74088 C48.2348508,36.6237917 48.3600526,36.5517464 48.49548,36.5517464 C48.6309074,36.5517464 48.7561092,36.6237917 48.82416,36.74088 L53.67912,45.144 C53.9225225,45.5655855 54.3723951,45.8252435 54.8592,45.82512 L79.21848,45.82512 C79.5690518,45.8242851 79.8927441,45.6371304 80.0683724,45.333723 C80.2440007,45.0303157 80.2450776,44.656414 80.0712,44.352 L80.0712,44.352 Z M67.25928,42.306 C67.1912292,42.4230883 67.0660274,42.4951336 66.9306,42.4951336 C66.7951726,42.4951336 66.6699708,42.4230883 66.60192,42.306 L64.70904,39.02976 L62.832,35.74296 C62.7640216,35.6252186 62.764095,35.4801378 62.8321925,35.3624653 C62.9002901,35.2447928 63.0260441,35.1724438 63.162,35.1727192 L70.7256,35.1727192 C70.8610842,35.1733849 70.9859754,35.2461056 71.0534294,35.3636061 C71.1208834,35.4811066 71.1207045,35.6256268 71.05296,35.74296 L69.16272,39.01656 L67.25928,42.306 Z M67.25928,26.0964 L71.03976,32.64888 C71.1079138,32.76583 71.1082391,32.9103175 71.0406125,33.0275732 C70.972986,33.1448288 70.847759,33.2169048 70.7124,33.2164996 L63.1488,33.2164996 C63.0129699,33.2178599 62.8868706,33.1461609 62.8185961,33.0287288 C62.7503216,32.9112966 62.7503995,32.7662388 62.8188,32.64888 L66.60192,26.0832 C66.6699708,25.9661117 66.7951726,25.8940664 66.9306,25.8940664 C67.0660274,25.8940664 67.1912292,25.9661117 67.25928,26.0832 L67.25928,26.0964 Z M44.71368,24.54408 L52.272,24.54408 C52.4071431,24.5443423 52.5319873,24.6163307 52.5999131,24.7331631 C52.6678389,24.8499955 52.6686334,24.9941057 52.602,25.11168 L50.71176,28.38792 L48.81888,31.66416 C48.7508292,31.7812483 48.6256274,31.8532936 48.4902,31.8532936 C48.3547726,31.8532936 48.2295708,31.7812483 48.16152,31.66416 L46.27128,28.38792 L44.38104,25.11168 C44.3052173,24.9932588 44.3014941,24.8425104 44.3713783,24.7204905 C44.4412624,24.5984705 44.5731714,24.5254024 44.71368,24.53088 L44.71368,24.54408 Z M52.41984,29.37264 L54.31272,26.0964 C54.3807708,25.9793117 54.5059726,25.9072664 54.6414,25.9072664 C54.7768274,25.9072664 54.9020292,25.9793117 54.97008,26.0964 L58.75056,32.64888 C58.8187138,32.76583 58.8190391,32.9103175 58.7514125,33.0275732 C58.683786,33.1448288 58.558559,33.2169048 58.4232,33.2164996 L50.8596,33.2164996 C50.7237699,33.2178599 50.5976706,33.1461609 50.5293961,33.0287288 C50.4611216,32.9112966 50.4611995,32.7662388 50.5296,32.64888 L52.41984,29.37264 Z M48.82416,15.44136 L52.60728,21.9912 C52.6757549,22.1097616 52.6751865,22.2559855 52.6057918,22.3740111 C52.5363971,22.4920367 52.4088973,22.5636297 52.272,22.5614888 L44.71368,22.5614888 C44.5774961,22.5624293 44.4513354,22.4899939 44.3835321,22.3718849 C44.3157288,22.2537759 44.3167941,22.1083033 44.38632,21.9912 L48.1668,15.44136 C48.2348508,15.3242717 48.3600526,15.2522264 48.49548,15.2522264 C48.6309074,15.2522264 48.7561092,15.3242717 48.82416,15.44136 L48.82416,15.44136 Z M42.02352,26.0832 C42.0915708,25.9661117 42.2167726,25.8940664 42.3522,25.8940664 C42.4876274,25.8940664 42.6128292,25.9661117 42.68088,26.0832 L44.57112,29.35944 L46.464,32.63568 C46.5321538,32.75263 46.5324791,32.8971175 46.4648525,33.0143732 C46.397226,33.1316288 46.271999,33.2037048 46.13664,33.2032996 L38.5704,33.2032996 C38.4345699,33.2046599 38.3084706,33.1329609 38.2401961,33.0155288 C38.1719216,32.8980966 38.1719995,32.7530388 38.2404,32.63568 L42.02352,26.0832 Z M30.39168,42.2928 C30.3236292,42.4098883 30.1984274,42.4819336 30.063,42.4819336 C29.9275726,42.4819336 29.8023708,42.4098883 29.73432,42.2928 L27.84408,39.01656 L25.9512,35.74296 C25.8832216,35.6252186 25.883295,35.4801378 25.9513925,35.3624653 C26.0194901,35.2447928 26.1452441,35.1724438 26.2812,35.1727192 L33.8448,35.1727192 C33.9802842,35.1733849 34.1051754,35.2461056 34.1726294,35.3636061 C34.2400834,35.4811066 34.2399045,35.6256268 34.17216,35.74296 L32.28192,39.01656 L30.39168,42.2928 Z M30.39168,26.0832 L34.17216,32.63568 C34.2403138,32.75263 34.2406391,32.8971175 34.1730125,33.0143732 C34.105386,33.1316288 33.980159,33.2037048 33.8448,33.2032996 L26.2812,33.2032996 C26.1453699,33.2046599 26.0192706,33.1329609 25.9509961,33.0155288 C25.8827216,32.8980966 25.8827995,32.7530388 25.9512,32.63568 L29.73432,26.0832 C29.8023708,25.9661117 29.9275726,25.8940664 30.063,25.8940664 C30.1984274,25.8940664 30.3236292,25.9661117 30.39168,26.0832 L30.39168,26.0832 Z M23.5884,36.72768 C23.6564508,36.6105917 23.7816526,36.5385464 23.91708,36.5385464 C24.0525074,36.5385464 24.1777092,36.6105917 24.24576,36.72768 L26.136,40.00128 L28.02624,43.27752 C28.0942184,43.3952614 28.094145,43.5403422 28.0260475,43.6580147 C27.9579499,43.7756872 27.8321959,43.8480362 27.69624,43.84776 L20.13528,43.84776 C19.9976854,43.8516787 19.8688639,43.7803971 19.7990964,43.6617374 C19.7293289,43.5430777 19.7296751,43.3958502 19.8,43.27752 L23.5884,36.72768 Z M33.98736,40.00128 L35.8776,36.72768 C35.9456508,36.6105917 36.0708526,36.5385464 36.20628,36.5385464 C36.3417074,36.5385464 36.4669092,36.6105917 36.53496,36.72768 L38.4252,40.00128 L40.31808,43.27752 C40.3860584,43.3952614 40.385985,43.5403422 40.3178875,43.6580147 C40.2497899,43.7756872 40.1240359,43.8480362 39.98808,43.8477608 L32.42448,43.8477608 C32.2889958,43.8470951 32.1641046,43.7743744 32.0966506,43.6568739 C32.0291966,43.5393734 32.0293755,43.3948532 32.09712,43.27752 L33.98736,40.00128 Z M42.68088,42.2928 C42.6128292,42.4098883 42.4876274,42.4819336 42.3522,42.4819336 C42.2167726,42.4819336 42.0915708,42.4098883 42.02352,42.2928 L40.128,39.01656 L38.23776,35.74296 C38.1697816,35.6252186 38.169855,35.4801378 38.2379525,35.3624653 C38.3060501,35.2447928 38.4318041,35.1724438 38.56776,35.1727192 L46.13136,35.1727192 C46.2668442,35.1733849 46.3917354,35.2461056 46.4591894,35.3636061 C46.5266434,35.4811066 46.5264645,35.6256268 46.45872,35.74296 L42.68088,42.2928 Z M58.4232,35.1648 C58.5586842,35.1654649 58.6835754,35.2381856 58.7510294,35.3556861 C58.8184834,35.4731866 58.8183045,35.6177068 58.75056,35.73504 L56.86032,39.00864 L54.97008,42.28488 C54.9020292,42.4019683 54.7768274,42.4740136 54.6414,42.4740136 C54.5059726,42.4740136 54.3807708,42.4019683 54.31272,42.28488 L50.5296,35.74296 C50.4616216,35.6252186 50.461695,35.4801378 50.5297925,35.3624653 C50.5978901,35.2447928 50.7236441,35.1724438 50.8596,35.17272 L58.4232,35.1648 Z M58.56576,39.99336 L60.456,36.71976 C60.5240508,36.6026717 60.6492526,36.5306264 60.78468,36.5306264 C60.9201074,36.5306264 61.0453092,36.6026717 61.11336,36.71976 L63.0036,39.99336 L64.89648,43.2696 C64.9644584,43.3873414 64.964385,43.5324222 64.8962875,43.6500947 C64.8281899,43.7677672 64.7024359,43.8401162 64.56648,43.8398408 L57.00288,43.8398408 C56.8673958,43.8391751 56.7425046,43.7664544 56.6750506,43.6489539 C56.6075966,43.5314534 56.6077755,43.3869332 56.67552,43.2696 L58.56576,39.99336 Z M69.29208,43.83985 C69.1558961,43.8408293 69.0297354,43.7683939 68.9619321,43.6502849 C68.8941288,43.5321759 68.8951941,43.3867033 68.96472,43.2696 L70.85496,39.99336 L72.7452,36.71976 C72.8132508,36.6026717 72.9384526,36.5306264 73.07388,36.5306264 C73.2093074,36.5306264 73.3345092,36.6026717 73.40256,36.71976 L77.18568,43.2696 C77.2536584,43.3873414 77.253585,43.5324222 77.1854875,43.6500947 C77.1173899,43.7677672 76.9916359,43.8401162 76.85568,43.83985 L69.29208,43.83985 Z" id="Shape" fill="#2F2747"></path>
                    <path d="M87.10152,30.49728 L89.62536,39.6 L84.11568,39.6 L86.63952,30.50256 C86.6677842,30.3990624 86.7612476,30.3268514 86.8685281,30.3256095 C86.9758086,30.3243993 87.0708978,30.3944554 87.10152,30.49728 L87.10152,30.49728 Z" id="Path" fill="#2F2747"></path>
                    <path d="M82.16736,27.69624 L85.46736,39.6 L78.408,39.6 L81.708,27.70152 C81.7377705,27.600239 81.8301691,27.530259 81.9357279,27.5290297 C82.0412867,27.5278324 82.1352694,27.59567 82.16736,27.69624 L82.16736,27.69624 Z" id="Path" fill="#2F2747"></path>
                    <path d="M10.60488,31.12032 L7.72992,40.99656 L13.94184,40.99656 L11.06688,31.12032 C11.0374169,31.0171785 10.9431471,30.9460668 10.83588,30.9460668 C10.7286129,30.9460668 10.6343431,31.0171785 10.60488,31.12032 L10.60488,31.12032 Z" id="Path" fill="#2F2747"></path>
                    <path d="M16.16736,28.11072 L12.408,40.99656 L20.37816,40.99656 L16.632,28.11072 C16.6042126,28.0051981 16.5087993,27.9316574 16.39968,27.9316574 C16.2905607,27.9316574 16.1951474,28.0051981 16.16736,28.11072 L16.16736,28.11072 Z" id="Path" fill="#2F2747"></path>
                    <path d="M52.3116,43.8451879 L44.67936,43.8451879 C44.5541852,43.8432862 44.4390036,43.776385 44.3753893,43.6685643 C44.3117751,43.5607435 44.3089145,43.427573 44.36784,43.31712 L48.1668,36.73824 C48.2348508,36.6211517 48.3600526,36.5491064 48.49548,36.5491064 C48.6309074,36.5491064 48.7561092,36.6211517 48.82416,36.73824 L52.62312,43.296 C52.6928884,43.4077463 52.6958561,43.548727 52.6308521,43.6633103 C52.565848,43.7778937 52.4433131,43.8476757 52.3116,43.8451879 L52.3116,43.8451879 Z" id="Path" fill="#F9F8E2"></path>
                    <path d="M116.398737,32.208 C119.021861,32.208 120.333422,30.8937863 120.333422,28.2653589 L120.333422,28.2653589 L120.333422,24.7512658 C120.333422,24.065589 120.243134,23.4989534 120.062556,23.0513589 C119.881979,22.6037644 119.620617,22.2275945 119.278471,21.9228493 C118.936324,21.6181041 118.508641,21.3704986 117.995421,21.1800329 C117.482201,20.9895671 116.892949,20.8086247 116.227664,20.6372055 L116.227664,20.6372055 L110.924393,19.3515616 C110.601255,19.2753753 110.387413,19.1896658 110.282868,19.0944329 C110.178324,18.9992 110.126051,18.8373041 110.126051,18.6087452 L110.126051,18.6087452 L110.126051,16.7517041 C110.126051,16.5421918 110.164068,16.3993425 110.2401,16.3231562 C110.316133,16.2469699 110.458694,16.2088767 110.667783,16.2088767 L110.667783,16.2088767 L114.773541,16.2088767 C114.982631,16.2088767 115.125192,16.2469699 115.201225,16.3231562 C115.277257,16.3993425 115.315273,16.5421918 115.315273,16.7517041 L115.315273,16.7517041 L115.315273,18.5516055 L119.991276,18.5516055 L119.991276,16.151737 C119.991276,14.7994301 119.668137,13.8042466 119.021861,13.1661863 C118.375584,12.528126 117.387161,12.2090959 116.056591,12.2090959 L116.056591,12.2090959 L109.327709,12.2090959 C107.99714,12.2090959 107.008716,12.528126 106.36244,13.1661863 C105.716163,13.8042466 105.393024,14.7994301 105.393024,16.151737 L105.393024,16.151737 L105.393024,19.4372712 C105.393024,20.1229479 105.483313,20.6895836 105.66389,21.1371781 C105.844468,21.5847726 106.10583,21.9609425 106.447976,22.2656877 C106.790123,22.5704329 107.217806,22.8180384 107.731026,23.0085041 C108.244245,23.1989699 108.833498,23.3799123 109.498783,23.5513315 L109.498783,23.5513315 L114.802054,24.8369753 C115.106184,24.9131616 115.315273,24.9988712 115.429322,25.0941041 C115.543371,25.189337 115.600395,25.3512329 115.600395,25.5797918 L115.600395,25.5797918 L115.600395,27.6653918 C115.600395,28.0272767 115.419818,28.2082192 115.058663,28.2082192 L115.058663,28.2082192 L110.553734,28.2082192 C110.19258,28.2082192 110.012002,28.0272767 110.012002,27.6653918 L110.012002,27.6653918 L110.012002,25.6369315 L105.336,25.6369315 L105.336,28.2653589 C105.336,30.8937863 106.647562,32.208 109.270685,32.208 L109.270685,32.208 L116.398737,32.208 Z M132.878795,32.208 C134.133332,32.208 135.059979,31.9080164 135.658735,31.3080493 C136.257491,30.7080822 136.55687,29.7795616 136.55687,28.5224877 L136.55687,28.5224877 L136.55687,27.1225644 L132.080453,27.1225644 L132.080453,28.1225096 C132.080453,28.3320219 132.037684,28.4843945 131.952148,28.5796274 C131.866611,28.6748603 131.709794,28.7224767 131.481696,28.7224767 L131.481696,28.7224767 L128.573451,28.7224767 C128.17428,28.7224767 127.974694,28.5224877 127.974694,28.1225096 L127.974694,28.1225096 L127.974694,25.6655014 L136.55687,25.6655014 L136.55687,20.4657863 C136.55687,19.2087123 136.257491,18.2801918 135.658735,17.6802247 C135.059979,17.0802575 134.133332,16.780274 132.878795,16.780274 L132.878795,16.780274 L127.176353,16.780274 C125.921815,16.780274 124.995169,17.0802575 124.396412,17.6802247 C123.797656,18.2801918 123.498278,19.2087123 123.498278,20.4657863 L123.498278,20.4657863 L123.498278,28.5224877 C123.498278,29.7795616 123.797656,30.7080822 124.396412,31.3080493 C124.995169,31.9080164 125.921815,32.208 127.176353,32.208 L127.176353,32.208 L132.878795,32.208 Z M132.080453,22.9227945 L127.974694,22.9227945 L127.974694,20.8657644 C127.974694,20.6372055 128.022215,20.4800712 128.117256,20.3943616 C128.212296,20.3086521 128.364361,20.2657973 128.573451,20.2657973 L128.573451,20.2657973 L131.481696,20.2657973 C131.709794,20.2657973 131.866611,20.3086521 131.952148,20.3943616 C132.037684,20.4800712 132.080453,20.6372055 132.080453,20.8657644 L132.080453,20.8657644 L132.080453,22.9227945 Z M144.426239,32.208 L144.426239,21.6942904 C144.958467,21.3895452 145.500199,21.1705096 146.051435,21.0371836 C146.602671,20.9038575 147.22994,20.8371945 147.933241,20.8371945 L147.933241,20.8371945 L149.843559,20.8371945 L149.843559,16.780274 L148.446461,16.780274 C147.914233,16.780274 147.448534,16.8421753 147.049363,16.9659781 C146.650192,17.0897808 146.289037,17.2516767 145.965899,17.4516658 C145.64276,17.6516548 145.357638,17.8802137 145.110532,18.1373425 C144.863427,18.3944712 144.635329,18.6658849 144.426239,18.9515836 L144.426239,18.9515836 L144.426239,16.780274 L139.92131,16.780274 L139.92131,32.208 L144.426239,32.208 Z M160.991833,32.208 L165.952958,16.780274 L161.391004,16.780274 L158.653832,28.0653699 L155.945172,16.780274 L151.155121,16.780274 L156.116245,32.208 L160.991833,32.208 Z M177.215281,32.208 C178.469818,32.208 179.396465,31.9080164 179.995221,31.3080493 C180.593977,30.7080822 180.893356,29.7795616 180.893356,28.5224877 L180.893356,28.5224877 L180.893356,27.1225644 L176.416939,27.1225644 L176.416939,28.1225096 C176.416939,28.3320219 176.37417,28.4843945 176.288634,28.5796274 C176.203097,28.6748603 176.04628,28.7224767 175.818182,28.7224767 L175.818182,28.7224767 L172.909937,28.7224767 C172.510766,28.7224767 172.31118,28.5224877 172.31118,28.1225096 L172.31118,28.1225096 L172.31118,25.6655014 L180.893356,25.6655014 L180.893356,20.4657863 C180.893356,19.2087123 180.593977,18.2801918 179.995221,17.6802247 C179.396465,17.0802575 178.469818,16.780274 177.215281,16.780274 L177.215281,16.780274 L171.512839,16.780274 C170.258301,16.780274 169.331655,17.0802575 168.732898,17.6802247 C168.134142,18.2801918 167.834764,19.2087123 167.834764,20.4657863 L167.834764,20.4657863 L167.834764,28.5224877 C167.834764,29.7795616 168.134142,30.7080822 168.732898,31.3080493 C169.331655,31.9080164 170.258301,32.208 171.512839,32.208 L171.512839,32.208 L177.215281,32.208 Z M176.416939,22.9227945 L172.31118,22.9227945 L172.31118,20.8657644 C172.31118,20.6372055 172.358701,20.4800712 172.453742,20.3943616 C172.548782,20.3086521 172.700847,20.2657973 172.909937,20.2657973 L172.909937,20.2657973 L175.818182,20.2657973 C176.04628,20.2657973 176.203097,20.3086521 176.288634,20.3943616 C176.37417,20.4800712 176.416939,20.6372055 176.416939,20.8657644 L176.416939,20.8657644 L176.416939,22.9227945 Z M188.762725,32.208 L188.762725,21.6942904 C189.294953,21.3895452 189.836685,21.1705096 190.387921,21.0371836 C190.939157,20.9038575 191.566426,20.8371945 192.269727,20.8371945 L192.269727,20.8371945 L194.180045,20.8371945 L194.180045,16.780274 L192.782947,16.780274 C192.250719,16.780274 191.78502,16.8421753 191.385849,16.9659781 C190.986678,17.0897808 190.625523,17.2516767 190.302385,17.4516658 C189.979246,17.6516548 189.694124,17.8802137 189.447018,18.1373425 C189.199913,18.3944712 188.971815,18.6658849 188.762725,18.9515836 L188.762725,18.9515836 L188.762725,16.780274 L184.257796,16.780274 L184.257796,32.208 L188.762725,32.208 Z M201.308098,32.208 L201.308098,11.352 L196.803169,11.352 L196.803169,32.208 L201.308098,32.208 Z M214.024543,32.208 C215.27908,32.208 216.205727,31.9080164 216.804484,31.3080493 C217.40324,30.7080822 217.702618,29.7795616 217.702618,28.5224877 L217.702618,28.5224877 L217.702618,27.1225644 L213.226201,27.1225644 L213.226201,28.1225096 C213.226201,28.3320219 213.183433,28.4843945 213.097896,28.5796274 C213.01236,28.6748603 212.855543,28.7224767 212.627445,28.7224767 L212.627445,28.7224767 L209.7192,28.7224767 C209.320029,28.7224767 209.120443,28.5224877 209.120443,28.1225096 L209.120443,28.1225096 L209.120443,25.6655014 L217.702618,25.6655014 L217.702618,20.4657863 C217.702618,19.2087123 217.40324,18.2801918 216.804484,17.6802247 C216.205727,17.0802575 215.27908,16.780274 214.024543,16.780274 L214.024543,16.780274 L208.322101,16.780274 C207.067564,16.780274 206.140917,17.0802575 205.542161,17.6802247 C204.943404,18.2801918 204.644026,19.2087123 204.644026,20.4657863 L204.644026,20.4657863 L204.644026,28.5224877 C204.644026,29.7795616 204.943404,30.7080822 205.542161,31.3080493 C206.140917,31.9080164 207.067564,32.208 208.322101,32.208 L208.322101,32.208 L214.024543,32.208 Z M213.226201,22.9227945 L209.120443,22.9227945 L209.120443,20.8657644 C209.120443,20.6372055 209.167963,20.4800712 209.263004,20.3943616 C209.358045,20.3086521 209.51011,20.2657973 209.7192,20.2657973 L209.7192,20.2657973 L212.627445,20.2657973 C212.855543,20.2657973 213.01236,20.3086521 213.097896,20.3943616 C213.183433,20.4800712 213.226201,20.6372055 213.226201,20.8657644 L213.226201,20.8657644 L213.226201,22.9227945 Z M229.791795,32.208 C230.419064,32.208 230.965548,32.1270521 231.431247,31.9651562 C231.896947,31.8032603 232.277109,31.5366082 232.571736,31.1652 C232.866362,30.7937918 233.089707,30.3081041 233.241772,29.708137 C233.393838,29.1081699 233.46987,28.3605918 233.46987,27.4654027 C233.46987,26.6464 233.408094,25.9797699 233.284541,25.4655123 C233.160988,24.9512548 232.961402,24.5322301 232.685784,24.2084384 C232.410166,23.8846466 232.058516,23.6418027 231.630833,23.4799068 C231.203149,23.318011 230.685178,23.1799233 230.076917,23.0656438 L230.076917,23.0656438 L225.771574,22.3513973 C225.50546,22.3133041 225.32013,22.2275945 225.215585,22.0942685 C225.111041,21.9609425 225.058768,21.646674 225.058768,21.151463 C225.058768,20.7133918 225.106289,20.4324548 225.201329,20.3086521 C225.29637,20.1848493 225.448435,20.1229479 225.657525,20.1229479 L225.657525,20.1229479 L228.081063,20.1229479 C228.290152,20.1229479 228.442217,20.1705644 228.537258,20.2657973 C228.632299,20.3610301 228.679819,20.5705425 228.679819,20.8943342 L228.679819,20.8943342 L228.679819,21.6657205 L233.127724,21.6657205 L233.127724,20.9800438 C233.127724,19.4563178 232.828345,18.3754247 232.229589,17.7373644 C231.630833,17.0993041 230.704186,16.780274 229.449649,16.780274 L229.449649,16.780274 L224.288939,16.780274 C223.66167,16.780274 223.115186,16.8612219 222.649487,17.0231178 C222.183787,17.1850137 221.803624,17.4469041 221.508998,17.808789 C221.214372,18.170674 220.991026,18.6468384 220.838961,19.2372822 C220.686896,19.827726 220.610864,20.5514959 220.610864,21.4085918 C220.610864,22.1895014 220.67264,22.8370849 220.796193,23.3513425 C220.919746,23.8656 221.119331,24.279863 221.394949,24.5941315 C221.670567,24.9084 222.022218,25.1464822 222.449901,25.3083781 C222.877584,25.470274 223.395556,25.5988384 224.003817,25.6940712 L224.003817,25.6940712 L228.30916,26.4368877 C228.575274,26.4749808 228.755851,26.5606904 228.850892,26.6940164 C228.945933,26.8273425 228.993453,27.141611 228.993453,27.6368219 C228.993453,28.1320329 228.950685,28.451063 228.865148,28.5939123 C228.779612,28.7367616 228.622795,28.8081863 228.394697,28.8081863 L228.394697,28.8081863 L225.457939,28.8081863 C225.24885,28.8081863 225.096785,28.7510466 225.001744,28.6367671 C224.906703,28.5224877 224.859183,28.3034521 224.859183,27.9796603 L224.859183,27.9796603 L224.859183,27.0368548 L220.411278,27.0368548 L220.411278,27.9510904 C220.411278,29.493863 220.710656,30.5890411 221.309413,31.2366247 C221.908169,31.8842082 222.834816,32.208 224.089353,32.208 L224.089353,32.208 L229.791795,32.208 Z M245.273925,32.208 C245.901194,32.208 246.447678,32.1270521 246.913377,31.9651562 C247.379076,31.8032603 247.759239,31.5366082 248.053865,31.1652 C248.348492,30.7937918 248.571837,30.3081041 248.723902,29.708137 C248.875967,29.1081699 248.952,28.3605918 248.952,27.4654027 C248.952,26.6464 248.890224,25.9797699 248.766671,25.4655123 C248.643118,24.9512548 248.443532,24.5322301 248.167914,24.2084384 C247.892296,23.8846466 247.540646,23.6418027 247.112962,23.4799068 C246.685279,23.318011 246.167308,23.1799233 245.559047,23.0656438 L245.559047,23.0656438 L241.253703,22.3513973 C240.987589,22.3133041 240.80226,22.2275945 240.697715,22.0942685 C240.593171,21.9609425 240.540898,21.646674 240.540898,21.151463 C240.540898,20.7133918 240.588419,20.4324548 240.683459,20.3086521 C240.7785,20.1848493 240.930565,20.1229479 241.139655,20.1229479 L241.139655,20.1229479 L243.563192,20.1229479 C243.772282,20.1229479 243.924347,20.1705644 244.019388,20.2657973 C244.114428,20.3610301 244.161949,20.5705425 244.161949,20.8943342 L244.161949,20.8943342 L244.161949,21.6657205 L248.609853,21.6657205 L248.609853,20.9800438 C248.609853,19.4563178 248.310475,18.3754247 247.711719,17.7373644 C247.112962,17.0993041 246.186316,16.780274 244.931778,16.780274 L244.931778,16.780274 L239.771068,16.780274 C239.1438,16.780274 238.597316,16.8612219 238.131616,17.0231178 C237.665917,17.1850137 237.285754,17.4469041 236.991128,17.808789 C236.696502,18.170674 236.473156,18.6468384 236.321091,19.2372822 C236.169026,19.827726 236.092993,20.5514959 236.092993,21.4085918 C236.092993,22.1895014 236.15477,22.8370849 236.278323,23.3513425 C236.401876,23.8656 236.601461,24.279863 236.877079,24.5941315 C237.152697,24.9084 237.504348,25.1464822 237.932031,25.3083781 C238.359714,25.470274 238.877686,25.5988384 239.485946,25.6940712 L239.485946,25.6940712 L243.79129,26.4368877 C244.057404,26.4749808 244.237981,26.5606904 244.333022,26.6940164 C244.428063,26.8273425 244.475583,27.141611 244.475583,27.6368219 C244.475583,28.1320329 244.432815,28.451063 244.347278,28.5939123 C244.261742,28.7367616 244.104924,28.8081863 243.876827,28.8081863 L243.876827,28.8081863 L240.940069,28.8081863 C240.73098,28.8081863 240.578914,28.7510466 240.483874,28.6367671 C240.388833,28.5224877 240.341313,28.3034521 240.341313,27.9796603 L240.341313,27.9796603 L240.341313,27.0368548 L235.893408,27.0368548 L235.893408,27.9510904 C235.893408,29.493863 236.192786,30.5890411 236.791543,31.2366247 C237.390299,31.8842082 238.316946,32.208 239.571483,32.208 L239.571483,32.208 L245.273925,32.208 Z" id="Serverless" fill="#2F2747"></path>
                </g>
            </g>
        </g>
    </g>
</svg>