<?xml version="1.0" encoding="UTF-8"?>
<svg width="284px" height="65px" viewBox="0 0 284 65" version="1.1" xmlns="http://www.w3.org/2000/svg" xmlns:xlink="http://www.w3.org/1999/xlink">
    <!-- Generator: Sketch 61.2 (89653) - https://sketch.com -->
    <title>vercel-logo</title>
    <desc>Created with Sketch.</desc>
    <g id="Page-1" stroke="none" stroke-width="1" fill="none" fill-rule="evenodd">
        <g id="vercel-logo" fill="#FFFFFF" fill-rule="nonzero">
            <path d="M141.68,16.25 C130.64,16.25 122.68,23.45 122.68,34.25 C122.68,45.05 131.64,52.25 142.68,52.25 C149.35,52.25 155.23,49.61 158.87,45.16 L151.22,40.74 C149.2,42.95 146.13,44.24 142.68,44.24 C137.89,44.24 133.82,41.74 132.31,37.74 L160.33,37.74 C160.55,36.62 160.68,35.46 160.68,34.24 C160.68,23.45 152.72,16.25 141.68,16.25 L141.68,16.25 Z M132.22,30.75 C133.47,26.76 136.89,24.25 141.67,24.25 C146.46,24.25 149.88,26.76 151.12,30.75 L132.22,30.75 L132.22,30.75 Z M249.36,16.25 C238.32,16.25 230.36,23.45 230.36,34.25 C230.36,45.05 239.32,52.25 250.36,52.25 C257.03,52.25 262.91,49.61 266.55,45.16 L258.9,40.74 C256.88,42.95 253.81,44.24 250.36,44.24 C245.57,44.24 241.5,41.74 239.99,37.74 L268.01,37.74 C268.23,36.62 268.36,35.46 268.36,34.24 C268.36,23.45 260.4,16.25 249.36,16.25 L249.36,16.25 Z M239.91,30.75 C241.16,26.76 244.58,24.25 249.36,24.25 C254.15,24.25 257.57,26.76 258.81,30.75 L239.91,30.75 L239.91,30.75 Z M200.88,34.25 C200.88,40.25 204.8,44.25 210.88,44.25 C215,44.25 218.09,42.38 219.68,39.33 L227.36,43.76 C224.18,49.06 218.22,52.25 210.88,52.25 C199.83,52.25 191.88,45.05 191.88,34.25 C191.88,23.45 199.84,16.25 210.88,16.25 C218.22,16.25 224.17,19.44 227.36,24.74 L219.68,29.17 C218.09,26.12 215,24.25 210.88,24.25 C204.81,24.25 200.88,28.25 200.88,34.25 Z M283.36,5.25 L283.36,51.25 L274.36,51.25 L274.36,5.25 L283.36,5.25 Z M37.59,0.25 L74.54,64.25 L0.639999,64.25 L37.59,0.25 Z M129.97,5.25 L102.26,53.25 L74.55,5.25 L84.94,5.25 L102.26,35.25 L119.58,5.25 L129.97,5.25 L129.97,5.25 Z M188.88,17.25 L188.88,26.94 C187.88,26.65 186.82,26.45 185.68,26.45 C179.87,26.45 175.68,30.45 175.68,36.45 L175.68,51.25 L166.68,51.25 L166.68,17.25 L175.68,17.25 L175.68,26.45 C175.68,21.37 181.59,17.25 188.88,17.25 Z" id="Shape"></path>
        </g>
    </g>
</svg>