<?xml version="1.0" encoding="UTF-8"?>
<svg width="577px" height="116px" viewBox="0 0 577 116" version="1.1" xmlns="http://www.w3.org/2000/svg" xmlns:xlink="http://www.w3.org/1999/xlink">
    <!-- Generator: Sketch 61.2 (89653) - https://sketch.com -->
    <title>Artboard</title>
    <desc>Created with Sketch.</desc>
    <g id="Artboard" stroke="none" stroke-width="1" fill="none" fill-rule="evenodd">
        <g id="vercel-logo" transform="translate(33.000000, 23.000000)" fill="#FFFFFF" fill-rule="nonzero">
            <path d="M141.68,16.25 C130.64,16.25 122.68,23.45 122.68,34.25 C122.68,45.05 131.64,52.25 142.68,52.25 C149.35,52.25 155.23,49.61 158.87,45.16 L151.22,40.74 C149.2,42.95 146.13,44.24 142.68,44.24 C137.89,44.24 133.82,41.74 132.31,37.74 L160.33,37.74 C160.55,36.62 160.68,35.46 160.68,34.24 C160.68,23.45 152.72,16.25 141.68,16.25 L141.68,16.25 Z M132.22,30.75 C133.47,26.76 136.89,24.25 141.67,24.25 C146.46,24.25 149.88,26.76 151.12,30.75 L132.22,30.75 L132.22,30.75 Z M249.36,16.25 C238.32,16.25 230.36,23.45 230.36,34.25 C230.36,45.05 239.32,52.25 250.36,52.25 C257.03,52.25 262.91,49.61 266.55,45.16 L258.9,40.74 C256.88,42.95 253.81,44.24 250.36,44.24 C245.57,44.24 241.5,41.74 239.99,37.74 L268.01,37.74 C268.23,36.62 268.36,35.46 268.36,34.24 C268.36,23.45 260.4,16.25 249.36,16.25 L249.36,16.25 Z M239.91,30.75 C241.16,26.76 244.58,24.25 249.36,24.25 C254.15,24.25 257.57,26.76 258.81,30.75 L239.91,30.75 L239.91,30.75 Z M200.88,34.25 C200.88,40.25 204.8,44.25 210.88,44.25 C215,44.25 218.09,42.38 219.68,39.33 L227.36,43.76 C224.18,49.06 218.22,52.25 210.88,52.25 C199.83,52.25 191.88,45.05 191.88,34.25 C191.88,23.45 199.84,16.25 210.88,16.25 C218.22,16.25 224.17,19.44 227.36,24.74 L219.68,29.17 C218.09,26.12 215,24.25 210.88,24.25 C204.81,24.25 200.88,28.25 200.88,34.25 Z M283.36,5.25 L283.36,51.25 L274.36,51.25 L274.36,5.25 L283.36,5.25 Z M37.59,0.25 L74.54,64.25 L0.639999,64.25 L37.59,0.25 Z M129.97,5.25 L102.26,53.25 L74.55,5.25 L84.94,5.25 L102.26,35.25 L119.58,5.25 L129.97,5.25 L129.97,5.25 Z M188.88,17.25 L188.88,26.94 C187.88,26.65 186.82,26.45 185.68,26.45 C179.87,26.45 175.68,30.45 175.68,36.45 L175.68,51.25 L166.68,51.25 L166.68,17.25 L175.68,17.25 L175.68,26.45 C175.68,21.37 181.59,17.25 188.88,17.25 Z" id="Shape"></path>
        </g>
        <g id="logo" transform="translate(459.000000, 12.000000)">
            <g id="rwr-logo-vector" transform="translate(2.000000, 2.000000)">
                <path d="M17.0225621,26.2803674 C17.0924068,26.3745514 17.1273286,26.4805067 17.1273286,26.5982366 C17.1273286,27.1397942 16.5685796,27.5518427 15.4510649,27.8343944 C14.2171424,26.8690092 12.6805826,25.3856346 10.8413396,23.3842262 C8.79256263,21.147358 7.26764353,19.5933465 6.26653658,18.7221452 C6.19669191,19.3343407 6.06864526,20.9354434 5.88239281,23.5255014 C5.76598502,25.4798179 5.55645415,27.0338293 5.25379391,28.1875824 C5.2072308,28.1875824 5.06172325,28.2464465 4.8172669,28.3641764 C4.57281055,28.4819063 4.36909999,28.5172247 4.20612909,28.4701328 C3.18174058,28.234673 2.66955401,27.5165313 2.66955401,26.3156862 C2.66955401,25.9624965 2.71611643,25.491584 2.80924265,24.9029344 C2.90236888,24.220101 2.9605719,23.7962797 2.98385346,23.6314578 C3.07697969,22.2657909 3.13518271,20.6411425 3.15846426,18.757464 L3.15846426,14.9077153 C3.15846426,11.7054618 3.33307332,9.0094874 3.68229668,6.81971113 C3.91511224,5.35986029 5.2770629,4.68880988 7.76818949,4.80653979 C9.02539357,4.85363175 10.1196103,5.48936372 11.0508726,6.71375475 C11.9122902,7.84396185 12.3429926,9.06833452 12.3429926,10.3869095 C12.3429926,11.4935706 11.9355714,12.6002151 11.1207169,13.7068763 C10.4222702,14.6958075 9.56086554,15.4728132 8.53647703,16.0379168 C8.11740901,16.2733766 7.90787814,16.5323785 7.90787814,16.8149303 C7.90787814,17.121028 8.15233082,17.4859853 8.64124351,17.9098129 C9.01374842,18.2159107 9.38624775,18.5220038 9.75875266,18.8281016 C9.78203422,18.8516476 11.0625006,20.028929 13.6001904,22.3599811 C15.2066178,23.819832 16.347397,25.1266144 17.0225621,26.2803674 L17.0225621,26.2803674 Z M9.65398618,10.4222283 C9.72383085,9.99840061 9.74711206,9.62167056 9.7238305,9.29202682 C9.65398583,8.79756121 9.45027526,8.35019427 9.11269268,7.94991259 C8.77511011,7.54963091 8.23382203,7.34949307 7.48881221,7.34949307 C6.93005484,7.34949307 6.58083672,7.52608528 6.44114738,7.879275 C6.3247396,8.46792453 6.26653658,9.13897494 6.26653658,9.89244634 C6.26653658,10.1985441 6.30145839,10.9873226 6.37130306,12.2588056 C6.41786617,13.2241909 6.41786617,14.0129694 6.37130306,14.6251649 C8.30367229,13.1653141 9.39788905,11.7643492 9.65398618,10.4222283 L9.65398618,10.4222283 Z M27.6127074,8.37373814 C26.7512898,8.72692786 25.482464,9.13897635 23.8061919,9.60989598 C22.1299198,10.0808156 20.8610939,10.4928641 19.9996763,10.8460538 C19.7901423,11.4582493 19.6388145,12.8238958 19.5456882,14.9430341 C19.9181931,15.08431 20.3488955,15.1549469 20.8378082,15.1549469 C21.1870315,15.1549469 21.7341399,15.0960828 22.4791497,14.9783529 C23.2241596,14.860623 23.7712679,14.8017589 24.1204913,14.8017589 C24.7723749,14.8017589 25.3311239,14.9430327 25.796755,15.2255845 C26.1226968,15.6965041 26.2856653,16.0025973 26.2856653,16.1438731 C26.2856653,16.308695 26.204181,16.438196 26.0412101,16.5323799 C25.994647,16.5559259 25.8316786,16.7207453 25.5522999,17.026843 C25.3660474,17.2387569 25.1332354,17.3329394 24.8538567,17.3093934 C24.364944,17.4271233 23.4686175,17.4977602 22.1648503,17.5213062 C21.0706171,17.5448521 20.1975718,17.6861259 19.5456882,17.9451317 C19.1033386,19.6875343 18.8821672,21.0649536 18.8821672,22.0774308 C18.8821672,22.7602642 18.975292,23.3018137 19.1615445,23.7020954 C20.2557776,24.4791128 22.1531961,24.8087516 24.8538567,24.6910217 C25.0401091,24.6910217 25.2379994,24.6027255 25.4475334,24.4261307 C25.6570674,24.2495358 25.8316765,24.1612397 25.9713658,24.1612397 C26.6232494,24.0199638 27.0539518,24.514422 27.2634858,25.6446291 C27.3333304,26.0213648 27.2693071,26.3686628 27.0714139,26.6865336 C26.8735207,27.0044043 26.5883259,27.1751101 26.215821,27.1986561 C23.3987526,27.2928401 20.9542257,27.0691566 18.8821672,26.527599 C18.2302836,26.3627771 17.6366128,25.9978199 17.101137,25.4327164 C16.5656612,24.8676128 16.2630055,24.2318808 16.1931608,23.5255014 C15.9836268,21.477001 15.9836268,19.640442 16.1931608,18.0157693 C15.5412772,17.5683957 15.2502621,17.1328015 15.3201068,16.7089739 C15.3433883,16.49706 15.5238177,16.3028086 15.8614003,16.1262137 C16.1989828,15.9496189 16.3910528,15.7671403 16.4376159,15.5787724 C16.484179,15.3904046 16.5773039,14.2719872 16.7169932,12.2234868 C15.413226,11.964481 14.7729928,11.4700229 14.7962744,10.7400974 C14.8195559,10.057264 15.2269771,9.51571452 16.01855,9.11543284 C16.7635598,8.80933508 17.5085585,8.50324192 18.2535683,8.19714416 C19.1382674,7.74977051 20.2324842,7.34949483 21.5362514,6.99630511 C22.6537661,6.69020735 23.7829047,6.395887 24.923701,6.11333522 C25.0401088,6.08978924 25.179796,6.07801643 25.3427669,6.07801643 C25.971369,6.07801643 26.704727,6.32524552 27.5428631,6.81971113 C27.5661446,6.91389506 27.6243476,7.09048727 27.7174739,7.34949307 C27.8106001,7.60849886 27.8571625,7.79686389 27.8571625,7.91459379 C27.8571625,8.10296165 27.7756783,8.25600823 27.6127074,8.37373814 L27.6127074,8.37373814 Z M41.3458471,24.3378337 C41.4855365,24.7145694 41.5553801,25.0442082 41.5553801,25.32676 C41.5553801,25.7976796 41.3574898,26.2097281 40.9617034,26.5629178 C40.5659169,26.9161075 40.298183,27.0809269 40.1584937,27.0573809 C39.0176974,26.8454671 38.2959799,25.9154148 37.9933197,24.2671961 C37.6673779,22.4777015 37.283238,20.9825541 36.8408884,19.7817091 C36.0493154,19.852347 35.2577544,19.9229839 34.4661814,19.9936219 C33.5582007,20.1113518 32.8481239,20.3938993 32.3359296,20.8412729 C32.0798325,21.5711984 31.742255,22.8662079 31.323187,24.7263404 C30.9274005,26.4451971 30.5432606,27.7519795 30.1707557,28.6467267 C29.9845032,29.0705544 29.5887227,29.1882826 28.9834022,28.9999147 C28.2151108,28.7409089 27.8076897,28.3877245 27.7611266,27.9403508 C27.6912819,27.0456035 27.9473752,25.8447765 28.5294141,24.3378337 C29.2278608,22.6189771 29.6120007,21.3946044 29.6818454,20.664679 C29.705127,20.4527651 29.5537991,20.2173089 29.2278573,19.9583031 C28.9019155,19.6992973 28.7389471,19.4991594 28.7389471,19.3578835 C28.7389471,19.2401536 28.7913298,19.1165391 28.8960968,18.9870362 C29.0008638,18.8575333 29.2453165,18.751578 29.6294622,18.669167 C30.0136079,18.5867561 30.228959,18.4631415 30.2755221,18.2983197 C30.6945902,17.1210206 31.3581046,14.9312772 32.2660853,11.7290237 C33.0343767,8.9505979 33.7211723,6.81971855 34.3264928,5.33632172 C34.4661821,5.00667798 34.7571972,4.84185859 35.1995468,4.84185859 C35.5254886,4.84185859 35.8165037,4.94781391 36.0726008,5.15972775 C36.7244844,5.7248313 37.1435462,6.57247391 37.3297986,7.70268102 C37.469488,8.66806626 37.5975346,9.63343701 37.7139424,10.5988223 C38.8780203,16.1556739 40.0886431,20.7352985 41.3458471,24.3378337 L41.3458471,24.3378337 Z M36.2472116,17.5919438 C36.177367,16.7207424 36.0260391,15.7435989 35.7932236,14.6604837 C35.560408,13.7186445 35.3392365,12.7768193 35.1297025,11.8349801 C34.4312558,13.7892965 33.8259444,15.7435837 33.3137501,17.6979001 C33.6862551,17.6272622 34.6640658,17.5919438 36.2472116,17.5919438 L36.2472116,17.5919438 Z M53.0884237,21.9361556 C53.0418606,21.9597016 51.6799099,22.9368452 49.0025309,24.8676156 C47.4426666,25.9978227 46.0574347,26.8336925 44.8467938,27.3752501 C44.7071044,27.4458881 44.5674172,27.4812065 44.4277278,27.4812065 C44.101786,27.4812065 43.7991303,27.2692958 43.5197516,26.8454682 C43.1006836,26.2803646 42.8795121,25.9860443 42.8562306,25.9624983 C42.8096675,23.8904519 42.9377141,21.0061125 43.2403744,17.3093934 C43.5895977,13.3772145 43.7642068,10.5399663 43.7642068,8.79756368 C43.7642068,7.59671863 43.7176444,6.46652848 43.6245181,5.40695931 C43.9271784,5.10086156 44.3113183,4.94781497 44.7769494,4.94781497 C45.6616486,4.94781497 46.1738352,5.27745377 46.3135245,5.93674125 C46.3833692,7.86751172 46.301885,10.7577376 46.0690694,14.6075055 C45.8362538,18.4572735 45.743129,21.3474994 45.7896921,23.2782698 C46.4415757,22.9957181 47.2913398,22.5012599 48.3390098,21.7948804 C49.4798061,20.9943171 50.306289,20.4645404 50.8184833,20.2055346 C50.934891,20.2055346 51.1386016,20.181989 51.4296211,20.134897 C51.7206405,20.0878051 51.9359917,20.0642594 52.075681,20.0642594 C52.5413122,20.0642594 52.8788897,20.2526245 53.0884237,20.6293602 C53.3678024,21.1473718 53.3678024,21.5829659 53.0884237,21.9361556 L53.0884237,21.9361556 Z" id="Real" fill="#FFFFFF" transform="translate(27.983756, 16.940108) rotate(-9.000000) translate(-27.983756, -16.940108) "></path>
                <path d="M18.0933668,30.8356215 C18.6288426,31.0946273 18.8965765,31.4713574 18.8965765,31.965823 C18.8965765,32.2954667 18.7568893,32.7428336 18.4775106,33.3079372 C18.1282872,34.0614086 17.9420376,34.4852299 17.918756,34.5794138 C17.3599987,36.3218165 16.8303512,38.9706996 16.3297977,42.5261428 C15.8292442,46.081586 15.322878,48.6951507 14.8106837,50.3669154 C14.6709944,50.8378351 14.2752138,51.0732913 13.6233302,51.0732913 C13.32067,51.0732913 13.0529361,51.0144273 12.8201205,50.8966974 C11.9587029,50.4493237 11.3417509,49.5781355 10.969246,48.2831065 C10.9459645,48.1653766 10.724793,46.9880952 10.305725,44.7512269 C10.096191,43.5739279 9.89830069,42.3142368 9.71204824,40.9721158 C9.38610644,41.6314033 8.95540409,43.2678245 8.41992828,45.8814284 C7.95429715,48.1418426 7.40718876,49.5781259 6.77858673,50.1903214 C6.59233427,50.3786893 6.26639736,50.4022349 5.80076622,50.260959 C5.10231951,50.1667751 4.63669536,49.7429538 4.40387979,48.9894824 C4.26419045,48.3301949 4.1245032,47.6709173 3.98481386,47.0116299 C3.56574583,45.3163192 3.23398862,42.6792088 2.98953228,39.1002197 C2.74507593,35.5212305 2.41331872,32.9076658 1.99425069,31.2594471 C1.92440602,30.9768953 1.95932783,30.7061206 2.09901717,30.4471148 C2.23870652,30.188109 2.43659678,30.0468352 2.69269391,30.0232892 C2.87894636,29.9761973 3.06519603,29.9526516 3.25144848,29.9526516 C3.90333208,29.9526516 4.40387804,30.246972 4.7531014,30.8356215 C5.12560631,32.813484 5.56794926,36.6631942 6.08014351,42.3848676 C6.26639596,41.984586 6.48174714,41.2370123 6.72620348,40.1421241 C6.97065983,39.047236 7.20929221,38.252571 7.44210778,37.7581054 C7.65164179,36.8633581 7.84953206,35.9686243 8.03578452,35.073877 C8.3151632,33.9907618 8.89719339,33.4492124 9.78189256,33.4492124 C10.0147081,33.4492124 10.2708014,33.4845308 10.5501801,33.5551688 C10.5734617,33.6964447 10.6782271,33.7788544 10.8644795,33.8024003 C11.050732,33.8259463 11.1554974,33.8612648 11.178779,33.9083567 C11.6909732,35.0621098 12.0751132,36.6043485 12.3312103,38.5351189 C12.7269968,41.2664528 12.9714494,42.8440099 13.0645757,43.2678375 C13.4370806,41.1722452 13.8212205,39.0884571 14.217007,37.0164107 C14.7059197,34.5911746 15.3345123,32.6133419 16.1028037,31.0828531 C16.2657746,30.7767553 16.6033521,30.6237087 17.1155463,30.6237087 C17.4880512,30.6237087 17.8139882,30.6943456 18.0933668,30.8356215 L18.0933668,30.8356215 Z M32.6646384,41.3959414 C31.2910266,44.5275569 29.3470457,46.3876615 26.8326376,46.9763111 C26.5299773,47.046949 26.2273216,47.0822674 25.9246614,47.0822674 C24.5976127,47.0822674 23.2589432,46.352353 21.9086129,44.8925021 C21.0006322,43.9035709 20.5466486,42.6203342 20.5466486,41.0427534 C20.5466486,39.3003508 21.0588352,37.4284733 22.0832237,35.4270649 C22.5255733,34.5794096 23.0610411,33.8494951 23.6896431,33.2372996 C24.4113714,32.5073742 25.098167,32.142417 25.7500506,32.142417 C26.1225555,32.142417 26.4717736,32.2836907 26.7977154,32.5662425 C27.1236572,32.8487943 27.9967025,33.2255243 29.4168775,33.696444 C30.5343922,34.0731797 31.3259533,34.7089116 31.7915844,35.6036589 C32.6064389,37.1812397 33.01386,38.5351133 33.01386,39.6653204 C33.01386,40.3010619 32.897454,40.8779298 32.6646384,41.3959414 L32.6646384,41.3959414 Z M39.5879568,27.7982051 C40.8451609,27.8452971 41.9393777,28.481029 42.8706399,29.7054201 C43.7320575,30.8356272 44.1627599,32.0599998 44.1627599,33.3785748 C44.1627599,34.4852359 43.7553388,35.5918804 42.9404843,36.6985416 C42.2420376,37.6874728 41.3806329,38.4644785 40.3562444,39.0295821 C39.9371763,39.2650419 39.7276455,39.5240438 39.7276455,39.8065956 C39.7276455,40.1126933 39.9720981,40.4776506 40.4610108,40.9014782 L41.57852,41.8197669 L41.57852,41.8197669 C41.6018015,41.8433129 42.882268,43.0205943 45.4199577,45.3516465 C46.1313755,45.9981518 46.7514693,46.614637 47.280242,47.2011055 C47.3100779,45.3507537 47.438593,43.0506158 47.6637065,40.3010587 C48.0129299,36.3688798 48.1875389,33.5316316 48.1875389,31.789229 C48.1875389,30.5883839 48.1409765,29.4581938 48.0478503,28.3986246 C48.3505105,28.0925269 48.7346505,27.9394803 49.2002816,27.9394803 C50.0849808,27.9394803 50.5971673,28.2691191 50.7368567,28.9284066 C50.8067013,30.859177 50.7252171,33.7494029 50.4924015,37.5991709 C50.259586,41.4489388 50.1664611,44.3391647 50.2130243,46.2699351 C50.8649079,45.9873834 51.7146719,45.4929252 52.762342,44.7865457 C53.9031383,43.9859824 54.7296212,43.4562057 55.2418154,43.1971999 C55.3582232,43.1971999 55.5619338,43.1736543 55.8529532,43.1265623 C56.1439727,43.0794704 56.3593239,43.0559248 56.4990132,43.0559248 C56.9646443,43.0559248 57.3022219,43.2442898 57.5117559,43.6210255 C57.7911346,44.1390371 57.7911346,44.5746312 57.5117559,44.9278209 L57.4583253,44.9634927 C57.1796483,45.1563319 55.8355042,46.1215875 53.4258631,47.8592809 C51.8659987,48.989488 50.4807669,49.8253579 49.2701259,50.3669154 C49.1304366,50.4375534 48.9907493,50.4728718 48.85106,50.4728718 C48.7132291,50.4728718 48.5795623,50.4349782 48.4500588,50.3591906 C48.173958,50.5413901 47.7805095,50.6971932 47.2708322,50.8260598 C46.0369097,49.8606745 44.50035,48.3773 42.661107,46.3758915 C40.61233,44.1390233 39.0874109,42.5850118 38.0863039,41.7138105 C38.0164592,42.326006 37.8884126,43.9271088 37.7021601,46.5171667 C37.5857524,48.4714832 37.3762215,50.0254946 37.0735612,51.1792477 C37.0269981,51.1792477 36.8814906,51.2381118 36.6370342,51.3558417 C36.3925779,51.4735716 36.1888673,51.50889 36.0258964,51.4617981 C35.0015079,51.2263383 34.4893213,50.5081966 34.4893213,49.3073516 C34.4893213,48.9541618 34.5358838,48.4832493 34.62901,47.8945997 C34.7221362,47.2117663 34.7803392,46.787945 34.8036208,46.6231231 C34.896747,45.2574562 34.95495,43.6328078 34.9782316,41.7491293 L34.9782316,37.8993806 C34.9782316,34.6971271 35.1528407,32.0011527 35.502064,29.8113764 C35.7348796,28.3515256 37.0968302,27.6804752 39.5879568,27.7982051 Z M28.1946019,36.0628032 C28.2877281,36.0628032 28.3924935,36.0863489 28.5089013,36.1334408 C29.2539111,36.4630846 29.7078947,37.4873194 29.8708656,39.206176 C29.9872734,40.2657452 29.5914928,41.4077082 28.6835121,42.6320992 C27.7289683,43.9271282 26.7395169,44.574633 25.7151284,44.574633 C25.2727789,44.574633 24.7256705,44.0919476 24.0737869,43.1265623 C23.6081557,42.4201829 23.3753437,41.5607675 23.3753437,40.5482903 C23.3753437,39.0648934 23.7827648,37.9700217 24.5976193,37.2636423 C24.6441824,37.2165503 24.7023854,37.1930047 24.7722301,37.1930047 C24.8653563,37.1930047 25.0632466,37.29896 25.3659068,37.5108739 C25.6685671,37.7227877 25.9013791,37.7934246 26.06435,37.7227866 C26.3204472,37.6286027 26.6813059,37.3107367 27.146937,36.7691792 C27.5660051,36.2982595 27.9152232,36.0628032 28.1946019,36.0628032 Z M41.4737535,33.4138936 C41.5435982,32.9900659 41.5668794,32.6133359 41.5435978,32.2836921 C41.4737532,31.7892265 41.2700426,31.3418596 40.93246,30.9415779 C40.5948774,30.5412962 40.0535894,30.3411584 39.3085795,30.3411584 C38.7498222,30.3411584 38.4006041,30.5177506 38.2609147,30.8709403 C38.1445069,31.4595898 38.0863039,32.1306403 38.0863039,32.8841117 C38.0863039,33.1902094 38.1212257,33.978988 38.1910704,35.250471 C38.2376335,36.2158562 38.2376335,37.0046347 38.1910704,37.6168303 C40.1234396,36.1569794 41.2176564,34.7560145 41.4737535,33.4138936 L41.4737535,33.4138936 Z M69.0098773,41.2193474 C68.7770618,41.760905 68.5558903,42.3024544 68.3463563,42.844012 C68.0669776,43.4797535 67.7643219,43.9859845 67.4383801,44.3627202 C66.7166518,45.2810135 65.9949344,46.1875201 65.2732061,47.0822674 C64.4117885,48.1653826 63.631868,48.9188427 62.9334213,49.3426704 C62.7006058,49.6252221 62.4445125,49.9195425 62.1651338,50.2256402 C61.8857551,50.531738 61.6063806,50.6847846 61.3270019,50.6847846 C61.1873126,50.6847846 61.0243441,50.6494661 60.8380917,50.5788282 C60.6518392,50.5081903 60.4481287,50.4257806 60.2269539,50.3315966 C60.0057791,50.2374127 59.8486309,50.0843661 59.7555047,49.8724523 C59.68566,48.8835211 59.6507382,47.8239678 59.6507382,46.6937607 C59.6507382,45.5400076 59.6973006,43.8211767 59.7904269,41.5372166 C59.8835531,39.2532564 59.9301155,37.5344255 59.9301155,36.3806724 C59.9301155,34.8501836 59.8719125,33.4492187 59.7555047,32.1777357 C59.7322231,32.1541898 59.4761299,31.883415 58.9872172,31.3654034 C58.6845569,31.0593057 58.5332291,30.7767582 58.5332291,30.5177524 C58.5332291,30.4000225 58.5565103,30.2822943 58.6030734,30.1645644 C58.7194812,29.8820126 58.9755745,29.7171932 59.3713609,29.6701013 C59.6740212,29.6230093 59.9766769,29.5876909 60.2793371,29.5641449 C62.2349879,29.9879725 64.2837342,31.0946171 66.4256374,32.8841117 C66.9843948,33.3550313 67.4383783,33.8494895 67.7876017,34.3675011 C68.9051164,36.0392657 69.4638654,37.60505 69.4638654,39.0649009 C69.4638654,39.8183723 69.3125376,40.5365139 69.0098773,41.2193474 L69.0098773,41.2193474 Z M66.4954817,37.4402363 C66.2859477,35.9568394 65.0404031,34.6500571 62.7588105,33.51985 C62.5958396,37.4520289 62.5492772,41.6196051 62.6191219,46.0227036 C65.2499378,43.3620077 66.5653261,40.8308526 66.5653261,38.4291625 C66.5653261,38.0995188 66.5420449,37.76988 66.4954817,37.4402363 L66.4954817,37.4402363 Z" id="WORLd" fill="#FFFFFF" transform="translate(35.711597, 39.633503) rotate(-14.000000) translate(-35.711597, -39.633503) "></path>
                <path d="M31.8235648,70.6482707 C31.8934095,70.7424546 31.9283313,70.8484099 31.9283313,70.9661398 C31.9283313,71.5076974 31.3695823,71.9197459 30.2520676,72.2022977 C29.0181451,71.2369124 27.4815854,69.7535379 25.6423424,67.7521295 C23.5935653,65.5152612 22.0686462,63.9612498 21.0675393,63.0900484 C20.9976946,63.702244 20.869648,65.3033467 20.6833955,67.8934046 C20.5669877,69.8477211 20.3574569,71.4017325 20.0547966,72.5554856 C20.0082335,72.5554856 19.862726,72.6143497 19.6182696,72.7320796 C19.3738133,72.8498095 19.1701027,72.885128 19.0071318,72.838036 C17.9827433,72.6025762 17.4705567,71.8844345 17.4705567,70.6835895 C17.4705567,70.3303998 17.5171191,69.8594872 17.6102454,69.2708377 C17.7033716,68.5880042 17.7615746,68.1641829 17.7848562,67.999361 C17.8779824,66.6336941 17.9361854,65.0090458 17.959467,63.1253672 L17.959467,59.2756185 C17.959467,56.0733651 18.134076,53.3773906 18.4832994,51.1876144 C18.716115,49.7277635 20.0780656,49.0567131 22.5691922,49.174443 C23.8263963,49.221535 24.920613,49.8572669 25.8518753,51.081658 C26.7132929,52.2118651 27.1439953,53.4362378 27.1439953,54.7548127 C27.1439953,55.8614738 26.7365741,56.9681184 25.9217196,58.0747795 C25.2232729,59.0637107 24.3618683,59.8407164 23.3374797,60.40582 C22.9184117,60.6412798 22.7088809,60.9002817 22.7088809,61.1828335 C22.7088809,61.4889312 22.9533335,61.8538885 23.4422462,62.2777162 C23.8147511,62.5838139 24.1872505,62.8899071 24.5597554,63.1960048 C24.5830369,63.2195508 25.8635034,64.3968322 28.4011931,66.7278844 C30.0076205,68.1877352 31.1483997,69.4945176 31.8235648,70.6482707 L31.8235648,70.6482707 Z M24.4549889,54.7901315 C24.5248336,54.3663038 24.5481148,53.9895738 24.5248332,53.6599301 C24.4549885,53.1654644 24.251278,52.7180975 23.9136954,52.3178158 C23.5761128,51.9175341 23.0348247,51.7173963 22.2898149,51.7173963 C21.7310576,51.7173963 21.3818394,51.8939885 21.2421501,52.2471782 C21.1257423,52.8358278 21.0675393,53.5068782 21.0675393,54.2603496 C21.0675393,54.5664473 21.1024611,55.3552259 21.1723058,56.6267089 C21.2188689,57.5920941 21.2188689,58.3808727 21.1723058,58.9930682 C23.104675,57.5332173 24.1988918,56.1322524 24.4549889,54.7901315 L24.4549889,54.7901315 Z M42.4137101,52.7416414 C41.5522925,53.0948311 40.2834667,53.5068796 38.6071946,53.9777992 C36.9309225,54.4487188 35.6620966,54.8607673 34.800679,55.2139571 C34.591145,55.8261526 34.4398172,57.191799 34.3466909,59.3109373 C34.7191959,59.4522132 35.1498982,59.5228501 35.6388109,59.5228501 C35.9880343,59.5228501 36.5351426,59.463986 37.2801525,59.3462561 C38.0251623,59.2285262 38.5722707,59.1696621 38.921494,59.1696621 C39.5733776,59.1696621 40.1321266,59.3109359 40.5977577,59.5934877 C40.9236995,60.0644073 41.086668,60.3705005 41.086668,60.5117764 C41.086668,60.6765982 41.0051838,60.8060992 40.8422129,60.9002831 C40.7956497,60.9238291 40.6326813,61.0886485 40.3533026,61.3947463 C40.1670502,61.6066601 39.9342381,61.7008426 39.6548594,61.6772966 C39.1659467,61.7950265 38.2696202,61.8656634 36.965853,61.8892094 C35.8716198,61.9127554 34.9985745,62.0540292 34.3466909,62.3130349 C33.9043414,64.0554376 33.6831699,65.4328568 33.6831699,66.445334 C33.6831699,67.1281675 33.7762947,67.6697169 33.9625472,68.0699986 C35.0567804,68.847016 36.9541988,69.1766548 39.6548594,69.0589249 C39.8411118,69.0589249 40.0390021,68.9706288 40.2485361,68.7940339 C40.4580701,68.6174391 40.6326792,68.529143 40.7723685,68.529143 C41.4242521,68.3878671 41.8549545,68.8823253 42.0644885,70.0125324 C42.1343332,70.3892681 42.0703098,70.7365661 41.8724166,71.0544368 C41.6745234,71.3723076 41.3893286,71.5430134 41.0168237,71.5665594 C38.1997553,71.6607433 35.7552285,71.4370598 33.6831699,70.8955022 C33.0312863,70.7306804 32.4376155,70.3657231 31.9021397,69.8006196 C31.3666639,69.235516 31.0640082,68.5997841 30.9941635,67.8934046 C30.7846295,65.8449043 30.7846295,64.0083453 30.9941635,62.3836725 C30.3422799,61.9362989 30.0512648,61.5007048 30.1211095,61.0768771 C30.144391,60.8649633 30.3248204,60.6707118 30.662403,60.494117 C30.9999856,60.3175221 31.1920555,60.1350435 31.2386186,59.9466756 C31.2851817,59.7583078 31.3783066,58.6398905 31.5179959,56.5913901 C30.2142287,56.3323843 29.5739955,55.8379261 29.5972771,55.1080007 C29.6205586,54.4251672 30.0279798,53.8836178 30.8195527,53.4833361 C31.5645625,53.1772383 32.3095612,52.8711451 33.054571,52.5650474 C33.9392702,52.1176737 35.0334869,51.7173981 36.3372541,51.3642083 C37.4547688,51.0581106 38.5839074,50.7637902 39.7247037,50.4812385 C39.8411115,50.4576925 39.9807987,50.4459197 40.1437696,50.4459197 C40.7723717,50.4459197 41.5057297,50.6931488 42.3438658,51.1876144 C42.3671473,51.2817983 42.4253504,51.4583905 42.5184766,51.7173963 C42.6116028,51.9764021 42.6581652,52.1647671 42.6581652,52.282497 C42.6581652,52.4708649 42.576681,52.6239115 42.4137101,52.7416414 L42.4137101,52.7416414 Z M56.1468498,68.7057369 C56.2865392,69.0824726 56.3563828,69.4121114 56.3563828,69.6946632 C56.3563828,70.1655828 56.1584925,70.5776313 55.7627061,70.930821 C55.3669196,71.2840108 55.0991857,71.4488302 54.9594964,71.4252842 C53.8187001,71.2133703 53.0969826,70.283318 52.7943224,68.6350993 C52.4683806,66.8456048 52.0842407,65.3504574 51.6418911,64.1496123 C50.8503182,64.2202503 50.0587571,64.2908871 49.2671842,64.3615251 C48.3592034,64.479255 47.6491266,64.7618025 47.1369324,65.2091762 C46.8808352,65.9391016 46.5432577,67.2341111 46.1241897,69.0942437 C45.7284032,70.8131003 45.3442633,72.1198827 44.9717584,73.01463 C44.7855059,73.4384576 44.3897254,73.5561858 43.7844049,73.3678179 C43.0161135,73.1088121 42.6086924,72.7556277 42.5621293,72.3082541 C42.4922846,71.4135068 42.7483779,70.2126797 43.3304168,68.7057369 C44.0288635,66.9868803 44.4130035,65.7625076 44.4828481,65.0325822 C44.5061297,64.8206684 44.3548018,64.5852121 44.02886,64.3262063 C43.7029182,64.0672005 43.5399498,63.8670627 43.5399498,63.7257868 C43.5399498,63.6080569 43.5923325,63.4844423 43.6970995,63.3549394 C43.8018665,63.2254365 44.0463192,63.1194812 44.4304649,63.0370703 C44.8146106,62.9546593 45.0299617,62.8310448 45.0765249,62.6662229 C45.4955929,61.4889238 46.1591073,59.2991804 47.067088,56.0969269 C47.8353794,53.3185011 48.522175,51.1876218 49.1274955,49.704225 C49.2671849,49.3745812 49.5582,49.2097618 50.0005495,49.2097618 C50.3264913,49.2097618 50.6175064,49.3157171 50.8736036,49.527631 C51.5254872,50.0927345 51.9445489,50.9403771 52.1308013,52.0705843 C52.2704907,53.0359695 52.3985373,54.0013402 52.5149451,54.9667255 C53.679023,60.5235771 54.8896458,65.1032018 56.1468498,68.7057369 L56.1468498,68.7057369 Z M83.3686742,47.2319093 C83.7877422,47.2319093 83.9623513,47.4085015 83.8925066,47.7616912 C84.5211087,47.7616912 84.835405,47.9736019 84.835405,48.3974295 C84.625871,49.2450849 84.2300904,49.739543 83.6480515,49.8808189 C82.1347503,50.2575546 79.5039738,50.7520128 75.7556432,51.3642083 C75.290012,57.2271577 75.0571999,62.1128756 75.0571999,66.0215085 C75.0571999,67.5049053 75.0804811,68.9647342 75.1270443,70.4010391 C75.1503258,70.8484128 75.1270446,71.1898244 75.0571999,71.4252842 C74.9407921,71.8020199 74.7079801,71.9786121 74.3587567,71.9550661 C73.6835916,71.9315201 73.1248426,71.6430862 72.682493,71.0897556 C72.2401434,70.5364251 71.9956907,69.9183523 71.9491276,69.2355189 C71.9025645,68.3643176 71.8792833,67.4460381 71.8792833,66.4806528 C71.8792833,64.926618 71.9840487,62.4660999 72.1935827,59.0990246 C72.4031168,55.8732251 72.4962416,53.412707 72.47296,51.7173963 C71.844358,51.6703043 70.9713127,51.7291684 69.853798,51.8939903 C68.5733123,52.0823581 67.6886264,52.1765406 67.1997137,52.1765406 C66.0589175,52.1765406 65.1276691,51.8704475 64.4059409,51.258252 C64.3463174,51.1276005 64.2930562,51.0103545 64.2461574,50.9065138 C64.1799171,50.9531364 64.1255937,50.9992472 64.0829109,51.0463392 C61.4753765,53.824765 60.1716289,57.4154733 60.1716289,61.8185718 C60.1716289,63.8906182 60.4975658,65.8449053 61.1494494,67.6814919 C61.6849252,69.1884347 62.0690651,70.1773511 62.3018807,70.6482707 C62.8839196,71.8020238 63.5939965,72.6261208 64.4321325,73.1205864 C64.7813559,73.2854082 65.130574,73.4384548 65.4797973,73.5797307 C65.8523022,73.7916445 66.0385519,74.0859649 66.0385519,74.4627006 C66.0385519,74.8394363 65.9163256,75.1808479 65.6718692,75.4869457 C65.4274129,75.7930434 65.1654993,75.9107716 64.8861206,75.8401336 C64.5834604,75.7930417 64.1178362,75.6399951 63.4892342,75.3809893 C62.3717194,74.7217018 61.1610966,73.3207369 59.8573294,71.1780526 C59.5313876,70.636495 59.1996304,70.0772864 58.8620478,69.5004098 C58.5244653,68.9235333 58.2741923,68.3760974 58.1112214,67.8580858 C57.9948136,67.4813501 57.7969233,65.9626571 57.5175447,63.3019612 C57.4244184,62.4778519 57.377856,61.6773005 57.377856,60.9002831 C57.377856,56.7326444 58.5768382,53.1890274 60.9748386,50.2693257 C62.371732,48.574015 63.8268075,47.7263724 65.3401087,47.7263724 C65.9919923,47.7263724 66.5856631,47.9265102 67.1211389,48.3267919 C67.2841098,48.4445218 67.365594,48.7035237 67.365594,49.1038054 L67.3598811,49.2161203 C67.8019442,49.165701 68.284028,49.1164898 68.8061331,49.0684866 C70.8316286,48.8565728 72.3449071,48.4798428 73.3460141,47.9382852 C74.1608685,48.197291 75.0921169,48.3267919 76.1397869,48.3267919 C77.187457,48.3267919 78.1885489,48.197291 79.1430928,47.9382852 C79.4224714,47.9147392 80.1325483,47.7499198 81.2733446,47.443822 C82.1114806,47.2319082 82.8099168,47.1612713 83.3686742,47.2319093 Z M49.9307052,56.2028833 C50.1402392,57.1447226 50.3614107,58.0865477 50.5942263,59.028387 C50.8270418,60.1115021 50.9783697,61.0886457 51.0482144,61.959847 C49.4650685,61.959847 48.4872578,61.9951654 48.1147529,62.0658034 C48.6269471,60.1114869 49.2322585,58.1571998 49.9307052,56.2028833 Z" id="react" fill="#FFFFFF" transform="translate(51.152981, 61.532710) rotate(-20.000000) translate(-51.152981, -61.532710) "></path>
                <g id="react-logo-official" transform="translate(62.879820, 2.539067)">
                    <ellipse id="Oval" fill="#00D8FF" cx="8.00889686" cy="7.25324961" rx="1.48195797" ry="1.49793526"></ellipse>
                    <path d="M8.00889686,4.20763404 C9.99862639,4.20763404 11.8470342,4.49622104 13.2407252,4.98119053 C14.919925,5.56550084 15.9523653,6.45123751 15.9523653,7.25324961 C15.9523653,8.08903221 14.8581559,9.02994827 13.054945,9.63384607 C11.6916217,10.0904197 9.89768652,10.3287242 8.00889686,10.3287242 C6.0723993,10.3287242 4.23864358,10.1050207 2.86028412,9.6287999 C1.1160361,9.02618604 0.0654284189,8.07305766 0.0654284189,7.25324961 C0.0654284189,6.45774677 1.05119471,5.57887766 2.70679171,4.99543326 C4.10568182,4.50249143 5.99972968,4.20763404 8.00889686,4.20763404 L8.00889686,4.20763404 Z" id="Shape" stroke="#00D8FF"></path>
                    <path d="M5.38590775,5.73922036 C6.37991585,3.99700882 7.55066471,2.52269201 8.66253938,1.54463138 C10.0022008,0.366217026 11.2770799,-0.0953131698 11.9644281,0.305334573 C12.680726,0.722852638 12.9405051,2.15103733 12.5572172,4.03161537 C12.267425,5.4534401 11.5754684,7.143279 10.631886,8.79713784 C9.66446432,10.4927694 8.55666624,11.9866438 7.45991631,12.9556572 C6.07207435,14.1819056 4.73037465,14.6256399 4.02775399,14.2160941 C3.34598893,13.8186712 3.08523498,12.5164914 3.41230733,10.7753547 C3.68865866,9.30420297 4.38218084,7.49848138 5.38590775,5.73922036 L5.38590775,5.73922036 Z" id="Shape" stroke="#00D8FF"></path>
                    <path d="M5.3884187,8.80155696 C4.39154518,7.06101752 3.71255692,5.29948722 3.42952944,3.83735287 C3.08851398,2.07570313 3.32962349,0.728764715 4.01632182,0.326952472 C4.73191075,-0.0917898106 6.08578114,0.393956015 7.50623581,1.66881486 C8.58021002,2.63266262 9.68301575,4.08252492 10.6293455,5.73480123 C11.5995735,7.42879053 12.3267718,9.14496505 12.6096221,10.5893333 C12.9675642,12.4170908 12.6778311,13.813625 11.9758898,14.2243651 C11.2947747,14.6229227 10.0484021,14.2009556 8.71937529,13.0449654 C7.59645248,12.0682484 6.39507012,10.559116 5.3884187,8.80155696 L5.3884187,8.80155696 Z" id="Shape" stroke="#00D8FF"></path>
                </g>
            </g>
        </g>
        <text id="&amp;" font-family="InterUI-Regular, Inter UI" font-size="36" font-weight="normal" fill="#FFFFFF">
            <tspan x="382" y="69">&amp;</tspan>
        </text>
    </g>
</svg>