<?xml version="1.0" encoding="UTF-8"?>
<svg width="13px" height="8px" viewBox="0 0 13 8" version="1.1" xmlns="http://www.w3.org/2000/svg" xmlns:xlink="http://www.w3.org/1999/xlink">
    <!-- Generator: Sketch 61.2 (89653) - https://sketch.com -->
    <title>Combined Shape</title>
    <desc>Created with Sketch.</desc>
    <g id="About" stroke="none" stroke-width="1" fill="none" fill-rule="evenodd">
        <g id="schedule-2020-v5.0---annotated" transform="translate(-1288.000000, -484.000000)" fill="#FF632D" fill-rule="nonzero">
            <g id="at-a-glance" transform="translate(297.000000, 388.000000)">
                <g id="button" transform="translate(798.000000, 77.000000)">
                    <g id="Group-5">
                        <path d="M205.129214,19.3044232 C205.457396,19.5388385 205.637114,19.8787407 205.66837,20.3241299 C205.699625,20.769519 205.562883,21.1484905 205.258143,21.4610443 L199.948635,26.7705517 C199.792358,26.9268286 199.600919,27.004967 199.374318,27.004967 L199.336,27.001 L199.298413,27.004967 C199.117132,27.004967 198.958355,26.9549584 198.822081,26.8549412 L198.724095,26.7705517 L193.414588,21.4610443 C193.109848,21.1484905 192.973106,20.769519 193.004361,20.3241299 C193.035617,19.8787407 193.215335,19.5388385 193.543516,19.3044232 C193.871698,19.062194 194.219414,18.9645209 194.586665,19.011404 C194.946102,19.0582871 195.254748,19.2145639 195.512605,19.4802347 L195.512605,19.4802347 L198.735816,22.6917248 C198.75673,22.7126383 198.778088,22.7322191 198.79989,22.7504672 L198.8,22.6917248 C198.949878,22.8490968 199.128505,22.9310047 199.335879,22.9374483 C199.544226,22.9310047 199.722852,22.8490968 199.872731,22.6917248 L199.872731,22.6917248 L199.87321,22.7501585 C199.894884,22.7319984 199.916119,22.7125204 199.936915,22.6917248 L203.160125,19.4802347 C203.417982,19.2145639 203.726629,19.0582871 204.086066,19.011404 C204.453317,18.9645209 204.801033,19.062194 205.129214,19.3044232 Z" id="Combined-Shape"></path>
                    </g>
                </g>
            </g>
        </g>
    </g>
</svg>