<?xml version="1.0" encoding="UTF-8"?>
<svg width="10px" height="6px" viewBox="0 0 10 6" version="1.1" xmlns="http://www.w3.org/2000/svg" xmlns:xlink="http://www.w3.org/1999/xlink">
    <!-- Generator: Sketch 61.2 (89653) - https://sketch.com -->
    <title>Combined Shape</title>
    <desc>Created with Sketch.</desc>
    <g id="About" stroke="none" stroke-width="1" fill="none" fill-rule="evenodd">
        <g id="schedule-2020-v5.0---annotated" transform="translate(-680.000000, -792.000000)" fill="#36A7EE" fill-rule="nonzero">
            <g id="at-a-glance" transform="translate(297.000000, 388.000000)">
                <g id="Group-Copy" transform="translate(0.000000, 222.000000)">
                    <g id="lee-copy" transform="translate(227.000000, 120.000000)">
                        <g id="Group-4" transform="translate(81.000000, 0.000000)">
                            <g id="Group-8">
                                <path d="M84.0987922,62.2283646 C84.3449792,62.4042125 84.4797959,62.6591919 84.5032423,62.9933028 C84.5266887,63.3274138 84.4241108,63.6117011 84.1955085,63.846165 L80.2125544,67.8291191 C80.0953225,67.946351 79.9517134,68.004967 79.7817271,68.004967 L79.753,68.002 L79.7247868,68.004967 C79.5887978,68.004967 79.4696902,67.9674528 79.3674639,67.8924244 L79.2939595,67.8291191 L75.3110054,63.846165 C75.0824031,63.6117011 74.9798252,63.3274138 75.0032716,62.9933028 C75.026718,62.6591919 75.1615347,62.4042125 75.4077217,62.2283646 C75.6539087,62.0466551 75.9147497,61.9733852 76.1902447,62.0085548 C76.4598781,62.0437243 76.6914111,62.1609562 76.8848438,62.3602505 L76.8848438,62.3602505 L79.3027519,64.7693663 C79.3180986,64.784713 79.3337643,64.799103 79.3497488,64.8125364 L79.3508998,64.7693663 C79.4634425,64.887536 79.5975933,64.9489843 79.7533523,64.9537111 C79.9093864,64.9487708 80.0432668,64.8873309 80.1556141,64.7693663 L80.1556141,64.7693663 L80.156134,64.8130662 C80.1723373,64.7994815 80.1882133,64.7849149 80.203762,64.7693663 L82.6216701,62.3602505 C82.8151028,62.1609562 83.0466358,62.0437243 83.3162692,62.0085548 C83.5917642,61.9733852 83.8526052,62.0466551 84.0987922,62.2283646 Z" id="Combined-Shape"></path>
                            </g>
                        </g>
                    </g>
                </g>
            </g>
        </g>
    </g>
</svg>