<?xml version="1.0" encoding="UTF-8"?>
<svg width="26px" height="24px" viewBox="0 0 26 24" version="1.1" xmlns="http://www.w3.org/2000/svg" xmlns:xlink="http://www.w3.org/1999/xlink">
    <!-- Generator: Sketch 61.2 (89653) - https://sketch.com -->
    <title>sound-on-icon</title>
    <desc>Created with Sketch.</desc>
    <g id="Speaker-profile-+-photos" stroke="none" stroke-width="1" fill="none" fill-rule="evenodd">
        <g id="PODCAST-fixed-player" transform="translate(-880.000000, -78.000000)" fill="#FFFFFF" fill-rule="nonzero">
            <g id="Group-2" transform="translate(32.000000, 52.000000)">
                <g id="sound-on-icon" transform="translate(848.000000, 26.000000)">
                    <path d="M14.64456,0.1352925 C14.35224,-0.0041475 14.00784,0.0328125 13.75584,0.2360925 L5.58432,6.7729725 L1.68,6.7729725 C0.75432,6.7729725 0,7.5272925 0,8.4529725 L0,15.1729725 C0,16.1003325 0.75432,16.8529725 1.68,16.8529725 L5.58432,16.8529725 L13.75416,23.3898525 C13.90704,23.5108125 14.09352,23.5729725 14.28,23.5729725 C14.40432,23.5729725 14.52864,23.5444125 14.64456,23.4889725 C14.9352,23.3495325 15.12,23.0555325 15.12,22.7329725 L15.12,0.8929725 C15.12,0.5704125 14.9352,0.2764125 14.64456,0.1352925 Z" id="Path"></path>
                    <path d="M19.37208,5.8724925 C19.04112,5.5465725 18.51024,5.5516125 18.18432,5.8792125 C17.8584,6.2101725 17.86176,6.7410525 18.19104,7.0686525 C19.46112,8.3219325 20.16,10.0069725 20.16,11.8129725 C20.16,13.6189725 19.46112,15.3040125 18.19104,16.5572925 C17.86176,16.8815325 17.8584,17.4140925 18.18432,17.7450525 C18.34896,17.9113725 18.56568,17.9936925 18.78072,17.9936925 C18.99408,17.9936925 19.20744,17.9130525 19.37208,17.7500925 C20.96472,16.1826525 21.84,14.0725725 21.84,11.8129725 C21.84,9.5533725 20.96472,7.4432925 19.37208,5.8724925 Z" id="Path"></path>
                    <path d="M21.74256,3.5053725 C21.4116,3.1777725 20.88072,3.1811325 20.55312,3.5104125 C20.2272,3.8396925 20.23056,4.3722525 20.55816,4.6981725 C22.46832,6.5915325 23.52,9.1182525 23.52,11.8129725 C23.52,14.5076925 22.46832,17.0327325 20.55816,18.9260925 C20.23056,19.2536925 20.2272,19.7862525 20.55312,20.1155325 C20.71944,20.2801725 20.93448,20.3624925 21.14952,20.3624925 C21.36288,20.3624925 21.57792,20.2818525 21.74256,20.1188925 C23.9736,17.9096925 25.2,14.9596125 25.2,11.8129725 C25.2,8.6663325 23.9736,5.7162525 21.74256,3.5053725 Z" id="Path"></path>
                </g>
            </g>
        </g>
    </g>
</svg>