<?xml version="1.0" encoding="UTF-8"?>
<svg width="21px" height="20px" viewBox="0 0 21 20" version="1.1" xmlns="http://www.w3.org/2000/svg" xmlns:xlink="http://www.w3.org/1999/xlink">
    <!-- Generator: Sketch 61 (89581) - https://sketch.com -->
    <title>Shape Copy</title>
    <desc>Created with Sketch.</desc>
    <g id="Home" stroke="none" stroke-width="1" fill="none" fill-rule="evenodd">
        <g id="landing-2020-v3.0" transform="translate(-1104.000000, -934.000000)" fill="#747474" fill-rule="nonzero">
            <g id="speakers" transform="translate(296.000000, 545.000000)">
                <g id="lee-copy" transform="translate(597.000000, 231.000000)">
                    <g id="Group-8" transform="translate(211.900000, 19.800000)">
                        <g id="Group-4" transform="translate(0.000000, 138.400000)">
                            <path d="M9.9919457,0.00166611883 C11.805231,0.00166611883 13.4772176,0.448325024 15.0079058,1.34164283 C16.5385939,2.23496064 17.7508745,3.44724122 18.6447475,4.97848455 C19.5386205,6.50972788 19.9852794,8.18171457 19.9847247,9.99444462 C19.9847247,12.1719415 19.3492971,14.1304117 18.0784428,15.8698553 C16.8075886,17.6092988 15.1658604,18.8129738 13.1532581,19.4808801 C12.9189634,19.5241858 12.7454632,19.4939274 12.6327575,19.3901048 C12.5200518,19.2862823 12.4636989,19.1560878 12.4636989,18.9995212 C12.4636989,18.9734268 12.4659197,18.6416944 12.4703613,18.0043241 C12.4748029,17.3669538 12.4770237,16.7834379 12.4770237,16.2537765 C12.4770237,15.4120923 12.2516123,14.7960972 11.8007893,14.4057912 C12.2954731,14.3536023 12.7401888,14.2755967 13.1349365,14.1717741 C13.5296841,14.0679516 13.937479,13.898893 14.358321,13.6645984 C14.7791631,13.4303037 15.1306051,13.141877 15.412647,12.7993182 C15.6946889,12.4567594 15.924542,12.0012173 16.1022062,11.4326918 C16.2798704,10.8641664 16.3687025,10.2112505 16.3687025,9.47394403 C16.3687025,8.44182606 16.0261437,7.54823065 15.3410261,6.7931578 C15.6619321,6.00366251 15.6272321,5.11895031 15.236926,4.1390212 C14.9937482,4.06073791 14.6423062,4.10848516 14.1826,4.28226296 C13.7228939,4.45604076 13.3239823,4.64702977 12.9858651,4.85523001 L12.4911813,5.16753036 C11.6844748,4.94211891 10.8516739,4.82941318 9.9927785,4.82941318 C9.13388313,4.82941318 8.30108219,4.94211891 7.49437568,5.16753036 C7.35557552,5.07203585 7.17124891,4.95488852 6.94139585,4.81608836 C6.71154279,4.67728821 6.34927438,4.51017282 5.85459062,4.3147422 C5.35990686,4.11931158 4.99125364,4.06073791 4.74863097,4.1390212 C4.35832493,5.11950551 4.32362489,6.00421771 4.64453085,6.7931578 C3.95941328,7.54767545 3.61685449,8.44127086 3.61685449,9.47394403 C3.61685449,10.2112505 3.70568659,10.8619456 3.88335079,11.4260294 C4.06101499,11.9901133 4.28864725,12.4456554 4.56624756,12.7926558 C4.84384788,13.1396562 5.19306907,13.4303037 5.61391115,13.6645984 C6.03475322,13.898893 6.44254809,14.0679516 6.83729573,14.1717741 C7.23204338,14.2755967 7.67675908,14.3536023 8.17144284,14.4057912 C7.83332566,14.717814 7.62068382,15.1644729 7.53351732,15.7457679 C7.35141151,15.8323792 7.15625849,15.8973377 6.94805826,15.9406433 C6.73985802,15.983949 6.49251614,16.0056018 6.20603262,16.0056018 C5.91954909,16.0056018 5.63556397,15.9123281 5.35407725,15.7257807 C5.07259054,15.5392333 4.83191106,15.2680178 4.63203884,14.9121342 C4.46714425,14.6345339 4.25672321,14.4091224 4.00077572,14.2358998 C3.74482823,14.0626772 3.53024319,13.9585771 3.3570206,13.9235995 L3.0963539,13.8844578 C2.9142481,13.8844578 2.78849515,13.9038898 2.71909507,13.9427539 C2.649695,13.9816179 2.62804217,14.031586 2.6541366,14.0926581 C2.68023103,14.1537301 2.71937268,14.2145246 2.77156153,14.2750415 C2.82375039,14.3355583 2.88010326,14.3874696 2.94062013,14.4307752 L3.03139543,14.4957337 C3.22238444,14.582345 3.41115266,14.7472396 3.59770007,14.9904175 C3.78424748,15.2335953 3.92082683,15.4548428 4.00743813,15.6541598 L4.13735508,15.9531354 C4.25006081,16.2829245 4.44104982,16.5496984 4.71032213,16.7534571 C4.97959443,16.9572157 5.27024196,17.0874102 5.58226471,17.1440407 C5.89428747,17.2006712 6.19576141,17.2309296 6.48668654,17.234816 C6.77761166,17.2387024 7.01829114,17.2234344 7.20872495,17.189012 L7.50770049,17.1365455 C7.50770049,17.4663347 7.50992129,17.8502559 7.5143629,18.2883092 C7.5188045,18.7263625 7.52102531,18.962878 7.52102531,18.9978556 C7.52102531,19.153867 7.46467244,19.2840615 7.35196671,19.3884392 C7.23926099,19.492817 7.06576079,19.5230754 6.83146613,19.4792145 C4.81886385,18.8113082 3.17713559,17.6076332 1.90628136,15.8681897 C0.635427119,14.1287461 0,12.1702759 0,9.99277902 C0,8.17949377 0.446658905,6.50750708 1.33997672,4.97681895 C2.23329453,3.44613081 3.4455751,2.23385024 4.97681843,1.33997723 C6.50806176,0.446104221 8.18004845,-0.000554683681 9.9927785,7.39408534e-14 L9.9919457,0.00166611883 Z M3.78508028,14.3541575 C3.81117471,14.2936407 3.78091628,14.2417294 3.69430498,14.1984238 C3.60769368,14.1723293 3.55134082,14.180935 3.52524639,14.2242406 C3.49915196,14.2847575 3.52941039,14.3366687 3.61602169,14.3799744 C3.69430498,14.4321632 3.75065784,14.4235576 3.78508028,14.3541575 Z M4.18815594,14.7972077 C4.2486728,14.753902 4.24006719,14.6845019 4.16233911,14.5890074 C4.07572781,14.5107241 4.00632773,14.4976769 3.95413887,14.5498658 C3.893622,14.5931714 3.90222761,14.6625715 3.9799557,14.758066 C4.066567,14.8446773 4.13596708,14.8577245 4.18815594,14.7972077 Z M4.57873958,15.3826667 C4.65702287,15.3221498 4.65702287,15.2397026 4.57873958,15.1353248 C4.5093395,15.0226191 4.43549782,14.9965247 4.35721453,15.0570415 C4.27893124,15.1003472 4.27893124,15.1783529 4.35721453,15.2910586 C4.43549782,15.4037643 4.5093395,15.4340228 4.57873958,15.3818339 L4.57873958,15.3826667 Z M5.125057,15.9289841 C5.19445707,15.8595841 5.17696825,15.7771368 5.07259054,15.6816423 C4.96876802,15.5778197 4.88187912,15.5647725 4.81192384,15.6425006 C4.73364055,15.7119007 4.75112937,15.794348 4.8643903,15.8898425 C4.96821282,15.993665 5.05510172,16.0067122 5.125057,15.9289841 Z M5.86708263,16.2546093 C5.89317706,16.1591148 5.8368242,16.0897147 5.69802404,16.0464091 C5.5681071,16.0114314 5.4856598,16.0416899 5.45068216,16.1371844 C5.41570452,16.2326789 5.47205739,16.2976373 5.61974076,16.3320598 C5.7496577,16.3842486 5.832105,16.3581542 5.86708263,16.2537765 L5.86708263,16.2546093 Z M6.68655876,16.3195678 C6.68655876,16.206862 6.61271708,16.1591148 6.46503371,16.176326 C6.32623355,16.176326 6.25683348,16.2240733 6.25683348,16.3195678 C6.25683348,16.4322735 6.33067516,16.4800208 6.47835853,16.4628095 C6.61715868,16.4628095 6.68655876,16.4150623 6.68655876,16.3195678 Z M7.44107641,16.1896508 C7.4238652,16.0941563 7.34585951,16.0550147 7.20705935,16.0722259 C7.06825919,16.0983203 7.00746472,16.1632788 7.02467594,16.2671013 C7.04188716,16.3709238 7.11989285,16.4056239 7.25869301,16.3712014 C7.39749317,16.336779 7.45828763,16.2759845 7.44107641,16.188818 L7.44107641,16.1896508 Z" id="Shape-Copy"></path>
                        </g>
                    </g>
                </g>
            </g>
        </g>
    </g>
</svg>