<?xml version="1.0" encoding="UTF-8"?>
<svg width="22px" height="18px" viewBox="0 0 22 18" version="1.1" xmlns="http://www.w3.org/2000/svg" xmlns:xlink="http://www.w3.org/1999/xlink">
    <!-- Generator: Sketch 61 (89581) - https://sketch.com -->
    <title>Shape</title>
    <desc>Created with Sketch.</desc>
    <g id="Home" stroke="none" stroke-width="1" fill="none" fill-rule="evenodd">
        <g id="landing-2020-v3.0" transform="translate(-1105.000000, -906.000000)" fill="#747474" fill-rule="nonzero">
            <g id="speakers" transform="translate(296.000000, 545.000000)">
                <g id="lee-copy" transform="translate(597.000000, 231.000000)">
                    <g id="Group-8" transform="translate(211.900000, 19.800000)">
                        <g id="Group-5" transform="translate(0.000000, 108.500000)">
                            <path d="M21.5935675,4.60613031 C20.981494,5.46863677 20.241686,6.20354184 19.3741434,6.81084554 C19.383497,6.93422171 19.3881737,7.11900428 19.3881737,7.36519326 C19.3881737,8.50938047 19.2145483,9.65159591 18.8672974,10.7918396 C18.5200466,11.9320833 17.9924474,13.0258496 17.2844999,14.0731387 C16.5765524,15.1204277 15.7338552,16.0468757 14.7564083,16.8524826 C13.7789614,17.6580896 12.6007053,18.3006034 11.22164,18.780024 C9.84257462,19.2594446 8.36734301,19.4994366 6.79594512,19.5 C4.3207596,19.5 2.05544456,18.8617114 1.31628042e-12,17.5851343 C0.319774794,17.620626 0.676086927,17.6383719 1.0689364,17.6383719 C3.12438096,17.6383719 4.95592471,17.0310682 6.56356764,15.8164608 C5.60424326,15.7989966 4.74546963,15.5150624 3.98724677,14.9646582 C3.2290239,14.414254 2.70843989,13.7123056 2.42549473,12.8588129 C2.72714701,12.9027551 3.00570768,12.9247262 3.26117676,12.9247262 C3.65402623,12.9247262 4.04219893,12.8762771 4.42569484,12.779379 C3.40264934,12.5771322 2.55556766,12.0864443 1.88444981,11.3073154 C1.21333196,10.5281864 0.87777304,9.62370952 0.87777304,8.59388469 L0.87777304,8.54064703 C1.49861551,8.87528376 2.16534888,9.05584113 2.87797314,9.08231912 C2.2752532,8.6947264 1.795591,8.18854609 1.43898657,7.56377819 C1.08238214,6.93901028 0.904372223,6.2612864 0.904956821,5.53060653 C0.904956821,4.75598447 1.10605834,4.03854359 1.50826137,3.37828391 C2.61373511,4.68978949 3.95889379,5.73961365 5.54373742,6.52775639 C7.12858105,7.31589913 8.82537509,7.7539127 10.6341195,7.84179709 C10.5610449,7.50716036 10.5245075,7.18153741 10.5245075,6.86492825 C10.5245075,5.68524926 10.9562327,4.67964898 11.8196831,3.84812741 C12.6831335,3.01660583 13.7266399,2.60056336 14.9502024,2.6 C16.2293015,2.6 17.3070069,3.04899912 18.1833184,3.94699735 C19.1788879,3.76221478 20.1151206,3.41884594 20.9920168,2.91689084 C20.6541195,3.92925146 20.0055086,4.71260563 19.0461842,5.26695335 C19.8956043,5.17906895 20.7450244,4.95907629 21.5944444,4.60697535 L21.5935675,4.60613031 Z" id="Shape"></path>
                        </g>
                    </g>
                </g>
            </g>
        </g>
    </g>
</svg>