<?xml version="1.0" encoding="UTF-8"?>
<svg width="20px" height="20px" viewBox="0 0 20 20" version="1.1" xmlns="http://www.w3.org/2000/svg" xmlns:xlink="http://www.w3.org/1999/xlink">
    <!-- Generator: Sketch 61.2 (89653) - https://sketch.com -->
    <title>icon-web-globe</title>
    <desc>Created with Sketch.</desc>
    <g id="Speaker-profile-+-photos" stroke="none" stroke-width="1" fill="none" fill-rule="evenodd">
        <g id="speaker-profile-2020-v5-ANNOTATED" transform="translate(-361.000000, -617.000000)" fill="#747474" fill-rule="nonzero">
            <g id="aside" transform="translate(361.000000, 346.000000)">
                <g id="Group-6" transform="translate(0.000000, 271.000000)">
                    <g id="icon-web-globe">
                        <path d="M17.0694788,2.93051981 C13.1625074,-0.976527686 6.83813171,-0.977152176 2.93053588,2.93051981 C-0.976552557,6.83756731 -0.977138017,13.1618619 2.93053588,17.0694948 C6.83750722,20.9765423 13.1618829,20.9771278 17.0694788,17.0694948 C20.9765672,13.1624473 20.9771136,6.83815277 17.0694788,2.93051981 Z M16.6516163,15.6443292 C16.1844971,15.226623 15.6848263,14.8569636 15.1581462,14.5383953 C15.5062609,13.3358996 15.712499,12.012643 15.7612483,10.6371244 L18.70061,10.6371244 C18.5677105,12.491198 17.8553225,14.2304434 16.6516163,15.6443292 Z M1.29936558,10.6371244 L4.23872727,10.6371244 C4.28747659,12.012643 4.49371472,13.3358996 4.84182938,14.5383953 C4.31514935,14.8569636 3.81547855,15.226623 3.34835934,15.6443292 C2.14465308,14.2304434 1.43230409,12.491198 1.29936558,10.6371244 Z M3.34839837,4.35568547 C3.81551758,4.77339163 4.31518838,5.14305104 4.84186841,5.46161932 C4.49375375,6.66411504 4.28751562,7.98737163 4.2387663,9.36289028 L1.29936558,9.36289028 C1.43230409,7.50885569 2.14465308,5.76961029 3.34839837,4.35568547 Z M9.36290948,5.59330878 C8.32383465,5.5189944 7.32195605,5.26307033 6.3931429,4.84087565 C6.93332755,3.44986182 7.92915638,1.7814961 9.36290948,1.36804428 L9.36290948,5.59330878 Z M9.36290948,6.86992373 L9.36290948,9.36292931 L5.5135084,9.36292931 C5.55761307,8.19934716 5.72247867,7.08201635 5.99666922,6.05968618 C7.05217597,6.52110669 8.18734435,6.79666317 9.36290948,6.86992373 Z M9.36290948,10.6371244 L9.36290948,13.1301299 C8.18734435,13.2033905 7.05217597,13.478947 5.99666922,13.9403675 C5.72247867,12.9180373 5.55761307,11.8007065 5.5135084,10.6371244 L9.36290948,10.6371244 Z M9.36290948,14.4067449 L9.36290948,18.6319704 C7.92923445,18.2185185 6.93340561,16.550348 6.3931429,15.159178 C7.32195605,14.7369833 8.32383465,14.4810593 9.36290948,14.4067449 Z M10.6371052,14.4067449 C11.67618,14.4810593 12.6780586,14.7369833 13.6068717,15.159178 C13.0666481,16.5502309 12.0708583,18.2185185 10.6371052,18.6319704 L10.6371052,14.4067449 Z M10.6371052,13.1301299 L10.6371052,10.6371244 L14.4865062,10.6371244 C14.4424016,11.8007065 14.277536,12.9180373 14.0033454,13.9403675 C12.9478387,13.478947 11.8126703,13.2033905 10.6371052,13.1301299 Z M10.6371052,9.36292931 L10.6371052,6.86992373 C11.8126703,6.79666317 12.9478387,6.52110669 14.0033454,6.05968618 C14.277536,7.08201635 14.4424016,8.19934716 14.4865062,9.36292931 L10.6371052,9.36292931 Z M10.6371052,5.59330878 L10.6371052,1.36808331 C12.0708583,1.78153513 13.0666871,3.44990085 13.6068717,4.84091468 C12.6780586,5.26307033 11.67618,5.5189944 10.6371052,5.59330878 Z M13.4988348,2.00416604 C14.3143809,2.36129661 15.0752451,2.84555006 15.7573062,3.44638809 C15.432649,3.73263898 15.0900767,3.99219289 14.7323605,4.22430825 C14.4146898,3.43776232 14.0088878,2.6733858 13.4988348,2.00416604 Z M5.2676151,4.22430825 C4.90989889,3.99219289 4.56736562,3.73263898 4.24266937,3.44638809 C4.92473055,2.84555006 5.68559468,2.36129661 6.5011408,2.00416604 C5.99108783,2.67346386 5.58528582,3.43784038 5.2676151,4.22430825 Z M5.26765413,15.7757454 C5.58528582,16.5622523 5.99116589,17.3266679 6.50117983,17.9958876 C5.68563371,17.6387571 4.92476958,17.1545036 4.2427084,16.5536656 C4.56736562,16.2674147 4.90993792,16.0078608 5.26765413,15.7757454 L5.26765413,15.7757454 Z M14.7323605,15.7757454 C15.0900767,16.0078608 15.432649,16.2674147 15.7573062,16.5536265 C15.0752451,17.1544646 14.3143809,17.638718 13.4988348,17.9958486 C14.0088487,17.3267069 14.4146898,16.5622914 14.7323605,15.7757454 Z M15.7612874,9.36292931 C15.712538,7.98741066 15.5062999,6.66411504 15.1581853,5.46165835 C15.6848653,5.14309007 16.1844971,4.77343066 16.6516553,4.3557245 C17.8553616,5.76961029 18.5677105,7.50885569 18.7006491,9.36292931 L15.7612874,9.36292931 Z" id="Shape"></path>
                    </g>
                </g>
            </g>
        </g>
    </g>
</svg>