<?xml version="1.0" encoding="UTF-8"?>
<svg width="23px" height="21px" viewBox="0 0 23 21" version="1.1" xmlns="http://www.w3.org/2000/svg" xmlns:xlink="http://www.w3.org/1999/xlink">
    <!-- Generator: Sketch 61.2 (89653) - https://sketch.com -->
    <title>Shape</title>
    <desc>Created with Sketch.</desc>
    <g id="Home" stroke="none" stroke-width="1" fill="none" fill-rule="evenodd">
        <g id="HOME-2020-v5.0-annotated" transform="translate(-24.000000, -156.000000)" fill="#36A7EE" fill-rule="nonzero">
            <g id="SideNav">
                <g id="active-page" transform="translate(24.000000, 144.000000)">
                    <path d="M22.6578947,22.2523461 C22.6578947,20.7273976 20.7782039,19.2822156 17.8963192,18.3860151 C18.5613695,15.4018082 18.2657916,13.0275807 16.9634014,12.2674525 C16.6632051,12.0891508 16.3122063,12.0046921 15.9288787,12.0046921 L15.9288787,13.0510414 C16.1413253,13.0510414 16.3122063,13.0932708 16.4553769,13.1730373 C17.0834799,13.5390249 17.3559658,14.9325933 17.1435192,16.7249943 C17.0927168,17.1660563 17.0095855,17.6305791 16.9079806,18.1044862 C16.0027732,17.879263 15.0144345,17.7056535 13.9752934,17.5930419 C13.3518087,16.7249943 12.705232,15.9367132 12.0540369,15.2469673 C13.559637,13.8252461 14.9728689,13.0463493 15.9334971,13.0463493 L15.9334971,12 C15.9334971,12 15.9334971,12 15.9334971,12 C14.6634357,12 13.00081,12.9196612 11.3197106,14.514992 C9.63861115,12.9290455 7.97598537,12.0187686 6.705924,12.0187686 L6.705924,13.0651179 C7.66193383,13.0651179 9.07978415,13.8393225 10.5853842,15.2516594 C9.93880748,15.9414054 9.29223078,16.7249943 8.67798292,17.5930419 C7.6342234,17.7056535 6.64588474,17.879263 5.74067737,18.1091783 C5.63445405,17.6399634 5.55594117,17.1848249 5.50052031,16.748455 C5.28345527,14.956054 5.55132276,13.5624857 6.17480743,13.1918059 C6.31335958,13.1073472 6.49347737,13.06981 6.705924,13.06981 L6.705924,12.0234607 C6.705924,12.0234607 6.705924,12.0234607 6.705924,12.0234607 C6.31797799,12.0234607 5.96697921,12.1079194 5.66216448,12.2862211 C4.36439269,13.0463493 4.07343318,15.4158846 4.74310189,18.3907073 C1.87045401,19.2915999 -1.24344979e-14,20.7320897 -1.24344979e-14,22.2523461 C-1.24344979e-14,23.7772946 1.87969082,25.2224765 4.76157551,26.118677 C4.0965252,29.102884 4.39210312,31.4771115 5.69449332,32.2372396 C5.99468964,32.4155413 6.34568842,32.5 6.73363443,32.5 C8.0036958,32.5 9.66632158,31.5803388 11.347421,29.985008 C13.0285204,31.5709545 14.6911462,32.4812314 15.9612075,32.4812314 C16.3491536,32.4812314 16.7001523,32.3967727 17.0049671,32.218471 C18.3027389,31.4583429 18.5936984,29.0888075 17.9240297,26.1139849 C20.7874407,25.2177844 22.6578947,23.7726024 22.6578947,22.2523461 Z M16.6332522,19.1661255 C16.4677822,19.7820018 16.2620627,20.4169749 16.0295102,21.0519481 C15.8461515,20.6700093 15.6538485,20.2880706 15.4436568,19.9061318 C15.2379373,19.5241931 15.0188013,19.1518028 14.7996653,18.788961 C15.4347125,18.88922 16.0473988,19.01335 16.6332522,19.1661255 Z M14.5056366,24.1019741 C14.1480872,24.7317385 13.7813698,25.3288486 13.4009005,25.8839743 C12.7178894,25.9446183 12.0257104,25.9772727 11.3289474,25.9772727 C10.6367683,25.9772727 9.94458929,25.9446183 9.26616215,25.8886392 C8.88569288,25.3335135 8.51439154,24.7410684 8.15684211,24.1159688 C7.8084606,23.504864 7.49216687,22.8844294 7.20337694,22.2593298 C7.4875829,21.6342303 7.8084606,21.0091307 8.15225814,20.3980259 C8.50980758,19.7682615 8.87652495,19.1711514 9.25699422,18.6160257 C9.94000532,18.5553817 10.6321844,18.5227273 11.3289474,18.5227273 C12.0211264,18.5227273 12.7133054,18.5553817 13.3917326,18.6113608 C13.7722019,19.1664865 14.1435032,19.7589316 14.5010526,20.3840312 C14.8494341,20.995136 15.1657279,21.6155706 15.4545178,22.2406702 C15.1657279,22.8657697 14.8494341,23.4908693 14.5056366,24.1019741 Z M16.1061914,23.4480519 C16.3636819,24.0824458 16.5830257,24.7168396 16.7642227,25.3322964 C16.1395698,25.4837934 15.4815384,25.611619 14.7996653,25.711039 C15.0333142,25.3464992 15.266963,24.9724909 15.4863068,24.589014 C15.7056505,24.2102714 15.9106893,23.8267945 16.1061914,23.4480519 Z M11.4015377,28.5064935 C10.9610221,28.0672078 10.5205066,27.5775873 10.0847277,27.0422078 C10.5110331,27.0605114 10.946812,27.074239 11.3873275,27.074239 C11.8325798,27.074239 12.2730954,27.0650873 12.7041375,27.0422078 C12.2778321,27.5775873 11.8373165,28.0672078 11.4015377,28.5064935 Z M7.85822939,25.8441558 C7.22318223,25.7438969 6.61049589,25.6197668 6.02464253,25.4669913 C6.19011256,24.8511151 6.39583207,24.216142 6.62838455,23.5811688 C6.81174323,23.9631076 7.00404624,24.3450463 7.21423791,24.726985 C7.42442957,25.1089238 7.6390934,25.481314 7.85822939,25.8441558 Z M11.3873275,15.9935065 C11.8278431,16.4327922 12.2683587,16.9224127 12.7041375,17.4577922 C12.2778321,17.4394886 11.8420533,17.425761 11.4015377,17.425761 C10.9562854,17.425761 10.5157698,17.4349127 10.0847277,17.4577922 C10.5110331,16.9224127 10.9515487,16.4327922 11.3873275,15.9935065 Z M7.98919988,18.788961 C7.75555107,19.154265 7.52190226,19.5290574 7.30255848,19.9133382 C7.08321469,20.2928748 6.87817594,20.6724114 6.68267388,21.0519481 C6.42518335,20.4162242 6.20583957,19.7805004 6.02464253,19.1637534 C6.64929547,19.016683 7.30732682,18.8885894 7.98919988,18.788961 Z M3.72197611,24.6980359 C2.09818346,23.9866549 1.04776392,23.0538507 1.04776392,22.3142029 C1.04776392,21.5745551 2.09818346,20.6370397 3.72197611,19.9303698 C4.11645681,19.7560579 4.54763339,19.6005906 4.99257093,19.4545455 C5.25402907,20.3779274 5.59805294,21.3389985 6.02464253,22.3236251 C5.60263992,23.3035407 5.26320304,24.2599006 5.00633188,25.1785714 C4.55222038,25.0325263 4.1210438,24.8723478 3.72197611,24.6980359 Z M6.25235126,31.3083693 C5.63068164,30.9423596 5.36098673,29.5487073 5.57125734,27.7561983 C5.62153944,27.3151098 5.70381924,26.850559 5.80438344,26.3766234 C6.70031907,26.6018601 7.6785345,26.7754801 8.70703202,26.8880985 C9.32413054,27.7561983 9.96408456,28.5445269 10.6086097,29.2343144 C9.11843103,30.6561212 7.7196744,31.4350649 6.76888557,31.4350649 C6.56318607,31.4303725 6.38948426,31.3881406 6.25235126,31.3083693 Z M17.0834848,27.7459317 C17.298387,29.5434431 17.0331885,30.9409846 16.415916,31.3127212 C16.2787444,31.3974207 16.1004212,31.4350649 15.8900914,31.4350649 C14.943607,31.4350649 13.5398837,30.658653 12.0492851,29.2422893 C12.6894194,28.5505769 13.3295538,27.7647539 13.9376815,26.8942314 C14.9710413,26.7812987 15.9495324,26.6071942 16.8457206,26.3766234 C16.9508855,26.8518816 17.0331885,27.3083177 17.0834848,27.7459317 Z M17.6506252,19.4545455 C18.1043185,19.6005906 18.5350981,19.7607691 18.9383811,19.935081 C20.5606785,20.646462 21.6101308,21.5792662 21.6101308,22.318914 C21.6055481,23.0585618 20.5560958,23.9960772 18.9337983,24.702747 C18.5396808,24.8770589 18.1089013,25.0325263 17.6643735,25.1785714 C17.4031561,24.2551895 17.059449,23.2941184 16.6332522,22.3094917 C17.0548662,21.3295762 17.3939906,20.3732163 17.6506252,19.4545455 Z M11.2634621,20.1201299 C12.4207902,20.1201299 13.35899,21.0737052 13.35899,22.25 C13.35899,23.4262948 12.4207902,24.3798701 11.2634621,24.3798701 C10.1061341,24.3798701 9.16793429,23.4262948 9.16793429,22.25 C9.16793429,21.0737052 10.1061341,20.1201299 11.2634621,20.1201299 Z" id="Shape"></path>
                </g>
            </g>
        </g>
    </g>
</svg>