<svg width="143" height="143" viewBox="0 0 143 143" fill="none" xmlns="http://www.w3.org/2000/svg">
<rect width="143" height="143" rx="13" fill="#FF632D"/>
<path fill-rule="evenodd" clip-rule="evenodd" d="M67.194 21.2489L104.972 70.5H86.0781C81.0281 70.5 76.2788 68.0999 73.2835 64.0342L56.3639 41.0678C56.0727 40.6726 56.0351 40.1451 56.2672 39.7125L66.1295 21.3352C66.2955 21.0259 66.6808 20.9097 66.9902 21.0757C67.0696 21.1183 67.1391 21.1774 67.194 21.2489Z" fill="white"/>
<path fill-rule="evenodd" clip-rule="evenodd" d="M77.7778 121.751L40 72.5H58.8937C63.9437 72.5 68.693 74.9001 71.6883 78.9658L88.6079 101.932C88.8991 102.327 88.9367 102.855 88.7046 103.287L78.8423 121.665C78.6763 121.974 78.291 122.09 77.9816 121.924C77.9022 121.882 77.8327 121.823 77.7778 121.751Z" fill="white"/>
</svg>
