<?xml version="1.0" encoding="UTF-8"?>
<svg width="143px" height="143px" viewBox="0 0 143 143" version="1.1" xmlns="http://www.w3.org/2000/svg" xmlns:xlink="http://www.w3.org/1999/xlink">
    <!-- Generator: Sketch 61.2 (89653) - https://sketch.com -->
    <title>concurrent</title>
    <desc>Created with Sketch.</desc>
    <defs>
        <polygon id="path-1" points="0.018 0.0633 61.1619 0.0633 61.1619 26.4933 0.018 26.4933"></polygon>
    </defs>
    <g id="About" stroke="none" stroke-width="1" fill="none" fill-rule="evenodd">
        <g id="Artboard" transform="translate(-91.000000, -183.000000)">
            <g id="concurrent" transform="translate(91.000000, 183.000000)">
                <rect id="Rectangle" fill="#FF632D" x="0" y="0" width="143" height="143" rx="16"></rect>
                <path d="M53.452398,24.7213686 C53.3111664,24.1051572 53.2333767,23.4693646 53.2333767,22.8176994 C53.2333767,17.3955132 58.3555704,13 64.6741701,13 C69.7669766,13 74.0777371,15.857358 75.560582,19.8042859 C76.3369234,19.5213983 77.1907088,19.3646011 78.0875379,19.3646011 C81.5014694,19.3646011 84.2908358,21.634971 84.5335398,24.5113168 C84.5416645,24.5113168 84.5494434,24.5104267 84.5573953,24.5104267 C89.2201111,24.5104267 93,27.7540666 93,31.7551392 C93,35.7563602 89.2201111,39 84.5573953,39 L55.4426047,39 C50.7798889,39 47,35.7563602 47,31.7551392 C47,28.3432798 49.7518546,25.4902237 53.452398,24.7213686" id="Fill-1" fill="#FFFFFF"></path>
                <g id="Group" transform="translate(28.000000, 36.000000)">
                    <path d="M9.4332,55.6147 L41.3247,55.6147 L41.3247,61.8301 L44.2827,61.8301 L44.2827,55.6147 L76.1745,55.6147 L76.1745,61.8301 L79.1325,61.8301 L79.1325,54.1363 C79.1325,53.3209 78.4686,52.6579 77.6541,52.6579 L44.2827,52.6579 L44.28225,1.4784 C44.28225,0.663 43.61865,4.36983782e-13 42.80385,4.36983782e-13 C41.98815,4.36983782e-13 41.32425,0.663 41.32425,1.4784 L41.3247,52.6579 L7.9548,52.6579 C7.1388,52.6579 6.4752,53.3209 6.4752,54.1363 L6.4752,61.8301 L9.4332,61.8301 L9.4332,55.6147 Z" id="Fill-2" fill="#FFFFFF"></path>
                    <g id="Group-6" transform="translate(0.000000, 60.646900)">
                        <mask id="mask-2" fill="white">
                            <use xlink:href="#path-1"></use>
                        </mask>
                        <g id="Clip-4"></g>
                        <path d="M29.895,17.3481 L54.1164,17.3481 L54.1164,3.1731 L29.895,3.1731 L29.895,17.3481 Z M56.9364,19.6338 L56.9364,0.771 C56.9364,0.5403 56.7492,0.3531 56.5185,0.3531 L27.4929,0.3531 C27.2622,0.3531 27.075,0.5403 27.075,0.771 L27.075,19.6338 C26.8821,19.6338 22.8495,26.4933 22.8495,26.4933 L61.1619,26.4933 C61.1619,26.4933 57.1293,19.6338 56.9364,19.6338 L56.9364,19.6338 Z" id="Fill-3" fill="#FFFFFF" mask="url(#mask-2)"></path>
                        <path d="M13.2726,4.3356 L13.2726,23.6421 L2.8512,23.6421 L2.8512,2.9145 L13.2726,2.9145 L13.2726,4.3356 Z M13.917,0.0633 L2.2071,0.0633 C0.9882,0.0633 0,1.0515 0,2.2701 L0,24.2862 C0,25.5051 0.9882,26.4933 2.2071,26.4933 L13.9167,26.4933 C15.1359,26.4933 16.1241,25.5051 16.1241,24.2862 L16.1241,2.2701 C16.1241,1.0515 15.1359,0.0633 13.917,0.0633 L13.917,0.0633 Z" id="Fill-5" fill="#FFFFFF" mask="url(#mask-2)"></path>
                    </g>
                    <path d="M6.9444,83.8732 L9.1794,83.8732 C9.7296,83.8732 10.176,83.4274 10.176,82.8772 C10.176,82.327 9.7296,81.8812 9.1794,81.8812 L6.9444,81.8812 C6.3942,81.8812 5.9478,82.327 5.9478,82.8772 C5.9478,83.4274 6.3942,83.8732 6.9444,83.8732" id="Fill-7" fill="#FFFFFF"></path>
                    <path d="M66.5499502,81.410419 L88.4500498,81.410419 L88.4500498,66.5898567 L66.5499502,66.5898567 L66.5499502,81.410419 Z M89.2,64 L65.8,64 C64.8058875,64 64,64.8058875 64,65.8 L64,82.2 C64,83.1941125 64.8058875,84 65.8,84 L89.2,84 C90.1941125,84 91,83.1941125 91,82.2 L91,65.8 C91,64.8058875 90.1941125,64 89.2,64 Z" id="Fill-8" fill="#FFFFFF" transform="translate(77.500000, 74.000000) rotate(90.000000) translate(-77.500000, -74.000000) "></path>
                </g>
                <circle id="Oval" fill="#FF632D" cx="70.5" cy="64.5" r="14.5"></circle>
                <g id="bandwith" transform="translate(57.000000, 51.000000)" fill="#FFFFFF" fill-rule="nonzero">
                    <path d="M12.1156875,14.336 C12.5700313,13.6585313 13.125875,13.0556563 13.7589375,12.544 L8.064,12.544 L8.064,14.336 L12.1156875,14.336 Z" id="Path"></path>
                    <path d="M4.48,11.648 L15.138375,11.648 C16.2421875,11.0790313 17.4908125,10.752 18.816,10.752 C19.2327187,10.752 19.6389375,10.7935625 20.0390313,10.8550313 C20.1169063,10.6826563 20.16,10.4967187 20.16,10.304 L20.16,9.856 L7.8785,9.856 L6.9825,8.96 L3.136,8.96 L3.136,10.304 C3.136,11.0449063 3.73909374,11.648 4.48,11.648 Z M5.824,9.856 L6.72,9.856 L6.72,10.752 L5.824,10.752 L5.824,9.856 Z M4.032,9.856 L4.928,9.856 L4.928,10.752 L4.032,10.752 L4.032,9.856 Z" id="Shape"></path>
                    <path d="M10.752,18.816 C10.752,17.5275625 11.0632813,16.3135 11.6027187,15.232 L5.376,15.232 L5.376,14.336 L7.168,14.336 L7.168,12.544 L4.48,12.544 C3.24493747,12.544 2.24,11.5390625 2.24,10.304 L2.24,5.707625 C0.827093736,7.786625 0,10.2945937 0,12.992 C0,20.155625 5.82793747,25.984 12.992,25.984 C13.6233125,25.984 14.2513437,25.9330313 14.8728125,25.8429063 C12.4166875,24.4590937 10.752,21.8301563 10.752,18.816 Z" id="Path"></path>
                    <path d="M18.816,25.984 C20.6268125,25.984 22.2781563,25.3034687 23.541,24.192 L14.091,24.192 C15.3538437,25.3034687 17.0051875,25.984 18.816,25.984 Z" id="Path"></path>
                    <path d="M8.2495,8.96 L20.16,8.96 L20.16,2.16343747 C18.1041875,0.797781264 15.63975,0 12.992,0 C9.05318747,0 5.52081253,1.76421874 3.136,4.54190626 L3.136,8.064 L7.3535,8.064 L8.2495,8.96 Z M4.032,7.168 L4.032,6.272 L5.97668747,6.272 L7.70065626,2.24940626 L8.84975,6.272 L10.026625,6.272 L11.2,3.92634374 L12.3729375,6.272 L13.5848125,6.272 L15.68,1.03403126 L17.7751875,6.272 L19.264,6.272 L19.264,7.168 L17.1688125,7.168 L15.68,3.44596874 L14.1911875,7.168 L11.8190625,7.168 L11.2,5.92965626 L10.5809375,7.168 L8.17381253,7.168 L7.53090626,4.91859374 L6.56731253,7.168 L4.032,7.168 Z" id="Shape"></path>
                    <path d="M25.8429063,14.87325 C25.9334687,14.2517813 25.984,13.62375 25.984,12.992 C25.984,8.87359374 24.0552813,5.19903126 21.056,2.81706253 L21.056,10.304 C21.056,10.5588437 21.0098437,10.8066875 20.927375,11.0418437 C23.0313125,11.6143125 24.7950937,13.013 25.8429063,14.87325 L25.8429063,14.87325 Z" id="Path"></path>
                    <path d="M25.96125,18.368 C25.9203437,17.716125 25.7945625,17.0885313 25.5906875,16.4944063 L24.7819687,16.8295313 L24.43875,16.0015625 L25.2457187,15.6675313 C24.9622187,15.0909063 24.605,14.5586875 24.1839063,14.0815937 L23.5679063,14.6975937 L22.9344063,14.0640937 L23.5504063,13.4480937 C23.0733125,13.027 22.5410937,12.6697813 21.9640313,12.3858437 L21.6297813,13.1921563 L20.8020313,12.8491563 L21.1371563,12.0404375 C20.5434687,11.8365625 19.915875,11.7103437 19.264,11.669875 L19.264,12.544 L18.368,12.544 L18.368,11.67075 C17.716125,11.7116563 17.0885313,11.8374375 16.4948437,12.0413125 L16.8299687,12.8500313 L16.0022187,13.19325 L15.6679687,12.3867187 C15.0913437,12.6704375 14.5586875,13.0274375 14.0815937,13.4485313 L14.6975937,14.0645313 L14.0640937,14.6980313 L13.4480937,14.0820313 C13.027,14.559125 12.6697813,15.0913437 12.3862813,15.6679687 L13.19325,16.0022187 L12.8500313,16.8299687 L12.0413125,16.4948437 C11.8374375,17.0885313 11.7112187,17.716125 11.67075,18.3684375 L12.544,18.3684375 L12.544,19.2644375 L11.67075,19.2644375 C11.7116563,19.9163125 11.8374375,20.5443437 12.0413125,21.1380313 L12.8500313,20.8029063 L13.19325,21.630875 L12.3862813,21.9649063 C12.620125,22.44025 12.9005625,22.8878125 13.2293437,23.296875 L24.4026563,23.296875 C24.7314375,22.8878125 25.011875,22.44025 25.2457187,21.9649063 L24.43875,21.630875 L24.7819687,20.8029063 L25.5906875,21.1380313 C25.7945625,20.5443437 25.9207813,19.91675 25.96125,19.2644375 L25.088,19.2644375 L25.088,18.3684375 L25.96125,18.3684375 L25.96125,18.368 Z M20.16,18.816 C20.16,19.5569063 19.5569063,20.16 18.816,20.16 C18.0750937,20.16 17.472,19.5569063 17.472,18.816 C17.472,18.0750937 18.0750937,17.472 18.816,17.472 C18.907875,17.472 18.9969063,17.4814063 19.0839687,17.4989063 L21.1200937,14.1052187 L21.8883437,14.5663437 L19.8487187,17.9657187 C20.0399063,18.1986875 20.16,18.4920313 20.16,18.816 Z" id="Shape"></path>
                    <path d="M19.264,18.816 C19.264,19.0634063 19.0634063,19.264 18.816,19.264 C18.5685937,19.264 18.368,19.0634063 18.368,18.816 C18.368,18.5685937 18.5685937,18.368 18.816,18.368 C19.0634063,18.368 19.264,18.5685937 19.264,18.816 Z" id="Path"></path>
                </g>
            </g>
        </g>
    </g>
</svg>