<?xml version="1.0" encoding="UTF-8"?>
<svg width="143px" height="143px" viewBox="0 0 143 143" version="1.1" xmlns="http://www.w3.org/2000/svg" xmlns:xlink="http://www.w3.org/1999/xlink">
    <!-- Generator: Sketch 61.2 (89653) - https://sketch.com -->
    <title>concurrent</title>
    <desc>Created with Sketch.</desc>
    <defs>
        <polygon id="path-1" points="0.018 0.0633 61.1619 0.0633 61.1619 26.4933 0.018 26.4933"></polygon>
    </defs>
    <g id="About" stroke="none" stroke-width="1" fill="none" fill-rule="evenodd">
        <g id="Artboard" transform="translate(-167.000000, -209.000000)">
            <g id="concurrent" transform="translate(167.000000, 209.000000)">
                <rect id="Rectangle" fill="#FF632D" x="0" y="0" width="143" height="143" rx="16"></rect>
                <g id="Group" transform="translate(25.000000, 24.000000)">
                    <path d="M14.1978,20.737806 C13.9527,19.6475857 13.8177,18.522722 13.8177,17.3697759 C13.8177,7.77667726 22.707,0 33.6726,0 C42.5109,0 49.992,5.05532575 52.5654,12.038352 C53.9127,11.5378585 55.3944,11.2604481 56.9508,11.2604481 C62.8755,11.2604481 67.7163,15.2772564 68.1375,20.3661758 C68.1516,20.3661758 68.1651,20.3646011 68.1789,20.3646011 C76.2708,20.3646011 82.8306,26.1033485 82.8306,33.1821693 C82.8306,40.2612526 76.2708,46 68.1789,46 L17.6517,46 C9.5598,46 3,40.2612526 3,33.1821693 C3,27.1458028 7.7757,22.0980881 14.1978,20.737806" id="Fill-1" fill="#FFFFFF"></path>
                    <path d="M9.4332,63.6147 L41.3247,63.6147 L41.3247,69.8301 L44.2827,69.8301 L44.2827,63.6147 L76.1745,63.6147 L76.1745,69.8301 L79.1325,69.8301 L79.1325,62.1363 C79.1325,61.3209 78.4686,60.6579 77.6541,60.6579 L44.2827,60.6579 L44.3937,42.5985819 C44.3937,41.7831819 43.7301,41.1201819 42.9153,41.1201819 C42.0996,41.1201819 41.4357,41.7831819 41.4357,42.5985819 L41.3247,60.6579 L7.9548,60.6579 C7.1388,60.6579 6.4752,61.3209 6.4752,62.1363 L6.4752,69.8301 L9.4332,69.8301 L9.4332,63.6147 Z" id="Fill-2" fill="#FFFFFF"></path>
                    <g id="Group-6" transform="translate(0.000000, 68.646900)">
                        <mask id="mask-2" fill="white">
                            <use xlink:href="#path-1"></use>
                        </mask>
                        <g id="Clip-4"></g>
                        <path d="M29.895,17.3481 L54.1164,17.3481 L54.1164,3.1731 L29.895,3.1731 L29.895,17.3481 Z M56.9364,19.6338 L56.9364,0.771 C56.9364,0.5403 56.7492,0.3531 56.5185,0.3531 L27.4929,0.3531 C27.2622,0.3531 27.075,0.5403 27.075,0.771 L27.075,19.6338 C26.8821,19.6338 22.8495,26.4933 22.8495,26.4933 L61.1619,26.4933 C61.1619,26.4933 57.1293,19.6338 56.9364,19.6338 L56.9364,19.6338 Z" id="Fill-3" fill="#FFFFFF" mask="url(#mask-2)"></path>
                        <path d="M13.2726,4.3356 L13.2726,23.6421 L2.8512,23.6421 L2.8512,2.9145 L13.2726,2.9145 L13.2726,4.3356 Z M13.917,0.0633 L2.2071,0.0633 C0.9882,0.0633 0,1.0515 0,2.2701 L0,24.2862 C0,25.5051 0.9882,26.4933 2.2071,26.4933 L13.9167,26.4933 C15.1359,26.4933 16.1241,25.5051 16.1241,24.2862 L16.1241,2.2701 C16.1241,1.0515 15.1359,0.0633 13.917,0.0633 L13.917,0.0633 Z" id="Fill-5" fill="#FFFFFF" mask="url(#mask-2)"></path>
                    </g>
                    <path d="M6.9444,91.8732 L9.1794,91.8732 C9.7296,91.8732 10.176,91.4274 10.176,90.8772 C10.176,90.327 9.7296,89.8812 9.1794,89.8812 L6.9444,89.8812 C6.3942,89.8812 5.9478,90.327 5.9478,90.8772 C5.9478,91.4274 6.3942,91.8732 6.9444,91.8732" id="Fill-7" fill="#FFFFFF"></path>
                    <path d="M65.5491,87.9495 L89.7582,87.9495 L89.7582,71.8188 L65.5491,71.8188 L65.5491,87.9495 Z M92.577,90.768 L92.577,69 L62.7303,69 L62.7303,90.768 L76.2438,90.768 L76.2438,92.5293 L72.3555,92.5293 L72.3555,95.3469 L82.9521,95.3469 L82.9521,92.5293 L79.0629,92.5293 L79.0629,90.768 L92.577,90.768 L92.577,90.768 Z" id="Fill-8" fill="#FFFFFF"></path>
                </g>
            </g>
        </g>
    </g>
</svg>