<?xml version="1.0" encoding="UTF-8"?>
<svg width="143px" height="143px" viewBox="0 0 143 143" version="1.1" xmlns="http://www.w3.org/2000/svg" xmlns:xlink="http://www.w3.org/1999/xlink">
    <!-- Generator: Sketch 61.2 (89653) - https://sketch.com -->
    <title>data-viz</title>
    <desc>Created with Sketch.</desc>
    <g id="About" stroke="none" stroke-width="1" fill="none" fill-rule="evenodd">
        <g id="Artboard" transform="translate(-387.000000, -893.000000)">
            <g id="data-viz" transform="translate(387.000000, 893.000000)">
                <rect id="Rectangle" fill="#FF632D" x="0" y="0" width="143" height="143" rx="16"></rect>
                <g id="bar-graph" transform="translate(32.000000, 32.000000)" fill="#FFFFFF" fill-rule="nonzero">
                    <path d="M18.3717187,60.368 L18.3717187,48.0624375 C18.3717187,46.787125 17.3376328,45.7524375 16.0617188,45.7524375 L6.82171875,45.7524375 C5.54580473,45.7524375 4.51171875,46.787125 4.51171875,48.0624375 L4.51171875,60.368 L18.3717187,60.368 Z" id="Path"></path>
                    <path d="M74.2616875,60.368 L74.2616875,27.003539 C74.2616875,25.727625 73.2276015,24.693539 71.9516875,24.693539 L62.7116875,24.693539 C61.4357735,24.693539 60.4016875,25.727625 60.4016875,27.003539 L60.4016875,60.368 L74.2616875,60.368 Z" id="Path"></path>
                    <path d="M55.748,60.368 L55.748,45.9659922 C55.748,44.6906797 54.713914,43.6559922 53.438,43.6559922 L44.198,43.6559922 C42.922086,43.6559922 41.888,44.6906797 41.888,45.9659922 L41.888,60.368 L55.748,60.368 Z" id="Path"></path>
                    <path d="M37.1500938,60.368 L37.1500938,40.4135703 C37.1500938,39.1376563 36.1154062,38.1035703 34.8400938,38.1035703 L25.6000937,38.1035703 C24.3241797,38.1035703 23.2900938,39.1376563 23.2900938,40.4135703 L23.2900938,60.368 L37.1500938,60.368 Z" id="Path"></path>
                    <path d="M76.538,78.848 L2.31,78.848 C1.03408598,78.848 0,77.813914 0,76.538 L0,67.298 C0,66.022086 1.03408598,64.988 2.31,64.988 L76.538,64.988 C77.813914,64.988 78.848,66.022086 78.848,67.298 L78.848,76.538 C78.848,77.813914 77.813914,78.848 76.538,78.848 Z" id="Path"></path>
                    <path d="M71.9408595,0 L64.8845313,0 C63.6086172,0 62.5745313,1.03408598 62.5745313,2.31 C62.5745313,3.58591402 63.6086172,4.62 64.8845313,4.62 L66.6416953,4.62 L47.8741485,24.6418047 L30.7981953,20.934375 C30.1521172,20.794211 29.4765625,20.9379845 28.9429765,21.329 L9.92217195,35.2678047 C8.89289848,36.0215625 8.67032027,37.4671172 9.42467973,38.4963905 C9.87705473,39.1135937 10.5784765,39.4408437 11.2895235,39.4408437 C11.7635547,39.4408437 12.241797,39.2952655 12.652664,38.9938828 L30.8348905,25.669875 L48.1737265,29.4338515 C48.9683905,29.6058985 49.7937345,29.3490312 50.3489765,28.7564922 L69.6308595,8.1860625 L69.6308595,9.36632805 C69.6308595,10.6422422 70.6649453,11.676328 71.9408595,11.676328 C73.2167735,11.676328 74.2508595,10.6422422 74.2508595,9.36632805 L74.2508595,2.31 C74.2508595,1.03408598 73.2167735,0 71.9408595,0 Z" id="Path"></path>
                </g>
            </g>
        </g>
    </g>
</svg>