<?xml version="1.0" encoding="UTF-8"?>
<svg width="143px" height="143px" viewBox="0 0 143 143" version="1.1" xmlns="http://www.w3.org/2000/svg" xmlns:xlink="http://www.w3.org/1999/xlink">
    <!-- Generator: Sketch 61.2 (89653) - https://sketch.com -->
    <title>devtools</title>
    <desc>Created with Sketch.</desc>
    <defs>
        <rect id="path-1" x="0" y="0" width="143" height="143" rx="16"></rect>
    </defs>
    <g id="About" stroke="none" stroke-width="1" fill="none" fill-rule="evenodd">
        <g id="Artboard" transform="translate(-264.000000, -357.000000)">
            <g id="devtools" transform="translate(264.000000, 357.000000)">
                <g id="interactions-copy">
                    <mask id="mask-2" fill="white">
                        <use xlink:href="#path-1"></use>
                    </mask>
                    <use id="Rectangle" fill="#FF632D" xlink:href="#path-1"></use>
                    <path d="M105,49.5067521 C105,45.1178759 99.5246637,40.9585718 91.1300448,38.379263 C93.0672646,29.7905699 92.206278,22.9574273 88.4125561,20.7697414 C87.5381166,20.2565805 86.5156951,20.0135042 85.3991031,20.0135042 L85.3991031,23.0249485 C86.0179372,23.0249485 86.5156951,23.1464866 86.9327354,23.3760586 C88.7623318,24.4293889 89.5560538,28.4401465 88.9372197,33.598764 C88.7892377,34.8681621 88.5470852,36.2050813 88.2511211,37.5690089 C85.6143498,36.9208057 82.735426,36.421149 79.7085202,36.0970474 C77.8923767,33.598764 76.0089686,31.3300526 74.1121076,29.3449302 C78.4977578,25.2531472 82.6143498,23.0114443 85.4125561,23.0114443 L85.4125561,20 C85.4125561,20 85.4125561,20 85.4125561,20 C81.7130045,20 76.8699552,22.6468299 71.9730942,27.2382696 C67.0762332,22.6738384 62.2331839,20.0540169 58.5336323,20.0540169 L58.5336323,23.0654612 C61.3183857,23.0654612 65.4484305,25.2936599 69.8340807,29.3584344 C67.9506726,31.3435569 66.0672646,33.598764 64.2780269,36.0970474 C61.2376682,36.421149 58.3587444,36.9208057 55.7219731,37.5825132 C55.4125561,36.2320897 55.1838565,34.922179 55.0224215,33.6662852 C54.3901345,28.5076677 55.1704036,24.49691 56.9865471,23.4300755 C57.3901345,23.1869993 57.9147982,23.0789654 58.5336323,23.0789654 L58.5336323,20.0675212 C58.5336323,20.0675212 58.5336323,20.0675212 58.5336323,20.0675212 C57.4035874,20.0675212 56.3811659,20.3105974 55.4932735,20.8237583 C51.7130045,23.0114443 50.8654709,29.8310826 52.8161435,38.3927672 C44.4484305,40.9855802 39,45.1313802 39,49.5067521 C39,53.8956283 44.4753363,58.0549325 52.8699552,60.6342412 C50.9327354,69.2229343 51.793722,76.0560769 55.5874439,78.2437629 C56.4618834,78.7569238 57.4843049,79 58.6143498,79 C62.3139013,79 67.1569507,76.3531701 72.0538117,71.7617304 C76.9506726,76.3261616 81.793722,78.9459831 85.4932735,78.9459831 C86.6233184,78.9459831 87.6457399,78.7029068 88.5336323,78.1897459 C92.3139013,76.00206 93.161435,69.1824216 91.2107623,60.620737 C99.5515695,58.0414282 105,53.8821241 105,49.5067521 Z M87.4508671,40.6244589 C86.9688707,42.3969807 86.369632,44.2244644 85.6922318,46.0519481 C85.1581277,44.9527097 84.5979698,43.8534714 83.9857042,42.7542331 C83.3864655,41.6549948 82.7481461,40.5832374 82.1098266,39.538961 C83.9596504,39.8275111 85.7443395,40.1847635 87.4508671,40.6244589 Z M81.2533526,54.8300717 C80.2118497,56.6425646 79.1436416,58.3610763 78.0353757,59.9587553 C76.0458382,60.1332916 74.0295954,60.2272727 72,60.2272727 C69.9837572,60.2272727 67.9675145,60.1332916 65.9913295,59.9721811 C64.8830636,58.3745022 63.8015029,56.6694163 62.76,54.8703493 C61.7452023,53.1115599 60.8238728,51.3259188 59.982659,49.5268517 C60.8105202,47.7277847 61.7452023,45.9287177 62.7466474,44.1699283 C63.7881503,42.3574354 64.8563584,40.6389237 65.9646243,39.0412447 C67.9541618,38.8667084 69.9704046,38.7727273 72,38.7727273 C74.0162428,38.7727273 76.0324855,38.8667084 78.0086705,39.0278189 C79.1169364,40.6254978 80.1984971,42.3305837 81.24,44.1296507 C82.2547977,45.8884401 83.1761272,47.6740812 84.017341,49.4731483 C83.1761272,51.2722153 82.2547977,53.0712823 81.2533526,54.8300717 Z M85.9155957,52.9480519 C86.6656378,54.7738684 87.3045625,56.5996848 87.8323699,58.3709993 C86.0128234,58.8070152 84.0960492,59.1749035 82.1098266,59.461039 C82.7904203,58.4118758 83.4710141,57.3354616 84.1099388,56.2317964 C84.7488636,55.1417568 85.3461193,54.0380916 85.9155957,52.9480519 Z M72.2114478,67.5064935 C70.9282735,66.2422078 69.6450992,64.833056 68.3757225,63.2922078 C69.6175041,63.3448864 70.8868808,63.3843953 72.1700551,63.3843953 C73.4670269,63.3843953 74.7502012,63.358056 76.0057803,63.2922078 C74.7639988,64.833056 73.4808245,66.2422078 72.2114478,67.5064935 Z M61.8901734,59.8441558 C60.0403496,59.5556058 58.2556605,59.1983533 56.5491329,58.758658 C57.0311293,56.9861362 57.630368,55.1586525 58.3077682,53.3311688 C58.8418723,54.4304071 59.4020302,55.5296455 60.0142958,56.6288838 C60.6265614,57.7281221 61.2518539,58.7998794 61.8901734,59.8441558 Z M72.1700551,31.4935065 C73.4532294,32.7577922 74.7364036,34.166944 76.0057803,35.7077922 C74.7639988,35.6551136 73.4946221,35.6156047 72.2114478,35.6156047 C70.914476,35.6156047 69.6313017,35.641944 68.3757225,35.7077922 C69.6175041,34.166944 70.9006784,32.7577922 72.1700551,31.4935065 Z M62.2716763,39.538961 C61.5910826,40.5903237 60.9104888,41.6689945 60.2715641,42.7749735 C59.6326393,43.8672983 59.0353836,44.9596232 58.4659072,46.0519481 C57.7158651,44.2223039 57.0769403,42.3926598 56.5491329,40.6176318 C58.3686795,40.194356 60.2854537,39.8256963 62.2716763,39.538961 Z M49.8417144,56.5455668 C45.1117818,54.4981775 42.0520231,51.8135215 42.0520231,49.684779 C42.0520231,47.5560366 45.1117818,44.8578216 49.8417144,42.8239912 C50.9907941,42.3223131 52.2467649,41.8748704 53.5428199,41.4545455 C54.3044192,44.1120838 55.3065235,46.8780931 56.5491329,49.7118967 C55.3198849,52.5321415 54.331142,55.284592 53.582904,57.9285714 C52.2601263,57.5082465 51.0041555,57.0472449 49.8417144,56.5455668 Z M57.2124239,75.5704286 C55.4015674,74.5170349 54.6159753,70.5060357 55.2284709,65.3471074 C55.3749372,64.0776329 55.6146094,62.7406332 55.907542,61.3766234 C58.5173057,62.0248657 61.3667416,62.5245524 64.3626438,62.8486736 C66.1601851,65.3471074 68.0243021,67.6159555 69.9017341,69.6011975 C65.5610047,73.693227 61.4865777,75.9350649 58.7170325,75.9350649 C58.1178521,75.9215599 57.6118775,75.8000145 57.2124239,75.5704286 Z M88.7623458,65.3175596 C89.3883329,70.4908849 88.6158382,74.5130776 86.8177903,75.5829538 C86.4182241,75.826723 85.898788,75.9350649 85.2861198,75.9350649 C82.5291129,75.9350649 78.4402187,73.7005134 74.0982659,69.6241498 C75.9629082,67.6333676 77.8275505,65.3717306 79.5989607,62.8663244 C82.6090262,62.5412987 85.4592652,62.0402175 88.0697644,61.3766234 C88.3760985,62.7444397 88.6158382,64.0580852 88.7623458,65.3175596 Z M90.4143646,41.4545455 C91.7359244,41.8748704 92.9907387,42.3358719 94.1654584,42.8375501 C98.8910357,44.8849393 101.947977,47.5695954 101.947977,49.6983379 C101.934628,51.8270803 98.8776866,54.5252953 94.1521093,56.5591256 C93.0040878,57.0608038 91.7492735,57.5082465 90.4544119,57.9285714 C89.6935139,55.2710331 88.6923323,52.5050238 87.4508671,49.6712201 C88.6789832,46.8509754 89.6668157,44.0985249 90.4143646,41.4545455 Z M71.8092486,43.3701299 C75.1804202,43.3701299 77.9132948,46.1145662 77.9132948,49.5 C77.9132948,52.8854338 75.1804202,55.6298701 71.8092486,55.6298701 C68.4380769,55.6298701 65.7052023,52.8854338 65.7052023,49.5 C65.7052023,46.1145662 68.4380769,43.3701299 71.8092486,43.3701299 Z" id="Shape" fill="#FFFFFF" fill-rule="nonzero" mask="url(#mask-2)"></path>
                    <rect id="Rectangle" fill="#FFFFFF" mask="url(#mask-2)" x="-1" y="117" width="146" height="32"></rect>
                    <rect id="Rectangle" mask="url(#mask-2)" x="7" y="7" width="129" height="129" rx="14.4"></rect>
                    <g id="devtools" mask="url(#mask-2)">
                        <g transform="translate(-3.000000, 95.000000)">
                            <rect id="Rectangle" stroke="#D0D0D0" stroke-width="1" fill="#F3F3F3" fill-rule="evenodd" x="0" y="0" width="149" height="22"></rect>
                            <path d="M28.6691895,14.1159668 C29.37736,14.1159668 29.9765218,13.9219157 30.4666748,13.5338135 C30.9568278,13.1457113 31.296224,12.5821126 31.4848633,11.8430176 L31.4848633,11.8430176 L30.5849609,11.6157227 C30.461263,12.1878255 30.2246908,12.619222 29.8752441,12.9099121 C29.5257975,13.2006022 29.0990397,13.3459473 28.5949707,13.3459473 C28.1805827,13.3459473 27.7955729,13.2392578 27.4399414,13.0258789 C27.0843099,12.8125 26.8222249,12.4901123 26.6536865,12.0587158 C26.4851481,11.6273193 26.4008789,11.1224772 26.4008789,10.5441895 C26.4008789,10.0957845 26.4720052,9.66052246 26.6142578,9.23840332 C26.7565104,8.81628418 27.0031331,8.47998047 27.354126,8.22949219 C27.7051188,7.97900391 28.1419271,7.85375977 28.6645508,7.85375977 C29.1191406,7.85375977 29.4964193,7.96663411 29.7963867,8.19238281 C30.0963542,8.41813151 30.3251953,8.77840169 30.4829102,9.27319336 L30.4829102,9.27319336 L31.3688965,9.06445312 C31.1864421,8.4366862 30.8632812,7.94962565 30.3994141,7.60327148 C29.9355469,7.25691732 29.363444,7.08374023 28.6831055,7.08374023 C28.0831706,7.08374023 27.533488,7.22058105 27.0340576,7.4942627 C26.5346273,7.76794434 26.1496175,8.16841634 25.8790283,8.69567871 C25.6084391,9.22294108 25.4731445,9.84065755 25.4731445,10.5488281 C25.4731445,11.1982422 25.5929769,11.8059082 25.8326416,12.3718262 C26.0723063,12.9377441 26.4217529,13.3699137 26.8809814,13.668335 C27.34021,13.9667562 27.9362793,14.1159668 28.6691895,14.1159668 Z M34.486084,14.1113281 C34.9159342,14.1113281 35.3125407,14.0108236 35.6759033,13.8098145 C36.039266,13.6088053 36.31604,13.3266195 36.5062256,12.9632568 C36.6964111,12.5998942 36.7915039,12.101237 36.7915039,11.4672852 C36.7915039,10.6848958 36.5765788,10.071818 36.1467285,9.62805176 C35.7168783,9.18428548 35.1633301,8.96240234 34.486084,8.96240234 C33.8768717,8.96240234 33.3604329,9.14485677 32.9367676,9.50976562 C32.4296061,9.94889323 32.1760254,10.6245931 32.1760254,11.5368652 C32.1760254,12.3687337 32.3886312,13.005778 32.8138428,13.447998 C33.2390544,13.8902181 33.7964681,14.1113281 34.486084,14.1113281 Z M34.486084,13.4248047 C34.0686035,13.4248047 33.7222493,13.267863 33.4470215,12.9539795 C33.1717936,12.640096 33.0341797,12.1677246 33.0341797,11.5368652 C33.0341797,10.9060059 33.1717936,10.4344076 33.4470215,10.1220703 C33.7222493,9.80973307 34.0686035,9.65356445 34.486084,9.65356445 C34.8973796,9.65356445 35.2414144,9.81050618 35.5181885,10.1243896 C35.7949626,10.4382731 35.9333496,10.899821 35.9333496,11.5090332 C35.9333496,12.1553548 35.7957357,12.6362305 35.5205078,12.9516602 C35.2452799,13.2670898 34.900472,13.4248047 34.486084,13.4248047 Z M38.6052246,14 L38.6052246,11.4440918 C38.6052246,10.9956868 38.6500651,10.6524251 38.7397461,10.4143066 C38.8294271,10.1761882 38.973999,9.99527995 39.1734619,9.87158203 C39.3729248,9.74788411 39.5901693,9.68603516 39.8251953,9.68603516 C40.1344401,9.68603516 40.3570964,9.77880859 40.4931641,9.96435547 C40.6292318,10.1499023 40.6972656,10.4282227 40.6972656,10.7993164 L40.6972656,10.7993164 L40.6972656,14 L41.5322266,14 L41.5322266,11.1379395 C41.5322266,10.630778 41.6466471,10.2620036 41.8754883,10.0316162 C42.1043294,9.80122884 42.3919271,9.68603516 42.7382812,9.68603516 C42.930013,9.68603516 43.0970052,9.73087565 43.2392578,9.82055664 C43.3815104,9.91023763 43.4796956,10.0285238 43.5338135,10.175415 C43.5879313,10.3223063 43.6149902,10.5627441 43.6149902,10.8967285 L43.6149902,10.8967285 L43.6149902,14 L44.4453125,14 L44.4453125,10.6184082 C44.4453125,10.0555827 44.3138835,9.63887533 44.0510254,9.36828613 C43.7881673,9.09769694 43.4124349,8.96240234 42.9238281,8.96240234 C42.2991536,8.96240234 41.7919922,9.25 41.4023438,9.82519531 C41.3064779,9.5530599 41.141805,9.34122721 40.9083252,9.18969727 C40.6748454,9.03816732 40.375651,8.96240234 40.0107422,8.96240234 C39.6829427,8.96240234 39.3907064,9.03584798 39.1340332,9.18273926 C38.87736,9.32963053 38.6717122,9.52368164 38.5170898,9.76489258 L38.5170898,9.76489258 L38.5170898,9.07373047 L37.7702637,9.07373047 L37.7702637,14 L38.6052246,14 Z M46.5187988,15.8879395 L46.5187988,13.4897461 C46.6610514,13.6691081 46.8427327,13.8175456 47.0638428,13.9350586 C47.2849528,14.0525716 47.534668,14.1113281 47.8129883,14.1113281 C48.1933594,14.1113281 48.5559489,14.0038656 48.9007568,13.7889404 C49.2455648,13.5740153 49.5084229,13.2647705 49.6893311,12.8612061 C49.8702393,12.4576416 49.9606934,12.0038249 49.9606934,11.4997559 C49.9606934,11.0297038 49.8787435,10.5975342 49.7148438,10.2032471 C49.550944,9.80895996 49.3081868,9.50358073 48.9865723,9.28710938 C48.6649577,9.07063802 48.2938639,8.96240234 47.873291,8.96240234 C47.5516764,8.96240234 47.2779948,9.02502441 47.0522461,9.15026855 C46.8264974,9.2755127 46.6239421,9.46337891 46.4445801,9.71386719 L46.4445801,9.71386719 L46.4445801,9.07373047 L45.6838379,9.07373047 L45.6838379,15.8879395 L46.5187988,15.8879395 Z M47.7573242,13.4248047 C47.3924154,13.4248047 47.0816243,13.2732747 46.8249512,12.9702148 C46.568278,12.6671549 46.4399414,12.1986491 46.4399414,11.5646973 C46.4399414,10.9307454 46.5767822,10.4475505 46.8504639,10.1151123 C47.1241455,9.78267415 47.4388021,9.61645508 47.7944336,9.61645508 C48.1531576,9.61645508 48.4616292,9.7726237 48.7198486,10.0849609 C48.978068,10.3972982 49.1071777,10.8673503 49.1071777,11.4951172 C49.1071777,12.1538086 48.9749756,12.640096 48.7105713,12.9539795 C48.446167,13.267863 48.128418,13.4248047 47.7573242,13.4248047 Z M52.9665527,14.1113281 C53.396403,14.1113281 53.7930094,14.0108236 54.1563721,13.8098145 C54.5197347,13.6088053 54.7965088,13.3266195 54.9866943,12.9632568 C55.1768799,12.5998942 55.2719727,12.101237 55.2719727,11.4672852 C55.2719727,10.6848958 55.0570475,10.071818 54.6271973,9.62805176 C54.197347,9.18428548 53.6437988,8.96240234 52.9665527,8.96240234 C52.3573405,8.96240234 51.8409017,9.14485677 51.4172363,9.50976562 C50.9100749,9.94889323 50.6564941,10.6245931 50.6564941,11.5368652 C50.6564941,12.3687337 50.8690999,13.005778 51.2943115,13.447998 C51.7195231,13.8902181 52.2769368,14.1113281 52.9665527,14.1113281 Z M52.9665527,13.4248047 C52.5490723,13.4248047 52.2027181,13.267863 51.9274902,12.9539795 C51.6522624,12.640096 51.5146484,12.1677246 51.5146484,11.5368652 C51.5146484,10.9060059 51.6522624,10.4344076 51.9274902,10.1220703 C52.2027181,9.80973307 52.5490723,9.65356445 52.9665527,9.65356445 C53.3778483,9.65356445 53.7218831,9.81050618 53.9986572,10.1243896 C54.2754313,10.4382731 54.4138184,10.899821 54.4138184,11.5090332 C54.4138184,12.1553548 54.2762044,12.6362305 54.0009766,12.9516602 C53.7257487,13.2670898 53.3809408,13.4248047 52.9665527,13.4248047 Z M57.0856934,14 L57.0856934,11.3095703 C57.0856934,10.6787109 57.2148031,10.2504069 57.4730225,10.0246582 C57.7312419,9.79890951 58.0381673,9.68603516 58.3937988,9.68603516 C58.6164551,9.68603516 58.8105062,9.73628743 58.9759521,9.83679199 C59.1413981,9.93729655 59.2565918,10.071818 59.3215332,10.2403564 C59.3864746,10.4088949 59.4189453,10.6632487 59.4189453,11.003418 L59.4189453,11.003418 L59.4189453,14 L60.2539062,14 L60.2539062,10.9709473 C60.2539062,10.5843913 60.238444,10.3138021 60.2075195,10.1591797 C60.1580404,9.9210612 60.0714518,9.71541341 59.9477539,9.54223633 C59.824056,9.36905924 59.637736,9.22912598 59.3887939,9.12243652 C59.1398519,9.01574707 58.8669434,8.96240234 58.5700684,8.96240234 C57.8866374,8.96240234 57.3640137,9.23299154 57.0021973,9.77416992 L57.0021973,9.77416992 L57.0021973,9.07373047 L56.2507324,9.07373047 L56.2507324,14 L57.0856934,14 Z M63.6030273,14.1113281 C64.1751302,14.1113281 64.6451823,13.972168 65.0131836,13.6938477 C65.3811849,13.4155273 65.6332194,13.0243327 65.7692871,12.5202637 L65.7692871,12.5202637 L64.9064941,12.4135742 C64.7797038,12.7661133 64.6080729,13.0227865 64.3916016,13.1835938 C64.1751302,13.344401 63.9138184,13.4248047 63.607666,13.4248047 C63.1963704,13.4248047 62.8531087,13.2810059 62.5778809,12.9934082 C62.302653,12.7058105 62.1495768,12.2914225 62.1186523,11.7502441 L62.1186523,11.7502441 L65.7924805,11.7502441 C65.7955729,11.6512858 65.7971191,11.5770671 65.7971191,11.5275879 C65.7971191,10.7142741 65.5883789,10.0834147 65.1708984,9.63500977 C64.753418,9.18660482 64.215332,8.96240234 63.5566406,8.96240234 C62.8763021,8.96240234 62.3227539,9.19124349 61.8959961,9.64892578 C61.4692383,10.1066081 61.2558594,10.7498372 61.2558594,11.5786133 C61.2558594,12.3795573 61.4669189,13.0019124 61.8890381,13.4456787 C62.3111572,13.889445 62.882487,14.1113281 63.6030273,14.1113281 Z M64.9157715,11.0637207 L62.1650391,11.0637207 C62.1928711,10.6338704 62.337443,10.2906087 62.5987549,10.0339355 C62.8600667,9.77726237 63.1824544,9.64892578 63.565918,9.64892578 C63.9895833,9.64892578 64.3343913,9.80973307 64.6003418,10.1313477 C64.7735189,10.3385417 64.8786621,10.6493327 64.9157715,11.0637207 L64.9157715,11.0637207 Z M67.6525879,14 L67.6525879,11.3095703 C67.6525879,10.6787109 67.7816976,10.2504069 68.039917,10.0246582 C68.2981364,9.79890951 68.6050618,9.68603516 68.9606934,9.68603516 C69.1833496,9.68603516 69.3774007,9.73628743 69.5428467,9.83679199 C69.7082926,9.93729655 69.8234863,10.071818 69.8884277,10.2403564 C69.9533691,10.4088949 69.9858398,10.6632487 69.9858398,11.003418 L69.9858398,11.003418 L69.9858398,14 L70.8208008,14 L70.8208008,10.9709473 C70.8208008,10.5843913 70.8053385,10.3138021 70.7744141,10.1591797 C70.7249349,9.9210612 70.6383464,9.71541341 70.5146484,9.54223633 C70.3909505,9.36905924 70.2046305,9.22912598 69.9556885,9.12243652 C69.7067464,9.01574707 69.4338379,8.96240234 69.1369629,8.96240234 C68.4535319,8.96240234 67.9309082,9.23299154 67.5690918,9.77416992 L67.5690918,9.77416992 L67.5690918,9.07373047 L66.817627,9.07373047 L66.817627,14 L67.6525879,14 Z M73.4138184,14.0649414 C73.5993652,14.0649414 73.8096517,14.0402018 74.0446777,13.9907227 L74.0446777,13.9907227 L73.9240723,13.2531738 C73.7725423,13.274821 73.6503906,13.2856445 73.5576172,13.2856445 C73.4339193,13.2856445 73.3388265,13.2655436 73.2723389,13.2253418 C73.2058512,13.18514 73.1579183,13.1310221 73.12854,13.0629883 C73.0991618,12.9949544 73.0844727,12.8418783 73.0844727,12.6037598 L73.0844727,12.6037598 L73.0844727,9.72314453 L73.9240723,9.72314453 L73.9240723,9.07373047 L73.0844727,9.07373047 L73.0844727,7.3527832 L72.2541504,7.85375977 L72.2541504,9.07373047 L71.6418457,9.07373047 L71.6418457,9.72314453 L72.2541504,9.72314453 L72.2541504,12.557373 C72.2541504,13.0583496 72.2881673,13.3869222 72.3562012,13.5430908 C72.424235,13.6992594 72.541748,13.8252767 72.7087402,13.9211426 C72.8757324,14.0170085 73.1107585,14.0649414 73.4138184,14.0649414 Z M76.5124512,14.1113281 C76.8990072,14.1113281 77.2453613,14.0440674 77.5515137,13.9095459 C77.857666,13.7750244 78.0919189,13.5848389 78.2542725,13.3389893 C78.416626,13.0931396 78.4978027,12.8310547 78.4978027,12.5527344 C78.4978027,12.2682292 78.4313151,12.0301107 78.2983398,11.8383789 C78.1653646,11.6466471 77.982137,11.500529 77.7486572,11.4000244 C77.5151774,11.2995199 77.1031087,11.1704102 76.5124512,11.0126953 C76.2062988,10.9291992 75.9914703,10.8683167 75.8679657,10.8300476 L75.7749023,10.7993164 C75.6295573,10.7405599 75.5228678,10.6663411 75.454834,10.5766602 C75.3868001,10.4900716 75.3527832,10.3926595 75.3527832,10.2844238 C75.3527832,10.1143392 75.4347331,9.96590169 75.5986328,9.83911133 C75.7625326,9.71232096 76.0362142,9.64892578 76.4196777,9.64892578 C76.7443848,9.64892578 76.9956462,9.72005208 77.1734619,9.86230469 C77.3512777,10.0045573 77.4587402,10.202474 77.4958496,10.4560547 L77.4958496,10.4560547 L78.3122559,10.3447266 C78.2596842,10.0262044 78.1638184,9.77185059 78.0246582,9.58166504 C77.885498,9.39147949 77.6697998,9.24072266 77.3775635,9.12939453 C77.0853271,9.01806641 76.745931,8.96240234 76.359375,8.96240234 C76.1027018,8.96240234 75.862264,8.99564616 75.6380615,9.06213379 C75.413859,9.12862142 75.2368164,9.20979818 75.1069336,9.30566406 C74.9337565,9.42936198 74.7969157,9.58475749 74.6964111,9.77185059 C74.5959066,9.95894368 74.5456543,10.1622721 74.5456543,10.3818359 C74.5456543,10.6230469 74.6067301,10.8433838 74.7288818,11.0428467 C74.8510335,11.2423096 75.0303955,11.3984782 75.2669678,11.5113525 C75.50354,11.6242269 75.9279785,11.7579753 76.5402832,11.9125977 C76.994873,12.0270182 77.2793783,12.1213379 77.3937988,12.1955566 C77.5576986,12.3037923 77.6396484,12.4522298 77.6396484,12.6408691 C77.6396484,12.8511556 77.546875,13.0343831 77.3613281,13.1905518 C77.1757812,13.3467204 76.891276,13.4248047 76.5078125,13.4248047 C76.1274414,13.4248047 75.8313395,13.3366699 75.6195068,13.1604004 C75.4076742,12.9841309 75.2785645,12.7305501 75.2321777,12.3996582 L75.2321777,12.3996582 L74.4064941,12.529541 C74.4992676,13.0521647 74.7134196,13.4464518 75.0489502,13.7124023 C75.3844808,13.9783529 75.8723145,14.1113281 76.5124512,14.1113281 Z" id="Components" stroke="none" fill="#5A5A5A" fill-rule="nonzero"></path>
                            <path d="M107.632812,14 L107.632812,11.2353516 L109.376953,11.2353516 C110.338704,11.2353516 111.003581,11.0351156 111.371582,10.6346436 C111.739583,10.2341715 111.923584,9.74479167 111.923584,9.16650391 C111.923584,8.82942708 111.854777,8.52018229 111.717163,8.23876953 C111.579549,7.95735677 111.397868,7.73856608 111.172119,7.58239746 C110.94637,7.42622884 110.666504,7.3203125 110.33252,7.26464844 C110.094401,7.22135417 109.749593,7.19970703 109.298096,7.19970703 L109.298096,7.19970703 L106.73291,7.19970703 L106.73291,14 L107.632812,14 Z M109.390869,10.4328613 L107.632812,10.4328613 L107.632812,8.00219727 L109.372314,8.00219727 C109.780518,8.00219727 110.060384,8.02229818 110.211914,8.0625 C110.44694,8.12744141 110.636353,8.26118978 110.780151,8.46374512 C110.92395,8.66630046 110.99585,8.90983073 110.99585,9.19433594 C110.99585,9.58707682 110.873698,9.89168294 110.629395,10.1081543 C110.385091,10.3246257 109.972249,10.4328613 109.390869,10.4328613 L109.390869,10.4328613 Z M113.78833,14 L113.78833,11.4208984 C113.78833,11.0683594 113.834717,10.7436523 113.92749,10.4467773 C113.989339,10.2519531 114.092936,10.0996501 114.238281,9.98986816 C114.383626,9.88008626 114.547526,9.82519531 114.72998,9.82519531 C114.934082,9.82519531 115.138184,9.88549805 115.342285,10.0061035 L115.342285,10.0061035 L115.629883,9.23144531 C115.339193,9.05208333 115.053141,8.96240234 114.771729,8.96240234 C114.576904,8.96240234 114.398315,9.01806641 114.235962,9.12939453 C114.073608,9.24072266 113.896566,9.47111003 113.704834,9.82055664 L113.704834,9.82055664 L113.704834,9.07373047 L112.953369,9.07373047 L112.953369,14 L113.78833,14 Z M118.125488,14.1113281 C118.555339,14.1113281 118.951945,14.0108236 119.315308,13.8098145 C119.67867,13.6088053 119.955444,13.3266195 120.14563,12.9632568 C120.335815,12.5998942 120.430908,12.101237 120.430908,11.4672852 C120.430908,10.6848958 120.215983,10.071818 119.786133,9.62805176 C119.356283,9.18428548 118.802734,8.96240234 118.125488,8.96240234 C117.516276,8.96240234 116.999837,9.14485677 116.576172,9.50976562 C116.06901,9.94889323 115.81543,10.6245931 115.81543,11.5368652 C115.81543,12.3687337 116.028035,13.005778 116.453247,13.447998 C116.878459,13.8902181 117.435872,14.1113281 118.125488,14.1113281 Z M118.125488,13.4248047 C117.708008,13.4248047 117.361654,13.267863 117.086426,12.9539795 C116.811198,12.640096 116.673584,12.1677246 116.673584,11.5368652 C116.673584,10.9060059 116.811198,10.4344076 117.086426,10.1220703 C117.361654,9.80973307 117.708008,9.65356445 118.125488,9.65356445 C118.536784,9.65356445 118.880819,9.81050618 119.157593,10.1243896 C119.434367,10.4382731 119.572754,10.899821 119.572754,11.5090332 C119.572754,12.1553548 119.43514,12.6362305 119.159912,12.9516602 C118.884684,13.2670898 118.539876,13.4248047 118.125488,13.4248047 Z M122.439453,14 L122.439453,9.72314453 L123.399658,9.72314453 L123.399658,9.07373047 L122.439453,9.07373047 L122.439453,8.61914062 C122.439453,8.32226562 122.492025,8.11971029 122.597168,8.01147461 C122.702311,7.90323893 122.881673,7.84912109 123.135254,7.84912109 C123.289876,7.84912109 123.453776,7.86458333 123.626953,7.89550781 L123.626953,7.89550781 L123.752197,7.16723633 C123.467692,7.11157227 123.207926,7.08374023 122.9729,7.08374023 C122.607992,7.08374023 122.324259,7.15100098 122.121704,7.28552246 C121.919149,7.42004395 121.777669,7.59554036 121.697266,7.81201172 C121.638509,7.97281901 121.609131,8.21866862 121.609131,8.54956055 L121.609131,8.54956055 L121.609131,9.07373047 L120.871582,9.07373047 L120.871582,9.72314453 L121.609131,9.72314453 L121.609131,14 L122.439453,14 Z M124.888672,8.15991211 L124.888672,7.19970703 L124.053711,7.19970703 L124.053711,8.15991211 L124.888672,8.15991211 Z M124.888672,14 L124.888672,9.07373047 L124.053711,9.07373047 L124.053711,14 L124.888672,14 Z M126.976074,14 L126.976074,7.19970703 L126.141113,7.19970703 L126.141113,14 L126.976074,14 Z M130.339111,14.1113281 C130.911214,14.1113281 131.381266,13.972168 131.749268,13.6938477 C132.117269,13.4155273 132.369303,13.0243327 132.505371,12.5202637 L132.505371,12.5202637 L131.642578,12.4135742 C131.515788,12.7661133 131.344157,13.0227865 131.127686,13.1835938 C130.911214,13.344401 130.649902,13.4248047 130.34375,13.4248047 C129.932454,13.4248047 129.589193,13.2810059 129.313965,12.9934082 C129.038737,12.7058105 128.885661,12.2914225 128.854736,11.7502441 L128.854736,11.7502441 L132.528564,11.7502441 C132.531657,11.6512858 132.533203,11.5770671 132.533203,11.5275879 C132.533203,10.7142741 132.324463,10.0834147 131.906982,9.63500977 C131.489502,9.18660482 130.951416,8.96240234 130.292725,8.96240234 C129.612386,8.96240234 129.058838,9.19124349 128.63208,9.64892578 C128.205322,10.1066081 127.991943,10.7498372 127.991943,11.5786133 C127.991943,12.3795573 128.203003,13.0019124 128.625122,13.4456787 C129.047241,13.889445 129.618571,14.1113281 130.339111,14.1113281 Z M131.651855,11.0637207 L128.901123,11.0637207 C128.928955,10.6338704 129.073527,10.2906087 129.334839,10.0339355 C129.596151,9.77726237 129.918538,9.64892578 130.302002,9.64892578 C130.725667,9.64892578 131.070475,9.80973307 131.336426,10.1313477 C131.509603,10.3385417 131.614746,10.6493327 131.651855,11.0637207 L131.651855,11.0637207 Z M134.379395,14 L134.379395,11.4208984 C134.379395,11.0683594 134.425781,10.7436523 134.518555,10.4467773 C134.580404,10.2519531 134.684001,10.0996501 134.829346,9.98986816 C134.974691,9.88008626 135.13859,9.82519531 135.321045,9.82519531 C135.525146,9.82519531 135.729248,9.88549805 135.93335,10.0061035 L135.93335,10.0061035 L136.220947,9.23144531 C135.930257,9.05208333 135.644206,8.96240234 135.362793,8.96240234 C135.167969,8.96240234 134.98938,9.01806641 134.827026,9.12939453 C134.664673,9.24072266 134.48763,9.47111003 134.295898,9.82055664 L134.295898,9.82055664 L134.295898,9.07373047 L133.544434,9.07373047 L133.544434,14 L134.379395,14 Z" id="Profiler" stroke="none" fill="#5A5A5A" fill-rule="nonzero"></path>
                            <text id="⚛️" stroke="none" fill="none" font-family="AppleColorEmoji, Apple Color Emoji" font-size="8.5" font-weight="normal" letter-spacing="0.236111111">
                                <tspan x="91" y="14" fill="#FFFFFF">⚛️</tspan>
                            </text>
                            <text id="⚛️" stroke="none" fill="none" font-family="AppleColorEmoji, Apple Color Emoji" font-size="8.5" font-weight="normal" letter-spacing="0.236111111">
                                <tspan x="10" y="14" fill="#FFFFFF">⚛️</tspan>
                            </text>
                        </g>
                    </g>
                    <rect id="Rectangle" stroke="#FF632D" stroke-width="2" mask="url(#mask-2)" x="1" y="1" width="141" height="141" rx="16"></rect>
                </g>
            </g>
        </g>
    </g>
</svg>