<?xml version="1.0" encoding="UTF-8"?>
<svg width="143px" height="143px" viewBox="0 0 143 143" version="1.1" xmlns="http://www.w3.org/2000/svg" xmlns:xlink="http://www.w3.org/1999/xlink">
    <!-- Generator: Sketch 61.2 (89653) - https://sketch.com -->
    <title>hooks</title>
    <desc>Created with Sketch.</desc>
    <defs>
        <rect id="path-1" x="0" y="0" width="143" height="143" rx="16"></rect>
    </defs>
    <g id="About" stroke="none" stroke-width="1" fill="none" fill-rule="evenodd">
        <g id="Artboard" transform="translate(-167.000000, -1085.000000)">
            <g id="hooks" transform="translate(167.000000, 1085.000000)">
                <mask id="mask-2" fill="white">
                    <use xlink:href="#path-1"></use>
                </mask>
                <use id="Rectangle" fill="#FF632D" xlink:href="#path-1"></use>
                <path d="M118,75.0096132 C118,68.7610437 110.201794,62.8393225 98.2458214,59.1670863 C101.004892,46.9391165 99.7786384,37.2105745 94.3754586,34.095903 C93.1300448,33.365301 91.6738687,33.0192264 90.0835711,33.0192264 L90.0835711,37.3067063 C90.9649409,37.3067063 91.6738687,37.4797436 92.2678353,37.8065919 C94.8736241,39.3062486 96.0040766,45.0164797 95.1227069,52.3609522 C94.9119446,54.1682307 94.5670607,56.0716411 94.1455361,58.0135042 C90.3901345,57.0906386 86.2898492,56.379263 81.9788015,55.9178302 C79.3921728,52.3609522 76.7097432,49.1309224 74.0081533,46.3046464 C80.2543824,40.479057 86.1174073,37.28748 90.1027313,37.28748 L90.1027313,33 C90.1027313,33 90.1027313,33 90.1027313,33 C84.8336731,33 77.9359967,36.768368 70.9616796,43.305333 C63.9873624,36.8068208 57.0896861,33.0769055 51.8206278,33.0769055 L51.8206278,37.3643854 C55.7867917,37.3643854 61.6689768,40.5367361 67.9152059,46.3238727 C65.2327762,49.1501488 62.5503465,52.3609522 60.0020383,55.9178302 C55.6718304,56.379263 51.571545,57.0906386 47.8161435,58.0327306 C47.3754586,56.1100938 47.049735,54.2451362 46.8198125,52.457084 C45.9192825,45.1126116 47.0305748,39.4023804 49.6172034,37.8834974 C50.1920098,37.5374228 50.9392581,37.3836118 51.8206278,37.3836118 L51.8206278,33.0961318 C51.8206278,33.0961318 51.8206278,33.0961318 51.8206278,33.0961318 C50.21117,33.0961318 48.7549939,33.4422065 47.4904199,34.1728084 C42.1064003,37.28748 40.899307,46.9967956 43.6775377,59.1863127 C31.7598859,62.8777752 24,68.7802701 24,75.0096132 C24,81.2581827 31.7982063,87.1799039 43.7541786,90.8521401 C40.995108,103.08011 42.2213616,112.808652 47.6245414,115.923323 C48.8699552,116.653925 50.3261313,117 51.9355891,117 C57.2046474,117 64.1023237,113.231632 71.0766408,106.694667 C78.050958,113.193179 84.9486343,116.923095 90.2176926,116.923095 C91.8271504,116.923095 93.2833265,116.57702 94.5479005,115.846418 C99.9319201,112.731746 101.139013,103.022431 98.3607827,90.8329137 C110.240114,87.1606775 118,81.2389563 118,75.0096132 Z M93.0057803,62.3636364 C92.3193007,64.8872267 91.4658396,67.4890679 90.5010574,70.0909091 C89.7403637,68.5258918 88.9425631,66.9608746 88.0705484,65.3958573 C87.2170873,63.83084 86.3079656,62.3049482 85.3988439,60.8181818 C88.0334414,61.2289988 90.5752714,61.7376295 93.0057803,62.3636364 Z M84.1790173,82.5885766 C82.6956647,85.169075 81.1742775,87.6157697 79.5958382,89.8904312 C76.7622543,90.1389237 73.8906358,90.2727273 71,90.2727273 C68.1283815,90.2727273 65.256763,90.1389237 62.4421965,89.909546 C60.8637572,87.6348845 59.3233526,85.2073046 57.84,82.645921 C56.3946821,80.1418819 55.0824855,77.5996132 53.8843931,75.0382296 C55.0634682,72.4768461 56.3946821,69.9154625 57.8209827,67.4114234 C59.3043353,64.830925 60.8257225,62.3842303 62.4041618,60.1095688 C65.2377457,59.8610763 68.1093642,59.7272727 71,59.7272727 C73.8716185,59.7272727 76.743237,59.8610763 79.5578035,60.090454 C81.1362428,62.3651155 82.6766474,64.7926954 84.16,67.354079 C85.6053179,69.8581181 86.9175145,72.4003868 88.1156069,74.9617704 C86.9175145,77.5231539 85.6053179,80.0845375 84.1790173,82.5885766 Z M90.8191818,79.9090909 C91.8874235,82.5085584 92.7974073,85.1080259 93.5491329,87.6298973 C90.9576576,88.2506657 88.2277064,88.774439 85.3988439,89.1818182 C86.3681744,87.6880943 87.3375049,86.1555725 88.2474886,84.5842526 C89.1574724,83.0323317 90.0081093,81.4610118 90.8191818,79.9090909 Z M71.3011529,100.636364 C69.4736017,98.8363636 67.6460504,96.8301136 65.8381503,94.6363636 C67.6067483,94.7113636 69.4146484,94.7676136 71.2421997,94.7676136 C73.089402,94.7676136 74.9169532,94.7301136 76.7052023,94.6363636 C74.9366043,96.8301136 73.1090531,98.8363636 71.3011529,100.636364 Z M56.6011561,89.7272727 C53.9665586,89.3164557 51.4247286,88.8078251 48.9942197,88.1818182 C49.6806993,85.6582278 50.5341604,83.0563867 51.4989426,80.4545455 C52.2596363,82.0195627 53.0574369,83.58458 53.9294516,85.1495972 C54.8014662,86.7146145 55.6920344,88.2405063 56.6011561,89.7272727 Z M71.2421997,49.3636364 C73.0697509,51.1636364 74.8973022,53.1698864 76.7052023,55.3636364 C74.9366043,55.2886364 73.1287042,55.2323864 71.3011529,55.2323864 C69.4539506,55.2323864 67.6263994,55.2698864 65.8381503,55.3636364 C67.6067483,53.1698864 69.4342995,51.1636364 71.2421997,49.3636364 Z M57.1445087,60.8181818 C56.1751782,62.3150372 55.2058477,63.8507719 54.295864,65.4253859 C53.3858802,66.9805603 52.5352433,68.5357347 51.7241708,70.0909091 C50.6559291,67.485992 49.7459453,64.8810749 48.9942197,62.3539165 C51.585695,61.7512864 54.3156462,61.2264151 57.1445087,60.8181818 Z M39.4412296,85.0309764 C32.7046589,82.1160494 28.3468208,78.2938272 28.3468208,75.2630752 C28.3468208,72.2323232 32.7046589,68.3907969 39.4412296,65.495174 C41.0777976,64.7809203 42.8666045,64.1438833 44.712501,63.5454545 C45.7972031,67.3290685 47.2244426,71.2671156 48.9942197,75.3016835 C47.2434725,79.3169473 45.8352628,83.2356902 44.7695906,87 C42.8856344,86.4015713 41.0968275,85.7452301 39.4412296,85.0309764 Z M49.9389067,112.11722 C47.3598082,110.617473 46.2409345,104.906898 47.1132767,97.5619835 C47.3218802,95.7545961 47.6632315,93.851071 48.0804386,91.9090909 C51.7973748,92.8320121 55.8556623,93.5434306 60.1225533,94.0048912 C62.6826879,97.5619835 65.3376423,100.792208 68.0115607,103.618654 C61.8293097,109.444594 56.0263379,112.636364 52.0818342,112.636364 C51.228456,112.617136 50.5078255,112.444088 49.9389067,112.11722 Z M94.8736441,97.5199154 C95.7652014,104.885328 94.6649817,110.611839 92.1041256,112.135053 C91.5350464,112.482114 90.7952435,112.636364 89.9226555,112.636364 C85.9960094,112.636364 80.1724327,109.454968 73.9884393,103.651332 C76.644142,100.816998 79.2998447,97.5970402 81.8227623,94.0300211 C86.1098252,93.5672727 90.1692564,92.8538689 93.8872402,91.9090909 C94.3235342,93.8564905 94.6649817,95.7267653 94.8736441,97.5199154 Z M97.2265193,63.5454545 C99.1087408,64.1438833 100.895901,64.8002245 102.568986,65.5144781 C109.299354,68.4294052 113.653179,72.2516274 113.653179,75.2823793 C113.634167,78.3131313 109.280341,82.1546577 102.549974,85.0502806 C100.914913,85.7645342 99.1277531,86.4015713 97.2835564,87 C96.1998531,83.2163861 94.7739278,79.2783389 93.0057803,75.243771 C94.7549154,71.2285073 96.1618284,67.3097643 97.2265193,63.5454545 Z M70.7283237,66.2727273 C75.5296894,66.2727273 79.4219653,70.1800604 79.4219653,75 C79.4219653,79.8199396 75.5296894,83.7272727 70.7283237,83.7272727 C65.926958,83.7272727 62.0346821,79.8199396 62.0346821,75 C62.0346821,70.1800604 65.926958,66.2727273 70.7283237,66.2727273 Z" id="Shape" fill="#FFFFFF" fill-rule="nonzero" mask="url(#mask-2)" transform="translate(71.000000, 75.000000) rotate(45.000000) translate(-71.000000, -75.000000) "></path>
                <g id="crane" mask="url(#mask-2)" fill="#FFFFFF" fill-rule="nonzero">
                    <g transform="translate(55.000000, -33.000000)" id="Path">
                        <path d="M36.48042,38.61684 C37.4877,38.59668 38.41938,38.079 38.96874,37.23444 L51.41034,14.65524 C52.06284,13.51458 51.78942,12.06882 50.76522,11.24532 L38.32362,0.64692 C37.8126,0.207 37.15416,-0.0234 36.48042,0.0018 L15.28362,0.0018 C14.60988,-0.0234 13.95144,0.207 13.44042,0.64692 L0.99882,11.24532 C-0.02538,12.06882 -0.2988,13.51458 0.3537,14.65524 L12.7953,37.23444 C13.34466,38.079 14.27634,38.59668 15.28362,38.61684 L23.11722,38.61684 L23.11722,47.925 C23.06538,49.4001 24.21918,50.63796 25.69446,50.6898 C25.75692,50.69196 25.81956,50.69196 25.88202,50.6898 C30.61566,50.6898 34.4529,54.52704 34.4529,59.26068 C34.4529,63.99432 30.61566,67.83156 25.88202,67.83156 C21.14838,67.83156 17.31114,63.99432 17.31114,59.26068 L11.78154,59.26068 C11.7801,67.0482 18.0918,73.36242 25.87932,73.3638602 C33.66684,73.3653 39.98106,67.0536 39.9825,59.26608 C39.98376,52.54344 35.23896,46.75464 28.64682,45.4365 L28.64682,38.61666 L36.48042,38.61666 L36.48042,38.61684 Z"></path>
                    </g>
                </g>
            </g>
        </g>
    </g>
</svg>