<?xml version="1.0" encoding="UTF-8"?>
<svg width="143px" height="143px" viewBox="0 0 143 143" version="1.1" xmlns="http://www.w3.org/2000/svg" xmlns:xlink="http://www.w3.org/1999/xlink">
    <!-- Generator: Sketch 61.2 (89653) - https://sketch.com -->
    <title>hooks</title>
    <desc>Created with Sketch.</desc>
    <g id="About" stroke="none" stroke-width="1" fill="none" fill-rule="evenodd">
        <g id="Artboard" transform="translate(-167.000000, -1085.000000)">
            <g id="hooks" transform="translate(167.000000, 1085.000000)">
                <rect id="Rectangle" fill="#FF632D" x="0" y="0" width="143" height="143" rx="16"></rect>
                <path d="M119,72.0096132 C119,65.7610437 111.201794,59.8393225 99.2458214,56.1670863 C102.004892,43.9391165 100.778638,34.2105745 95.3754586,31.095903 C94.1300448,30.365301 92.6738687,30.0192264 91.0835711,30.0192264 L91.0835711,34.3067063 C91.9649409,34.3067063 92.6738687,34.4797436 93.2678353,34.8065919 C95.8736241,36.3062486 97.0040766,42.0164797 96.1227069,49.3609522 C95.9119446,51.1682307 95.5670607,53.0716411 95.1455361,55.0135042 C91.3901345,54.0906386 87.2898492,53.379263 82.9788015,52.9178302 C80.3921728,49.3609522 77.7097432,46.1309224 75.0081533,43.3046464 C81.2543824,37.479057 87.1174073,34.28748 91.1027313,34.28748 L91.1027313,30 C91.1027313,30 91.1027313,30 91.1027313,30 C85.8336731,30 78.9359967,33.768368 71.9616796,40.305333 C64.9873624,33.8068208 58.0896861,30.0769055 52.8206278,30.0769055 L52.8206278,34.3643854 C56.7867917,34.3643854 62.6689768,37.5367361 68.9152059,43.3238727 C66.2327762,46.1501488 63.5503465,49.3609522 61.0020383,52.9178302 C56.6718304,53.379263 52.571545,54.0906386 48.8161435,55.0327306 C48.3754586,53.1100938 48.049735,51.2451362 47.8198125,49.457084 C46.9192825,42.1126116 48.0305748,36.4023804 50.6172034,34.8834974 C51.1920098,34.5374228 51.9392581,34.3836118 52.8206278,34.3836118 L52.8206278,30.0961318 C52.8206278,30.0961318 52.8206278,30.0961318 52.8206278,30.0961318 C51.21117,30.0961318 49.7549939,30.4422065 48.4904199,31.1728084 C43.1064003,34.28748 41.899307,43.9967956 44.6775377,56.1863127 C32.7598859,59.8777752 25,65.7802701 25,72.0096132 C25,78.2581827 32.7982063,84.1799039 44.7541786,87.8521401 C41.995108,100.08011 43.2213616,109.808652 48.6245414,112.923323 C49.8699552,113.653925 51.3261313,114 52.9355891,114 C58.2046474,114 65.1023237,110.231632 72.0766408,103.694667 C79.050958,110.193179 85.9486343,113.923095 91.2176926,113.923095 C92.8271504,113.923095 94.2833265,113.57702 95.5479005,112.846418 C100.93192,109.731746 102.139013,100.022431 99.3607827,87.8329137 C111.240114,84.1606775 119,78.2389563 119,72.0096132 Z M94.0057803,59.3636364 C93.3193007,61.8872267 92.4658396,64.4890679 91.5010574,67.0909091 C90.7403637,65.5258918 89.9425631,63.9608746 89.0705484,62.3958573 C88.2170873,60.83084 87.3079656,59.3049482 86.3988439,57.8181818 C89.0334414,58.2289988 91.5752714,58.7376295 94.0057803,59.3636364 Z M85.1790173,79.5885766 C83.6956647,82.169075 82.1742775,84.6157697 80.5958382,86.8904312 C77.7622543,87.1389237 74.8906358,87.2727273 72,87.2727273 C69.1283815,87.2727273 66.256763,87.1389237 63.4421965,86.909546 C61.8637572,84.6348845 60.3233526,82.2073046 58.84,79.645921 C57.3946821,77.1418819 56.0824855,74.5996132 54.8843931,72.0382296 C56.0634682,69.4768461 57.3946821,66.9154625 58.8209827,64.4114234 C60.3043353,61.830925 61.8257225,59.3842303 63.4041618,57.1095688 C66.2377457,56.8610763 69.1093642,56.7272727 72,56.7272727 C74.8716185,56.7272727 77.743237,56.8610763 80.5578035,57.090454 C82.1362428,59.3651155 83.6766474,61.7926954 85.16,64.354079 C86.6053179,66.8581181 87.9175145,69.4003868 89.1156069,71.9617704 C87.9175145,74.5231539 86.6053179,77.0845375 85.1790173,79.5885766 Z M91.8191818,76.9090909 C92.8874235,79.5085584 93.7974073,82.1080259 94.5491329,84.6298973 C91.9576576,85.2506657 89.2277064,85.774439 86.3988439,86.1818182 C87.3681744,84.6880943 88.3375049,83.1555725 89.2474886,81.5842526 C90.1574724,80.0323317 91.0081093,78.4610118 91.8191818,76.9090909 Z M72.3011529,97.6363636 C70.4736017,95.8363636 68.6460504,93.8301136 66.8381503,91.6363636 C68.6067483,91.7113636 70.4146484,91.7676136 72.2421997,91.7676136 C74.089402,91.7676136 75.9169532,91.7301136 77.7052023,91.6363636 C75.9366043,93.8301136 74.1090531,95.8363636 72.3011529,97.6363636 Z M57.6011561,86.7272727 C54.9665586,86.3164557 52.4247286,85.8078251 49.9942197,85.1818182 C50.6806993,82.6582278 51.5341604,80.0563867 52.4989426,77.4545455 C53.2596363,79.0195627 54.0574369,80.58458 54.9294516,82.1495972 C55.8014662,83.7146145 56.6920344,85.2405063 57.6011561,86.7272727 Z M72.2421997,46.3636364 C74.0697509,48.1636364 75.8973022,50.1698864 77.7052023,52.3636364 C75.9366043,52.2886364 74.1287042,52.2323864 72.3011529,52.2323864 C70.4539506,52.2323864 68.6263994,52.2698864 66.8381503,52.3636364 C68.6067483,50.1698864 70.4342995,48.1636364 72.2421997,46.3636364 Z M58.1445087,57.8181818 C57.1751782,59.3150372 56.2058477,60.8507719 55.295864,62.4253859 C54.3858802,63.9805603 53.5352433,65.5357347 52.7241708,67.0909091 C51.6559291,64.485992 50.7459453,61.8810749 49.9942197,59.3539165 C52.585695,58.7512864 55.3156462,58.2264151 58.1445087,57.8181818 Z M40.4412296,82.0309764 C33.7046589,79.1160494 29.3468208,75.2938272 29.3468208,72.2630752 C29.3468208,69.2323232 33.7046589,65.3907969 40.4412296,62.495174 C42.0777976,61.7809203 43.8666045,61.1438833 45.712501,60.5454545 C46.7972031,64.3290685 48.2244426,68.2671156 49.9942197,72.3016835 C48.2434725,76.3169473 46.8352628,80.2356902 45.7695906,84 C43.8856344,83.4015713 42.0968275,82.7452301 40.4412296,82.0309764 Z M50.9389067,109.11722 C48.3598082,107.617473 47.2409345,101.906898 48.1132767,94.5619835 C48.3218802,92.7545961 48.6632315,90.851071 49.0804386,88.9090909 C52.7973748,89.8320121 56.8556623,90.5434306 61.1225533,91.0048912 C63.6826879,94.5619835 66.3376423,97.7922078 69.0115607,100.618654 C62.8293097,106.444594 57.0263379,109.636364 53.0818342,109.636364 C52.228456,109.617136 51.5078255,109.444088 50.9389067,109.11722 Z M95.8736441,94.5199154 C96.7652014,101.885328 95.6649817,107.611839 93.1041256,109.135053 C92.5350464,109.482114 91.7952435,109.636364 90.9226555,109.636364 C86.9960094,109.636364 81.1724327,106.454968 74.9884393,100.651332 C77.644142,97.8169979 80.2998447,94.5970402 82.8227623,91.0300211 C87.1098252,90.5672727 91.1692564,89.8538689 94.8872402,88.9090909 C95.3235342,90.8564905 95.6649817,92.7267653 95.8736441,94.5199154 Z M98.2265193,60.5454545 C100.108741,61.1438833 101.895901,61.8002245 103.568986,62.5144781 C110.299354,65.4294052 114.653179,69.2516274 114.653179,72.2823793 C114.634167,75.3131313 110.280341,79.1546577 103.549974,82.0502806 C101.914913,82.7645342 100.127753,83.4015713 98.2835564,84 C97.1998531,80.2163861 95.7739278,76.2783389 94.0057803,72.243771 C95.7549154,68.2285073 97.1618284,64.3097643 98.2265193,60.5454545 Z M71.7283237,63.2727273 C76.5296894,63.2727273 80.4219653,67.1800604 80.4219653,72 C80.4219653,76.8199396 76.5296894,80.7272727 71.7283237,80.7272727 C66.926958,80.7272727 63.0346821,76.8199396 63.0346821,72 C63.0346821,67.1800604 66.926958,63.2727273 71.7283237,63.2727273 Z" id="Shape" fill="#FFFFFF" fill-rule="nonzero"></path>
            </g>
        </g>
    </g>
</svg>