<?xml version="1.0" encoding="UTF-8"?>
<svg width="143px" height="143px" viewBox="0 0 143 143" version="1.1" xmlns="http://www.w3.org/2000/svg" xmlns:xlink="http://www.w3.org/1999/xlink">
    <!-- Generator: Sketch 61.2 (89653) - https://sketch.com -->
    <title>i18n</title>
    <desc>Created with Sketch.</desc>
    <g id="About" stroke="none" stroke-width="1" fill="none" fill-rule="evenodd">
        <g id="Artboard" transform="translate(-387.000000, -333.000000)">
            <g id="i18n" transform="translate(387.000000, 333.000000)">
                <rect id="Rectangle" fill="#FF632D" x="0" y="0" width="143" height="143" rx="16"></rect>
                <g id="www" transform="translate(21.000000, 21.000000)" fill="#FFFFFF" fill-rule="nonzero">
                    <path d="M62.496328,14.9690625 C59.1798047,9.44097651 55.1085937,4.4034375 50.4,0 C45.6914062,4.4034375 41.6201953,9.44097651 38.303672,14.9690625 L62.496328,14.9690625 Z" id="Path"></path>
                    <path d="M36.432539,18.3290625 C34.1832422,22.6069922 32.3957812,27.1129688 31.0988672,31.7690625 L69.7011328,31.7690625 C68.4042188,27.1129688 66.6167578,22.6069922 64.367461,18.3290625 L36.432539,18.3290625 Z" id="Path"></path>
                    <path d="M73.1940235,31.7690625 L97.2857813,31.7690625 C95.3670703,26.90625 92.7026953,22.3723828 89.389453,18.3290625 L68.142539,18.3290625 C70.2720703,22.6283203 71.964375,27.1310155 73.1940235,31.7690625 Z" id="Path"></path>
                    <path d="M68.142539,82.1690625 L89.394375,82.1690625 C92.7076172,78.1257422 95.3719922,73.5910547 97.290703,68.7290625 L73.1940235,68.7290625 C71.964375,73.366289 70.2720703,77.8689845 68.142539,82.1690625 Z" id="Path"></path>
                    <path d="M32.657461,18.3290625 L11.4023438,18.3290625 C8.08828125,22.3715625 5.42472651,26.90625 3.50601552,31.7690625 L27.6059765,31.7690625 C28.835625,27.1310155 30.5279297,22.6283203 32.657461,18.3290625 Z" id="Path"></path>
                    <path d="M86.3723438,14.9690625 C78.0675,6.47636724 67.021172,1.20257802 55.1963672,0.08203125 C59.5407422,4.54453125 63.2928515,9.5484375 66.36,14.9690625 L86.3723438,14.9690625 Z" id="Path"></path>
                    <path d="M14.4227345,85.5290625 C22.7292188,94.0217578 33.7763672,99.2963672 45.6036328,100.415273 C41.2592578,95.9527735 37.5071485,90.9496875 34.44,85.5290625 L14.4227345,85.5290625 Z" id="Path"></path>
                    <path d="M55.1963672,100.415273 C67.021172,99.295547 78.0675,94.0209375 86.3723438,85.5290625 L66.36,85.5290625 C63.2928515,90.9496875 59.5407422,95.9527735 55.1963672,100.415273 L55.1963672,100.415273 Z" id="Path"></path>
                    <path d="M27.6059765,68.7290625 L3.51257802,68.7290625 C5.43128901,73.5910547 8.09566401,78.1257422 11.4089063,82.1690625 L32.657461,82.1690625 C30.5279297,77.8689845 28.835625,73.366289 27.6059765,68.7290625 Z" id="Path"></path>
                    <path d="M45.6036328,0.08203125 C33.7763672,1.2009375 22.7292188,6.47554698 14.4227345,14.9690625 L34.44,14.9690625 C37.5071485,9.5484375 41.2592578,4.54453125 45.6036328,0.08203125 Z" id="Path"></path>
                    <path d="M64.367461,82.1690625 C66.6167578,77.8903125 68.4042187,73.3851562 69.7011328,68.7290625 L31.0988672,68.7290625 C32.3957812,73.3851562 34.1832422,77.8903125 36.432539,82.1690625 L64.367461,82.1690625 Z" id="Path"></path>
                    <path d="M38.303672,85.5290625 C41.6201953,91.056328 45.6914062,96.0946875 50.4,100.497305 C55.1085937,96.0946875 59.1798047,91.056328 62.496328,85.5290625 L38.303672,85.5290625 Z" id="Path"></path>
                    <path d="M98.4883595,35.1290625 L2.31164052,35.1290625 C-0.77027349,44.9728125 -0.77027349,55.5244922 2.31164052,65.3690625 L98.4883595,65.3690625 C101.570273,55.5244922 101.570273,44.9728125 98.4883595,35.1290625 Z" id="Shape"></path>
                </g>
                <path d="M50.5972081,82.5803509 L50.5972081,81.16 C49.5068917,81.1384795 48.8476953,81.1035088 48.6196189,81.0550877 C48.3915425,81.0066667 48.2246573,80.9421053 48.1189634,80.8614035 C48.0132695,80.7807018 47.9381711,80.6650292 47.8936684,80.514386 C47.7824117,80.1808187 47.7267833,79.459883 47.7267833,78.3515789 L47.7267833,78.3515789 L47.6767177,75.3978947 L47.6769629,68.8427039 C47.6794966,68.5115871 47.7016662,67.1027326 47.7434718,64.6161404 C47.7545975,63.8414035 47.771286,63.314152 47.7935373,63.034386 C47.8269144,62.5178947 47.8825428,62.1681871 47.9604225,61.9852632 C47.9937995,61.8776608 48.0549908,61.7888889 48.1439962,61.7189474 C48.2330016,61.6490058 48.3831983,61.5898246 48.5945861,61.5414035 C48.805974,61.4929825 49.4735147,61.4526316 50.5972081,61.4203509 L50.5972081,61.4203509 L50.5972081,60 C48.7837227,60.0645614 46.8589804,60.0968421 44.8229813,60.0968421 C43.0094959,60.0968421 41.4018354,60.0645614 40,60 L40,60 L40,61.4203509 C41.2126989,61.4633918 41.916398,61.5091228 42.1110974,61.5575439 C42.3057967,61.6059649 42.4393049,61.6678363 42.5116218,61.7431579 C42.5839387,61.8184795 42.6367856,61.9260819 42.6701627,62.0659649 C42.7480424,62.4102924 42.8147965,63.265731 42.8704249,64.6322807 C42.8901088,65.1748448 42.9010863,66.3152545 42.9033575,68.0535098 L42.9038019,75.5108772 C42.9038019,76.6084211 42.8592992,77.802807 42.7702938,79.0940351 C42.7146654,79.9763743 42.6701627,80.4821053 42.6367856,80.6112281 C42.6145343,80.7080702 42.5616873,80.794152 42.4782447,80.8694737 C42.3948022,80.9447953 42.2362612,81.0039766 42.002622,81.0470175 C41.8246112,81.0792982 41.1570705,81.1169591 40,81.16 L40,81.16 L40,82.5803509 C41.4018354,82.5157895 42.9983702,82.4835088 44.7896043,82.4835088 C46.8478547,82.4835088 48.7837227,82.5157895 50.5972081,82.5803509 L50.5972081,82.5803509 Z M58.0647186,82.5803509 L58.0647186,64.8543719 L56.2960029,64.8543719 L53.7070131,66.3914498 L53.7070131,69.3416477 L55.5526296,68.2756098 L55.5526296,82.5803509 L58.0647186,82.5803509 Z M66.9595645,82.8530582 C68.5146673,82.8530582 69.8817906,82.3654905 71.0609344,81.3903551 C72.2400783,80.4152196 72.8296502,79.21696 72.8296502,77.7955761 C72.8296502,76.5725249 72.5946759,75.6221811 72.1247272,74.9445446 C71.6547786,74.2669081 70.7020646,73.5562161 69.2665851,72.8124688 C70.3773728,72.15136 71.0694789,71.6555284 71.3429036,71.324974 C71.7530406,70.8291425 71.9581091,70.1184505 71.9581091,69.1928982 C71.9581091,67.9202639 71.4582546,66.8335663 70.4585457,65.9328056 C69.4588368,65.0320449 68.2925098,64.5816646 66.9595645,64.5816646 C65.6095303,64.5816646 64.4346587,65.0320449 63.4349498,65.9328056 C62.4352409,66.8335663 61.9353864,67.9202639 61.9353864,69.1928982 C61.9353864,70.6969207 62.8411056,71.9034442 64.652544,72.8124688 C63.2341536,73.622327 62.2814395,74.3702063 61.7944019,75.0561067 C61.3073642,75.742007 61.0638453,76.6551635 61.0638453,77.7955761 C61.0638453,79.2334877 61.6705063,80.4482751 62.8838282,81.4399382 C64.045883,82.3820182 65.4044618,82.8530582 66.9595645,82.8530582 Z M66.9595645,71.5976814 C66.4981604,71.3332379 65.9427666,71.0274751 65.293383,70.680393 C64.6610885,70.3002554 64.3449412,69.8044239 64.3449412,69.1928982 C64.3449412,68.5483172 64.6269104,67.9781109 65.1908488,67.4822793 C65.7547871,66.9864477 66.3699926,66.7385319 67.0364652,66.7385319 C67.6858488,66.7385319 68.2668762,67.0112393 68.7795474,67.556654 C69.2922187,68.1020688 69.5485543,68.6888028 69.5485543,69.3168561 C69.5485543,69.9283818 69.1982289,70.4159495 68.4975782,70.7795593 C67.5064139,71.3084463 66.9937426,71.5811537 66.9595645,71.5976814 Z M66.8570303,80.6466077 C65.9684002,80.6466077 65.1823043,80.3697684 64.4987426,79.8160898 C63.815181,79.2624112 63.4734001,78.5806428 63.4734001,77.7707846 C63.4734001,76.9113432 63.815181,76.1841235 64.4987426,75.5891256 C64.6354549,75.4734316 65.4557289,74.9362807 66.9595645,73.977673 C67.4380577,74.2916996 68.0959858,74.6966288 68.9333488,75.1924604 C69.9245132,75.8700968 70.4200954,76.803913 70.4200954,77.9939088 C70.4200954,78.7872393 70.035592,79.4400842 69.2665851,79.9524435 C68.5830235,80.4152196 67.7798385,80.6466077 66.8570303,80.6466077 Z M97.996067,83 L98.2130177,82.8547368 C98.0683839,81.3267836 97.996067,76.9850292 97.996067,69.8294737 C97.996067,68.9148538 98.0210998,67.497193 98.0711653,65.5764912 C98.1212309,63.6557895 98.2297062,62.4264327 98.3965914,61.8884211 C98.4299684,61.7808187 98.4911596,61.700117 98.5801651,61.6463158 C98.8360557,61.4849123 99.6426673,61.3880702 101,61.3557895 L101,61.3557895 L101,60 C99.2643943,60.0645614 97.8458703,60.0968421 96.7444282,60.0968421 C95.6096091,60.0968421 94.3635332,60.0645614 93.0062005,60 L93.0062005,60 L93.0062005,61.3557895 C94.4859156,61.3773099 95.3537185,61.4849123 95.6096091,61.6785965 C95.7653686,61.7969591 95.8654997,62.0552047 95.9100024,62.4533333 C96.0385658,63.4376955 96.1052283,66.6321713 96.1099899,72.0367608 L96.1102646,76.3985965 C94.5637954,74.859883 92.6168017,72.7293567 90.2692837,70.0070175 C87.0094601,66.2301754 84.2336035,62.8945029 81.9417139,60 L81.9417139,60 L80.4063703,60.0484211 L77.9865354,60.0968421 C77.3189947,60.0968421 76.2787438,60.0645614 74.8657827,60 L74.8657827,60 L74.8657827,61.3557895 C76.0451046,61.4311111 76.757148,61.5010526 77.0019129,61.565614 C77.2466778,61.6301754 77.4219072,61.7189474 77.5276012,61.8319298 C77.6332951,61.9449123 77.7139563,62.1197661 77.7695847,62.3564912 C77.825213,62.5932164 77.8585901,63.1043275 77.8697158,63.8898246 L77.8697158,63.8898246 L77.9364698,68.5866667 L77.9361292,74.0702685 C77.9331775,75.363473 77.9110397,76.4247285 77.8697158,77.2540351 C77.7807103,78.8250292 77.7028306,79.8149708 77.6360765,80.2238596 C77.5804481,80.5251462 77.5109126,80.7242105 77.4274701,80.8210526 C77.3440275,80.9178947 77.241115,80.9878363 77.1187325,81.0308772 C76.929596,81.0846784 76.1786127,81.1438596 74.8657827,81.2084211 L74.8657827,81.2084211 L74.8657827,82.5803509 C76.7126453,82.5157895 78.1756719,82.4835088 79.2548627,82.4835088 L79.3792602,82.4838793 C79.8120831,82.4859381 80.9721905,82.4965748 82.8595823,82.5157895 L82.8595823,82.5157895 L82.8595823,81.2084211 C82.7038228,81.2191813 82.592566,81.2245614 82.5258119,81.2245614 C82.1920416,81.2245614 81.6635719,81.1815205 80.9404028,81.0954386 C80.6733866,81.0631579 80.4870315,81.0066667 80.3813375,80.9259649 C80.2756436,80.8452632 80.2005453,80.7403509 80.1560426,80.6112281 C80.0670371,80.3422222 80.0002831,79.5836257 79.9557804,78.3354386 C79.8890263,76.5277193 79.8556493,74.7899415 79.8556493,73.1221053 L79.8556493,73.1221053 L79.8556493,65.0842105 C86.4531762,72.8638596 91.5487367,78.6959064 95.1423306,82.5803509 C96.1102646,82.7094737 97.06151,82.8493567 97.996067,83 L97.996067,83 Z" id="I18N" fill="#FF632D" fill-rule="nonzero"></path>
            </g>
        </g>
    </g>
</svg>