<?xml version="1.0" encoding="UTF-8"?>
<svg width="143px" height="143px" viewBox="0 0 143 143" version="1.1" xmlns="http://www.w3.org/2000/svg" xmlns:xlink="http://www.w3.org/1999/xlink">
    <!-- Generator: Sketch 61.2 (89653) - https://sketch.com -->
    <title>jamstack</title>
    <desc>Created with Sketch.</desc>
    <g id="About" stroke="none" stroke-width="1" fill="none" fill-rule="evenodd">
        <g id="Artboard" transform="translate(-167.000000, -893.000000)">
            <g id="jamstack" transform="translate(167.000000, 893.000000)">
                <rect id="Rectangle" fill="#FF632D" x="0" y="0" width="143" height="143" rx="16"></rect>
                <path d="M32.096,124.72 C33.28,124.72 34.616,124.496 36.104,124.048 C37.592,123.6 38.992,122.848 40.304,121.792 C41.616,120.736 42.728,119.344 43.64,117.616 C44.552,115.888 45.008,113.728 45.008,111.136 L45.008,111.136 L45.008,85.648 L37.424,85.648 L37.424,111.52 C37.424,112.48 37.256,113.328 36.92,114.064 C36.584,114.8 36.136,115.424 35.576,115.936 C35.016,116.448 34.384,116.84 33.68,117.112 C32.976,117.384 32.256,117.52 31.52,117.52 C30.432,117.52 29.376,117.232 28.352,116.656 C27.328,116.08 26.496,115.28 25.856,114.256 L25.856,114.256 L20.96,119.104 C22.272,120.8 23.912,122.16 25.88,123.184 C27.848,124.208 29.92,124.72 32.096,124.72 Z M55.232,124 L58.832,116.32 L77.456,116.32 L81.008,124 L89.168,124 L71.024,85.6 L65.216,85.6 L47.072,124 L55.232,124 Z M74.528,110.128 L61.664,110.128 L68.144,96.304 L74.528,110.128 Z M100.304,124 L100.304,98.176 L111.92,118.768 L124.016,98.368 L124.016,124 L131.312,124 L131.312,85.6 L123.2,85.6 L112.064,104.656 L101.408,85.6 L93.008,85.6 L93.008,124 L100.304,124 Z" id="JAM" fill="#FFFFFF" fill-rule="nonzero"></path>
            </g>
        </g>
    </g>
</svg>