<?xml version="1.0" encoding="UTF-8"?>
<svg width="143px" height="143px" viewBox="0 0 143 143" version="1.1" xmlns="http://www.w3.org/2000/svg" xmlns:xlink="http://www.w3.org/1999/xlink">
    <!-- Generator: Sketch 61.2 (89653) - https://sketch.com -->
    <title>jamstack</title>
    <desc>Created with Sketch.</desc>
    <g id="About" stroke="none" stroke-width="1" fill="none" fill-rule="evenodd">
        <g id="Artboard" transform="translate(-167.000000, -893.000000)">
            <g id="jamstack" transform="translate(167.000000, 893.000000)">
                <rect id="Rectangle" fill="#FF632D" x="0" y="0" width="143" height="143" rx="16"></rect>
                <g id="jamstack-logo-2020" transform="translate(31.000000, 32.000000)" fill-rule="nonzero">
                    <path d="M39.159,0 C17.5057488,0 0,17.5057488 0,39.159 C0,60.812388 17.5057488,78.318 39.159,78.318 C60.812388,78.318 78.318,60.812388 78.318,39.159 L78.318,0 L39.159,0 Z" id="Path" fill="#FFFFFF"></path>
                    <path d="M10.0190268,39.966462 C10.4499468,55.37151 22.8924882,67.814154 38.297502,68.245074 L38.297502,39.966462 L10.0190268,39.966462 Z" id="Path" fill="#FF632D"></path>
                    <path d="M39.966462,68.298084 C55.37151,67.867164 67.814154,55.424862 68.245074,40.019814 L39.966462,40.019814 L39.966462,68.298084 Z" id="Path" fill="#FF632D"></path>
                    <polygon id="Path" fill="#FF632D" points="68.245074 10.0185138 39.966462 10.0185138 39.966462 38.29716 68.245074 38.29716"></polygon>
                </g>
            </g>
        </g>
    </g>
</svg>