<?xml version="1.0" encoding="UTF-8"?>
<svg width="143px" height="143px" viewBox="0 0 143 143" version="1.1" xmlns="http://www.w3.org/2000/svg" xmlns:xlink="http://www.w3.org/1999/xlink">
    <!-- Generator: Sketch 61.2 (89653) - https://sketch.com -->
    <title>jamstack</title>
    <desc>Created with Sketch.</desc>
    <g id="About" stroke="none" stroke-width="1" fill="none" fill-rule="evenodd">
        <g id="Artboard" transform="translate(-167.000000, -963.000000)">
            <g id="jamstack" transform="translate(167.000000, 963.000000)">
                <rect id="Rectangle" fill="#FF632D" x="0" y="0" width="143" height="143" rx="16"></rect>
                <g id="Group-4" transform="translate(24.000000, 46.000000)" fill="#FFFFFF">
                    <path d="M66.6,49.9021296 C66.961883,50.1304557 67.3767901,50.3258645 67.8555062,50.4823711 C70.2559765,51.2672981 75.9008113,50.8998218 78.791681,50.930345 C81.6055606,50.9596713 87.3792114,51.2146304 89.7509228,50.5200763 C93.2678978,49.4909632 93.586942,45.9658242 93.5393101,42.9649673 C93.4608222,38.0201968 94.2226338,31.5558461 91.9273132,27.5755512 C91.2727484,26.4408036 90.0873421,25.3114424 89.6391824,24.0716588 C88.5903809,24.2673669 88.0161014,25.0328427 87.2743612,25.4499941 C86.3816367,25.9521319 85.4116226,26.1645978 84.1636057,26.042804 C81.9099257,25.8228569 81.1945478,23.9369973 78.8965312,23.8687688 C76.8246913,23.8077222 75.7633078,25.7276961 73.6201698,26.0239514 C72.3356052,26.2020038 71.4183158,26.0110837 70.4857482,25.4775249 C69.8428667,25.1091509 69.3159196,24.5672131 68.5978455,24.2550977 C69.4525244,29.43388 68.9393576,35.2542495 69.0151493,40.0541841 C69.0723676,43.6613169 68.6203134,47.3100453 66.6,49.9021296 Z M70.1376455,13.3325533 C67.4028529,13.7613754 67.5166903,16.2690719 68.3776601,17.2712527 C69.0504988,18.0543842 69.326105,18.3084456 70.7394856,18.2958772 C71.870969,18.2857028 73.0156336,18.2746306 74.1459187,18.2803163 C78.6511817,18.3015629 83.1750182,18.3177223 87.6769859,18.2934832 C88.5062012,18.2889945 89.2488401,17.4998781 89.5651881,16.9103599 C90.0187401,16.0616932 89.8974135,14.9101877 89.3698672,14.2461568 C88.2926064,12.8905643 85.4607524,13.2616316 83.5413947,13.2433775 C81.3991555,13.2233279 71.5078878,13.1182919 70.1376455,13.3325533 Z M68.2614262,22.5619537 C70.1259622,23.1011982 70.5714258,24.6070131 73.0114396,24.5869635 C75.0865747,24.5690086 75.7860753,23.3055845 77.1221663,22.7331234 C80.6693981,21.2132439 81.7140056,24.5842703 84.780724,24.5725996 C87.6023925,24.5615274 87.6952598,22.4994109 90.582235,22.389587 L90.1924919,21.6740855 C90.0103521,21.3898001 89.9342608,21.2503506 89.7611082,20.9726487 C89.5136618,20.5752476 89.0681982,19.9707671 88.9169144,19.5587029 L68.791369,19.5521194 C68.6475745,19.8408935 68.231469,20.4744011 67.854907,21.0752907 C68.0076887,21.5612691 68.1424961,22.0574219 68.2614262,22.5619537 L68.2614262,22.5619537 Z" id="Fill-2"></path>
                    <path d="M3.9866006,24.076746 C3.10597925,26.314521 0.866210235,27.2143591 0.300074931,31.7823766 C-0.117125098,35.1465203 0.00764218049,39.414093 0.0538634726,42.8620261 C0.0922301661,45.7141568 0.0550718724,49.2692205 3.79355874,50.4823711 C6.21428563,51.2672981 11.906755,50.8998218 14.8223216,50.930345 C17.6599464,50.9596713 23.4823187,51.2146304 25.874044,50.5200763 C26.0577208,50.466511 26.2329387,50.4063622 26.4,50.3396299 C23.9886382,47.7271967 23.6702249,43.9228595 23.6170553,39.9940353 C23.5511975,35.1109098 23.3632913,29.9542719 23.912509,25.0885028 C23.7375932,25.2210696 23.5623752,25.3464544 23.3765837,25.4499941 C22.4760238,25.9521319 21.4978241,26.1645978 20.2395778,26.042804 C17.9665778,25.8228569 17.2451632,23.9369973 14.9280565,23.8687688 C12.8384312,23.8077222 11.7683932,25.7276961 9.60686805,26.0239514 C8.31146347,26.2020038 7.38643343,26.0110837 6.44629839,25.4775249 C5.64301462,25.021172 5.01917823,24.2981894 3.9866006,24.076746 Z M6.09495615,13.3325533 C3.33708572,13.7613754 3.4518837,16.2690719 4.32042105,17.2712527 C4.99893753,18.0543842 5.27656739,18.3084456 6.70187494,18.2958772 C7.84290645,18.2857028 8.99723035,18.2746306 10.1373556,18.2803163 C14.6803346,18.3015629 19.2423459,18.3177223 23.782606,18.2934832 C24.6185166,18.2889945 25.3677245,17.4998781 25.686742,16.9103599 C26.1441213,16.0616932 26.0217709,14.9101877 25.4897729,14.2461568 C24.4031193,12.8905643 21.5473685,13.2616316 19.6121163,13.2433775 C17.4514974,13.2233279 7.47706341,13.1182919 6.09495615,13.3325533 Z M3.08906166,22.382405 C5.98861697,22.5377146 6.10915484,24.6106041 8.99330306,24.5869635 C11.0859494,24.5690086 11.7913528,23.3055845 13.1384165,22.7331234 C16.715884,21.2132439 17.7690045,24.5842703 20.8619037,24.5725996 C22.5512467,24.5660161 23.2705466,23.8358515 24.1859095,23.2214958 C24.4073487,22.0610129 24.7278768,20.9457164 25.1783078,19.8672273 C25.1178878,19.7574034 25.0674371,19.6532652 25.0326956,19.5587029 L4.73731898,19.5521194 C4.45304293,20.117997 3.11594855,22.0041558 3.08906166,22.382405 L3.08906166,22.382405 Z" id="Fill-3"></path>
                    <path d="M31.1856211,14.8472348 C29.9962927,17.9017312 26.9697317,19.1312367 26.2051205,25.3669733 C25.6420394,29.9586527 25.8101816,35.7843535 25.8727462,40.4913366 C25.9247831,44.3848712 25.8739494,49.2378657 30.9248351,50.8930619 C34.1953378,51.964815 41.8856663,51.4638608 45.8254294,51.5051052 C49.6584116,51.5451454 57.5253046,51.892562 60.7561028,50.9451443 C65.5474058,49.5401241 65.9823499,44.728073 65.917379,40.63223 C65.8102973,33.8816906 66.8483277,25.0577906 63.7213025,19.6240625 C62.8294566,18.0742353 61.2136063,16.5331386 60.6030001,14.8400095 C59.1742419,15.1079478 58.391884,16.1529071 57.3818272,16.7225017 C56.1654276,17.4080022 54.8434503,17.6979175 53.14398,17.5317355 C50.0735035,17.2312834 49.0983384,14.6566674 45.9683052,14.5639427 C43.1444775,14.4805507 41.6994766,17.1009269 38.7787941,17.5061459 C37.0290917,17.7487956 35.779605,17.4880826 34.5087622,16.7592303 C33.4241092,16.1372522 32.5806907,15.1497943 31.1856211,14.8472348 Z M34.0344145,0.181076075 C30.3079124,0.766024477 30.4637222,4.18961338 31.6368079,5.55790493 C32.5533187,6.62664751 32.9287061,6.973462 34.8540705,6.95630191 C36.3959262,6.94245341 37.954927,6.9274007 39.4958803,6.934626 C45.6329231,6.96352721 51.7964355,6.98610628 57.9298688,6.95299031 C59.0602421,6.94696923 60.0724045,5.86949608 60.5025359,5.06447702 C61.1212634,3.90632133 60.9555274,2.33451711 60.2369372,1.42864488 C58.7687754,-0.422236637 54.9108275,0.0835344989 52.2957489,0.0594501591 C49.3768711,0.0320542226 35.9008239,-0.111849708 34.0344145,0.181076075 Z M29.972831,12.5348371 C33.8906363,12.7470804 34.0533644,15.5766892 37.9495127,15.5438743 C40.7766492,15.51979 41.7298565,13.7947491 43.549944,13.0135134 C48.383057,10.9389485 49.8057993,15.5405627 53.9840898,15.5243058 C57.8288029,15.5095541 57.9548344,12.6940948 61.8879801,12.5441698 L61.3573844,11.5678509 C61.1089309,11.1797919 61.0060603,10.9895257 60.7699392,10.6101973 C60.4324515,10.0673965 59.8251541,9.24250786 59.6194129,8.68013853 L32.2004906,8.67080585 C31.8160795,9.44331105 30.0095275,12.0185291 29.972831,12.5348371 L29.972831,12.5348371 Z" id="Fill-4"></path>
                </g>
            </g>
        </g>
    </g>
</svg>