<svg width="143" height="143" viewBox="0 0 143 143" fill="none" xmlns="http://www.w3.org/2000/svg">
<rect width="143" height="143" rx="13" fill="#FF632D"/>
<path d="M46.6875 65.25V68.2267L39.5865 82.4304C39.3355 82.9315 39.2169 83.4885 39.2418 84.0483C39.2668 84.6082 39.4345 85.1523 39.7291 85.6291C40.0237 86.1058 40.4354 86.4993 40.925 86.7721C41.4145 87.0448 41.9657 87.1878 42.5261 87.1875H46.6875V101.906C46.6888 103.373 47.2721 104.779 48.3092 105.816C49.3462 106.853 50.7525 107.436 52.2191 107.438H68.625V120.938C68.625 121.385 68.8028 121.814 69.1193 122.131C69.4357 122.447 69.8649 122.625 70.3125 122.625H90.5625C91.0101 122.625 91.4393 122.447 91.7557 122.131C92.0722 121.814 92.25 121.385 92.25 120.938V101.386L101.881 91.7556C102.197 91.4392 102.375 91.01 102.375 90.5625V65.25H104.062C104.51 65.25 104.939 65.0722 105.256 64.7557C105.572 64.4393 105.75 64.0101 105.75 63.5625V23.0625C105.75 22.6149 105.572 22.1857 105.256 21.8693C104.939 21.5528 104.51 21.375 104.062 21.375H60.1875C57.9506 21.3777 55.806 22.2675 54.2242 23.8492C52.6425 25.431 51.7527 27.5756 51.75 29.8125C51.7562 31.6442 52.3646 33.4231 53.4814 34.875H53.4375C51.2006 34.8777 49.056 35.7675 47.4742 37.3492C45.8925 38.931 45.0027 41.0756 45 43.3125C45.0062 45.1442 45.6146 46.9231 46.7314 48.375H46.6875C44.4497 48.375 42.3036 49.2639 40.7213 50.8463C39.1389 52.4286 38.25 54.5747 38.25 56.8125C38.25 59.0503 39.1389 61.1964 40.7213 62.7787C42.3036 64.3611 44.4497 65.25 46.6875 65.25V65.25ZM99 89.8639L89.3694 99.4944C89.0529 99.8108 88.8751 100.24 88.875 100.688V119.25H72V105.75C72 105.302 71.8222 104.873 71.5057 104.557C71.1893 104.24 70.7601 104.062 70.3125 104.062H52.2191C51.6473 104.062 51.099 103.835 50.6947 103.43C50.2903 103.026 50.0629 102.478 50.0625 101.906V85.5C50.0625 85.0524 49.8847 84.6232 49.5682 84.3068C49.2518 83.9903 48.8226 83.8125 48.375 83.8125L42.6054 83.9391L49.8937 69.3793C50.0076 69.1443 50.0654 68.8861 50.0625 68.625V65.25H82.125V73.6875C82.1251 74.0212 82.2241 74.3474 82.4095 74.6248C82.5949 74.9023 82.8585 75.1185 83.1668 75.2462C83.4751 75.3739 83.8143 75.4073 84.1416 75.3422C84.4689 75.2772 84.7696 75.1165 85.0056 74.8806L88.875 71.0111L92.7444 74.8806C92.9804 75.1165 93.2811 75.2772 93.6084 75.3422C93.9357 75.4073 94.2749 75.3739 94.5832 75.2462C94.8915 75.1185 95.1551 74.9023 95.3405 74.6248C95.5259 74.3474 95.6249 74.0212 95.625 73.6875V65.25H99V89.8639ZM85.5 69.6139V58.5H92.25V69.6139L90.0681 67.4319C89.7516 67.1156 89.3225 66.9379 88.875 66.9379C88.4275 66.9379 87.9984 67.1156 87.6819 67.4319L85.5 69.6139ZM102.375 61.875H95.625V58.5H102.375V61.875ZM102.375 55.125H78.75V58.5H82.125V61.875H61.875C60.5323 61.875 59.2447 61.3416 58.2953 60.3922C57.3459 59.4428 56.8125 58.1552 56.8125 56.8125C56.8125 55.4698 57.3459 54.1822 58.2953 53.2328C59.2447 52.2834 60.5323 51.75 61.875 51.75H102.375V55.125ZM102.375 41.625H83.8125V45H102.375V48.375H66.2389C64.992 48.2745 63.8348 47.6868 63.0181 46.7393C62.2013 45.7917 61.7906 44.5606 61.875 43.3125C61.7906 42.0644 62.2013 40.8333 63.0181 39.8857C63.8348 38.9382 64.992 38.3505 66.2389 38.25H102.375V41.625ZM72.0591 24.75H102.375V28.125H90.5625V31.5H102.375V34.875H72.0591C70.1977 34.875 68.625 32.5564 68.625 29.8125C68.625 27.0686 70.1977 24.75 72.0591 24.75ZM60.1875 24.75H66.6472C65.7329 26.2804 65.2501 28.0298 65.2501 29.8125C65.2501 31.5952 65.7329 33.3446 66.6472 34.875H60.1875C58.8448 34.875 57.5572 34.3416 56.6078 33.3922C55.6584 32.4428 55.125 31.1552 55.125 29.8125C55.125 28.4698 55.6584 27.1822 56.6078 26.2328C57.5572 25.2834 58.8448 24.75 60.1875 24.75V24.75ZM53.4375 38.25H60.0879C59.0542 39.7358 58.5001 41.5025 58.5001 43.3125C58.5001 45.1225 59.0542 46.8892 60.0879 48.375H53.4375C52.0948 48.375 50.8072 47.8416 49.8578 46.8922C48.9084 45.9428 48.375 44.6552 48.375 43.3125C48.375 41.9698 48.9084 40.6822 49.8578 39.7328C50.8072 38.7834 52.0948 38.25 53.4375 38.25ZM46.6875 51.75H55.1689C54.0468 53.199 53.438 54.9798 53.438 56.8125C53.438 58.6452 54.0468 60.426 55.1689 61.875H46.6875C45.3448 61.875 44.0572 61.3416 43.1078 60.3922C42.1584 59.4428 41.625 58.1552 41.625 56.8125C41.625 55.4698 42.1584 54.1822 43.1078 53.2328C44.0572 52.2834 45.3448 51.75 46.6875 51.75Z" fill="white"/>
<path d="M80.4375 41.625H77.0625V45H80.4375V41.625Z" fill="white"/>
<path d="M87.1875 28.125H83.8125V31.5H87.1875V28.125Z" fill="white"/>
<path d="M75.375 55.125H72V58.5H75.375V55.125Z" fill="white"/>
</svg>
