<?xml version="1.0" encoding="UTF-8"?>
<svg width="143px" height="143px" viewBox="0 0 143 143" version="1.1" xmlns="http://www.w3.org/2000/svg" xmlns:xlink="http://www.w3.org/1999/xlink">
    <!-- Generator: Sketch 61.2 (89653) - https://sketch.com -->
    <title>next</title>
    <desc>Created with Sketch.</desc>
    <g id="About" stroke="none" stroke-width="1" fill="none" fill-rule="evenodd">
        <g id="Artboard" transform="translate(-167.000000, -199.000000)">
            <g id="next" transform="translate(167.000000, 199.000000)">
                <rect id="Rectangle" fill="#FF632D" x="0" y="0" width="143" height="143" rx="16"></rect>
                <g id="next-js-seeklogo.com" transform="translate(20.000000, 41.000000)" fill="#FFFFFF" fill-rule="nonzero">
                    <path d="M24.162086,16.112262 L43.475665,16.112262 L43.475665,17.6473318 L25.9324974,17.6473318 L25.9324974,29.2007516 L42.4295128,29.2007516 L42.4295128,30.7358212 L25.9324974,30.7358212 L25.9324974,43.420345 L43.6768482,43.420345 L43.6768482,44.9554146 L24.162086,44.9554146 L24.162086,16.112262 Z M45.20584,16.112262 L47.2579076,16.112262 L56.3513844,28.7967858 L65.6460444,16.112262 L78.2882972,0 L57.5182464,30.1298726 L68.2211882,44.9554146 L66.0886474,44.9554146 L56.3513844,31.4629596 L46.573885,44.9554146 L44.4815808,44.9554146 L55.2649956,30.1298726 L45.20584,16.112262 Z M68.9856842,17.6473318 L68.9856842,16.112262 L90.995117,16.112262 L90.995117,17.6473318 L80.855488,17.6473318 L80.855488,44.9554146 L79.0850764,44.9554146 L79.0850764,17.6473318 L68.9856842,17.6473318 Z M2.84217094e-15,16.112262 L2.21301428,16.112262 L32.729186,61.7768014 L20.1183116,44.9554146 L1.85088466,18.2936769 L1.77041142,44.9554146 L2.84217094e-15,44.9554146 L2.84217094e-15,16.112262 Z M90.816741,42.9570938 C90.4550334,42.9570938 90.1837524,42.676836 90.1837524,42.314657 C90.1837524,41.9524776 90.4550334,41.6722198 90.816741,41.6722198 C91.1827548,41.6722198 91.4497296,41.9524776 91.4497296,42.314657 C91.4497296,42.676836 91.1827548,42.9570938 90.816741,42.9570938 Z M92.556383,41.2669236 L93.5037126,41.2669236 C93.5166306,41.780011 93.8912568,42.1249438 94.4424302,42.1249438 C95.0581944,42.1249438 95.406984,41.754141 95.406984,41.059964 L95.406984,36.6620726 L96.371538,36.6620726 L96.371538,41.0642758 C96.371538,42.314657 95.6481226,43.0347036 94.4510424,43.0347036 C93.3271648,43.0347036 92.556383,42.3362152 92.556383,41.2669236 Z M97.633209,41.2108724 L98.5891508,41.2108724 C98.6709656,41.8015696 99.2479756,42.1766838 100.079042,42.1766838 C100.85413,42.1766838 101.422528,41.7756996 101.422528,41.2238072 C101.422528,40.749525 101.06082,40.4649554 100.238366,40.2709306 L99.4374418,40.0769062 C98.313564,39.8138948 97.8011446,39.2706258 97.8011446,38.3565544 C97.8011446,37.248458 98.7054142,36.5111646 100.061818,36.5111646 C101.323489,36.5111646 102.244982,37.248458 102.300961,38.296191 L101.362243,38.296191 C101.271817,37.7227406 100.772315,37.364873 100.0489,37.364873 C99.28673,37.364873 98.778617,37.7313638 98.778617,38.2918796 C98.778617,38.7359802 99.105876,38.990368 99.9154126,39.1800812 L100.600074,39.3482356 C101.874663,39.6457404 102.4,40.163139 102.4,41.0987692 C102.4,42.288787 101.478507,43.0347036 100.005839,43.0347036 C98.6279052,43.0347036 97.702106,42.32328 97.633209,41.2108724 Z" id="Shape"></path>
                </g>
            </g>
        </g>
    </g>
</svg>