<?xml version="1.0" encoding="UTF-8"?>
<svg width="143px" height="143px" viewBox="0 0 143 143" version="1.1" xmlns="http://www.w3.org/2000/svg" xmlns:xlink="http://www.w3.org/1999/xlink">
    <!-- Generator: Sketch 61.2 (89653) - https://sketch.com -->
    <title>performance</title>
    <desc>Created with Sketch.</desc>
    <g id="About" stroke="none" stroke-width="1" fill="none" fill-rule="evenodd">
        <g id="Artboard" transform="translate(-167.000000, -403.000000)">
            <g id="performance" transform="translate(167.000000, 403.000000)">
                <rect id="Rectangle" fill="#FF632D" x="0" y="0" width="143" height="143" rx="16"></rect>
                <g id="bandwith" transform="translate(25.000000, 25.000000)" fill="#FFFFFF" fill-rule="nonzero">
                    <path d="M43.2703124,51.2 C44.8929688,48.7804688 46.878125,46.6273438 49.1390624,44.8 L28.8,44.8 L28.8,51.2 L43.2703124,51.2 Z" id="Path"></path>
                    <path d="M16,41.6 L54.065625,41.6 C58.0078124,39.5679688 62.4671876,38.4 67.2,38.4 C68.6882812,38.4 70.1390624,38.5484376 71.5679688,38.7679688 C71.8460938,38.1523438 72,37.4882812 72,36.8 L72,35.2 L28.1375,35.2 L24.9375,32 L11.2,32 L11.2,36.8 C11.2,39.4460938 13.3539062,41.6 16,41.6 Z M20.8,35.2 L24,35.2 L24,38.4 L20.8,38.4 L20.8,35.2 Z M14.4,35.2 L17.6,35.2 L17.6,38.4 L14.4,38.4 L14.4,35.2 Z" id="Shape"></path>
                    <path d="M38.4,67.2 C38.4,62.5984376 39.5117188,58.2625 41.4382812,54.4 L19.2,54.4 L19.2,51.2 L25.6,51.2 L25.6,44.8 L16,44.8 C11.5890624,44.8 8,41.2109376 8,36.8 L8,20.384375 C2.9539062,27.809375 0,36.7664062 0,46.4 C0,71.984375 20.8140624,92.8 46.4,92.8 C48.6546876,92.8 50.8976562,92.6179688 53.1171876,92.2960938 C44.3453124,87.3539062 38.4,77.9648438 38.4,67.2 Z" id="Path"></path>
                    <path d="M67.2,92.8 C73.6671876,92.8 79.5648438,90.3695312 84.075,86.4 L50.325,86.4 C54.8351562,90.3695312 60.7328124,92.8 67.2,92.8 Z" id="Path"></path>
                    <path d="M29.4625,32 L72,32 L72,7.7265624 C64.6578124,2.8492188 55.85625,0 46.4,0 C32.3328124,0 19.7171876,6.3007812 11.2,16.2210938 L11.2,28.8 L26.2625,28.8 L29.4625,32 Z M14.4,25.6 L14.4,22.4 L21.3453124,22.4 L27.5023438,8.0335938 L31.60625,22.4 L35.809375,22.4 L40,14.0226562 L44.1890624,22.4 L48.5171876,22.4 L56,3.6929688 L63.4828124,22.4 L68.8,22.4 L68.8,25.6 L61.3171876,25.6 L56,12.3070312 L50.6828124,25.6 L42.2109376,25.6 L40,21.1773438 L37.7890624,25.6 L29.1921876,25.6 L26.8960938,17.5664062 L23.4546876,25.6 L14.4,25.6 Z" id="Shape"></path>
                    <path d="M92.2960938,53.11875 C92.6195312,50.8992188 92.8,48.65625 92.8,46.4 C92.8,31.6914062 85.9117188,18.5679688 75.2,10.0609376 L75.2,36.8 C75.2,37.7101562 75.0351562,38.5953124 74.740625,39.4351562 C82.2546876,41.4796876 88.5539062,46.475 92.2960938,53.11875 L92.2960938,53.11875 Z" id="Path"></path>
                    <path d="M92.71875,65.6 C92.5726562,63.271875 92.1234376,61.0304688 91.3953124,58.9085938 L88.5070312,60.1054688 L87.28125,57.1484376 L90.1632812,55.9554688 C89.1507812,53.8960938 87.875,51.9953124 86.3710938,50.2914062 L84.1710938,52.4914062 L81.9085938,50.2289062 L84.1085938,48.0289062 C82.4046876,46.525 80.5039062,45.2492188 78.4429688,44.2351562 L77.2492188,47.1148438 L74.2929688,45.8898438 L75.4898438,43.0015624 C73.3695312,42.2734376 71.128125,41.8226562 68.8,41.678125 L68.8,44.8 L65.6,44.8 L65.6,41.68125 C63.271875,41.8273438 61.0304688,42.2765624 58.9101562,43.0046876 L60.1070312,45.8929688 L57.1507812,47.11875 L55.9570312,44.2382812 C53.8976562,45.2515624 51.9953124,46.5265624 50.2914062,48.0304688 L52.4914062,50.2304688 L50.2289062,52.4929688 L48.0289062,50.2929688 C46.525,51.996875 45.2492188,53.8976562 44.2367188,55.9570312 L47.11875,57.1507812 L45.8929688,60.1070312 L43.0046876,58.9101562 C42.2765624,61.0304688 41.8257812,63.271875 41.68125,65.6015624 L44.8,65.6015624 L44.8,68.8015624 L41.68125,68.8015624 C41.8273438,71.1296876 42.2765624,73.3726562 43.0046876,75.4929688 L45.8929688,74.2960938 L47.11875,77.253125 L44.2367188,78.4460938 C45.071875,80.14375 46.0734376,81.7421876 47.2476562,83.203125 L87.1523438,83.203125 C88.3265624,81.7421876 89.328125,80.14375 90.1632812,78.4460938 L87.28125,77.253125 L88.5070312,74.2960938 L91.3953124,75.4929688 C92.1234376,73.3726562 92.5742188,71.13125 92.71875,68.8015624 L89.6,68.8015624 L89.6,65.6015624 L92.71875,65.6015624 L92.71875,65.6 Z M72,67.2 C72,69.8460938 69.8460938,72 67.2,72 C64.5539062,72 62.4,69.8460938 62.4,67.2 C62.4,64.5539062 64.5539062,62.4 67.2,62.4 C67.528125,62.4 67.8460938,62.4335938 68.1570312,62.4960938 L75.4289062,50.3757812 L78.1726562,52.0226562 L70.8882812,64.1632812 C71.5710938,64.9953124 72,66.0429688 72,67.2 Z" id="Shape"></path>
                    <path d="M68.8,67.2 C68.8,68.0835938 68.0835938,68.8 67.2,68.8 C66.3164062,68.8 65.6,68.0835938 65.6,67.2 C65.6,66.3164062 66.3164062,65.6 67.2,65.6 C68.0835938,65.6 68.8,66.3164062 68.8,67.2 Z" id="Path"></path>
                </g>
            </g>
        </g>
    </g>
</svg>