<svg width="143" height="143" viewBox="0 0 143 143" fill="none" xmlns="http://www.w3.org/2000/svg">
<rect width="143" height="143" rx="15" fill="#FF632D"/>
<path d="M97.4233 117.546L91.321 135H85.8664L79.7642 117.546H84.8778L88.5028 130.034H88.6846L92.2983 117.546H97.4233Z" fill="black"/>
<path d="M109.98 111.727V135H105.06V116.398H104.923L99.5937 119.739V115.375L105.355 111.727H109.98Z" fill="black"/>
<path d="M124.193 135.318C122.443 135.318 120.886 135.034 119.523 134.466C118.167 133.89 117.102 133.106 116.329 132.114C115.557 131.121 115.17 129.996 115.17 128.739C115.17 127.769 115.39 126.879 115.829 126.068C116.276 125.25 116.883 124.572 117.648 124.034C118.413 123.489 119.269 123.14 120.216 122.989V122.83C118.973 122.58 117.966 121.977 117.193 121.023C116.42 120.061 116.034 118.943 116.034 117.671C116.034 116.466 116.386 115.394 117.091 114.455C117.795 113.508 118.761 112.765 119.989 112.227C121.223 111.682 122.625 111.409 124.193 111.409C125.761 111.409 127.159 111.682 128.386 112.227C129.621 112.773 130.591 113.519 131.295 114.466C132 115.405 132.356 116.474 132.364 117.671C132.356 118.951 131.962 120.068 131.182 121.023C130.401 121.977 129.401 122.58 128.182 122.83V122.989C129.114 123.14 129.958 123.489 130.716 124.034C131.481 124.572 132.087 125.25 132.534 126.068C132.989 126.879 133.22 127.769 133.227 128.739C133.22 129.996 132.829 131.121 132.057 132.114C131.284 133.106 130.216 133.89 128.852 134.466C127.496 135.034 125.943 135.318 124.193 135.318ZM124.193 131.705C124.973 131.705 125.655 131.564 126.239 131.284C126.822 130.996 127.276 130.602 127.602 130.102C127.936 129.595 128.102 129.011 128.102 128.352C128.102 127.678 127.932 127.083 127.591 126.568C127.25 126.046 126.788 125.636 126.204 125.341C125.621 125.038 124.951 124.886 124.193 124.886C123.443 124.886 122.773 125.038 122.182 125.341C121.591 125.636 121.125 126.046 120.784 126.568C120.451 127.083 120.284 127.678 120.284 128.352C120.284 129.011 120.447 129.595 120.773 130.102C121.098 130.602 121.557 130.996 122.148 131.284C122.739 131.564 123.42 131.705 124.193 131.705ZM124.193 121.307C124.845 121.307 125.424 121.174 125.932 120.909C126.439 120.644 126.837 120.277 127.125 119.807C127.413 119.337 127.557 118.796 127.557 118.182C127.557 117.576 127.413 117.046 127.125 116.591C126.837 116.129 126.443 115.769 125.943 115.511C125.443 115.246 124.86 115.114 124.193 115.114C123.534 115.114 122.951 115.246 122.443 115.511C121.936 115.769 121.538 116.129 121.25 116.591C120.97 117.046 120.829 117.576 120.829 118.182C120.829 118.796 120.973 119.337 121.261 119.807C121.549 120.277 121.947 120.644 122.454 120.909C122.962 121.174 123.542 121.307 124.193 121.307Z" fill="black"/>
<path d="M70.5304 79.9817C72.2052 79.9817 73.8424 79.4851 75.2349 78.5546C76.6275 77.6241 77.7128 76.3016 78.3537 74.7543C78.9946 73.207 79.1623 71.5044 78.8356 69.8618C78.5088 68.2192 77.7024 66.7103 76.5181 65.5261C75.3338 64.3418 73.825 63.5353 72.1824 63.2086C70.5398 62.8819 68.8372 63.0496 67.2899 63.6905C65.7426 64.3314 64.4201 65.4168 63.4896 66.8093C62.5591 68.2018 62.0625 69.839 62.0625 71.5138C62.0653 73.7587 62.9584 75.911 64.5458 77.4984C66.1332 79.0858 68.2854 79.9789 70.5304 79.9817V79.9817Z" fill="white"/>
<path d="M98.7478 92.3098C98.4807 90.6479 98.1069 88.9154 97.6562 87.153C109.471 83.7159 117.055 78.0464 117.055 71.5118C117.055 64.9772 109.471 59.3098 97.6562 55.8727C98.0962 54.1124 98.4807 52.38 98.7478 50.718C100.322 40.8915 98.5619 33.9745 93.7918 31.2209C89.0216 28.4674 82.1431 30.407 74.4335 36.6789C73.1262 37.747 71.8167 38.9411 70.5115 40.2036C61.6313 31.6973 52.9327 27.9632 47.2675 31.2316C41.6023 34.5 40.4915 43.9142 43.4223 55.8769C31.5942 59.3141 24 64.9836 24 71.5225C24 78.0614 31.5835 83.7266 43.3988 87.1637C42.9588 88.9261 42.5743 90.6586 42.3072 92.3205C40.7329 102.147 42.4931 109.064 47.2611 111.815C48.678 112.616 50.2824 113.024 51.9094 112.999C57.2115 112.999 63.8423 109.188 70.5243 102.773C77.2042 109.182 83.8349 112.999 89.137 112.999C90.7639 113.023 92.3681 112.615 93.7854 111.815C98.5619 109.053 100.322 102.13 98.7478 92.3098ZM77.2298 40.1332C81.7479 36.461 85.9113 34.438 88.9576 34.438C89.8669 34.4181 90.7653 34.6392 91.5616 35.0789C94.5736 36.8178 95.5883 42.2608 94.3386 50.0152C94.093 51.5447 93.7384 53.1405 93.3346 54.764C89.3599 53.8754 85.3319 53.2446 81.2758 52.8756C78.9334 49.546 76.3782 46.3714 73.6261 43.3716C74.8309 42.2138 76.0357 41.1094 77.2298 40.1332ZM53.9452 81.082C54.7826 82.5367 55.6542 83.9423 56.53 85.3245C53.8299 84.9741 51.2814 84.5276 48.9038 84.0021C49.6515 81.6395 50.5387 79.2242 51.5655 76.7562C52.3246 78.1945 53.1214 79.6365 53.9559 81.082H53.9452ZM48.9295 59.0214C51.3006 58.4981 53.8427 58.0537 56.53 57.7034C55.6521 59.0877 54.789 60.4975 53.9559 61.9438C53.1228 63.39 52.3388 64.8255 51.5826 66.2696C50.5615 63.8065 49.6728 61.3841 48.9295 59.0214ZM53.9217 71.5118C55.1031 69.0701 56.3997 66.6135 57.8096 64.1697C59.2195 61.7259 60.6999 59.3718 62.2273 57.1202C64.8847 56.9258 67.6554 56.819 70.5307 56.819C73.406 56.819 76.1745 56.9258 78.832 57.1202C80.3273 59.3184 81.8077 61.6639 83.2496 64.1697C84.6617 66.6135 85.9583 69.0701 87.1397 71.5139C85.9583 73.9577 84.6617 76.4144 83.2496 78.8582C81.7992 81.3704 80.3188 83.7052 78.8298 85.9076C76.1724 86.102 73.4039 86.211 70.5307 86.211C67.6575 86.211 64.8869 86.102 62.2316 85.9076C60.7362 83.7138 59.2601 81.3789 57.8096 78.8582C56.3997 76.4144 55.1009 73.9556 53.9217 71.5118ZM87.1055 81.082C87.9357 79.6422 88.7276 78.1981 89.4809 76.7498C90.5063 79.2149 91.3942 81.636 92.1448 84.0128C89.7672 84.5383 87.2315 84.9848 84.5207 85.3351C85.3986 83.9423 86.2659 82.5367 87.1055 81.082ZM87.1055 61.9438C86.2681 60.4911 85.4136 59.0784 84.542 57.7055C87.2358 58.0537 89.7778 58.5002 92.149 59.0236C91.4014 61.3883 90.5106 63.8129 89.4852 66.2867C88.7247 64.8298 87.9386 63.3836 87.1055 61.9438V61.9438ZM70.5221 46.5631C72.1563 48.3404 73.8098 50.3207 75.461 52.4718C73.8418 52.4049 72.1984 52.3707 70.5307 52.3693C68.863 52.3679 67.2175 52.4021 65.5939 52.4718C67.2089 50.3655 68.8559 48.3896 70.5221 46.5759V46.5631ZM49.4934 35.0704C50.2678 34.647 51.1404 34.4362 52.0227 34.4594C55.714 34.4594 61.2959 37.5334 67.4033 43.3887C64.6649 46.3862 62.1192 49.5541 59.7813 52.8734C55.7261 53.2414 51.6988 53.8708 47.7246 54.7576C47.3337 53.1746 46.9898 51.6152 46.7505 50.122C45.5158 42.4061 46.539 36.7793 49.4934 35.0746V35.0704ZM44.5994 82.9105C34.5122 80.0117 28.4561 75.6218 28.4561 71.5075C28.4561 67.3932 34.5165 63.0033 44.6079 60.1045C45.8289 64.0023 47.301 67.817 49.0149 71.5246C47.3024 75.2236 45.8276 79.0281 44.5994 82.9148V82.9105ZM54.4259 108.22C52.4029 108.759 50.7452 108.671 49.4977 107.947C46.4856 106.208 45.4688 100.763 46.7206 93.0084C46.9663 91.481 47.3188 89.8852 47.7225 88.2617C51.7045 89.1501 55.7396 89.7809 59.8027 90.1501C62.1517 93.4715 64.7104 96.6395 67.4631 99.6349C62.4623 104.433 57.8737 107.302 54.4216 108.225L54.4259 108.22ZM70.535 96.4711C68.8965 94.6874 67.2367 92.7285 65.5726 90.5496C67.2004 90.618 68.8545 90.6528 70.535 90.6543C72.2155 90.6557 73.8696 90.6215 75.4974 90.5517C73.8269 92.7178 72.167 94.6853 70.5307 96.469L70.535 96.4711ZM91.5723 107.953C90.3247 108.675 88.667 108.765 86.6419 108.227C83.1877 107.302 78.6013 104.433 73.6111 99.6413C76.3638 96.646 78.9225 93.4779 81.2715 90.1565C85.3354 89.7875 89.3712 89.1567 93.3539 88.2681C93.7576 89.8917 94.1101 91.4874 94.3557 93.0148C95.6011 100.767 94.58 106.212 91.568 107.951L91.5723 107.953ZM92.0444 71.5161C93.7581 67.8124 95.235 64.0038 96.4663 60.113C106.553 63.0119 112.61 67.4017 112.61 71.5139C112.61 75.6261 106.553 80.0181 96.4663 82.917C95.2341 79.026 93.7557 75.2173 92.0401 71.5139L92.0444 71.5161Z" fill="white"/>
</svg>
