<svg width="143" height="143" viewBox="0 0 143 143" fill="none" xmlns="http://www.w3.org/2000/svg">
<rect width="143" height="143" rx="15" fill="#FF632D"/>
<path d="M91.5993 75.1825C89.733 75.79 87.7263 75.9767 85.7769 76.3173C85.2463 76.4099 84.6867 76.3273 84.1507 76.4014C79.9924 76.9769 78.4211 78.6381 77.8337 83.0546C77.5212 85.4055 76.9009 87.6399 75.5482 89.6403C73.2627 93.0187 68.8228 94.5519 65.0229 93.232C60.9554 91.8192 58.4916 88.1213 58.8203 83.9228C59.1161 80.1401 62.1116 76.7983 66.3188 75.8271C68.2883 75.3723 70.3321 75.1945 72.3531 75.0109C76.1256 74.6688 77.7919 73.0191 78.4203 69.3193C78.7819 67.1905 78.4598 65.1821 77.9864 63.1741C77.2637 60.105 75.023 58.679 71.2614 58.4059C69.2087 58.2566 67.1204 57.9596 65.1563 57.371C61.0215 56.1309 58.6142 52.5507 58.8048 48.3507C58.9719 44.6729 61.9747 41.0919 65.5817 40.2696C69.8549 39.2949 74.1092 40.9994 75.9264 44.7952C76.88 46.787 77.404 49.0434 77.7772 51.2385C78.4459 55.1744 80.0136 56.7014 83.9497 57.128C86.495 57.4042 89.0888 57.7189 91.5162 58.4765C95.2024 59.6271 97.4167 63.0534 97.416 66.8611C97.4156 70.586 95.1301 74.0335 91.5993 75.1825Z" fill="#C7C7C7"/>
<path d="M48.1918 75.7874C43.2504 75.7882 39.2161 71.7656 39.2153 66.8377C39.2146 61.9095 43.2476 57.8853 48.1884 57.8845C53.1295 57.8838 57.1637 61.9064 57.1645 66.8342C57.1653 71.7625 53.1322 75.7867 48.1918 75.7874Z" fill="white"/>
<path d="M26.9448 93.6914C22.0076 93.679 17.9877 89.6425 18 84.71C18.0124 79.7856 22.059 75.7761 27.0044 75.7888C31.9416 75.8008 35.9616 79.8373 35.9492 84.7698C35.9368 89.6942 31.8902 93.7037 26.9448 93.6914Z" fill="white"/>
<path d="M108.091 93.6915C103.141 93.7197 99.077 89.7264 99.0487 84.8074C99.0205 79.8706 103.024 75.8167 107.956 75.789C112.906 75.7604 116.97 79.7533 116.998 84.6727C117.027 89.6095 113.023 93.6634 108.091 93.6915Z" fill="white"/>
</svg>
