<svg width="143" height="143" viewBox="0 0 143 143" fill="none" xmlns="http://www.w3.org/2000/svg">
<rect width="143" height="143" rx="13" fill="#FF632D"/>
<g clip-path="url(#clip0)">
<path d="M88.2032 87.6487C91.303 87.3281 93.6547 84.6581 93.5477 81.4538C93.4411 78.2498 90.7685 75.6864 87.5617 75.6864H87.3481C84.034 75.7933 81.4687 78.5701 81.5757 81.881C81.6827 83.4831 82.3238 84.8716 83.2859 85.8328C79.6516 92.9889 74.0931 98.2223 65.7555 102.601C60.0901 105.592 54.211 106.66 48.332 105.913C43.5217 105.272 39.7804 103.136 37.4284 99.6107C34.008 94.3774 33.6875 88.7165 36.5737 83.056C38.6048 78.9973 41.8112 76.0067 43.8423 74.5114C43.4147 73.123 42.7733 70.7733 42.4527 69.0646C26.953 80.2791 28.5566 95.4455 33.2599 102.601C36.7873 107.942 43.9493 111.253 51.8594 111.253C53.9971 111.253 56.1348 111.039 58.2729 110.505C71.9554 107.835 82.3242 99.7176 88.2032 87.6487V87.6487ZM107.017 74.4048C98.8925 64.899 86.9205 59.6657 73.238 59.6657H71.5279C70.5658 57.7432 68.5347 56.4613 66.29 56.4613H66.0761C62.7626 56.5682 60.1974 59.345 60.304 62.6563C60.411 65.8603 63.0832 68.4237 66.29 68.4237H66.5036C68.8553 68.3168 70.8864 66.8215 71.7415 64.7922H73.6656C81.7897 64.7922 89.4858 67.1418 96.4342 71.7346C101.779 75.2592 105.627 79.852 107.765 85.4056C109.582 89.8915 109.475 94.2705 107.551 98.0089C104.558 103.669 99.534 106.767 92.9065 106.767C88.6307 106.767 84.5689 105.485 82.4308 104.524C81.2551 105.592 79.1171 107.301 77.6205 108.369C82.2172 110.505 86.9205 111.68 91.41 111.68C101.672 111.68 109.261 106.019 112.147 100.359C115.247 94.1636 115.033 83.4831 107.017 74.4048V74.4048ZM52.7145 89.464C52.8214 92.6683 55.4937 95.2314 58.7005 95.2314H58.9144C62.2281 95.1248 64.7934 92.3477 64.6864 89.0368C64.5798 85.8325 61.9072 83.2694 58.7005 83.2694H58.4868C58.2729 83.2694 57.952 83.2694 57.7387 83.3759C53.356 76.1132 51.5388 68.2099 52.1803 59.6653C52.6075 53.257 54.7456 47.703 58.4868 43.1103C61.5866 39.1584 67.5726 37.236 71.6348 37.1294C82.9653 36.9157 87.7753 51.0139 88.0962 56.6748C89.4858 56.9951 91.8375 57.7429 93.4411 58.2769C92.1581 40.9747 81.4687 32.0029 71.2073 32.0029C61.5866 32.0029 52.7145 38.9453 49.1868 49.1986C44.2698 62.8697 47.4766 76.0067 53.4626 86.3668C52.9284 87.1143 52.6075 88.2893 52.7145 89.4643V89.464Z" fill="white"/>
</g>
<defs>
<clipPath id="clip0">
<rect width="84" height="80" fill="white" transform="translate(30 32)"/>
</clipPath>
</defs>
</svg>
