<?xml version="1.0" encoding="UTF-8"?>
<svg width="143px" height="143px" viewBox="0 0 143 143" version="1.1" xmlns="http://www.w3.org/2000/svg" xmlns:xlink="http://www.w3.org/1999/xlink">
    <!-- Generator: Sketch 61.2 (89653) - https://sketch.com -->
    <title>testing copy</title>
    <desc>Created with Sketch.</desc>
    <g id="About" stroke="none" stroke-width="1" fill="none" fill-rule="evenodd">
        <g id="Artboard" transform="translate(-412.000000, -1277.000000)">
            <g id="testing-copy" transform="translate(412.000000, 1277.000000)">
                <rect id="Rectangle" fill="#FF632D" x="0" y="0" width="143" height="143" rx="16"></rect>
                <path d="M60.491,85.829 L52.018,98 L38,98 L38,85.8299113 L60.491,85.829 Z M104,85.8299113 L104,98 L60.074,98 L68.547,85.829 L104,85.8299113 Z M74.355,65.915 L65.882,78.085 L38,78.0853093 L38,65.9152206 L74.355,65.915 Z M104,65.9152206 L104,78.0853093 L73.939,78.085 L82.411,65.915 L104,65.9152206 Z M88.219,46 L79.747,58.17 L38,58.1706187 L38,46.0005299 L88.219,46 Z M104,46.0005299 L104,58.1706187 L87.803,58.17 L96.275,46 L104,46.0005299 Z" id="Combined-Shape" fill="#FFFFFF"></path>
            </g>
        </g>
    </g>
</svg>