<?xml version="1.0" encoding="UTF-8"?>
<svg width="143px" height="143px" viewBox="0 0 143 143" version="1.1" xmlns="http://www.w3.org/2000/svg" xmlns:xlink="http://www.w3.org/1999/xlink">
    <!-- Generator: Sketch 61.2 (89653) - https://sketch.com -->
    <title>suspense</title>
    <desc>Created with Sketch.</desc>
    <g id="About" stroke="none" stroke-width="1" fill="none" fill-rule="evenodd">
        <g id="Artboard" transform="translate(-387.000000, -509.000000)">
            <g id="suspense" transform="translate(387.000000, 509.000000)">
                <rect id="Rectangle" fill="#FF632D" x="0" y="0" width="143" height="143" rx="16"></rect>
                <path d="M97,71.0052644 C97,67.5834287 92.6860987,64.3405814 86.0721565,62.3295949 C87.5984509,55.6333257 86.9200978,50.3057908 83.9311048,48.6001373 C83.2421525,48.2000458 82.4366082,48.0105287 81.5568691,48.0105287 L81.5568691,50.3584344 C82.0444354,50.3584344 82.4366082,50.453193 82.7651855,50.6321813 C84.2066857,51.4534218 84.8320424,54.5804532 84.3444762,58.6024262 C84.2278842,59.5921263 84.0370974,60.6344701 83.8039136,61.6978714 C81.7264574,61.1924926 79.4582144,60.8029297 77.0733795,60.5502403 C75.6424786,58.6024262 74.1585813,56.8336004 72.6640848,55.2858778 C76.1194456,52.0956741 79.362821,50.3479057 81.5674684,50.3479057 L81.5674684,48 C81.5674684,48 81.5674684,48 81.5674684,48 C78.6526702,48 74.8369344,50.0636301 70.9788015,53.6433967 C67.1206686,50.0846876 63.3049327,48.0421149 60.3901345,48.0421149 L60.3901345,50.3900206 C62.5841826,50.3900206 65.8381574,52.1272602 69.2935181,55.2964065 C67.8096209,56.8441291 66.3257236,58.6024262 64.9160212,60.5502403 C62.520587,60.8029297 60.2523441,61.1924926 58.1748879,61.7084001 C57.9311048,60.6555276 57.7509172,59.6342412 57.623726,58.6550698 C57.1255605,54.6330968 57.740318,51.5060655 59.1712189,50.6742962 C59.4891969,50.4847791 59.9025683,50.4005493 60.3901345,50.4005493 L60.3901345,48.0526436 C60.3901345,48.0526436 60.3901345,48.0526436 60.3901345,48.0526436 C59.4997962,48.0526436 58.6942519,48.2421607 57.9947004,48.6422522 C55.0163066,50.3479057 54.3485528,55.6649119 55.8854464,62.3401236 C49.2927028,64.3616388 45,67.5939574 45,71.0052644 C45,74.4271 49.3139013,77.6699474 55.9278435,79.6809339 C54.4015491,86.377203 55.0799022,91.7047379 58.0688952,93.4103914 C58.7578475,93.8104829 59.5633918,94 60.4537301,94 C63.3685283,94 67.1842642,91.9363699 71.0423971,88.3566033 C74.90053,91.9153124 78.7162658,93.9578851 81.631064,93.9578851 C82.5214024,93.9578851 83.3269466,93.768368 84.0264982,93.3682765 C87.004892,91.662623 87.6726457,86.3456168 86.1357521,79.6704051 C92.7072972,77.6594186 97,74.4165713 97,71.0052644 Z M83.1734104,64.0800866 C82.7936557,65.4620527 82.3215283,66.8868705 81.787819,68.3116883 C81.3670097,67.454655 80.9256732,66.5976218 80.4432821,65.7405885 C79.9711547,64.8835553 79.4682363,64.0479478 78.9653179,63.2337662 C80.4227548,63.4587375 81.8288735,63.7372733 83.1734104,64.0800866 Z M78.2905202,75.1556491 C77.4699422,76.5687792 76.6283237,77.9086358 75.7551445,79.1542838 C74.1876301,79.290363 72.5990751,79.3636364 71,79.3636364 C69.4114451,79.3636364 67.8228902,79.290363 66.265896,79.1647514 C65.3927168,77.9191034 64.540578,76.5897144 63.72,75.187052 C62.9204624,73.8157925 62.1945665,72.4235977 61.5317919,71.0209353 C62.1840462,69.6182728 62.9204624,68.2156104 63.7094798,66.8443509 C64.5300578,65.4312208 65.3716763,64.0913642 66.2448555,62.8457162 C67.8123699,62.709637 69.4009249,62.6363636 71,62.6363636 C72.5885549,62.6363636 74.1771098,62.709637 75.734104,62.8352486 C76.6072832,64.0808966 77.459422,65.4102856 78.28,66.812948 C79.0795376,68.1842075 79.8054335,69.5764023 80.4682081,70.9790647 C79.8054335,72.3817272 79.0795376,73.7843896 78.2905202,75.1556491 Z M81.9638027,73.6883117 C82.5547449,75.1118296 83.0581402,76.5353475 83.4739884,77.9163723 C82.0404063,78.2563169 80.5302206,78.5431451 78.9653179,78.7662338 C79.5015433,77.9482421 80.0377687,77.109004 80.5411639,76.2485193 C81.0445592,75.3986578 81.5151243,74.5381731 81.9638027,73.6883117 Z M71.1665952,85.038961 C70.1556094,84.0532468 69.1446237,82.954586 68.1445087,81.7532468 C69.122882,81.7943182 70.122997,81.8251218 71.1339828,81.8251218 C72.1558394,81.8251218 73.1668252,81.804586 74.1560694,81.7532468 C73.177696,82.954586 72.1667102,84.0532468 71.1665952,85.038961 Z M63.0346821,79.0649351 C61.5772452,78.8399638 60.1711265,78.561428 58.8265896,78.2186147 C59.2063443,76.8366486 59.6784717,75.4118308 60.212181,73.987013 C60.6329903,74.8440462 61.0743268,75.7010795 61.5567179,76.5581128 C62.039109,77.415146 62.5317637,78.2507535 63.0346821,79.0649351 Z M71.1339828,56.961039 C72.1449686,57.9467532 73.1559544,59.045414 74.1560694,60.2467532 C73.177696,60.2056818 72.177581,60.1748782 71.1665952,60.1748782 C70.1447386,60.1748782 69.1337528,60.195414 68.1445087,60.2467532 C69.122882,59.045414 70.1338678,57.9467532 71.1339828,56.961039 Z M63.3352601,63.2337662 C62.7990347,64.0534727 62.2628094,64.8944703 61.7594141,65.756759 C61.2560189,66.6084021 60.7854537,67.4600452 60.3367754,68.3116883 C59.7458331,66.8851861 59.2424378,65.4586839 58.8265896,64.0747638 C60.2601717,63.7447521 61.7703575,63.4573226 63.3352601,63.2337662 Z M53.5419568,76.4931538 C49.8153432,74.8968842 47.4046243,72.8037625 47.4046243,71.144065 C47.4046243,69.4843675 49.8153432,67.3806745 53.5419568,65.7949762 C54.4472923,65.4038373 55.436845,65.0549837 56.4579793,64.7272727 C57.0580272,66.7992518 57.847564,68.9558014 58.8265896,71.1652076 C57.8580912,73.3640425 57.0790815,75.5100208 56.4895607,77.5714286 C55.4473722,77.2437176 54.4578195,76.8842927 53.5419568,76.4931538 Z M59.3491824,91.3260969 C57.9224471,90.5048069 57.3034957,87.3775872 57.7860679,83.3553719 C57.9014657,82.3656121 58.0902983,81.3232056 58.3210937,80.2597403 C60.3772712,80.7651495 62.6222813,81.1547358 64.9826891,81.4074404 C66.3989337,83.3553719 67.8676319,85.1243043 69.3468208,86.6721201 C65.9268522,89.862516 62.7166976,91.6103896 60.5346317,91.6103896 C60.0625501,91.5998603 59.6639035,91.505096 59.3491824,91.3260969 Z M84.2066967,83.3323346 C84.6998987,87.3657747 84.0912665,90.5017215 82.6746226,91.3358623 C82.3598129,91.5259197 81.9505602,91.6103896 81.467852,91.6103896 C79.2956647,91.6103896 76.0741117,89.8681969 72.6531792,86.6900151 C74.1222913,85.1378798 75.5914034,83.3745696 76.98706,81.4212021 C79.3586267,81.1677922 81.6042695,80.7771187 83.6610265,80.2597403 C83.9023806,81.3261734 84.0912665,82.3503715 84.2066967,83.3323346 Z M85.5082873,64.7272727 C86.5495162,65.0549837 87.5381577,65.4144086 88.4636945,65.8055475 C92.1868766,67.4018171 94.5953757,69.4949388 94.5953757,71.1546363 C94.5848583,72.8143338 92.1763591,74.9180268 88.4531771,76.5037251 C87.5486752,76.894864 86.5600336,77.2437176 85.5398397,77.5714286 C84.9403443,75.4994495 84.1515345,73.3428999 83.1734104,71.1334937 C84.141017,68.9346588 84.9193093,66.7886805 85.5082873,64.7272727 Z M70.849711,66.2207792 C73.5057856,66.2207792 75.6589595,68.3605092 75.6589595,71 C75.6589595,73.6394908 73.5057856,75.7792208 70.849711,75.7792208 C68.1936363,75.7792208 66.0404624,73.6394908 66.0404624,71 C66.0404624,68.3605092 68.1936363,66.2207792 70.849711,66.2207792 Z" id="Shape" fill="#FFFFFF" fill-rule="nonzero"></path>
                <g id="Group-2" transform="translate(21.000000, 20.000000)" fill="#FFFFFF">
                    <rect id="Rectangle" opacity="0.100000001" x="46.9443737" y="0" width="6" height="19" rx="3"></rect>
                    <rect id="Rectangle" opacity="0.200000003" transform="translate(74.631354, 17.521286) rotate(36.000000) translate(-74.631354, -17.521286) " x="71.6313543" y="8.02128624" width="6" height="19" rx="3"></rect>
                    <rect id="Rectangle" opacity="0.300000012" transform="translate(89.888747, 38.521286) rotate(72.000000) translate(-89.888747, -38.521286) " x="86.8887474" y="29.0212862" width="6" height="19" rx="3"></rect>
                    <rect id="Rectangle" opacity="0.400000006" transform="translate(89.888747, 64.478714) rotate(108.000000) translate(-89.888747, -64.478714) " x="86.8887474" y="54.9787138" width="6" height="19" rx="3"></rect>
                    <rect id="Rectangle" opacity="0.5" transform="translate(74.631354, 85.478714) rotate(144.000000) translate(-74.631354, -85.478714) " x="71.6313543" y="75.9787138" width="6" height="19" rx="3"></rect>
                    <rect id="Rectangle" opacity="0.600000024" transform="translate(49.944374, 93.500000) rotate(180.000000) translate(-49.944374, -93.500000) " x="46.9443737" y="84" width="6" height="19" rx="3"></rect>
                    <rect id="Rectangle" opacity="0.699999988" transform="translate(25.257393, 85.478714) rotate(216.000000) translate(-25.257393, -85.478714) " x="22.2573931" y="75.9787138" width="6" height="19" rx="3"></rect>
                    <rect id="Rectangle" opacity="0.800000012" transform="translate(10.000000, 64.478714) rotate(252.000000) translate(-10.000000, -64.478714) " x="7" y="54.9787138" width="6" height="19" rx="3"></rect>
                    <rect id="Rectangle" opacity="0.900000036" transform="translate(10.000000, 38.521286) rotate(288.000000) translate(-10.000000, -38.521286) " x="7" y="29.0212862" width="6" height="19" rx="3"></rect>
                    <rect id="Rectangle" transform="translate(25.257393, 17.521286) rotate(324.000000) translate(-25.257393, -17.521286) " x="22.2573931" y="8.02128624" width="6" height="19" rx="3"></rect>
                </g>
            </g>
        </g>
    </g>
</svg>