<?xml version="1.0" encoding="UTF-8"?>
<svg width="143px" height="143px" viewBox="0 0 143 143" version="1.1" xmlns="http://www.w3.org/2000/svg" xmlns:xlink="http://www.w3.org/1999/xlink">
    <!-- Generator: Sketch 61.2 (89653) - https://sketch.com -->
    <title>typescript</title>
    <desc>Created with Sketch.</desc>
    <g id="About" stroke="none" stroke-width="1" fill="none" fill-rule="evenodd">
        <g id="Artboard" transform="translate(-167.000000, -151.000000)">
            <g id="typescript" transform="translate(167.000000, 151.000000)">
                <rect id="Rectangle" fill="#FF632D" x="0" y="0" width="143" height="143" rx="16"></rect>
                <path d="M63.4882857,128.196429 L63.4882857,76.6384286 L80.7262857,76.6384286 L80.7262857,65.8744286 L34.0042857,65.8744286 L34.0042857,76.6384286 L51.2422857,76.6384286 L51.2422857,128.196429 L63.4882857,128.196429 Z M109.664286,129.366429 C112.680286,129.366429 115.436286,128.885429 117.932286,127.923429 C120.428286,126.961429 122.586286,125.674429 124.406286,124.062429 C126.226286,122.450429 127.643286,120.591429 128.657286,118.485429 C129.671286,116.379429 130.178286,114.156429 130.178286,111.816429 C130.178286,109.372429 129.840286,107.175429 129.164286,105.225429 C128.488286,103.275429 127.448286,101.520429 126.044286,99.9604286 C124.640286,98.4004286 122.820286,96.9704286 120.584286,95.6704286 C118.348286,94.3704286 115.670286,93.1744286 112.550286,92.0824286 C110.106286,91.1984286 108.065286,90.3794286 106.427286,89.6254286 C104.789286,88.8714286 103.476286,88.1174286 102.488286,87.3634286 C101.500286,86.6094286 100.798286,85.8294286 100.382286,85.0234286 C99.9662857,84.2174286 99.7582857,83.3204286 99.7582857,82.3324286 C99.7582857,81.4484286 99.9792857,80.6034286 100.421286,79.7974286 C100.863286,78.9914286 101.448286,78.2894286 102.176286,77.6914286 C102.904286,77.0934286 103.775286,76.6124286 104.789286,76.2484286 C105.803286,75.8844286 106.908286,75.7024286 108.104286,75.7024286 C110.704286,75.7024286 112.966286,76.1054286 114.890286,76.9114286 C116.814286,77.7174286 118.556286,78.8744286 120.116286,80.3824286 L120.116286,80.3824286 L128.540286,71.8804286 C125.992286,69.4884286 123.080286,67.6684286 119.804286,66.4204286 C116.528286,65.1724286 112.498286,64.5484286 107.714286,64.5484286 C104.854286,64.5484286 102.189286,64.9904286 99.7192857,65.8744286 C97.2492857,66.7584286 95.0912857,67.9934286 93.2452857,69.5794286 C91.3992857,71.1654286 89.9432857,73.0764286 88.8772857,75.3124286 C87.8112857,77.5484286 87.2782857,79.9924286 87.2782857,82.6444286 C87.2782857,85.4004286 87.7592857,87.7924286 88.7212857,89.8204286 C89.6832857,91.8484286 90.9572857,93.6164286 92.5432857,95.1244286 C94.1292857,96.6324286 95.9752857,97.9194286 98.0812857,98.9854286 C100.187286,100.051429 102.384286,101.000429 104.672286,101.832429 C107.272286,102.768429 109.404286,103.613429 111.068286,104.367429 C112.732286,105.121429 114.032286,105.862429 114.968286,106.590429 C115.904286,107.318429 116.554286,108.072429 116.918286,108.852429 C117.282286,109.632429 117.464286,110.516429 117.464286,111.504429 C117.464286,112.440429 117.243286,113.298429 116.801286,114.078429 C116.359286,114.858429 115.761286,115.534429 115.007286,116.106429 C114.253286,116.678429 113.369286,117.133429 112.355286,117.471429 C111.341286,117.809429 110.262286,117.978429 109.118286,117.978429 C106.310286,117.978429 103.710286,117.549429 101.318286,116.691429 C98.9262857,115.833429 96.4822857,114.364429 93.9862857,112.284429 L93.9862857,112.284429 L85.4062857,120.942429 C87.2782857,122.450429 89.0852857,123.737429 90.8272857,124.803429 C92.5692857,125.869429 94.3892857,126.740429 96.2872857,127.416429 C98.1852857,128.092429 100.213286,128.586429 102.371286,128.898429 C104.529286,129.210429 106.960286,129.366429 109.664286,129.366429 Z" id="TS" fill="#FFFFFF" fill-rule="nonzero"></path>
            </g>
        </g>
    </g>
</svg>