<?xml version="1.0" encoding="UTF-8"?>
<svg width="143px" height="143px" viewBox="0 0 143 143" version="1.1" xmlns="http://www.w3.org/2000/svg" xmlns:xlink="http://www.w3.org/1999/xlink">
    <!-- Generator: Sketch 61.2 (89653) - https://sketch.com -->
    <title>web-media</title>
    <desc>Created with Sketch.</desc>
    <g id="About" stroke="none" stroke-width="1" fill="none" fill-rule="evenodd">
        <g id="Artboard" transform="translate(-167.000000, -538.000000)">
            <g id="web-media" transform="translate(167.000000, 538.000000)">
                <rect id="Rectangle" fill="#FF632D" x="0" y="0" width="143" height="143" rx="16"></rect>
                <g id="album" transform="translate(30.000000, 35.000000)" fill="#FFFFFF" fill-rule="nonzero">
                    <path d="M80.5956267,73.728 L1.40629333,73.728 C0.652629333,73.728 0.04096,73.117696 0.04096,72.3626667 L0.04096,17.7493333 C0.04096,16.994304 0.652629333,16.384 1.40629333,16.384 L80.5956267,16.384 C81.3492907,16.384 81.96096,16.994304 81.96096,17.7493333 L81.96096,72.3626667 C81.96096,73.117696 81.3492907,73.728 80.5956267,73.728 Z M3.77162667,69.9973333 L78.2716267,69.9973333 L78.2716267,19.9973333 L3.77162667,19.9973333 L3.77162667,69.9973333 Z" id="Shape"></path>
                    <path d="M72.4036267,19.1146667 L9.59829333,19.1146667 C8.84462933,19.1146667 8.23296,18.5043627 8.23296,17.7493333 L8.23296,9.55733333 C8.23296,8.802304 8.84462933,8.192 9.59829333,8.192 L72.4036267,8.192 C73.1572907,8.192 73.76896,8.802304 73.76896,9.55733333 L73.76896,17.7493333 C73.76896,18.5043627 73.1572907,19.1146667 72.4036267,19.1146667 Z M10.9636267,16.384 L71.0382933,16.384 L71.0382933,10.9226667 L10.9636267,10.9226667 L10.9636267,16.384 Z" id="Shape"></path>
                    <path d="M64.2116267,10.9226667 L17.7902933,10.9226667 C17.0366293,10.9226667 16.42496,10.3123627 16.42496,9.55733333 L16.42496,1.36533333 C16.42496,0.610304 17.0366293,0 17.7902933,0 L64.2116267,0 C64.9652907,0 65.57696,0.610304 65.57696,1.36533333 L65.57696,9.55733333 C65.57696,10.3123627 64.9652907,10.9226667 64.2116267,10.9226667 Z M19.1556267,8.192 L62.8462933,8.192 L62.8462933,2.73066667 L19.1556267,2.73066667 L19.1556267,8.192 Z" id="Shape"></path>
                    <path d="M34.2084267,57.4286507 C33.7319253,57.4286507 33.255424,57.30304 32.8198827,57.053184 C31.9583573,56.557568 31.4436267,55.6714667 31.4436267,54.6843307 L31.4436267,34.1469867 C31.4436267,33.1584853 31.9583573,32.2737493 32.8198827,31.7781333 C33.6786773,31.2825173 34.7477333,31.2866133 35.6051627,31.7822293 L53.2875947,42.0522667 C54.1436587,42.5478827 54.6542933,43.4326187 54.6542933,44.4156587 C54.6542933,45.3986987 54.1436587,46.2820693 53.2875947,46.7790507 L35.6051627,57.0477227 C35.168256,57.3016747 34.6876587,57.4286507 34.2084267,57.4286507 L34.2084267,57.4286507 Z M34.2330027,34.1415253 L34.1742933,54.6829653 L34.1742933,54.6884267 L51.9154347,44.417024 L34.2330027,34.1415253 Z" id="Shape"></path>
                </g>
            </g>
        </g>
    </g>
</svg>