<?xml version="1.0" encoding="UTF-8"?>
<svg width="143px" height="143px" viewBox="0 0 143 143" version="1.1" xmlns="http://www.w3.org/2000/svg" xmlns:xlink="http://www.w3.org/1999/xlink">
    <!-- Generator: Sketch 61.2 (89653) - https://sketch.com -->
    <title>web-media</title>
    <desc>Created with Sketch.</desc>
    <g id="About" stroke="none" stroke-width="1" fill="none" fill-rule="evenodd">
        <g id="Artboard" transform="translate(-167.000000, -509.000000)">
            <g id="web-media" transform="translate(167.000000, 509.000000)">
                <rect id="Rectangle" fill="#FF632D" x="0" y="0" width="143" height="143" rx="16"></rect>
                <g id="image" transform="translate(78.000000, 32.000000)" fill="#FFFFFF" fill-rule="nonzero">
                    <path d="M50.4511237,0.00649999956 L3.36336418,0.00649999956 C1.50601685,0.00649999956 0,1.51251685 0,3.36986418 L0,37.0039466 C0,38.8614041 1.50601685,40.3673108 3.36336418,40.3673108 L50.4511237,40.3673108 C52.3085812,40.3673108 53.8144879,38.861294 53.8144879,37.0039466 L53.8144879,3.36986418 C53.8144879,1.51251685 52.3085812,0.00649999956 50.4511237,0.00649999956 Z M4.7775744,5.5803368 L49.3682688,5.5803368 L49.3682688,31.3593772 L34.5046634,16.6284625 L15.9252176,35.0420456 L4.7775744,35.0420456 L4.7775744,5.5803368 Z" id="Shape"></path>
                    <path d="M22.0661765,11.574406 C24.0364475,13.544677 24.0364475,16.7390412 22.0661765,18.7093123 C20.0959054,20.6795833 16.9015412,20.6795833 14.9312702,18.7093123 C12.9609991,16.7390412 12.9609991,13.544677 14.9312702,11.574406 C16.9015412,9.60413494 20.0959054,9.60413494 22.0661765,11.574406" id="Path"></path>
                </g>
                <g id="image-copy" transform="translate(10.000000, 39.000000)" fill="#FFFFFF" fill-rule="nonzero">
                    <path d="M50.4511237,0.00649999956 L3.36336418,0.00649999956 C1.50601685,0.00649999956 0,1.51251685 0,3.36986418 L0,37.0039466 C0,38.8614041 1.50601685,40.3673108 3.36336418,40.3673108 L50.4511237,40.3673108 C52.3085812,40.3673108 53.8144879,38.861294 53.8144879,37.0039466 L53.8144879,3.36986418 C53.8144879,1.51251685 52.3085812,0.00649999956 50.4511237,0.00649999956 Z M4.7775744,5.5803368 L49.3682688,5.5803368 L49.3682688,35.0420456 L4.7775744,35.0420456 L4.7775744,5.5803368 Z" id="Shape"></path>
                    <path d="M23.1437647,27.648 C22.8777035,27.648 22.6116424,27.5770947 22.3684518,27.4360548 C21.8874071,27.1562871 21.6,26.6560964 21.6,26.0988731 L21.6,14.5058549 C21.6,13.947861 21.8874071,13.448441 22.3684518,13.1686733 C22.8479718,12.8889056 23.4448941,12.8912177 23.9236518,13.1709854 L33.7968847,18.9682652 C34.27488,19.2480329 34.56,19.7474529 34.56,20.302364 C34.56,20.8572752 34.27488,21.3559245 33.7968847,21.6364629 L23.9236518,27.4329719 C23.6796988,27.576324 23.4113506,27.648 23.1437647,27.648 L23.1437647,27.648 Z" id="Shape"></path>
                </g>
                <g id="image-copy-2" transform="translate(47.000000, 87.000000)" fill="#FFFFFF" fill-rule="nonzero">
                    <path d="M58.1250476,0 L3.8749524,0 C1.7350912,0 0,1.11941521 0,2.4999727 L0,27.5000273 C0,28.8806667 1.7350912,30 3.8749524,30 L58.1250476,30 C60.2650357,30 62,28.8805848 62,27.5000273 L62,2.4999727 C62,1.11941521 60.2650357,0 58.1250476,0 Z M5,4 L57,4 L57,26 L5,26 L5,4 Z" id="Shape"></path>
                    <g id="Group-3" transform="translate(8.000000, 7.000000)">
                        <g id="sound-waves">
                            <path d="M10.6076617,4.76535747 C10.1725719,4.76535747 9.81995761,5.11797172 9.81995761,5.55306153 L9.81995761,10.1741908 C9.81995761,10.6092807 10.1725719,10.9618949 10.6076617,10.9618949 C11.0427515,10.9618949 11.3953657,10.6092807 11.3953657,10.1741908 L11.3953657,5.55306153 C11.3953195,5.11797172 11.0427052,4.76535747 10.6076617,4.76535747 Z" id="Path"></path>
                            <path d="M8.16577446,2.32351651 C7.73068465,2.32351651 7.3780704,2.67613076 7.3780704,3.11122057 L7.3780704,12.6163556 C7.3780704,13.0514454 7.73068465,13.4040597 8.16577446,13.4040597 C8.60086427,13.4040597 8.95347852,13.0514454 8.95347852,12.6161243 L8.95347852,3.11117432 C8.95347852,2.67613076 8.60086427,2.32351651 8.16577446,2.32351651 Z" id="Path"></path>
                            <path d="M5.69765974,0.0391793611 C5.26256993,0.0391793611 4.90995568,0.391793611 4.90995568,0.826883422 L4.90995568,14.900369 C4.90995568,15.3354588 5.26256993,15.688073 5.69765974,15.688073 C6.13274955,15.688073 6.4853638,15.3354588 6.4853638,14.900369 L6.4853638,0.826883422 C6.4853638,0.391793611 6.13274955,0.0391793611 5.69765974,0.0391793611 Z" id="Path"></path>
                            <path d="M3.25581878,2.32351651 C2.82072897,2.32351651 2.46811472,2.67613076 2.46811472,3.11122057 L2.46811472,12.6163556 C2.46811472,13.0514454 2.82072897,13.4040597 3.25581878,13.4040597 C3.69090859,13.4040597 4.04352284,13.0514454 4.04352284,12.6161243 L4.04352284,3.11117432 C4.04352284,2.67613076 3.69086234,2.32351651 3.25581878,2.32351651 Z" id="Path"></path>
                            <path d="M0.787704061,4.60780741 C0.35261425,4.60780741 0,4.96042166 0,5.39551147 L0,10.3317409 C0,10.7668307 0.35261425,11.119445 0.787704061,11.119445 C1.22279387,11.119445 1.57540812,10.767062 1.57540812,10.3317409 L1.57540812,5.39551147 C1.57540812,4.96042166 1.22274762,4.60780741 0.787704061,4.60780741 Z" id="Path"></path>
                            <path d="M17.9857321,0.0391793611 C17.5506423,0.0391793611 17.198028,0.391793611 17.198028,0.826883422 L17.198028,14.900369 C17.198028,15.3354588 17.5506423,15.688073 17.9857321,15.688073 C18.4208219,15.688073 18.7734361,15.3354588 18.7734361,14.900369 L18.7734361,0.826883422 C18.7734361,0.391793611 18.4207756,0.0391793611 17.9857321,0.0391793611 Z" id="Path"></path>
                            <path d="M15.5176174,2.32351651 C15.0825275,2.32351651 14.7299133,2.67613076 14.7299133,3.11122057 L14.7299133,12.6163556 C14.7299133,13.0514454 15.0825275,13.4040597 15.5176174,13.4040597 C15.9527072,13.4040597 16.3053214,13.0514454 16.3053214,12.6161243 L16.3053214,3.11117432 C16.3053214,2.67613076 15.9526609,2.32351651 15.5176174,2.32351651 Z" id="Path"></path>
                            <path d="M13.0757764,3.55755074 C12.6406866,3.55755074 12.2880723,3.91016499 12.2880723,4.34525481 L12.2880723,11.3819976 C12.2880723,11.8170874 12.6406866,12.1697016 13.0757764,12.1697016 C13.5108662,12.1697016 13.8634805,11.8173187 13.8634805,11.3819976 L13.8634805,4.34525481 C13.8634342,3.91016499 13.51082,3.55755074 13.0757764,3.55755074 Z" id="Path"></path>
                            <path d="M20.427573,2.32351651 C19.9924832,2.32351651 19.639869,2.67613076 19.639869,3.11122057 L19.639869,12.6163556 C19.639869,13.0514454 19.9924832,13.4040597 20.427573,13.4040597 C20.8626628,13.4040597 21.2152771,13.0514454 21.2152771,12.6161243 L21.2152771,3.11117432 C21.2152771,2.67613076 20.8626628,2.32351651 20.427573,2.32351651 Z" id="Path"></path>
                            <path d="M22.8956878,4.60780741 C22.4605979,4.60780741 22.1079837,4.96042166 22.1079837,5.39551147 L22.1079837,10.3317409 C22.1079837,10.7668307 22.4605979,11.119445 22.8956878,11.119445 C23.3307776,11.119445 23.6833918,10.767062 23.6833918,10.3317409 L23.6833918,5.39551147 C23.6833918,4.96042166 23.3307776,4.60780741 22.8956878,4.60780741 Z" id="Path"></path>
                        </g>
                        <g id="sound-waves" transform="translate(24.250000, 0.000000)">
                            <path d="M8.60766168,4.76535747 C8.17257186,4.76535747 7.81995761,5.11797172 7.81995761,5.55306153 L7.81995761,10.1741908 C7.81995761,10.6092807 8.17257186,10.9618949 8.60766168,10.9618949 C9.04275149,10.9618949 9.39536574,10.6092807 9.39536574,10.1741908 L9.39536574,5.55306153 C9.39531948,5.11797172 9.04270523,4.76535747 8.60766168,4.76535747 Z" id="Path"></path>
                            <path d="M6.16577446,2.32351651 C5.73068465,2.32351651 5.3780704,2.67613076 5.3780704,3.11122057 L5.3780704,12.6163556 C5.3780704,13.0514454 5.73068465,13.4040597 6.16577446,13.4040597 C6.60086427,13.4040597 6.95347852,13.0514454 6.95347852,12.6161243 L6.95347852,3.11117432 C6.95347852,2.67613076 6.60086427,2.32351651 6.16577446,2.32351651 Z" id="Path"></path>
                            <path d="M3.69765974,0.0391793611 C3.26256993,0.0391793611 2.90995568,0.391793611 2.90995568,0.826883422 L2.90995568,14.900369 C2.90995568,15.3354588 3.26256993,15.688073 3.69765974,15.688073 C4.13274955,15.688073 4.4853638,15.3354588 4.4853638,14.900369 L4.4853638,0.826883422 C4.4853638,0.391793611 4.13274955,0.0391793611 3.69765974,0.0391793611 Z" id="Path"></path>
                            <path d="M1.25581878,2.32351651 C0.820728971,2.32351651 0.468114721,2.67613076 0.468114721,3.11122057 L0.468114721,12.6163556 C0.468114721,13.0514454 0.820728971,13.4040597 1.25581878,13.4040597 C1.69090859,13.4040597 2.04352284,13.0514454 2.04352284,12.6161243 L2.04352284,3.11117432 C2.04352284,2.67613076 1.69086234,2.32351651 1.25581878,2.32351651 Z" id="Path"></path>
                            <path d="M15.9857321,0.0391793611 C15.5506423,0.0391793611 15.198028,0.391793611 15.198028,0.826883422 L15.198028,14.900369 C15.198028,15.3354588 15.5506423,15.688073 15.9857321,15.688073 C16.4208219,15.688073 16.7734361,15.3354588 16.7734361,14.900369 L16.7734361,0.826883422 C16.7734361,0.391793611 16.4207756,0.0391793611 15.9857321,0.0391793611 Z" id="Path"></path>
                            <path d="M13.5176174,2.32351651 C13.0825275,2.32351651 12.7299133,2.67613076 12.7299133,3.11122057 L12.7299133,12.6163556 C12.7299133,13.0514454 13.0825275,13.4040597 13.5176174,13.4040597 C13.9527072,13.4040597 14.3053214,13.0514454 14.3053214,12.6161243 L14.3053214,3.11117432 C14.3053214,2.67613076 13.9526609,2.32351651 13.5176174,2.32351651 Z" id="Path"></path>
                            <path d="M11.0757764,3.55755074 C10.6406866,3.55755074 10.2880723,3.91016499 10.2880723,4.34525481 L10.2880723,11.3819976 C10.2880723,11.8170874 10.6406866,12.1697016 11.0757764,12.1697016 C11.5108662,12.1697016 11.8634805,11.8173187 11.8634805,11.3819976 L11.8634805,4.34525481 C11.8634342,3.91016499 11.51082,3.55755074 11.0757764,3.55755074 Z" id="Path"></path>
                            <path d="M18.427573,2.32351651 C17.9924832,2.32351651 17.639869,2.67613076 17.639869,3.11122057 L17.639869,12.6163556 C17.639869,13.0514454 17.9924832,13.4040597 18.427573,13.4040597 C18.8626628,13.4040597 19.2152771,13.0514454 19.2152771,12.6161243 L19.2152771,3.11117432 C19.2152771,2.67613076 18.8626628,2.32351651 18.427573,2.32351651 Z" id="Path"></path>
                            <path d="M20.8956878,4.60780741 C20.4605979,4.60780741 20.1079837,4.96042166 20.1079837,5.39551147 L20.1079837,10.3317409 C20.1079837,10.7668307 20.4605979,11.119445 20.8956878,11.119445 C21.3307776,11.119445 21.6833918,10.767062 21.6833918,10.3317409 L21.6833918,5.39551147 C21.6833918,4.96042166 21.3307776,4.60780741 20.8956878,4.60780741 Z" id="Path"></path>
                        </g>
                    </g>
                </g>
            </g>
        </g>
    </g>
</svg>