<?xml version="1.0" encoding="UTF-8"?>
<svg width="143px" height="143px" viewBox="0 0 143 143" version="1.1" xmlns="http://www.w3.org/2000/svg" xmlns:xlink="http://www.w3.org/1999/xlink">
    <!-- Generator: Sketch 61.2 (89653) - https://sketch.com -->
    <title>women-react</title>
    <desc>Created with Sketch.</desc>
    <defs>
        <rect id="path-1" x="0" y="0" width="143" height="143" rx="16"></rect>
    </defs>
    <g id="About" stroke="none" stroke-width="1" fill="none" fill-rule="evenodd">
        <g id="Artboard" transform="translate(-264.000000, -183.000000)">
            <g id="women-react" transform="translate(264.000000, 183.000000)">
                <mask id="mask-2" fill="white">
                    <use xlink:href="#path-1"></use>
                </mask>
                <use id="Rectangle" fill="#FF632D" xlink:href="#path-1"></use>
                <path d="M151.944234,69.32068 C150.381093,96.965726 134.079364,121.127292 134.079364,121.127292 C132.962348,113.710454 141.001965,104.383422 141.001965,104.383422 C133.186547,111.912658 131.846468,122.92566 131.846468,122.92566 C129.94774,130.679978 124.365785,134.275856 124.365785,134.275856 C124.365785,131.803672 128.607661,125.173334 128.607661,125.173334 C133.744344,119.217098 131.06504,109.102708 131.06504,109.102708 C131.287818,120.903068 125.258602,127.982426 125.258602,127.982426 C121.462566,105.281748 125.03554,98.089992 125.03554,98.089992 C120.457223,104.94484 123.248485,121.57717 123.248485,121.57717 C126.151704,133.601754 114.986373,134.275856 114.986373,134.275856 C123.918524,124.274436 117.666245,107.529708 117.666245,107.529708 C121.238651,103.259442 124.811625,90.785552 124.811625,90.785552 C121.573955,99.888074 117.442331,102.697452 117.442331,102.697452 C120.680853,86.96402 111.078663,75.951304 111.078663,75.951304 C103.709085,66.6237 110.40834,59.431372 110.40834,59.431372 C120.903916,50.328278 131.51088,57.63329 131.51088,57.63329 C120.122487,49.42938 109.849974,58.532188 109.849974,58.532188 C101.364516,65.612118 109.515523,77.074998 109.515523,77.074998 C116.43784,87.86349 115.767801,97.752798 115.767801,97.752798 C115.209151,83.14306 106.723977,76.625692 106.723977,76.625692 C113.423232,84.267326 113.534621,96.741216 113.534621,96.741216 C114.986373,118.093404 92.5434701,116.070812 92.5434701,116.070812 C66.3048153,112.24928 53.9110795,94.269032 53.9110795,94.269032 C58.7124587,98.65141 69.6544429,99.55088 69.6544429,99.55088 C78.4752047,100.112584 96.1167283,103.821146 96.1167283,103.821146 C93.2137935,101.68587 77.4704301,100.000186 77.4704301,100.000186 C52.2365498,98.202104 49.4447199,85.053826 49.4447199,85.053826 C48.4402294,80.782988 48.8869222,77.636702 48.8869222,77.636702 C49.4452882,79.434784 50.8964715,81.120754 50.8964715,81.120754 C47.5468439,61.566934 55.5861774,56.958902 55.5861774,56.958902 C57.2607071,62.352862 55.2511579,69.32068 55.2511579,69.32068 C58.2657659,65.162526 58.1538085,50.440676 58.1538085,50.440676 C57.9310304,14.928914 31.6969221,0 31.6969221,0 L-42,0 L-42,143 L-19.6764426,143 C-19.7420826,140.777208 -12.5231066,138.322184 -12.5231066,138.322184 C2.10380899,139.895184 0.093975593,132.140866 0.093975593,132.140866 C2.32715538,122.251272 8.57943364,122.70115 8.57943364,122.70115 C17.5121528,125.960406 23.3180224,122.13916 23.3180224,122.13916 C30.0172776,119.666976 19.8567216,108.990882 19.8567216,108.990882 C28.0077284,103.147044 30.7987059,91.572052 30.7987059,91.572052 C34.7069836,94.493828 32.3618465,103.596922 32.3618465,103.596922 C28.6774834,117.531986 39.5080786,120.790956 39.5080786,120.790956 C51.2317752,124.724028 64.9957099,143 64.9957099,143 L64.994005,143 L120.687957,143 C154.742884,108.274452 151.944234,69.32068 151.944234,69.32068 Z M28.3331323,55 C28.3331323,55 29,55.4000465 29,55.7000233 C29,55.7000233 27.9166038,56 27,56 C27,56 27.8333585,55.4500815 28.3331323,55 Z M39.4795198,67.6845519 C39.4795198,67.6845519 38.2493711,72.829321 37.9137983,75.9608701 C37.9137983,75.9608701 36.7952225,87.4808833 24.2694504,96.7636692 C24.2694504,96.7636692 19.907574,101.908438 11.8549666,99.2246193 C11.8549666,99.2246193 7.94080518,95.6456248 15.6578398,93.6324048 C15.6578398,93.6324048 22.0325834,92.0666302 15.9934125,90.5008557 C15.9934125,90.5008557 8.94752341,92.1784916 9.73024185,88.8232198 C9.73024185,88.8232198 8.49980846,88.1523362 13.9802607,87.369022 C13.9802607,87.369022 20.6905771,86.4744156 22.2562986,85.3560866 C22.2562986,85.3560866 24.1573082,84.2374729 22.3681562,83.4547279 C22.3681562,83.4547279 20.0197162,85.5795247 17.8947068,84.6849184 C17.8947068,84.6849184 13.0854,83.9021734 11.1841058,84.6849184 C11.1841058,84.6849184 9.05938099,84.573057 9.39466911,83.3431512 C9.39466911,83.3431512 9.28309615,82.2242529 11.0722482,82.2242529 C11.0722482,82.2242529 14.539264,83.3431512 13.9802607,80.2113175 C13.9802607,80.2113175 13.7565455,76.4086002 12.6382543,75.2902711 L9.73024185,73.0530437 C9.73024185,73.0530437 8.16452034,72.4940215 9.61838427,69.5861952 C9.61838427,69.5861952 11.7433937,61.309877 11.8549666,54.3756106 C11.8549666,54.3756106 14.5395486,57.7308824 16.776131,57.171291 C16.776131,57.171291 24.9403113,64.5530028 31.2034819,55.7173778 C31.2034819,55.7173778 34.2230674,56.5001227 35.6769313,59.1847956 C35.6769313,59.1847956 34.7820707,57.0597142 32.8807764,55.2705016 C32.8807764,55.2705016 37.0192223,57.171291 38.5843746,60.7505702 C38.5843746,60.7505702 37.0192223,55.7173778 33.5519219,53.7044424 C33.5519219,53.7044424 36.1243616,53.8165884 36.9070801,54.1516033 C36.9070801,54.1516033 36.0122194,53.1454202 35.0057858,52.474252 C35.0057858,52.474252 28.9666149,33.908111 29.6377604,31 C29.6377604,31 38.6965168,47.4410596 39.1439471,53.3688583 C39.1439471,53.3688583 40.8218108,64.6648642 39.4795198,67.6845519 Z M44.9501115,46 C43.3306272,39.5122799 35,28.4718297 35,28.4718297 C37.3143903,30.40653 41.7108484,36.2112102 41.7108484,36.2112102 C41.0168258,32.4553599 35.5785976,23.34961 35.5785976,23.34961 C38.5870105,24.7156897 43.9336642,31.3169601 43.9336642,31.3169601 C44.5367013,26.9916203 42.7523241,18 42.7523241,18 C47.2645017,23.2360597 49,36.7806998 49,36.7806998 C48.3056829,35.5281703 46.1073066,33.4796301 46.1073066,33.4796301 C48.2812434,37.1222197 49,45.6584801 49,45.6584801 C48.3056829,43.0407399 43.3306272,39.5122799 43.3306272,39.5122799 C44.7192613,42.1303097 44.9501115,46 44.9501115,46 Z M116.151914,109 C116.151914,109 122.95954,125.408152 98,123.902354 C98,123.902354 115.319754,115.18942 116.151914,109 Z M114.158578,105 C114.158578,105 115.197224,105.701665 114.966577,107.106187 C114.966577,107.106187 112.426228,111.787031 107,116 C107,116 114.04252,107.106187 114.158578,105 Z M64,107 C64,107 84.6926498,118.908106 101,118.794682 C101,118.794682 84.3323123,131.269043 64,107 Z M100.470672,135 L97,130.855473 C97,130.855473 105.730665,129.552624 111.999696,126 C111.999696,126 112.22418,130.144527 100.470672,135 Z M94,127.604585 C94,127.604585 110.837961,124.454161 113,123 C113,123 104.580006,129.665391 94,127.604585 Z M119.819802,143 L114,143 C114,143 121.110608,139.92122 122,138 C122,138 121.931825,141.799658 119.819802,143 L119.819802,143 Z" id="Fill-2541" fill="#FFFFFF" mask="url(#mask-2)"></path>
                <rect id="Rectangle" stroke="#FF632D" stroke-width="2" mask="url(#mask-2)" x="1" y="1" width="141" height="141" rx="16"></rect>
            </g>
        </g>
    </g>
</svg>