<?xml version="1.0" encoding="UTF-8"?>
<svg width="143px" height="143px" viewBox="0 0 143 143" version="1.1" xmlns="http://www.w3.org/2000/svg" xmlns:xlink="http://www.w3.org/1999/xlink">
    <!-- Generator: Sketch 61.2 (89653) - https://sketch.com -->
    <title>women-react</title>
    <desc>Created with Sketch.</desc>
    <g id="About" stroke="none" stroke-width="1" fill="none" fill-rule="evenodd">
        <g id="Artboard" transform="translate(-91.000000, -665.000000)">
            <g id="women-react" transform="translate(91.000000, 665.000000)">
                <rect id="Rectangle" fill="#FF632D" x="0" y="0" width="143" height="143" rx="16"></rect>
                <path d="M100.730672,78.9621496 C100.109963,79.8788345 98.9076003,80.2362244 97.9309203,80.7262902 C96.9544004,81.2161955 96.8892564,82.9477293 97.5403764,83.9604678 C97.2473084,84.5811215 95.2289645,85.3978979 95.2289645,85.3978979 C95.2289645,85.3978979 95.9452285,86.6393659 95.8800845,87.390768 C95.2941085,87.9788149 94.2849366,87.7174786 93.8942326,89.5796003 C93.5035286,91.441722 93.3409087,91.8010393 92.0711607,92.4870673 C90.8015728,93.1730952 83.7698612,90.298235 81.6865334,87.9460475 C81.1636207,88.6955221 76.0025185,94.4396206 78.8225979,100.849187 C79.8597801,102.862135 81.5410398,105.526256 84.0800555,108.400955 C85.4146274,109.911952 86.856919,111.468405 88.2502325,113.094408 C72.5325997,104.56042 58.3155199,103.489535 51.0248329,103.643092 C51.877147,98.0747173 55.0792872,95.1071767 62.2901047,92.430688 C62.7989323,92.2417934 63.3116012,91.973229 63.8263509,91.6351141 L63.8263509,91.6357566 C63.8263509,91.6357566 72.538842,88.4063978 82.0633122,77.5264864 C82.9690861,79.8406059 84.7579053,81.7077069 86.3405686,82.727031 C84.9541377,81.2133042 84.5147757,77.7677446 85.5940535,75.1256296 C86.3405686,73.2980422 89.312704,70.827153 91.3035178,69.198419 C95.8568759,65.4728906 97.2143362,60.1179857 97.5613441,56.3474824 C97.7947101,56.9626748 98.003267,57.5797948 98.1806123,58.1954691 C98.6548671,59.8418719 99.4826922,61.9850867 98.6580683,65.034064 C98.0267957,67.3676191 96.5723396,71.6466601 98.7382579,75.4329046 C100.0469,77.7206816 101.59323,77.6879142 100.730672,78.9621496 Z M104.504223,31.9105284 C89.692524,22.8729819 75.4080594,30.8385194 68.2279732,42.2012685 C68.2287735,42.2001442 68.2295738,42.1991804 68.230214,42.1980561 C77.5120349,38.8103213 83.0838484,42.5305491 83.0838484,42.5305491 C66.925093,44.0047622 59.80807,55.956522 55.2787207,66.8470346 C50.7493714,77.7375472 44.0164899,81.8774872 44.0164899,81.8774872 C44.0164899,81.8774872 45.8336396,79.2703883 48.4233941,69.7154698 C50.9630501,60.3455908 53.7964144,53.7293004 57.9014473,49.0960821 C57.9092902,49.0980096 57.9168129,49.0997765 57.9246558,49.101704 C44.1123653,45.1305805 26.0602721,49.6701546 22.4368566,68.2643866 C19.9516207,81.0176634 28.2962962,96.633111 41.7111603,105.801567 C39.0298521,101.640906 40.8276347,94.9823714 47.2546434,89.4933448 C47.5361871,89.2527291 47.8193315,89.0203052 48.1042365,88.7949488 C46.3101353,88.8566287 44.4925054,88.4748239 42.681758,87.5390246 C34.1366887,83.1224889 40.9078242,74.4556641 40.9078242,74.4556641 C40.9078242,74.4556641 37.0134289,83.0609697 44.0294547,84.4063618 C47.7413827,85.1182503 53.1411328,80.2405613 58.2601395,72.244505 C63.7666489,63.6432151 69.0681228,52.0082072 77.6323992,46.4656927 C85.4884146,41.3816009 90.294826,45.3313613 90.294826,45.3313613 C80.7463469,45.9014182 73.5926704,60.2667241 68.4355697,70.4016583 C66.504458,74.1968978 63.8365947,78.2910598 60.719766,81.6516489 C69.5086052,77.1430753 79.7288519,70.3854352 92.0127392,47.4946542 C92.0127392,47.4946542 84.1016635,75.3657634 70.2687253,82.9824242 C58.3853056,89.5254698 42.1625266,96.4312058 44.8115029,107.749622 C51.0248329,111.334283 80.1887013,116.023078 91.9360709,114.80233 C104.311512,103.609522 116.116983,87.8960932 119.152822,71.5 C122.423787,53.8348308 115.94524,38.8914368 104.504223,31.9105284 L104.504223,31.9105284 Z" id="Fill-3" fill="#FFFFFF"></path>
            </g>
        </g>
    </g>
</svg>