<?xml version="1.0" encoding="UTF-8"?>
<svg width="36px" height="37px" viewBox="0 0 36 37" version="1.1" xmlns="http://www.w3.org/2000/svg" xmlns:xlink="http://www.w3.org/1999/xlink">
    <!-- Generator: Sketch 61 (89581) - https://sketch.com -->
    <title>rwr-logo</title>
    <desc>Created with Sketch.</desc>
    <g id="Home" stroke="none" stroke-width="1" fill="none" fill-rule="evenodd">
        <g id="landing-2020-v3.0" transform="translate(-473.000000, -499.000000)" fill-rule="nonzero">
            <g id="hero/video" transform="translate(297.000000, 0.000000)">
                <g id="rwr-logo" transform="translate(176.000000, 499.000000)">
                    <path d="M8.1845478,11.7787527 C8.22224909,11.8149352 8.24689329,11.8625942 8.25462495,11.9142738 C8.293428,12.1575168 8.06929695,12.3833853 7.58281095,12.5913002 C6.9544332,12.2449685 6.1517313,11.6878262 5.17470525,10.918715 C4.08590325,10.0592564 3.2837805,9.4691025 2.76775785,9.14883255 C2.77934085,9.42914115 2.8355184,10.1594493 2.93571135,11.3385987 C3.02258385,12.2270148 3.0382209,12.9416859 2.98320165,13.482612 C2.9617731,13.4860869 2.9003832,13.5231525 2.79787365,13.5932297 C2.6953641,13.663886 2.60559585,13.6945809 2.52798975,13.6847354 C2.0467161,13.652303 1.76351175,13.3662029 1.67779755,12.8252768 C1.64908313,12.6112737 1.63649941,12.3954145 1.6401528,12.1795245 L1.6285698,11.594583 C1.55946381,10.8567401 1.47004775,10.1209405 1.36042335,9.3880215 L1.08590625,7.65462555 C0.85772115,6.2131212 0.74420775,4.98706065 0.747049471,3.97586475 C0.7482618,3.3023133 1.3181454,2.90212065 2.45617515,2.7764451 C3.02953365,2.7069471 3.57161805,2.91486195 4.08127005,3.39903135 C4.552119,3.84613515 4.8347442,4.36621185 4.92914565,4.9598406 C5.00791005,5.4579096 4.9019256,5.98551525 4.6111923,6.5420784 C4.37499969,7.02536252 4.0310345,7.44798795 3.6057879,7.77740535 C3.4320429,7.9135056 3.3555951,8.04497265 3.37586535,8.17238565 C3.39787305,8.31022335 3.53455245,8.4567483 3.78706185,8.61253965 L4.3586829,8.9455509 L6.35269635,10.2596423 C7.18551405,10.8011475 7.79593815,11.3079038 8.1845478,11.7787527 L8.1845478,11.7787527 Z M3.71177235,5.16891375 C3.71560691,4.99636853 3.69928015,4.82396573 3.66312375,4.6552077 C3.59541692,4.43630027 3.46589819,4.24161994 3.29015115,4.0945905 C3.1088772,3.93879915 2.84883885,3.88783395 2.5111944,3.94111575 C2.2575267,3.98165625 2.1115809,4.08590325 2.073357,4.25501505 C2.0629323,4.52837385 2.08436085,4.83416505 2.1382218,5.17354695 C2.15965035,5.31138465 2.2320441,5.664087 2.35424475,6.231654 C2.444013,6.6625416 2.50019055,7.0181397 2.5227774,7.29729 C3.2953635,6.5003796 3.6915021,5.7915 3.7123515,5.1683346 L3.71177235,5.16891375 Z M11.710413,2.95656075 C11.3455485,3.17779605 10.7994101,3.45462975 10.0725768,3.7864827 C9.34574355,4.1189148 8.7996051,4.3957485 8.43416145,4.61640465 C8.3826171,4.90713795 8.4115746,5.53261995 8.52103395,6.4934298 C8.69941215,6.5304954 8.89979805,6.53107455 9.1216125,6.49632555 C9.27972045,6.47084295 9.52412175,6.405399 9.8536581,6.2988354 C10.1826153,6.1922718 10.4270166,6.1262487 10.5851246,6.10134525 C10.8804911,6.05501325 11.1445835,6.07817925 11.3756643,6.17200155 C11.5569382,6.3602253 11.652498,6.48648 11.6629227,6.5501865 C11.6745057,6.6243177 11.6467065,6.68860335 11.5795251,6.7424643 C11.5604132,6.7563639 11.4984441,6.8420781 11.3930388,7.00018605 C11.3300432,7.10512022 11.2187686,7.17162419 11.096514,7.17740595 C10.8833868,7.26543675 10.4820359,7.36157565 9.891882,7.46582265 C9.39786705,7.5555909 9.011574,7.6818456 8.7347403,7.8451659 C8.6582925,8.66118825 8.6559759,9.29709495 8.72836965,9.752886 C8.77701825,10.0598355 8.8575201,10.297287 8.9710335,10.4640822 C9.5223843,10.7357036 10.4067464,10.7478657 11.6229614,10.5005687 C11.7075173,10.4872482 11.7909149,10.4333873 11.8731541,10.3384067 C11.9559726,10.2440052 12.0283664,10.1918817 12.0920729,10.1820362 C12.3775938,10.0714185 12.6080955,10.2631172 12.7835779,10.756553 C12.8420721,10.9216107 12.8380181,11.0820353 12.7708367,11.2395641 C12.7112387,11.3905452 12.5786568,11.5006296 12.4192926,11.5314556 C11.1486375,11.7764361 10.0239282,11.8511464 9.04574385,11.7561659 C8.7382152,11.7289458 8.44342785,11.6073243 8.15964435,11.3913014 C7.87644,11.1752784 7.69400775,10.9106069 7.61176845,10.5978659 C7.37084205,9.69091695 7.23995415,8.86389075 7.21910475,8.1173664 C6.89130585,7.9633125 6.7285647,7.78783005 6.729723,7.59207735 C6.72566895,7.49478015 6.7934295,7.3945872 6.93416295,7.29091935 C7.07431725,7.18667235 7.14844845,7.0911126 7.1559774,7.0030818 C7.1640855,6.915051 7.12644075,6.40481985 7.0436223,5.47238835 C6.43377735,5.44922235 6.10829505,5.27316075 6.06659625,4.9424661 C6.0289515,4.63377915 6.1748973,4.36042035 6.50559195,4.123548 L7.4536605,3.54961035 C7.82257905,3.28435965 8.29053225,3.02605875 8.8563618,2.77354935 C9.3416895,2.5552098 9.8328087,2.34150345 10.3297194,2.1324303 C10.3812637,2.11331835 10.4438119,2.0976813 10.517364,2.0860983 C10.8028849,2.0409246 11.1526916,2.0999979 11.5679421,2.2621599 C11.5853166,2.3027004 11.6246988,2.3779899 11.6849304,2.4880284 C11.7457412,2.5980669 11.7804902,2.6791479 11.7891774,2.7324297 C11.8029887,2.81569448 11.7732772,2.90024136 11.710413,2.95656075 Z M19.077201,9.15694065 C19.1675484,9.31678605 19.2225677,9.4598361 19.2428379,9.5872491 C19.2764286,9.799218 19.216197,9.9984456 19.061564,10.1860902 C18.9075101,10.3737348 18.7974716,10.4669779 18.7326068,10.4663988 C18.1997888,10.4530783 17.8065459,10.0864764 17.5517199,9.3660138 C17.2766237,8.5841613 16.9957359,7.93840905 16.7090567,7.4293362 L15.6474747,7.6957452 C15.2438072,7.8138918 14.94207,7.99169085 14.7416841,8.23030065 C14.6779776,8.5772115 14.6165877,9.1841607 14.5592519,10.0517274 C14.5024952,10.8538502 14.4214142,11.4700658 14.3160089,11.8992159 C14.2621479,12.1036559 14.0907195,12.185316 13.802882,12.1436172 C13.43628,12.0822273 13.2260486,11.9524977 13.1733459,11.7544284 C13.0777862,11.3565523 13.107902,10.7976726 13.2648516,10.0777892 C13.4588669,9.2536587 13.5457394,8.67508785 13.5254691,8.34149745 C13.5208359,8.24420025 13.4357009,8.14921965 13.2689057,8.0559765 C13.1026896,7.96273335 13.0146588,7.8845481 13.0048133,7.8208416 C12.9985382,7.75800957 13.014303,7.69495046 13.0494078,7.6424634 C13.0876317,7.5764403 13.1912996,7.5115755 13.3592531,7.4467107 C13.5272066,7.3818459 13.6163957,7.31061045 13.6256621,7.2335835 C13.7322257,6.6729663 13.8770132,5.6397627 14.0600246,4.1328144 C14.2106036,2.82683115 14.370449,1.818531 14.5389816,1.1073348 C14.578943,0.9486477 14.698827,0.8536671 14.8997921,0.82181385 C15.0474753,0.79864785 15.1870505,0.82528875 15.3185175,0.9023157 C15.6544245,1.1096514 15.9046173,1.46119545 16.0696751,1.9563687 C16.2017213,2.3814648 16.3291343,2.8065609 16.4507558,3.2328153 C17.3745,5.65076655 18.2501748,7.62566805 19.077201,9.15694065 Z M16.2839606,6.48648 C16.1741017,6.04870574 16.0355792,5.61862803 15.8692892,5.19902955 C15.6969148,4.79291214 15.5293358,4.38477606 15.366587,3.97470645 C15.1893671,4.90482135 15.053846,5.82798645 14.961182,6.7447809 C15.1250814,6.68628675 15.5658146,6.5999934 16.2839606,6.48648 L16.2839606,6.48648 Z M28.9673456,18.9190931 C29.7213989,18.5385915 30.2611667,18.1661981 30.5854907,17.8036502 C30.9775752,17.7862757 31.3991964,17.6953491 31.8515126,17.5314497 C32.289619,17.3740876 32.7049946,17.1594866 33.0868395,16.8932264 C33.2038278,16.8387863 33.4841364,16.6569332 33.9289236,16.3465088 C34.2573017,16.1241152 34.5474558,15.98454 34.7999652,15.926625 C34.98066,15.8611811 35.0837487,15.9092505 35.1086522,16.0714125 C35.3796944,15.972957 35.5488062,16.0140767 35.6142501,16.1953506 C35.6559489,16.5914892 35.5621266,16.8654272 35.3333624,17.0177436 C34.7391545,17.4161988 33.6810474,18.0416808 32.1596204,18.8924522 C32.8719749,21.4766195 33.5333642,23.6055749 34.14263,25.2798975 C34.37429,25.9152251 34.6117415,26.536653 34.8549845,27.1447605 C34.9354863,27.3324051 34.9783434,27.482405 34.9852932,27.5941809 C34.9934013,27.7737174 34.9204284,27.8860725 34.7663745,27.9306671 C34.471008,28.026806 34.1849079,27.9908987 33.9080742,27.8235243 C33.6401245,27.666102 33.4284158,27.4284615 33.3028624,27.1441814 C33.1391486,26.7587921 32.9858117,26.3690768 32.8430174,25.9754567 C32.6009326,25.3094342 32.2621299,24.2397441 31.8277674,22.7646491 C31.4154126,21.3497856 31.0719766,20.2812539 30.7974595,19.5590538 C30.5194675,19.6378182 30.1517073,19.7999802 29.6953371,20.0455398 C29.1717855,20.3275859 28.8051835,20.5071224 28.5937938,20.5841493 C28.1015163,20.7631067 27.6520959,20.7781646 27.2455326,20.629323 L27.1221736,20.5042266 C27.1025041,20.5305904 27.0859828,20.5591626 27.0729459,20.5893617 C26.3808616,22.188974 26.3779659,23.9310572 27.0642586,25.8173487 C27.3874243,26.7046065 27.8327907,27.4910922 28.4003577,28.1744892 C28.8665734,28.7362647 29.1862642,29.0993918 29.3600092,29.2644495 C29.7908968,29.6675379 30.2258385,29.9084643 30.6648342,29.988387 C30.8408958,30.0046032 31.0157991,30.0150279 31.1883858,30.0208194 C31.382401,30.0532518 31.5086557,30.1499699 31.5671499,30.3115527 C31.625644,30.4725564 31.6262232,30.6381933 31.5683082,30.8078843 C31.5103932,30.9769961 31.4159917,31.0685018 31.2845247,31.0824014 C31.146687,31.1096214 30.9219768,31.1171504 30.6103941,31.1055674 C30.0254526,30.9984246 29.2841406,30.5883864 28.3881955,29.8754528 C28.1565366,29.6894287 27.9260305,29.5019736 27.6966905,29.3130981 C27.4821497,29.1404453 27.2876869,28.9442341 27.1169613,28.7281566 C27.0080811,28.5845274 26.6860737,27.9654161 26.15036,26.8690851 C25.9866717,26.5420401 25.8416517,26.2059802 25.7159975,25.8625224 C25.0661912,24.0775821 25.0314422,22.3719853 25.6105922,20.7445739 C25.9493949,19.7994011 26.4445682,19.2075098 27.0978494,18.9700583 C27.341051,18.8796159 27.6054406,18.8625001 27.8582733,18.9208305 C27.718243,18.4824722 27.5928838,18.039562 27.482405,17.5928395 C27.354992,17.0831875 27.1870385,16.3175512 26.9762279,15.2970889 C26.8219208,14.5285385 26.6531652,13.7629597 26.4700507,13.0007592 C26.3176879,12.3796969 26.1369974,11.7659287 25.9285455,11.1613788 C25.9158042,11.1538498 25.772175,11.0629233 25.4964996,10.8874408 C25.3285461,10.7860896 25.2295114,10.6777886 25.2011331,10.5631169 C25.1879845,10.5095034 25.1852322,10.4538668 25.193025,10.3992174 C25.2138744,10.2613797 25.3100133,10.1600285 25.4808625,10.0951636 C25.6105921,10.0407236 25.74148,9.9914958 25.8735262,9.9474804 C26.7920581,9.91794375 27.82642,10.1791404 28.9777702,10.7328078 C29.2789282,10.8793328 29.5360708,11.0472863 29.7486189,11.2378266 C30.4308576,11.8528839 30.8524788,12.4829991 31.0134825,13.1287514 C31.0963009,13.4623418 31.1084631,13.7965113 31.0482315,14.1324183 C31.004734,14.395773 30.9661173,14.6599107 30.9324015,14.9246955 C30.8779614,15.2368574 30.799197,15.494 30.69495,15.6967025 C30.474873,16.1831885 30.2530586,16.663883 30.030665,17.1399443 C29.7659934,17.7150402 29.5013219,18.134924 29.2372295,18.3995955 C29.1520703,18.5752141 29.0620747,18.7484461 28.9673456,18.9190931 L28.9673456,18.9190931 Z M28.4304735,19.1779731 C28.343601,19.1675484 28.2474621,19.1548071 28.142636,19.1380118 C28.1664638,19.1871497 28.1864089,19.2380774 28.2022884,19.2903282 L28.4304735,19.1779731 L28.4304735,19.1779731 Z M24.231636,7.2324252 C24.2119449,7.2463248 23.664069,7.783776 22.5874291,8.84535795 C21.9607889,9.46620675 21.3920635,9.94226805 20.8818324,10.2729627 C20.8278084,10.3129126 20.7650947,10.3395063 20.698821,10.3505688 C20.5511377,10.3737348 20.3988213,10.3001828 20.2418716,10.1299127 C20.1224314,10.0114582 20.0011818,9.8948423 19.8781654,9.78010605 C19.7090536,8.8505703 19.5613704,7.5428496 19.4351157,5.85694395 C19.3134942,4.06157895 19.1901352,2.7718119 19.0661971,1.9876428 C18.9867942,1.47780619 18.884958,0.971717123 18.7609851,0.47084895 C18.8768151,0.3115827 19.0395562,0.21486465 19.250946,0.18127395 C19.6522969,0.11756745 19.9077021,0.2293434 20.0183197,0.5166018 C20.1874315,1.3806936 20.3565433,2.687256 20.5256551,4.4374473 C20.6947669,6.18705945 20.8580872,7.4953593 21.0173535,8.3606094 C21.2924497,8.1868644 21.6428355,7.9030809 22.0673524,7.50983805 C22.5277767,7.06736745 22.864842,6.76968435 23.0785483,6.6162096 C23.131251,6.6081015 23.2221775,6.5826189 23.3507488,6.5409201 C23.4793201,6.49864215 23.575459,6.4725804 23.6385864,6.4621557 C23.8499761,6.42914415 24.0167713,6.48937575 24.1383928,6.6440088 C24.3022923,6.857136 24.3329872,7.05346785 24.2310568,7.2324252 L24.231636,7.2324252 Z M7.2185256,15.1957377 C7.48551375,15.2513361 7.64651745,15.3880155 7.70095755,15.6069342 C7.737444,15.7523009 7.72412355,15.9660072 7.6621545,16.246895 C7.58976075,16.6187093 7.5532743,16.8272033 7.5532743,16.8712186 C7.4965176,17.7040363 7.5532743,18.934151 7.72180695,20.5621416 C7.89091875,22.1901323 7.95346695,23.4022932 7.90945155,24.1986245 C7.89902685,24.4221764 7.749027,24.5704388 7.4582937,24.6428325 C7.32335175,24.6764232 7.1976762,24.6798981 7.08126705,24.6544155 C6.64806285,24.551906 6.2768277,24.2351109 5.96814075,23.7034512 L5.2830063,22.2150357 C5.04573198,21.6845013 4.81866335,21.1494612 4.6019259,20.610211 C4.52953215,20.9380099 4.51794915,21.7094377 4.5671769,22.9244944 C4.60945485,23.9762308 4.5243198,24.67179 4.31177175,25.0123302 C4.24922355,25.1165772 4.10675265,25.1629092 3.88320075,25.1524845 C3.5617725,25.1883918 3.3081048,25.0528707 3.12103935,24.745342 L2.7162135,23.9171575 C2.34266175,23.2140694 1.9042452,22.0847269 1.4003847,20.52913 C0.8965242,18.972954 0.4610034,17.8540362 0.092664,17.1717975 C0.0308905847,17.058466 0.0155255661,16.9255793 0.0498069,16.8011415 C0.0833976,16.6708327 0.15579135,16.586856 0.2675673,16.5474738 C0.3451734,16.5063541 0.42567525,16.47508 0.5084937,16.4548098 C0.799227,16.3818369 1.05463215,16.4565472 1.27470915,16.6777825 C1.6586856,17.5117585 2.2806927,19.1646526 3.13957215,21.6382023 C3.1783752,21.4407121 3.19169565,21.0862723 3.18011265,20.5748829 C3.16852965,20.0634934 3.18706245,19.6853085 3.2362902,19.4409072 C3.23108341,19.0230331 3.2206579,18.6052403 3.2050161,18.1876266 C3.2096493,17.6779746 3.40945605,17.3733417 3.8038572,17.2754653 C3.90752505,17.2494036 4.0250925,17.2366623 4.1571387,17.2366623 C4.1837796,17.2968939 4.239378,17.3212182 4.3250922,17.3113726 C4.41022725,17.3009479 4.46119245,17.305002 4.4768295,17.3229557 C4.83184845,17.7764301 5.1729678,18.4158117 5.50018755,19.2411004 C5.9779863,20.4051919 6.2606115,21.0758476 6.3486423,21.2530676 C6.28392452,20.2891704 6.22542915,19.3248656 6.17315985,18.3602133 C6.12335295,17.2331874 6.185322,16.2885937 6.35848785,15.5264323 C6.39787005,15.3729576 6.53107455,15.2681314 6.75925965,15.2107956 C6.9254757,15.1696759 7.0783713,15.1644636 7.2185256,15.1963168 L7.2185256,15.1957377 Z M14.8748886,18.2478582 C14.6084796,19.7855015 13.9470903,20.8239174 12.891879,21.3636852 C12.7670434,21.4277083 12.635301,21.4772574 12.4992153,21.5113685 C11.9079032,21.6584726 11.2308768,21.4847276 10.4681363,20.9889752 C9.95500935,20.652489 9.61099425,20.1353081 9.43724925,19.4374323 C9.24497145,18.6671628 9.26697915,17.7822216 9.5026932,16.7831879 C9.59833847,16.3780963 9.75828113,15.990949 9.9764379,15.6364709 C10.2179435,15.2333825 10.4837733,14.995931 10.7739275,14.9235372 C10.9401435,14.8824176 11.1109927,14.9061627 11.2876335,14.9947727 C11.4636951,15.0833826 11.8945827,15.1528806 12.579138,15.2032667 C13.1183267,15.2461238 13.5411062,15.4389807 13.8474765,15.7829958 C14.3843486,16.3905242 14.7150432,16.9436124 14.8395605,17.4434189 C14.9096376,17.7248858 14.9217998,17.9930322 14.8748886,18.2478582 L14.8748886,18.2478582 Z M22.8961161,20.4584737 C22.7930274,20.5696706 22.6354986,20.6820257 22.4223714,20.795539 C21.7661945,20.505964 20.9183189,20.0206364 19.8781655,19.339556 C18.7187072,18.5779737 17.8679358,18.0596344 17.3258514,17.7862757 C17.3617587,18.0642677 17.4816428,18.7870468 17.6843453,19.9528758 C17.8476656,20.8302881 17.9258508,21.5409051 17.9183219,22.0841478 C17.8974725,22.0899393 17.8389783,22.1322173 17.7428394,22.2115608 C17.6472797,22.2903252 17.5604072,22.3285491 17.4822219,22.3262325 C17.0003691,22.3354989 16.6928405,22.0748814 16.5602151,21.54438 C16.5131137,21.3335073 16.4819447,21.1193897 16.466972,20.9038401 L16.4044238,20.3217943 C16.2711379,19.5928071 16.117798,18.8676294 15.9445787,18.1470861 L15.5200617,16.4443851 C15.1667802,15.0283633 14.9478615,13.8167815 14.8615682,12.8090605 C14.8048115,12.1378257 15.3376295,11.6895636 16.4600222,11.4654325 C17.0258517,11.3461276 17.5835732,11.505973 18.1331865,11.9438104 C18.6416802,12.3480571 18.9683208,12.8414929 19.1136875,13.424697 C19.235309,13.9140787 19.1762357,14.4486342 18.9353093,15.0289425 C18.7420365,15.5309631 18.4361128,15.9819232 18.0411017,16.3470879 C17.880098,16.4976669 17.8152332,16.6355046 17.8465073,16.7600218 C17.880098,16.8955429 18.0295187,17.0299058 18.2941902,17.1631102 L18.8930313,17.4451563 C18.9063518,17.4526852 19.6065441,17.8314493 20.9941875,18.5802903 C21.382218,18.7870468 21.725654,18.9903285 22.0256537,19.1907144 C21.8362716,18.3689005 21.6399398,17.3374344 21.4366581,16.0974743 C21.1586661,14.3194837 20.9241104,13.0453538 20.7318326,12.2750843 C20.6083435,11.7741305 20.4628357,11.2788628 20.2957326,10.7907228 C20.3965047,10.621611 20.5505586,10.5115725 20.7584735,10.4600282 C21.1522955,10.3615726 21.416967,10.4501826 21.551909,10.7264372 C21.7963103,11.5725753 22.0789355,12.8600258 22.3992054,14.5882093 C22.7200545,16.316393 22.9974674,17.6055808 23.2308648,18.4540356 C23.490324,18.2565454 23.8140689,17.9432253 24.2032577,17.5146543 C24.6231414,17.0339598 24.9329867,16.7078983 25.1327934,16.5358908 C25.1849169,16.5237286 25.2723686,16.490138 25.3968858,16.4374353 C25.4877525,16.3964523 25.5814263,16.362002 25.6771944,16.3343466 C25.8845301,16.2822231 26.0559585,16.3285551 26.1909005,16.4716051 C26.3721744,16.6696744 26.4202439,16.8625314 26.3345297,17.0495969 C26.3171552,17.0652339 25.8173487,17.648438 24.8374269,18.7997882 C24.2669642,19.4727604 23.7422543,19.9963121 23.2621389,20.370443 C23.2121535,20.4147737 23.152435,20.4467162 23.0878148,20.4636861 C23.0247407,20.4789209 22.9587311,20.4769206 22.8966953,20.4578946 L22.8961161,20.4584737 Z M13.3887897,17.5899438 C13.1264347,16.8474735 12.8113772,16.4449643 12.4430378,16.3818369 C12.3939969,16.3738317 12.3438823,16.3752074 12.2953545,16.385891 C12.1708373,16.4165859 12.0411077,16.559636 11.9067449,16.814462 C11.7584825,17.1057744 11.6328069,17.2864692 11.5291391,17.3565464 C11.4642743,17.4057741 11.3530775,17.4005618 11.1949695,17.3403302 C11.0362824,17.2800986 10.9366686,17.2551951 10.8949698,17.2656198 C10.8657509,17.2722624 10.8405898,17.2907138 10.8254718,17.316585 C10.5399508,17.7190943 10.4791401,18.2490165 10.6430395,18.9046143 C10.7542363,19.3522973 10.9528848,19.7067371 11.2384057,19.9673546 C11.6351235,20.3217944 11.9322274,20.47469 12.1291384,20.4254622 C12.5855086,20.3119488 12.9550063,19.9158102 13.2376315,19.2364673 C13.5069363,18.5941899 13.5573223,18.0451557 13.3887897,17.5899438 L13.3887897,17.5899438 Z M17.9194801,13.7391755 C17.9082459,13.5670116 17.8769531,13.3967476 17.826237,13.2318401 C17.7396776,13.0197004 17.5936684,12.8370882 17.4057741,12.7059719 C17.2111797,12.5663967 16.9482456,12.5380184 16.6163926,12.6208368 C16.3673581,12.6828059 16.2312579,12.7997942 16.2080919,12.9712226 C16.2208332,13.2445814 16.2689026,13.548056 16.3517211,13.8810672 C16.3858909,14.0165883 16.4884005,14.3617617 16.6598289,14.9160083 C16.7872419,15.3376295 16.8741144,15.6862778 16.9204464,15.9625323 C17.6206387,15.1024946 17.95365,14.3611826 17.9194801,13.7391755 Z M29.5117465,12.7401417 C29.2546039,12.1077099 28.556149,11.6681351 27.4146444,11.4214171 C27.8000099,13.2819579 28.2389953,15.1309885 28.7310524,16.9661993 C29.6096229,15.4974749 29.9165724,14.2320321 29.6519009,13.169871 C29.6153842,13.0234994 29.5685489,12.8798972 29.5117466,12.7401417 L29.5117465,12.7401417 Z M16.208671,34.0511242 C16.2538447,34.0800817 16.285698,34.1206222 16.3042308,34.1710083 C16.3882076,34.4026683 16.2115668,34.6667607 15.7731502,34.9632855 C15.0903324,34.7437876 14.1961248,34.3493865 13.0905274,33.7818195 C11.8580962,33.1447545 10.957518,32.7190793 10.389951,32.5030563 C10.4553949,32.7764151 10.6494102,33.4818198 10.9731551,34.6204287 C11.2274019,35.4758332 11.3791392,36.1742881 11.428367,36.7163725 C11.4080967,36.7233223 11.3548149,36.7713918 11.2673633,36.8605809 C11.1804908,36.9491909 11.0982515,36.996102 11.0206454,37.0018935 C10.5416883,37.061546 10.2086771,36.8345191 10.0216116,36.3202339 C9.95267556,36.1154653 9.89924296,35.9058005 9.8617662,35.6930145 C9.79516395,35.386065 9.75462345,35.1955247 9.7389864,35.1213935 C9.53026613,34.4102227 9.30199445,33.7049366 9.0544311,33.0063376 L8.4544317,31.3574976 C7.9552044,29.9860704 7.610031,28.8034461 7.41949065,27.8113622 C7.29207765,27.1493937 7.77508875,26.6478498 8.86852395,26.3073096 C9.41871645,26.1300897 9.98975835,26.2302827 10.582808,26.6084676 C11.1301047,26.9571159 11.5071314,27.4140653 11.7121505,27.9787365 C11.8847372,28.4530604 11.8818414,28.9905116 11.7023049,29.5928276 C11.562599,30.1120776 11.3056206,30.5923518 10.9511474,30.9966872 C10.8063599,31.1634824 10.756553,31.3076907 10.8005684,31.4287331 C10.8486378,31.559621 11.0107998,31.6777676 11.2876335,31.7820146 L11.9131155,31.999775 C11.9270151,32.0067248 12.6631148,32.3096202 14.1214145,32.9090404 C15.042263,33.2825922 15.7378221,33.6630938 16.2092502,34.0511243 L16.208671,34.0511242 Z M10.5579045,28.4159948 C10.5284747,28.2459902 10.4793003,28.0800022 10.4113796,27.9214007 C10.303253,27.7195756 10.1391523,27.5532628 9.93879315,27.4424436 C9.73029915,27.3237179 9.4656276,27.3231387 9.14419935,27.440127 C8.90327295,27.5281578 8.779914,27.6584666 8.77470165,27.8316324 C8.81640045,28.1020955 8.89632315,28.3986203 9.01331145,28.7212068 C9.0613809,28.8526739 9.19863945,29.1845268 9.4274037,29.7185031 C9.59825295,30.1244873 9.72103275,30.4621317 9.79632225,30.7320156 C10.4026923,29.803059 10.65636,29.0310521 10.5579045,28.4159948 L10.5579045,28.4159948 Z M17.9872407,24.7187012 C17.6704456,25.0048013 17.1874345,25.3806696 16.5376282,25.8457271 C15.8878219,26.3107845 15.4042317,26.6866529 15.0880158,26.972753 C15.092649,27.2681195 15.2403322,27.8768061 15.5304864,28.7988129 C15.7134978,28.8011295 15.9104088,28.7640639 16.1212194,28.687037 C16.2717984,28.6320177 16.4988252,28.5208209 16.8017206,28.3534466 C17.1046161,28.1860722 17.3316429,28.0754546 17.4822219,28.0198562 C17.7636888,27.9179257 18.0266229,27.8907057 18.2716033,27.9387752 C18.4858888,28.0893542 18.6040355,28.1941803 18.6260431,28.2549911 C18.6515257,28.3256474 18.6364678,28.3939871 18.5808694,28.459431 C18.5646532,28.4768055 18.5200587,28.5735236 18.4476649,28.7484269 C18.4057495,28.8635516 18.3090139,28.9500703 18.1899432,28.9789286 C17.9970862,29.1063416 17.6212179,29.2771908 17.0623381,29.4920555 C16.5943849,29.6739086 16.2399451,29.8713987 15.9984396,30.0851051 C16.0795206,30.9005483 16.1988255,31.5254511 16.3563543,31.9586553 C16.4629179,32.2511261 16.5874351,32.4683073 16.7304852,32.6107782 C17.3235348,32.7717819 18.1934181,32.6148322 19.3407142,32.1405084 C19.4206369,32.1115509 19.4924515,32.0420529 19.5549997,31.9337519 C19.6187062,31.8254508 19.6800961,31.7600069 19.7403277,31.7379992 C19.9992078,31.575258 20.2621419,31.7194664 20.52913,32.1706242 C20.61774,32.3212032 20.6443809,32.4798903 20.6084736,32.6466855 C20.5788223,32.8064019 20.4695916,32.9398818 20.3188986,33.0005462 C19.1183207,33.4835573 18.0283603,33.7713948 17.050176,33.864638 C16.7432265,33.8964912 16.4304855,33.8333639 16.1107947,33.6758351 C15.7922622,33.5177271 15.5623397,33.2930169 15.4216062,33.0017044 C15.0121471,32.1567246 14.7260471,31.3702389 14.5627267,30.6416682 C14.2117618,30.5524791 14.0183257,30.4117457 13.9824185,30.2188887 C13.9592525,30.1244873 14.0073219,30.0132905 14.1254685,29.88414 C14.2436151,29.7555687 14.2980552,29.6472677 14.2887888,29.559816 C14.2795224,29.4712061 14.1451596,28.9777702 13.8862795,28.0783503 C13.2833844,28.1721726 12.9295237,28.0609758 12.8264351,27.7447599 C12.729717,27.4488142 12.8206435,27.1528686 13.100373,26.856923 L13.9216077,26.1127152 C14.2331904,25.7825997 14.6432286,25.4385846 15.150564,25.0829865 C15.5849265,24.776037 16.0262388,24.4731416 16.4745009,24.1725627 C16.5302616,24.1399748 16.5890261,24.1128229 16.6499833,24.0914817 C16.9210255,23.9930262 17.2760445,23.9837598 17.7150402,24.0636825 C17.7393645,24.1007481 17.7920671,24.1673503 17.872569,24.2634892 C17.95365,24.3596281 18.0028777,24.4331802 18.0214105,24.4835662 C18.0505558,24.5626756 18.0376973,24.6511595 17.9872407,24.7187011 L17.9872407,24.7187012 Z M26.4017111,29.3993915 C26.5204368,29.5383875 26.6020969,29.6686962 26.6461124,29.7897386 C26.7196644,29.9912828 26.6982359,30.1991976 26.5824059,30.4123248 C26.4665759,30.6260312 26.3768076,30.7383863 26.3131011,30.7505484 C25.787812,30.8385792 25.3314419,30.5536374 24.9439905,29.8951439 C24.5241068,29.1798936 24.1256516,28.6001645 23.7474666,28.1553773 L22.7559618,28.6186973 C22.38241,28.8121334 22.1200551,29.0443725 21.9683178,29.316573 C21.9723718,29.6698545 22.0285494,30.2773829 22.1374296,31.1397372 C22.2347268,31.9378059 22.2723715,32.5580756 22.2515221,32.999967 C22.2370434,33.2101985 22.084727,33.3231327 21.7939937,33.3376115 C21.4221794,33.3468779 21.1916777,33.2600054 21.1013303,33.0758357 C20.9316393,32.7034422 20.8551915,32.1491957 20.8714077,31.4119377 C20.9049984,30.5663787 20.8795158,29.9814372 20.7961182,29.6576924 C20.7729522,29.5632909 20.6710218,29.486264 20.490327,29.4260324 C20.309053,29.3669591 20.2077018,29.3067275 20.1856941,29.2464959 C20.1675838,29.1860093 20.1710643,29.1211081 20.1955396,29.0629053 C20.2204431,28.9905116 20.3096322,28.9065348 20.4619487,28.8115542 C20.6154234,28.7154153 20.6889755,28.629122 20.6831839,28.5509367 C20.6808673,27.9810531 20.6252689,26.9391623 20.5181262,25.424685 C20.416775,24.1140686 20.3808676,23.0936063 20.4104043,22.3632981 C20.4196707,22.1999778 20.5192845,22.0835687 20.710404,22.0140707 C20.8478591,21.9629729 20.9990649,21.9627675 21.1366584,22.0134915 C21.5061561,22.1524875 21.8188971,22.4501706 22.0748814,22.9053825 C22.2862711,23.2963088 22.4918694,23.6901308 22.6928344,24.0851111 C24.0613659,26.2824062 25.297272,28.0534469 26.401711,29.3993915 L26.4017111,29.3993915 Z M28.9673456,18.9190931 L28.802867,19.0001741 C28.6725582,19.061564 28.548041,19.1212164 28.4304735,19.1779731 L28.4397399,19.1791314 C28.5306665,19.1895561 28.6076934,19.1872395 28.6696625,19.1716025 C28.7825967,19.1438033 28.8822105,19.0592474 28.9673456,18.9190931 L28.9673456,18.9190931 Z M28.1426359,19.1380118 C28.0899333,19.0302899 28.0291225,18.9665834 27.9602037,18.9468923 C27.9265375,18.9370325 27.8925404,18.92834 27.8582733,18.9208305 L27.8797018,18.9868536 C27.943739,19.0702219 28.0383681,19.1246233 28.1426359,19.1380118 L28.1426359,19.1380118 Z M23.150363,27.3103974 C22.9587717,26.9019174 22.7405409,26.506471 22.4970818,26.1266148 C22.2504639,25.7607594 22.0081693,25.3920083 21.7702485,25.0204383 C21.7737234,25.9673486 21.8165805,26.8992009 21.9005572,27.8165745 C22.0505571,27.7279646 22.4669659,27.5594319 23.1497838,27.3103974 L23.150363,27.3103974 Z" id="Shape" fill="#FFFFFF"></path>
                    <g id="Group" transform="translate(28.229508, 0.081081)" fill="#37A7EF">
                        <ellipse id="Oval" cx="3.961386" cy="3.44767995" rx="1" ry="1"></ellipse>
                        <path d="M3.961386,2.2517352 C3.07470735,2.2517352 2.22219855,2.3791482 1.5903459,2.59980435 C0.9104238,2.837835 0.5061771,3.185325 0.5061771,3.44767995 C0.5061771,3.72567195 0.94691025,4.1050152 1.6598439,4.3494165 C2.24999775,4.552119 3.0590703,4.65810345 3.961386,4.65810345 C4.82026545,4.65810345 5.62065075,4.54922325 6.21833355,4.35115395 C6.96196215,4.1038569 7.41717405,3.7274094 7.41717405,3.44767995 C7.41717405,3.1864833 6.996132,2.83378095 6.301152,2.5934337 C5.6698785,2.3756733 4.83763995,2.2517352 3.961386,2.2517352 Z M3.961386,1.86775875 C4.87818045,1.86775875 5.7521178,1.9980675 6.4262484,2.2308858 C7.2602244,2.51872335 7.80057135,2.9721978 7.80057135,3.44767995 C7.80057135,3.9440115 7.2231588,4.42065195 6.33879675,4.71486015 C5.69941515,4.92798735 4.8590685,5.04150075 3.961386,5.04150075 C3.02026725,5.04150075 2.17007505,4.9297248 1.5347475,4.7119644 C0.68513445,4.42065195 0.1227798,3.9370617 0.1227798,3.44767995 C0.1227798,2.9733561 0.64691055,2.52335655 1.4640912,2.23725645 C2.1393801,2.0015424 3.03416685,1.86775875 3.96196515,1.86775875 L3.961386,1.86775875 Z" id="Shape"></path>
                        <path d="M2.03918715,5.08899105 C1.90482435,5.7984498 2.0027007,6.324318 2.2297275,6.45578505 C2.46891645,6.59362275 3.0162132,6.40018665 3.58320105,5.9026968 C4.05231255,5.4915003 4.5486441,4.8405357 4.99980195,4.05578745 C5.42837295,3.3092631 5.73532245,2.55926385 5.8621563,1.94073165 C6.02026425,1.17046215 5.92296705,0.58667895 5.68204065,0.4471038 C5.45617215,0.31679505 4.94188695,0.50675625 4.3876404,0.9903465 C3.8837799,1.4305005 3.3613866,2.0918898 2.9235492,2.85347205 C2.48049945,3.6243207 2.16428355,4.42876005 2.03918715,5.08899105 L2.03918715,5.08899105 Z M4.13571015,0.70135065 C4.80057435,0.1216215 5.4613845,-0.12335895 5.8737393,0.11583 C6.3023103,0.3637062 6.42566925,1.1038599 6.23802465,2.0189169 C6.1019244,2.68088535 5.78049615,3.4679502 5.33223405,4.24806525 C4.86196425,5.06582505 4.3413084,5.7486429 3.83571045,6.19169265 C3.1586841,6.78590055 2.46080835,7.0331976 2.0374497,6.78821715 C1.6274115,6.55076565 1.5011568,5.87084355 1.6621605,5.01833475 C1.795365,4.3135092 2.12721795,3.4691085 2.59053795,2.6629317 C3.0486456,1.86660045 3.5976798,1.17162045 4.13571015,0.7019298 L4.13571015,0.70135065 Z" id="Shape"></path>
                        <path d="M4.413123,5.942079 C4.9586823,6.4135071 5.46080535,6.590727 5.687253,6.45925995 C5.9258628,6.32026395 6.0324264,5.74690545 5.88590145,5.00559345 C5.76427995,4.39169445 5.4509598,3.63532455 4.99864365,2.8517346 C4.5683352,2.1057894 4.0737411,1.4652495 3.60289215,1.0459449 C3.0173715,0.52413075 2.4648624,0.3173742 2.22451515,0.45694935 C1.99864665,0.58783725 1.90598265,1.1305008 2.04729525,1.8544383 C2.1752874,2.5123527 2.4857118,3.2965218 2.9247075,4.0575249 C3.36891555,4.8277944 3.9057876,5.50482075 4.413123,5.94265815 L4.413123,5.942079 Z M2.5922754,4.25038185 C2.13300945,3.4540506 1.806948,2.629341 1.6702686,1.9274112 C1.5011568,1.0598445 1.62162,0.36428535 2.0316582,0.12567555 C2.4602292,-0.12335895 3.16157985,0.13957515 3.8582973,0.7598448 C4.3621578,1.20868605 4.88165535,1.88165835 5.33107575,2.6606151 C5.80250385,3.47779575 6.1320402,4.2718104 6.26234895,4.9320414 C6.4366731,5.81640345 6.30173115,6.54613245 5.8795308,6.79169205 C5.4694926,7.0297227 4.818528,6.79980015 4.16235105,6.23339145 C3.62026665,5.76543825 3.0567537,5.0559795 2.5922754,4.25038185 Z" id="Shape"></path>
                    </g>
                </g>
            </g>
        </g>
    </g>
</svg>