<svg width="609" height="94" viewBox="0 0 609 94" fill="none" xmlns="http://www.w3.org/2000/svg">
<path d="M118.767 0L96.9433 21.747C88.5899 8.95827 74.164 0.52514 57.827 0.52514C45.3739 0.52514 33.6606 5.43674 24.9064 14.395C16.1831 23.2915 11.3744 35.0917 11.3744 47.6333C11.3744 50.8459 11.6827 53.9967 12.33 57.0549C10.7271 58.6921 7.92206 61.6885 5.36362 65.1173C-0.215614 72.6546 -1.4486 78.3076 1.6955 81.8909C2.15787 82.4469 3.60662 83.9297 6.41166 84.1768C6.65825 84.2077 6.87402 84.2077 7.12062 84.2077C11.621 84.2077 17.2003 80.9024 23.6426 74.3536L74.8421 23.4768L71.2665 19.8626L22.2555 68.5771C18.4024 62.1827 16.4297 55.1706 16.4297 47.6642C16.4297 36.4509 20.7143 25.9172 28.5129 17.9783C36.3115 10.0085 46.7302 5.62208 57.827 5.62208C72.7769 5.62208 85.9081 13.5301 93.2444 25.392L54.2822 64.2215C51.7546 66.7545 48.5796 69.8745 46.2678 73.3651C42.0757 79.6359 43.0004 84.3004 43.9251 86.4936L43.956 86.5554C45.0348 88.9957 46.8843 90.9418 49.3194 92.2392C52.0936 93.6911 54.8987 93.9073 57.7345 94H57.7962H57.8578C70.3726 93.9691 82.1167 89.1502 90.9017 80.3773C99.7483 71.6043 104.619 59.8659 104.619 47.3861C104.619 39.7871 102.8 32.6204 99.5942 26.2879L122.343 3.6142L118.767 0ZM7.12062 79.1416H7.0898C6.22671 79.1416 5.79517 78.8327 5.67187 78.7401L5.54857 78.5856C4.56218 77.4735 5.05538 74.1683 9.43246 68.2064C10.9121 66.1676 12.5766 64.2833 13.9329 62.7696C15.1042 66.044 16.6454 69.1949 18.5565 72.2222C12.33 78.184 8.75432 79.1416 7.12062 79.1416ZM87.326 76.794C79.4966 84.5784 69.0163 88.9031 57.8886 88.9339C55.0836 88.8413 53.3574 88.625 51.6929 87.7292C50.275 86.9878 49.2578 85.9067 48.6105 84.5166C47.3775 81.4275 49.5352 77.6589 50.5216 76.1761C52.556 73.118 55.5151 70.1834 57.8886 67.8357L95.8028 30.0874C98.2071 35.3697 99.5634 41.2389 99.5634 47.417C99.5017 58.5376 95.1863 68.9786 87.326 76.794Z" fill="black"/>
<path d="M170.213 24.7744C162.938 24.7744 156.743 28.0488 152.859 33.3002V25.6702H148.019V83.0649H153.352V60.9782C157.267 65.8589 163.247 68.8861 170.244 68.8861C182.82 68.8861 191.883 59.4027 191.883 46.8303C191.821 34.196 182.759 24.7744 170.213 24.7744ZM169.812 63.7274C160.226 63.7274 153.105 56.4372 153.105 46.8303C153.105 37.1924 160.257 29.9331 169.812 29.9331C179.43 29.9331 186.458 37.0997 186.458 46.8303C186.458 56.5608 179.43 63.7274 169.812 63.7274Z" fill="black"/>
<path d="M207.295 11.0896H201.962V68.4843H207.295V11.0896Z" fill="black"/>
<path d="M256.46 33.2384C252.638 28.0179 246.565 24.7744 239.167 24.7744C226.838 24.7744 217.559 34.1342 217.559 46.6758C217.559 59.1556 226.838 68.5772 239.167 68.5772C246.504 68.5772 252.638 65.3337 256.46 60.175V68.4537H261.454V25.6393H256.46V33.2384ZM239.568 63.4494C230.074 63.4494 222.985 56.2519 222.985 46.6758C222.985 37.1306 230.074 29.9022 239.568 29.9022C249.124 29.9022 256.09 37.0071 256.09 46.6758C256.09 56.3446 249.124 63.4494 239.568 63.4494Z" fill="black"/>
<path d="M291.97 25.0215C284.171 25.0215 279.917 27.4927 276.835 31.6012V25.6702H271.502V68.5154H276.835V46.1815C276.835 36.7908 283.216 30.4273 290.891 30.4273C298.782 30.4273 305.81 34.0415 305.81 43.9574V68.5154H311.143V42.7526C311.143 32.3116 302.049 25.0215 291.97 25.0215Z" fill="black"/>
<path d="M382.502 54.1512V29.7476H397.482V24.8978H382.502V16.6191H381.608L368.661 28.6665V29.7167H377.169V54.3056C377.169 63.1094 382.502 68.4844 391.194 68.4844H397.729V63.5419H391.841C385.831 63.5728 382.502 60.1748 382.502 54.1512Z" fill="black"/>
<path d="M423.375 43.4941C417.333 42.5056 412.062 41.6406 412.062 36.5437C412.062 32.3426 416.1 29.5624 422.419 29.5624C428.892 29.5624 432.838 32.4353 433.146 37.4704H438.201C437.893 29.686 431.913 24.7744 422.543 24.7744C413.203 24.7744 406.915 29.5933 406.915 36.729C406.915 45.8727 414.806 47.2936 422.049 48.5601C428.153 49.6104 433.917 50.6916 433.917 56.3754C433.917 61.0708 429.386 63.9436 422.882 63.9436C416.316 63.9436 411.754 60.9473 411.292 55.4796H406.082C406.545 63.7274 412.864 68.8861 422.697 68.8861C432.591 68.8861 439.157 63.851 439.157 56.1283C439.219 46.0889 430.711 44.6679 423.375 43.4941Z" fill="black"/>
<path d="M532.093 33.3002C528.24 28.0488 521.859 24.7744 514.431 24.7744C502.008 24.7744 492.668 34.196 492.668 46.8303C492.668 59.4027 502.008 68.8861 514.431 68.8861C521.828 68.8861 528.24 65.6426 532.093 60.4221V68.5154H536.871V24.898H532.093V33.3002ZM514.831 63.7274C505.245 63.7274 498.124 56.4681 498.124 46.8303C498.124 37.2233 505.276 29.9331 514.831 29.9331C524.448 29.9331 531.476 37.0997 531.476 46.8303C531.446 56.5608 524.448 63.7274 514.831 63.7274Z" fill="black"/>
<path d="M554.749 11.0896H549.416V68.4843H554.749V11.0896Z" fill="black"/>
<path d="M481.479 58.2907C478.458 61.7813 474.143 63.7274 469.18 63.7274C459.84 63.7274 452.751 56.3754 452.751 46.8303C452.751 37.2542 459.779 29.9331 469.18 29.9331C473.835 29.9331 477.965 31.663 480.924 34.6594L485.486 32.0337C481.664 27.4928 475.931 24.7744 469.18 24.7744C456.727 24.7744 447.326 34.2269 447.326 46.8303C447.326 59.4027 456.758 68.8861 469.18 68.8861C476.146 68.8861 482.157 65.9206 486.01 60.9164L481.479 58.2907Z" fill="black"/>
<path d="M355.191 57.6419C352.201 61.4414 347.762 63.6346 342.399 63.6346C333.614 63.6346 327.141 57.611 326.278 48.8072H363.421C363.483 48.1585 363.545 47.4789 363.545 46.8302C363.545 34.5048 355.037 24.7434 342.43 24.7434C330.254 24.7434 321.007 34.2268 321.007 46.7993C321.007 59.4026 330.254 68.886 342.43 68.886C350.598 68.886 357.287 64.8394 361.233 57.6728H355.191V57.6419ZM342.399 29.7786C350.66 29.7786 357.041 35.2771 358.243 43.8338H326.401C327.603 35.4624 333.922 29.7786 342.399 29.7786Z" fill="black"/>
<path d="M600.647 57.6419C597.657 61.4414 593.218 63.6346 587.855 63.6346C579.07 63.6346 572.596 57.611 571.733 48.8072H608.877C608.939 48.1585 609 47.4789 609 46.8302C609 34.5048 600.493 24.7434 587.885 24.7434C575.71 24.7434 566.462 34.2268 566.462 46.7993C566.462 59.4026 575.71 68.886 587.885 68.886C596.054 68.886 602.743 64.8394 606.688 57.6728H600.647V57.6419ZM587.855 29.7786C596.115 29.7786 602.496 35.2771 603.698 43.8338H571.857C573.059 35.4624 579.378 29.7786 587.855 29.7786Z" fill="black"/>
</svg>
