<?xml version="1.0" encoding="UTF-8"?>
<svg width="183px" height="66px" viewBox="0 0 183 66" version="1.1" xmlns="http://www.w3.org/2000/svg" xmlns:xlink="http://www.w3.org/1999/xlink">
    <!-- Generator: Sketch 61.2 (89653) - https://sketch.com -->
    <title>sponsor-auth0</title>
    <desc>Created with Sketch.</desc>
    <g id="Home" stroke="none" stroke-width="1" fill="none" fill-rule="evenodd">
        <g id="Home-5.1-NEW-SPONSOR-SECTION-Annotated" transform="translate(-469.000000, -891.000000)" fill-rule="nonzero">
            <g id="sponsor-auth0" transform="translate(469.000000, 891.000000)">
                <path d="M171.764006,17.2407086 C168.570783,17.2407086 165.870102,18.7283108 163.953694,21.5420914 C162.04875,24.3390652 161.041924,28.2433372 161.041924,32.832 C161.041924,37.4206628 162.04875,41.3249348 163.953694,44.1215177 C165.870102,46.9356892 168.570783,48.4229006 171.764006,48.4229006 C174.957229,48.4229006 177.65791,46.9356892 179.574318,44.1215177 C181.478867,41.3249348 182.485692,37.4206628 182.485692,32.832 C182.485692,28.2433372 181.478867,24.3390652 179.574318,21.5420914 C177.65791,18.7283108 174.957229,17.2407086 171.764006,17.2407086 L171.764006,17.2407086 L171.764006,17.2407086 Z M171.764006,44.5596686 C170.237362,44.5596686 169.031306,43.7056457 168.075869,41.948352 C166.921992,39.8256068 166.286351,36.5881372 166.286351,32.832 C166.286351,29.0758628 166.921992,25.8380023 168.075869,23.715648 C169.031306,21.9583543 170.237362,21.1039406 171.764006,21.1039406 C173.290254,21.1039406 174.496706,21.9583543 175.452143,23.715648 C176.60602,25.8380023 177.241265,29.075472 177.241265,32.832 C177.241265,36.588528 176.60602,39.8263886 175.452143,41.948352 C174.496706,43.7056457 173.290254,44.5596686 171.764006,44.5596686 L171.764006,44.5596686 L171.764006,44.5596686 Z M102.560248,28.5997988 L102.560248,42.0108892 C102.560248,45.5465828 105.469647,48.4229006 109.045519,48.4229006 C112.164425,48.4229006 114.520801,46.8930857 115.388481,46.2348823 C115.436708,46.1981417 115.499955,46.1871977 115.558065,46.205568 C115.616174,46.2239383 115.661238,46.2692777 115.679026,46.3271246 L116.202402,48.0207086 L120.066842,48.0207086 L120.066842,28.5997988 L115.101099,28.5997988 L115.101099,43.1217052 C115.101099,43.1901052 115.061965,43.2530332 115.000694,43.2846926 C114.066998,43.7607566 112.224906,44.5600594 110.379652,44.5600594 C108.806758,44.5600594 107.52599,43.294464 107.52599,41.7384617 L107.52599,28.5997988 L102.560248,28.5997988 L102.560248,28.5997988 L102.560248,28.5997988 Z M152.283686,48.0203177 L157.249824,48.0203177 L157.249824,34.6092274 C157.249824,31.0735337 154.340425,28.1968252 150.764553,28.1968252 C148.132259,28.1968252 146.020573,29.3158492 144.996354,29.9826514 C144.939036,30.0197828 144.866301,30.0229097 144.806611,29.9908594 C144.746921,29.9588092 144.708972,29.8970537 144.708972,29.8294354 L144.708972,17.6436823 L139.74323,17.6436823 L139.74323,48.0203177 L144.708972,48.0203177 L144.708972,33.4980206 C144.708972,33.4296206 144.748107,33.3666926 144.809773,33.335424 C145.743074,32.8589692 147.585561,32.0600572 149.43042,32.0600572 C150.192556,32.0600572 150.909232,32.3535908 151.448024,32.8863292 C151.986816,33.4190674 152.283291,34.1280823 152.283291,34.881264 L152.283291,48.0203177 L152.283686,48.0203177 L152.283686,48.0203177 Z M123.646272,32.46264 L126.668725,32.46264 C126.771108,32.46264 126.85412,32.54472 126.85412,32.645952 L126.85412,43.3296412 C126.85412,46.1379497 129.165037,48.4225097 132.005258,48.4225097 C133.035011,48.4225097 134.050929,48.2755474 135.028107,47.9855314 L135.028107,44.4779794 C134.458086,44.5276183 133.802681,44.5596686 133.339391,44.5596686 C132.501358,44.5596686 131.819862,43.88544 131.819862,43.0572137 L131.819862,32.6455612 C131.819862,32.5443292 131.902875,32.4622492 132.005258,32.4622492 L135.028107,32.4622492 L135.028107,28.599408 L132.005258,28.599408 C131.902875,28.599408 131.819862,28.517328 131.819862,28.416096 L131.819862,22.0033028 L126.85412,22.0033028 L126.85412,28.416096 C126.85412,28.517328 126.771108,28.599408 126.668725,28.599408 L123.646272,28.599408 L123.646272,32.46264 L123.646272,32.46264 L123.646272,32.46264 Z M94.6190921,48.0203177 L99.7848557,48.0203177 L91.9286896,20.9304 C91.2989787,18.758016 89.2627948,17.2407086 86.977178,17.2407086 C84.6915606,17.2407086 82.6553774,18.758016 82.0252711,20.9304 L74.169105,48.0203177 L79.3352633,48.0203177 L81.6090215,40.1793326 C81.6319492,40.1007703 81.7046837,40.046832 81.7873014,40.046832 L92.1670547,40.046832 C92.2496723,40.046832 92.3228022,40.1007703 92.3453345,40.1793326 L94.6190921,48.0203177 L94.6190921,48.0203177 L94.6190921,48.0203177 Z M90.9408383,36.1839908 L83.0143084,36.1839908 C82.9561999,36.1839908 82.9012528,36.1570217 82.8660713,36.1105097 C82.8312851,36.0651703 82.8202166,36.0053692 82.8360286,35.9502583 L86.7992936,22.2835474 C86.8222206,22.2049852 86.8949558,22.1510468 86.9775734,22.1510468 C87.060191,22.1510468 87.1329255,22.2049852 87.1554578,22.2835474 L91.1191175,35.9502583 C91.1349295,36.00576 91.123861,36.0651703 91.0886795,36.1105097 C91.0538933,36.1570217 90.9989469,36.1839908 90.9408383,36.1839908 L90.9408383,36.1839908 L90.9408383,36.1839908 Z" id="Shape" fill="#333333"></path>
                <path d="M47.2599362,53.1022423 L40.5991531,32.8308274 L58.0349882,20.3058103 L36.4825124,20.3058103 L29.8213341,0.0351771428 L29.8193575,0.0297051428 L51.3749957,0.0297051428 L58.0377553,20.303856 L58.0381506,20.3034652 L58.0436848,20.3003383 C61.9128685,32.0620114 57.9278623,45.439488 47.2599362,53.1022423 L47.2599362,53.1022423 L47.2599362,53.1022423 Z M12.3811506,53.1022423 L12.3756164,53.1061508 L29.8157998,65.6342948 L47.2599362,53.1026332 L29.8213341,40.5740983 L12.3811506,53.1022423 L12.3811506,53.1022423 L12.3811506,53.1022423 Z M1.60175034,20.3007292 L1.60175034,20.3007292 C-2.47140748,32.6991086 2.25676028,45.8365988 12.3775929,53.1045874 L12.3791741,53.0983337 L19.0407478,32.8280914 L1.60886572,20.3054194 L23.1562026,20.3054194 L29.8177764,0.0347862857 L29.8193575,0.0293142857 L8.26253347,0.0293142857 L1.60175034,20.3007292 L1.60175034,20.3007292 L1.60175034,20.3007292 Z" id="Shape" fill="#EB5424"></path>
            </g>
        </g>
    </g>
</svg>