<?xml version="1.0" encoding="UTF-8"?>
<svg width="81px" height="24px" viewBox="0 0 81 24" version="1.1" xmlns="http://www.w3.org/2000/svg" xmlns:xlink="http://www.w3.org/1999/xlink">
    <!-- Generator: Sketch 61.2 (89653) - https://sketch.com -->
    <title>Group</title>
    <desc>Created with Sketch.</desc>
    <g id="Page-1" stroke="none" stroke-width="1" fill="none" fill-rule="evenodd">
        <g id="Group" fill="#000000" fill-rule="nonzero">
            <path d="M18.5334,0 L10.7619,0 L13.1617,7.51092 L20.9333,7.51092 L14.6477,11.984 L17.0475,19.5348 C21.0922,16.5767 22.4192,12.0956 20.9333,7.50295 L18.5334,0 Z M0.590492,7.51092 L8.36206,7.51092 L10.7619,0 L2.9903,0 L0.590492,7.51092 C-0.895483,12.1036 0.431564,16.5846 4.47628,19.5428 L6.87609,11.992 L0.590492,7.51092 Z M4.47628,19.5348 L10.7619,23.9999 L17.0475,19.5348 L10.7619,14.99 L4.47628,19.5348 Z M63.1286,7.31956 C61.293,7.31956 60.1169,8.15677 59.5686,9.52022 L59.4256,9.52022 L59.4256,3.34085 L56.6682,3.34085 L56.6682,19.5029 L59.4891,19.5029 L59.4891,12.4863 C59.4891,10.7481 60.5619,9.75145 62.0797,9.75145 C63.5577,9.75145 64.4318,10.7003 64.4318,12.3189 L64.4318,19.5029 L67.2527,19.5029 L67.2527,11.8484 C67.2448,8.93816 65.6078,7.31956 63.1286,7.31956 Z M74.8733,3.30895 C71.0591,3.30895 68.7546,6.30694 68.7467,11.5136 C68.7467,16.7361 71.0352,19.7740158 74.8733,19.7740158 C78.7035,19.782 81,16.7441 81,11.5136 C80.9921,6.31492 78.6876,3.30895 74.8733,3.30895 Z M71.663,11.5136 C71.6709,7.71026 72.9026,5.70894 74.8733,5.70894 C76.2242,5.70894 77.2255,6.63385 77.7261,8.42786 L71.7107,12.8132 C71.6789,12.4146 71.663,11.976 71.663,11.5136 Z M74.8733,17.3421 C73.4827,17.3421 72.4576,16.3534 71.9729,14.4398 L78.0201,10.0305 C78.0678,10.493 78.0916,10.9873 78.0916,11.5215 C78.0916,15.3488 76.8599,17.3421 74.8733,17.3421 Z M43.9698,14.4557 C43.9698,16.2816 42.6666,17.1906 41.419,17.1906 C40.0602,17.1906 39.1623,16.2258 39.1623,14.7029 L39.1623,7.49498 L36.3413,7.49498 L36.3413,15.1415 C36.3413,18.0278 37.9783,19.6624 40.3304,19.6624 C42.1263,19.6624 43.3818,18.7135 43.9301,17.374 L44.0572,17.374 L44.0572,19.5109 L46.7908,19.5109 L46.7908,7.49498 L43.9698,7.49498 L43.9698,14.4557 Z M29.9603,7.31159 C27.4413,7.31159 25.5104,8.43584 24.8906,10.6285 L27.5208,11.0033 C27.7989,10.182 28.5936,9.48035 29.9762,9.48035 C31.2874,9.48035 32.0026,10.1501 32.0026,11.3302 L32.0026,11.378 C32.0026,12.1913 31.1523,12.2312 29.0386,12.4544 C26.7182,12.7016 24.4932,13.4033 24.4932,16.1062 C24.4932,18.4664 26.2176,19.7182 28.4982,19.7182 C30.3736,19.7182 31.494,18.8331 32.0105,17.8285 L32.1059,17.8285 L32.1059,19.479 L34.8156181,19.479 L34.8156181,11.4418 C34.8235,8.2684 32.2489,7.31159 29.9603,7.31159 Z M32.0105,15.1654 C32.0105,16.5049 30.9378,17.6371 29.2372,17.6371 C28.0612,17.6371 27.2188,17.0949 27.2188,16.0584 C27.2188,14.974 28.1645,14.5195 29.42,14.3361 C30.159,14.2325 31.637,14.0491 32.0105,13.7461 L32.0105,15.1654 Z M52.8142,4.48901 L49.9932,4.48901 L49.9932,7.49498 L48.2847,7.49498 L48.2847,9.75145 L49.9932,9.75145 L49.9932,16.4012 C49.9773,18.6577 51.6143,19.774 53.7359,19.7102 C54.3717,19.6943 54.8484,19.5906 55.1742,19.4949 L55.1742,17.2544 C54.9597,17.2863 54.4591,17.3501 54.1015,17.3581 C53.3942,17.374 52.8221,17.1109 52.8221,15.9627 L52.8221,9.75145 L55.1742,9.75145 L55.1742,7.50295 L52.8142,7.50295 L52.8142,4.48901 Z" id="Shape"></path>
        </g>
    </g>
</svg>