<svg width="443" height="313" xmlns="http://www.w3.org/2000/svg" xmlns:xlink="http://www.w3.org/1999/xlink"><defs><path id="a" d="M.047.157H92.87v28.8H.047z"/><path id="c" d="M.161.03h18.765V72.1H.161z"/><path id="e" d="M.066.056h62.892v77.943H.066z"/><path id="g" d="M0 .176h86.408V23.82H0z"/></defs><g fill="none" fill-rule="evenodd"><path d="M235.627 12.618l-.338.427c-.196.33-.294.685-.295 1.067-.062.7-.11 1.4-.156 2.103-.036.526-.089 1.055-.105 1.582l-.108 3.488c-.036 1.163-.001 2.333-.002 3.497 0 1.143.064 2.29.097 3.433.028.99.094 1.98.147 2.968.051.95.095 1.9.16 2.847.167 2.475.338 4.947.522 7.421.318 4.28.651 8.56.971 12.841.266 3.56.548 7.12.852 10.677a48.254 48.254 0 0 0-1.579-2.385c-.685-.971-1.448-1.9-2.203-2.82-.42-.51-.842-1.021-1.26-1.534-.497-.785-1.016-1.557-1.631-2.25a2.17 2.17 0 0 0-.954-.543 2.22 2.22 0 0 0-1.664.212c-.806.462-1.29 1.49-.992 2.385.12.363.267.714.492 1.025.1.137.204.272.306.407a43.337 43.337 0 0 0 .712.913c.098.155.195.31.294.464.288.45.57.902.855 1.354.609.965 1.227 1.925 1.843 2.887 1.245 1.94 2.551 3.844 4.06 5.601l.25.29.198.34c.224.38.45.76.698 1.125.782 1.157 1.64 2.622 3.266 2.558.39 0 .754-.097 1.09-.288.41-.234.77-.626.935-1.072.248-.235.46-.511.645-.797.334-.515.606-1.076.9-1.613.54-.982 1.115-1.94 1.722-2.882.59-.915 1.25-1.784 1.91-2.65.13-.171.263-.34.396-.51a314.07 314.07 0 0 0 4.042-5.13c.33-.428.357-1.134.218-1.627a2.134 2.134 0 0 0-.993-1.262 2.22 2.22 0 0 0-1.664-.213c-.172.071-.343.143-.515.213a2.15 2.15 0 0 0-.776.757c-.7.911-1.41 1.815-2.12 2.72-1.272 1.59-2.58 3.162-3.732 4.84a57.47 57.47 0 0 0-.342.504c-.19-2.207-.369-4.415-.548-6.622-.359-4.392-.67-8.788-1.003-13.182-.168-2.22-.338-4.438-.503-6.658-.149-2.018-.306-4.038-.416-6.059l-.22-4.093c-.053-.993-.074-1.987-.103-2.98a106.29 106.29 0 0 1-.004-6.32c.027-.85.032-1.702.089-2.55.075-1.138.143-2.277.243-3.412.047-.534-.258-1.127-.633-1.494a2.194 2.194 0 0 0-3.054 0m78.549 53.975a2.658 2.658 0 0 1-.005.04l.005-.04m.04-.301l-.02.15v-.002l.02-.148m46.633-51.004c-.663.414-1.3.889-1.897 1.391-.579.486-1.08 1.088-1.565 1.663-1.031 1.219-1.96 2.522-2.912 3.802-.558.75-1.093 1.516-1.633 2.278l-4.5 6.347c-1.335 1.882-2.7 3.743-4.05 5.615a294.32 294.32 0 0 1-3.145 4.283 2726.533 2726.533 0 0 1-8.922 11.841c-2.396 3.164-4.792 6.332-7.108 9.555-1.31 1.822-2.624 3.641-3.911 5.48-1.4 2-2.802 3.999-4.209 5.994l-.19.27.023-.157c.2-.739.406-1.476.602-2.216.129-.484.24-.97.35-1.459.07-.303.14-.607.208-.91.149-.655.232-1.323.313-1.99a4.47 4.47 0 0 0 .069-.74 4.954 4.954 0 0 0-.104-.693c-.086-.419-.368-.714-.626-1.03-.335-.407-.975-.613-1.482-.613a2.094 2.094 0 0 0-1.809 1.036c-.2.422-.372.846-.487 1.299-.032.124-.057.25-.086.374-.06.266-.115.532-.17.799-.1.487-.2.975-.279 1.466a157.4 157.4 0 0 0-.475 3.129l-.066.456a119.848 119.848 0 0 0-1.127 4.5 42.362 42.362 0 0 0-.472 2.343c-.097.553-.208 1.128-.186 1.69.016.241.053.48.11.712.026.113.066.224.115.332a27.85 27.85 0 0 0-.092.763c-.055.522.256 1.121.614 1.478l.424.327c.327.189.679.284 1.057.285.654.081 1.231-.27 1.694-.685.056-.05.104-.101.147-.154l.214.014c.615.037 1.231.01 1.844-.054a16.84 16.84 0 0 0 2.3-.396 78.865 78.865 0 0 0 2.898-.774c.835-.241 1.662-.511 2.492-.77.432-.136.868-.267 1.297-.413a25.494 25.494 0 0 0 1.945-.761l.424-.327a2.084 2.084 0 0 0 .328-2.534 2.104 2.104 0 0 0-1.252-.96l-.557-.075a2.08 2.08 0 0 0-1.04.276c-1.26.49-2.567.86-3.858 1.26-.712.22-1.426.427-2.141.634-.395.115-.8.2-1.198.3-.33.083-.662.16-.995.23.233-.36.47-.718.713-1.072a621.43 621.43 0 0 1 4.067-5.829c1.125-1.597 2.22-3.214 3.36-4.8l2.27-3.157c.57-.793 1.126-1.598 1.71-2.38 2.716-3.638 5.44-7.27 8.18-10.888 2.726-3.6 5.434-7.215 8.14-10.83.405-.542.793-1.097 1.19-1.646.925-1.284 1.85-2.568 2.777-3.85a688.836 688.836 0 0 0 3.02-4.217c2.16-3.046 4.274-6.131 6.548-9.094.7-.896 1.439-1.795 2.312-2.52.294-.216.594-.424.903-.618.467-.291.815-.714.963-1.249a2.1 2.1 0 0 0-.212-1.611c-.38-.648-1.11-1.038-1.842-1.038-.354 0-.708.091-1.023.288m68.549 92.772a892.305 892.305 0 0 1-8.97 2.146c-3.023.701-6.045 1.403-9.068 2.103-1.541.358-3.079.748-4.627 1.07l-7.258 1.51c-2.137.446-4.276.888-6.413 1.335-.835.175-1.676.323-2.515.484l-4.602.886c-3.957.762-7.912 1.558-11.835 2.48l-1.885.442a9.89 9.89 0 0 0-.516.141l.07-.051c.114-.085.23-.168.348-.248.433-.292.533-.423.845-.835.262-.347.326-.751.356-1.174.052-.732-.422-1.473-1.032-1.831a2.072 2.072 0 0 0-2.088 0c-.384.228-.724.532-1.068.818l-.415.347-.077.053c-.421.293-.849.575-1.276.86-.922.614-1.859 1.21-2.785 1.818-.666.437-1.325.883-1.98 1.335-.16.09-.318.182-.477.272-.883.503-1.778.985-2.67 1.472-.503.275-1.015.536-1.522.803-.592.311-1.223.588-1.778.964l-.129.09c-.457.327-.8.69-.955 1.25a2.102 2.102 0 0 0 .535 2.043c.08.09.166.17.259.242.126.28.308.535.534.75.66.625 1.601.851 2.46 1.04.526.115 1.054.216 1.582.32 2.17.42 4.332.878 6.5 1.308 1.215.24 2.43.472 3.647.703.603.116 1.207.225 1.812.328.277.048.555.09.832.132.17.026.344.048.514.081.347.294.854.448 1.284.453a2.08 2.08 0 0 0 1.492-.616c.38-.385.6-.913.605-1.455l-.068-.557a2.09 2.09 0 0 0-.541-.949c-.403-.476-1.014-.768-1.61-.9-.227-.049-.462-.075-.693-.11a64.507 64.507 0 0 1-1.548-.261c-1.02-.184-2.036-.382-3.053-.58-1.793-.348-3.582-.715-5.372-1.077 2.018-.624 4.016-1.332 6.017-2.01.97-.328 1.958-.602 2.937-.899.51-.154 1.044-.248 1.562-.37.351-.082.703-.162 1.055-.241 1.127-.252 2.253-.526 3.386-.758l3.532-.723a515.34 515.34 0 0 1 5.931-1.172c1.941-.374 3.889-.724 5.824-1.127l7.874-1.639 4.105-.854c.494-.103.992-.195 1.484-.309l14.808-3.434c2.57-.597 5.132-1.228 7.696-1.851 1.1-.266 1.76-1.474 1.476-2.558a2.084 2.084 0 0 0-2.03-1.55c-.167 0-.337.02-.506.06" fill="#000"/><g transform="translate(350 163)"><mask id="b" fill="#fff"><use xlink:href="#a"/></mask><path d="M26.716.245c-.163.02-.327.046-.49.072-.284.045-.57.09-.85.147-.558.113-1.112.232-1.666.361-.99.23-1.977.507-2.943.815-2.203.702-4.38 1.47-6.506 2.378-.757.323-1.515.647-2.271.973-.892.243-1.783.491-2.661.774-.672.217-1.351.424-2.008.686-.817.326-1.63.663-2.443.999l.185-.075a327.564 327.564 0 0 0-.998.408 3.38 3.38 0 0 0-.777.47c-.244.069-.49.134-.736.195a7.176 7.176 0 0 1-.529.107c-.515.089-.979.258-1.367.638a2.07 2.07 0 0 0-.541 1.992c.242.908 1.068 1.51 2.003 1.542.373.014.749.007 1.124-.003.234.266.494.512.758.74 1.075.924 2.335 1.656 3.526 2.426.816.529 1.626 1.067 2.44 1.6.704.463 1.382.97 2.07 1.457.938.724 1.872 1.45 2.764 2.23 1.067.933 2.139 1.89 3.035 2.989.323.396.963.6 1.457.605a2.124 2.124 0 0 0 1.507-.61c.383-.38.606-.903.612-1.44l-.07-.551a2.054 2.054 0 0 0-.547-.939c-.713-.875-1.545-1.641-2.373-2.408a24.48 24.48 0 0 0-1.026-.895c-.407-.337-.805-.688-1.225-1.01l-1.494-1.153c-.552-.424-1.127-.818-1.697-1.22a92.893 92.893 0 0 0-2.552-1.715l1.894.09c.276.012.552.046.828.07l2.218.202c.95.086 1.9.173 2.851.258.63.057 1.26.167 1.888.251 1.85.248 3.7.496 5.55.742 2.353.423 4.704.851 7.057 1.277l3.127.566c.5.09.994.217 1.49.328l8.8 1.96c1.246.277 2.494.549 3.734.848l16.427 3.97c3.713.896 7.437 1.745 11.16 2.607l6.293 1.457c2.154.499 4.315.964 6.475 1.435.561.123 1.108.086 1.615-.206.47-.27.82-.719.965-1.236.293-1.043-.344-2.307-1.46-2.55a654.42 654.42 0 0 1-8.239-1.844c-3.062-.71-6.125-1.418-9.188-2.127-3.508-.813-7.008-1.652-10.508-2.498l-9.254-2.236c-1.385-.334-2.768-.692-4.16-1.002l-7.376-1.643-4.163-.928c-.496-.11-.99-.237-1.49-.328l-7.84-1.418c-.81-.147-1.62-.295-2.431-.44-.446-.08-.906-.125-1.357-.185l-2.045-.273c-1.456-.194-2.911-.39-4.367-.583-.697-.094-1.394-.154-2.094-.218l-3.316-.3.535-.148c1.987-.55 3.985-1.059 5.972-1.61 1.317-.364 2.627-.741 3.938-1.128.501-.148.994-.312 1.49-.479l1.072-.36c.754-.254 1.515-.541 2.167-.998.462-.322.809-.682.966-1.236.137-.49.106-1.17-.209-1.596-.137-.187-.263-.385-.435-.541-.298-.272-.642-.49-1.049-.547L27.42.157c-.234.028-.469.057-.704.088" fill="#000" mask="url(#b)"/></g><path d="M319.052 226.018c-.797.1-1.55.616-1.86 1.36-.163.39-.16.732-.135 1.144.004.07.014.137.03.204a2.119 2.119 0 0 0-.052.257c-.056.261-.03.526-.026.792.004.42.172.87.28 1.264.097.364.224.723.341 1.082.153.47.307.94.456 1.412.344 1.097.689 2.19 1.008 3.295.26.894.507 1.788.747 2.686.158.646.314 1.293.462 1.942.154.682.292 1.382.297 2.083l.133.511c.142.346.362.633.66.863a2.107 2.107 0 0 0 2.933-.367c.092-.16.187-.319.28-.479a2.04 2.04 0 0 0 .14-1.046c-.003-.56-.097-1.11-.21-1.659-.1-.493-.208-.985-.328-1.474a87.835 87.835 0 0 0-.898-3.44c-.23-.793-.458-1.584-.696-2.373.588.492 1.165.996 1.745 1.5.387.337.744.715 1.114 1.07.33.32.661.638.992.956l2.34 2.522c.526.567 1.027 1.15 1.53 1.738 1.331 1.557 2.683 3.1 3.978 4.686 2.698 3.304 5.396 6.607 8.087 9.916 2.8 3.444 5.627 6.87 8.398 10.337 3.228 4.037 6.483 8.054 9.673 12.12l1.768 2.258c.698.89 2.003 1.1 2.927.418.9-.666 1.12-2.004.422-2.894-3.612-4.604-7.276-9.168-10.931-13.74-2.673-3.344-5.393-6.652-8.095-9.974-2.742-3.372-5.49-6.74-8.24-10.108a256.219 256.219 0 0 0-3.741-4.445l-1.383-1.618c-.168-.196-.331-.4-.508-.592l-2.653-2.858c-.34-.367-.693-.722-1.051-1.072.171.035.343.071.513.108.807.263 1.615.521 2.425.774 1.139.355 2.3.636 3.438.992.537.168 1.038.22 1.576.006a2.09 2.09 0 0 0 1.153-1.13c.421-1.01-.066-2.31-1.136-2.698-.786-.285-1.564-.578-2.355-.847-.723-.246-1.46-.437-2.197-.64a31.594 31.594 0 0 0-1.75-.422c-1.975-.658-3.92-1.392-5.815-2.253a290.79 290.79 0 0 1-3.285-1.519c-.678-.319-1.435-.666-2.203-.666-.1 0-.199.006-.298.018" fill="#000"/><g transform="translate(238 240)"><mask id="d" fill="#fff"><use xlink:href="#c"/></mask><path d="M8.621.087C8.027.224 7.55.57 7.145 1.02c-.717.797-1.212 1.763-1.724 2.703-.483.888-.944 1.789-1.407 2.69a260.678 260.678 0 0 1-1.591 3.053C1.873 10.5 1.354 11.539.917 12.63c-.222.556-.424 1.121-.664 1.67l-.09.552c-.012.376.07.73.243 1.061.25.475.68.839 1.185 1 .52.166 1.095.108 1.574-.157l.423-.312c.26-.251.445-.552.553-.902.321-.736.59-1.494.896-2.236.315-.656.66-1.295 1.001-1.937.4-.752.791-1.507 1.18-2.263l.03-.059c.184 2.17.433 4.336.666 6.502.204 1.918.4 3.837.595 5.757.348 4.195.545 8.398.756 12.603.23 4.56.463 9.12.739 13.678.128 2.141.263 4.282.39 6.423.13 2.191.22 4.382.272 6.576a75.466 75.466 0 0 1-.053 4.609c-.059 1.596-.246 3.17-.471 4.749-.075.516.214 1.129.547 1.493a2.02 2.02 0 0 0 1.419.66 2.018 2.018 0 0 0 1.458-.56c.11-.138.221-.275.333-.412.194-.319.298-.667.312-1.042.161-1.13.329-2.261.398-3.402.063-1.03.118-2.064.127-3.098.01-1.138.014-2.271-.013-3.41a144.836 144.836 0 0 0-.12-3.333c-.202-4.254-.51-8.502-.748-12.754-.25-4.476-.464-8.952-.696-13.43-.11-2.136-.21-4.273-.363-6.408-.176-2.453-.427-4.896-.674-7.342-.22-2.173-.457-4.345-.682-6.518.218.375.438.75.655 1.125.58 1.004 1.151 2.015 1.725 3.023.217.38.447.748.683 1.117.169.263.347.524.551.76.334.383.77.594 1.23.769.499.19 1.117.098 1.575-.157.599-.332 1.089-1.044 1.066-1.765-.008-.255-.042-.509-.069-.763l-.05-.155a8.954 8.954 0 0 0-.252-.656 60.436 60.436 0 0 0-.17-.397c-.092-.216-.194-.43-.297-.642a49.592 49.592 0 0 0-.8-1.556c-.509-.952-1.12-1.846-1.712-2.746a75.299 75.299 0 0 1-1.681-2.697c-.77-1.287-1.48-2.626-2.384-3.82-.215-.375-.435-.776-.737-1.079A2.349 2.349 0 0 0 9.111.031c-.162 0-.326.018-.49.056" fill="#000" mask="url(#d)"/></g><path d="M174.734 238.186c-.529.164-1.052.47-1.528.748-.445.262-.89.525-1.317.817a83.065 83.065 0 0 0-2.695 1.944c-.861.64-1.715 1.292-2.594 1.907-.919.644-1.848 1.276-2.77 1.916-.995.692-2.001 1.37-3.004 2.051-.956.65-1.107 2.047-.434 2.94.34.45.861.752 1.426.826.564.073 1.092-.084 1.553-.398 1.756-1.196 3.505-2.4 5.255-3.604a75.785 75.785 0 0 0 2.262-1.638c-.54 1.5-1.023 3.021-1.502 4.54a279.93 279.93 0 0 0-1.906 6.385c-.568 1.965-1.155 3.933-1.84 5.861-1.477 4.155-3.056 8.272-4.488 12.441a732.836 732.836 0 0 0-4.299 12.983 926.13 926.13 0 0 1-2.009 6.174c-.32.97-.684 1.926-1.06 2.875-.203.514-.383 1.046-.613 1.55l-.654 1.424-.977 2.132c-.176.384-.404.75-.609 1.121l-1.315 2.388c-.467.847-.957 1.678-1.447 2.512l-.15.543a2.07 2.07 0 0 0 .136 1.064c.21.514.625.929 1.143 1.146a2.164 2.164 0 0 0 1.629.014l.474-.264c.307-.227.536-.515.687-.864a171.99 171.99 0 0 0 2.353-4.156l.91-1.653c.157-.284.28-.586.414-.88l.974-2.124c.145-.317.298-.632.427-.956.432-1.091.87-2.179 1.262-3.285.748-2.113 1.42-4.253 2.107-6.386a2204.23 2204.23 0 0 1 2.042-6.3c1.319-4.04 2.675-8.07 4.138-12.06.778-2.122 1.578-4.237 2.334-6.366.396-1.115.778-2.23 1.145-3.355.353-1.077.677-2.16 1.003-3.245.623-2.068 1.206-4.147 1.837-6.212.493-1.617 1-3.238 1.566-4.834.11.785.22 1.57.333 2.354.074.501.147 1.003.226 1.504.117.745.206 1.502.35 2.243a6 6 0 0 0 .24.853c.071.201.27.493.416.69.448.605 1.228.923 1.977.828.91-.116 1.762-.874 1.84-1.806.06-.738-.037-1.47-.141-2.199-.074-.52-.158-1.042-.238-1.562a144.14 144.14 0 0 1-.462-3.167c-.281-2.14-.425-4.315-.898-6.425-.042-.186-.089-.37-.139-.553a8.253 8.253 0 0 0-.028-.526 2.219 2.219 0 0 0-.212-.747 2.51 2.51 0 0 0-.722-.919c-.331-.28-.74-.385-1.155-.454a1.593 1.593 0 0 0-.268-.022c-.335 0-.678.09-.985.186m-68.698-27.139a23.19 23.19 0 0 0-2.441.331c-.762.14-1.523.29-2.283.444-.774.157-1.547.338-2.326.458-.433.066-.856.483-1.084.914a2.485 2.485 0 0 0-.235 1.578c.097.541.37 1.019.753 1.318l.398.23c.296.116.597.134.902.055.9-.138 1.794-.352 2.689-.532.627-.126 1.255-.255 1.885-.369-1.205.98-2.416 1.946-3.608 2.947a501.26 501.26 0 0 0-5.194 4.42c-1.275 1.1-2.556 2.196-3.806 3.337l-2.777 2.539c-.554.506-1.087 1.047-1.628 1.574a3115.818 3115.818 0 0 0-4.188 4.087c-1.361 1.331-2.718 2.669-4.09 3.984l-3.012 2.886c-.444.425-.88.864-1.336 1.27-1.824 1.623-3.65 3.242-5.472 4.868-1.654 1.333-3.3 2.678-4.95 4.018-.395.319-.784.64-1.19.935-.985.72-1.97 1.437-2.955 2.156-1.32.963-2.638 1.93-3.971 2.868-1.926 1.354-3.852 2.708-5.779 4.06-2.852 2.006-5.69 4.043-8.538 6.057-2.624 1.856-5.247 3.716-7.877 5.561a2.104 2.104 0 0 0-.839 1.207 2.524 2.524 0 0 0 .112 1.623c.423.98 1.516 1.454 2.33.882 3.333-2.338 6.657-4.694 9.98-7.052 3.41-2.419 6.821-4.835 10.239-7.238 1.33-.935 2.663-1.861 3.98-2.822 1.756-1.28 3.513-2.563 5.27-3.843.194-.14.378-.307.567-.46l1.369-1.111 3.166-2.569c1.442-1.17 2.828-2.437 4.227-3.682l2.616-2.328c.435-.387.853-.803 1.277-1.21 1.43-1.37 2.87-2.728 4.29-4.116 1.46-1.429 2.918-2.86 4.381-4.286l2.605-2.539c.562-.548 1.115-1.113 1.691-1.64 1.536-1.404 3.07-2.808 4.628-4.173a652.75 652.75 0 0 1 4.087-3.545c1.111-.931 2.22-1.866 3.338-2.785-.485.988-.96 1.983-1.443 2.97a26.65 26.65 0 0 0-.828 1.83l-.189.484c-.095.36-.11.725-.045 1.094.067.37.206.694.415.973.205.268.45.459.737.574.346.102.621.173.979.078.249-.066.695-.311.87-.555.171-.24.33-.488.49-.738.139-.214.277-.429.413-.645.28-.442.551-.89.823-1.339.502-.825.984-1.68 1.44-2.543.478-.9.95-1.802 1.39-2.73.46-.973.918-1.949 1.385-2.918.146-.303.292-.607.435-.914.182-.392.34-.802.485-1.217.047-.13.075-.266.103-.404l.023-.124c.16-.344.28-.713.28-1.105 0-.666-.11-1.26-.482-1.78-.318-.444-.69-.674-1.128-.896a2.924 2.924 0 0 0-.621-.21 8.671 8.671 0 0 0-1.011-.197 5.773 5.773 0 0 0-.724-.042c-.334 0-.667.022-.998.047" fill="#000"/><g fill="#000"><path d="M45.295 84.764l-.003-.002-.037-.018.04.02zm49.99 21.914c.02.03.038.06.053.095l-.054-.095zM45.397 84.815a.287.287 0 0 0 .013.006l.037.018a5.14 5.14 0 0 1-.05-.024zm-.15-.075l.007.004-.007-.003h.001l.146.072-.1-.05.004.003-.051-.026zm-3.5-1.726l.078.039-.025-.013-.053-.026zm-.114-.056l.055.027.007.004a9.21 9.21 0 0 0-.062-.031zm-12.877-10.79a1.692 1.692 0 0 0-.9.283c-.438.283-.786.759-.954 1.305-.163.53-.151 1.1.034 1.572l.249.446c.204.266.456.446.756.54 4.232 2.045 8.465 4.087 12.688 6.153l1.124.551c.046.024.091.048.136.07.118.08.244.14.375.181l.05.025.246.12.638.316.014.007.04.023c.104.07.216.128.335.17.093.058.191.104.293.14.064.03.13.06.196.093l.68.335.092.046c.124.088.258.153.398.196 1.626.807 3.244 1.629 4.856 2.468 1.563.812 3.11 1.659 4.673 2.468 1.684.87 3.386 1.695 5.09 2.52 1.646.798 3.28 1.628 4.934 2.409 1.674.79 3.347 1.575 5.06 2.269 1.704.688 3.405 1.386 5.11 2.077 1.715.695 3.435 1.37 5.18 1.98 1.846.647 3.693 1.29 5.528 1.969 2.716 1.003 5.433 1.999 8.064 3.23.282.145.563.292.843.445.295.162.609.328.894.53l.147.264c.204.266.456.446.757.54.432.134.92.055 1.344-.218.437-.282.786-.76.954-1.305l.105-.534a2.293 2.293 0 0 0-.14-1.037c-.262-.996-1.159-1.438-1.893-1.868-.38-.222-.773-.414-1.163-.612a41.706 41.706 0 0 0-2.836-1.287c-1.735-.727-3.5-1.372-5.261-2.024a292.022 292.022 0 0 0-4.768-1.714c-1.777-.62-3.55-1.248-5.297-1.955-1.731-.701-3.46-1.411-5.192-2.111a96.585 96.585 0 0 1-5.04-2.184c-1.48-.699-2.947-1.43-4.421-2.145-1.514-.733-3.028-1.467-4.54-2.204-3.277-1.69-6.52-3.455-9.817-5.101-.497-.248-.994-.497-1.492-.744h-.001l.174.085c-.084-.04-.162-.082-.238-.121a1.413 1.413 0 0 0-.373-.18l-.052-.026-.246-.12-.638-.316h-.003a1.677 1.677 0 0 0-.05-.03 1.424 1.424 0 0 0-.336-.17 1.463 1.463 0 0 0-.294-.14c-.064-.03-.13-.06-.196-.093l-.68-.335-.091-.046a1.41 1.41 0 0 0-.398-.196l-.044-.022-.015-.007c-3.468-1.713-6.952-3.39-10.434-5.075l-3.81-1.841-.444-.065z"/><path d="M93.065 96.141c-.424.267-.76.719-.92 1.238-.143.465-.167 1.092.044 1.5.163.317.29.662.432.994.151.351.302.701.455 1.05.296.676.609 1.338.944 1.987.42.815.885 1.587 1.354 2.364.076.126.159.247.244.366-.563.082-1.126.16-1.69.226-1.455.17-2.91.337-4.363.495l-.443.067a1.88 1.88 0 0 0-.826.525c-.353.375-.578.89-.623 1.42-.044.529.096 1.042.387 1.416.268.345.732.631 1.17.583 2.267-.246 4.532-.498 6.799-.828.558-.082 1.115-.18 1.673-.276.173-.03.345-.058.518-.089.361-.064.696-.221 1.041-.384.256-.121.629-.563.777-.822.174-.306.298-.721.327-1.073a2.953 2.953 0 0 0-.294-1.53c-.326-.638-.77-1.178-1.18-1.74-.147-.2-.288-.408-.432-.613a18.58 18.58 0 0 1-.752-1.154l-.241-.398-.571-1.106c-.19-.37-.354-.762-.53-1.143-.168-.364-.323-.737-.482-1.107-.175-.407-.33-.832-.53-1.222l-.245-.426a1.491 1.491 0 0 0-.738-.52l-.005-.001c-.42-.129-.892-.056-1.3.201"/></g><g transform="translate(95)"><mask id="f" fill="#fff"><use xlink:href="#e"/></mask><path d="M.776.58C.361.945.106 1.467.07 2.021c-.037.585.172 1.065.518 1.52.875 1.152 1.79 2.265 2.708 3.383.54.658 1.07 1.324 1.632 1.96 1.485 1.681 2.961 3.37 4.464 5.034a468.682 468.682 0 0 1 4.726 5.304c.633.724 1.279 1.438 1.899 2.174l2.57 3.054c2.888 3.433 5.756 6.883 8.647 10.314 1.448 1.72 2.89 3.445 4.332 5.168 1.376 1.643 2.707 3.325 4.056 4.99.612.756 1.186 1.547 1.776 2.32.593.778 1.214 1.54 1.779 2.34 1.304 1.846 2.621 3.682 3.878 5.562l1.573 2.352c2.47 3.744 4.93 7.5 7.572 11.123.38.522.763 1.042 1.148 1.56-.763-.34-1.537-.66-2.307-.984-.434-.184-.87-.359-1.308-.533-.478-.19-.955-.395-1.45-.538-.906-.261-1.88.032-2.41.843a2.1 2.1 0 0 0-.337 1.018c-.033.518.136 1.147.517 1.52.257.253.5.455.813.616l.35.178c.184.094.37.184.557.275.485.239.974.483 1.472.696.835.36 1.675.707 2.518 1.05a88.748 88.748 0 0 1 3.678 1.607l.419.251a21.87 21.87 0 0 0 1.87 1.012c.379.18.763.351 1.16.488.188.089.38.167.578.221.453.125.903.142 1.339-.007.673-.125 1.25-.622 1.6-1.188.527-.846.575-1.915.543-2.883-.026-.846-.11-1.689-.181-2.53-.047-.56-.14-1.12-.21-1.678-.068-.547-.158-1.092-.237-1.638-.09-.624-.194-1.247-.295-1.868-.084-.515-.197-1.033-.264-1.552.003-.04.007-.078.013-.116.12-1.139-.854-2.16-1.955-2.23a2.094 2.094 0 0 0-1.517.52c-.43.379-.646.88-.706 1.442-.06.575.05 1.153.147 1.718.059.34.116.682.171 1.022a127.667 127.667 0 0 1 .46 3.002l-.547-.717a150.175 150.175 0 0 1-3.595-4.9 442.28 442.28 0 0 1-3.665-5.347 1020.31 1020.31 0 0 0-3.605-5.434c-.587-.877-1.154-1.771-1.764-2.633l-2.393-3.385c-1.248-1.766-2.597-3.462-3.909-5.181-.599-.785-1.244-1.54-1.865-2.307-.637-.787-1.263-1.584-1.913-2.36-2.766-3.305-5.553-6.594-8.313-9.904-1.42-1.703-2.838-3.409-4.266-5.105-1.46-1.735-2.908-3.48-4.401-5.187a463.799 463.799 0 0 0-4.759-5.371c-1.555-1.724-3.09-3.463-4.628-5.201a77.89 77.89 0 0 1-1.897-2.223C5.8 3.372 4.738 2.094 3.73.769 3.407.34 2.813.092 2.292.058A2.096 2.096 0 0 0 .776.58" fill="#000" mask="url(#f)"/></g><g transform="translate(0 152)"><mask id="h" fill="#fff"><use xlink:href="#g"/></mask><path d="M69.053 1.442c-.354 1.017.06 2.27.94 2.676.547.253 1.116.43 1.68.627.384.133.766.273 1.149.41.906.326 1.81.659 2.714.994 1.673.622 3.358 1.216 5.013 1.9.171.071.344.139.516.208a38.955 38.955 0 0 1-3.969.877c-1.878.302-3.757.567-5.64.826l-4.991.688c-1.838.254-3.675.53-5.515.761l-6.351.799c-.6.074-1.202.12-1.803.18l-3.937.388c-3.25.32-6.5.644-9.75.954l-6.564.625c-1.852.176-3.708.303-5.562.453-3.523.287-7.038.69-10.556 1.064-.219.023-.436.065-.654.097l-1.711.256-3.576.535c-1.812.27-3.616.616-5.422.93-1.195.207-2.38.465-3.57.717a1.748 1.748 0 0 0-1.13.772 2.344 2.344 0 0 0-.348 1.538c.061.526.298 1.012.652 1.338.388.356.822.448 1.3.412.28-.021.558-.042.836-.07a1.34 1.34 0 0 0 .623-.235 80.959 80.959 0 0 1 2.5-.48l3.77-.654c1.764-.306 3.536-.549 5.305-.813.652-.098 1.306-.221 1.96-.29l2.643-.28 3.923-.416c.576-.06 1.152-.135 1.73-.181l6.501-.53c1.591-.129 3.18-.287 4.77-.437 3.693-.352 7.386-.712 11.079-1.075 2.023-.198 4.047-.4 6.07-.598 1.644-.163 3.282-.379 4.923-.584 3.587-.452 7.168-.956 10.75-1.45l5.886-.81c.898-.123 1.794-.283 2.69-.427.275-.044.547-.103.82-.161-.411.455-.819.914-1.224 1.379-.705.81-1.413 1.622-2.067 2.49-.316.42-.616.848-.915 1.285-.505.741-.896 1.606-1.23 2.47-.05.13-.094.262-.138.394-.349 1.037.057 2.244.939 2.676.863.422 1.912-.074 2.261-1.112.136-.404.293-.794.468-1.176.685-1.288 1.616-2.383 2.515-3.462.546-.63 1.09-1.261 1.651-1.87a660.52 660.52 0 0 1 2.25-2.433c.26-.278.513-.562.766-.847.51-.575 1.025-1.168 1.483-1.803.238-.33.44-.752.607-1.133.217-.496.34-1.084.28-1.646-.063-.583-.256-1.04-.528-1.524-.281-.5-.763-.804-1.187-1.091a4.596 4.596 0 0 0-.474-.277c-.08-.06-.162-.12-.244-.178-1.193-.851-2.46-1.513-3.765-2.082-.476-.207-.969-.374-1.45-.56a17.464 17.464 0 0 0-1.038-.368c-.622-.199-1.244-.417-1.871-.594-.69-.195-1.38-.393-2.071-.582l-1.06-.289c-.61-.166-1.218-.36-1.84-.452a1.455 1.455 0 0 0-.208-.015c-.69 0-1.337.502-1.604 1.266" fill="#000" mask="url(#h)"/></g></g></svg>