<?xml version="1.0" encoding="UTF-8"?>
<svg width="44px" height="44px" viewBox="0 0 44 44" version="1.1" xmlns="http://www.w3.org/2000/svg" xmlns:xlink="http://www.w3.org/1999/xlink">
    <!-- Generator: Sketch 61 (89581) - https://sketch.com -->
    <title>meetup</title>
    <desc>Created with Sketch.</desc>
    <g id="Home" stroke="none" stroke-width="1" fill="none" fill-rule="evenodd">
        <g id="landing-2020-v3.0" transform="translate(-526.000000, -5001.000000)">
            <g id="Footer" transform="translate(406.000000, 4933.000000)">
                <g id="footer">
                    <g id="get-in-touch">
                        <g id="meetup" transform="translate(120.000000, 68.000000)">
                            <rect id="Rectangle" x="0" y="0" width="44" height="44"></rect>
                            <circle id="Oval" stroke="#36A7EE" stroke-width="2" cx="22" cy="22" r="21"></circle>
                            <path d="M30.9020267,25.4795769 C30.9037535,27.3961647 29.5235474,29.047215 27.6467165,29.3718405 C27.4104069,29.4123977 27.171781,29.4364034 26.9319759,29.4341292 C26.8511143,29.4332448 26.8193593,29.4655894 26.793711,29.5396704 C26.4190103,30.6154663 25.6712513,31.2567576 24.541674,31.4184808 C23.7944203,31.5253697 23.1163202,31.3249846 22.5219033,30.8577984 C22.4391045,30.792688 22.3884817,30.791593 22.3021452,30.853292 C21.606904,31.3505486 20.82739,31.5707701 19.9761534,31.5193472 C18.3150797,31.4190704 16.9174379,30.1495015 16.6559854,28.5123914 C16.6380022,28.3992273 16.6188818,28.2852209 16.617155,28.1711724 C16.6154283,28.0763285 16.5794196,28.0397302 16.4888294,28.0219997 C15.9859293,27.923955 15.5295668,27.7168314 15.1269435,27.4016819 C14.3859651,26.8215421 13.9413949,26.0640545 13.8379173,25.1270709 C13.71991,24.0546442 14.0511476,23.1273894 14.8055188,22.354698 C14.8663334,22.2927041 14.8701238,22.2495358 14.8286401,22.1766341 C14.5386334,21.6703227 14.4011688,21.121938 14.4234899,20.5404085 C14.4791665,19.0890695 15.4890939,17.8900018 16.8938533,17.5931303 C17.0563766,17.5585956 17.1415761,17.494875 17.2130038,17.340859 C17.9058864,15.8480784 19.0692824,14.9401966 20.6836922,14.6407561 C21.8169757,14.4304318 22.8860753,14.6556229 23.8781458,15.2391318 C23.9615343,15.2883226 24.0313616,15.2922814 24.1216149,15.2660014 C25.6972786,14.8088387 27.0934464,15.1414241 28.2787424,16.2684744 C28.9797112,16.9348244 29.3637615,17.7781432 29.4774731,18.7402276 C29.5023633,18.9505519 29.5136924,19.1628557 29.4976885,19.3743171 C29.491666,19.4542943 29.5162614,19.4877339 29.5919849,19.5157406 C30.3023034,19.7786671 30.7921055,20.2689747 31.0063887,20.994202 C31.273274,21.8963139 31.0490937,22.6873676 30.3749945,23.345126 C30.3165805,23.4022345 30.3289203,23.4371903 30.362023,23.4942567 C30.7182772,24.1080045 30.9028269,24.7686267 30.9020267,25.4795769 Z M23.8713231,25.1718396 C23.8719127,25.9873202 24.3954072,26.7080832 25.1377754,26.9529843 C25.5098229,27.075835 25.8935785,27.1341227 26.2831039,27.1512637 C26.5611919,27.1632665 26.8388166,27.1438513 27.0957627,27.0157784 C27.2977903,26.914912 27.3929711,26.7483035 27.3838321,26.5263132 C27.3746931,26.3028488 27.2746269,26.1357349 27.0608912,26.0467871 C26.9865996,26.0159166 26.9111709,25.9907737 26.8322888,25.9770861 C26.5965267,25.9350129 26.3596276,25.8995938 26.1250447,25.8530984 C25.7378778,25.7759851 25.5755229,25.5710515 25.5703849,25.1795467 C25.5658785,24.8332317 25.659838,24.5065847 25.76639,24.1834331 C25.9613001,23.5919223 26.2241002,23.0281655 26.4759503,22.4597759 C26.7190825,21.9108859 26.973965,21.3665021 27.1457116,20.788384 C27.2403028,20.470918 27.2854505,20.1526098 27.1994509,19.8242781 C27.0685562,19.3259265 26.7699158,18.9919092 26.2549708,18.895844 C25.7835309,18.8081176 25.3142811,18.7981362 24.8879468,19.0792987 C24.7461864,19.172458 24.6098588,19.1501789 24.4867976,19.0415633 C24.392796,18.958975 24.3033429,18.8715434 24.2113207,18.7866809 C23.776437,18.3851947 23.2014775,18.3654847 22.7345861,18.7321414 C22.5462039,18.8801349 22.3876816,19.0636318 22.1830428,19.1922101 C22.0001777,19.3070588 21.8157965,19.339614 21.6133056,19.2316301 C21.420417,19.1287422 21.2207058,19.0381941 21.0214999,18.9478986 C20.819725,18.8567609 20.6242674,18.7441864 20.397139,18.7250239 C19.6787344,18.6638723 18.9269323,19.0907962 18.6100139,19.7397525 C18.4693906,20.0269374 18.354584,20.325283 18.2457157,20.6255658 C17.7430262,22.0137738 17.3335802,23.4316732 16.909815,24.8446871 C16.720043,25.4770921 16.9440127,26.0993893 17.4795101,26.4409452 C17.8972949,26.7071988 18.3547524,26.7730252 18.8283402,26.6307172 C19.2120115,26.5152368 19.4221253,26.2064045 19.5689817,25.8594578 C20.057015,24.7084859 20.4965314,23.5379724 20.9617382,22.3778615 C21.089769,22.0586267 21.2137146,21.7380442 21.3495368,21.4222629 C21.4866646,21.1034072 21.8806963,20.9947916 22.1144368,21.206253 C22.2571238,21.3353367 22.2947329,21.5071676 22.2807505,21.690875 C22.2653784,21.887217 22.189318,22.0683133 22.1178903,22.2486514 C21.8152068,23.0138883 21.5069221,23.7768931 21.202891,24.5415404 C21.1414446,24.6961882 21.0748601,24.8495725 21.0476957,25.0155493 C21.0011582,25.3005443 21.1139853,25.5531525 21.3470941,25.653682 C21.5849198,25.7563172 21.8318003,25.7734582 22.0783439,25.6839629 C22.365234,25.57998 22.5366859,25.3553785 22.6687598,25.0958634 C23.1225533,24.2047014 23.5728512,23.3113494 24.0263499,22.4201454 C24.2358319,22.0084251 24.448978,21.5986423 24.6629663,21.1893647 C24.7424802,21.0376651 24.8356395,20.8939252 24.9841805,20.7996288 C25.118276,20.7147662 25.2627739,20.7084489 25.4002386,20.7856465 C25.5343762,20.8607803 25.5433468,20.9979923 25.5377033,21.1334355 C25.5346289,21.206253 25.514245,21.2774281 25.4862383,21.3451496 C25.4274452,21.4859835 25.3725267,21.6289232 25.307332,21.7669775 C24.9301465,22.5604739 24.5472332,23.3508958 24.1734169,24.1461189 C24.0158631,24.4817366 23.8518657,24.8189546 23.8713231,25.1718396 Z M29.1620301,31.0197742 C29.1629132,30.4934159 28.7217122,30.0533099 28.191016,30.0518712 C27.6472218,30.0498986 27.206063,30.485077 27.2036959,31.0249123 C27.2014303,31.5526183 27.6501278,32.0003893 28.1807398,32.0010637 C28.7188483,32.0016107 29.1611864,31.5593147 29.1620301,31.0197742 Z M12.7577835,22.9537919 C13.2695699,22.9549268 13.7001999,22.5271606 13.6981855,22.0199648 C13.6958621,21.5119266 13.2744132,21.0906883 12.7669226,21.0892529 C12.2467973,21.0878666 11.8338558,21.5005134 11.8341504,22.0214388 C11.8345717,22.5368893 12.2462919,22.9526525 12.7577835,22.9537919 Z M24.2176801,12.5211992 C23.7033247,12.5183503 23.284108,12.9295651 23.2811847,13.4393299 C23.2780855,13.9485473 23.6958282,14.3669217 24.2076146,14.3674694 C24.7173794,14.3677641 25.1268254,13.9594131 25.1277547,13.4493113 C25.1289733,12.9367247 24.7240337,12.5237831 24.2176801,12.5211992 Z M31.7907174,18.2920354 C31.7884297,17.8693652 31.4280903,17.5099102 31.0037354,17.5070464 C30.5705364,17.5039298 30.2035848,17.8699969 30.2064908,18.3023116 C30.2095652,18.7335312 30.5593758,19.0792566 30.9931645,19.0798479 C31.440051,19.0807306 31.7932308,18.7315518 31.7907174,18.2920354 Z M15.5656176,16.035113 C15.5656176,16.4320507 15.8745341,16.7434941 16.2688606,16.7440844 C16.6682831,16.7446312 16.9781262,16.4315032 16.9766992,16.0288378 C16.9752623,15.6382595 16.6657983,15.3327543 16.2728616,15.3339302 C15.8687643,15.3347338 15.5658282,15.6350587 15.5656176,16.035113 Z M22.9529124,32.4062555 C22.9563238,32.0756496 22.6843004,31.8033735 22.3499461,31.8021911 C22.0067477,31.8011413 21.7372091,32.0671001 21.7380914,32.405708 C21.738978,32.7397253 22.0071267,33.0043366 22.3443027,33.0043366 C22.6811838,33.0046312 22.9500064,32.7405676 22.9529124,32.4062555 Z M32.3856682,23.0127091 C32.064454,23.0103928 31.7858185,23.2890283 31.7883876,23.6099477 C31.7911672,23.9270767 32.0559046,24.1874341 32.3764871,24.188067 C32.712568,24.1886976 32.9646287,23.9412274 32.9654314,23.6091054 C32.9663554,23.2804367 32.7082722,23.0149833 32.3856682,23.0127091 Z M18.2776812,11.9362688 C17.9944973,11.9351361 17.7759183,12.1514408 17.7759183,12.433235 C17.7759183,12.7132604 17.9967715,12.930997 18.2797028,12.9295721 C18.5542952,12.9281332 18.7694628,12.7092173 18.7694628,12.4311714 C18.769505,12.1505564 18.5577066,11.9377052 18.2776812,11.9362688 Z M33.5063592,20.3437295 C33.2755246,20.3411184 33.0663374,20.5477365 33.0634315,20.7817718 C33.0603149,21.0238091 33.2617529,21.2252471 33.5074963,21.2258398 C33.7515551,21.2267211 33.9429696,21.0369491 33.9446963,20.7917953 C33.9470127,20.5452096 33.7526501,20.3468461 33.5063592,20.3437295 Z M16.0262382,29.0615342 C16.0273288,28.8272041 15.8253012,28.6254713 15.587307,28.6232392 C15.34607,28.6211755 15.1477485,28.8241297 15.1494753,29.0710102 C15.1514547,29.3122051 15.3472071,29.5027352 15.5910132,29.5010506 C15.8302287,29.4995765 16.0254336,29.302687 16.0262382,29.0615342 Z" id="Shape" fill="#36A7EE" fill-rule="nonzero"></path>
                        </g>
                    </g>
                </g>
            </g>
        </g>
    </g>
</svg>