<?xml version="1.0" encoding="UTF-8"?>
<svg width="231px" height="107px" viewBox="0 0 231 107" version="1.1" xmlns="http://www.w3.org/2000/svg" xmlns:xlink="http://www.w3.org/1999/xlink">
    <!-- Generator: Sketch 61.2 (89653) - https://sketch.com -->
    <title>reactathon-in-the-park-logo</title>
    <desc>Created with Sketch.</desc>
    <g id="Symbols" stroke="none" stroke-width="1" fill="none" fill-rule="evenodd">
        <g id="sidenav" transform="translate(-33.000000, -18.000000)" fill-rule="nonzero">
            <g id="reactathon-in-the-park-logo">
                <g transform="translate(33.000000, 18.000000)">
                    <path d="M9.09636,106.96764 C4.10178205,106.961623 0.0543770525,102.914218 0.04836,97.91964 L0.04836,54.99312 C0.0543770525,49.9985421 4.10178205,45.9511371 9.09636,45.94512 L16.58436,45.94512 L20.34084,32.40588 C20.7129059,31.0605619 21.9370999,30.1289802 23.33292,30.1289802 C24.7287401,30.1289802 25.9529341,31.0605619 26.325,32.40588 L27.48564,36.59136 L27.51684,36.47748 C27.8909688,35.1341723 29.1144853,34.2048535 30.50892,34.2048535 C31.9033547,34.2048535 33.1268712,35.1341723 33.501,36.47748 L34.23732,39.156 L39.35724,35.23104 C42.0481243,33.1674836 45.7892357,33.1674836 48.48012,35.23104 L50.895,37.08276 L56.45328,32.916 C60.0308507,30.2309791 64.9516693,30.2309791 68.52924,32.916 L72.45576,35.86284 C72.5901766,35.9652382 72.7547878,36.0201086 72.92376,36.01884 C73.2085035,36.0202266 73.4721902,35.8690383 73.61484,35.6226 L83.5068,18.48756 C84.8529662,16.1540015 87.3421758,14.7162611 90.03618,14.7162611 C92.7301842,14.7162611 95.2193938,16.1540015 96.56556,18.48756 L98.5062,21.84 L108.9114,3.81576 C110.258199,1.48303795 112.747184,0.0460220981 115.44078,0.0460220981 C118.134376,0.0460220981 120.623361,1.48303795 121.97016,3.81576 L132.37536,21.84 L134.316,18.48444 C135.662166,16.1508815 138.151376,14.7131411 140.84538,14.7131411 C143.539384,14.7131411 146.028594,16.1508815 147.37476,18.48444 L156.9204,35.02044 C157.063916,35.2658043 157.327228,35.4161834 157.61148,35.41512 C157.794868,35.4161893 157.972552,35.3514257 158.11224,35.2326 L162.5676,31.52292 C166.471148,28.2720091 172.139332,28.2720091 176.04288,31.52292 L183.1128,37.40724 L187.3248,34.28724 C189.826772,32.4332433 193.246828,32.4332433 195.7488,34.28724 L199.42416,37.011 L200.9046,31.92384 C201.290867,30.5982559 202.505824,29.6867996 203.88654,29.6867996 C205.267256,29.6867996 206.482213,30.5982559 206.86848,31.92384 L207.6126,34.47912 L208.9932,29.73516 C209.379345,28.4103485 210.59364,27.499457 211.97358,27.499457 C213.35352,27.499457 214.567815,28.4103485 214.95396,29.73516 L219.67452,45.95916 L221.78052,45.95916 C226.775098,45.9651771 230.822503,50.0125821 230.82852,55.00716 L230.82852,97.91964 C230.822503,102.914218 226.775098,106.961623 221.78052,106.96764 L9.09636,106.96764 Z" id="Path" fill="#F9F8E2"></path>
                    <rect id="Rectangle" fill="#2F2747" transform="translate(115.440780, 76.343280) rotate(90.000000) translate(-115.440780, -76.343280) " x="87.75234" y="-36.22554" width="55.37688" height="225.13764" rx="6.2244"></rect>
                    <polygon id="Path" fill="#F9F8E2" points="70.87548 95.29728 70.87548 87.516 72.65232 87.516 72.65232 95.29572"></polygon>
                    <polygon id="Path" fill="#F9F8E2" points="83.6004 87.516 83.6004 95.29572 82.0404 95.29572 76.46184 89.67972 76.46184 95.29572 74.74584 95.29572 74.74584 87.516 76.635 87.516 81.87972 92.8512 81.87972 87.516"></polygon>
                    <polygon id="Path" fill="#F9F8E2" points="96.135 89.05104 92.7342 89.05104 92.7342 95.29104 90.9558 95.29104 90.9558 89.05104 87.57684 89.05104 87.57684 87.516 96.135 87.516"></polygon>
                    <polygon id="Path" fill="#F9F8E2" points="106.21572 87.516 106.21572 95.29572 104.43732 95.29572 104.43732 92.12892 99.13332 92.12892 99.13332 95.29572 97.35804 95.29572 97.35804 87.516 99.13488 87.516 99.13488 90.5736 104.43888 90.5736 104.43888 87.516"></polygon>
                    <polygon id="Path" fill="#F9F8E2" points="116.31672 93.80748 116.31672 95.29728 108.303 95.29728 108.303 87.516 116.20596 87.516 116.20596 89.0058 110.07048 89.0058 110.07048 90.60636 115.19508 90.60636 115.19508 92.0946 110.07048 92.0946 110.07048 93.8106"></polygon>
                    <path d="M129.58608,90.15084 C129.58608,91.87464 128.25228,92.78568 126.25236,92.78568 L122.70648,92.78568 L122.70648,95.29728 L120.92808,95.29728 L120.92808,87.516 L126.25236,87.516 C128.25228,87.516 129.58608,88.452 129.58608,90.15084 Z M127.77492,90.16332 C127.77492,89.27412 127.10724,89.00736 126.10728,89.00736 L122.70648,89.00736 L122.70648,91.31772 L126.10728,91.31772 C127.10724,91.31772 127.77492,91.05096 127.77492,90.168 L127.77492,90.16332 Z" id="Shape" fill="#F9F8E2"></path>
                    <path d="M136.50936,93.65304 L131.80908,93.65304 L130.97448,95.29728 L129.0744,95.29728 L133.19748,87.516 L135.1428,87.516 L139.26588,95.29572 L137.3424,95.29572 L136.50936,93.65304 Z M135.76524,92.20692 L134.16,89.04012 L132.54852,92.20692 L135.76524,92.20692 Z" id="Shape" fill="#F9F8E2"></path>
                    <path d="M147.13452,95.29728 L144.9006,92.64528 L142.0926,92.64528 L142.0926,95.29728 L140.32044,95.29728 L140.32044,87.516 L145.6884,87.516 C147.59004,87.516 149.02368,88.39428 149.02368,90.08376 C149.02368,91.40508 148.1454,92.22876 146.85684,92.52828 L149.25612,95.29572 L147.13452,95.29728 Z M145.58856,91.18512 C146.52456,91.18512 147.21096,90.9636 147.21096,90.09312 C147.21096,89.22264 146.523,89.00112 145.58856,89.00112 L142.077,89.00112 L142.077,91.18512 L145.58856,91.18512 Z" id="Shape" fill="#F9F8E2"></path>
                    <polygon id="Path" fill="#F9F8E2" points="157.49136 95.29728 154.48992 91.64064 152.46192 93.35664 152.46192 95.29104 150.68352 95.29104 150.68352 87.516 152.46192 87.516 152.46192 91.4628 157.07952 87.516 159.41952 87.516 155.79564 90.58296 159.63012 95.29572"></polygon>
                    <rect id="Rectangle" fill="#DA8288" x="166.43952" y="87.42864" width="8.44584" height="7.86864"></rect>
                    <rect id="Rectangle" fill="#DA8288" x="178.76976" y="87.42864" width="7.24776" height="7.86864"></rect>
                    <rect id="Rectangle" fill="#886C8C" x="189.90192" y="87.42864" width="6.04968" height="7.86864"></rect>
                    <rect id="Rectangle" fill="#886C8C" x="199.83444" y="87.42864" width="4.8516" height="7.86864"></rect>
                    <rect id="Rectangle" fill="#95ABC1" x="208.57044" y="87.42864" width="3.65352" height="7.86864"></rect>
                    <rect id="Rectangle" fill="#95ABC1" x="216.1068" y="87.42864" width="2.45544" height="7.86864"></rect>
                    <rect id="Rectangle" fill="#DA8288" x="54.5688" y="87.42864" width="8.44584" height="7.86864"></rect>
                    <rect id="Rectangle" fill="#DA8288" x="43.43664" y="87.42864" width="7.24776" height="7.86864"></rect>
                    <rect id="Rectangle" fill="#886C8C" x="33.50412" y="87.42864" width="6.04968" height="7.86864"></rect>
                    <rect id="Rectangle" fill="#886C8C" x="24.76812" y="87.42864" width="4.8516" height="7.86864"></rect>
                    <rect id="Rectangle" fill="#95ABC1" x="17.23176" y="87.42864" width="3.65352" height="7.86864"></rect>
                    <rect id="Rectangle" fill="#95ABC1" x="10.89348" y="87.42864" width="2.45544" height="7.86864"></rect>
                    <path d="M158.83608,50.856 L150.3684,36.192 L141.90072,21.528 C141.683092,21.1464743 141.277591,20.9109452 140.83836,20.9109452 C140.399129,20.9109452 139.993628,21.1464743 139.776,21.528 L132.36912,34.36056 L124.96692,21.528 L116.49924,6.864 C116.28078,6.48553516 115.87699,6.25238249 115.44,6.25238249 C115.00301,6.25238249 114.59922,6.48553516 114.38076,6.864 L105.91308,21.528 L98.50464,34.36056 L91.104,21.528 C90.8855397,21.1495352 90.4817503,20.9163825 90.04476,20.9163825 C89.6077697,20.9163825 89.2039803,21.1495352 88.98552,21.528 L80.5116,36.192 L72.04392,50.856 C71.8262376,51.2343219 71.8266715,51.6999793 72.0450584,52.0778949 C72.2634454,52.4558105 72.6666821,52.6886993 73.10316,52.689 L106.97232,52.689 C107.409377,52.6893425 107.813311,52.4561432 108.03156,52.07748 L115.44,39.25116 L122.84844,52.08216 C123.066689,52.4608232 123.470623,52.6936804 123.90768,52.6936804 L157.77684,52.6936804 C158.213318,52.6936804 158.616555,52.4604905 158.834942,52.0825749 C159.053329,51.7046593 159.053762,51.2390019 158.83608,50.86068 L158.83608,50.856 Z" id="Path" fill="#333D3B"></path>
                    <path d="M194.98908,50.856 L188.23584,45.24 L181.25016,39.42432 L174.23016,33.58524 C171.372601,31.2060459 167.223839,31.2060459 164.36628,33.58524 L159.9156,37.284 C159.096198,37.9659023 158.017571,38.2513205 156.968144,38.0639336 C155.918717,37.8765467 155.005527,37.2354671 154.47276,36.31212 L144.924,19.78236 C144.081796,18.3224921 142.524525,17.4230544 140.83914,17.4230544 C139.153755,17.4230544 137.596484,18.3224921 136.75428,19.78236 L134.50476,23.68236 C134.064763,24.444559 133.251542,24.914104 132.37146,24.914104 C131.491378,24.914104 130.678157,24.444559 130.23816,23.68236 L119.52252,5.11836 C118.679683,3.65932827 117.122637,2.76061467 115.43766,2.76061467 C113.752683,2.76061467 112.195637,3.65932827 111.3528,5.11836 L100.6356,23.68236 C100.195603,24.444559 99.382382,24.914104 98.5023,24.914104 C97.622218,24.914104 96.8089967,24.444559 96.369,23.68236 L94.11948,19.78236 C93.2772756,18.3224921 91.720005,17.4230544 90.03462,17.4230544 C88.349235,17.4230544 86.7919644,18.3224921 85.94976,19.78236 L76.05936,36.9174 C75.5428187,37.8147548 74.6661066,38.4473724 73.6516797,38.6547332 C72.6372528,38.862094 71.5826117,38.6242677 70.75536,38.0016 L66.82884,35.05476 C64.25539,33.1221777 60.71465,33.1221777 58.1412,35.05476 L37.09056,50.856 L68.43096,50.856 C68.2274076,52.3916506 68.7920315,53.9292009 69.94104,54.96816 C70.8501082,55.7689434 72.0244049,56.2031885 73.23576,56.18652 L106.97232,56.18652 C108.657002,56.1837126 110.21312,55.2853351 111.05796,53.8278 L115.44,46.2384 L119.82204,53.82936 C120.66688,55.2868951 122.222998,56.1852726 123.90768,56.1885071 L157.64892,56.1885071 C158.858004,56.2040734 160.029937,55.7704362 160.9374,54.97128 C162.087015,53.9321419 162.651223,52.393553 162.44592,50.85756 L194.98908,50.856 Z" id="Path" fill="#2F2747"></path>
                    <polygon id="Path" fill="#886C8C" points="115.44 7.47396 106.97232 22.13952 123.90768 22.13952"></polygon>
                    <path d="M124.15104,22.28148 L106.7274,22.28148 L115.44,7.1916 L124.15104,22.28148 Z M107.21724,21.996 L123.66276,21.996 L115.44,7.75632 L107.21724,21.996 Z" id="Shape" fill="#2F2747"></path>
                    <polygon id="Path" fill="#886C8C" points="115.44 7.47396 106.97232 22.13952 123.90768 22.13952"></polygon>
                    <path d="M123.90768,23.127 L106.97232,23.127 C106.619823,23.1267314 106.294198,22.9385828 106.117927,22.6333242 C105.941655,22.3280657 105.94147,21.9519923 106.11744,21.64656 L114.58512,6.98256 C114.760763,6.67426765 115.088304,6.48390794 115.44312,6.48390794 C115.797936,6.48390794 116.125477,6.67426765 116.30112,6.98256 L124.7688,21.64656 C124.94477,21.9519923 124.944585,22.3280657 124.768313,22.6333242 C124.592042,22.9385828 124.266417,23.1267314 123.91392,23.127 L123.90768,23.127 Z M108.68364,21.15204 L122.19636,21.15204 L115.44,9.45048 L108.68364,21.15204 Z" id="Shape" fill="#2F2747"></path>
                    <polygon id="Path" fill="#886C8C" points="123.90768 22.13952 115.44 36.80508 132.3738 36.80508"></polygon>
                    <path d="M132.61872,36.94704 L115.19508,36.94704 L123.90768,21.85716 L132.61872,36.94704 Z M115.68492,36.66 L132.132,36.66 L123.90924,22.4172 L115.68492,36.66 Z" id="Shape" fill="#2F2747"></path>
                    <polygon id="Path" fill="#886C8C" points="123.90768 22.13952 115.44 36.80508 132.3738 36.80508"></polygon>
                    <path d="M132.3738,37.79412 L115.44,37.79412 C115.087428,37.7932107 114.761999,37.6046815 114.585828,37.2992767 C114.409658,36.9938719 114.409388,36.6177773 114.58512,36.31212 L123.05124,21.64812 C123.226883,21.3398277 123.554424,21.1494679 123.90924,21.1494679 C124.264056,21.1494679 124.591597,21.3398277 124.76724,21.64812 L133.23492,36.31212 C133.410789,36.6180187 133.41037,36.994444 133.23382,37.2999501 C133.057269,37.6054562 132.731331,37.793766 132.37848,37.79412 L132.3738,37.79412 Z M117.156,35.8176 L130.66872,35.8176 L123.91236,24.1176 L117.156,35.8176 Z" id="Shape" fill="#2F2747"></path>
                    <polygon id="Path" fill="#886C8C" points="123.90768 51.47064 132.3738 36.80508 115.44 36.80508"></polygon>
                    <path d="M123.90768,51.753 L115.19508,36.66 L132.61872,36.66 L123.90768,51.753 Z M115.68492,36.94704 L123.90768,51.18984 L132.132,36.94704 L115.68492,36.94704 Z" id="Shape" fill="#2F2747"></path>
                    <polygon id="Path" fill="#886C8C" points="123.90768 51.47064 132.3738 36.80508 115.44 36.80508"></polygon>
                    <path d="M123.90768,52.4596803 C123.554277,52.4599689 123.227662,52.271377 123.05124,51.96516 L114.58512,37.30116 C114.409388,36.9955027 114.409658,36.6194081 114.585828,36.3140033 C114.761999,36.0085985 115.087428,35.8200693 115.44,35.81916 L132.3738,35.81916 C132.726651,35.819514 133.052589,36.0078238 133.22914,36.3133299 C133.40569,36.618836 133.406109,36.9952613 133.23024,37.30116 L124.76256,51.96516 C124.586416,52.270894 124.260525,52.459411 123.90768,52.4596803 L123.90768,52.4596803 Z M117.15132,37.79568 L123.90768,49.49568 L130.66404,37.79568 L117.15132,37.79568 Z" id="Shape" fill="#2F2747"></path>
                    <polygon id="Path" fill="#DA8288" points="140.84148 51.47064 149.30916 36.80508 132.3738 36.80508"></polygon>
                    <path d="M140.84148,51.753 L132.132,36.66 L149.55408,36.66 L140.84148,51.753 Z M132.61872,36.94704 L140.84148,51.18984 L149.06424,36.94704 L132.61872,36.94704 Z" id="Shape" fill="#2F2747"></path>
                    <polygon id="Path" fill="#DA8288" points="140.84148 51.47064 149.30916 36.80508 132.3738 36.80508"></polygon>
                    <path d="M140.84148,52.4596803 C140.488635,52.459411 140.162744,52.270894 139.9866,51.96516 L131.51892,37.30116 C131.343188,36.9955027 131.343458,36.6194081 131.519628,36.3140033 C131.695799,36.0085985 132.021228,35.8200693 132.3738,35.81916 L149.30916,35.81916 C149.661732,35.8200693 149.987161,36.0085985 150.163332,36.3140033 C150.339502,36.6194081 150.339772,36.9955027 150.16404,37.30116 L141.69792,51.96516 C141.521498,52.271377 141.194883,52.4599689 140.84148,52.4596803 L140.84148,52.4596803 Z M134.08512,37.79568 L140.84148,49.49568 L147.59784,37.79568 L134.08512,37.79568 Z" id="Shape" fill="#2F2747"></path>
                    <polygon id="Path" fill="#886C8C" points="115.44 36.80508 123.90768 22.13952 106.97232 22.13952"></polygon>
                    <path d="M115.44,37.08744 L106.7274,21.996 L124.15104,21.996 L115.44,37.08744 Z M107.21724,22.28148 L115.44,36.52272 L123.66276,22.28148 L107.21724,22.28148 Z" id="Shape" fill="#2F2747"></path>
                    <polygon id="Path" fill="#886C8C" points="115.44 36.80508 123.90768 22.13952 106.97232 22.13952"></polygon>
                    <path d="M115.44,37.79412 C115.087155,37.793851 114.761264,37.605334 114.58512,37.2996 L106.11744,22.6356 C105.941708,22.3299427 105.941978,21.9538481 106.118148,21.6484433 C106.294319,21.3430385 106.619748,21.1545093 106.97232,21.1536 L123.90768,21.1536 C124.260252,21.1545093 124.585681,21.3430385 124.761852,21.6484433 C124.938022,21.9538481 124.938292,22.3299427 124.76256,22.6356 L116.29488,37.2996 C116.118736,37.605334 115.792845,37.793851 115.44,37.79412 L115.44,37.79412 Z M108.68364,23.13012 L115.44,34.83012 L122.19636,23.13012 L108.68364,23.13012 Z" id="Shape" fill="#2F2747"></path>
                    <polygon id="Path" fill="#886C8C" points="106.97232 51.47064 115.44 36.80508 98.5062 36.80508"></polygon>
                    <path d="M106.97232,51.753 L98.26128,36.66 L115.68492,36.66 L106.97232,51.753 Z M98.748,36.94704 L106.97076,51.18984 L115.19352,36.94704 L98.748,36.94704 Z" id="Shape" fill="#2F2747"></path>
                    <polygon id="Path" fill="#886C8C" points="106.97232 51.47064 115.44 36.80508 98.5062 36.80508"></polygon>
                    <path d="M106.97232,52.45968 C106.619475,52.459411 106.293584,52.270894 106.11744,51.96516 L97.656,37.2996 C97.4802682,36.9939427 97.4805381,36.6178481 97.6567084,36.3124433 C97.8328788,36.0070385 98.1583077,35.8185093 98.51088,35.8176 L115.44,35.8176 C115.792572,35.8185093 116.118001,36.0070385 116.294172,36.3124433 C116.470342,36.6178481 116.470612,36.9939427 116.29488,37.2996 L107.82876,51.9636 C107.652028,52.269712 107.325785,52.4586832 106.97232,52.45968 Z M100.21596,37.79568 L106.97232,49.49568 L113.72868,37.79568 L100.21596,37.79568 Z" id="Shape" fill="#2F2747"></path>
                    <polygon id="Path" fill="#8396AC" points="90.03852 51.47064 98.5062 36.80508 81.57084 36.80508"></polygon>
                    <path d="M90.03852,51.753 L81.32592,36.66 L98.748,36.66 L90.03852,51.753 Z M81.81576,36.94704 L90.03852,51.18984 L98.26128,36.94704 L81.81576,36.94704 Z" id="Shape" fill="#2F2747"></path>
                    <polygon id="Path" fill="#8396AC" points="90.03852 51.47064 98.5062 36.80508 81.57084 36.80508"></polygon>
                    <path d="M90.03852,52.4596803 C89.6851172,52.4599689 89.3585022,52.271377 89.18208,51.96516 L80.7144,37.30116 C80.5385307,36.9952613 80.5389501,36.618836 80.7155004,36.3133299 C80.8920508,36.0078238 81.2179889,35.819514 81.57084,35.81916 L98.50464,35.81916 C98.8574911,35.819514 99.1834292,36.0078238 99.3599796,36.3133299 C99.5365299,36.618836 99.5369493,36.9952613 99.36108,37.30116 L90.8934,51.96516 C90.7172561,52.270894 90.3913654,52.459411 90.03852,52.4596803 Z M83.28216,37.79568 L90.03852,49.49568 L96.79488,37.79568 L83.28216,37.79568 Z" id="Shape" fill="#2F2747"></path>
                    <polygon id="Path" fill="#886C8C" points="98.5062 36.80508 90.03852 51.47064 106.97232 51.47064"></polygon>
                    <path d="M107.21724,51.6126 L89.7936,51.6126 L98.50464,36.52272 L107.21724,51.6126 Z M90.28188,51.324 L106.7274,51.324 L98.50464,37.0812 L90.28188,51.324 Z" id="Shape" fill="#2F2747"></path>
                    <polygon id="Path" fill="#886C8C" points="98.5062 36.80508 90.03852 51.47064 106.97232 51.47064"></polygon>
                    <path d="M106.97232,52.45968 L90.03852,52.45968 C89.6856689,52.459326 89.3597308,52.2710162 89.1831804,51.9655101 C89.0066301,51.660004 89.0062107,51.2835787 89.18208,50.97768 L97.64976,36.31368 C97.8254033,36.0053877 98.1529435,35.8150279 98.50776,35.8150279 C98.8625765,35.8150279 99.1901167,36.0053877 99.36576,36.31368 L107.83344,50.97768 C108.009309,51.2835787 108.00889,51.660004 107.83234,51.9655101 C107.655789,52.2710162 107.329851,52.459326 106.977,52.45968 L106.97232,52.45968 Z M91.74984,50.48316 L105.261,50.48316 L98.50464,38.78316 L91.74984,50.48316 Z" id="Shape" fill="#2F2747"></path>
                    <polygon id="Path" fill="#886C8C" points="132.3738 36.80508 123.90768 51.47064 140.84148 51.47064"></polygon>
                    <path d="M140.84148,52.45968 L123.90768,52.45968 C123.554829,52.459326 123.228891,52.2710162 123.05234,51.9655101 C122.87579,51.660004 122.875371,51.2835787 123.05124,50.97768 L131.51892,36.31368 C131.694563,36.0053877 132.022104,35.8150279 132.37692,35.8150279 C132.731736,35.8150279 133.059277,36.0053877 133.23492,36.31368 L141.7026,50.97768 C141.878469,51.2835787 141.87805,51.660004 141.7015,51.9655101 C141.524949,52.2710162 141.199011,52.459326 140.84616,52.45968 L140.84148,52.45968 Z M125.619,50.48316 L139.13016,50.48316 L132.3738,38.78316 L125.619,50.48316 Z" id="Shape" fill="#2F2747"></path>
                    <polygon id="Path" fill="#886C8C" points="132.3738 36.80508 123.90768 51.47064 140.84148 51.47064"></polygon>
                    <path d="M140.84148,52.45968 L123.90768,52.45968 C123.554829,52.459326 123.228891,52.2710162 123.05234,51.9655101 C122.87579,51.660004 122.875371,51.2835787 123.05124,50.97768 L131.51892,36.31368 C131.694563,36.0053877 132.022104,35.8150279 132.37692,35.8150279 C132.731736,35.8150279 133.059277,36.0053877 133.23492,36.31368 L141.7026,50.97768 C141.878469,51.2835787 141.87805,51.660004 141.7015,51.9655101 C141.524949,52.2710162 141.199011,52.459326 140.84616,52.45968 L140.84148,52.45968 Z M125.619,50.48316 L139.13016,50.48316 L132.3738,38.78316 L125.619,50.48316 Z" id="Shape" fill="#2F2747"></path>
                    <polygon id="Path" fill="#886C8C" points="115.44 36.80508 106.97232 51.47064 123.90768 51.47064"></polygon>
                    <path d="M123.90768,52.45968 L106.97232,52.45968 C106.619748,52.4587707 106.294319,52.2702415 106.118148,51.9648367 C105.941978,51.6594319 105.941708,51.2833373 106.11744,50.97768 L114.58512,36.31368 C114.760112,36.0045334 115.087882,35.8134289 115.44312,35.8134289 C115.798358,35.8134289 116.126128,36.0045334 116.30112,36.31368 L124.7688,50.97768 C124.944532,51.2833373 124.944262,51.6594319 124.768092,51.9648367 C124.591921,52.2702415 124.266492,52.4587707 123.91392,52.45968 L123.90768,52.45968 Z M108.68364,50.48316 L122.19636,50.48316 L115.44,38.7816 L108.68364,50.48316 Z" id="Shape" fill="#2F2747"></path>
                    <polygon id="Path" fill="#886C8C" points="115.44 36.80508 106.97232 51.47064 123.90768 51.47064"></polygon>
                    <path d="M123.90768,52.45968 L106.97232,52.45968 C106.619748,52.4587707 106.294319,52.2702415 106.118148,51.9648367 C105.941978,51.6594319 105.941708,51.2833373 106.11744,50.97768 L114.58512,36.31368 C114.760112,36.0045334 115.087882,35.8134289 115.44312,35.8134289 C115.798358,35.8134289 116.126128,36.0045334 116.30112,36.31368 L124.7688,50.97768 C124.944532,51.2833373 124.944262,51.6594319 124.768092,51.9648367 C124.591921,52.2702415 124.266492,52.4587707 123.91392,52.45968 L123.90768,52.45968 Z M108.68364,50.48316 L122.19636,50.48316 L115.44,38.7816 L108.68364,50.48316 Z" id="Shape" fill="#2F2747"></path>
                    <polygon id="Path" fill="#886C8C" points="106.97232 22.13952 98.5062 36.80508 115.44 36.80508"></polygon>
                    <path d="M115.68492,36.94704 L98.26128,36.94704 L106.97232,21.85716 L115.68492,36.94704 Z M98.748,36.66 L115.19508,36.66 L106.97232,22.4172 L98.748,36.66 Z" id="Shape" fill="#2F2747"></path>
                    <polygon id="Path" fill="#886C8C" points="106.97232 22.13952 98.5062 36.80508 115.44 36.80508"></polygon>
                    <path d="M115.44,37.79412 L98.50464,37.79412 C98.1520677,37.7932107 97.8266388,37.6046815 97.6504684,37.2992767 C97.4742981,36.9938719 97.4740282,36.6177773 97.64976,36.31212 L106.11744,21.64812 C106.293083,21.3398277 106.620624,21.1494679 106.97544,21.1494679 C107.330256,21.1494679 107.657797,21.3398277 107.83344,21.64812 L116.29956,36.31212 C116.475292,36.6177773 116.475022,36.9938719 116.298852,37.2992767 C116.122681,37.6046815 115.797252,37.7932107 115.44468,37.79412 L115.44,37.79412 Z M100.21596,35.8176 L113.724,35.8176 L106.96764,24.1176 L100.21596,35.8176 Z" id="Shape" fill="#2F2747"></path>
                    <polygon id="Path" fill="#8396AC" points="81.57084 36.80508 73.10316 51.47064 90.03852 51.47064"></polygon>
                    <path d="M90.28188,51.6126 L72.8598,51.6126 L81.57084,36.52272 L90.28188,51.6126 Z M73.34808,51.324 L89.7936,51.324 L81.57084,37.0812 L73.34808,51.324 Z" id="Shape" fill="#2F2747"></path>
                    <polygon id="Path" fill="#8396AC" points="81.57084 36.80508 73.10316 51.47064 90.03852 51.47064"></polygon>
                    <path d="M90.03852,52.45968 L73.10316,52.45968 C72.7505877,52.4587707 72.4251588,52.2702415 72.2489884,51.9648367 C72.0728181,51.6594319 72.0725482,51.2833373 72.24828,50.97768 L80.7144,36.31368 C80.8900433,36.0053877 81.2175835,35.8150279 81.5724,35.8150279 C81.9272165,35.8150279 82.2547567,36.0053877 82.4304,36.31368 L90.89808,50.97768 C91.0738118,51.2833373 91.0735419,51.6594319 90.8973716,51.9648367 C90.7212012,52.2702415 90.3957723,52.4587707 90.0432,52.45968 L90.03852,52.45968 Z M74.81448,50.48316 L88.3272,50.48316 L81.57084,38.78316 L74.81448,50.48316 Z" id="Shape" fill="#2F2747"></path>
                    <polygon id="Path" fill="#8396AC" points="90.03852 22.13952 81.57084 36.80508 98.5062 36.80508"></polygon>
                    <path d="M98.748,36.94704 L81.32592,36.94704 L90.03852,21.85716 L98.748,36.94704 Z M81.81576,36.66 L98.26128,36.66 L90.03852,22.4172 L81.81576,36.66 Z" id="Shape" fill="#2F2747"></path>
                    <polygon id="Path" fill="#8396AC" points="90.03852 22.13952 81.57084 36.80508 98.5062 36.80508"></polygon>
                    <path d="M98.50464,37.79412 L81.57084,37.79412 C81.2179889,37.793766 80.8920508,37.6054562 80.7155004,37.2999501 C80.5389501,36.994444 80.5385307,36.6180187 80.7144,36.31212 L89.18208,21.64812 C89.3577233,21.3398277 89.6852635,21.1494679 90.04008,21.1494679 C90.3948965,21.1494679 90.7224367,21.3398277 90.89808,21.64812 L99.36576,36.31212 C99.5416293,36.6180187 99.5412099,36.994444 99.3646596,37.2999501 C99.1881092,37.6054562 98.8621711,37.793766 98.50932,37.79412 L98.50464,37.79412 Z M83.28216,35.8176 L96.79488,35.8176 L90.03852,24.1176 L83.28216,35.8176 Z" id="Shape" fill="#2F2747"></path>
                    <polygon id="Path" fill="#DA8288" points="149.30916 36.80508 157.77684 51.47064 140.84148 51.47064"></polygon>
                    <path d="M158.028,51.6126 L140.59812,51.6126 L149.30916,36.52272 L158.028,51.6126 Z M141.0864,51.324 L157.53192,51.324 L149.30916,37.0812 L141.0864,51.324 Z" id="Shape" fill="#2F2747"></path>
                    <polygon id="Path" fill="#DA8288" points="149.30916 36.80508 157.77684 51.47064 140.84148 51.47064"></polygon>
                    <path d="M157.77684,52.45968 L140.84148,52.45968 C140.488908,52.4587707 140.163479,52.2702415 139.987308,51.9648367 C139.811138,51.6594319 139.810868,51.2833373 139.9866,50.97768 L148.45428,36.31368 C148.629272,36.0045334 148.957042,35.8134289 149.31228,35.8134289 C149.667518,35.8134289 149.995288,36.0045334 150.17028,36.31368 L158.63796,50.97768 C158.813692,51.2833373 158.813422,51.6594319 158.637252,51.9648367 C158.461081,52.2702415 158.135652,52.4587707 157.78308,52.45968 L157.77684,52.45968 Z M142.5528,50.48316 L156.06552,50.48316 L149.30916,38.78316 L142.5528,50.48316 Z" id="Shape" fill="#2F2747"></path>
                    <polygon id="Path" fill="#DA8288" points="140.84148 22.13952 149.30916 36.80508 132.3738 36.80508"></polygon>
                    <path d="M149.55408,36.94704 L132.132,36.94704 L140.84304,21.85716 L149.55408,36.94704 Z M132.61872,36.66 L149.06424,36.66 L140.84148,22.4172 L132.61872,36.66 Z" id="Shape" fill="#2F2747"></path>
                    <polygon id="Path" fill="#DA8288" points="140.84148 22.13952 149.30916 36.80508 132.3738 36.80508"></polygon>
                    <path d="M149.30916,37.79412 L132.3738,37.79412 C132.021228,37.7932107 131.695799,37.6046815 131.519628,37.2992767 C131.343458,36.9938719 131.343188,36.6177773 131.51892,36.31212 L139.9866,21.64812 C140.162243,21.3398277 140.489784,21.1494679 140.8446,21.1494679 C141.199416,21.1494679 141.526957,21.3398277 141.7026,21.64812 L150.16872,36.31212 C150.344452,36.6177773 150.344182,36.9938719 150.168012,37.2992767 C149.991841,37.6046815 149.666412,37.7932107 149.31384,37.79412 L149.30916,37.79412 Z M134.08512,35.8176 L147.59784,35.8176 L140.84148,24.1176 L134.08512,35.8176 Z" id="Shape" fill="#2F2747"></path>
                    <path d="M30.77568,37.128 L34.51032,50.59236 L26.49504,50.59236 L30.23124,37.128 C30.2649855,37.0055004 30.3763974,36.9206296 30.50346,36.9206296 C30.6305226,36.9206296 30.7419345,37.0055004 30.77568,37.128 L30.77568,37.128 Z" id="Path" fill="#2F2747"></path>
                    <path d="M23.59812,33.04704 L28.46376,50.58456 L18.18804,50.58456 L23.05368,33.04704 C23.0874255,32.9245404 23.1988374,32.8396696 23.3259,32.8396696 C23.4529626,32.8396696 23.5643745,32.9245404 23.59812,33.04704 Z" id="Path" fill="#2F2747"></path>
                    <path d="M203.619,32.59152 L199.368,47.17752 L208.39884,47.17752 L204.15408,32.59152 C204.115345,32.4767247 204.007694,32.3994347 203.88654,32.3994347 C203.765386,32.3994347 203.657735,32.4767247 203.619,32.59152 L203.619,32.59152 Z" id="Path" fill="#2F2747"></path>
                    <path d="M211.70604,30.4044 L206.18832,49.36464 L217.76664,49.36464 L212.24736,30.4044 C212.211761,30.2846163 212.101662,30.2024784 211.9767,30.2024784 C211.851738,30.2024784 211.741639,30.2846163 211.70604,30.4044 L211.70604,30.4044 Z" id="Path" fill="#2F2747"></path>
                    <path d="M50.87784,40.51008 L50.87784,40.51008 L43.91868,45.7314 L48.73596,40.5444 C48.9681868,40.2927357 49.0836203,39.9548669 49.0539293,39.6137179 C49.0242384,39.2725689 48.8521717,38.9597219 48.57996,38.75196 L47.49732,37.92204 C45.3827082,36.301449 42.4437318,36.301449 40.32912,37.92204 L23.46708,50.856 L64.37184,50.856 L50.87784,40.51008 Z" id="Path" fill="#2F2747"></path>
                    <path d="M195.02808,37.14204 C192.957166,35.6068479 190.125794,35.6068479 188.05488,37.14204 L185.46372,39.0624 C185.114402,39.320916 184.884956,39.71013 184.827906,40.1409418 C184.770857,40.5717536 184.891089,41.0072732 185.16108,41.3478 L188.23584,45.24 L183.00828,40.88916 L170.859,49.89192 L212.22396,49.89192 L195.02808,37.14204 Z" id="Path" fill="#2F2747"></path>
                    <path d="M17.4025,82 L17.4025,72.601 L21.1855,72.601 L25.7485,82 L32.4955,82 L27.7765,72.133 C30.2725,71.665 31.5205,69.923 31.5205,66.907 L31.5205,66.907 L31.5205,60.082 C31.5205,58.236 31.0785,56.8775 30.1945,56.0065 C29.3105,55.1355 27.9585,54.7 26.1385,54.7 L26.1385,54.7 L10.9285,54.7 L10.9285,82 L17.4025,82 Z M24.3055,67.219 L17.4025,67.219 L17.4025,60.199 L24.3055,60.199 C24.5915,60.199 24.7865,60.251 24.8905,60.355 C24.9945,60.459 25.0465,60.654 25.0465,60.94 L25.0465,60.94 L25.0465,66.478 C25.0465,66.764 24.9945,66.959 24.8905,67.063 C24.7865,67.167 24.5915,67.219 24.3055,67.219 L24.3055,67.219 Z M48.2905,82 C50.0065,82 51.274,81.5905 52.093,80.7715 C52.912,79.9525 53.3215,78.685 53.3215,76.969 L53.3215,76.969 L53.3215,75.058 L47.1985,75.058 L47.1985,76.423 C47.1985,76.709 47.14,76.917 47.023,77.047 C46.906,77.177 46.6915,77.242 46.3795,77.242 L46.3795,77.242 L42.4015,77.242 C41.8555,77.242 41.5825,76.969 41.5825,76.423 L41.5825,76.423 L41.5825,73.069 L53.3215,73.069 L53.3215,65.971 C53.3215,64.255 52.912,62.9875 52.093,62.1685 C51.274,61.3495 50.0065,60.94 48.2905,60.94 L48.2905,60.94 L40.4905,60.94 C38.7745,60.94 37.507,61.3495 36.688,62.1685 C35.869,62.9875 35.4595,64.255 35.4595,65.971 L35.4595,65.971 L35.4595,76.969 C35.4595,78.685 35.869,79.9525 36.688,80.7715 C37.507,81.5905 38.7745,82 40.4905,82 L40.4905,82 L48.2905,82 Z M47.1985,69.325 L41.5825,69.325 L41.5825,66.517 C41.5825,66.205 41.6475,65.9905 41.7775,65.8735 C41.9075,65.7565 42.1155,65.698 42.4015,65.698 L42.4015,65.698 L46.3795,65.698 C46.6915,65.698 46.906,65.7565 47.023,65.8735 C47.14,65.9905 47.1985,66.205 47.1985,66.517 L47.1985,66.517 L47.1985,69.325 Z M62.7205,82.156 C63.6305,82.156 64.4235,82.065 65.0995,81.883 C65.7755,81.701 66.367,81.4605 66.874,81.1615 C67.381,80.8625 67.823,80.5245 68.2,80.1475 C68.577,79.7705 68.9085,79.387 69.1945,78.997 L69.1945,78.997 L69.1945,82 L75.1225,82 L75.1225,65.971 C75.1225,64.255 74.713,62.9875 73.894,62.1685 C73.075,61.3495 71.8075,60.94 70.0915,60.94 L70.0915,60.94 L62.7205,60.94 C61.0045,60.94 59.737,61.3495 58.918,62.1685 C58.099,62.9875 57.6895,64.255 57.6895,65.971 L57.6895,65.971 L57.6895,67.726 L63.7735,67.726 L63.7735,66.517 C63.7735,65.971 64.0465,65.698 64.5925,65.698 L64.5925,65.698 L68.1805,65.698 C68.7265,65.698 68.9995,65.971 68.9995,66.517 L68.9995,66.517 L68.9995,69.052 C67.8295,69.104 66.692,69.182 65.587,69.286 C64.482,69.39 63.4745,69.507 62.5645,69.637 C61.6545,69.767 60.855,69.949 60.166,70.183 C59.477,70.417 58.8985,70.7615 58.4305,71.2165 C57.9625,71.6715 57.605,72.276 57.358,73.03 C57.111,73.784 56.9875,74.733 56.9875,75.877 C56.9875,77.021 57.098,77.996 57.319,78.802 C57.54,79.608 57.878,80.258 58.333,80.752 C58.788,81.246 59.3795,81.6035 60.1075,81.8245 C60.8355,82.0455 61.7065,82.156 62.7205,82.156 Z M64.3585,77.359 C63.8645,77.359 63.533,77.2225 63.364,76.9495 C63.195,76.6765 63.1105,76.15 63.1105,75.37 C63.1105,74.642 63.2015,74.1545 63.3835,73.9075 C63.5655,73.6605 63.8775,73.485 64.3195,73.381 L64.3195,73.381 L68.9995,72.484 L68.9995,75.838 C68.2455,76.28 67.524,76.644 66.835,76.93 C66.146,77.216 65.3205,77.359 64.3585,77.359 Z M92.1265,82 C93.8425,82 95.11,81.5905 95.929,80.7715 C96.748,79.9525 97.1575,78.685 97.1575,76.969 L97.1575,76.969 L97.1575,74.083 L90.9955,74.083 L90.9955,76.111 C90.9955,76.657 90.7225,76.93 90.1765,76.93 L90.1765,76.93 L86.6275,76.93 C86.0815,76.93 85.8085,76.657 85.8085,76.111 L85.8085,76.111 L85.8085,66.829 C85.8085,66.517 85.8735,66.3025 86.0035,66.1855 C86.1335,66.0685 86.3415,66.01 86.6275,66.01 L86.6275,66.01 L90.1765,66.01 C90.4625,66.01 90.6705,66.0685 90.8005,66.1855 C90.9305,66.3025 90.9955,66.517 90.9955,66.829 L90.9955,66.829 L90.9955,68.857 L97.1575,68.857 L97.1575,65.971 C97.1575,64.255 96.748,62.9875 95.929,62.1685 C95.11,61.3495 93.8425,60.94 92.1265,60.94 L92.1265,60.94 L84.6775,60.94 C82.9615,60.94 81.694,61.3495 80.875,62.1685 C80.056,62.9875 79.6465,64.255 79.6465,65.971 L79.6465,65.971 L79.6465,76.969 C79.6465,78.685 80.056,79.9525 80.875,80.7715 C81.694,81.5905 82.9615,82 84.6775,82 L84.6775,82 L92.1265,82 Z M113.3425,82 L113.3425,77.008 L109.7545,77.008 C109.2085,77.008 108.9355,76.735 108.9355,76.189 L108.9355,76.189 L108.9355,65.815 L113.3425,65.815 L113.3425,60.94 L108.8575,60.94 L108.8575,55.87 L102.8515,55.87 L102.8515,60.94 L99.5755,60.94 L99.5755,65.815 L102.7735,65.815 L102.7735,76.969 C102.7735,78.685 103.183,79.9525 104.002,80.7715 C104.821,81.5905 106.0885,82 107.8045,82 L107.8045,82 L113.3425,82 Z M121.9225,82.156 C122.8325,82.156 123.6255,82.065 124.3015,81.883 C124.9775,81.701 125.569,81.4605 126.076,81.1615 C126.583,80.8625 127.025,80.5245 127.402,80.1475 C127.779,79.7705 128.1105,79.387 128.3965,78.997 L128.3965,78.997 L128.3965,82 L134.3245,82 L134.3245,65.971 C134.3245,64.255 133.915,62.9875 133.096,62.1685 C132.277,61.3495 131.0095,60.94 129.2935,60.94 L129.2935,60.94 L121.9225,60.94 C120.2065,60.94 118.939,61.3495 118.12,62.1685 C117.301,62.9875 116.8915,64.255 116.8915,65.971 L116.8915,65.971 L116.8915,67.726 L122.9755,67.726 L122.9755,66.517 C122.9755,65.971 123.2485,65.698 123.7945,65.698 L123.7945,65.698 L127.3825,65.698 C127.9285,65.698 128.2015,65.971 128.2015,66.517 L128.2015,66.517 L128.2015,69.052 C127.0315,69.104 125.894,69.182 124.789,69.286 C123.684,69.39 122.6765,69.507 121.7665,69.637 C120.8565,69.767 120.057,69.949 119.368,70.183 C118.679,70.417 118.1005,70.7615 117.6325,71.2165 C117.1645,71.6715 116.807,72.276 116.56,73.03 C116.313,73.784 116.1895,74.733 116.1895,75.877 C116.1895,77.021 116.3,77.996 116.521,78.802 C116.742,79.608 117.08,80.258 117.535,80.752 C117.99,81.246 118.5815,81.6035 119.3095,81.8245 C120.0375,82.0455 120.9085,82.156 121.9225,82.156 Z M123.5605,77.359 C123.0665,77.359 122.735,77.2225 122.566,76.9495 C122.397,76.6765 122.3125,76.15 122.3125,75.37 C122.3125,74.642 122.4035,74.1545 122.5855,73.9075 C122.7675,73.6605 123.0795,73.485 123.5215,73.381 L123.5215,73.381 L128.2015,72.484 L128.2015,75.838 C127.4475,76.28 126.726,76.644 126.037,76.93 C125.348,77.216 124.5225,77.359 123.5605,77.359 Z M151.1335,82 L151.1335,77.008 L147.5455,77.008 C146.9995,77.008 146.7265,76.735 146.7265,76.189 L146.7265,76.189 L146.7265,65.815 L151.1335,65.815 L151.1335,60.94 L146.6485,60.94 L146.6485,55.87 L140.6425,55.87 L140.6425,60.94 L137.3665,60.94 L137.3665,65.815 L140.5645,65.815 L140.5645,76.969 C140.5645,78.685 140.974,79.9525 141.793,80.7715 C142.612,81.5905 143.8795,82 145.5955,82 L145.5955,82 L151.1335,82 Z M161.3905,82 L161.3905,67.219 C162.1445,66.829 162.866,66.5365 163.555,66.3415 C164.244,66.1465 165.0955,66.049 166.1095,66.049 C166.6035,66.049 166.9285,66.114 167.0845,66.244 C167.2405,66.374 167.3185,66.608 167.3185,66.946 L167.3185,66.946 L167.3185,82 L173.4805,82 L173.4805,65.815 C173.4805,64.047 173.045,62.7535 172.174,61.9345 C171.303,61.1155 169.8275,60.706 167.7475,60.706 C166.8375,60.706 166.051,60.7905 165.388,60.9595 C164.725,61.1285 164.153,61.3495 163.672,61.6225 C163.191,61.8955 162.7685,62.214 162.4045,62.578 C162.0405,62.942 161.7025,63.319 161.3905,63.709 L161.3905,63.709 L161.3905,53.53 L155.2285,53.53 L155.2285,82 L161.3905,82 Z M191.1085,82 C192.8245,82 194.092,81.5905 194.911,80.7715 C195.73,79.9525 196.1395,78.685 196.1395,76.969 L196.1395,76.969 L196.1395,65.971 C196.1395,64.255 195.73,62.9875 194.911,62.1685 C194.092,61.3495 192.8245,60.94 191.1085,60.94 L191.1085,60.94 L183.0355,60.94 C181.3195,60.94 180.052,61.3495 179.233,62.1685 C178.414,62.9875 178.0045,64.255 178.0045,65.971 L178.0045,65.971 L178.0045,76.969 C178.0045,78.685 178.414,79.9525 179.233,80.7715 C180.052,81.5905 181.3195,82 183.0355,82 L183.0355,82 L191.1085,82 Z M189.2365,76.93 L184.9075,76.93 C184.3615,76.93 184.0885,76.657 184.0885,76.111 L184.0885,76.111 L184.0885,66.829 C184.0885,66.517 184.1535,66.3025 184.2835,66.1855 C184.4135,66.0685 184.6215,66.01 184.9075,66.01 L184.9075,66.01 L189.2365,66.01 C189.5225,66.01 189.7305,66.0685 189.8605,66.1855 C189.9905,66.3025 190.0555,66.517 190.0555,66.829 L190.0555,66.829 L190.0555,76.111 C190.0555,76.657 189.7825,76.93 189.2365,76.93 L189.2365,76.93 Z M207.0205,82 L207.0205,67.219 C207.7745,66.829 208.496,66.5365 209.185,66.3415 C209.874,66.1465 210.7255,66.049 211.7395,66.049 C212.2335,66.049 212.5585,66.114 212.7145,66.244 C212.8705,66.374 212.9485,66.608 212.9485,66.946 L212.9485,66.946 L212.9485,82 L219.1105,82 L219.1105,65.815 C219.1105,64.047 218.675,62.7535 217.804,61.9345 C216.933,61.1155 215.4575,60.706 213.3775,60.706 C212.4675,60.706 211.681,60.7905 211.018,60.9595 C210.355,61.1285 209.783,61.3495 209.302,61.6225 C208.821,61.8955 208.3985,62.214 208.0345,62.578 C207.6705,62.942 207.3325,63.319 207.0205,63.709 L207.0205,63.709 L207.0205,60.94 L200.8585,60.94 L200.8585,82 L207.0205,82 Z" id="Reactathon" fill="#F9F8E2"></path>
                </g>
            </g>
        </g>
    </g>
</svg>