<svg width="1863" height="1863" viewBox="0 0 1863 1863" fill="none" xmlns="http://www.w3.org/2000/svg">
<circle cx="931.5" cy="931.5" r="931.5" fill="#DA8288"/>
<path d="M218.048 1002.6C225.73 991.361 229.549 980.826 229.549 970.993C229.549 961.16 227.508 952.446 223.403 944.764C219.321 937.104 213.57 931.112 206.217 926.788C198.843 922.464 190.458 920.313 181.108 920.313C173.514 920.313 166.183 922.025 159.116 925.427C152.027 928.873 145.991 933.461 141.03 939.277C136.026 945.071 132.712 951.48 131.088 958.46C130.912 959.075 130.846 959.799 130.846 960.699C130.846 962.938 131.636 964.693 133.195 965.944C134.753 967.217 136.794 967.832 139.34 967.832H147.395C149.919 967.832 151.851 967.283 153.19 966.164C154.529 965.045 155.868 963.157 157.228 960.479C159.291 956.441 162.584 952.995 167.039 950.076C171.517 947.179 176.214 945.73 181.13 945.73C188.264 945.73 193.707 947.925 197.438 952.314C201.147 956.704 203.013 962.916 203.013 970.949C203.013 980.782 195.507 993.797 180.472 1010.04C165.437 1026.26 150.688 1040.46 136.246 1052.69C135.653 1053.12 134.885 1053.74 133.897 1054.48C132.931 1055.23 132.097 1056.04 131.439 1056.92C130.78 1057.82 130.363 1058.94 130.21 1060.28C130.056 1061.03 129.99 1062.36 129.99 1064.32V1069.89C129.99 1075.86 132.953 1078.83 138.901 1078.83H219.277C225.247 1078.83 228.21 1075.86 228.21 1069.89V1062.3C228.21 1056.35 225.247 1053.39 219.277 1053.39H170.617C179.243 1045.79 187.408 1038.24 195.068 1030.71C202.75 1023.21 210.388 1013.81 218.07 1002.58L218.048 1002.6Z" fill="#F9F8E2"/>
<path d="M278.033 1072.4C285.474 1076.72 293.573 1078.87 302.374 1078.87C311.175 1078.87 319.275 1076.72 326.715 1072.4C334.156 1068.07 340.038 1062.19 344.362 1054.75C348.686 1047.31 350.837 1039.21 350.837 1030.41V970.993C350.837 962.214 348.686 954.093 344.362 946.652C340.038 939.212 334.156 933.33 326.715 929.028C319.275 924.704 311.175 922.553 302.374 922.553C293.573 922.553 285.474 924.704 278.033 929.028C270.593 933.33 264.71 939.212 260.387 946.652C256.063 954.093 253.912 962.214 253.912 970.993V1030.41C253.912 1039.21 256.063 1047.31 260.387 1054.75C264.71 1062.19 270.593 1068.07 278.033 1072.4ZM278.911 971.015C278.911 964.474 281.238 958.921 285.825 954.378C290.434 949.835 295.943 947.596 302.352 947.596C308.761 947.596 314.446 949.857 318.989 954.378C323.533 958.943 325.793 964.474 325.793 971.015V1030.43C325.793 1036.84 323.511 1042.35 318.989 1046.96C314.446 1051.57 308.915 1053.87 302.352 1053.87C295.79 1053.87 290.434 1051.57 285.825 1046.96C281.238 1042.35 278.911 1036.84 278.911 1030.43V971.015Z" fill="#F9F8E2"/>
<path d="M1608.07 1002.14C1600.39 1013.4 1592.71 1022.81 1585 1030.34C1577.32 1037.87 1569.13 1045.46 1560.49 1053.06H1609.3C1615.27 1053.06 1618.26 1056.04 1618.26 1062.01V1069.63C1618.26 1075.6 1615.27 1078.58 1609.3 1078.58H1528.71C1522.74 1078.58 1519.75 1075.6 1519.75 1069.63V1064.03C1519.75 1062.1 1519.82 1060.74 1519.97 1059.99C1520.12 1058.66 1520.52 1057.54 1521.2 1056.64C1521.88 1055.74 1522.69 1054.92 1523.66 1054.18C1524.62 1053.43 1525.41 1052.84 1526.01 1052.38C1540.47 1040.13 1555.26 1025.89 1570.34 1009.62C1585.42 993.358 1592.95 980.299 1592.95 970.444C1592.95 962.389 1591.08 956.156 1587.35 951.744C1583.62 947.354 1578.18 945.138 1571 945.138C1566.08 945.138 1561.37 946.586 1556.89 949.505C1552.41 952.424 1549.12 955.892 1547.03 959.909C1545.69 962.587 1544.35 964.496 1542.99 965.615C1541.63 966.735 1539.7 967.284 1537.18 967.284H1529.12C1526.58 967.284 1524.54 966.647 1522.98 965.374C1521.42 964.101 1520.63 962.345 1520.63 960.106C1520.63 959.206 1520.69 958.46 1520.85 957.868C1522.49 950.844 1525.81 944.435 1530.81 938.619C1535.82 932.802 1541.85 928.171 1548.94 924.747C1556.03 921.323 1563.38 919.589 1571 919.589C1580.39 919.589 1588.8 921.762 1596.18 926.086C1603.57 930.41 1609.3 936.424 1613.41 944.106C1617.51 951.788 1619.55 960.567 1619.55 970.422C1619.55 980.277 1615.71 990.834 1608.03 1002.09L1608.07 1002.14Z" fill="#F9F8E2"/>
<path d="M1740.95 1009.75C1744.99 1016.1 1746.98 1022.86 1746.98 1030.01C1746.98 1038.81 1744.81 1046.96 1740.49 1054.42C1736.16 1061.88 1730.26 1067.79 1722.8 1072.11C1715.33 1076.43 1707.19 1078.61 1698.39 1078.61C1690.62 1078.61 1683.36 1076.89 1676.57 1073.45C1669.77 1070.02 1664.11 1065.35 1659.56 1059.45C1655 1053.54 1652.06 1046.87 1650.72 1039.41C1650.56 1038.97 1650.5 1038.29 1650.5 1037.39C1650.5 1034.99 1651.29 1033.17 1652.85 1031.9C1654.41 1030.63 1656.53 1029.99 1659.23 1029.99H1666.63C1669.31 1029.99 1671.37 1030.63 1672.78 1031.9C1674.2 1033.17 1675.34 1035.21 1676.24 1038.05C1677.89 1042.52 1680.77 1046.21 1684.87 1049.13C1688.97 1052.05 1693.5 1053.5 1698.41 1053.5C1704.97 1053.5 1710.53 1051.19 1715.09 1046.56C1719.64 1041.93 1721.92 1036.42 1721.92 1029.99C1721.92 1024.02 1719.94 1018.99 1715.99 1014.89C1712.04 1010.79 1706.03 1008.22 1697.97 1007.16C1694.99 1006.73 1692.75 1005.74 1691.26 1004.24C1689.76 1002.75 1689.02 1000.58 1689.02 997.748V990.132C1689.02 987.301 1689.76 985.128 1691.26 983.635C1692.75 982.143 1694.99 981.177 1697.97 980.716C1704.1 979.816 1708.57 977.885 1711.41 974.9C1714.24 971.915 1715.66 968.337 1715.66 964.145C1715.66 959.36 1714 955.3 1710.64 951.942C1707.28 948.583 1703.22 946.915 1698.43 946.915C1695.14 946.915 1692.13 947.815 1689.37 949.593C1686.6 951.393 1684.47 953.697 1682.98 956.529C1681.64 959.36 1680.33 961.335 1679.08 962.455C1677.8 963.574 1675.89 964.123 1673.37 964.123H1665.53C1662.86 964.123 1660.75 963.53 1659.26 962.323C1657.76 961.138 1657.02 959.404 1657.02 957.165C1657.02 956.134 1657.08 955.3 1657.24 954.707C1659.32 945.159 1664.22 937.28 1671.9 931.09C1679.58 924.901 1688.43 921.806 1698.43 921.806C1706.05 921.806 1713.1 923.716 1719.59 927.513C1726.09 931.31 1731.22 936.468 1735.04 942.965C1738.84 949.461 1740.75 956.507 1740.75 964.123C1740.75 969.5 1739.32 974.68 1736.49 979.684C1733.66 984.689 1729.78 989.122 1724.86 993.007C1731.58 997.792 1736.95 1003.35 1740.97 1009.69L1740.95 1009.75Z" fill="#F9F8E2"/>
<path d="M193.136 692.663L333.19 752.407C335.253 753.285 337.163 753.724 338.94 753.724C340.213 753.724 341.377 753.504 342.496 753.065C345.152 752.012 347.237 749.685 348.729 746.174L351.802 738.953C353.295 735.441 353.514 732.324 352.461 729.668C351.407 727.013 349.081 724.927 345.569 723.435L298.577 703.396C293.595 701.267 292.322 698.106 294.451 693.124L297.633 685.662C298.533 683.554 299.696 681.908 301.079 680.789C302.462 679.648 304.262 678.857 306.479 678.397L376.429 663.581C379.282 662.835 381.696 661.694 383.562 660.157C385.449 658.621 386.986 656.47 388.149 653.748L392.188 644.267C393.373 641.479 393.746 638.955 393.241 636.76C392.692 634.368 391.222 632.59 388.983 631.624C386.81 630.702 384.22 630.527 381.257 631.141L322.303 643.828C319.713 644.201 318.331 643.937 317.65 643.652C315.785 642.862 314.907 640.426 315.016 636.475C315.543 626.159 312.844 616.524 307.027 607.81C301.233 599.162 292.783 592.446 281.918 587.815C272.766 583.908 263.547 582.328 254.548 583.206C245.483 584.062 237.319 587.178 230.251 592.49C223.206 597.779 217.762 604.825 214.097 613.407L186.925 677.102C185.432 680.613 185.213 683.73 186.266 686.386C187.342 689.042 189.646 691.149 193.158 692.641L193.136 692.663ZM226.674 664.196L243.047 625.808C245.462 620.167 248.995 616.787 253.868 615.426C255.711 614.921 257.621 614.658 259.531 614.658C262.779 614.658 266.115 615.382 269.517 616.831C275.092 619.201 279.196 622.735 281.721 627.322C284.179 631.8 284.201 636.782 281.721 642.555L265.435 680.723C264.381 683.203 263.02 684.806 261.396 685.464C259.772 686.1 257.687 685.903 255.185 684.849L230.8 674.424C225.84 672.317 224.545 669.156 226.674 664.174V664.196Z" fill="#2F2746"/>
<path d="M281.303 509.13L401.735 602.323C404.347 604.343 406.937 605.352 409.417 605.352C412.644 605.352 415.694 603.64 418.328 600.216L481.452 518.634C486.127 512.598 485.381 506.693 479.345 502.018L472.541 496.773C469.534 494.446 466.593 493.437 463.74 493.81C460.909 494.161 458.297 495.873 455.948 498.902L410.098 558.141C406.739 562.465 403.469 562.904 399.145 559.546L381.674 546.025C377.35 542.667 376.911 539.397 380.269 535.073L418.614 485.535C423.267 479.499 422.52 473.595 416.485 468.92L409.681 463.674C406.674 461.348 403.733 460.36 400.857 460.711C398.026 461.062 395.414 462.774 393.087 465.803L354.743 515.319C353.097 517.47 351.363 518.655 349.629 518.897C347.895 519.138 345.942 518.392 343.791 516.724L323.401 500.943C319.077 497.585 318.638 494.315 321.996 489.969L367.847 430.73C372.5 424.694 371.753 418.79 365.718 414.115L358.914 408.869C355.907 406.542 352.944 405.533 350.09 405.906C347.259 406.257 344.647 407.969 342.32 410.998L279.174 492.581C274.521 498.616 275.268 504.521 281.303 509.174V509.13Z" fill="#2F2746"/>
<path d="M490.429 484.503C490.868 486.347 491.658 488.059 492.822 489.573C494.468 491.746 496.641 492.91 499.121 492.932H499.231C501.535 492.932 503.906 491.988 506.496 490.034L514.704 483.801C519.775 479.938 521.53 474.736 519.818 468.766L513.98 447.257C512.707 442.801 513.87 439.377 517.667 436.524L566.547 399.387C570.322 396.512 573.944 396.314 577.916 398.75L597.011 410.12C602.301 413.39 607.81 413.083 612.88 409.242L621.089 403.008C623.657 401.055 625.281 398.926 625.852 396.687C626.488 394.295 625.962 391.88 624.294 389.686C623.13 388.171 621.704 386.942 620.123 386.064L478.884 301.211C473.595 297.963 468.086 298.248 463.038 302.111L451.69 310.737C446.62 314.578 444.864 319.779 446.576 325.771L490.407 484.525L490.429 484.503ZM489.222 348.334C490.715 347.171 492.975 347.544 495.96 349.322L534.085 372.258C535.248 372.895 536.192 373.685 536.916 374.651C537.838 375.858 538.102 377.021 537.75 378.36C537.377 379.809 536.258 381.279 534.414 382.662L510.161 401.077C508.317 402.482 506.671 403.03 505.091 403.14C503.73 403.118 502.677 402.547 501.755 401.34C501.03 400.396 500.526 399.277 500.196 397.916L488.344 355.117C486.939 350.046 488.63 348.773 489.2 348.334H489.222Z" fill="#2F2746"/>
<path d="M632.129 349.432C644.464 359.331 658.577 365.652 674.029 368.242C678.748 369.032 683.445 369.427 688.12 369.427C698.787 369.427 709.3 367.386 719.55 363.325C728.396 359.835 736.516 354.919 743.672 348.773C750.827 342.606 756.994 335.319 762.021 326.978L763.952 323.379C766.103 319.823 766.498 316.311 765.181 312.997C764.303 310.78 762.591 308.827 760.067 307.137L753.044 302.769C748.808 300.201 745.12 299.543 742.069 300.706C740.423 301.364 739.15 302.484 738.338 303.976L734.717 310.166C728.352 320.986 719.265 328.778 707.72 333.343C698.216 337.119 688.405 338.172 678.528 336.504C668.63 334.836 659.587 330.732 651.598 324.301C643.63 317.892 637.66 309.727 633.819 300.047C630 290.368 628.771 280.316 630.176 270.197C631.58 260.057 635.378 250.861 641.435 242.871C647.493 234.904 655.373 228.934 664.876 225.181C676.421 220.616 688.383 220.089 700.433 223.579L704.296 224.676C707.281 225.554 710.025 225.51 712.439 224.544C715.643 223.271 717.794 220.506 718.848 216.38L720.977 208.39C721.855 205.032 721.789 202.047 720.779 199.523C719.836 197.153 718.058 195.463 715.292 194.431L708.708 192.543C699.445 189.932 689.92 188.834 680.526 189.251C671.088 189.668 661.804 191.665 652.98 195.155C638.231 200.994 625.94 210.278 616.436 222.767C606.932 235.233 600.984 249.5 598.789 265.149C596.573 280.821 598.482 296.448 604.496 311.636C610.51 326.803 619.816 339.533 632.151 349.432H632.129Z" fill="#2F2746"/>
<path d="M775.365 180.626C775.826 184.401 777.209 187.21 779.47 188.966C781.709 190.722 784.759 191.359 788.557 190.92L816.102 187.562C821.479 186.859 824.157 189.01 824.816 194.366L839.872 317.475C840.706 324.279 844.569 327.923 850.846 327.923C851.549 327.923 852.295 327.879 853.063 327.791L861.601 326.737C865.376 326.277 868.186 324.894 869.942 322.633C871.698 320.372 872.356 317.322 871.895 313.546L856.838 190.437C856.509 187.759 856.904 185.696 857.958 184.291C859.033 182.909 860.965 182.053 863.643 181.723L890.947 178.387C894.722 177.926 897.531 176.544 899.287 174.305C901.043 172.066 901.701 168.993 901.24 165.218L900.187 156.68C899.265 149.108 894.524 145.442 886.996 146.364L784.606 158.897C777.033 159.841 773.368 164.516 774.29 172.088L775.343 180.626H775.365Z" fill="#2F2746"/>
<path d="M923.079 318.616L933.351 319.67C939.738 320.306 944.523 317.716 947.332 312.185L957.758 292.475C959.865 288.349 963.07 286.593 967.767 287.142L1028.85 293.397C1033.59 293.88 1036.36 296.185 1037.58 300.684L1043.77 322.04C1045.42 328.054 1049.66 331.588 1055.98 332.224L1066.25 333.278C1066.93 333.344 1067.57 333.388 1068.18 333.388C1070.53 333.388 1072.48 332.905 1074.04 331.939C1076.13 330.622 1077.4 328.493 1077.68 325.771C1077.88 323.884 1077.68 322.018 1077.11 320.284L1031.86 161.838C1030.21 155.824 1026 152.312 1019.65 151.654L1005.47 150.205C999.175 149.634 994.302 152.158 991.471 157.689L915.09 303.603C914.146 305.25 913.576 307.049 913.378 308.937C913.093 311.659 913.905 313.985 915.683 315.697C917.351 317.299 919.831 318.287 923.035 318.616H923.079ZM980.211 250.598C980.321 249.39 980.716 248.249 981.419 247.02L1001.98 207.644C1004.05 203.694 1005.87 203.255 1006.81 203.255C1006.99 203.255 1007.12 203.255 1007.23 203.277C1007.91 203.342 1010.04 203.562 1011.47 208.61L1023.67 251.41C1024.09 252.661 1024.22 253.89 1024.11 255.075C1023.95 256.568 1023.36 257.599 1022.2 258.345C1020.93 259.158 1019.13 259.443 1016.82 259.201L986.533 256.107C984.228 255.887 982.516 255.229 981.44 254.175C980.475 253.231 980.08 252.09 980.233 250.576L980.211 250.598Z" fill="#2F2746"/>
<path d="M1124.65 353.887L1132.78 356.675C1134.55 357.289 1136.2 357.575 1137.74 357.575C1142.43 357.575 1145.94 354.743 1147.81 349.3L1187.84 231.897C1188.72 229.329 1189.97 227.639 1191.53 226.871C1193.11 226.103 1195.22 226.147 1197.77 227.025L1223.8 235.892C1227.42 237.121 1230.53 237.099 1233.1 235.848C1235.67 234.575 1237.58 232.117 1238.81 228.517L1241.6 220.374C1244.05 213.153 1241.44 207.82 1234.22 205.362L1136.59 172.066C1129.35 169.607 1124.02 172.219 1121.58 179.44L1118.82 187.561C1117.59 191.161 1117.59 194.3 1118.86 196.867C1120.13 199.435 1122.59 201.345 1126.19 202.574L1152.44 211.529C1155.01 212.407 1156.7 213.658 1157.47 215.216C1158.24 216.797 1158.19 218.882 1157.31 221.45L1117.28 338.853C1116.05 342.452 1116.05 345.591 1117.32 348.159C1118.6 350.727 1121.06 352.636 1124.65 353.865V353.887Z" fill="#2F2746"/>
<path d="M1216.47 384.879C1216.99 387.688 1218.86 390.19 1222.02 392.341L1229.33 397.324C1235.63 401.626 1241.46 400.506 1245.77 394.207L1274.15 352.615C1277.18 348.137 1280.53 347.522 1285.01 350.551L1343.64 390.542C1348.09 393.592 1348.73 396.951 1345.7 401.406L1317.32 442.999C1313.02 449.298 1314.14 455.136 1320.44 459.438L1327.55 464.289C1330.07 466.023 1332.53 466.879 1334.83 466.879C1338.28 466.879 1341.42 464.969 1343.99 461.194L1429.81 335.407C1431.96 332.268 1432.77 329.239 1432.24 326.43C1431.71 323.62 1429.85 321.118 1426.69 318.967L1419.58 314.139C1416.44 311.966 1413.39 311.176 1410.6 311.68C1407.79 312.207 1405.29 314.073 1403.14 317.233L1372.7 361.877C1369.62 366.332 1366.29 366.969 1361.83 363.94L1303.21 323.95C1300.97 322.413 1299.67 320.767 1299.34 319.055C1299.01 317.343 1299.63 315.324 1301.14 313.085L1331.59 268.442C1333.74 265.303 1334.55 262.274 1334.02 259.465C1333.5 256.655 1331.63 254.153 1328.47 252.002L1321.16 247.02C1318.02 244.869 1314.99 244.035 1312.18 244.584C1309.37 245.111 1306.87 246.976 1304.72 250.137L1218.9 375.924C1216.75 379.063 1215.94 382.091 1216.47 384.901V384.879Z" fill="#2F2746"/>
<path d="M1386.08 457.989C1380.6 472.936 1379.06 488.52 1381.54 504.279C1384.02 520.016 1390.54 534.414 1400.9 547.056C1411.26 559.677 1424.12 568.851 1439.11 574.36C1449.43 578.157 1460.03 580.045 1470.81 580.045C1475.66 580.045 1480.53 579.65 1485.4 578.882C1501.14 576.402 1515.54 569.883 1528.18 559.523C1540.8 549.163 1549.97 536.302 1555.48 521.311C1560.97 506.342 1562.51 490.758 1560.03 475.021C1557.55 459.262 1551.03 444.864 1540.67 432.243C1530.31 419.623 1517.45 410.449 1502.46 404.939C1487.46 399.43 1471.9 397.916 1456.17 400.396C1440.43 402.876 1426.03 409.395 1413.39 419.755C1400.77 430.136 1391.59 442.976 1386.08 457.967V457.989ZM1433.87 444.71C1441.9 438.104 1451.12 433.934 1461.3 432.309C1464.48 431.805 1467.67 431.541 1470.81 431.541C1477.74 431.541 1484.59 432.77 1491.22 435.228C1500.87 438.806 1509.13 444.688 1515.71 452.721C1522.32 460.755 1526.49 469.995 1528.11 480.157C1529.74 490.363 1528.77 500.416 1525.19 510.073C1521.62 519.73 1515.73 527.983 1507.7 534.568C1499.67 541.174 1490.45 545.344 1480.27 546.969C1470.12 548.615 1460.01 547.627 1450.35 544.049C1440.69 540.472 1432.44 534.59 1425.85 526.556C1419.25 518.523 1415.08 509.305 1413.45 499.121C1411.81 488.959 1412.8 478.884 1416.37 469.205C1419.95 459.547 1425.83 451.295 1433.87 444.71Z" fill="#2F2746"/>
<path d="M1472.08 643.806L1475.06 651.071C1476.51 654.605 1478.58 656.953 1481.21 658.051C1483.84 659.17 1486.98 658.994 1490.49 657.546L1579.12 621.243C1581.32 620.343 1583.12 620.036 1584.43 620.299C1585.79 620.584 1586.19 621.177 1586.41 621.66C1587.15 623.482 1585.86 626.137 1584.65 628.003L1515.87 731.512C1514.11 734.014 1513.1 736.539 1512.88 738.997C1512.66 741.411 1513.1 744.023 1514.22 746.767L1519.16 758.816C1520.61 762.35 1522.67 764.699 1525.3 765.796C1526.44 766.279 1527.67 766.52 1528.99 766.52C1530.72 766.52 1532.59 766.103 1534.59 765.291L1675.5 707.588C1679.03 706.14 1681.38 704.077 1682.48 701.443C1683.57 698.809 1683.42 695.692 1681.97 692.159L1678.99 684.894C1677.54 681.36 1675.48 679.011 1672.84 677.914C1670.21 676.817 1667.07 676.992 1663.56 678.441L1574.91 714.744C1572.73 715.644 1570.91 715.973 1569.6 715.687C1568.21 715.402 1567.82 714.81 1567.62 714.327C1566.87 712.505 1568.17 709.849 1569.38 707.984L1638.16 604.474C1639.92 601.972 1640.93 599.448 1641.15 596.99C1641.37 594.553 1640.93 591.942 1639.81 589.22L1634.89 577.17C1632 570.125 1626.49 567.82 1619.46 570.695L1478.53 628.398C1471.49 631.295 1469.18 636.761 1472.06 643.828L1472.08 643.806Z" fill="#2F2746"/>
<path d="M931.903 49C445.062 49 49 445.062 49 931.903C49 1418.74 445.062 1814.81 931.903 1814.81C1418.74 1814.81 1814.81 1418.74 1814.81 931.903C1814.81 445.062 1418.74 49 931.903 49ZM931.903 1782.65C462.796 1782.65 81.1327 1400.99 81.1327 931.881C81.1327 462.774 462.796 81.1327 931.903 81.1327C1401.01 81.1327 1782.67 462.796 1782.67 931.903C1782.67 1401.01 1401.01 1782.67 931.903 1782.67V1782.65Z" fill="#F9F8E2"/>
<path d="M931.903 1019.1C979.882 1019.1 1018.91 980.08 1018.91 932.1C1018.91 884.121 979.882 845.096 931.903 845.096C883.923 845.096 844.898 884.121 844.898 932.1C844.898 980.08 883.923 1019.1 931.903 1019.1Z" fill="#F9F8E2"/>
<path d="M1221.82 1145.77C1219.08 1128.69 1215.13 1110.89 1210.61 1092.79C1332 1057.47 1409.92 999.219 1409.92 932.078C1409.92 864.937 1332 806.708 1210.61 771.393C1215.13 753.285 1219.08 735.485 1221.82 718.431C1238 617.533 1219.91 546.398 1170.92 518.128C1121.85 489.859 1051.24 509.744 972.003 574.185C958.57 585.093 945.138 597.428 931.705 610.4C840.465 523.001 751.09 484.635 692.883 518.106C634.719 551.71 623.262 648.437 653.441 771.327C531.912 806.642 453.863 864.916 453.863 932.078C453.863 999.241 531.78 1057.47 653.178 1092.79C648.656 1110.89 644.706 1128.69 641.962 1145.77C625.786 1246.67 643.872 1317.8 692.861 1346.07C706.82 1354.13 722.864 1358.23 740.621 1358.23C795.097 1358.23 863.225 1319.07 931.859 1253.16C1000.51 1319.07 1068.62 1358.23 1123.12 1358.23C1140.81 1358.23 1156.9 1354.15 1170.88 1346.07C1219.87 1317.8 1237.95 1246.64 1221.78 1145.77H1221.82ZM1000.8 609.676C1047.22 571.946 1090 551.161 1121.27 551.161C1131.48 551.161 1140.5 553.378 1148.03 557.724C1178.98 575.59 1189.4 631.515 1176.65 711.188C1174.13 726.903 1170.48 743.299 1166.36 759.979C1128.14 751.31 1086.55 744.725 1042.46 740.599C1016.82 704.494 990.33 671.768 963.706 643.016C976.085 631.076 988.464 619.728 1000.8 609.698V609.676ZM761.582 1030.41C770.208 1045.33 779.119 1059.8 788.14 1074C760.397 1070.4 734.234 1065.81 709.805 1060.41C717.487 1036.14 726.618 1011.27 737.153 985.962C744.879 1000.71 753.022 1015.55 761.582 1030.41ZM709.959 803.723C734.322 798.346 760.397 793.78 788.052 790.181C779.031 804.403 770.164 818.889 761.582 833.749C753.044 848.52 744.989 863.357 737.219 878.194C726.705 852.888 717.597 827.998 709.959 803.701V803.723ZM761.231 932.056C773.368 906.969 786.691 881.728 801.177 856.619C815.685 831.51 830.873 807.344 846.545 784.277C873.871 782.279 902.316 781.16 931.859 781.16C961.401 781.16 989.847 782.279 1017.15 784.277C1032.51 806.862 1047.73 830.939 1062.54 856.619C1077.05 881.728 1090.37 906.969 1102.51 932.078C1090.37 957.187 1077.05 982.428 1062.54 1007.54C1047.64 1033.35 1032.43 1057.34 1017.11 1079.88C989.803 1081.88 961.379 1083 931.837 1083C902.294 1083 873.849 1081.88 846.567 1079.88C831.246 1057.34 816.058 1033.35 801.155 1007.54C786.669 982.428 773.324 957.187 761.209 932.056H761.231ZM1102.2 1030.39C1110.74 1015.59 1118.82 1000.73 1126.61 985.874C1137.14 1011.2 1146.3 1036.09 1153.98 1060.39C1129.55 1065.79 1103.39 1070.38 1075.64 1073.98C1084.66 1059.77 1093.58 1045.33 1102.2 1030.39V1030.39ZM1102.2 833.749C1093.58 818.824 1084.77 804.316 1075.82 790.181C1103.5 793.78 1129.62 798.346 1153.98 803.745C1146.3 828.042 1137.14 852.954 1126.61 878.282C1118.84 863.423 1110.74 848.564 1102.2 833.77V833.749ZM931.815 675.763C948.605 694.024 965.594 714.37 982.538 736.473C965.923 735.792 949.022 735.419 931.881 735.419C914.739 735.419 897.816 735.792 881.158 736.473C897.751 714.765 914.673 694.485 931.793 675.741L931.815 675.763ZM715.753 557.68C722.996 553.487 731.754 551.358 741.828 551.358C779.755 551.358 837.085 582.942 899.814 643.103C873.015 672.251 846.72 704.976 821.501 740.555C777.429 744.703 735.858 751.244 697.646 759.914C693.629 743.65 690.095 727.649 687.637 712.307C674.907 633.007 685.42 575.217 715.775 557.702L715.753 557.68ZM665.469 1049.22C561.85 1019.43 499.604 974.329 499.604 932.056C499.604 889.783 561.872 844.657 665.557 814.895C677.168 852.449 692.312 891.846 710.837 932.232C692.554 972.024 677.321 1011.31 665.469 1049.22ZM766.389 1309.24C745.603 1314.79 728.571 1313.87 715.753 1306.43C684.806 1288.57 674.358 1232.64 687.132 1152.97C689.656 1137.28 693.278 1120.86 697.426 1104.2C735.704 1112.89 777.363 1119.47 821.545 1123.6C847.049 1159.42 873.497 1192.19 900.231 1221.05C848.981 1270.31 801.835 1299.78 766.367 1309.26L766.389 1309.24ZM931.903 1188.46C915.09 1170.15 898.036 1150.01 880.916 1127.64C897.641 1128.34 914.651 1128.72 931.903 1128.72C949.154 1128.72 966.142 1128.34 982.889 1127.64C965.769 1150.01 948.715 1170.15 931.903 1188.46ZM1148.07 1306.43C1135.26 1313.85 1118.22 1314.77 1097.42 1309.24C1061.93 1299.76 1014.8 1270.28 963.552 1221.03C990.286 1192.17 1016.76 1159.4 1042.26 1123.58C1086.44 1119.43 1128.1 1112.87 1166.38 1104.18C1170.53 1120.86 1174.17 1137.25 1176.67 1152.95C1189.42 1232.62 1179 1288.57 1148.05 1306.41L1148.07 1306.43ZM1152.92 932.056C1171.23 892.219 1186.48 852.888 1198.38 814.895C1302 844.679 1364.25 889.783 1364.25 932.034C1364.25 974.285 1302 1019.41 1198.38 1049.2C1186.51 1011.22 1171.23 971.893 1152.92 932.056V932.056Z" fill="#F9F8E2"/>
<path d="M246.208 840.977C256.065 831.12 256.065 815.139 246.208 805.281C236.351 795.424 220.369 795.424 210.512 805.281C200.655 815.139 200.655 831.12 210.512 840.977C220.369 850.835 236.351 850.835 246.208 840.977Z" fill="#2F2746"/>
<path d="M1646.66 846.44C1659.54 841.105 1665.66 826.34 1660.32 813.461C1654.99 800.582 1640.22 794.466 1627.34 799.801C1614.47 805.135 1608.35 819.9 1613.68 832.779C1619.02 845.658 1633.78 851.774 1646.66 846.44Z" fill="#2F2746"/>
<path d="M289.754 1212.95C303.694 1212.95 314.995 1201.65 314.995 1187.71C314.995 1173.77 303.694 1162.47 289.754 1162.47C275.814 1162.47 264.513 1173.77 264.513 1187.71C264.513 1201.65 275.814 1212.95 289.754 1212.95Z" fill="#2F2746"/>
<path d="M1598.94 1210.89C1604.27 1198.01 1598.16 1183.24 1585.28 1177.91C1572.4 1172.57 1557.64 1178.69 1552.3 1191.57C1546.97 1204.45 1553.08 1219.21 1565.96 1224.55C1578.84 1229.88 1593.6 1223.77 1598.94 1210.89Z" fill="#2F2746"/>
<path d="M423.837 1312.03C425.067 1317.65 425.132 1323.09 424.035 1328.38C422.916 1333.67 420.677 1338.24 417.297 1342.08C417.011 1342.41 416.594 1342.78 416.068 1343.15C414.729 1344.1 413.368 1344.36 411.963 1343.96C410.559 1343.57 409.329 1342.6 408.254 1341.11L404.61 1335.93C403.557 1334.42 403.074 1333.06 403.228 1331.85C403.359 1330.62 403.908 1329.02 404.874 1327C406.059 1324.17 406.366 1320.94 405.796 1317.3C405.225 1313.65 403.776 1310.21 401.472 1306.94C398.421 1302.59 394.602 1299.63 390.015 1298C385.427 1296.38 381.608 1296.69 378.492 1298.86C375.66 1300.86 374.475 1303.91 374.914 1308.03C375.353 1312.16 377.131 1318.75 380.226 1327.83C382.728 1335.34 384.55 1341.84 385.713 1347.32C386.854 1352.81 386.722 1358.41 385.318 1364.09C383.891 1369.8 380.357 1374.63 374.695 1378.62C369.471 1382.31 363.545 1384.09 356.916 1384C350.288 1383.91 343.791 1382.05 337.426 1378.47C331.061 1374.89 325.618 1369.89 321.14 1363.52C317.211 1357.95 314.512 1352 313.041 1345.68C311.571 1339.36 311.439 1333.3 312.646 1327.48C313.853 1321.66 316.246 1316.7 319.845 1312.58C320.13 1312.25 320.591 1311.85 321.206 1311.41C322.523 1310.47 323.862 1310.21 325.201 1310.58C326.539 1310.95 327.769 1311.96 328.888 1313.54L332.444 1318.59C333.497 1320.11 333.98 1321.49 333.87 1322.74C333.761 1323.99 333.19 1325.59 332.158 1327.53C330.49 1330.82 330.051 1334.77 330.797 1339.42C331.544 1344.05 333.431 1348.51 336.416 1352.74C338.896 1356.28 341.86 1359.17 345.284 1361.39C348.708 1363.61 352.066 1364.93 355.38 1365.3C358.694 1365.67 361.547 1365.04 363.94 1363.35C365.893 1361.98 367.1 1360.16 367.561 1357.92C368.022 1355.66 367.847 1352.72 366.991 1349.08C366.135 1345.44 364.62 1340.34 362.403 1333.82C359.901 1326.32 358.08 1319.84 356.982 1314.4C355.863 1308.96 355.994 1303.45 357.355 1297.85C358.716 1292.25 362.184 1287.49 367.759 1283.56C372.631 1280.14 378.119 1278.38 384.242 1278.32C390.344 1278.25 396.292 1279.79 402.086 1282.93C407.881 1286.06 412.753 1290.48 416.748 1296.14C420.238 1301.1 422.608 1306.39 423.837 1312.01V1312.03Z" fill="#2F2746"/>
<path d="M491.395 1393.39L448.617 1493.61C448.244 1494.6 447.652 1495.5 446.905 1496.27C445.918 1497.25 444.798 1497.69 443.569 1497.54C442.34 1497.39 441.089 1496.66 439.772 1495.37L434.943 1490.56C432.332 1487.97 431.761 1485.01 433.209 1481.71L438.938 1468.15C440.387 1464.86 439.794 1461.92 437.204 1459.3L408.451 1430.64C405.84 1428.05 402.899 1427.48 399.606 1428.93L386.064 1434.7C382.772 1436.17 379.831 1435.6 377.219 1432.99L372.39 1428.18C371.095 1426.89 370.349 1425.61 370.195 1424.38C370.042 1423.16 370.459 1422.06 371.446 1421.05C372.214 1420.28 373.092 1419.71 374.08 1419.31L474.143 1376.19C477.436 1374.71 480.377 1375.29 482.989 1377.9L489.661 1384.55C492.273 1387.14 492.844 1390.1 491.395 1393.39V1393.39ZM463.63 1403.99C462.313 1402.7 460.338 1402.61 457.66 1403.77L430.685 1415.43C429.698 1415.8 428.842 1416.35 428.161 1417.03C427.174 1418.04 426.757 1419.18 426.91 1420.48C427.064 1421.77 427.788 1423.07 429.105 1424.38L443.372 1438.61C444.667 1439.9 445.984 1440.63 447.278 1440.78C448.573 1440.93 449.737 1440.52 450.724 1439.51C451.405 1438.83 451.954 1437.97 452.327 1436.98L463.872 1409.96C465.013 1407.29 464.925 1405.29 463.63 1403.99V1403.99Z" fill="#2F2746"/>
<path d="M532.812 1562.88C532.153 1561.63 531.846 1560.11 531.912 1558.31L532.592 1476.09C532.592 1473.46 531.956 1471.71 530.705 1470.85C529.893 1470.3 528.949 1470.23 527.874 1470.67C526.798 1471.11 525.723 1472.08 524.669 1473.59L488.695 1525.72C486.237 1529.28 483.23 1529.85 479.653 1527.37L475.373 1524.43C471.817 1521.97 471.246 1518.96 473.726 1515.38L530.924 1432.51C533.383 1428.95 536.39 1428.38 539.967 1430.86L547.057 1435.75C548.483 1436.74 549.515 1437.86 550.173 1439.09C550.832 1440.32 551.139 1441.86 551.073 1443.65L550.393 1525.87C550.393 1528.53 551.029 1530.26 552.28 1531.12C553.092 1531.67 554.036 1531.73 555.112 1531.3C556.187 1530.86 557.263 1529.89 558.316 1528.38L594.29 1476.25C596.748 1472.69 599.755 1472.12 603.333 1474.6L607.613 1477.54C611.168 1480 611.739 1483.01 609.259 1486.59L552.061 1569.46C549.603 1573.02 546.596 1573.59 543.018 1571.11L535.929 1566.22C534.502 1565.23 533.47 1564.11 532.812 1562.88Z" fill="#2F2746"/>
<path d="M681.996 1541.72L676.048 1557.7C674.534 1561.76 675.807 1564.55 679.867 1566.06L718.672 1580.5C722.733 1582.02 724.006 1584.81 722.491 1588.87L720.516 1594.2C719.002 1598.26 716.214 1599.53 712.154 1598.02L673.349 1583.58C669.288 1582.06 666.501 1583.34 664.986 1587.4L653.375 1618.61C651.861 1622.67 649.073 1623.94 645.013 1622.43L639.679 1620.45C635.619 1618.94 634.346 1616.15 635.86 1612.09L671 1517.71C672.515 1513.65 675.302 1512.38 679.363 1513.89L743.299 1537.7C747.359 1539.22 748.632 1542.01 747.118 1546.07L745.142 1551.4C743.628 1555.46 740.84 1556.73 736.78 1555.22L690.359 1537.92C686.298 1536.41 683.511 1537.68 681.996 1541.74V1541.72Z" fill="#2F2746"/>
<path d="M807.542 1668.1C806.445 1667.22 805.501 1665.97 804.733 1664.39L785.769 1621.13C785.089 1619.57 784.211 1618.32 783.113 1617.44C782.016 1616.57 780.633 1615.95 778.921 1615.6L773.675 1614.55C769.417 1613.69 766.871 1615.38 766.015 1619.64L759.343 1652.76C758.487 1656.99 755.941 1658.71 751.683 1657.85L746.591 1656.82C742.333 1655.96 740.643 1653.42 741.499 1649.16L761.384 1550.43C762.24 1546.2 764.786 1544.49 769.044 1545.34L813.951 1554.39C819.789 1555.57 824.816 1558.01 829.052 1561.74C833.266 1565.47 836.229 1570.08 837.941 1575.63C839.653 1581.18 839.872 1587.07 838.599 1593.32C837.107 1600.76 834.034 1606.84 829.359 1611.61C824.706 1616.37 819.131 1619.24 812.634 1620.25C809.43 1620.82 807.63 1622.05 807.235 1623.96C807.037 1624.93 807.235 1626.18 807.805 1627.72L823.981 1664.28C824.662 1665.86 824.859 1667.27 824.618 1668.54C824.377 1669.7 823.718 1670.54 822.621 1671.04C821.523 1671.55 820.14 1671.61 818.429 1671.28L811.734 1669.94C810.044 1669.59 808.639 1669 807.542 1668.1V1668.1ZM777.275 1596.72L804.184 1602.15C808.639 1603.05 812.305 1602.26 815.18 1599.8C818.055 1597.34 819.921 1593.98 820.755 1589.74C821.589 1585.6 821.15 1581.87 819.438 1578.55C817.726 1575.21 814.697 1573.13 810.351 1572.25L783.289 1566.81C779.053 1565.95 776.485 1567.64 775.651 1571.9L772.183 1589.09C771.327 1593.32 773.017 1595.89 777.275 1596.75V1596.72Z" fill="#2F2746"/>
<path d="M924.067 1570.45L961.379 1672.84C961.774 1673.83 961.972 1674.86 961.928 1675.94C961.884 1677.34 961.357 1678.42 960.37 1679.14C959.382 1679.87 957.955 1680.19 956.112 1680.15L949.286 1679.93C945.598 1679.82 943.162 1678.07 941.977 1674.66L936.885 1660.86C935.7 1657.46 933.241 1655.7 929.576 1655.59L888.993 1654.34C885.306 1654.23 882.782 1655.83 881.377 1659.15L875.429 1672.62C874.024 1675.94 871.478 1677.54 867.813 1677.43L860.987 1677.21C859.143 1677.14 857.76 1676.73 856.795 1675.94C855.851 1675.15 855.39 1674.05 855.434 1672.64C855.478 1671.57 855.719 1670.54 856.18 1669.57L899.726 1569.68C901.131 1566.37 903.677 1564.77 907.342 1564.88L916.758 1565.16C920.445 1565.27 922.882 1567.03 924.067 1570.43V1570.45ZM911.051 1597.19C909.208 1597.12 907.715 1598.44 906.552 1601.11L894.831 1628.04C894.37 1629.01 894.129 1629.98 894.085 1630.94C894.041 1632.35 894.524 1633.47 895.534 1634.32C896.543 1635.16 897.948 1635.62 899.792 1635.68L919.919 1636.3C921.762 1636.36 923.211 1635.99 924.264 1635.22C925.318 1634.43 925.867 1633.36 925.911 1631.93C925.932 1630.96 925.757 1629.98 925.362 1628.99L915.331 1601.38C914.322 1598.63 912.917 1597.25 911.073 1597.19H911.051Z" fill="#2F2746"/>
<path d="M1070.16 1665.93C1068.82 1665.47 1067.57 1664.57 1066.38 1663.21L1010.72 1602.69C1008.9 1600.78 1007.23 1599.93 1005.74 1600.15C1004.77 1600.3 1004.05 1600.89 1003.54 1601.95C1003.04 1603 1002.93 1604.45 1003.19 1606.27L1012.52 1668.91C1013.16 1673.19 1011.33 1675.65 1007.05 1676.29L1001.92 1677.06C997.639 1677.69 995.18 1675.87 994.522 1671.59L979.685 1571.99C979.048 1567.71 980.87 1565.25 985.15 1564.61L993.666 1563.34C995.378 1563.08 996.892 1563.19 998.231 1563.65C999.548 1564.11 1000.82 1565.01 1002.01 1566.37L1057.67 1626.88C1059.49 1628.81 1061.14 1629.65 1062.65 1629.43C1063.62 1629.27 1064.34 1628.68 1064.84 1627.63C1065.35 1626.57 1065.46 1625.13 1065.17 1623.3L1055.85 1560.66C1055.21 1556.38 1057.03 1553.92 1061.31 1553.29L1066.45 1552.52C1070.73 1551.88 1073.19 1553.7 1073.82 1557.98L1088.66 1657.59C1089.3 1661.87 1087.47 1664.33 1083.19 1664.96L1074.68 1666.24C1072.97 1666.5 1071.45 1666.39 1070.11 1665.93H1070.16Z" fill="#2F2746"/>
<path d="M1178.47 1639.02C1168.73 1642.31 1158.89 1642.86 1148.95 1640.69C1139.01 1638.51 1130.21 1633.99 1122.53 1627.17C1114.84 1620.34 1109.29 1611.89 1105.91 1601.84C1102.51 1591.79 1101.78 1581.71 1103.76 1571.62C1105.71 1561.52 1109.99 1552.59 1116.56 1544.82C1123.12 1537.05 1131.28 1531.52 1141.03 1528.22C1146.87 1526.25 1152.86 1525.28 1159 1525.33C1165.13 1525.37 1171.16 1526.38 1177.09 1528.38L1181.37 1529.85C1182.71 1530.42 1183.59 1531.32 1184 1532.55C1184.49 1534 1184.42 1535.66 1183.83 1537.57L1182.16 1542.77C1181.46 1545.08 1180.23 1546.51 1178.47 1547.1C1177.13 1547.56 1175.64 1547.49 1173.95 1546.92L1171.43 1546.07C1163.26 1543.24 1155.14 1543.17 1147.02 1545.91C1140.35 1548.17 1134.8 1551.93 1130.34 1557.22C1125.88 1562.48 1123.01 1568.59 1121.69 1575.48C1120.37 1582.39 1120.86 1589.22 1123.14 1596C1125.42 1602.76 1129.2 1608.51 1134.44 1613.19C1139.69 1617.86 1145.68 1620.96 1152.42 1622.45C1159.16 1623.94 1165.85 1623.57 1172.52 1621.31C1180.62 1618.56 1187.05 1613.6 1191.82 1606.38L1194.43 1602.41C1194.87 1601.68 1195.5 1601.18 1196.32 1600.92C1197.96 1600.37 1199.96 1600.89 1202.33 1602.47L1206.81 1605.59C1208.19 1606.62 1209.09 1607.74 1209.49 1608.97C1210.1 1610.82 1209.77 1612.7 1208.48 1614.63L1207.05 1617C1203.54 1622.18 1199.37 1626.66 1194.52 1630.42C1189.67 1634.17 1184.33 1637.04 1178.47 1639.02V1639.02Z" fill="#2F2746"/>
<path d="M1222.48 1502.02L1267.12 1592.27C1269.05 1596.15 1268.07 1599.05 1264.18 1600.98L1259.22 1603.44C1255.34 1605.37 1252.44 1604.38 1250.53 1600.5L1205.89 1510.25C1203.95 1506.36 1204.94 1503.46 1208.83 1501.56L1213.79 1499.1C1217.67 1497.19 1220.57 1498.15 1222.48 1502.04V1502.02Z" fill="#2F2746"/>
<path d="M1295.5 1452.52C1301.14 1451.45 1306.61 1451.53 1311.85 1452.79C1317.1 1454.04 1321.6 1456.43 1325.35 1459.92C1325.68 1460.23 1326.03 1460.64 1326.38 1461.19C1327.28 1462.55 1327.5 1463.91 1327.06 1465.32C1326.63 1466.72 1325.64 1467.93 1324.1 1468.94L1318.83 1472.45C1317.3 1473.46 1315.91 1473.9 1314.71 1473.72C1313.5 1473.55 1311.9 1472.96 1309.92 1471.92C1307.14 1470.65 1303.91 1470.26 1300.27 1470.74C1296.62 1471.22 1293.11 1472.56 1289.77 1474.78C1285.34 1477.72 1282.27 1481.45 1280.53 1485.97C1278.8 1490.52 1278.98 1494.36 1281.08 1497.49C1282.99 1500.39 1286.02 1501.66 1290.15 1501.31C1294.27 1500.98 1300.92 1499.38 1310.1 1496.55C1317.67 1494.25 1324.21 1492.62 1329.72 1491.61C1335.23 1490.62 1340.83 1490.91 1346.47 1492.49C1352.13 1494.07 1356.87 1497.74 1360.69 1503.51C1364.22 1508.84 1365.85 1514.81 1365.56 1521.42C1365.28 1528.03 1363.26 1534.48 1359.48 1540.76C1355.71 1547.03 1350.59 1552.32 1344.1 1556.62C1338.41 1560.4 1332.4 1562.92 1326.03 1564.22C1319.69 1565.51 1313.61 1565.47 1307.84 1564.11C1302.06 1562.75 1297.15 1560.2 1293.13 1556.51C1292.8 1556.21 1292.43 1555.75 1292.01 1555.11C1291.11 1553.75 1290.87 1552.43 1291.31 1551.09C1291.73 1549.78 1292.76 1548.57 1294.38 1547.49L1299.52 1544.07C1301.06 1543.06 1302.46 1542.62 1303.71 1542.75C1304.96 1542.88 1306.54 1543.5 1308.43 1544.57C1311.66 1546.33 1315.61 1546.88 1320.26 1546.26C1324.91 1545.65 1329.41 1543.89 1333.74 1541.02C1337.34 1538.63 1340.3 1535.75 1342.63 1532.39C1344.95 1529.03 1346.34 1525.7 1346.82 1522.41C1347.28 1519.11 1346.73 1516.24 1345.11 1513.8C1343.79 1511.83 1342.01 1510.55 1339.77 1510.03C1337.53 1509.5 1334.59 1509.61 1330.93 1510.36C1327.26 1511.1 1322.13 1512.49 1315.56 1514.5C1307.99 1516.81 1301.47 1518.43 1296.01 1519.4C1290.54 1520.37 1285.03 1520.1 1279.48 1518.57C1273.93 1517.05 1269.27 1513.45 1265.5 1507.77C1262.21 1502.81 1260.6 1497.28 1260.71 1491.15C1260.82 1485.05 1262.51 1479.15 1265.83 1473.44C1269.12 1467.73 1273.66 1462.97 1279.44 1459.15C1284.48 1455.79 1289.84 1453.58 1295.48 1452.5L1295.5 1452.52Z" fill="#2F2746"/>
<path d="M1448.33 1473.24C1440.82 1480.29 1432.11 1484.87 1422.15 1487C1412.2 1489.13 1402.3 1488.69 1392.49 1485.66C1382.66 1482.64 1374.12 1477.26 1366.86 1469.51C1359.59 1461.78 1354.76 1452.92 1352.35 1442.91C1349.96 1432.92 1350.13 1423.02 1352.9 1413.21C1355.66 1403.42 1360.8 1394.99 1368.28 1387.97C1372.78 1383.76 1377.83 1380.38 1383.43 1377.88C1389.02 1375.37 1394.93 1373.79 1401.16 1373.16L1405.66 1372.72C1407.11 1372.7 1408.3 1373.13 1409.17 1374.1C1410.21 1375.2 1410.84 1376.76 1411.11 1378.75L1411.74 1384.17C1412.05 1386.57 1411.52 1388.39 1410.18 1389.64C1409.15 1390.61 1407.75 1391.18 1405.99 1391.35L1403.34 1391.61C1394.73 1392.43 1387.31 1395.74 1381.08 1401.6C1375.94 1406.43 1372.45 1412.16 1370.59 1418.79C1368.72 1425.44 1368.63 1432.18 1370.3 1439C1371.97 1445.83 1375.24 1451.86 1380.14 1457.07C1385.03 1462.27 1390.82 1465.93 1397.54 1468.02C1404.26 1470.1 1410.97 1470.43 1417.73 1469.01C1424.47 1467.58 1430.42 1464.44 1435.56 1459.63C1441.79 1453.77 1445.59 1446.57 1446.93 1438.04L1447.65 1433.34C1447.76 1432.5 1448.11 1431.78 1448.75 1431.19C1450 1430 1452.06 1429.65 1454.87 1430.11L1460.25 1431.08C1461.92 1431.43 1463.21 1432.09 1464.09 1433.03C1465.43 1434.46 1465.91 1436.3 1465.52 1438.58L1465.21 1441.33C1464.18 1447.5 1462.22 1453.31 1459.37 1458.73C1456.52 1464.15 1452.83 1468.98 1448.33 1473.2V1473.24Z" fill="#2F2746"/>
<path d="M1534.74 1374.5C1528.46 1383.06 1520.58 1389.4 1511.08 1393.5C1501.58 1397.61 1491.66 1399.14 1481.34 1398.11C1471.02 1397.08 1461.59 1393.41 1453.03 1387.16C1444.47 1380.9 1438.12 1373 1434.02 1363.5C1429.92 1354 1428.38 1344.07 1429.41 1333.76C1430.44 1323.44 1434.09 1314 1440.36 1305.45C1446.64 1296.89 1454.52 1290.54 1464.02 1286.44C1473.55 1282.33 1483.45 1280.8 1493.76 1281.83C1504.08 1282.86 1513.52 1286.53 1522.08 1292.78C1530.64 1299.06 1536.98 1306.94 1541.08 1316.44C1545.19 1325.95 1546.73 1335.87 1545.69 1346.18C1544.66 1356.5 1541.02 1365.94 1534.74 1374.5ZM1455.44 1316.46C1451.23 1322.24 1448.75 1328.64 1448.02 1335.69C1447.3 1342.74 1448.35 1349.52 1451.18 1356.01C1454.01 1362.51 1458.32 1367.87 1464.07 1372.08C1469.84 1376.29 1476.25 1378.78 1483.29 1379.5C1490.34 1380.22 1497.12 1379.17 1503.62 1376.36C1510.12 1373.55 1515.47 1369.23 1519.68 1363.48C1523.9 1357.7 1526.38 1351.3 1527.1 1344.25C1527.83 1337.2 1526.8 1330.42 1523.96 1323.93C1521.13 1317.43 1516.83 1312.07 1511.06 1307.86C1505.29 1303.65 1498.88 1301.17 1491.83 1300.44C1484.79 1299.72 1478 1300.77 1471.51 1303.58C1465.01 1306.41 1459.66 1310.71 1455.44 1316.46V1316.46Z" fill="#2F2746"/>
</svg>
