<?xml version="1.0" encoding="UTF-8"?>
<svg width="21px" height="19px" viewBox="0 0 21 19" version="1.1" xmlns="http://www.w3.org/2000/svg" xmlns:xlink="http://www.w3.org/1999/xlink">
    <!-- Generator: Sketch 61 (89581) - https://sketch.com -->
    <title>nav-react-logo</title>
    <desc>Created with Sketch.</desc>
    <g id="Home" stroke="none" stroke-width="1" fill="none" fill-rule="evenodd">
        <g id="landing-2020-v3.0" transform="translate(-25.000000, -168.000000)">
            <rect id="Rectangle" stroke="#E9EAEC" x="0.5" y="-20.5" width="297" height="4288"></rect>
            <path d="M46,177.502174 C46,176.088808 44.2578475,174.749371 41.5868325,173.918746 C42.2032205,171.152895 41.9292703,168.952392 40.7221769,168.247883 C40.4439462,168.082628 40.1186302,168.004349 39.763351,168.004349 L39.763351,168.974136 C39.9602528,168.974136 40.1186302,169.013275 40.2513249,169.087205 C40.8334692,169.426413 41.0860171,170.718013 40.8891154,172.379263 C40.8420302,172.788052 40.7649817,173.218585 40.6708113,173.657816 C39.8318386,173.449073 38.9158174,173.288167 37.952711,173.183795 C37.3748471,172.379263 36.7755809,171.648661 36.1720342,171.009384 C37.5674684,169.691691 38.8772931,168.969787 39.7676315,168.969787 L39.7676315,168 C39.7676315,168 39.7676315,168 39.7676315,168 C38.5905014,168 37.0495312,168.852369 35.4914391,170.330968 C33.9333469,168.861067 32.3923767,168.017395 31.2152466,168.017395 L31.2152466,168.987182 C32.1013045,168.987182 33.4154097,169.704738 34.8108439,171.013733 C34.2115777,171.65301 33.6123115,172.379263 33.0430086,173.183795 C32.0756217,173.288167 31.1596005,173.449073 30.3206278,173.662165 C30.2221769,173.227283 30.1494089,172.805447 30.0980432,172.401007 C29.896861,170.739757 30.1451284,169.448157 30.7229923,169.104601 C30.8514064,169.026322 31.0183449,168.991531 31.2152466,168.991531 L31.2152466,168.021744 C31.2152466,168.021744 31.2152466,168.021744 31.2152466,168.021744 C30.8556869,168.021744 30.530371,168.100023 30.2478598,168.265278 C29.0450469,168.969787 28.7753771,171.165942 29.3960457,173.923095 C26.7335915,174.758068 25,176.093156 25,177.502174 C25,178.915541 26.7421525,180.254978 29.4131675,181.085603 C28.7967795,183.851453 29.0707297,186.051957 30.2778231,186.756466 C30.5560538,186.921721 30.8813698,187 31.2409295,187 C32.4180595,187 33.9590298,186.147631 35.5171219,184.669032 C37.075214,186.138933 38.6161843,186.982605 39.7933143,186.982605 C40.152874,186.982605 40.47819,186.904326 40.7607012,186.739071 C41.9635141,186.034562 42.2331839,183.838407 41.6125153,181.081254 C44.2664085,180.250629 46,178.911192 46,177.502174 Z M40.416185,174.641775 C40.2628225,175.212587 40.0721556,175.801099 39.8566192,176.38961 C39.686677,176.035618 39.5084449,175.681626 39.3136332,175.327634 C39.1229663,174.973642 38.9198647,174.6285 38.716763,174.292208 C39.3053433,174.385131 39.8731989,174.500178 40.416185,174.641775 Z M38.4442486,179.216464 C38.1128613,179.800148 37.7729769,180.353567 37.4203468,180.868074 C36.7873121,180.92428 36.1457803,180.954545 35.5,180.954545 C34.8584682,180.954545 34.2169364,180.92428 33.5881503,180.872397 C33.2355202,180.357891 32.8913873,179.808795 32.56,179.229435 C32.2371098,178.663045 31.9439595,178.088008 31.6763006,177.508647 C31.939711,176.929287 32.2371098,176.349926 32.5557514,175.783536 C32.8871387,175.199852 33.2270231,174.646433 33.5796532,174.131926 C34.2126879,174.07572 34.8542197,174.045455 35.5,174.045455 C36.1415318,174.045455 36.7830636,174.07572 37.4118497,174.127603 C37.7644798,174.642109 38.1086127,175.191205 38.44,175.770565 C38.7628902,176.336955 39.0560405,176.911992 39.3236994,177.491353 C39.0560405,178.070713 38.7628902,178.650074 38.4442486,179.216464 Z M39.9276895,178.61039 C40.1663393,179.198364 40.3696335,179.786339 40.5375723,180.356762 C39.9586256,180.497174 39.3487429,180.615647 38.716763,180.707792 C38.9333156,180.369926 39.1498681,180.023284 39.3531624,179.667867 C39.5564566,179.316837 39.7464925,178.961419 39.9276895,178.61039 Z M35.5672788,183.298701 C35.1589961,182.891558 34.7507134,182.437764 34.3468208,181.941558 C34.7419331,181.958523 35.1458257,181.971246 35.5541084,181.971246 C35.9667813,181.971246 36.375064,181.962764 36.7745665,181.941558 C36.3794542,182.437764 35.9711714,182.891558 35.5672788,183.298701 Z M32.283237,180.831169 C31.6946567,180.738246 31.1268011,180.623199 30.583815,180.481602 C30.7371775,179.91079 30.9278444,179.322278 31.1433808,178.733766 C31.313323,179.087758 31.4915551,179.44175 31.6863668,179.795742 C31.8811786,180.149734 32.0801353,180.494876 32.283237,180.831169 Z M35.5541084,171.701299 C35.9623912,172.108442 36.3706739,172.562236 36.7745665,173.058442 C36.3794542,173.041477 35.9755616,173.028754 35.5672788,173.028754 C35.154606,173.028754 34.7463233,173.037236 34.3468208,173.058442 C34.7419331,172.562236 35.1502158,172.108442 35.5541084,171.701299 Z M32.4046243,174.292208 C32.1880717,174.630782 31.9715192,174.978151 31.7682249,175.334313 C31.5649307,175.686079 31.3748948,176.037845 31.1936977,176.38961 C30.955048,175.800403 30.7517537,175.211196 30.583815,174.639576 C31.1627617,174.503267 31.7726444,174.384546 32.4046243,174.292208 Z M28.4496364,179.768911 C26.9446578,179.109583 25.9710983,178.245032 25.9710983,177.559505 C25.9710983,176.873978 26.9446578,176.005061 28.4496364,175.350099 C28.8152527,175.188541 29.2148797,175.04445 29.6272609,174.909091 C29.8695879,175.764908 30.1884393,176.655657 30.583815,177.568238 C30.1926907,178.476452 29.8780906,179.362835 29.6400149,180.214286 C29.2191311,180.078927 28.819504,179.930469 28.4496364,179.768911 Z M30.7948621,185.895562 C30.2186805,185.556333 29.9687194,184.264656 30.1636044,182.603306 C30.2102073,182.194492 30.2864666,181.763933 30.3796725,181.324675 C31.2100518,181.533431 32.1166905,181.694347 33.0699321,181.798725 C33.6418771,182.603306 34.2350052,183.333952 34.8323699,183.973267 C33.4512288,185.291039 32.1548202,186.012987 31.2736013,186.012987 C31.0829529,186.008638 30.921961,185.969496 30.7948621,185.895562 Z M40.8334737,182.59379 C41.0326514,184.259777 40.7868576,185.555059 40.2147515,185.899595 C40.0876167,185.978097 39.9223416,186.012987 39.7274018,186.012987 C38.8501723,186.012987 37.5491605,185.293386 36.1676301,183.980658 C36.7609253,183.339559 37.3542206,182.611235 37.9178511,181.80441 C38.8755992,181.69974 39.7824935,181.538375 40.6131069,181.324675 C40.7105768,181.765159 40.7868576,182.188197 40.8334737,182.59379 Z M41.359116,174.909091 C41.7796123,175.04445 42.1788714,175.192908 42.5526459,175.354465 C44.0562386,176.013794 45.0289017,176.878344 45.0289017,177.563872 C45.0246543,178.249399 44.0519912,179.118315 42.5483984,179.773278 C42.1831188,179.934835 41.7838597,180.078927 41.3718583,180.214286 C41.1297544,179.358468 40.8111966,178.46772 40.416185,177.555139 C40.8069492,176.646924 41.1212595,175.760542 41.359116,174.909091 Z M35.4393064,175.525974 C36.5119519,175.525974 37.3815029,176.409776 37.3815029,177.5 C37.3815029,178.590224 36.5119519,179.474026 35.4393064,179.474026 C34.3666608,179.474026 33.4971098,178.590224 33.4971098,177.5 C33.4971098,176.409776 34.3666608,175.525974 35.4393064,175.525974 Z" id="Shape" fill="#36A7EE" fill-rule="nonzero"></path>
        </g>
    </g>
</svg>
