<?xml version="1.0" encoding="UTF-8"?>
<svg width="350px" height="64px" viewBox="0 0 350 64" version="1.1" xmlns="http://www.w3.org/2000/svg" xmlns:xlink="http://www.w3.org/1999/xlink">
    <!-- Generator: Sketch 49 (51002) - http://www.bohemiancoding.com/sketch -->
    <title>blockstack-logo-landscape-bug</title>
    <desc>Created with Sketch.</desc>
    <defs>
        <path d="M63.2307435,43.2399778 C63.2307435,43.2399778 63.2460583,49.8226599 62.5285505,52.6757907 C61.8110428,55.5289215 60.4934815,57.5181512 59.033456,58.9762002 C57.5669465,60.4407247 55.6242598,61.7724077 52.6630197,62.4662176 C49.7018414,63.1600273 43.2765684,63.1478162 43.2765684,63.1478162 L19.9340079,63.1578688 C19.9340079,63.1578688 13.3426195,63.1732251 10.4858036,62.4566584 C7.62892601,61.74003 5.63708399,60.4241966 4.1771203,58.966086 C2.71061079,57.5014998 1.37724069,55.561361 0.682519783,52.6040662 C-0.0122011189,49.6467714 2.59689255e-05,43.2299252 2.59689255e-05,43.2299252 L2.59689255e-05,19.9179167 C2.59689255e-05,19.9179167 -0.0153505203,13.3352346 0.70221898,10.4821037 C1.41972673,7.62897292 2.73728807,5.63980487 4.19731352,4.18175592 C5.66382303,2.71716973 7.60650968,1.38548667 10.567688,0.691676893 C13.5289282,-0.00213288296 19.9541393,0.0100781691 19.9541393,0.0100781691 L43.2967616,2.56363439e-05 C43.2967616,2.56363439e-05 49.88815,-0.0152690147 52.7449659,0.701297723 C55.6018435,1.41786446 57.5936238,2.73369783 59.0535875,4.19180845 C60.520097,5.65639464 61.8535289,7.59653346 62.5482497,10.5538283 C63.2429706,13.5111847 63.2307435,19.9279693 63.2307435,19.9279693 L63.2307435,43.2399778 Z" id="path-1"></path>
        <path d="M63.2307435,43.2399778 C63.2307435,43.2399778 63.2460583,49.8226599 62.5285505,52.6757907 C61.8110428,55.5289215 60.4934815,57.5181512 59.033456,58.9762002 C57.5669465,60.4407247 55.6242598,61.7724077 52.6630197,62.4662176 C49.7018414,63.1600273 43.2765684,63.1478162 43.2765684,63.1478162 L19.9340079,63.1578688 C19.9340079,63.1578688 13.3426195,63.1732251 10.4858036,62.4566584 C7.62892601,61.74003 5.63708399,60.4241966 4.1771203,58.966086 C2.71061079,57.5014998 1.37724069,55.561361 0.682519783,52.6040662 C-0.0122011189,49.6467714 2.59689255e-05,43.2299252 2.59689255e-05,43.2299252 L2.59689255e-05,19.9179167 C2.59689255e-05,19.9179167 -0.0153505203,13.3352346 0.70221898,10.4821037 C1.41972673,7.62897292 2.73728807,5.63980487 4.19731352,4.18175592 C5.66382303,2.71716973 7.60650968,1.38548667 10.567688,0.691676893 C13.5289282,-0.00213288296 19.9541393,0.0100781691 19.9541393,0.0100781691 L43.2967616,2.56363439e-05 C43.2967616,2.56363439e-05 49.88815,-0.0152690147 52.7449659,0.701297723 C55.6018435,1.41786446 57.5936238,2.73369783 59.0535875,4.19180845 C60.520097,5.65639464 61.8535289,7.59653346 62.5482497,10.5538283 C63.2429706,13.5111847 63.2307435,19.9279693 63.2307435,19.9279693 L63.2307435,43.2399778 Z" id="path-3"></path>
        <path d="M63.2307435,43.2399778 C63.2307435,43.2399778 63.2460583,49.8226599 62.5285505,52.6757907 C61.8110428,55.5289215 60.4934815,57.5181512 59.033456,58.9762002 C57.5669465,60.4407247 55.6242598,61.7724077 52.6630197,62.4662176 C49.7018414,63.1600273 43.2765684,63.1478162 43.2765684,63.1478162 L19.9340079,63.1578688 C19.9340079,63.1578688 13.3426195,63.1732251 10.4858036,62.4566584 C7.62892601,61.74003 5.63708399,60.4241966 4.1771203,58.966086 C2.71061079,57.5014998 1.37724069,55.561361 0.682519783,52.6040662 C-0.0122011189,49.6467714 2.59689255e-05,43.2299252 2.59689255e-05,43.2299252 L2.59689255e-05,19.9179167 C2.59689255e-05,19.9179167 -0.0153505203,13.3352346 0.70221898,10.4821037 C1.41972673,7.62897292 2.73728807,5.63980487 4.19731352,4.18175592 C5.66382303,2.71716973 7.60650968,1.38548667 10.567688,0.691676893 C13.5289282,-0.00213288296 19.9541393,0.0100781691 19.9541393,0.0100781691 L43.2967616,2.56363439e-05 C43.2967616,2.56363439e-05 49.88815,-0.0152690147 52.7449659,0.701297723 C55.6018435,1.41786446 57.5936238,2.73369783 59.0535875,4.19180845 C60.520097,5.65639464 61.8535289,7.59653346 62.5482497,10.5538283 C63.2429706,13.5111847 63.2307435,19.9279693 63.2307435,19.9279693 L63.2307435,43.2399778 Z" id="path-5"></path>
        <path d="M63.2307435,43.2399778 C63.2307435,43.2399778 63.2460583,49.8226599 62.5285505,52.6757907 C61.8110428,55.5289215 60.4934815,57.5181512 59.033456,58.9762002 C57.5669465,60.4407247 55.6242598,61.7724077 52.6630197,62.4662176 C49.7018414,63.1600273 43.2765684,63.1478162 43.2765684,63.1478162 L19.9340079,63.1578688 C19.9340079,63.1578688 13.3426195,63.1732251 10.4858036,62.4566584 C7.62892601,61.74003 5.63708399,60.4241966 4.1771203,58.966086 C2.71061079,57.5014998 1.37724069,55.561361 0.682519783,52.6040662 C-0.0122011189,49.6467714 2.59689255e-05,43.2299252 2.59689255e-05,43.2299252 L2.59689255e-05,19.9179167 C2.59689255e-05,19.9179167 -0.0153505203,13.3352346 0.70221898,10.4821037 C1.41972673,7.62897292 2.73728807,5.63980487 4.19731352,4.18175592 C5.66382303,2.71716973 7.60650968,1.38548667 10.567688,0.691676893 C13.5289282,-0.00213288296 19.9541393,0.0100781691 19.9541393,0.0100781691 L43.2967616,2.56363439e-05 C43.2967616,2.56363439e-05 49.88815,-0.0152690147 52.7449659,0.701297723 C55.6018435,1.41786446 57.5936238,2.73369783 59.0535875,4.19180845 C60.520097,5.65639464 61.8535289,7.59653346 62.5482497,10.5538283 C63.2429706,13.5111847 63.2307435,19.9279693 63.2307435,19.9279693 L63.2307435,43.2399778 Z" id="path-7"></path>
        <path d="M63.2307435,43.2399778 C63.2307435,43.2399778 63.2460583,49.8226599 62.5285505,52.6757907 C61.8110428,55.5289215 60.4934815,57.5181512 59.033456,58.9762002 C57.5669465,60.4407247 55.6242598,61.7724077 52.6630197,62.4662176 C49.7018414,63.1600273 43.2765684,63.1478162 43.2765684,63.1478162 L19.9340079,63.1578688 C19.9340079,63.1578688 13.3426195,63.1732251 10.4858036,62.4566584 C7.62892601,61.74003 5.63708399,60.4241966 4.1771203,58.966086 C2.71061079,57.5014998 1.37724069,55.561361 0.682519783,52.6040662 C-0.0122011189,49.6467714 2.59689255e-05,43.2299252 2.59689255e-05,43.2299252 L2.59689255e-05,19.9179167 C2.59689255e-05,19.9179167 -0.0153505203,13.3352346 0.70221898,10.4821037 C1.41972673,7.62897292 2.73728807,5.63980487 4.19731352,4.18175592 C5.66382303,2.71716973 7.60650968,1.38548667 10.567688,0.691676893 C13.5289282,-0.00213288296 19.9541393,0.0100781691 19.9541393,0.0100781691 L43.2967616,2.56363439e-05 C43.2967616,2.56363439e-05 49.88815,-0.0152690147 52.7449659,0.701297723 C55.6018435,1.41786446 57.5936238,2.73369783 59.0535875,4.19180845 C60.520097,5.65639464 61.8535289,7.59653346 62.5482497,10.5538283 C63.2429706,13.5111847 63.2307435,19.9279693 63.2307435,19.9279693 L63.2307435,43.2399778 Z" id="path-9"></path>
        <path d="M63.2307435,43.2399778 C63.2307435,43.2399778 63.2460583,49.8226599 62.5285505,52.6757907 C61.8110428,55.5289215 60.4934815,57.5181512 59.033456,58.9762002 C57.5669465,60.4407247 55.6242598,61.7724077 52.6630197,62.4662176 C49.7018414,63.1600273 43.2765684,63.1478162 43.2765684,63.1478162 L19.9340079,63.1578688 C19.9340079,63.1578688 13.3426195,63.1732251 10.4858036,62.4566584 C7.62892601,61.74003 5.63708399,60.4241966 4.1771203,58.966086 C2.71061079,57.5014998 1.37724069,55.561361 0.682519783,52.6040662 C-0.0122011189,49.6467714 2.59689255e-05,43.2299252 2.59689255e-05,43.2299252 L2.59689255e-05,19.9179167 C2.59689255e-05,19.9179167 -0.0153505203,13.3352346 0.70221898,10.4821037 C1.41972673,7.62897292 2.73728807,5.63980487 4.19731352,4.18175592 C5.66382303,2.71716973 7.60650968,1.38548667 10.567688,0.691676893 C13.5289282,-0.00213288296 19.9541393,0.0100781691 19.9541393,0.0100781691 L43.2967616,2.56363439e-05 C43.2967616,2.56363439e-05 49.88815,-0.0152690147 52.7449659,0.701297723 C55.6018435,1.41786446 57.5936238,2.73369783 59.0535875,4.19180845 C60.520097,5.65639464 61.8535289,7.59653346 62.5482497,10.5538283 C63.2429706,13.5111847 63.2307435,19.9279693 63.2307435,19.9279693 L63.2307435,43.2399778 Z" id="path-11"></path>
        <path d="M63.2307435,43.2399778 C63.2307435,43.2399778 63.2460583,49.8226599 62.5285505,52.6757907 C61.8110428,55.5289215 60.4934815,57.5181512 59.033456,58.9762002 C57.5669465,60.4407247 55.6242598,61.7724077 52.6630197,62.4662176 C49.7018414,63.1600273 43.2765684,63.1478162 43.2765684,63.1478162 L19.9340079,63.1578688 C19.9340079,63.1578688 13.3426195,63.1732251 10.4858036,62.4566584 C7.62892601,61.74003 5.63708399,60.4241966 4.1771203,58.966086 C2.71061079,57.5014998 1.37724069,55.561361 0.682519783,52.6040662 C-0.0122011189,49.6467714 2.59689255e-05,43.2299252 2.59689255e-05,43.2299252 L2.59689255e-05,19.9179167 C2.59689255e-05,19.9179167 -0.0153505203,13.3352346 0.70221898,10.4821037 C1.41972673,7.62897292 2.73728807,5.63980487 4.19731352,4.18175592 C5.66382303,2.71716973 7.60650968,1.38548667 10.567688,0.691676893 C13.5289282,-0.00213288296 19.9541393,0.0100781691 19.9541393,0.0100781691 L43.2967616,2.56363439e-05 C43.2967616,2.56363439e-05 49.88815,-0.0152690147 52.7449659,0.701297723 C55.6018435,1.41786446 57.5936238,2.73369783 59.0535875,4.19180845 C60.520097,5.65639464 61.8535289,7.59653346 62.5482497,10.5538283 C63.2429706,13.5111847 63.2307435,19.9279693 63.2307435,19.9279693 L63.2307435,43.2399778 Z" id="path-13"></path>
        <path d="M63.2307435,43.2399778 C63.2307435,43.2399778 63.2460583,49.8226599 62.5285505,52.6757907 C61.8110428,55.5289215 60.4934815,57.5181512 59.033456,58.9762002 C57.5669465,60.4407247 55.6242598,61.7724077 52.6630197,62.4662176 C49.7018414,63.1600273 43.2765684,63.1478162 43.2765684,63.1478162 L19.9340079,63.1578688 C19.9340079,63.1578688 13.3426195,63.1732251 10.4858036,62.4566584 C7.62892601,61.74003 5.63708399,60.4241966 4.1771203,58.966086 C2.71061079,57.5014998 1.37724069,55.561361 0.682519783,52.6040662 C-0.0122011189,49.6467714 2.59689255e-05,43.2299252 2.59689255e-05,43.2299252 L2.59689255e-05,19.9179167 C2.59689255e-05,19.9179167 -0.0153505203,13.3352346 0.70221898,10.4821037 C1.41972673,7.62897292 2.73728807,5.63980487 4.19731352,4.18175592 C5.66382303,2.71716973 7.60650968,1.38548667 10.567688,0.691676893 C13.5289282,-0.00213288296 19.9541393,0.0100781691 19.9541393,0.0100781691 L43.2967616,2.56363439e-05 C43.2967616,2.56363439e-05 49.88815,-0.0152690147 52.7449659,0.701297723 C55.6018435,1.41786446 57.5936238,2.73369783 59.0535875,4.19180845 C60.520097,5.65639464 61.8535289,7.59653346 62.5482497,10.5538283 C63.2429706,13.5111847 63.2307435,19.9279693 63.2307435,19.9279693 L63.2307435,43.2399778 Z" id="path-15"></path>
        <path d="M63.2307435,43.2399778 C63.2307435,43.2399778 63.2460583,49.8226599 62.5285505,52.6757907 C61.8110428,55.5289215 60.4934815,57.5181512 59.033456,58.9762002 C57.5669465,60.4407247 55.6242598,61.7724077 52.6630197,62.4662176 C49.7018414,63.1600273 43.2765684,63.1478162 43.2765684,63.1478162 L19.9340079,63.1578688 C19.9340079,63.1578688 13.3426195,63.1732251 10.4858036,62.4566584 C7.62892601,61.74003 5.63708399,60.4241966 4.1771203,58.966086 C2.71061079,57.5014998 1.37724069,55.561361 0.682519783,52.6040662 C-0.0122011189,49.6467714 2.59689255e-05,43.2299252 2.59689255e-05,43.2299252 L2.59689255e-05,19.9179167 C2.59689255e-05,19.9179167 -0.0153505203,13.3352346 0.70221898,10.4821037 C1.41972673,7.62897292 2.73728807,5.63980487 4.19731352,4.18175592 C5.66382303,2.71716973 7.60650968,1.38548667 10.567688,0.691676893 C13.5289282,-0.00213288296 19.9541393,0.0100781691 19.9541393,0.0100781691 L43.2967616,2.56363439e-05 C43.2967616,2.56363439e-05 49.88815,-0.0152690147 52.7449659,0.701297723 C55.6018435,1.41786446 57.5936238,2.73369783 59.0535875,4.19180845 C60.520097,5.65639464 61.8535289,7.59653346 62.5482497,10.5538283 C63.2429706,13.5111847 63.2307435,19.9279693 63.2307435,19.9279693 L63.2307435,43.2399778 Z" id="path-17"></path>
        <path d="M63.2307435,43.2399778 C63.2307435,43.2399778 63.2460583,49.8226599 62.5285505,52.6757907 C61.8110428,55.5289215 60.4934815,57.5181512 59.033456,58.9762002 C57.5669465,60.4407247 55.6242598,61.7724077 52.6630197,62.4662176 C49.7018414,63.1600273 43.2765684,63.1478162 43.2765684,63.1478162 L19.9340079,63.1578688 C19.9340079,63.1578688 13.3426195,63.1732251 10.4858036,62.4566584 C7.62892601,61.74003 5.63708399,60.4241966 4.1771203,58.966086 C2.71061079,57.5014998 1.37724069,55.561361 0.682519783,52.6040662 C-0.0122011189,49.6467714 2.59689255e-05,43.2299252 2.59689255e-05,43.2299252 L2.59689255e-05,19.9179167 C2.59689255e-05,19.9179167 -0.0153505203,13.3352346 0.70221898,10.4821037 C1.41972673,7.62897292 2.73728807,5.63980487 4.19731352,4.18175592 C5.66382303,2.71716973 7.60650968,1.38548667 10.567688,0.691676893 C13.5289282,-0.00213288296 19.9541393,0.0100781691 19.9541393,0.0100781691 L43.2967616,2.56363439e-05 C43.2967616,2.56363439e-05 49.88815,-0.0152690147 52.7449659,0.701297723 C55.6018435,1.41786446 57.5936238,2.73369783 59.0535875,4.19180845 C60.520097,5.65639464 61.8535289,7.59653346 62.5482497,10.5538283 C63.2429706,13.5111847 63.2307435,19.9279693 63.2307435,19.9279693 L63.2307435,43.2399778 Z" id="path-19"></path>
        <path d="M63.2307435,43.2399778 C63.2307435,43.2399778 63.2460583,49.8226599 62.5285505,52.6757907 C61.8110428,55.5289215 60.4934815,57.5181512 59.033456,58.9762002 C57.5669465,60.4407247 55.6242598,61.7724077 52.6630197,62.4662176 C49.7018414,63.1600273 43.2765684,63.1478162 43.2765684,63.1478162 L19.9340079,63.1578688 C19.9340079,63.1578688 13.3426195,63.1732251 10.4858036,62.4566584 C7.62892601,61.74003 5.63708399,60.4241966 4.1771203,58.966086 C2.71061079,57.5014998 1.37724069,55.561361 0.682519783,52.6040662 C-0.0122011189,49.6467714 2.59689255e-05,43.2299252 2.59689255e-05,43.2299252 L2.59689255e-05,19.9179167 C2.59689255e-05,19.9179167 -0.0153505203,13.3352346 0.70221898,10.4821037 C1.41972673,7.62897292 2.73728807,5.63980487 4.19731352,4.18175592 C5.66382303,2.71716973 7.60650968,1.38548667 10.567688,0.691676893 C13.5289282,-0.00213288296 19.9541393,0.0100781691 19.9541393,0.0100781691 L43.2967616,2.56363439e-05 C43.2967616,2.56363439e-05 49.88815,-0.0152690147 52.7449659,0.701297723 C55.6018435,1.41786446 57.5936238,2.73369783 59.0535875,4.19180845 C60.520097,5.65639464 61.8535289,7.59653346 62.5482497,10.5538283 C63.2429706,13.5111847 63.2307435,19.9279693 63.2307435,19.9279693 L63.2307435,43.2399778 Z" id="path-21"></path>
        <path d="M63.2307435,43.2399778 C63.2307435,43.2399778 63.2460583,49.8226599 62.5285505,52.6757907 C61.8110428,55.5289215 60.4934815,57.5181512 59.033456,58.9762002 C57.5669465,60.4407247 55.6242598,61.7724077 52.6630197,62.4662176 C49.7018414,63.1600273 43.2765684,63.1478162 43.2765684,63.1478162 L19.9340079,63.1578688 C19.9340079,63.1578688 13.3426195,63.1732251 10.4858036,62.4566584 C7.62892601,61.74003 5.63708399,60.4241966 4.1771203,58.966086 C2.71061079,57.5014998 1.37724069,55.561361 0.682519783,52.6040662 C-0.0122011189,49.6467714 2.59689255e-05,43.2299252 2.59689255e-05,43.2299252 L2.59689255e-05,19.9179167 C2.59689255e-05,19.9179167 -0.0153505203,13.3352346 0.70221898,10.4821037 C1.41972673,7.62897292 2.73728807,5.63980487 4.19731352,4.18175592 C5.66382303,2.71716973 7.60650968,1.38548667 10.567688,0.691676893 C13.5289282,-0.00213288296 19.9541393,0.0100781691 19.9541393,0.0100781691 L43.2967616,2.56363439e-05 C43.2967616,2.56363439e-05 49.88815,-0.0152690147 52.7449659,0.701297723 C55.6018435,1.41786446 57.5936238,2.73369783 59.0535875,4.19180845 C60.520097,5.65639464 61.8535289,7.59653346 62.5482497,10.5538283 C63.2429706,13.5111847 63.2307435,19.9279693 63.2307435,19.9279693 L63.2307435,43.2399778 Z" id="path-23"></path>
    </defs>
    <g id="Page-1" stroke="none" stroke-width="1" fill="none" fill-rule="evenodd">
        <g id="Stage-Printed-Banner" transform="translate(-121.000000, -1688.000000)">
            <g id="blockstack-logo-landscape-bug" transform="translate(103.000000, 1675.000000)">
                <rect id="Rectangle" x="0" y="0" width="411" height="90"></rect>
                <path d="M113.315922,36.5643318 L118.840444,36.5643318 C119.794598,36.5643318 120.677177,36.6453402 121.488207,36.8073594 C122.299238,36.9693786 123.00053,37.2266993 123.592106,37.5793292 C124.183681,37.9319593 124.646438,38.4037139 124.980392,38.9946073 C125.314346,39.5855008 125.48132,40.3098111 125.48132,41.1675596 C125.48132,42.0634304 125.214161,42.8925749 124.679835,43.6550181 C124.145509,44.4174613 123.324949,44.9416332 122.218131,45.2275494 L122.218131,45.3419153 C123.592112,45.5706482 124.636895,46.0519333 125.35251,46.7857849 C126.068125,47.5196365 126.425928,48.5155629 126.425928,49.7735942 C126.425928,50.7075872 126.249412,51.5176709 125.896375,52.2038698 C125.543338,52.8900687 125.047186,53.4618925 124.407903,53.9193585 C123.76862,54.3768244 123.01485,54.7151535 122.14657,54.9343559 C121.27829,55.1535583 120.328921,55.2631579 119.298435,55.2631579 L113.315922,55.2631579 L113.315922,36.5643318 Z M118.525575,44.3126222 C119.842307,44.3126222 120.786905,44.0743622 121.359397,43.5978352 C121.931889,43.1213082 122.218131,42.44465 122.218131,41.5678403 C122.218131,40.7100917 121.917577,40.0906159 121.31646,39.7093943 C120.715344,39.3281727 119.813681,39.1375648 118.611448,39.1375648 L116.63636,39.1375648 L116.63636,44.3126222 L118.525575,44.3126222 Z M118.954942,52.6899249 C120.328923,52.6899249 121.378476,52.4326042 122.103633,51.9179551 C122.82879,51.4033059 123.191363,50.6122829 123.191363,49.5448625 C123.191363,47.6387544 121.779237,46.6857148 118.954942,46.6857148 L116.63636,46.6857148 L116.63636,52.6899249 L118.954942,52.6899249 Z M140.804951,36.5643318 L144.096764,36.5643318 L144.096764,52.4611931 L152.884476,52.4611931 L152.884476,55.2631579 L140.804951,55.2631579 L140.804951,36.5643318 Z M172.673523,55.6062557 C171.585788,55.6062557 170.588713,55.3822913 169.682267,54.9343559 C168.775821,54.4864206 168.002967,53.8383535 167.363685,52.9901354 C166.724402,52.1419174 166.223479,51.1173997 165.8609,49.9165517 C165.498322,48.7157036 165.317036,47.3528568 165.317036,45.8279704 C165.317036,44.3221451 165.498322,42.9735939 165.8609,41.7822764 C166.223479,40.5909589 166.724402,39.585502 167.363685,38.7658756 C168.002967,37.9462491 168.775821,37.3172429 169.682267,36.8788381 C170.588713,36.4404332 171.585788,36.2212341 172.673523,36.2212341 C173.761258,36.2212341 174.758334,36.4404332 175.66478,36.8788381 C176.571227,37.3172429 177.344079,37.9462491 177.983363,38.7658756 C178.622646,39.585502 179.123568,40.5909589 179.486147,41.7822764 C179.848725,42.9735939 180.030011,44.3221451 180.030011,45.8279704 C180.030011,47.3528568 179.848725,48.7157036 179.486147,49.9165517 C179.123568,51.1173997 178.622646,52.1419174 177.983363,52.9901354 C177.344079,53.8383535 176.571227,54.4864206 175.66478,54.9343559 C174.758334,55.3822913 173.761258,55.6062557 172.673523,55.6062557 Z M172.673523,52.7185164 C173.265099,52.7185164 173.804187,52.5564997 174.290806,52.2324613 C174.777424,51.908423 175.192475,51.4461987 175.535971,50.8457747 C175.879466,50.2453506 176.146625,49.5210405 176.337455,48.6728224 C176.528286,47.8246044 176.6237,46.8763298 176.6237,45.8279704 C176.6237,43.7312516 176.265898,42.0872581 175.550282,40.8959406 C174.834667,39.7046231 173.875758,39.1089733 172.673523,39.1089733 C171.47129,39.1089733 170.51238,39.7046231 169.796764,40.8959406 C169.081149,42.0872581 168.723347,43.7312516 168.723347,45.8279704 C168.723347,46.8763298 168.813991,47.8246044 168.99528,48.6728224 C169.176568,49.5210405 169.438957,50.2453506 169.782452,50.8457747 C170.125948,51.4461987 170.540998,51.908423 171.027617,52.2324613 C171.514235,52.5564997 172.062865,52.7185164 172.673523,52.7185164 Z M192.51982,45.9709278 C192.51982,44.4460414 192.739272,43.0784294 193.178183,41.8680508 C193.617094,40.6576723 194.222972,39.6331546 194.995837,38.794467 C195.768701,37.9557795 196.684674,37.3172429 197.743785,36.8788381 C198.802896,36.4404332 199.952634,36.2212341 201.193034,36.2212341 C202.338018,36.2212341 203.358947,36.459494 204.255852,36.936021 C205.152756,37.412548 205.906526,37.9557807 206.517185,38.5657352 L204.656594,40.6243216 C204.1986,40.1668557 203.688136,39.7999354 203.125185,39.5235497 C202.562234,39.247164 201.91819,39.1089733 201.193034,39.1089733 C200.410627,39.1089733 199.695023,39.2662248 199.046199,39.5807327 C198.397374,39.8952405 197.843973,40.3431692 197.38598,40.9245321 C196.927986,41.505895 196.570183,42.2159096 196.312562,43.0545971 C196.05494,43.8932847 195.926132,44.836794 195.926132,45.8851534 C195.926132,46.9525738 196.05494,47.9103788 196.312562,48.7585968 C196.570183,49.6068149 196.932756,50.3215947 197.400292,50.9029577 C197.867827,51.4843206 198.430769,51.9322492 199.089135,52.2467571 C199.747502,52.5612649 200.477418,52.7185164 201.278907,52.7185164 C202.04223,52.7185164 202.72444,52.5564997 203.325556,52.2324613 C203.926673,51.908423 204.494387,51.4509639 205.028713,50.8600704 L206.860678,52.8900653 C206.097355,53.766875 205.23863,54.438768 204.284476,54.9057644 C203.330322,55.3727609 202.261687,55.6062557 201.078536,55.6062557 C199.876302,55.6062557 198.755188,55.3965869 197.715161,54.9772431 C196.675134,54.5578993 195.768701,53.9384236 194.995837,53.1187971 C194.222972,52.2991707 193.617094,51.2889486 193.178183,50.0881005 C192.739272,48.8872524 192.51982,47.5148753 192.51982,45.9709278 Z M219.894351,36.5643318 L223.243414,36.5643318 L223.243414,45.0560005 L223.329287,45.0560005 L229.998788,36.5643318 L233.691344,36.5643318 L227.937827,43.8551585 L234.321083,55.2631579 L230.628527,55.2631579 L225.962738,46.4569829 L223.243414,49.8021857 L223.243414,55.2631579 L219.894351,55.2631579 L219.894351,36.5643318 Z M247.841372,50.6027471 C248.547446,51.2317628 249.344152,51.741639 250.231515,52.1323911 C251.118878,52.5231433 252.02054,52.7185164 252.936528,52.7185164 C254.081512,52.7185164 254.949779,52.4993173 255.541354,52.0609124 C256.132929,51.6225076 256.428712,51.0411534 256.428712,50.3168323 C256.428712,49.9356107 256.352381,49.6115773 256.199717,49.3447221 C256.047052,49.077867 255.83237,48.8443723 255.555666,48.6442309 C255.278961,48.4440896 254.945013,48.2582469 254.55381,48.0866971 C254.162607,47.9151474 253.738015,47.7436003 253.280021,47.5720506 L250.732443,46.4569829 C250.236284,46.2663721 249.749672,46.0281122 249.272595,45.742196 C248.795519,45.4562798 248.366156,45.1131855 247.984495,44.7129028 C247.602833,44.3126201 247.297508,43.8456306 247.068512,43.3119204 C246.839515,42.7782102 246.725018,42.1682648 246.725018,41.4820659 C246.725018,40.7386838 246.887222,40.0477299 247.211634,39.4091838 C247.536046,38.7706376 247.984491,38.2131094 248.556984,37.7365824 C249.129476,37.2600553 249.811686,36.8883699 250.603633,36.6215147 C251.39558,36.3546596 252.268619,36.2212341 253.222772,36.2212341 C254.367756,36.2212341 255.460246,36.4356681 256.500273,36.8645423 C257.540301,37.2934166 258.451504,37.8700056 259.23391,38.5943267 L257.516442,40.710096 C256.886701,40.2145079 256.228344,39.8237616 255.541354,39.5378454 C254.854364,39.2519293 254.08151,39.1089733 253.222772,39.1089733 C252.249535,39.1089733 251.481453,39.3043464 250.918503,39.6950986 C250.355552,40.0858507 250.07408,40.6243181 250.07408,41.310517 C250.07408,41.6726776 250.159953,41.9824154 250.331701,42.23974 C250.503449,42.4970646 250.737213,42.7257941 251.033,42.9259355 C251.328788,43.1260768 251.672278,43.3023891 252.063481,43.4548778 C252.454684,43.6073664 252.860193,43.7693832 253.280021,43.9409329 L255.741725,44.9988176 C256.3333,45.2275506 256.87716,45.4944017 257.37332,45.799379 C257.869479,46.1043562 258.298842,46.4569809 258.661421,46.8572636 C259.023999,47.2575463 259.305471,47.7197706 259.505843,48.2439502 C259.706215,48.7681299 259.8064,49.3733102 259.8064,50.0595091 C259.8064,50.8219522 259.648966,51.5367321 259.334096,52.2038698 C259.019225,52.8710076 258.566009,53.457127 257.974434,53.9622457 C257.382858,54.4673643 256.657712,54.867641 255.798974,55.1630878 C254.940236,55.4585345 253.967014,55.6062557 252.879279,55.6062557 C251.562546,55.6062557 250.303082,55.3679957 249.100849,54.8914687 C247.898615,54.4149417 246.829979,53.7382835 245.894908,52.8614738 L247.841372,50.6027471 Z M277.877979,39.3662966 L271.981339,39.3662966 L271.981339,36.5643318 L287.095058,36.5643318 L287.095058,39.3662966 L281.198417,39.3662966 L281.198417,55.2631579 L277.877979,55.2631579 L277.877979,39.3662966 Z M308.572949,47.600642 L307.914586,45.3133239 C307.647423,44.3221476 307.370722,43.3023952 307.084476,42.2540357 C306.79823,41.2056763 306.52153,40.1668631 306.254367,39.1375648 L306.139869,39.1375648 C305.872706,40.1859242 305.600776,41.2295027 305.324071,42.2683315 C305.047367,43.3071604 304.765896,44.3221476 304.47965,45.3133239 L303.821287,47.600642 L308.572949,47.600642 Z M309.317184,50.2024664 L303.07705,50.2024664 L301.617203,55.2631579 L298.239516,55.2631579 L304.307903,36.5643318 L308.20083,36.5643318 L314.269218,55.2631579 L310.748408,55.2631579 L309.317184,50.2024664 Z M326.100663,45.9709278 C326.100663,44.4460414 326.320115,43.0784294 326.759026,41.8680508 C327.197936,40.6576723 327.803815,39.6331546 328.576679,38.794467 C329.349544,37.9557795 330.265518,37.3172429 331.324628,36.8788381 C332.383739,36.4404332 333.533477,36.2212341 334.773877,36.2212341 C335.918861,36.2212341 336.93979,36.459494 337.836695,36.936021 C338.733599,37.412548 339.487369,37.9557807 340.098028,38.5657352 L338.237437,40.6243216 C337.779443,40.1668557 337.268979,39.7999354 336.706028,39.5235497 C336.143078,39.247164 335.499034,39.1089733 334.773877,39.1089733 C333.991471,39.1089733 333.275866,39.2662248 332.627042,39.5807327 C331.978217,39.8952405 331.424817,40.3431692 330.966823,40.9245321 C330.508829,41.505895 330.151027,42.2159096 329.893405,43.0545971 C329.635784,43.8932847 329.506975,44.836794 329.506975,45.8851534 C329.506975,46.9525738 329.635784,47.9103788 329.893405,48.7585968 C330.151027,49.6068149 330.5136,50.3215947 330.981135,50.9029577 C331.44867,51.4843206 332.011612,51.9322492 332.669978,52.2467571 C333.328344,52.5612649 334.058261,52.7185164 334.85975,52.7185164 C335.623073,52.7185164 336.305283,52.5564997 336.9064,52.2324613 C337.507516,51.908423 338.075229,51.4509639 338.609555,50.8600704 L340.441521,52.8900653 C339.678199,53.766875 338.819473,54.438768 337.86532,54.9057644 C336.911166,55.3727609 335.842529,55.6062557 334.659379,55.6062557 C333.457145,55.6062557 332.336031,55.3965869 331.296004,54.9772431 C330.255976,54.5578993 329.349544,53.9384236 328.576679,53.1187971 C327.803815,52.2991707 327.197936,51.2889486 326.759026,50.0881005 C326.320115,48.8872524 326.100663,47.5148753 326.100663,45.9709278 Z M353.475194,36.5643318 L356.824257,36.5643318 L356.824257,45.0560005 L356.910131,45.0560005 L363.579632,36.5643318 L367.272188,36.5643318 L361.51867,43.8551585 L367.901926,55.2631579 L364.20937,55.2631579 L359.543582,46.4569829 L356.824257,49.8021857 L356.824257,55.2631579 L353.475194,55.2631579 L353.475194,36.5643318 Z" id="BLOCKSTACK" fill="#270F34" fill-rule="nonzero"></path>
                <path d="M51.2971454,38.8411792 C48.1764729,38.8411792 45.6466679,36.322528 45.6466679,33.2156144 C45.6466679,30.1087008 48.1764729,27.5900496 51.2971454,27.5900496 C54.417818,27.5900496 56.9476229,30.1087008 56.9476229,33.2156144 C56.9476229,36.322528 54.417818,38.8411792 51.2971454,38.8411792 Z M73.8990553,38.8411792 C70.7783828,38.8411792 68.2485778,36.322528 68.2485778,33.2156144 C68.2485778,30.1087008 70.7783828,27.5900496 73.8990553,27.5900496 C77.0197279,27.5900496 79.5495329,30.1087008 79.5495329,33.2156144 C79.5495329,36.322528 77.0197279,38.8411792 73.8990553,38.8411792 Z M73.8990553,61.3434382 C70.7783828,61.3434382 68.2485778,58.8247871 68.2485778,55.7178734 C68.2485778,52.6109598 70.7783828,50.0923087 73.8990553,50.0923087 C77.0197279,50.0923087 79.5495329,52.6109598 79.5495329,55.7178734 C79.5495329,58.8247871 77.0197279,61.3434382 73.8990553,61.3434382 Z M51.2971454,61.3434382 C48.1764729,61.3434382 45.6466679,58.8247871 45.6466679,55.7178734 C45.6466679,52.6109598 48.1764729,50.0923087 51.2971454,50.0923087 C54.417818,50.0923087 56.9476229,52.6109598 56.9476229,55.7178734 C56.9476229,58.8247871 54.417818,61.3434382 51.2971454,61.3434382 Z" id="4dots-electric-blue" fill="#2C96FF" fill-rule="nonzero"></path>
                <path d="M47.5408621,40.337068 C44.4201895,40.337068 41.8903846,37.8184168 41.8903846,34.7115032 C41.8903846,31.6045896 44.4201895,29.0859384 47.5408621,29.0859384 C50.6615346,29.0859384 53.1913396,31.6045896 53.1913396,34.7115032 C53.1913396,37.8184168 50.6615346,40.337068 47.5408621,40.337068 Z M70.142772,40.337068 C67.0220994,40.337068 64.4922945,37.8184168 64.4922945,34.7115032 C64.4922945,31.6045896 67.0220994,29.0859384 70.142772,29.0859384 C73.2634445,29.0859384 75.7932495,31.6045896 75.7932495,34.7115032 C75.7932495,37.8184168 73.2634445,40.337068 70.142772,40.337068 Z M70.142772,62.839327 C67.0220994,62.839327 64.4922945,60.3206758 64.4922945,57.2137622 C64.4922945,54.1068486 67.0220994,51.5881975 70.142772,51.5881975 C73.2634445,51.5881975 75.7932495,54.1068486 75.7932495,57.2137622 C75.7932495,60.3206758 73.2634445,62.839327 70.142772,62.839327 Z M47.5408621,62.839327 C44.4201895,62.839327 41.8903846,60.3206758 41.8903846,57.2137622 C41.8903846,54.1068486 44.4201895,51.5881975 47.5408621,51.5881975 C50.6615346,51.5881975 53.1913396,54.1068486 53.1913396,57.2137622 C53.1913396,60.3206758 50.6615346,62.839327 47.5408621,62.839327 Z" id="4dots-magenta" fill="#E91E63" fill-rule="nonzero"></path>
                <path d="M49.4190037,38.0932348 C46.2983312,38.0932348 43.7685263,35.5745837 43.7685263,32.4676701 C43.7685263,29.3607564 46.2983312,26.8421053 49.4190037,26.8421053 C52.5396763,26.8421053 55.0694812,29.3607564 55.0694812,32.4676701 C55.0694812,35.5745837 52.5396763,38.0932348 49.4190037,38.0932348 Z M72.0209136,38.0932348 C68.9002411,38.0932348 66.3704362,35.5745837 66.3704362,32.4676701 C66.3704362,29.3607564 68.9002411,26.8421053 72.0209136,26.8421053 C75.1415862,26.8421053 77.6713911,29.3607564 77.6713911,32.4676701 C77.6713911,35.5745837 75.1415862,38.0932348 72.0209136,38.0932348 Z M72.0209136,60.5954938 C68.9002411,60.5954938 66.3704362,58.0768427 66.3704362,54.9699291 C66.3704362,51.8630154 68.9002411,49.3443643 72.0209136,49.3443643 C75.1415862,49.3443643 77.6713911,51.8630154 77.6713911,54.9699291 C77.6713911,58.0768427 75.1415862,60.5954938 72.0209136,60.5954938 Z M49.4190037,60.5954938 C46.2983312,60.5954938 43.7685263,58.0768427 43.7685263,54.9699291 C43.7685263,51.8630154 46.2983312,49.3443643 49.4190037,49.3443643 C52.5396763,49.3443643 55.0694812,51.8630154 55.0694812,54.9699291 C55.0694812,58.0768427 52.5396763,60.5954938 49.4190037,60.5954938 Z" id="4dots-rev" fill="#270F34" fill-rule="nonzero"></path>
                <g id="Logo/blockstack-bug-rounded" transform="translate(18.969231, 13.421053)">
                    <g id="blockstack-bug-rounded">
                        <g id="Fill-1" fill="#270F34" fill-rule="nonzero">
                            <path d="M63.2307435,43.2399778 C63.2307435,43.2399778 63.2460583,49.8226599 62.5285505,52.6757907 C61.8110428,55.5289215 60.4934815,57.5181512 59.033456,58.9762002 C57.5669465,60.4407247 55.6242598,61.7724077 52.6630197,62.4662176 C49.7018414,63.1600273 43.2765684,63.1478162 43.2765684,63.1478162 L19.9340079,63.1578688 C19.9340079,63.1578688 13.3426195,63.1732251 10.4858036,62.4566584 C7.62892601,61.74003 5.63708399,60.4241966 4.1771203,58.966086 C2.71061079,57.5014998 1.37724069,55.561361 0.682519783,52.6040662 C-0.0122011189,49.6467714 2.59689255e-05,43.2299252 2.59689255e-05,43.2299252 L2.59689255e-05,19.9179167 C2.59689255e-05,19.9179167 -0.0153505203,13.3352346 0.70221898,10.4821037 C1.41972673,7.62897292 2.73728807,5.63980487 4.19731352,4.18175592 C5.66382303,2.71716973 7.60650968,1.38548667 10.567688,0.691676893 C13.5289282,-0.00213288296 19.9541393,0.0100781691 19.9541393,0.0100781691 L43.2967616,2.56363439e-05 C43.2967616,2.56363439e-05 49.88815,-0.0152690147 52.7449659,0.701297723 C55.6018435,1.41786446 57.5936238,2.73369783 59.0535875,4.19180845 C60.520097,5.65639464 61.8535289,7.59653346 62.5482497,10.5538283 C63.2429706,13.5111847 63.2307435,19.9279693 63.2307435,19.9279693 L63.2307435,43.2399778 Z" id="path-1"></path>
                        </g>
                        <g id="Fill-6-Clipped">
                            <mask id="mask-2" fill="white">
                                <use xlink:href="#path-1"></use>
                            </mask>
                            <g id="path-1"></g>
                            <path d="M24.1201914,36.4294877 C25.5760769,37.3359019 26.546368,38.9416268 26.546368,40.776869 C26.546368,43.6099737 24.2395704,45.9069403 21.3942209,45.9069403 C21.0468549,45.9069403 20.7084647,45.8710781 20.3808456,45.8065264 C21.172517,46.2996301 22.1042119,46.5892164 23.1068161,46.5892164 C25.9530633,46.5892164 28.2589632,44.2922499 28.2589632,41.4591452 C28.2589632,38.9712129 26.4799466,36.8983844 24.1201914,36.4294877" id="Fill-6" fill="#2C96FF" fill-rule="nonzero" mask="url(#mask-2)"></path>
                        </g>
                        <g id="Fill-16-Clipped">
                            <mask id="mask-4" fill="white">
                                <use xlink:href="#path-3"></use>
                            </mask>
                            <g id="path-1"></g>
                            <path d="M20.3808456,45.8064367 C20.3826408,45.8064367 20.3853336,45.8064367 20.3871287,45.8073333 C18.0237831,45.3411262 16.2420737,43.2665046 16.2420737,40.7767793 C16.2420737,40.0093307 16.4162056,39.28402 16.7186922,38.6295369 C15.3956496,39.558365 14.5285809,41.0887794 14.5285809,42.8227112 C14.5285809,45.6567126 16.8362761,47.9527825 19.6816256,47.9527825 C21.0315959,47.9527825 22.2568016,47.4309892 23.1759303,46.5855405 C23.1525931,46.5855405 23.1301534,46.5891268 23.1068161,46.5891268 C22.1042119,46.5891268 21.172517,46.2995404 20.3808456,45.8064367" id="Fill-16" fill="#E91E63" fill-rule="nonzero" mask="url(#mask-4)"></path>
                        </g>
                        <g id="Fill-18-Clipped">
                            <mask id="mask-6" fill="white">
                                <use xlink:href="#path-5"></use>
                            </mask>
                            <g id="path-1"></g>
                            <path d="M21.3941311,45.9067609 C24.2394807,45.9067609 26.5462783,43.6097944 26.5462783,40.7766896 C26.5462783,37.9435849 24.2394807,35.6466184 21.3941311,35.6466184 C18.5487816,35.6466184 16.241984,37.9435849 16.241984,40.7766896 C16.241984,43.6097944 18.5487816,45.9067609 21.3941311,45.9067609" id="Fill-18" fill="#FEFEFE" fill-rule="nonzero" mask="url(#mask-6)"></path>
                        </g>
                        <g id="Fill-20-Clipped">
                            <mask id="mask-8" fill="white">
                                <use xlink:href="#path-7"></use>
                            </mask>
                            <g id="path-1"></g>
                            <path d="M24.1201914,15.9094716 C25.5760769,16.8158858 26.546368,18.4216106 26.546368,20.2568529 C26.546368,23.0899576 24.2395704,25.3869241 21.3942209,25.3869241 C21.0468549,25.3869241 20.7084647,25.3519586 20.3808456,25.2865103 C21.172517,25.779614 22.1042119,26.0692003 23.1068161,26.0692003 C25.9530633,26.0692003 28.2589632,23.7722338 28.2589632,20.9391291 C28.2589632,18.4511968 26.4799466,16.3783683 24.1201914,15.9094716" id="Fill-20" fill="#2C96FF" fill-rule="nonzero" mask="url(#mask-8)"></path>
                        </g>
                        <g id="Fill-26-Clipped">
                            <mask id="mask-10" fill="white">
                                <use xlink:href="#path-9"></use>
                            </mask>
                            <g id="path-1"></g>
                            <path d="M20.3808456,25.2865103 C20.3826408,25.2865103 20.3853336,25.2865103 20.3871287,25.2874068 C18.0237831,24.8211997 16.2420737,22.7465781 16.2420737,20.2568529 C16.2420737,19.4894042 16.4162056,18.7640935 16.7186922,18.1105071 C15.3956496,19.0384385 14.5285809,20.5688529 14.5285809,22.3027848 C14.5285809,25.1367861 16.8362761,27.4328561 19.6816256,27.4328561 C21.0315959,27.4328561 22.2568016,26.9119593 23.1759303,26.0656141 C23.1525931,26.0656141 23.1301534,26.0692003 23.1068161,26.0692003 C22.1042119,26.0692003 21.172517,25.779614 20.3808456,25.2865103" id="Fill-26" fill="#E91E63" fill-rule="nonzero" mask="url(#mask-10)"></path>
                        </g>
                        <g id="Fill-34-Clipped">
                            <mask id="mask-12" fill="white">
                                <use xlink:href="#path-11"></use>
                            </mask>
                            <g id="path-1"></g>
                            <path d="M21.3941311,25.3867448 C24.2394807,25.3867448 26.5462783,23.0897783 26.5462783,20.2566735 C26.5462783,17.4235688 24.2394807,15.1274988 21.3941311,15.1274988 C18.5487816,15.1274988 16.241984,17.4235688 16.241984,20.2566735 C16.241984,23.0897783 18.5487816,25.3867448 21.3941311,25.3867448" id="Fill-34" fill="#FEFEFE" fill-rule="nonzero" mask="url(#mask-12)"></path>
                        </g>
                        <g id="Fill-36-Clipped">
                            <mask id="mask-14" fill="white">
                                <use xlink:href="#path-13"></use>
                            </mask>
                            <g id="path-1"></g>
                            <path d="M44.7300366,15.9094716 C46.1859221,16.8158858 47.1571108,18.4216106 47.1571108,20.2568529 C47.1571108,23.0899576 44.8494156,25.3869241 42.004066,25.3869241 C41.6575976,25.3869241 41.3183099,25.3519586 40.9906908,25.2865103 C41.7823622,25.779614 42.7140571,26.0692003 43.7166613,26.0692003 C46.5629085,26.0692003 48.869706,23.7722338 48.869706,20.9391291 C48.869706,18.4511968 47.0897918,16.3783683 44.7300366,15.9094716" id="Fill-36" fill="#2C96FF" fill-rule="nonzero" mask="url(#mask-14)"></path>
                        </g>
                        <g id="Fill-40-Clipped">
                            <mask id="mask-16" fill="white">
                                <use xlink:href="#path-15"></use>
                            </mask>
                            <g id="path-1"></g>
                            <path d="M40.9906908,25.2865103 C40.992486,25.2865103 40.9951787,25.2865103 40.9978715,25.2874068 C38.6345259,24.8211997 36.8519189,22.7465781 36.8519189,20.2568529 C36.8519189,19.4894042 37.0260507,18.7640935 37.329435,18.1105071 C36.0054947,19.0384385 35.1384261,20.5688529 35.1384261,22.3027848 C35.1384261,25.1367861 37.4461212,27.4328561 40.2914708,27.4328561 C41.6423387,27.4328561 42.8666468,26.9119593 43.7857755,26.0656141 C43.7624382,26.0656141 43.7399986,26.0692003 43.7166613,26.0692003 C42.7140571,26.0692003 41.7823622,25.779614 40.9906908,25.2865103" id="Fill-40" fill="#E91E63" fill-rule="nonzero" mask="url(#mask-16)"></path>
                        </g>
                        <g id="Fill-50-Clipped">
                            <mask id="mask-18" fill="white">
                                <use xlink:href="#path-17"></use>
                            </mask>
                            <g id="path-1"></g>
                            <path d="M42.0039763,25.3867448 C44.8493258,25.3867448 47.1570211,23.0897783 47.1570211,20.2566735 C47.1570211,17.4235688 44.8493258,15.1274988 42.0039763,15.1274988 C39.1586267,15.1274988 36.8518292,17.4235688 36.8518292,20.2566735 C36.8518292,23.0897783 39.1586267,25.3867448 42.0039763,25.3867448" id="Fill-50" fill="#FEFEFE" fill-rule="nonzero" mask="url(#mask-18)"></path>
                        </g>
                        <g id="Fill-52-Clipped">
                            <mask id="mask-20" fill="white">
                                <use xlink:href="#path-19"></use>
                            </mask>
                            <g id="path-1"></g>
                            <path d="M44.7300366,36.4294877 C46.1859221,37.3359019 47.1571108,38.9416268 47.1571108,40.776869 C47.1571108,43.6099737 44.8494156,45.9069403 42.004066,45.9069403 C41.6575976,45.9069403 41.3183099,45.8710781 40.9906908,45.8065264 C41.7823622,46.2996301 42.7140571,46.5892164 43.7166613,46.5892164 C46.5629085,46.5892164 48.869706,44.2922499 48.869706,41.4591452 C48.869706,38.9712129 47.0897918,36.8983844 44.7300366,36.4294877" id="Fill-52" fill="#2C96FF" fill-rule="nonzero" mask="url(#mask-20)"></path>
                        </g>
                        <g id="Fill-62-Clipped">
                            <mask id="mask-22" fill="white">
                                <use xlink:href="#path-21"></use>
                            </mask>
                            <g id="path-1"></g>
                            <path d="M40.9906908,45.8064367 C40.992486,45.8064367 40.9951787,45.8064367 40.9978715,45.8073333 C38.6345259,45.3411262 36.8519189,43.2665046 36.8519189,40.7767793 C36.8519189,40.0093307 37.0260507,39.28402 37.329435,38.6295369 C36.0054947,39.558365 35.1384261,41.0887794 35.1384261,42.8227112 C35.1384261,45.6567126 37.4461212,47.9527825 40.2914708,47.9527825 C41.6423387,47.9527825 42.8666468,47.4309892 43.7857755,46.5855405 C43.7624382,46.5855405 43.7399986,46.5891268 43.7166613,46.5891268 C42.7140571,46.5891268 41.7823622,46.2995404 40.9906908,45.8064367" id="Fill-62" fill="#E91E63" fill-rule="nonzero" mask="url(#mask-22)"></path>
                        </g>
                        <g id="Fill-64-Clipped">
                            <mask id="mask-24" fill="white">
                                <use xlink:href="#path-23"></use>
                            </mask>
                            <g id="path-1"></g>
                            <path d="M42.0039763,45.9067609 C44.8493258,45.9067609 47.1570211,43.6097944 47.1570211,40.7766896 C47.1570211,37.9435849 44.8493258,35.6466184 42.0039763,35.6466184 C39.1586267,35.6466184 36.8518292,37.9435849 36.8518292,40.7766896 C36.8518292,43.6097944 39.1586267,45.9067609 42.0039763,45.9067609" id="Fill-64" fill="#FEFEFE" fill-rule="nonzero" mask="url(#mask-24)"></path>
                        </g>
                    </g>
                </g>
            </g>
        </g>
    </g>
</svg>