<?xml version="1.0" encoding="UTF-8"?>
<svg width="160px" height="22px" viewBox="0 0 160 22" version="1.1" xmlns="http://www.w3.org/2000/svg" xmlns:xlink="http://www.w3.org/1999/xlink">
    <!-- Generator: Sketch 49 (51002) - http://www.bohemiancoding.com/sketch -->
    <title>logo</title>
    <desc>Created with Sketch.</desc>
    <defs></defs>
    <g id="Page-1" stroke="none" stroke-width="1" fill="none" fill-rule="evenodd">
        <g id="Artboard" transform="translate(-20.000000, -9.000000)" fill="#000000" fill-rule="nonzero">
            <g id="logo" transform="translate(20.000000, 9.000000)">
                <g id="Group" transform="translate(0.000000, 0.500000)">
                    <path d="M0.206,21.003 L3.246,21.003 C3.36,21.003 3.453,20.91 3.453,20.797 L3.453,12.147 C3.453,12.032 3.545,11.939 3.658,11.939 L13.442,11.939 C13.556,11.939 13.648,11.847 13.648,11.732 L13.648,8.98 C13.648,8.867 13.556,8.776 13.442,8.776 L3.658,8.776 C3.545,8.776 3.453,8.683 3.453,8.569 L3.453,3.66 C3.453,3.544 3.545,3.453 3.658,3.453 L14.738,3.453 C14.851,3.453 14.943,3.361 14.943,3.246 L14.943,0.494 C14.943,0.379 14.851,0.288 14.737,0.288 L0.207,0.288 C0.09,0.288 0,0.378 0,0.494 L0,20.797 C0,20.91 0.092,21.003 0.206,21.003" id="Shape"></path>
                </g>
                <g id="Group" transform="translate(18.250000, 0.500000)">
                    <path d="M3.438,0.287 L0.398,0.287 C0.284229342,0.287 0.192,0.379229342 0.192,0.493 L0.192,20.796 C0.192,20.911 0.284,21.002 0.398,21.002 L14.928,21.002 C14.9827162,21.0022676 15.0352687,20.98065 15.0739593,20.9419593 C15.11265,20.9032687 15.1342676,20.8507162 15.134,20.796 L15.134,18.044 C15.134,17.9302293 15.0417707,17.838 14.928,17.838 L3.85,17.838 C3.73662006,17.8374496 3.64499866,17.7453813 3.645,17.632 L3.645,0.493 C3.645,0.379229342 3.55277066,0.287 3.439,0.287" id="Shape"></path>
                </g>
                <g id="Group" transform="translate(37.500000, 0.500000)">
                    <path d="M0.588,21.003 L15.121,21.003 C15.2343799,21.0024496 15.3260013,20.9103813 15.326,20.797 L15.326,18.044 C15.3260013,17.9306187 15.2343799,17.8385504 15.121,17.838 L4.04,17.838 C3.92622934,17.838 3.834,17.7457707 3.834,17.632 L3.834,12.146 C3.834,12.032 3.927,11.939 4.04,11.939 L13.824,11.939 C13.8785431,11.9390006 13.9308378,11.9172653 13.9693116,11.8786038 C14.0077854,11.8399423 14.0292661,11.7875424 14.029,11.733 L14.029,8.981 C14.029,8.86778163 13.9372184,8.776 13.824,8.776 L4.04,8.776 C3.9851917,8.77600065 3.93264268,8.75415992 3.89398131,8.71531087 C3.85531994,8.67646183 3.83373394,8.62380765 3.834,8.569 L3.834,3.659 C3.834,3.544 3.927,3.453 4.04,3.453 L15.12,3.453 C15.1746348,3.45273543 15.2269267,3.43077777 15.2653718,3.3919576 C15.3038169,3.35313743 15.3252659,3.30063479 15.325,3.246 L15.325,0.494 C15.3250013,0.380618724 15.2333799,0.288550395 15.12,0.288 L0.588,0.288 C0.47462006,0.288550395 0.382998664,0.380618724 0.383,0.494 L0.383,20.797 C0.383,20.91 0.475,21.003 0.588,21.003" id="Shape"></path>
                </g>
                <g id="Group" transform="translate(57.050000, 0.500000)">
                    <path d="M9.743,7.802 L3.395,0.361 C3.356293,0.314190301 3.29874023,0.287063516 3.238,0.287 L1.078,0.287 C0.96462006,0.287550395 0.872998664,0.379618724 0.873,0.493 L0.873,2.648 C0.873,2.698 0.89,2.744 0.923,2.782 L7.516,10.511 C7.58205219,10.5881237 7.58205219,10.7018763 7.516,10.779 L0.922,18.509 C0.890372429,18.546097 0.873,18.5932507 0.873,18.642 L0.873,20.797 C0.873,20.911 0.965,21.003 1.079,21.003 L3.238,21.003 C3.298,21.003 3.356,20.976 3.395,20.931 L9.743,13.489 C9.78195089,13.442963 9.83919599,13.4164113 9.8995,13.4164113 C9.95980401,13.4164113 10.0170491,13.442963 10.056,13.489 L16.406,20.931 C16.4446386,20.9765289 16.5012857,21.0028424 16.561,21.003 L18.793,21.003 C18.9067707,21.003 18.999,20.9107707 18.999,20.797 L18.999,18.727 C18.9988059,18.6779836 18.9814715,18.6305792 18.95,18.593 L12.283,10.779 C12.2173669,10.7017218 12.2173669,10.5882782 12.283,10.511 L18.95,2.697 C18.9813266,2.65972756 18.9986571,2.61268749 18.999,2.564 L18.999,0.494 C18.9992661,0.439192346 18.9776801,0.386538172 18.9390187,0.347689126 C18.9003573,0.308840081 18.8478083,0.286999354 18.793,0.287 L16.561,0.287 C16.5008326,0.287096037 16.4439054,0.314274166 16.406,0.361 L10.056,7.802 C10.0168629,7.84772424 9.95968654,7.87404572 9.8995,7.87404572 C9.83931346,7.87404572 9.78213711,7.84772424 9.743,7.802" id="Shape"></path>
                </g>
                <g id="Group" transform="translate(79.520000, 0.500000)">
                    <path d="M9.95,10.213 L4.133,10.213 C4.07845756,10.2132661 4.02605774,10.1917854 3.98739623,10.1533116 C3.94873472,10.1148378 3.92699935,10.0625431 3.927,10.008 L3.927,3.658 C3.927,3.545 4.019,3.453 4.133,3.453 L10.1,3.453 C11.0549963,3.45398114 11.9651184,3.85843687 12.6058485,4.56659218 C13.2465786,5.27474749 13.5582585,6.2206662 13.464,7.171 C13.294,8.927 11.714,10.213 9.95,10.213 M9.869,0.288 L0.679,0.288 C0.56562006,0.288550395 0.473998664,0.380618724 0.474,0.494 L0.474,20.797 C0.474,20.91 0.566,21.002 0.679,21.002 L3.721,21.002 C3.83438128,21.0020013 3.92644961,20.9103799 3.927,20.797 L3.927,13.584 C3.927,13.471 4.019,13.378 4.133,13.378 L10.1,13.378 C11.9129574,13.3757283 13.6439618,12.6224784 14.8813007,11.2974078 C16.1186396,9.97233725 16.7517322,8.19386729 16.63,6.385 C16.399,2.91 13.353,0.288 9.87,0.288" id="Shape"></path>
                </g>
                <g id="Group" transform="translate(98.590000, 0.000000)">
                    <path d="M11.365,18.055 C7.278,18.055 3.955,14.731 3.955,10.645 C3.955,6.56 7.278,3.235 11.365,3.235 C15.451,3.235 18.775,6.56 18.775,10.645 C18.775,14.731 15.451,18.055 11.365,18.055 M11.365,0 C5.495,0 0.72,4.775 0.72,10.645 C0.72,16.515 5.495,21.29 11.365,21.29 C17.235,21.29 22.01,16.515 22.01,10.645 C22.01,4.775 17.235,0 11.365,0" id="Shape"></path>
                </g>
                <g id="Group" transform="translate(123.480000, 0.500000)">
                    <path d="M10.127,10.213 L4.562,10.213 C4.44822934,10.213 4.356,10.1207707 4.356,10.007 L4.356,3.66 C4.356,3.546 4.448,3.454 4.562,3.454 L10.277,3.454 C11.2319963,3.45498114 12.1421184,3.85943687 12.7828485,4.56759218 C13.4235786,5.27574749 13.7352585,6.2216662 13.641,7.172 C13.47,8.928 11.891,10.214 10.127,10.214 M16.823,6.835 L16.821,6.835 L16.823,6.835 C16.8202442,3.22056229 13.8914367,0.29085994 10.277,0.287 L1.109,0.287 C0.99562006,0.287550395 0.903998664,0.379618724 0.904,0.493 L0.904,20.796 C0.904,20.909 0.996,21.001 1.109,21.001 L4.15,21.001 C4.26338128,21.0010013 4.35544961,20.9093799 4.356,20.796 L4.356,13.585 C4.356,13.471 4.448,13.379 4.562,13.379 L8.279,13.379 C8.342,13.379 8.402,13.409 8.441,13.459 L14.188,20.921 C14.226,20.971 14.287,21.001 14.351,21.001 L16.575,21.001 C16.6883813,21.0010013 16.7804496,20.9093799 16.781,20.796 L16.781,18.823 C16.7810079,18.7773983 16.7658844,18.7330829 16.738,18.697 L12.544,13.247 C12.5044033,13.1954837 12.4918595,13.1281258 12.5102577,13.0658094 C12.5286559,13.003493 12.5757725,12.9537491 12.637,12.932 C15.081,11.984 16.823,9.61 16.823,6.833" id="Shape"></path>
                </g>
                <g id="Group" transform="translate(142.220000, 0.500000)">
                    <path d="M0.558,0.493 L0.558,3.247 C0.558,3.36 0.65,3.453 0.764,3.453 L7.227,3.453 C7.341,3.453 7.433,3.545 7.433,3.658 L7.433,20.796 C7.433,20.911 7.525,21.002 7.639,21.002 L10.68,21.002 C10.7937707,21.002 10.886,20.9097707 10.886,20.796 L10.886,3.658 C10.886,3.545 10.978,3.453 11.092,3.453 L17.555,3.453 C17.6096346,3.453 17.6620315,3.43129649 17.700664,3.392664 C17.7392965,3.3540315 17.761,3.3016346 17.761,3.247 L17.761,0.493 C17.761,0.379229342 17.6687707,0.287 17.555,0.287 L0.764,0.287 C0.650229342,0.287 0.558,0.379229342 0.558,0.493" id="Shape"></path>
                </g>
            </g>
        </g>
    </g>
</svg>