<?xml version="1.0" encoding="UTF-8"?>
<svg width="332px" height="70px" viewBox="0 0 332 70" version="1.1" xmlns="http://www.w3.org/2000/svg" xmlns:xlink="http://www.w3.org/1999/xlink">
    <!-- Generator: Sketch 49 (51002) - http://www.bohemiancoding.com/sketch -->
    <title>Front logo</title>
    <desc>Created with Sketch.</desc>
    <defs></defs>
    <g id="Page-1" stroke="none" stroke-width="1" fill="none" fill-rule="evenodd">
        <g id="Stage-Printed-Banner" transform="translate(-600.000000, -1849.000000)" fill="#FF5959">
            <g id="Front-logo" transform="translate(600.000000, 1849.000000)">
                <polyline id="Shape" points="293.134407 11.5634615 293.134407 21.2907692 306.981236 21.2907692 306.981236 57.2653846 317.680813 57.2653846 317.680813 21.2907692 331.524943 21.2907692 331.524943 11.5634615 293.134407 11.5634615"></polyline>
                <polyline id="Shape" points="275.832618 35.2557692 248.392683 10.6911538 246.94322 10.9415385 246.94322 57.2653846 257.642797 57.2653846 257.642797 33.3873077 285.460618 58.1376923 286.529496 57.9519231 286.529496 11.5634615 275.832618 11.5634615 275.832618 35.2557692"></polyline>
                <path d="M215.040698,10.8163462 C200.754458,10.8163462 191.187733,20.9790093 191.187733,34.4468573 C191.187733,47.8514521 200.314344,58.0141154 214.600585,58.0141154 C228.82383,58.0141154 238.451847,47.8514521 238.451847,34.4468573 C238.451847,20.9790093 229.263944,10.8163462 215.040698,10.8163462 Z M214.78958,48.5993846 C207.489818,48.5993846 202.580462,42.6139692 202.580462,34.4467485 C202.580462,26.2162752 207.489818,20.2932692 214.78958,20.2932692 C222.089342,20.2932692 226.997847,26.2162752 226.997847,34.4467485 C226.997847,42.6139692 222.089342,48.5993846 214.78958,48.5993846 Z M184.833818,26.4034373 C184.833818,18.0481155 179.170222,11.2530385 164.821823,11.2530385 C159.407654,11.2530385 155.129098,11.5642441 151.22681,12.0011126 L151.22681,57.2659231 L161.925753,57.2659231 L161.925753,42.3019103 C163.435932,42.3643201 164.317011,42.42673 165.890185,42.42673 C166.520987,42.42673 167.087091,42.42673 167.71619,42.3643201 L175.58291,57.2659231 L187.728185,57.2659231 L176.904955,39.6208193 C181.876456,36.6900892 184.833818,31.8271857 184.833818,26.4034373 Z M165.324171,33.8226538 C164.065974,33.8226538 163.310886,33.761087 161.925847,33.6354232 L161.925847,21.041205 C163.436024,20.7915641 164.443944,20.7291538 166.07926,20.7291538 C170.673637,20.7291538 173.694842,22.9742358 173.694842,26.7770436 C173.694842,31.3911845 170.422508,33.8226538 165.324171,33.8226538 Z" id="Shape"></path>
                <polyline id="Shape" points="113.530504 57.2653846 124.227382 57.2653846 124.227382 40.6807692 140.087805 40.6807692 140.087805 31.3923077 124.227382 31.3923077 124.227382 21.2907692 142.730309 21.2907692 142.730309 11.5634615 113.530504 11.5634615 113.530504 57.2653846"></polyline>
                <path d="M49.080146,0.0220769231 C48.8400849,0.0220769231 48.6085365,0.108944227 48.4280648,0.265811396 L43.1807681,3.95725012 C42.8070557,4.28110491 42.2494668,4.28110491 41.8766054,3.95725012 L36.629309,0.265811396 C36.4488373,0.108944227 36.2172889,0.0220769231 35.9772275,0.0220769231 L12.7993976,0.0220769231 C12.5252851,0.0220769231 12.2613879,0.133402011 12.0741061,0.331594402 C5.1114781,7.68832731 0.833790665,17.5692722 0.79037533,28.4394923 C0.700990816,51.0030637 19.157616,69.6373653 41.9310874,69.9527863 C65.2561893,70.2757978 84.2669984,51.6406528 84.2669984,28.60648 C84.2669984,17.6696335 79.9807982,7.72627905 72.9824164,0.331594402 C72.7951346,0.133402011 72.5320886,0.0220769231 72.2579762,0.0220769231 L49.080146,0.0220769231 Z M69.9062037,29.0364356 C69.9062037,44.5933382 56.7071032,57.2839755 40.8221904,56.4524076 C26.6577173,55.7110804 15.775411,44.0726919 15.2842216,30.0288046 C15.0305397,22.7808365 17.4283862,16.1159241 21.8576039,11.0953103 C22.1972652,10.7098878 22.172578,10.1288021 21.8082295,9.76699408 L13.621987,1.80869231 L41.3638001,21.4954006 C42.0882408,22.0722694 43.119994,22.0722694 43.8444345,21.4954006 L71.5735317,1.80869231 L63.2387276,9.76783726 C62.8752305,10.1296453 62.8479895,10.710731 63.1867995,11.0953101 C67.4193712,15.8907427 69.9062037,22.1646128 69.9062037,29.0364356 Z" id="Shape"></path>
            </g>
        </g>
    </g>
</svg>