<?xml version="1.0" encoding="UTF-8"?>
<svg width="475px" height="167px" viewBox="0 0 475 167" version="1.1" xmlns="http://www.w3.org/2000/svg" xmlns:xlink="http://www.w3.org/1999/xlink">
    <!-- Generator: Sketch 49 (51002) - http://www.bohemiancoding.com/sketch -->
    <title>Hasura-Horizontal-Logo (1)</title>
    <desc>Created with Sketch.</desc>
    <defs></defs>
    <g id="Page-1" stroke="none" stroke-width="1" fill="none" fill-rule="evenodd">
        <g id="Hasura-Horizontal-Logo-(1)" transform="translate(3.000000, 4.000000)">
            <rect id="Rectangle-path" fill="#FFFFFF" fill-rule="nonzero" x="165.4" y="0.5" width="302.9" height="158.1"></rect>
            <path d="M22.9,0.5 L165.5,0.5 L165.5,158.6 L22.9,158.6 C10.7497355,158.6 0.9,148.750264 0.9,136.6 L0.9,22.5 C0.9,10.3497355 10.7497355,0.5 22.9,0.5 Z" id="Rectangle-path" fill="#E14E25" fill-rule="nonzero"></path>
            <path d="M446.6,158.6 L22.6,158.6 C10.6,158.6 0.9,148.9 0.9,136.9 L0.9,22.2 C0.9,10.2 10.6,0.5 22.6,0.5 L446.6,0.5 C458.6,0.5 468.3,10.2 468.3,22.2 L468.3,136.8 C468.4,148.9 458.6,158.6 446.6,158.6 Z" id="Shape" stroke="#1C1D1D" stroke-width="7.0866"></path>
            <g id="Group" transform="translate(31.000000, 15.000000)" fill-rule="nonzero">
                <g fill="#232323">
                    <g transform="translate(15.000000, 12.000000)">
                        <g id="SVGID_3_-link" transform="translate(2.000000, 3.000000)">
                            <path d="M4.5,31.6 L9.6,16.8 C9.6,16.8 13.7,5.1 26.2,9.5 C37.7,13.6 39.3,9 44.7,8.2 C52.1,7.1 56.4,10.2 57.8,15.6 C59.2,21 62.6,31.4 62.6,31.4 L67.2,31.9 C67.4,29.8 71,-2.8 33.7,0.9 C30.8,0.5 -0.7,-4.6 0.9,31.9 L4.5,31.6 Z" id="SVGID_3_"></path>
                        </g>
                        <path d="M3,37.6 C2.4,37.6 1.7,37.4 1.2,36.9 C0.6,36.4 0.3,35.7 0.3,35 C-0.2,23.5 2.4,14.7 8.1,8.9 C14.5,2.2 23.4,0.8 29.7,0.8 C32.6,0.8 34.9,1.1 35.9,1.2 C37.8,1 39.7,0.9 41.5,0.9 C51.7,0.9 59.5,3.9 64.8,9.7 C72.8,18.5 72.3,31.3 71.9,35 C71.8,35.7 71.5,36.4 70.9,36.9 C70.4,37.3 69.8,37.5 69.2,37.5 C69.1,37.5 69,37.5 68.9,37.5 L64.3,37 C63.2,36.9 62.4,36.2 62,35.2 C61.9,34.8 58.5,24.6 57.1,19.2 C56.1,15.4 53.6,13.6 49.4,13.6 C48.6,13.6 47.8,13.7 47,13.8 C45.8,14 44.7,14.4 43.6,15 C41.7,15.9 39.5,16.8 36.2,16.8 C33.6,16.8 30.7,16.2 27.3,15 C25.7,14.4 24.2,14.1 22.8,14.1 C16.5,14.1 14.2,20.3 14.1,20.6 L9,35.4 C8.7,36.4 7.8,37.1 6.7,37.2 L3.2,37.6 C3.2,37.6 3.1,37.6 3,37.6 Z" id="Shape"></path>
                    </g>
                    <g>
                        <path d="M51.4,121.7 C38.8,121.7 29,115.4 29,107.4 C29,99.4 38.8,93.1 51.4,93.1 C64,93.1 73.8,99.4 73.8,107.4 C73.8,115.4 63.9,121.7 51.4,121.7 Z" id="Shape"></path>
                        <path d="M51.4,116.3 C38.8,116.3 29,110 29,102 C29,94 38.8,87.7 51.4,87.7 C64,87.7 73.8,94 73.8,102 C73.8,110 63.9,116.3 51.4,116.3 Z" id="Shape"></path>
                        <g id="Shape">
                            <path d="M21.7,39.1 C21.4,39.1 21.1,39.1 20.9,39 C5,33.7 0.8,14.4 2.2,5.7 C3,0.9 5.4,0.1 6.8,0.1 C9.8,0.1 11.4,3.6 12,4.7 C17.7,17 31,17.5 31.2,17.5 C32.1,17.5 33,18.1 33.5,18.9 C34,19.7 34,20.7 33.5,21.6 L24,37.8 C23.5,38.6 22.6,39.1 21.7,39.1 Z"></path>
                            <path d="M16.4,68.8 C11.1,68.8 6.8,63.6 6.8,57.2 C6.8,50.8 11.1,45.6 16.4,45.6 C21.7,45.6 26,50.8 26,57.2 C26.1,63.6 21.7,68.8 16.4,68.8 Z"></path>
                            <path d="M86.7,68.8 C81.4,68.8 77.1,63.6 77.1,57.2 C77.1,50.8 81.4,45.6 86.7,45.6 C92,45.6 96.3,50.8 96.3,57.2 C96.4,63.6 92.1,68.8 86.7,68.8 Z"></path>
                            <path d="M81.5,39.1 C80.6,39.1 79.7,38.6 79.2,37.8 L69.8,21.6 C69.3,20.8 69.3,19.8 69.8,18.9 C70.3,18.1 71.1,17.5 72.1,17.5 C72.6,17.5 85.6,16.9 91.4,4.7 C91.9,3.6 93.6,0.1 96.6,0.1 C98,0.1 100.4,0.8 101.2,5.7 C102.6,14.4 98.5,33.7 82.5,39 C82.1,39 81.8,39.1 81.5,39.1 Z"></path>
                            <path d="M50.9,107.9 C28.7,107.9 11.3,89.1 11.3,65 C11.3,64.8 11.3,64.5 11.4,64.3 L20.8,29.6 C23.1,19.2 34.6,12.9 51.5,12.9 C68.5,12.9 80.7,19.3 82.6,29.2 L82.9,30.3 L90.6,64.4 C90.6,64.6 90.7,64.8 90.7,65 C90.5,89.1 73.1,107.9 50.9,107.9 Z"></path>
                            <path d="M18.1,48.3 C17.5,48.3 16.8,48.1 16.3,47.6 C15.7,47.1 15.4,46.4 15.4,45.7 C14.9,34.2 17.5,25.5 23.2,19.6 C29.6,12.9 38.5,11.5 44.8,11.5 C47.7,11.5 50,11.8 51,11.9 C52.9,11.7 54.8,11.6 56.6,11.6 C66.8,11.6 74.6,14.6 79.9,20.4 C87.7,29 87.5,41 87.1,45.7 C87,46.4 86.7,47.1 86.1,47.6 C85.6,48 85,48.3 84.4,48.3 C84.3,48.3 84.2,48.3 84.2,48.3 L79.6,47.8 C78.5,47.7 77.7,47 77.3,46 C77.2,45.6 73.8,35.4 72.4,30 C71.4,26.2 68.9,24.4 64.7,24.4 C63.9,24.4 63.1,24.5 62.3,24.6 C61.1,24.8 60,25.2 58.9,25.8 C57,26.7 54.8,27.6 51.5,27.6 C48.9,27.6 46,27 42.6,25.8 C41,25.2 39.5,24.9 38.1,24.9 C31.7,24.9 29.4,31.3 29.4,31.4 L24.3,46.2 C24,47.2 23.1,47.9 22,48 L18.5,48.4 C18.2,48.3 18.2,48.3 18.1,48.3 Z"></path>
                            <path d="M21,101.9 C20.2,101.9 19.5,101.6 19,101 C18.2,100.1 18.1,98.8 18.8,97.8 C23.8,89.8 22.3,85.9 20.9,85 C19.8,84.4 19.3,83 19.8,81.8 C24.6,68.3 38.2,67.9 39.8,67.9 C39.8,67.9 40,67.9 40,67.9 C41.2,67.9 42.3,68.8 42.6,70.1 C46,86.7 30.8,98 22.3,101.8 C21.8,101.9 21.4,101.9 21,101.9 Z"></path>
                            <path d="M81.9,101.9 C81.5,101.9 81.2,101.8 80.8,101.7 C72.3,98 57.1,86.6 60.5,70 C60.8,68.8 61.8,67.9 63.1,67.8 C63.1,67.8 63.3,67.8 63.3,67.8 C64.8,67.8 78.4,68.2 83.3,81.7 C83.7,82.9 83.2,84.3 82.1,85 C82,85.1 78.1,87.8 84.3,97.8 C84.9,98.8 84.8,100.1 84.1,101 C83.4,101.6 82.7,101.9 81.9,101.9 Z"></path>
                            <path d="M30.2,86.7 C6.5,86.7 0.7,63.2 0.6,63 C0.3,61.8 0.9,60.6 1.9,60 C2.3,59.8 2.8,59.7 3.2,59.7 C3.9,59.7 4.6,60 5.1,60.5 C6.9,62.3 10.2,63.3 14.7,63.3 C25.7,63.3 40.1,57.6 41.7,57 L41.8,56.9 C42.1,56.7 42.5,56.7 42.9,56.7 C43.4,56.7 43.8,56.8 44.2,57.1 C44.9,57.5 45.4,58.3 45.5,59.1 L48.1,80.8 C48.2,82 47.5,83.2 46.3,83.7 C40.7,85.6 35.2,86.7 30.2,86.7 Z"></path>
                            <path d="M72.6,86.7 C67.6,86.7 62.1,85.6 56.3,83.6 C55.1,83.2 54.4,82 54.5,80.7 L57.1,59 C57.2,58.1 57.7,57.4 58.5,57 C58.9,56.8 59.4,56.7 59.8,56.7 C60.2,56.7 60.6,56.8 60.9,56.9 C62.6,57.6 77,63.3 88,63.3 C92.5,63.3 95.7,62.4 97.6,60.5 C98.1,60 98.8,59.7 99.5,59.7 C99.9,59.7 100.4,59.8 100.8,60 C101.9,60.6 102.4,61.8 102.1,63 C102.1,63.2 96.3,86.7 72.6,86.7 Z"></path>
                        </g>
                        <circle id="Oval" cx="52" cy="118.5" r="7.6"></circle>
                    </g>
                    <g transform="translate(15.000000, 12.000000)">
                        <g id="SVGID_5_-link" transform="translate(2.000000, 3.000000)">
                            <path d="M4.5,31.6 L9.6,16.8 C9.6,16.8 13.7,5.1 26.2,9.5 C37.7,13.6 39.3,9 44.7,8.2 C52.1,7.1 56.4,10.2 57.8,15.6 C59.2,21 62.6,31.4 62.6,31.4 L67.2,31.9 C67.4,29.8 71,-2.8 33.7,0.9 C30.8,0.5 -0.7,-4.6 0.9,31.9 L4.5,31.6 Z" id="SVGID_5_"></path>
                        </g>
                        <path d="M3,37.6 C2.4,37.6 1.7,37.4 1.2,36.9 C0.6,36.4 0.3,35.7 0.3,35 C-0.2,23.5 2.4,14.7 8.1,8.9 C14.5,2.2 23.4,0.8 29.7,0.8 C32.6,0.8 34.9,1.1 35.9,1.2 C37.8,1 39.7,0.9 41.5,0.9 C51.7,0.9 59.5,3.9 64.8,9.7 C72.8,18.5 72.3,31.3 71.9,35 C71.8,35.7 71.5,36.4 70.9,36.9 C70.4,37.3 69.8,37.5 69.2,37.5 C69.1,37.5 69,37.5 68.9,37.5 L64.3,37 C63.2,36.9 62.4,36.2 62,35.2 C61.9,34.8 58.5,24.6 57.1,19.2 C56.1,15.4 53.6,13.6 49.4,13.6 C48.6,13.6 47.8,13.7 47,13.8 C45.8,14 44.7,14.4 43.6,15 C41.7,15.9 39.5,16.8 36.2,16.8 C33.6,16.8 30.7,16.2 27.3,15 C25.7,14.4 24.2,14.1 22.8,14.1 C16.5,14.1 14.2,20.3 14.1,20.6 L9,35.4 C8.7,36.4 7.8,37.1 6.7,37.2 L3.2,37.6 C3.2,37.6 3.1,37.6 3,37.6 Z" id="Shape"></path>
                    </g>
                </g>
                <g transform="translate(2.000000, 2.000000)">
                    <g transform="translate(28.000000, 93.000000)">
                        <ellipse id="Oval" fill="#F3C715" cx="21.4" cy="13" rx="19.7" ry="11.6"></ellipse>
                        <path d="M21.4,25.6 C16,25.6 10.8,24.3 7,22.1 C3,19.7 0.8,16.5 0.8,13.1 C0.8,9.6 3,6.4 7,4.1 C10.9,1.8 16,0.6 21.4,0.6 C26.8,0.6 32,1.9 35.8,4.1 C39.8,6.5 42,9.7 42,13.1 C42,16.6 39.8,19.8 35.8,22.1 C31.9,24.4 26.8,25.6 21.4,25.6 Z M21.4,2.3 C16.3,2.3 11.5,3.5 7.9,5.6 C4.5,7.6 2.6,10.3 2.6,13 C2.6,18.9 11,23.7 21.4,23.7 C31.8,23.7 40.2,18.9 40.2,13 C40.2,10.2 38.3,7.6 34.9,5.6 C31.2,3.5 26.5,2.3 21.4,2.3 Z" id="Shape" fill="#232323"></path>
                    </g>
                    <ellipse id="Oval" fill="#D59729" cx="49.3" cy="102.6" rx="19.4" ry="12.8"></ellipse>
                    <g transform="translate(28.000000, 88.000000)">
                        <ellipse id="Oval" fill="#D7994F" cx="21.4" cy="12.7" rx="19.7" ry="11.6"></ellipse>
                        <path d="M21.4,25.2 C16,25.2 10.8,23.9 7,21.7 C3,19.3 0.8,16.1 0.8,12.7 C0.8,9.2 3,6 7,3.7 C10.9,1.4 16,0.2 21.4,0.2 C26.8,0.2 32,1.5 35.8,3.7 C39.8,6.1 42,9.3 42,12.7 C42,16.2 39.8,19.4 35.8,21.7 C31.9,24 26.8,25.2 21.4,25.2 Z M21.4,2 C11,2 2.6,6.8 2.6,12.7 C2.6,18.6 11,23.4 21.4,23.4 C31.8,23.4 40.2,18.6 40.2,12.7 C40.1,6.8 31.7,2 21.4,2 Z" id="Shape" fill="#232323"></path>
                    </g>
                    <ellipse id="Oval" fill="#B8804D" cx="49.1" cy="96.1" rx="19.5" ry="13.1"></ellipse>
                    <g>
                        <g transform="translate(1.000000, 0.000000)" id="Shape">
                            <path d="M28.1,18.9 C28.1,18.9 13,18.5 6.5,4.6 C-0.1,-9.3 -3.3,27.8 18.7,35.1 L28.1,18.9 Z" fill="#FFFFFF"></path>
                            <path d="M18.7,36 C18.6,36 18.5,36 18.4,36 C10.5,33.4 6.2,27.2 4,22.5 C1.2,16.5 0.5,10.2 0.7,6.3 C0.9,3.9 1.5,1 3.4,0.6 C5.5,0.2 6.9,3.2 7.3,4.2 C13.6,17.4 28,18 28.1,18 C28.4,18 28.7,18.2 28.9,18.5 C29.1,18.8 29.1,19.1 28.9,19.4 L19.5,35.6 C19.3,35.9 19,36 18.7,36 Z M3.7,2.4 C3.7,2.4 3.7,2.4 3.7,2.4 C3.6,2.4 2.8,3.2 2.5,6.4 C2.3,10.1 2.9,16 5.6,21.7 C7.6,25.9 11.4,31.4 18.2,34 L26.5,19.7 C24.9,19.5 22.3,19 19.3,17.8 C15,16.1 9.1,12.4 5.6,5 C4.5,2.5 3.7,2.4 3.7,2.4 Z" fill="#232323"></path>
                        </g>
                        <path d="M16,32.5 C16,32.5 3.1,25.2 3.6,5.6 C3.6,5.6 4,2.7 4.8,2.4 C4.8,2.4 2.1,22.3 16.6,30.2 L16,32.5 Z" id="Shape" fill="#C1CFCF"></path>
                        <g transform="translate(6.000000, 46.000000)">
                            <ellipse id="Oval" fill="#D7994F" cx="8.4" cy="9.9" rx="7" ry="9"></ellipse>
                            <path d="M8.4,19.8 C4,19.8 0.5,15.4 0.5,9.9 C0.5,4.4 4,-1.42108547e-14 8.4,-1.42108547e-14 C12.8,-1.42108547e-14 16.3,4.4 16.3,9.9 C16.3,15.3 12.8,19.8 8.4,19.8 Z M8.4,1.9 C5.1,1.9 2.4,5.5 2.4,9.9 C2.4,14.3 5.1,17.9 8.4,17.9 C11.7,17.9 14.4,14.3 14.4,9.9 C14.4,5.5 11.7,1.9 8.4,1.9 Z" id="Shape" fill="#232323"></path>
                        </g>
                        <g transform="translate(76.000000, 46.000000)">
                            <ellipse id="Oval" fill="#D7994F" cx="8.7" cy="9.9" rx="7" ry="9"></ellipse>
                            <path d="M8.7,19.8 C4.3,19.8 0.8,15.4 0.8,9.9 C0.8,4.4 4.3,-1.42108547e-14 8.7,-1.42108547e-14 C13.1,-1.42108547e-14 16.6,4.4 16.6,9.9 C16.6,15.3 13.1,19.8 8.7,19.8 Z M8.7,1.9 C5.4,1.9 2.7,5.5 2.7,9.9 C2.7,14.3 5.4,17.9 8.7,17.9 C12,17.9 14.7,14.3 14.7,9.9 C14.8,5.5 12.1,1.9 8.7,1.9 Z" id="Shape" fill="#232323"></path>
                        </g>
                        <ellipse id="Oval" fill="#B8804D" cx="84.1" cy="55.8" rx="3.5" ry="5.4"></ellipse>
                        <ellipse id="Oval" fill="#B8804D" cx="14.4" cy="55.8" rx="3.5" ry="5.4"></ellipse>
                        <g transform="translate(69.000000, 0.000000)" id="Shape">
                            <path d="M1.1,18.9 C1.1,18.9 16.2,18.5 22.7,4.6 C29.3,-9.3 32.5,27.8 10.5,35.1 L1.1,18.9 Z" fill="#FFFFFF"></path>
                            <path d="M10.5,36 C10.2,36 9.9,35.8 9.7,35.5 L0.3,19.3 C0.1,19 0.1,18.7 0.3,18.4 C0.5,18.1 0.8,17.9 1.1,17.9 C1.3,17.9 15.7,17.3 21.9,4.1 C22.4,3.1 23.8,0.1 25.8,0.5 C27.7,0.9 28.3,3.8 28.5,6.2 C28.8,10.1 28,16.4 25.2,22.4 C23,27.1 18.7,33.3 10.8,35.9 C10.7,36 10.6,36 10.5,36 Z M2.7,19.7 L11,34 C17.8,31.5 21.6,26 23.6,21.7 C26.3,16 27,10.1 26.7,6.4 C26.5,3.2 25.7,2.4 25.5,2.4 C25.5,2.4 25.5,2.4 25.5,2.4 C25.5,2.4 24.8,2.5 23.6,5 C20.1,12.5 14.2,16.1 9.8,17.9 C6.8,19 4.2,19.5 2.7,19.7 Z" fill="#232323"></path>
                        </g>
                        <g transform="translate(10.000000, 13.000000)" id="Shape">
                            <path d="M68.2,16.7 L67.9,15.5 C66.3,6.8 54.8,1.3 39.5,1.3 C24.2,1.3 13.5,6.7 11.4,16 L2,50.7 C2,73.4 18.5,90.9 38.9,90.9 C59.3,90.9 75.8,73.4 75.8,50.7 L68.2,16.7 Z" fill="#D7994F"></path>
                            <path d="M38.9,92.3 C28.6,92.3 19,88 11.8,80.3 C4.6,72.5 0.6,62 0.6,50.7 C0.6,50.6 0.6,50.5 0.6,50.3 L10,15.7 C12.3,5.9 23.2,0 39.4,0 C55.8,0 67.5,6 69.2,15.3 L69.5,16.4 C69.5,16.4 69.5,16.4 69.5,16.5 L77.2,50.5 C77.2,50.6 77.2,50.7 77.2,50.8 C77.2,62.1 73.2,72.6 66,80.4 C58.8,88 49.2,92.3 38.9,92.3 Z M3.3,50.9 C3.3,61.4 7.1,71.2 13.8,78.4 C20.5,85.6 29.4,89.6 38.9,89.6 C48.4,89.6 57.4,85.6 64,78.4 C70.7,71.2 74.4,61.4 74.5,50.8 L66.9,17 L66.6,15.9 C66.6,15.9 66.6,15.8 66.6,15.8 C65.2,8 54.3,2.7 39.5,2.7 C24.7,2.7 14.7,7.8 12.7,16.4 C12.7,16.4 12.7,16.4 12.7,16.5 L3.3,50.9 Z" fill="#232323"></path>
                        </g>
                        <g transform="translate(15.000000, 11.000000)" id="Shape">
                            <path d="M4.5,32.9 L9.6,18.1 C9.6,18.1 13.7,6.4 26.2,10.8 C37.7,14.9 39.3,10.3 44.7,9.5 C52.1,8.4 56.4,11.5 57.8,16.9 C59.2,22.3 62.6,32.7 62.6,32.7 L67.2,33.2 C67.4,31.1 71,-1.5 33.7,2.2 C30.8,1.8 -0.7,-3.3 0.9,33.2 L4.5,32.9 Z" fill="#1D1D1D"></path>
                            <path d="M1.1,34.2 C0.9,34.2 0.7,34.1 0.5,34 C0.3,33.8 0.2,33.6 0.2,33.3 C-0.3,21.6 2.5,12.9 8.6,7.4 C12,4.3 19.9,-0.6 33.9,1.3 L34,1.3 C45.9,0.1 55,2.5 60.9,8.4 C69.2,16.7 68.7,29.4 68.4,33.2 L68.4,33.3 C68.4,33.5 68.3,33.8 68.1,33.9 C67.9,34.1 67.7,34.1 67.4,34.1 L62.8,33.6 C62.4,33.6 62.1,33.3 62,33 C62,32.9 58.5,22.5 57.1,17.1 C55.7,11.7 51.5,9.4 45,10.4 C43.5,10.6 42.4,11.1 41.1,11.7 C38,13.1 34.5,14.7 26,11.7 C22.4,10.4 19.2,10.4 16.5,11.7 C12.2,13.7 10.6,18.3 10.6,18.4 L5.5,33.2 C5.4,33.5 5.1,33.8 4.7,33.8 L1.1,34.2 C1.1,34.2 1.1,34.2 1.1,34.2 Z M63.5,31.9 L66.5,32.2 C66.8,27.9 66.7,17 59.5,9.8 C54,4.3 45.4,2.1 34,3.2 C33.9,3.2 33.9,3.2 33.8,3.2 L33.6,3.2 C20.3,1.3 13,5.9 9.8,8.8 C4.4,13.7 1.7,21.6 2,32.2 L3.9,32 L8.8,17.8 C8.9,17.6 10.7,12.4 15.7,10.1 C18.9,8.6 22.6,8.5 26.7,10 C34.4,12.7 37.5,11.4 40.4,10.1 C41.7,9.5 43.1,8.9 44.8,8.6 C52.2,7.5 57.3,10.5 59,16.7 C60,21.3 62.8,29.7 63.5,31.9 Z" fill="#232323"></path>
                        </g>
                        <path d="M79.4,82.4 C79.4,82.4 75.4,92.4 63.5,98.4 L62.4,100.3 C62.4,100.3 75.1,95.6 80.9,81.9 L79.4,82.4 Z" id="Shape" fill="#FFFFFF"></path>
                        <g transform="translate(48.000000, 39.000000)" id="Shape">
                            <path d="M1.3,1.9 L35.7,5.4 C35.7,5.4 28.9,23.4 9.8,19.3 L1.3,1.9 Z" fill="#FFFFFF"></path>
                            <path d="M15.3,21.3 C13.5,21.3 11.6,21.1 9.6,20.7 C9.2,20.6 8.9,20.3 8.7,20 L0.2,2.6 C-1.80688797e-14,2.2 -1.80688797e-14,1.6 0.3,1.2 C0.6,0.8 1.1,0.6 1.5,0.6 L35.9,4.1 C36.3,4.1 36.7,4.4 36.9,4.7 C37.1,5.1 37.2,5.5 37,5.9 C36.9,6.1 35.2,10.7 30.9,14.9 C27.7,18 22.6,21.3 15.3,21.3 Z M10.8,18.1 C18,19.5 24.1,17.7 29,13 C31.4,10.7 32.9,8.1 33.8,6.5 L3.6,3.5 L10.8,18.1 Z" fill="#232323"></path>
                        </g>
                        <g transform="translate(13.000000, 39.000000)" id="Shape">
                            <path d="M36.3,1.9 L1.9,5.4 C1.9,5.4 8.7,23.4 27.8,19.3 L36.3,1.9 Z" fill="#FFFFFF"></path>
                            <path d="M22.3,21.3 C15,21.3 9.9,18 6.7,14.9 C2.4,10.7 0.7,6.1 0.6,5.9 C0.5,5.5 0.5,5.1 0.7,4.7 C0.9,4.3 1.3,4.1 1.7,4.1 L36.1,0.6 C36.6,0.6 37.1,0.8 37.3,1.2 C37.6,1.6 37.6,2.1 37.4,2.6 L29,19.9 C28.8,20.3 28.5,20.5 28.1,20.6 C26,21.1 24.1,21.3 22.3,21.3 Z M3.9,6.5 C4.7,8.1 6.3,10.6 8.7,13 C13.6,17.8 19.7,19.5 26.9,18.1 L34,3.5 L3.9,6.5 Z" fill="#232323"></path>
                        </g>
                        <g transform="translate(18.000000, 68.000000)" id="Shape">
                            <path d="M2.2,13.4 C2.2,13.4 9,17.2 1,29.9 C1,29.9 23.6,20 19.7,1.2 C19.8,1.3 6.7,0.9 2.2,13.4 Z" fill="#FFFFFF"></path>
                            <path d="M1,30.9 C0.7,30.9 0.5,30.8 0.3,30.6 C-3.89271948e-15,30.3 -3.89271948e-15,29.8 0.2,29.5 C4.1,23.3 4.2,19.5 3.7,17.3 C3.2,15.1 1.8,14.2 1.7,14.2 C1.3,14 1.1,13.5 1.3,13.1 C3.7,6.3 8.6,3.2 12.3,1.8 C16.3,0.3 19.6,0.4 19.8,0.4 C20.2,0.4 20.6,0.7 20.7,1.2 C22.3,9.2 19.5,16.9 12.5,23.5 C7.3,28.4 1.7,30.8 1.4,31 C1.3,30.9 1.2,30.9 1,30.9 Z M3.4,13.1 C4.1,13.7 5.1,14.9 5.6,16.8 C6.4,19.8 5.7,23.4 3.5,27.7 C5.6,26.5 8.5,24.6 11.3,22 C17.6,16.1 20.2,9.4 19.1,2.3 C18,2.4 15.6,2.6 13.1,3.6 C8.4,5.3 5.2,8.5 3.4,13.1 Z" fill="#232323"></path>
                        </g>
                        <g transform="translate(59.000000, 68.000000)" id="Shape">
                            <path d="M19.7,13.4 C19.7,13.4 12.9,17.2 20.9,29.9 C20.9,29.9 -1.7,20 2.2,1.2 C2.2,1.3 15.2,0.9 19.7,13.4 Z" fill="#FFFFFF"></path>
                            <path d="M20.9,30.9 C20.8,30.9 20.6,30.9 20.5,30.8 C20.3,30.7 14.7,28.2 9.4,23.3 C2.4,16.8 -0.4,9.1 1.2,1 C1.3,0.6 1.7,0.3 2.1,0.2 C2.2,0.2 5.6,0.1 9.6,1.6 C13.3,3 18.2,6.1 20.6,12.9 C20.8,13.3 20.6,13.8 20.2,14 C20.1,14 18.7,14.9 18.2,17.1 C17.7,19.2 17.9,23.1 21.7,29.2 C21.9,29.5 21.9,30 21.6,30.3 C21.4,30.8 21.2,30.9 20.9,30.9 Z M2.9,2.2 C1.7,9.4 4.3,16 10.7,21.9 C13.5,24.5 16.4,26.4 18.5,27.6 C16.3,23.3 15.6,19.7 16.4,16.7 C16.9,14.8 17.9,13.6 18.6,13 C16.8,8.5 13.6,5.3 9,3.5 C6.4,2.6 4.1,2.3 2.9,2.2 Z" fill="#232323"></path>
                        </g>
                        <g transform="translate(29.000000, 74.000000)" id="Shape">
                            <path d="M37.8,2.1 C37.8,30.4 24.7,32 20,32 C14.7,32 2.2,30.4 2.2,2.1 L37.8,2.1 Z" fill="#E56C6C"></path>
                            <path d="M20,33.3 C18.2,33.3 12.7,33.3 8.1,28.5 C3.3,23.5 0.8,14.6 0.8,2 C0.8,1.3 1.4,0.7 2.1,0.7 L37.8,0.7 C38.5,0.7 39.1,1.3 39.1,2 C39.1,14.5 36.6,23.4 31.6,28.5 C28.5,31.7 24.6,33.3 20,33.3 Z M3.5,3.4 C3.7,14.5 5.9,22.4 10,26.7 C13.4,30.2 17.3,30.6 19.9,30.6 C23.8,30.6 27.1,29.3 29.6,26.7 C33.9,22.3 36.2,14.5 36.3,3.4 L3.5,3.4 Z" fill="#232323"></path>
                        </g>
                        <g transform="translate(19.000000, 37.000000)" id="Shape">
                            <path d="M29.4,3.6 C29.4,3.6 5.8,-2.5 1.2,6.7 L29.4,3.6 Z" fill="#1D1D1D"></path>
                            <path d="M1.2,7.6 C0.9,7.6 0.6,7.5 0.4,7.2 C0.2,6.9 0.2,6.6 0.3,6.2 C5.2,-3.6 28.6,2.4 29.6,2.6 C30,2.7 30.3,3.1 30.3,3.6 C30.3,4.1 29.9,4.4 29.5,4.5 L1.3,7.6 C1.3,7.6 1.2,7.6 1.2,7.6 Z M14.3,2.5 C10.1,2.5 5.7,3.1 3.2,5.5 L23.3,3.3 C21.4,3 19.2,2.7 17,2.6 C16.1,2.6 15.2,2.5 14.3,2.5 Z" fill="#232323"></path>
                        </g>
                        <g transform="translate(49.000000, 37.000000)" id="Shape">
                            <path d="M1.2,3.8 C1.2,3.8 24.8,-2.3 29.4,6.9 L1.2,3.8 Z" fill="#1D1D1D"></path>
                            <path d="M29.4,7.8 C29.4,7.8 29.3,7.8 29.3,7.8 L1.1,4.7 C0.6,4.7 0.3,4.3 0.3,3.8 C0.3,3.3 0.6,2.9 1,2.8 C2,2.5 25.4,-3.4 30.3,6.3 C30.5,6.6 30.4,7 30.2,7.3 C30,7.7 29.7,7.8 29.4,7.8 Z M7.3,3.6 L27.4,5.8 C24.4,3 18.5,2.6 13.6,2.9 C11.4,3 9.2,3.3 7.3,3.6 Z" fill="#232323"></path>
                        </g>
                        <g transform="translate(0.000000, 57.000000)" id="Shape">
                            <path d="M41,1 C41,1 40.9,1 40.8,1.1 C38.1,2.2 10.4,13.1 1.3,4.1 C1.3,4.1 8.6,35.4 43.6,22.8 L41,1 Z" fill="#1D1D1D"></path>
                            <path d="M28.2,26.6 C23.2,26.6 18.8,25.5 14.8,23.4 C3.5,17.3 0.5,4.8 0.4,4.3 C0.3,3.9 0.5,3.5 0.9,3.3 C1.3,3.1 1.7,3.2 2,3.5 C9,10.5 29.5,4.8 40.5,0.3 C40.6,0.3 40.6,0.2 40.7,0.2 C41,0.1 41.3,0.1 41.6,0.2 C41.9,0.3 42,0.6 42.1,0.9 L44.7,22.6 C44.8,23 44.5,23.4 44.1,23.6 C38.2,25.6 33,26.6 28.2,26.6 Z M3.1,6.5 C4.6,10.4 8.3,17.7 15.7,21.7 C22.9,25.6 31.9,25.7 42.5,22 L40.1,2.2 C34.9,4.4 13.4,12.1 3.1,6.5 Z" fill="#232323"></path>
                        </g>
                        <g transform="translate(54.000000, 57.000000)" id="Shape">
                            <path d="M3.8,1 C3.8,1 3.9,1 4,1.1 C6.7,2.2 34.4,13.1 43.5,4.1 C43.5,4.1 36.2,35.4 1.2,22.8 L3.8,1 Z" fill="#1D1D1D"></path>
                            <path d="M16.6,26.6 C11.8,26.6 6.6,25.6 0.9,23.6 C0.5,23.5 0.2,23 0.3,22.6 L2.9,0.9 C2.9,0.6 3.1,0.3 3.4,0.2 C3.7,0.1 4,-1.41414658e-14 4.3,0.2 C4.3,0.2 4.4,0.2 4.4,0.3 C15.4,4.8 35.9,10.5 42.9,3.5 C43.2,3.2 43.7,3.1 44,3.3 C44.4,3.5 44.6,3.9 44.5,4.3 C44.4,4.8 41.3,17.3 30.1,23.4 C26,25.5 21.5,26.6 16.6,26.6 Z M2.2,22 C12.8,25.7 21.9,25.6 29,21.7 C36.5,17.7 40.1,10.4 41.6,6.5 C37.2,8.9 30.3,9.2 21.1,7.3 C13.8,5.8 7.1,3.3 4.5,2.3 L2.2,22 Z" fill="#232323"></path>
                        </g>
                        <g transform="translate(35.000000, 39.000000)" id="Shape">
                            <path d="M25.3,24.4 L14.3,1.9 L3.3,24 C3.3,24.1 3.3,24.1 3.3,24 C2.5,26.2 2.1,27.7 2.1,29.6 C2.1,36.4 7.6,42 14.4,42 C21.2,42 26.7,36.6 26.7,29.8 C26.6,27.8 26.1,26 25.3,24.4 Z" fill="#D7994F"></path>
                            <path d="M14.3,43.1 C6.9,43.1 0.9,37.1 0.9,29.6 C0.9,27.5 1.4,25.9 2.1,23.8 C2.1,23.7 2.2,23.6 2.2,23.5 L13.2,1.4 C13.4,1 13.8,0.8 14.2,0.8 C14.6,0.8 15,1 15.2,1.4 L26.2,23.9 C26.2,24 26.2,24 26.3,24.1 C27.2,25.9 27.6,27.8 27.6,29.8 C27.7,37.1 21.7,43.1 14.3,43.1 Z M4.3,24.4 C3.5,26.6 3.2,27.9 3.2,29.5 C3.2,35.7 8.2,40.8 14.4,40.8 C20.6,40.8 25.6,35.8 25.6,29.7 C25.6,28 25.2,26.4 24.4,24.8 C24.4,24.7 24.4,24.7 24.3,24.6 L14.4,4.3 L4.3,24.4 Z" fill="#232323"></path>
                        </g>
                        <path d="M32.5,83.4 C32.5,83.4 38.5,82.6 43.5,80.7 C43.5,80.7 48.6,83.6 55.1,80.6 C55.1,80.6 60.6,82.7 65.1,83.2 L64.7,86.1 C64.7,86.1 58.8,83.9 55.1,83 C55.1,83 49.9,85.9 43.5,83 L32.8,86.3 L32.5,83.4 Z" id="Shape" fill="#C85F5F"></path>
                        <ellipse id="Oval" fill="#E1B080" cx="43.5" cy="69.4" rx="1.6" ry="2"></ellipse>
                        <path d="M5,14.6 C4.3,14.6 3.6,14.5 2.8,14.3 C2.1,14.1 1.6,13.4 1.8,12.7 C2,12 2.7,11.5 3.4,11.7 C5.3,12.1 6.9,11.9 8.3,10.9 C9.3,10.2 9.8,9.3 9.8,9.3 C10.1,8.6 10.9,8.4 11.6,8.7 C12.3,9 12.5,9.8 12.2,10.5 C11.3,12.1 8.9,14.6 5,14.6 Z" id="Shape" fill="#232323"></path>
                        <g transform="translate(45.000000, 28.000000)">
                            <circle id="Oval" fill="#CC3231" cx="4.2" cy="4.5" r="3"></circle>
                            <path d="M4.2,8.4 C2,8.4 0.3,6.6 0.3,4.5 C0.3,2.3 2.1,0.6 4.2,0.6 C6.4,0.6 8.1,2.4 8.1,4.5 C8.1,6.7 6.4,8.4 4.2,8.4 Z M4.2,2.4 C3.1,2.4 2.1,3.3 2.1,4.4 C2.1,5.5 3,6.5 4.2,6.5 C5.3,6.5 6.3,5.6 6.3,4.4 C6.3,3.4 5.3,2.4 4.2,2.4 Z" id="Shape" fill="#232323"></path>
                        </g>
                        <path d="M39,59.8 L35.9,60.7 C35.9,60.7 28.1,71 38.5,80.2 L41.5,79.4 C41.5,79.5 31.4,73.3 39,59.8 Z" id="Shape" fill="#171617"></path>
                        <path d="M59.5,59.7 L63.1,60.9 C63.1,60.9 70.6,71 60.1,80.2 L57.1,79.3 C57.1,79.3 67.1,73.1 59.5,59.7 Z" id="Shape" fill="#171617"></path>
                        <path d="M17,50.1 L16.2,53 C16.2,53 22.5,61.1 32.3,60.1 C32.4,60.1 24,59.9 17,50.1 Z" id="Shape" fill="#B8804D"></path>
                        <path d="M81.7,49.9 L82.3,52.5 C82.3,52.5 77.3,61.1 66.5,60.1 C66.5,60.1 74.7,59.7 81.7,49.9 Z" id="Shape" fill="#B8804D"></path>
                        <path d="M40.5,55.9 C40.5,55.9 26,59.3 18.2,45.4 L16.9,45.6 C16.9,45.6 23.8,60.6 39.9,57.1 L40.5,55.9 Z" id="Shape" fill="#C1CFCF"></path>
                        <path d="M58.3,56.1 C58.3,56.1 72.7,59.2 80.2,45.3 L81.7,45.5 C81.7,45.5 75.1,60.1 58.8,57.1 L58.3,56.1 Z" id="Shape" fill="#C1CFCF"></path>
                        <path d="M69.4,83.6 C69.4,83.6 69.5,88.9 77.4,95.6 C77.4,95.6 72.8,93.7 67,87.2 L67.5,83.5 L69.4,83.6 Z" id="Shape" fill="#C1CFCF"></path>
                        <path d="M28.6,83.6 C28.6,83.6 29.4,88.9 21.5,95.6 C21.5,95.6 26.3,93.1 31.2,88.1 L30.6,83.5 L28.6,83.6 Z" id="Shape" fill="#C1CFCF"></path>
                        <polygon id="Shape" fill="#FFFFFF" points="81.8 49.9 84.9 63.6 83.6 63.5 80.8 51.1"></polygon>
                        <path d="M49.3,43.3 L59.2,63.7 C59.2,63.7 64.2,71.7 55.5,78.1 C55.5,78.1 60.9,72 57.7,64.4 C54.5,56.7 49.3,43.3 49.3,43.3 Z" id="Shape" fill="#FFFFFF"></path>
                        <path d="M75.5,39.8 L71.8,27.2 C71.8,27.2 70.4,22.6 65.6,21.5 C65.6,21.5 68.8,22.5 70.7,28.5 C72.4,33.9 73.9,39.1 73.9,39.1 L75.5,39.8 Z" id="Shape" fill="#FFFFFF"></path>
                        <path d="M95.4,63.6 C95.4,63.6 91.3,77.3 78.4,80.6 C78.4,80.6 90.1,74.6 95.4,63.6 Z" id="Shape" fill="#FFFFFF"></path>
                        <path d="M63.9,83 C63.9,83 61.9,101.2 50.6,104.5 C50.6,104.5 63,105 65.2,83.2 L63.9,83 Z" id="Shape" fill="#FFFFFF"></path>
                        <path d="M83.5,48 C83.5,48 89.2,46.2 90.7,54.9 C90.7,54.9 91.6,61 87.1,63.2 C87.1,63.2 91.6,59.5 88.8,53 C88.9,53 87.8,48.7 83.5,48 Z" id="Shape" fill="#FFFFFF"></path>
                        <path d="M82.7,32.7 C82.7,32.7 97.2,25.1 95.5,3.9 C95.5,3.9 95.4,2.2 94.4,2.4 C94.4,2.4 96.6,22.6 82.2,30.5 L82.7,32.7 Z" id="Shape" fill="#C1CFCF"></path>
                        <path d="M93.6,15.6 C89.7,15.6 87.3,13.1 86.5,11.5 C86.2,10.8 86.4,10 87.1,9.7 C87.8,9.4 88.6,9.6 88.9,10.3 C89,10.5 90.8,13.7 95.3,12.7 C96,12.5 96.7,13 96.9,13.7 C97.1,14.4 96.6,15.1 95.9,15.3 C95.1,15.5 94.3,15.6 93.6,15.6 Z" id="Shape" fill="#232323"></path>
                        <circle id="Oval" fill="#1D1D1D" cx="34.4" cy="49.2" r="2"></circle>
                        <circle id="Oval" fill="#1D1D1D" cx="63.5" cy="49.2" r="2"></circle>
                        <path d="M65.6,15.6 C65.6,15.6 82.5,18.9 81.5,43.2 L80.2,43.1 C80.1,43.1 81.5,22.2 65.6,15.6 Z" id="Shape" fill="#FFFFFF"></path>
                    </g>
                    <path d="M65.9,24 C66.8,24.9 67,26.1 66.3,26.9 C65.6,27.6 64.3,27.5 63.4,26.6 C62.5,25.7 62.3,24.5 63,23.7 C63.7,23 65,23.1 65.9,24 Z" id="Shape" fill="#E1B080"></path>
                    <ellipse id="Oval" fill="#E1B080" transform="translate(67.797750, 28.901400) rotate(-12.246029) translate(-67.797750, -28.901400) " cx="67.79775" cy="28.9014" rx="1.09994844" ry="1.39993437"></ellipse>
                    <path d="M51.4,93 C51.4,97.2 50.3,100.7 48.9,100.7 C47.5,100.7 46.3,97.3 46.3,93.1 C46.3,88.9 47.4,85.4 48.8,85.4 C50.2,85.3 51.3,88.7 51.4,93 Z" id="Shape" fill="#E58484"></path>
                    <g transform="translate(47.000000, 89.000000)" id="Shape">
                        <path d="M1.8,1.2 L1.8,6.7" fill="#FFFFFF"></path>
                        <path d="M1.8,7.8 C1.2,7.8 0.7,7.3 0.7,6.7 L0.7,1.3 C0.7,0.7 1.2,0.2 1.8,0.2 C2.4,0.2 2.9,0.7 2.9,1.3 L2.9,6.7 C2.9,7.3 2.4,7.8 1.8,7.8 Z" fill="#232323"></path>
                    </g>
                    <g transform="translate(44.000000, 111.000000)">
                        <circle id="Oval" fill="#F3C715" cx="6" cy="6.3" r="4.9"></circle>
                        <path d="M6,12.1 C2.8,12.1 0.1,9.5 0.1,6.2 C0.1,3 2.7,0.3 6,0.3 C9.2,0.3 11.9,2.9 11.9,6.2 C11.9,9.5 9.2,12.1 6,12.1 Z M6,2.2 C3.8,2.2 2,4 2,6.2 C2,8.4 3.8,10.2 6,10.2 C8.2,10.2 10,8.4 10,6.2 C10,4 8.2,2.2 6,2.2 Z" id="Shape" fill="#232323"></path>
                    </g>
                    <path d="M51.3,119.5 C51.1,119.5 50.9,119.4 50.8,119.2 L48.9,115.5 C48.7,115.2 48.9,114.8 49.2,114.7 C49.5,114.6 49.9,114.7 50,115 L51.9,118.7 C52.1,119 51.9,119.4 51.6,119.5 C51.5,119.5 51.4,119.5 51.3,119.5 Z" id="Shape" fill="#232323"></path>
                    <path d="M48.7,119.5 C48.5,119.5 48.4,119.4 48.3,119.3 C48.1,119.1 48.1,118.7 48.3,118.5 L50,116.8 C50.2,116.6 50.6,116.6 50.8,116.8 C51,117 51,117.4 50.8,117.6 L49.1,119.3 C49,119.5 48.8,119.5 48.7,119.5 Z" id="Shape" fill="#232323"></path>
                </g>
            </g>
            <rect id="Rectangle-path" fill="#1D1D1D" fill-rule="nonzero" x="161.4" y="0.5" width="8" height="158.1"></rect>
            <g id="Group" transform="translate(200.000000, 45.000000)" fill="#1D1D1D" fill-rule="nonzero">
                <polygon id="Shape" points="0.4 1.2 10.1 1.2 10.1 30.2 22.1 30.2 22.1 1.2 31.8 1.2 31.8 68.8 22 68.8 22 38.7 10 38.7 10 68.8 0.3 68.8 0.3 1.2"></polygon>
                <path d="M52.1,1.2 L60.2,1.2 L75.3,68.8 L65.6,68.8 L62.7,54.3 L49.5,54.3 L46.6,68.8 L36.9,68.8 L52.1,1.2 Z M56.1,20.6 L56,20.6 L51.3,45.1 L61,45.1 L56.1,20.6 Z" id="Shape"></path>
                <path d="M111.7,20.6 L102,20.6 L102,18.4 C102,16.2 101.5,14.3 100.5,12.7 C99.5,11.1 97.7,10.3 95.2,10.3 C93.9,10.3 92.8,10.6 91.9,11.1 C91,11.6 90.4,12.3 89.9,13 C89.4,13.8 89.1,14.7 88.9,15.8 C88.7,16.8 88.6,18 88.6,19.1 C88.6,20.4 88.7,21.5 88.8,22.5 C88.9,23.4 89.1,24.2 89.5,24.9 C89.9,25.6 90.4,26.2 91.2,26.7 C91.9,27.2 92.9,27.7 94.2,28.2 L101.6,31.1 C103.8,31.9 105.5,32.9 106.8,34 C108.1,35.1 109.2,36.4 109.9,37.9 C110.6,39.4 111.1,41.1 111.4,43 C111.7,44.9 111.8,47.1 111.8,49.6 C111.8,52.5 111.5,55.1 111,57.5 C110.4,59.9 109.5,62 108.2,63.8 C106.9,65.6 105.2,66.9 103,67.9 C100.8,68.9 98.2,69.4 95.1,69.4 C92.8,69.4 90.6,69 88.5,68.2 C86.5,67.4 84.7,66.3 83.3,64.8 C81.9,63.4 80.7,61.7 79.8,59.7 C78.9,57.7 78.5,55.6 78.5,53.4 L78.5,49.8 L88.2,49.8 L88.2,52.8 C88.2,54.6 88.7,56.2 89.7,57.6 C90.7,59 92.5,59.8 95,59.8 C96.7,59.8 97.9,59.6 98.9,59.1 C99.8,58.6 100.5,57.9 101,57.1 C101.5,56.2 101.8,55.2 101.9,53.9 C102,52.6 102.1,51.3 102.1,49.7 C102.1,47.9 102,46.5 101.9,45.3 C101.8,44.1 101.5,43.3 101.1,42.5 C100.7,41.8 100.1,41.2 99.4,40.8 C98.7,40.4 97.7,39.9 96.5,39.4 L89.5,36.5 C85.3,34.8 82.5,32.5 81.1,29.7 C79.7,26.9 78.9,23.4 78.9,19.1 C78.9,16.6 79.2,14.1 79.9,11.9 C80.6,9.6 81.6,7.7 83,6 C84.4,4.3 86.1,3 88.2,2.1 C90.3,1.1 92.7,0.6 95.5,0.6 C97.9,0.6 100.1,1 102.1,1.9 C104.1,2.8 105.8,3.9 107.2,5.4 C108.6,6.8 109.7,8.5 110.5,10.3 C111.3,12.1 111.7,13.9 111.7,15.9 L111.7,20.6 Z" id="Shape"></path>
                <path d="M150.8,53.6 C150.8,55.8 150.4,57.9 149.6,59.8 C148.8,61.7 147.7,63.4 146.2,64.8 C144.8,66.2 143.1,67.3 141.2,68.2 C139.3,69 137.3,69.4 135.1,69.4 C132.9,69.4 130.9,69 129,68.2 C127.1,67.4 125.4,66.3 124,64.8 C122.6,63.4 121.5,61.7 120.6,59.8 C119.8,57.9 119.4,55.8 119.4,53.6 L119.4,1.2 L129.1,1.2 L129.1,52.7 C129.1,55.1 129.7,56.9 130.8,58 C132,59.2 133.3,59.7 135,59.7 C136.7,59.7 138.1,59.1 139.2,58 C140.4,56.8 140.9,55.1 140.9,52.7 L140.9,1.2 L150.6,1.2 L150.6,53.6 L150.8,53.6 Z" id="Shape"></path>
                <path d="M160.3,1.2 L175.9,1.2 C187.3,1.2 193,7.8 193,21.1 C193,25 192.4,28.4 191.1,31.2 C189.9,34 187.7,36.3 184.6,38 L195,68.8 L184.7,68.8 L175.8,39.9 L170,39.9 L170,68.8 L160.3,68.8 L160.3,1.2 Z M170.1,31.4 L175.6,31.4 C177.3,31.4 178.7,31.2 179.7,30.7 C180.7,30.2 181.5,29.5 182,28.7 C182.6,27.8 182.9,26.7 183.1,25.4 C183.3,24.1 183.4,22.6 183.4,20.9 C183.4,19.2 183.3,17.7 183.1,16.4 C182.9,15.1 182.5,14 181.9,13.1 C181.3,12.2 180.5,11.5 179.4,11.1 C178.3,10.7 176.9,10.4 175.2,10.4 L170.2,10.4 L170.2,31.4 L170.1,31.4 Z" id="Shape"></path>
                <path d="M212,1.2 L220.1,1.2 L235.2,68.8 L225.5,68.8 L222.6,54.3 L209.4,54.3 L206.5,68.8 L196.8,68.8 L212,1.2 Z M216.1,20.6 L216,20.6 L211.3,45.1 L221,45.1 L216.1,20.6 Z" id="Shape"></path>
            </g>
        </g>
    </g>
</svg>