<?xml version="1.0" encoding="UTF-8"?>
<svg width="352px" height="65px" viewBox="0 0 352 65" version="1.1" xmlns="http://www.w3.org/2000/svg" xmlns:xlink="http://www.w3.org/1999/xlink">
    <!-- Generator: Sketch 49 (51002) - http://www.bohemiancoding.com/sketch -->
    <title>NVLogo_2D_H</title>
    <desc>Created with Sketch.</desc>
    <defs>
        <polygon id="path-1" points="0.0216615385 0.102916667 341.656615 0.102916667 341.656615 64.9783333 0.0216615385 64.9783333"></polygon>
    </defs>
    <g id="Page-1" stroke="none" stroke-width="1" fill="none" fill-rule="evenodd">
        <g id="Stage-Printed-Banner" transform="translate(-107.000000, -1177.000000)">
            <g id="NVLogo_2D_H" transform="translate(107.000000, 1177.000000)">
                <path d="M347.346379,52.1491389 L347.346379,51.1770278 L347.970593,51.1770278 C348.311401,51.1770278 348.775319,51.2023056 348.775319,51.6190278 C348.775319,52.0689722 348.53632,52.1491389 348.134498,52.1491389 L347.346379,52.1491389 M347.346379,52.8323611 L347.763725,52.8323611 L348.730913,54.5313889 L349.792328,54.5313889 L348.722609,52.7626667 C349.274978,52.7222222 349.730954,52.4593333 349.730954,51.7136389 C349.730954,50.78775 349.091577,50.4898333 348.01175,50.4898333 L346.449231,50.4898333 L346.449231,54.5313889 L347.346379,54.5313889 L347.346379,52.8323611 M351.89097,52.5160278 C351.89097,50.1424444 350.047212,48.7655278 347.992615,48.7655278 C345.923938,48.7655278 344.081625,50.1424444 344.081625,52.5160278 C344.081625,54.8881667 345.923938,56.2697778 347.992615,56.2697778 C350.047212,56.2697778 351.89097,54.8881667 351.89097,52.5160278 M350.766375,52.5160278 C350.766375,54.2450278 349.494843,55.4056389 347.992615,55.4056389 L347.992615,55.3933611 C346.449231,55.4056389 345.201165,54.2450278 345.201165,52.5160278 C345.201165,50.78775 346.449231,49.6311111 347.992615,49.6311111 C349.494843,49.6311111 350.766375,50.78775 350.766375,52.5160278" id="Fill-1" fill="#1A1919"></path>
                <g id="Group-5">
                    <mask id="mask-2" fill="white">
                        <use xlink:href="#path-1"></use>
                    </mask>
                    <g id="Clip-3"></g>
                    <path d="M208.761633,12.3658889 L208.765965,54.9614722 L220.792451,54.9614722 L220.792451,12.3666111 L208.761633,12.3658889 Z M114.150531,12.3081111 L114.150531,54.9614722 L126.284242,54.9614722 L126.284242,21.8522778 L135.749973,21.8836944 C138.863819,21.8836944 141.015893,22.6301111 142.516316,24.2316389 C144.41856,26.2596389 145.195126,29.5276944 145.195126,35.5102222 L145.195126,54.9614722 L156.951565,54.9614722 L156.951565,31.3953611 C156.951565,14.57625 146.233075,12.3081111 135.747085,12.3081111 L114.150531,12.3081111 Z M228.126687,12.3673333 L228.126687,54.9614722 L247.633986,54.9614722 C258.027553,54.9614722 261.419389,53.2328333 265.088131,49.3566667 C267.681378,46.6346111 269.356898,40.66075 269.356898,34.1325833 C269.356898,28.1453611 267.93879,22.8041667 265.463959,19.4779722 C261.008903,13.5304722 254.589506,12.3673333 245.00608,12.3673333 L228.126687,12.3673333 Z M240.056779,21.6421111 L245.228111,21.6421111 C252.729863,21.6421111 257.582047,25.012 257.582047,33.7552222 C257.582047,42.50025 252.729863,45.8701389 245.228111,45.8701389 L240.056779,45.8701389 L240.056779,21.6421111 Z M191.42121,12.3673333 L181.383614,46.1254444 L171.76553,12.3695 L158.783048,12.3673333 L172.51863,54.9614722 L189.852915,54.9614722 L203.696804,12.3673333 L191.42121,12.3673333 Z M274.953518,54.9614722 L286.98217,54.9614722 L286.98217,12.3695 L274.95063,12.3673333 L274.953518,54.9614722 Z M308.668619,12.3828611 L291.874429,54.9466667 L303.734121,54.9466667 L306.390909,47.424 L326.265731,47.424 L328.780997,54.9466667 L341.656615,54.9466667 L324.734261,12.37925 L308.668619,12.3828611 Z M316.475799,20.1481944 L323.760935,40.08875 L308.960328,40.08875 L316.475799,20.1481944 Z" id="Fill-2" fill="#1A1919" mask="url(#mask-2)"></path>
                    <path d="M36.5834503,19.4675 L36.5834503,13.6055833 C37.1524267,13.5647778 37.7271795,13.5344444 38.3127631,13.5163889 C54.3419405,13.0122778 64.8578954,27.2924167 64.8578954,27.2924167 C64.8578954,27.2924167 53.5000287,43.0715278 41.3222728,43.0715278 C39.5684103,43.0715278 37.9986708,42.7887778 36.5834503,42.3139167 L36.5834503,24.5378611 C42.8237785,25.2918611 44.0783426,28.0489444 47.8308431,34.30375 L56.1748677,27.2671389 C56.1748677,27.2671389 50.0843651,19.2768333 39.8167959,19.2768333 C38.6994215,19.2768333 37.6318687,19.3555556 36.5834503,19.4675 Z M36.5834503,0.102916667 L36.5834503,8.85913889 C37.1589251,8.81363889 37.734761,8.77716667 38.3127631,8.75622222 C60.6039303,8.00511111 75.1261867,27.0418056 75.1261867,27.0418056 C75.1261867,27.0418056 58.4453579,47.3301111 41.0677497,47.3301111 C39.4756267,47.3301111 37.9845908,47.1831389 36.5834503,46.9350556 L36.5834503,52.34775 C37.7816944,52.5001389 39.0225395,52.5896944 40.3178995,52.5896944 C56.4900431,52.5896944 68.1843856,44.3296389 79.509399,34.5521944 C81.3860103,36.0562222 89.0733292,39.7139167 90.6542605,41.3176111 C79.8855877,50.3334722 54.7925005,57.6004722 40.5662851,57.6004722 C39.1954708,57.6004722 37.8770051,57.5174167 36.5834503,57.3931944 L36.5834503,65 L98.0495097,65 L98.0495097,0.102916667 L36.5834503,0.102916667 Z M36.5834503,42.3139167 L36.5834503,46.9350556 C21.6261579,44.2678889 17.4747241,28.7159167 17.4747241,28.7159167 C17.4747241,28.7159167 24.6562462,20.7570278 36.5834503,19.4675 L36.5834503,24.5378611 C36.5744246,24.5378611 36.5682872,24.5353333 36.5603446,24.5353333 C30.3016041,23.7835 25.4111508,29.6327778 25.4111508,29.6327778 C25.4111508,29.6327778 28.1509744,39.4799167 36.5834503,42.3139167 Z M10.0177395,28.0420833 C10.0177395,28.0420833 18.8827241,14.9583056 36.5834503,13.6055833 L36.5834503,8.85913889 C16.9779528,10.4328611 0,27.0418056 0,27.0418056 C0,27.0418056 9.61555692,54.8477222 36.5834503,57.3931944 L36.5834503,52.34775 C16.7938297,49.8571667 10.0177395,28.0420833 10.0177395,28.0420833 Z" id="Fill-4" fill="#7AB447" mask="url(#mask-2)"></path>
                </g>
            </g>
        </g>
    </g>
</svg>