<?xml version="1.0" encoding="UTF-8"?>
<svg width="521px" height="98px" viewBox="0 0 521 98" version="1.1" xmlns="http://www.w3.org/2000/svg" xmlns:xlink="http://www.w3.org/1999/xlink">
    <!-- Generator: Sketch 49 (51002) - http://www.bohemiancoding.com/sketch -->
    <title>Group</title>
    <desc>Created with Sketch.</desc>
    <defs></defs>
    <g id="Page-1" stroke="none" stroke-width="1" fill="none" fill-rule="evenodd">
        <g id="Stage-Printed-Banner" transform="translate(-505.000000, -801.000000)">
            <g id="Group" transform="translate(505.000000, 801.000000)">
                <g id="PlayStation_Wordmark" transform="translate(154.258345, 25.069767)" fill="#1E1E1E" fill-rule="nonzero">
                    <path d="M156.122288,22.2113154 C155.722299,22.1774855 150.197629,21.6960319 149.43843,21.6173329 C145.769737,21.2373692 144.236801,17.395 144.236801,14.9535465 L144.236801,13.086846 C144.236801,10.6824274 145.013375,5.74040701 151.017465,5.74040701 C154.799984,5.74040701 163.519602,5.74040701 163.519602,5.74040701 L163.516411,0.00569774735 C163.516411,0.00569774735 155.084728,0.00569774735 149.213968,0.00569774735 C138.794752,0.00569774735 135.34272,8.61381551 135.34272,13.1715989 L135.34272,16.3206324 C135.34272,20.065785 137.917117,28.1899565 146.721129,29.2005815 C147.708336,29.3138227 149.987706,29.477987 151.125263,29.5702181 C155.359189,29.9135029 157.194245,33.1177326 157.194245,36.5342006 C157.194245,37.5049419 157.177224,38.8004506 157.177224,39.3331831 C157.177224,45.7444913 153.044359,47.1375727 150.694779,47.1375727 C148.394842,47.1375727 137.350111,47.1375727 137.350111,47.1375727 L137.350111,52.7946512 C137.350111,52.7946512 150.290889,52.7946512 154.237234,52.7946512 C161.887023,52.7946512 166.478386,46.4339099 166.478386,38.8154069 L166.478386,35.5228634 C166.478386,29.229782 162.475659,22.7518822 156.122288,22.2113154 Z M182.566594,5.8632631 L173.230681,5.8586337 C173.230681,5.8586337 173.230681,36.6848328 173.230681,41.6735029 C173.230681,46.0678342 176.424565,52.7967877 183.894926,52.7967877 C188.965708,52.7967877 190.09901,52.7967877 190.09901,52.7967877 L190.09901,47.1446947 C190.09901,47.1446947 189.508247,47.1446947 185.932459,47.1446947 C184.165132,47.1446947 182.568722,45.9097238 182.568722,42.9284156 C182.568722,40.6343895 182.568722,18.3269258 182.568722,18.3269258 L192.57341,18.3269258 L192.57341,12.5961336 L182.566594,12.5961336 L182.566594,5.8632631 Z M56.6877977,31.7488663 C56.6877977,35.6806177 56.6916983,33.7811555 56.6916983,40.5902326 C56.6916983,49.1865989 62.4199091,52.8010611 66.5956804,52.8010611 C72.2132559,52.8010611 75.9230826,52.8010611 75.9230826,52.8010611 L75.9230826,47.1361483 C75.9230826,47.1361483 72.5487076,47.1361483 69.947361,47.1361483 C68.2357061,47.1361483 66.0148453,46.9196367 66.0148453,41.8672239 L66.0148453,30.703343 C66.0148453,19.0134957 69.9338862,18.3265698 72.6082805,18.3265698 C78.9779629,18.3265698 80.0775779,18.3265698 80.0775779,18.3265698 L80.0775779,52.8309738 L89.3308687,52.8074709 L89.3308687,12.5986264 C89.3308687,12.5986264 81.2935018,12.5986264 73.4735048,12.5986264 C67.4587771,12.5986264 56.6877977,13.7221366 56.6877977,31.7488663 Z M40.6410773,0.0035610374 L40.6410773,52.7960756 L49.8791202,52.7960756 L49.8777018,0.0035610374 L40.6410773,0.0035610374 Z M196.306641,31.7488663 C196.306641,35.6806177 196.310896,33.7811555 196.310896,40.5902326 C196.310896,49.1865989 202.039107,52.8010611 206.214878,52.8010611 C211.832453,52.8010611 215.54228,52.8010611 215.54228,52.8010611 L215.54228,47.1361483 C215.54228,47.1361483 212.167905,47.1361483 209.566558,47.1361483 C207.854549,47.1361483 205.634043,46.9196367 205.634043,41.8672239 L205.634043,30.703343 C205.634043,19.0134957 209.553084,18.3265698 212.227478,18.3265698 C218.596806,18.3265698 219.696775,18.3265698 219.696775,18.3265698 L219.696775,52.8309738 L228.950421,52.8074709 L228.950421,12.5986264 C228.950421,12.5986264 220.913054,12.5986264 213.092702,12.5986264 C207.077975,12.5986264 196.306641,13.7221366 196.306641,31.7488663 Z M113.055746,39.0226599 L104.116986,12.5982703 L94.3640631,12.5982703 L107.888867,52.4855523 L100.279148,72.3939389 L108.332827,72.3939389 L132.063023,12.6025436 L123.252982,12.6025436 L113.055746,39.0226599 Z M22.7812863,0.000356118326 C14.6056254,0.000356118326 0,0.0110392305 0,0.0110392305 L0,52.7946512 L9.26251038,52.7953634 L9.26251038,5.74859737 C9.26251038,5.74859737 16.3676335,5.74859737 20.1820673,5.74859737 C23.3706318,5.74859737 25.6265979,9.63334304 25.6265979,16.442064 C25.6265979,23.0403271 23.6184973,27.3662864 20.0870344,27.3662864 C16.3577047,27.3662864 13.342185,27.3662864 13.342185,27.3662864 L13.342185,33.0208721 C13.342185,33.0208721 18.3016227,33.0190916 22.9270269,33.0190916 C26.8843646,33.0190916 34.8862714,29.3643896 34.8862714,16.659644 C34.8862715,3.29468021 27.264496,0.000356118326 22.7812863,0.000356118326 Z M333.615618,12.5996948 C325.727893,12.5996948 317.12813,12.5996948 317.12813,12.5996948 L317.12813,52.7975 L326.518651,52.7989244 L326.518651,18.3194477 C326.518651,18.3194477 328.19591,18.3194477 334.122696,18.3194477 C339.914026,18.3194477 340.467911,24.9326671 340.467911,30.9654361 C340.467911,36.7279215 340.467911,52.7953634 340.467911,52.7953634 L349.753471,52.7953634 C349.753471,52.7953634 349.753471,35.5812646 349.753471,30.8361701 C349.753471,19.8724201 345.203242,12.5996948 333.615618,12.5996948 Z M294.074156,12.6025436 C277.874603,12.6025436 277.05264,25.636686 277.05264,30.2959593 L277.05264,35.4829796 C277.05264,42.2817296 279.471722,52.8031976 294.299682,52.8031976 C307.786544,52.8031976 311.10631,43.2624419 311.10631,35.1653343 L311.10631,30.3233793 C311.10631,27.9592006 311.099218,12.6025436 294.074156,12.6025436 Z M301.734228,34.4844622 C301.734228,42.3728924 300.355543,47.1582268 294.14153,47.1582268 C288.879973,47.1582268 286.361603,44.3036919 286.361603,34.3968605 L286.361603,30.9768314 C286.361603,24.241468 287.223281,18.303423 294.086212,18.303423 C300.832835,18.303423 301.734228,23.9772384 301.734228,30.9967733 L301.734228,34.4844622 Z M245.903854,5.8632631 L236.567941,5.8586337 C236.567941,5.8586337 236.567941,36.6848328 236.567941,41.6735029 C236.567941,46.0678342 239.76147,52.7967877 247.232186,52.7967877 C252.302968,52.7967877 253.43627,52.7967877 253.43627,52.7967877 L253.43627,47.1446947 C253.43627,47.1446947 252.845506,47.1446947 249.269718,47.1446947 C247.502391,47.1446947 245.905981,45.9097238 245.905981,42.9284156 C245.905981,40.6343895 245.905981,18.3269258 245.905981,18.3269258 L255.91067,18.3269258 L255.91067,12.5961336 L245.903854,12.5961336 L245.903854,5.8632631 Z M361.32762,42.2603634 C358.43621,42.2603634 356.093012,44.6135029 356.093012,47.516468 C356.093012,50.4194331 358.43621,52.7732849 361.32762,52.7732849 C364.21832,52.7732849 366.561518,50.4194331 366.561518,47.516468 C366.561518,44.6135029 364.21832,42.2603634 361.32762,42.2603634 Z M361.32691,52.0511047 C358.833362,52.0511047 356.812141,50.020596 356.812141,47.5164681 C356.812141,45.0123402 358.833362,42.9818315 361.32691,42.9818315 C363.821168,42.9818315 365.843098,45.0123402 365.843098,47.5164681 C365.843098,50.020596 363.821168,52.0511047 361.32691,52.0511047 Z M261.602002,52.8010611 L270.865576,52.8010611 L270.865576,12.5986264 L261.602002,12.5986264 L261.602002,52.8010611 Z M261.602002,7.89590846 L270.865576,7.89590846 L270.865576,0 L261.602002,0 L261.602002,7.89590846 Z M363.689257,49.8646221 C363.660889,49.7577907 363.643158,49.5961192 363.635357,49.3781831 L363.608408,48.6125581 C363.595642,48.2806686 363.532523,48.0413663 363.42047,47.8932268 C363.308416,47.7457995 363.141045,47.6261483 362.919065,47.5356977 C363.172249,47.4039389 363.368698,47.2287355 363.50912,47.0107994 C363.65025,46.7928634 363.720461,46.5136773 363.720461,46.1711046 C363.720461,45.5158721 363.458057,45.0657558 362.933958,44.8221802 C362.65737,44.6954069 362.306316,44.6320203 361.880796,44.6320203 L359.295761,44.6320203 L359.295761,50.3425145 L360.065952,50.3425145 L360.065952,47.8932267 L361.77016,47.8932267 C362.075826,47.8932267 362.299933,47.928125 362.443192,47.9986336 C362.694248,48.1254069 362.827578,48.3753924 362.845308,48.74859 L362.892115,49.7008139 C362.902753,49.9244476 362.915519,50.0740116 362.931121,50.1523546 C362.946724,50.2299854 362.96729,50.293372 362.992822,50.3425145 L363.937476,50.3425145 L363.937476,50.2143168 C363.818331,50.1623256 363.736064,50.0455233 363.689257,49.8646221 Z M362.631839,47.0307413 C362.42688,47.176032 362.148873,47.2479652 361.797819,47.2479652 L360.065952,47.2479652 L360.065952,45.2965116 L361.895689,45.2965116 C362.15171,45.2965116 362.35596,45.3356831 362.509147,45.4133139 C362.795664,45.5607412 362.938213,45.8385029 362.938213,46.2451744 C362.938213,46.6233575 362.836089,46.8854506 362.631839,47.0307413 Z" id="Shape"></path>
                </g>
                <g id="PlayStation_logo" fill="#1F1F1F">
                    <path d="M115.414311,69.6900448 C113.139597,72.5974824 107.566551,74.6715432 107.566551,74.6715432 C107.566551,74.6715432 66.1085591,89.7580555 66.1085591,89.7580555 C66.1085591,89.7580555 66.1085591,78.6320897 66.1085591,78.6320897 C66.1085591,78.6320897 96.6188224,67.6186653 96.6188224,67.6186653 C100.081149,66.3619058 100.612796,64.585286 97.7985013,63.6527622 C94.9894938,62.7175571 89.9031315,62.985528 86.4381581,64.24765 C86.4381581,64.24765 66.1085591,71.5015031 66.1085591,71.5015031 C66.1085591,71.5015031 66.1085591,59.954824 66.1085591,59.954824 C66.1085591,59.954824 67.2803042,59.5528736 67.2803042,59.5528736 C67.2803042,59.5528736 73.1548854,57.446658 81.4152728,56.5194943 C89.6756601,55.5976889 99.790195,56.6454383 107.730539,59.6948969 C116.678628,62.5594582 117.686379,66.7826132 115.414311,69.6900448 Z M70.0549295,50.7448159 C70.0549295,50.7448159 70.0549295,22.2921337 70.0549295,22.2921337 C70.0549295,18.9505926 69.4465728,15.874337 66.3519042,15.0034452 C63.9819717,14.2343804 62.5113385,16.4638612 62.5113385,19.8027228 C62.5113385,19.8027228 62.5113385,91.055016 62.5113385,91.055016 C62.5113385,91.055016 43.5439308,84.9561002 43.5439308,84.9561002 C43.5439308,84.9561002 43.5439308,0 43.5439308,0 C51.6085841,1.51669263 63.3577413,5.10208348 69.6740442,7.25921556 C85.7372295,12.8463131 91.1833162,19.8000469 91.1833162,35.4680474 C91.1833162,50.739457 81.8781495,56.5275327 70.0549295,50.7448159 Z M8.74080448,77.4691147 C-0.445337052,74.8484049 -1.97415645,69.3872473 2.21290426,66.2413207 C6.08256376,63.3365643 12.6633638,61.1499563 12.6633638,61.1499563 C12.6633638,61.1499563 39.8594198,51.3530999 39.8594198,51.3530999 C39.8594198,51.3530999 39.8594198,62.5219444 39.8594198,62.5219444 C39.8594198,62.5219444 20.2889456,69.6176985 20.2889456,69.6176985 C16.8319095,70.874458 16.3002609,72.6537591 19.1092684,73.5862829 C21.9209207,74.5188008 27.0099325,74.2535171 30.4722588,72.9940763 C30.4722588,72.9940763 39.8594198,69.542665 39.8594198,69.542665 C39.8594198,69.542665 39.8594198,79.5351376 39.8594198,79.5351376 C39.2642942,79.6423224 38.6003938,79.7495072 37.9867497,79.8540167 C28.5969421,81.4082231 18.5961353,80.7597459 8.74080448,77.4691147 Z M109.373095,81.893239 C110.560708,81.893239 111.674257,82.3595039 112.512726,83.2196755 C113.351201,84.0664467 113.814077,85.1972705 113.814077,86.3977593 C113.814077,87.6036047 113.351201,88.7290659 112.512726,89.5758431 C111.674257,90.4306522 110.560708,90.8969171 109.373095,90.8969171 C108.185482,90.8969171 107.074573,90.4306522 106.233458,89.5758431 C105.394989,88.7290659 104.934759,87.6036047 104.934759,86.3977593 C104.934759,83.9163856 106.923806,81.893239 109.373095,81.893239 Z M105.68065,86.3977593 C105.68065,87.3972729 106.064176,88.3378346 106.762464,89.0399072 C107.458099,89.752699 108.389146,90.1385678 109.373095,90.1385678 C111.412398,90.1385678 113.065534,88.461101 113.065534,86.3977593 C113.065534,85.3955644 112.684654,84.4550028 111.983726,83.7502489 C111.288084,83.0374571 110.357038,82.6542636 109.373095,82.6542636 C108.389146,82.6542636 107.458099,83.0374571 106.762464,83.7502489 C106.064176,84.4550028 105.68065,85.3955644 105.68065,86.3977593 Z M110.714116,83.9726622 C111.2008,84.1897131 111.446786,84.6077392 111.446786,85.202627 C111.446786,85.5081117 111.383303,85.7653577 111.253702,85.9663329 C111.161125,86.1110315 111.028872,86.2289413 110.880751,86.3307636 C110.99713,86.4004406 111.100288,86.4835059 111.176998,86.5799776 C111.282791,86.7193197 111.343628,86.9417271 111.351567,87.2445305 C111.351567,87.2445305 111.375387,87.88497 111.375387,87.88497 C111.383326,88.0564693 111.393913,88.1877735 111.420379,88.2681636 C111.446845,88.3860674 111.497083,88.461101 111.56056,88.4852204 C111.56056,88.4852204 111.626689,88.5173955 111.626689,88.5173955 C111.626689,88.5173955 111.626689,88.5897477 111.626689,88.5897477 C111.626689,88.5897477 111.626689,88.6996138 111.626689,88.6996138 C111.626689,88.6996138 111.626689,88.8095097 111.626689,88.8095097 C111.626689,88.8095097 111.518244,88.8094799 111.518244,88.8094799 C111.518244,88.8094799 110.732671,88.8094799 110.732671,88.8094799 C110.732671,88.8094799 110.669194,88.8094799 110.669194,88.8094799 C110.669194,88.8094799 110.637435,88.753233 110.637435,88.753233 C110.610969,88.6996674 110.592502,88.6380104 110.573958,88.5576203 C110.560725,88.485268 110.547492,88.3593263 110.539553,88.1663889 C110.539553,88.1663889 110.499854,87.3705259 110.499854,87.3705259 C110.489267,87.0945231 110.396696,86.9230238 110.222126,86.8319146 C110.113681,86.7810303 109.933819,86.7568871 109.69048,86.7568871 C109.69048,86.7568871 108.344166,86.7568871 108.344166,86.7568871 C108.344166,86.7568871 108.344166,88.6996436 108.344166,88.6996436 C108.344166,88.6996436 108.344166,88.8095097 108.344166,88.8095097 C108.344166,88.8095097 108.233074,88.8095097 108.233074,88.8095097 C108.233074,88.8095097 107.592975,88.8095097 107.592975,88.8095097 C107.592975,88.8095097 107.484536,88.8095097 107.484536,88.8095097 C107.484536,88.8095097 107.484536,88.6996436 107.484536,88.6996436 C107.484536,88.6996436 107.484536,83.9110827 107.484536,83.9110827 C107.484536,83.9110827 107.484536,83.8012166 107.484536,83.8012166 C107.484536,83.8012166 107.592975,83.8012166 107.592975,83.8012166 C107.592975,83.8012166 109.780405,83.8012166 109.780405,83.8012166 C110.156003,83.8012166 110.470759,83.8574634 110.714098,83.9727099 L110.714116,83.9726622 Z M108.344183,85.9904463 C108.344183,85.9904463 109.714299,85.9904463 109.714299,85.9904463 C109.98938,85.9904463 110.208917,85.9395024 110.364972,85.8350287 C110.507805,85.7305192 110.576575,85.540263 110.576575,85.2642602 C110.576575,84.964138 110.47871,84.7685193 110.2724,84.6640158 C110.158667,84.607769 109.99996,84.5755879 109.798937,84.5755879 C109.798937,84.5755879 108.344183,84.5755879 108.344183,84.5755879 C108.344183,84.5755879 108.344183,85.9904463 108.344183,85.9904463 Z" id="path-1"></path>
                </g>
            </g>
        </g>
    </g>
</svg>