<?xml version="1.0" encoding="UTF-8"?>
<svg width="366px" height="57px" viewBox="0 0 366 57" version="1.1" xmlns="http://www.w3.org/2000/svg" xmlns:xlink="http://www.w3.org/1999/xlink">
    <!-- Generator: Sketch 49 (51002) - http://www.bohemiancoding.com/sketch -->
    <title>stackshare-logo</title>
    <desc>Created with Sketch.</desc>
    <defs>
        <rect id="path-1" x="0.268596672" y="0.052728659" width="12.972558" height="13.4784795"></rect>
        <path d="M6.75487572,10.2817643 C8.57742708,10.2817643 10.0548969,8.71932944 10.0548969,6.7919684 C10.0548969,4.86460734 8.57742708,3.30217248 6.75487572,3.30217248 C4.93232436,3.30217248 3.45485457,4.86460734 3.45485457,6.7919684 C3.45485457,8.71932944 4.93232436,10.2817643 6.75487572,10.2817643 Z" id="path-3"></path>
        <rect id="path-5" x="0.268596672" y="0.852234213" width="12.972558" height="13.4784795"></rect>
        <ellipse id="path-7" cx="6.75487572" cy="7.59147403" rx="3.30002116" ry="3.48979592"></ellipse>
        <rect id="path-9" x="0.419653473" y="0.458990845" width="12.972558" height="13.4784795"></rect>
        <ellipse id="path-11" cx="6.90593249" cy="7.19823057" rx="3.30002116" ry="3.48979592"></ellipse>
    </defs>
    <g id="Page-1" stroke="none" stroke-width="1" fill="none" fill-rule="evenodd">
        <g id="Stage-Printed-Banner" transform="translate(-586.000000, -2014.000000)">
            <g id="stackshare-logo" transform="translate(586.000000, 2014.000000)">
                <g id="Group-2-Copy">
                    <rect id="Rectangle" fill="#0690FA" fill-rule="nonzero" x="0" y="0" width="59.7423348" height="57" rx="3.9762931"></rect>
                    <g id="Group" transform="translate(7.545991, 4.885715)">
                        <g id="Group-6">
                            <polygon id="Polygon" stroke="#FFFFFF" stroke-width="3.9762931" fill="#0690FA" fill-rule="nonzero" transform="translate(32.924713, 23.519687) rotate(30.000000) translate(-32.924713, -23.519687) " points="32.9247133 8.56341828 45.1728654 16.0415524 45.1728654 30.9978206 32.9247133 38.4759547 20.6765612 30.9978206 20.6765612 16.0415524"></polygon>
                            <rect id="Rectangle-3" fill="#0690FA" fill-rule="nonzero" x="33.3127417" y="0" width="18.0833191" height="48.8571428"></rect>
                            <g id="Oval" transform="translate(30.650246, 3.677419)">
                                <g id="path-1-link" transform="translate(2.704433, 2.758065)" fill="#0690FA">
                                    <path d="M4.05044222,7.52369983 C5.87299358,7.52369983 7.35046337,5.96126492 7.35046337,4.03390388 C7.35046337,2.10654282 5.87299358,0.544107961 4.05044222,0.544107961 C2.22789086,0.544107961 0.750421068,2.10654282 0.750421068,4.03390388 C0.750421068,5.96126492 2.22789086,7.52369983 4.05044222,7.52369983 Z" id="path-1"></path>
                                </g>
                                <g id="path-1-link">
                                    <g id="path-1-Clipped">
                                        <mask id="mask-2" fill="white">
                                            <use xlink:href="#path-1"></use>
                                        </mask>
                                        <g id="Rectangle-path"></g>
                                        <path d="M6.75487572,10.2817643 C8.57742708,10.2817643 10.0548969,8.71932944 10.0548969,6.7919684 C10.0548969,4.86460734 8.57742708,3.30217248 6.75487572,3.30217248 C4.93232436,3.30217248 3.45485457,4.86460734 3.45485457,6.7919684 C3.45485457,8.71932944 4.93232436,10.2817643 6.75487572,10.2817643 Z" id="path-1" stroke="#FFFFFF" stroke-width="6.36206897" mask="url(#mask-2)"></path>
                                        <mask id="mask-4" fill="white">
                                            <use xlink:href="#path-3"></use>
                                        </mask>
                                        <g id="path-1"></g>
                                    </g>
                                </g>
                            </g>
                            <g id="Oval" transform="translate(30.650246, 29.419355)">
                                <g id="path-3-link" transform="translate(2.704433, 3.677419)" fill="#0690FA">
                                    <ellipse id="path-3" cx="4.05044222" cy="3.91405467" rx="3.30002116" ry="3.48979592"></ellipse>
                                </g>
                                <g id="path-3-link">
                                    <g id="path-3-Clipped">
                                        <mask id="mask-6" fill="white">
                                            <use xlink:href="#path-5"></use>
                                        </mask>
                                        <g id="Rectangle-path"></g>
                                        <ellipse id="path-3" stroke="#FFFFFF" stroke-width="6.36206897" mask="url(#mask-6)" cx="6.75487572" cy="7.59147403" rx="3.30002116" ry="3.48979592"></ellipse>
                                        <mask id="mask-8" fill="white">
                                            <use xlink:href="#path-7"></use>
                                        </mask>
                                        <g id="path-3"></g>
                                    </g>
                                </g>
                            </g>
                            <g id="Oval" transform="translate(0.000000, 17.467742)">
                                <g id="path-5-link" transform="translate(3.605911, 3.677419)" fill="#0690FA">
                                    <ellipse id="path-5" cx="3.30002116" cy="3.52081121" rx="3.30002116" ry="3.48979592"></ellipse>
                                </g>
                                <g id="path-5-link">
                                    <g id="path-5-Clipped">
                                        <mask id="mask-10" fill="white">
                                            <use xlink:href="#path-9"></use>
                                        </mask>
                                        <g id="Rectangle-path"></g>
                                        <ellipse id="path-5" stroke="#FFFFFF" stroke-width="6.36206897" mask="url(#mask-10)" cx="6.90593249" cy="7.19823057" rx="3.30002116" ry="3.48979592"></ellipse>
                                        <mask id="mask-12" fill="white">
                                            <use xlink:href="#path-11"></use>
                                        </mask>
                                        <g id="path-5"></g>
                                    </g>
                                </g>
                            </g>
                            <rect id="Rectangle-2" fill="#FFFFFF" fill-rule="nonzero" x="10.3248391" y="22.0783008" width="8.79691348" height="3.98833819"></rect>
                        </g>
                    </g>
                </g>
                <g id="Group-7" transform="translate(74.822660, 6.435484)" fill="#000000" fill-rule="nonzero">
                    <path d="M24.6654942,33.1314732 C24.6654942,36.5052624 23.5190181,39.0747959 21.2260315,40.8401507 C18.9330449,42.6055056 15.5032105,43.4881697 10.9364256,43.4881697 C8.59546858,43.4881697 6.5999286,43.3263479 4.94974579,43.0026996 C3.29956297,42.6790512 1.75493828,42.2033933 0.315825364,41.5757116 L0.315825364,34.1612584 C1.94682001,34.9458605 3.78405994,35.602955 5.82760028,36.1325615 C7.87114062,36.6621679 9.67000478,36.9269672 11.2242468,36.9269672 C14.4094833,36.9269672 16.0020777,35.9854587 16.0020777,34.1024135 C16.0020777,33.3962716 15.791011,32.8225399 15.3688712,32.3812013 C14.9467314,31.9398625 14.2175918,31.4396862 13.1814305,30.8806571 C12.1452692,30.3216281 10.7637415,29.6694374 9.03680603,28.9240653 C6.56153182,27.8648524 4.74347977,26.8841144 3.58259535,25.981822 C2.42171093,25.0795296 1.57744402,24.044851 1.04976928,22.8777554 C0.522094546,21.7106597 0.258261134,20.2738785 0.258261134,18.5673689 C0.258261134,15.6447259 1.36636146,13.384125 3.58259535,11.7854981 C5.79882924,10.1868712 8.94084532,9.38756977 13.0087378,9.38756977 C16.8847486,9.38756977 20.6551679,10.2506192 24.3201088,11.9767439 L21.6721543,18.4496792 C20.0603478,17.7435373 18.5540988,17.1649019 17.1533623,16.7137556 C15.7526258,16.2626094 14.3231284,16.0370396 12.8648273,16.0370396 C10.274424,16.0370396 8.97924181,16.7529784 8.97924181,18.1848772 C8.97924181,18.9890945 9.39657826,19.6854184 10.2312638,20.27387 C11.0659492,20.8623216 12.8935953,21.7351784 15.7142566,22.8924666 C18.2279071,23.9320644 20.0699441,24.902995 21.2404225,25.8052874 C22.4109011,26.7075798 23.2743559,27.7471621 23.8308129,28.9240653 C24.3872698,30.1009686 24.6654942,31.5034238 24.6654942,33.1314732 Z M42.2840377,36.3385185 C43.8190915,36.3385185 45.6611283,35.9952601 47.8102036,35.3087333 L47.8102036,41.9876256 C45.622752,42.9879933 42.9364482,43.4881697 39.7512116,43.4881697 C36.239776,43.4881697 33.6829905,42.5809871 32.0807781,40.7665946 C30.4785657,38.9522022 29.6774716,36.2306543 29.6774716,32.6018695 L29.6774716,16.7431781 L25.4752829,16.7431781 L25.4752829,12.9476842 L30.3106781,9.94659598 L32.8435041,3.00290182 L38.4560165,3.00290182 L38.4560165,10.0054409 L47.4648183,10.0054409 L47.4648183,16.7431781 L38.4560165,16.7431781 L38.4560165,32.6018695 C38.4560165,33.876848 38.8061954,34.8183564 39.5065637,35.426423 C40.2069319,36.0344897 41.1327474,36.3385185 42.2840377,36.3385185 Z M72.7588515,42.899721 L71.0607068,38.4275112 L70.8304499,38.4275112 C69.3529607,40.3301714 67.8323208,41.6492639 66.2684848,42.3848284 C64.7046488,43.120393 62.665936,43.4881697 60.1522854,43.4881697 C57.0629898,43.4881697 54.6309254,42.5858907 52.8560195,40.7813059 C51.0811135,38.9767209 50.1936739,36.4071875 50.1936739,33.0726284 C50.1936739,29.5811489 51.3881197,27.0067117 53.7770471,25.3492397 C56.1659745,23.6917677 59.7684998,22.7747777 64.584731,22.5982422 L70.1684613,22.4217076 L70.1684613,20.9800084 C70.1684613,17.6454494 68.4991154,15.9781948 65.1603734,15.9781948 C62.5891583,15.9781948 59.5670665,16.7725926 56.0940073,18.3614118 L53.1870138,12.3003907 C56.890331,10.3192703 60.9965383,9.3287249 65.5057588,9.3287249 C69.8230975,9.3287249 73.1330076,10.2898481 75.4355882,12.2121234 C77.7381689,14.1343986 78.889442,17.0569977 78.889442,20.9800084 L78.889442,42.899721 L72.7588515,42.899721 Z M70.1684613,27.6589007 L66.7721718,27.7765905 C64.2201448,27.8550506 62.3205443,28.3258049 61.0733132,29.1888672 C59.8260819,30.0519295 59.2024757,31.3661184 59.2024757,33.1314732 C59.2024757,35.6618151 60.6223792,36.9269672 63.4622286,36.9269672 C65.4961749,36.9269672 67.1223481,36.3287169 68.340797,35.1321987 C69.5592459,33.9356804 70.1684613,32.346885 70.1684613,30.3657645 L70.1684613,27.6589007 Z M96.5333447,43.4881697 C86.517119,43.4881697 81.5090811,37.8685411 81.5090811,26.6291156 C81.5090811,21.0388253 82.8714209,16.7677115 85.5961414,13.8156459 C88.3208618,10.8635804 92.2255959,9.38756977 97.3104618,9.38756977 C101.032968,9.38756977 104.371659,10.1329306 107.326638,11.6236747 L104.736248,18.5673689 C103.354699,17.9985324 102.069111,17.5326819 100.879444,17.1698033 C99.6897774,16.8069248 98.5001286,16.6254883 97.3104618,16.6254883 C92.743677,16.6254883 90.4603184,19.9403826 90.4603184,26.5702707 C90.4603184,33.0040082 92.743677,36.2208287 97.3104618,36.2208287 C98.9990209,36.2208287 100.562833,35.9903553 102.001946,35.5294015 C103.441059,35.0684478 104.88015,34.3476054 106.319263,33.3668527 L106.319263,41.0461077 C104.899339,41.9680153 103.465045,42.6054949 102.016337,42.9585659 C100.567631,43.3116368 98.7399848,43.4881697 96.5333447,43.4881697 Z M119.419015,25.0108817 L123.247037,20.0090681 L132.255838,10.0054409 L142.156885,10.0054409 L129.377627,24.2753209 L142.934003,42.899721 L132.802699,42.899721 L123.534858,29.5713589 L119.7644,32.6607144 L119.7644,42.899721 L110.985855,42.899721 L110.985855,0 L119.303887,0 L119.445813,25.0064488 L119.303887,25.0108817 L119.419015,25.0108817 Z M169.033313,33.1314732 C169.033313,36.5052624 167.886837,39.0747959 165.59385,40.8401507 C163.300864,42.6055056 159.871029,43.4881697 155.304245,43.4881697 C152.963288,43.4881697 150.967748,43.3263479 149.317564,43.0026996 C147.667381,42.6790512 146.122757,42.2033933 144.683644,41.5757116 L144.683644,34.1612584 C146.314639,34.9458605 148.151879,35.602955 150.195419,36.1325615 C152.238959,36.6621679 154.037823,36.9269672 155.592066,36.9269672 C158.777302,36.9269672 160.369896,35.9854587 160.369896,34.1024135 C160.369896,33.3962716 160.15883,32.8225399 159.73669,32.3812013 C159.31455,31.9398625 158.58541,31.4396862 157.549249,30.8806571 C156.513088,30.3216281 155.13156,29.6694374 153.404625,28.9240653 C150.929351,27.8648524 149.111298,26.8841144 147.950414,25.981822 C146.789529,25.0795296 145.945263,24.044851 145.417588,22.8777554 C144.889914,21.7106597 144.62608,20.2738785 144.62608,18.5673689 C144.62608,15.6447259 145.73418,13.384125 147.950414,11.7854981 C150.166648,10.1868712 153.308664,9.38756977 157.376556,9.38756977 C161.252568,9.38756977 165.022987,10.2506192 168.687928,11.9767439 L166.039973,18.4496792 C164.428167,17.7435373 162.921918,17.1649019 161.521181,16.7137556 C160.120445,16.2626094 158.690947,16.0370396 157.232646,16.0370396 C154.642242,16.0370396 153.34706,16.7529784 153.34706,18.1848772 C153.34706,18.9890945 153.764397,19.6854184 154.599082,20.27387 C155.433768,20.8623216 157.261414,21.7351784 160.082075,22.8924666 C162.595726,23.9320644 164.437763,24.902995 165.608242,25.8052874 C166.77872,26.7075798 167.642175,27.7471621 168.198632,28.9240653 C168.755089,30.1009686 169.033313,31.5034238 169.033313,33.1314732 Z M202.798623,42.899721 L194.020078,42.899721 L194.020078,23.6868723 C194.020078,18.9400293 192.293168,16.5666435 188.839297,16.5666435 C186.383211,16.5666435 184.608332,17.4198855 183.514606,19.1263951 C182.42088,20.8329048 181.874025,23.5985858 181.874025,27.4235213 L181.874025,42.899721 L173.09548,42.899721 L173.09548,0 L181.93159,0 L181.874025,6.44532648 C181.874025,7.17108346 181.806868,8.87756752 181.67255,11.5648298 L181.471076,14.2128488 L181.93159,14.2128488 C183.888783,10.99598 186.99722,9.38756977 191.256995,9.38756977 C195.037065,9.38756977 197.905654,10.427152 199.862847,12.5063477 C201.820041,14.5855434 202.798623,17.5669868 202.798623,21.4507673 L202.798623,42.899721 Z M228.686968,42.899721 L226.988823,38.4275112 L226.758566,38.4275112 C225.281077,40.3301714 223.760437,41.6492639 222.196601,42.3848284 C220.632765,43.120393 218.594053,43.4881697 216.080402,43.4881697 C212.991106,43.4881697 210.559042,42.5858907 208.784136,40.7813059 C207.009229,38.9767209 206.12179,36.4071875 206.12179,33.0726284 C206.12179,29.5811489 207.316236,27.0067117 209.705163,25.3492397 C212.094091,23.6917677 215.696616,22.7747777 220.512847,22.5982422 L226.096578,22.4217076 L226.096578,20.9800084 C226.096578,17.6454494 224.427232,15.9781948 221.08849,15.9781948 C218.517275,15.9781948 215.495183,16.7725926 212.022123,18.3614118 L209.115129,12.3003907 C212.818447,10.3192703 216.924654,9.3287249 221.433875,9.3287249 C225.751213,9.3287249 229.061123,10.2898481 231.363704,12.2121234 C233.666285,14.1343986 234.817558,17.0569977 234.817558,20.9800084 L234.817558,42.899721 L228.686968,42.899721 Z M226.096578,27.6589007 L222.700288,27.7765905 C220.148261,27.8550506 218.24866,28.3258049 217.001429,29.1888672 C215.754198,30.0519295 215.130592,31.3661184 215.130592,33.1314732 C215.130592,35.6618151 216.550495,36.9269672 219.390345,36.9269672 C221.424291,36.9269672 223.050464,36.3287169 224.268913,35.1321987 C225.487362,33.9356804 226.096578,32.346885 226.096578,30.3657645 L226.096578,27.6589007 Z M257.354421,9.38756977 C258.544088,9.38756977 259.532263,9.4758362 260.318978,9.65237173 L259.65699,18.0671875 C258.947027,17.871037 258.083572,17.7729632 257.0666,17.7729632 C254.265127,17.7729632 252.082505,18.5085167 250.518669,19.9796457 C248.954833,21.4507747 248.172926,23.5103244 248.172926,26.1583566 L248.172926,42.899721 L239.394381,42.899721 L239.394381,10.0054409 L246.043049,10.0054409 L247.338245,15.5368583 L247.769976,15.5368583 C248.767762,13.6930433 250.11571,12.2072253 251.813863,11.0793596 C253.512017,9.95149412 255.358851,9.38756977 257.354421,9.38756977 Z M276.699891,15.7722378 C274.838638,15.7722378 273.380359,16.3753916 272.32501,17.5817174 C271.26966,18.7880431 270.665241,20.4994309 270.511736,22.715932 L282.830481,22.715932 C282.792105,20.4994309 282.226063,18.7880431 281.132336,17.5817174 C280.03861,16.3753916 278.561143,15.7722378 276.699891,15.7722378 Z M265.791469,39.1042271 C262.874867,36.1815842 261.416588,32.04287 261.416588,26.6879604 C261.416588,21.1761304 262.764537,16.914824 265.460475,13.9039133 C268.156413,10.8930026 271.88366,9.38756977 276.642327,9.38756977 C281.189924,9.38756977 284.730088,10.711566 287.262927,13.3595982 C289.795766,16.0076305 291.062166,19.665783 291.062166,24.3341658 L291.062166,28.6886859 L270.310261,28.6886859 C270.406203,31.2386428 271.144936,33.2295409 272.526484,34.6614397 C273.908033,36.0933387 275.846009,36.8092774 278.340471,36.8092774 C280.278477,36.8092774 282.11092,36.6033224 283.837855,36.1914062 C285.56479,35.7794901 287.368452,35.1223957 289.248893,34.2201033 L289.248893,41.1637975 C287.713839,41.9483996 286.073275,42.5319387 284.327151,42.9144322 C282.581028,43.2969258 280.451173,43.4881697 277.937522,43.4881697 C272.756715,43.4881697 268.708072,42.0268701 265.791469,39.1042271 Z" id="stackshare"></path>
                    <rect id="Rectangle-5" x="178.492611" y="0" width="3.60591133" height="16.5483871"></rect>
                </g>
            </g>
        </g>
    </g>
</svg>