<?xml version="1.0" encoding="UTF-8"?>
<svg width="369px" height="100px" viewBox="0 0 369 100" version="1.1" xmlns="http://www.w3.org/2000/svg" xmlns:xlink="http://www.w3.org/1999/xlink">
    <!-- Generator: Sketch 49 (51002) - http://www.bohemiancoding.com/sketch -->
    <title>tokbox-logo</title>
    <desc>Created with Sketch.</desc>
    <defs></defs>
    <g id="Page-1" stroke="none" stroke-width="1" fill="none" fill-rule="evenodd">
        <g id="Stage-Printed-Banner" transform="translate(-122.000000, -1511.000000)" fill="#0099CC" fill-rule="nonzero">
            <g id="tokbox-logo" transform="translate(122.000000, 1511.000000)">
                <path d="M48.3098684,0.49382716 L0,0.49382716 L0,49.8765432 C0,77.1604938 21.6059211,99.2592593 48.43125,99.2592593 C75.2565789,99.2592593 96.9838816,77.1604938 96.9838816,49.8765432 C96.9838816,22.5925926 75.1351974,0.49382716 48.3098684,0.49382716 Z M48.7953947,57.7777778 C44.4256579,57.7777778 40.9055921,54.1975309 40.9055921,49.7530864 C40.9055921,45.308642 44.4256579,41.7283951 48.7953947,41.7283951 C53.1651316,41.7283951 56.6851974,45.308642 56.6851974,49.7530864 C56.6851974,54.1975309 53.1651316,57.7777778 48.7953947,57.7777778 Z" id="Shape"></path>
                <g id="Group" transform="translate(129.878289, 12.345679)">
                    <path d="M173.697039,52.4691358 C170.541118,55.9259259 166.535526,57.7777778 161.680263,57.7777778 C156.825,57.7777778 152.819408,56.0493827 149.542105,52.4691358 C146.386184,49.0123457 144.808224,44.5679012 144.808224,39.1358025 C144.808224,33.7037037 146.386184,29.2592593 149.542105,25.8024691 C152.698026,22.2222222 156.825,20.4938272 161.680263,20.4938272 C166.535526,20.4938272 170.541118,22.2222222 173.697039,25.8024691 C176.974342,29.2592593 178.552303,33.8271605 178.552303,39.1358025 C178.552303,44.5679012 176.852961,49.0123457 173.697039,52.4691358 Z M168.113487,31.2345679 C166.535526,29.0123457 164.350658,27.9012346 161.680263,27.9012346 C159.009868,27.9012346 156.825,29.0123457 155.247039,31.2345679 C153.669079,33.4567901 152.819408,36.1728395 152.819408,39.382716 C152.819408,45.9259259 156.339474,50.2469136 161.801645,50.2469136 C167.142434,50.2469136 170.783882,45.9259259 170.783882,39.382716 C170.6625,36.1728395 169.812829,33.4567901 168.113487,31.2345679 Z" id="Shape"></path>
                    <path d="M204.163816,39.5061728 C206.105921,41.9753086 209.140461,45.5555556 213.510197,50.617284 C214.359868,51.7283951 214.724013,52.8395062 214.724013,53.9506173 C214.724013,56.0493827 213.024671,57.7777778 210.961184,57.7777778 C209.504605,57.7777778 208.412171,57.1604938 207.441118,55.9259259 L199.187171,45.8024691 L190.933224,55.9259259 C189.840789,57.1604938 188.748355,57.7777778 187.534539,57.7777778 C185.471053,57.7777778 183.650329,55.9259259 183.650329,53.7037037 C183.650329,52.7160494 184.014474,51.7283951 184.742763,50.9876543 L194.210526,39.5061728 L184.378618,27.654321 C183.528947,26.4197531 182.922039,25.1851852 182.922039,24.0740741 C182.922039,22.8395062 183.528947,21.8518519 184.621382,20.9876543 C185.228289,20.4938272 185.835197,20.3703704 186.684868,20.3703704 C188.020066,20.3703704 189.233882,20.9876543 190.204934,22.2222222 L199.187171,33.3333333 L208.169408,22.2222222 C209.140461,20.9876543 210.232895,20.3703704 211.568092,20.3703704 C213.631579,20.3703704 215.452303,22.345679 215.452303,24.3209877 C215.452303,25.1851852 215.209539,26.0493827 214.48125,26.9135802 L204.163816,39.5061728 Z" id="Shape"></path>
                    <g id="Shape">
                        <path d="M20.1493421,57.7777778 L18.2072368,57.7777778 C14.6871711,57.7777778 11.8953947,56.5432099 9.71052632,53.8271605 C7.88980263,51.4814815 7.04013158,48.5185185 7.04013158,45.0617284 L7.04013158,27.9012346 L5.21940789,27.9012346 C2.42763158,27.9012346 1.09243421,26.7901235 1.09243421,24.4444444 C1.09243421,22.2222222 3.03453947,20.4938272 5.21940789,20.4938272 L7.04013158,20.4938272 L7.04013158,12.4691358 C7.04013158,10.1234568 8.73947368,8.14814815 10.9243421,8.14814815 C13.1092105,8.14814815 14.8085526,10.1234568 14.8085526,12.4691358 L14.8085526,20.4938272 L19.9065789,20.4938272 C22.0914474,20.4938272 24.1549342,22.0987654 24.1549342,24.4444444 C24.1549342,26.6666667 22.6983553,27.9012346 19.9065789,27.9012346 L14.5657895,27.9012346 L14.5657895,44.1975309 C14.5657895,48.1481481 16.3865132,50.1234568 20.0279605,50.1234568 C21.9700658,50.2469136 23.9121711,51.6049383 23.9121711,53.7037037 C23.9121711,55.9259259 22.3342105,57.7777778 20.1493421,57.7777778 Z"></path>
                        <path d="M58.1417763,52.4691358 C54.9858553,55.9259259 50.9802632,57.7777778 46.125,57.7777778 C41.2697368,57.7777778 37.2641447,56.0493827 33.9868421,52.4691358 C30.8309211,49.0123457 29.2529605,44.5679012 29.2529605,39.1358025 C29.2529605,33.7037037 30.8309211,29.2592593 33.9868421,25.8024691 C37.1427632,22.2222222 41.2697368,20.4938272 46.125,20.4938272 C50.9802632,20.4938272 54.9858553,22.2222222 58.1417763,25.8024691 C61.2976974,29.2592593 62.9970395,33.8271605 62.9970395,39.1358025 C62.8756579,44.5679012 61.2976974,49.0123457 58.1417763,52.4691358 Z M52.5582237,31.2345679 C50.9802632,29.0123457 48.7953947,27.9012346 46.125,27.9012346 C43.4546053,27.9012346 41.2697368,29.0123457 39.5703947,31.2345679 C37.9924342,33.4567901 37.1427632,36.1728395 37.1427632,39.382716 C37.1427632,45.9259259 40.6628289,50.2469136 46.125,50.2469136 C51.4657895,50.2469136 55.1072368,45.9259259 55.1072368,39.382716 C54.9858553,36.1728395 54.2575658,33.4567901 52.5582237,31.2345679 Z"></path>
                        <path d="M84.9671053,39.1358025 L96.3769737,50.7407407 C97.4694079,51.8518519 97.9549342,52.8395062 97.9549342,54.0740741 C97.9549342,56.1728395 96.2555921,57.7777778 94.3134868,57.7777778 C93.2210526,57.7777778 92.1286184,57.4074074 91.2789474,56.4197531 L78.7766447,43.5802469 L78.6552632,53.3333333 C78.6552632,55.8024691 77.0773026,57.7777778 74.7710526,57.7777778 C72.4648026,57.7777778 70.8868421,55.8024691 70.8868421,53.3333333 L70.8868421,5.30864198 C70.8868421,2.83950617 72.5861842,0.987654321 74.7710526,0.987654321 C76.9559211,0.987654321 78.6552632,2.71604938 78.6552632,5.30864198 L78.6552632,32.5925926 L79.7476974,33.7037037 L91.6430921,21.6049383 C92.6141447,20.7407407 93.7065789,20.2469136 94.7990132,20.2469136 C96.7411184,20.2469136 98.4404605,21.8518519 98.4404605,23.9506173 C98.4404605,25.0617284 97.9549342,26.0493827 97.1052632,27.037037 L84.9671053,39.1358025 Z"></path>
                    </g>
                    <path d="M112.763487,39.5061728 C112.763487,46.0493827 116.404934,50.3703704 121.745724,50.3703704 C127.086513,50.3703704 130.727961,46.0493827 130.727961,39.5061728 C130.727961,36.2962963 129.878289,33.5802469 128.178947,31.3580247 C126.600987,29.1358025 124.416118,28.0246914 121.745724,28.0246914 L118.711184,28.0246914 L118.711184,20.617284 L121.745724,20.617284 C126.600987,20.617284 130.606579,22.345679 133.7625,25.9259259 C136.918421,29.382716 138.617763,33.9506173 138.617763,39.2592593 C138.617763,44.5679012 137.039803,49.0123457 133.7625,52.5925926 C130.606579,56.0493827 126.600987,57.9012346 121.745724,57.9012346 C116.890461,57.9012346 112.884868,56.1728395 109.607566,52.5925926 C106.451645,49.1358025 104.873684,44.691358 104.873684,39.2592593 L104.873684,5.30864198 C104.873684,2.83950617 106.573026,0.987654321 108.757895,0.987654321 C110.942763,0.987654321 112.642105,2.71604938 112.642105,5.30864198 L112.642105,39.5061728 L112.763487,39.5061728 Z" id="Shape"></path>
                </g>
                <path d="M368.393092,25.9259259 C368.393092,28.7654321 366.208224,31.1111111 363.295066,31.1111111 C360.381908,31.1111111 358.075658,28.8888889 358.075658,25.9259259 C358.075658,23.0864198 360.381908,20.8641975 363.295066,20.8641975 C366.208224,20.8641975 368.393092,23.0864198 368.393092,25.9259259 Z M359.410855,25.9259259 C359.410855,28.1481481 361.110197,30 363.295066,30 C365.479934,30 367.179276,28.1481481 367.179276,25.9259259 C367.179276,23.7037037 365.601316,21.8518519 363.295066,21.8518519 C360.988816,21.8518519 359.410855,23.7037037 359.410855,25.9259259 Z M362.445395,28.6419753 L361.231579,28.6419753 L361.231579,23.4567901 C361.717105,23.3333333 362.324013,23.3333333 363.173684,23.3333333 C364.144737,23.3333333 364.508882,23.4567901 364.873026,23.7037037 C365.115789,23.9506173 365.358553,24.3209877 365.358553,24.8148148 C365.358553,25.4320988 364.873026,25.8024691 364.266118,26.0493827 C364.751645,26.2962963 364.994408,26.6666667 365.237171,27.2839506 C365.358553,28.0246914 365.479934,28.3950617 365.601316,28.5185185 L364.3875,28.5185185 C364.266118,28.2716049 364.144737,27.9012346 364.023355,27.2839506 C363.901974,26.6666667 363.659211,26.4197531 362.930921,26.4197531 L362.324013,26.4197531 L362.324013,28.6419753 L362.445395,28.6419753 Z M362.445395,25.6790123 L363.052303,25.6790123 C363.659211,25.6790123 364.266118,25.4320988 364.266118,24.9382716 C364.266118,24.4444444 363.901974,24.1975309 363.173684,24.1975309 C362.809539,24.1975309 362.688158,24.1975309 362.566776,24.3209877 L362.566776,25.6790123 L362.445395,25.6790123 Z" id="Shape"></path>
            </g>
        </g>
    </g>
</svg>